<svg width="520" height="530" viewBox="0 0 520 530" version="1.1" xmlns="http://www.w3.org/2000/svg" xmlns:xlink="http://www.w3.org/1999/xlink">
<title>Group</title>
<desc>Created using Figma</desc>
<g id="Canvas" transform="translate(-3987 -1519)">
<g id="Group">
<g id="Rectangle 21">
<use xlink:href="#path0_fill" transform="translate(3987 1519)" fill="#151828"/>
</g>
<g id="Design">
<g id="Group">
<g id="Group">
<g id="Group" filter="url(#filter0_f)">
<g id="Group">
<g id="Vector 11">
<use xlink:href="#path1_fill" transform="matrix(0.92338 0.122331 0.0180411 1.05432 4236.75 1611.02)" fill="url(#paint1_linear)"/>
</g>
<g id="Vector 12">
<use xlink:href="#path2_fill" transform="matrix(0.92338 0.122331 0.0180411 1.05432 4247.92 1629.88)" fill="url(#paint2_linear)"/>
</g>
<g id="Vector 13">
<use xlink:href="#path3_fill" transform="matrix(0.92338 0.122331 0.0180411 1.05432 4196.54 1605.71)" fill="url(#paint3_linear)"/>
</g>
<g id="Vector 14">
<use xlink:href="#path4_fill" transform="matrix(0.92338 0.122331 0.0180411 1.05432 4204.69 1606.77)" fill="url(#paint4_linear)"/>
</g>
<g id="Vector 10">
<use xlink:href="#path5_fill" transform="matrix(0.92338 0.122331 0.0180411 1.05432 4245.13 1674.44)" fill="url(#paint5_linear)"/>
</g>
<g id="Vector 15">
<use xlink:href="#path6_fill" transform="matrix(0.92338 0.122331 0.0180411 1.05432 4268.73 1692.06)" fill="url(#paint6_linear)"/>
</g>
<g id="Vector 18">
<use xlink:href="#path7_fill" transform="matrix(0.928036 -0.0421367 0.0351666 1.05373 4201.93 1892.3)" fill="url(#paint7_linear)"/>
</g>
<g id="Vector 19">
<use xlink:href="#path8_fill" transform="matrix(0.928036 -0.0421367 0.0351666 1.05373 4249.91 1923.76)" fill="url(#paint8_linear)"/>
</g>
<g id="Vector 19">
<use xlink:href="#path9_fill" transform="matrix(0.928036 -0.0421367 0.0351666 1.05373 4256.46 1907.5)" fill="url(#paint9_linear)"/>
</g>
</g>
</g>
<g id="Group" filter="url(#filter1_d)">
<g id="Group">
<g id="Vector 11">
<use xlink:href="#path10_fill" transform="matrix(0.92338 0.122331 0.0180411 1.05432 4236.3 1619.22)" fill="url(#paint10_linear)"/>
</g>
<g id="Vector 12">
<use xlink:href="#path11_fill" transform="matrix(0.92338 0.122331 0.0180411 1.05432 4246.7 1636.79)" fill="url(#paint11_linear)"/>
</g>
<g id="Vector 13">
<use xlink:href="#path12_fill" transform="matrix(0.92338 0.122331 0.0180411 1.05432 4198.86 1614.29)" fill="url(#paint12_linear)"/>
</g>
<g id="Vector 14">
<use xlink:href="#path13_fill" transform="matrix(0.92338 0.122331 0.0180411 1.05432 4206.45 1615.27)" fill="#212981"/>
</g>
<g id="Vector 10">
<use xlink:href="#path14_fill" transform="matrix(0.92338 0.122331 0.0180411 1.05432 4244.11 1678.28)" fill="url(#paint14_linear)"/>
</g>
<g id="Vector 15">
<use xlink:href="#path15_fill" transform="matrix(0.92338 0.122331 0.0180411 1.05432 4266.08 1694.68)" fill="url(#paint15_linear)"/>
</g>
<g id="Vector 18">
<use xlink:href="#path16_fill" transform="matrix(0.928036 -0.0421367 0.0351666 1.05373 4203.88 1881.13)" fill="#4B52DD"/>
</g>
<g id="Vector 19">
<use xlink:href="#path17_fill" transform="matrix(0.928036 -0.0421367 0.0351666 1.05373 4248.56 1910.43)" fill="#303898"/>
</g>
<g id="Vector 19">
<use xlink:href="#path18_fill" transform="matrix(0.928036 -0.0421367 0.0351666 1.05373 4254.65 1895.28)" fill="url(#paint18_linear)"/>
</g>
</g>
</g>
</g>
<g id="DESIGN">
<use xlink:href="#path19_fill" transform="translate(4151.33 1764.63)" fill="#FFFFFF"/>
</g>
</g>
<g id="Rectangle 17">
<mask id="mask0_outline_ins">
<use xlink:href="#path20_fill" fill="white" transform="translate(4129.88 1578.53)"/>
</mask>
<g mask="url(#mask0_outline_ins)">
<use xlink:href="#path21_stroke_2x" transform="translate(4129.88 1578.53)" fill="#7D9EFF"/>
</g>
</g>
<g id="Rectangle 18">
<use xlink:href="#path22_fill" transform="translate(4126.92 1988.03)" fill="#4B52DD"/>
<mask id="mask1_outline_ins">
<use xlink:href="#path22_fill" fill="white" transform="translate(4126.92 1988.03)"/>
</mask>
<g mask="url(#mask1_outline_ins)">
<use xlink:href="#path23_stroke_2x" transform="translate(4126.92 1988.03)" fill="#FFFFFF"/>
</g>
</g>
<g id="Rectangle 18">
<use xlink:href="#path22_fill" transform="translate(4126.18 1780.83)" fill="#4B52DD"/>
<mask id="mask2_outline_ins">
<use xlink:href="#path22_fill" fill="white" transform="translate(4126.18 1780.83)"/>
</mask>
<g mask="url(#mask2_outline_ins)">
<use xlink:href="#path23_stroke_2x" transform="translate(4126.18 1780.83)" fill="#FFFFFF"/>
</g>
</g>
<g id="Rectangle 18">
<use xlink:href="#path22_fill" transform="translate(4349.59 1780.83)" fill="#4B52DD"/>
<mask id="mask3_outline_ins">
<use xlink:href="#path22_fill" fill="white" transform="translate(4349.59 1780.83)"/>
</mask>
<g mask="url(#mask3_outline_ins)">
<use xlink:href="#path23_stroke_2x" transform="translate(4349.59 1780.83)" fill="#FFFFFF"/>
</g>
</g>
<g id="Rectangle 18">
<use xlink:href="#path22_fill" transform="translate(4126.18 1573.64)" fill="#4B52DD"/>
<mask id="mask4_outline_ins">
<use xlink:href="#path22_fill" fill="white" transform="translate(4126.18 1573.64)"/>
</mask>
<g mask="url(#mask4_outline_ins)">
<use xlink:href="#path23_stroke_2x" transform="translate(4126.18 1573.64)" fill="#FFFFFF"/>
</g>
</g>
<g id="Rectangle 18">
<use xlink:href="#path22_fill" transform="translate(4240.84 1573.64)" fill="#4B52DD"/>
<mask id="mask5_outline_ins">
<use xlink:href="#path22_fill" fill="white" transform="translate(4240.84 1573.64)"/>
</mask>
<g mask="url(#mask5_outline_ins)">
<use xlink:href="#path23_stroke_2x" transform="translate(4240.84 1573.64)" fill="#FFFFFF"/>
</g>
</g>
<g id="Rectangle 18">
<use xlink:href="#path22_fill" transform="translate(4240.84 1988.03)" fill="#4B52DD"/>
<mask id="mask6_outline_ins">
<use xlink:href="#path22_fill" fill="white" transform="translate(4240.84 1988.03)"/>
</mask>
<g mask="url(#mask6_outline_ins)">
<use xlink:href="#path23_stroke_2x" transform="translate(4240.84 1988.03)" fill="#FFFFFF"/>
</g>
</g>
<g id="Rectangle 18">
<use xlink:href="#path22_fill" transform="translate(4348.85 1573.64)" fill="#4B52DD"/>
<mask id="mask7_outline_ins">
<use xlink:href="#path22_fill" fill="white" transform="translate(4348.85 1573.64)"/>
</mask>
<g mask="url(#mask7_outline_ins)">
<use xlink:href="#path23_stroke_2x" transform="translate(4348.85 1573.64)" fill="#FFFFFF"/>
</g>
</g>
<g id="Rectangle 18">
<use xlink:href="#path22_fill" transform="translate(4348.85 1988.03)" fill="#4B52DD"/>
<mask id="mask8_outline_ins">
<use xlink:href="#path22_fill" fill="white" transform="translate(4348.85 1988.03)"/>
</mask>
<g mask="url(#mask8_outline_ins)">
<use xlink:href="#path23_stroke_2x" transform="translate(4348.85 1988.03)" fill="#FFFFFF"/>
</g>
</g>
<g id="Vector 24">
<use xlink:href="#path24_fill" transform="translate(4357.72 1997.82)"/>
<use xlink:href="#path25_stroke" transform="translate(4357.72 1997.82)" fill="#FFFFFF"/>
</g>
</g>
</g>
</g>
<defs>
<filter id="filter0_f" filterUnits="userSpaceOnUse" x="4161" y="1571" width="176" height="428" color-interpolation-filters="sRGB">
<feFlood flood-opacity="0" result="BackgroundImageFix"/>
<feBlend mode="normal" in="SourceGraphic" in2="BackgroundImageFix" result="shape"/>
<feGaussianBlur stdDeviation="20" result="effect1_foregroundBlur"/>
</filter>
<filter id="filter1_d" filterUnits="userSpaceOnUse" x="4199" y="1619" width="97" height="332" color-interpolation-filters="sRGB">
<feFlood flood-opacity="0" result="BackgroundImageFix"/>
<feColorMatrix in="SourceAlpha" type="matrix" values="0 0 0 0 0 0 0 0 0 0 0 0 0 0 0 0 0 0 255 0"/>
<feOffset dx="0" dy="4"/>
<feGaussianBlur stdDeviation="2"/>
<feColorMatrix type="matrix" values="0 0 0 0 0 0 0 0 0 0 0 0 0 0 0 0 0 0 0.25 0"/>
<feBlend mode="normal" in2="BackgroundImageFix" result="effect1_dropShadow"/>
<feBlend mode="normal" in="SourceGraphic" in2="effect1_dropShadow" result="shape"/>
</filter>
<linearGradient id="paint1_linear" x1="0" y1="0" x2="1" y2="0" gradientUnits="userSpaceOnUse" gradientTransform="matrix(-11.3061 54.6656 -40.4462 -1.57353 35.0885 7.68806)">
<stop offset="0.171381" stop-color="#4D54FF"/>
<stop offset="1" stop-color="#0A0F4A"/>
</linearGradient>
<linearGradient id="paint2_linear" x1="0" y1="0" x2="1" y2="0" gradientUnits="userSpaceOnUse" gradientTransform="matrix(-17.5591 79.0749 -62.8157 -2.27614 54.4948 11.121)">
<stop offset="0.171381" stop-color="#4D54FF"/>
<stop offset="1" stop-color="#0A0F4A"/>
</linearGradient>
<linearGradient id="paint3_linear" x1="0" y1="0" x2="1" y2="0" gradientUnits="userSpaceOnUse" gradientTransform="matrix(-20.3788 276.433 -72.903 -7.95703 63.2459 38.877)">
<stop offset="0.171381" stop-color="#4D54FF"/>
<stop offset="1" stop-color="#0A0F4A"/>
</linearGradient>
<linearGradient id="paint4_linear" x1="0" y1="0" x2="1" y2="0" gradientUnits="userSpaceOnUse" gradientTransform="matrix(-17.1685 54.549 -61.4183 -1.57017 53.2825 7.67167)">
<stop offset="0.171381" stop-color="#4D54FF"/>
<stop offset="1" stop-color="#0A0F4A"/>
</linearGradient>
<linearGradient id="paint5_linear" x1="0" y1="0" x2="1" y2="0" gradientUnits="userSpaceOnUse" gradientTransform="matrix(-10.1428 222.002 -36.2849 -6.39024 31.4784 31.2219)">
<stop offset="0.171381" stop-color="#4D54FF"/>
<stop offset="1" stop-color="#0A0F4A"/>
</linearGradient>
<linearGradient id="paint6_linear" x1="0" y1="0" x2="1" y2="0" gradientUnits="userSpaceOnUse" gradientTransform="matrix(-9.63108 201.704 -34.4542 -5.80599 29.8902 28.3673)">
<stop offset="0.171381" stop-color="#4D54FF"/>
<stop offset="1" stop-color="#0A0F4A"/>
</linearGradient>
<linearGradient id="paint7_linear" x1="0" y1="0" x2="1" y2="0" gradientUnits="userSpaceOnUse" gradientTransform="matrix(-21.4977 59.711 -76.9059 -1.71876 66.7185 8.39764)">
<stop offset="0.171381" stop-color="#4D54FF"/>
<stop offset="1" stop-color="#0A0F4A"/>
</linearGradient>
<linearGradient id="paint8_linear" x1="0" y1="0" x2="1" y2="0" gradientUnits="userSpaceOnUse" gradientTransform="matrix(-9.24103 30.3532 -33.0588 -0.873706 28.6796 4.26881)">
<stop offset="0.171381" stop-color="#4D54FF"/>
<stop offset="1" stop-color="#0A0F4A"/>
</linearGradient>
<linearGradient id="paint9_linear" x1="0" y1="0" x2="1" y2="0" gradientUnits="userSpaceOnUse" gradientTransform="matrix(-15.9529 44.037 -57.0699 -1.26759 49.5101 6.19328)">
<stop offset="0.171381" stop-color="#4D54FF"/>
<stop offset="1" stop-color="#0A0F4A"/>
</linearGradient>
<linearGradient id="paint10_linear" x1="0" y1="0" x2="1" y2="0" gradientUnits="userSpaceOnUse" gradientTransform="matrix(-7.0117 42.2893 -28.9628 -7.11042 32.2995 11.3453)">
<stop offset="0.0497238" stop-color="#4C7BFE"/>
<stop offset="1" stop-color="#2D6DA9" stop-opacity="0.63"/>
</linearGradient>
<linearGradient id="paint11_linear" x1="0" y1="0" x2="1" y2="0" gradientUnits="userSpaceOnUse" gradientTransform="matrix(2.76055e-15 79.9534 -44.6263 4.8544e-15 44.2041 0)">
<stop offset="0.370166" stop-color="#737DFF"/>
<stop offset="0.983425" stop-color="#143F8C"/>
</linearGradient>
<linearGradient id="paint12_linear" x1="0" y1="0" x2="1" y2="0" gradientUnits="userSpaceOnUse" gradientTransform="matrix(-18.975 257.39 -67.8809 -7.40888 58.889 36.1989)">
<stop offset="0.171381" stop-color="#2C38CA"/>
<stop offset="0.950276" stop-color="#1C215D"/>
</linearGradient>
<linearGradient id="paint14_linear" x1="0" y1="0" x2="1" y2="0" gradientUnits="userSpaceOnUse" gradientTransform="matrix(0.62576 206 -25.7003 0.115595 24.7973 -0.0577975)">
<stop offset="0" stop-color="#585FFF"/>
<stop offset="0.966851" stop-color="#1C215D"/>
</linearGradient>
<linearGradient id="paint15_linear" x1="0" y1="0" x2="1" y2="0" gradientUnits="userSpaceOnUse" gradientTransform="matrix(0.427527 191.318 -25.5462 0.0845264 24.5446 -0.0422632)">
<stop offset="0.353591" stop-color="#7F88FA"/>
<stop offset="1" stop-color="#1C215D"/>
</linearGradient>
<linearGradient id="paint18_linear" x1="0" y1="0" x2="1" y2="0" gradientUnits="userSpaceOnUse" gradientTransform="matrix(2.45914e-15 44.5262 -40.1607 2.72645e-15 40.1607 -2.72645e-15)">
<stop offset="0" stop-color="#696FDF"/>
<stop offset="0.994963" stop-color="#1B248B"/>
</linearGradient>
<path id="path0_fill" d="M 0 0L 520 0L 520 530L 0 530L 0 0Z"/>
<path id="path1_fill" d="M 11.7747 59.3622L 0 0L 30.5682 16.5309L 11.7747 59.3622Z"/>
<path id="path2_fill" d="M 0 42.8314L 18.7933 0L 47.4746 56.9397L 23.6993 85.8687L 0 42.8314Z"/>
<path id="path3_fill" d="M 51.3736 300.183L 55.0983 58.7765L 43.3993 0L 8.67987 56.4805L 0 272.3L 51.3736 300.183Z"/>
<path id="path4_fill" d="M 0 56.4805L 34.7195 0L 46.4184 59.2357L 0 56.4805Z"/>
<path id="path5_fill" d="M 0 241.075L 3.77385 0L 27.4233 42.7557L 25.2848 232.81L 0 241.075Z"/>
<path id="path6_fill" d="M 2.13841 28.98L 26.0396 0L 26.0396 199.748L 0 219.034L 2.13841 28.98Z"/>
<path id="path7_fill" d="M 58.1235 64.8411L 0 0L 50.4965 36.2029L 58.1235 64.8411Z"/>
<path id="path8_fill" d="M 24.985 0L 0 4.32284L 7.62649 32.961L 24.985 0Z"/>
<path id="path9_fill" d="M 43.132 0L 17.3642 15.1298L 0 47.8205C 0 47.8205 37.3459 10.987 43.132 0Z"/>
<path id="path10_fill" d="M 10.9635 55.2729L 0 0L 28.4624 15.3921L 10.9635 55.2729Z"/>
<path id="path11_fill" d="M 0 39.8808L 17.4986 0L 44.2041 53.0172L 22.0667 79.9534L 0 39.8808Z"/>
<path id="path12_fill" d="M 47.8346 279.504L 51.3027 54.7275L 40.4096 0L 8.08193 52.5897L 0 253.542L 47.8346 279.504Z"/>
<path id="path13_fill" d="M 0 52.5897L 32.3277 0L 43.2207 55.155L 0 52.5897Z"/>
<path id="path14_fill" d="M 0 224.468L 3.51388 0L 25.5341 39.8103L 23.543 216.772L 0 224.468Z"/>
<path id="path15_fill" d="M 1.9911 26.9836L 24.2458 0L 24.2458 185.988L 0 203.945L 1.9911 26.9836Z"/>
<path id="path16_fill" d="M 54.1195 60.3743L 0 0L 47.0179 33.709L 54.1195 60.3743Z"/>
<path id="path17_fill" d="M 23.2638 0L 0 4.02505L 7.10112 30.6904L 23.2638 0Z"/>
<path id="path18_fill" d="M 40.1607 0L 16.168 14.0875L 0 44.5262C 0 44.5262 34.7732 10.2301 40.1607 0Z"/>
<path id="path19_fill" d="M 8.16434 35L 8.16434 9.8L 14.5003 9.8C 16.1323 9.8 17.6083 10.04 18.9283 10.52C 20.2483 11 21.3403 11.636 22.2043 12.428C 23.0923 13.22 23.8243 14.168 24.4003 15.272C 25.0003 16.352 25.4323 17.492 25.6963 18.692C 25.9603 19.868 26.0923 21.104 26.0923 22.4C 26.0923 23.6 25.9723 24.776 25.7323 25.928C 25.4923 27.08 25.0843 28.22 24.5083 29.348C 23.9323 30.452 23.2003 31.424 22.3123 32.264C 21.4483 33.08 20.3323 33.74 18.9643 34.244C 17.5963 34.748 16.0603 35 14.3563 35L 8.16434 35ZM 12.4483 30.968L 14.7883 30.968C 16.0123 30.968 17.0803 30.716 17.9923 30.212C 18.9283 29.708 19.6483 29.036 20.1523 28.196C 20.6563 27.332 21.0283 26.42 21.2683 25.46C 21.5083 24.476 21.6283 23.456 21.6283 22.4C 21.6283 20.048 21.0883 18.032 20.0083 16.352C 18.9283 14.672 17.3203 13.832 15.1843 13.832L 12.4483 13.832L 12.4483 30.968ZM 37.5479 35L 37.5479 9.8L 53.7119 9.8L 53.7119 13.868L 41.8319 13.868L 41.8319 19.952L 49.5719 19.952L 49.5719 24.02L 41.8319 24.02L 41.8319 30.932L 54.4679 30.932L 54.4679 35L 37.5479 35ZM 75.5715 35.432C 73.5315 35.432 71.6955 34.844 70.0635 33.668C 68.4315 32.492 67.2795 30.92 66.6075 28.952L 70.4955 27.512C 71.0475 28.688 71.8035 29.636 72.7635 30.356C 73.7475 31.052 74.8035 31.4 75.9315 31.4C 77.0355 31.4 77.9235 31.112 78.5955 30.536C 79.2675 29.96 79.6035 29.132 79.6035 28.052C 79.6035 27.14 79.1475 26.336 78.2355 25.64C 77.3235 24.92 76.0515 24.2 74.4195 23.48C 73.3875 23.024 72.5595 22.628 71.9355 22.292C 71.3115 21.956 70.6035 21.488 69.8115 20.888C 69.0435 20.288 68.4675 19.58 68.0835 18.764C 67.6995 17.948 67.5075 17.036 67.5075 16.028C 67.5075 14.156 68.2155 12.584 69.6315 11.312C 71.0715 10.016 72.9555 9.368 75.2835 9.368C 77.1315 9.368 78.7395 9.872 80.1075 10.88C 81.4995 11.888 82.4235 13.172 82.8795 14.732L 79.0275 16.028C 78.1635 14.276 76.8315 13.4 75.0315 13.4C 74.0955 13.4 73.3275 13.64 72.7275 14.12C 72.1275 14.6 71.8275 15.26 71.8275 16.1C 71.8275 16.292 71.8515 16.484 71.8995 16.676C 71.9475 16.844 72.0315 17.012 72.1515 17.18C 72.2715 17.324 72.3795 17.468 72.4755 17.612C 72.5955 17.732 72.7635 17.876 72.9795 18.044C 73.2195 18.188 73.4115 18.308 73.5555 18.404C 73.7235 18.5 73.9635 18.632 74.2755 18.8C 74.5875 18.944 74.8275 19.052 74.9955 19.124C 75.1635 19.196 75.4395 19.328 75.8235 19.52C 76.2075 19.688 76.4835 19.808 76.6515 19.88C 77.6595 20.336 78.4995 20.768 79.1715 21.176C 79.8435 21.56 80.5875 22.076 81.4035 22.724C 82.2195 23.372 82.8435 24.14 83.2755 25.028C 83.7075 25.916 83.9235 26.888 83.9235 27.944C 83.9235 30.248 83.1075 32.072 81.4755 33.416C 79.8675 34.76 77.8995 35.432 75.5715 35.432ZM 112.083 13.58L 106.791 13.58L 106.791 31.22L 112.083 31.22L 112.083 35L 97.2511 35L 97.2511 31.22L 102.507 31.22L 102.507 13.58L 97.2511 13.58L 97.2511 9.8L 112.083 9.8L 112.083 13.58ZM 134.447 35.432C 132.263 35.432 130.403 34.796 128.867 33.524C 127.331 32.228 126.215 30.632 125.519 28.736C 124.847 26.816 124.511 24.704 124.511 22.4C 124.511 20.216 124.859 18.164 125.555 16.244C 126.275 14.3 127.403 12.668 128.939 11.348C 130.499 10.028 132.335 9.368 134.447 9.368C 136.391 9.368 137.951 9.824 139.127 10.736C 140.327 11.648 141.359 12.884 142.223 14.444L 138.443 16.604C 137.315 14.492 135.983 13.436 134.447 13.436C 133.175 13.436 132.107 13.928 131.243 14.912C 130.403 15.872 129.815 17 129.479 18.296C 129.143 19.568 128.975 20.936 128.975 22.4C 128.975 24.872 129.443 26.984 130.379 28.736C 131.315 30.488 132.671 31.364 134.447 31.364C 135.743 31.364 136.727 30.932 137.399 30.068C 138.095 29.204 138.443 28.076 138.443 26.684L 138.443 26.144L 134.051 26.144L 134.051 22.112L 142.835 22.112L 142.835 25.604C 142.835 28.7 142.055 31.112 140.495 32.84C 138.935 34.568 136.919 35.432 134.447 35.432ZM 155.082 35L 155.082 9.8L 159.15 9.8L 166.998 25.352C 167.43 26.096 167.73 26.672 167.898 27.08C 167.85 26.168 167.826 25.592 167.826 25.352L 167.826 9.8L 171.786 9.8L 171.786 35L 167.898 35L 159.906 19.376C 159.474 18.632 159.162 18.056 158.97 17.648C 159.042 18.008 159.078 18.584 159.078 19.376L 159.078 35L 155.082 35Z"/>
<path id="path20_fill" d="M 0 0L 224.146 0L 224.146 414.396L 0 414.396L 0 0Z"/>
<path id="path21_stroke_2x" d="M 0 0L 0 -1L -1 -1L -1 0L 0 0ZM 224.146 0L 225.146 0L 225.146 -1L 224.146 -1L 224.146 0ZM 224.146 414.396L 224.146 415.396L 225.146 415.396L 225.146 414.396L 224.146 414.396ZM 0 414.396L -1 414.396L -1 415.396L 0 415.396L 0 414.396ZM -1 0L -1 2.46664L 1 2.46664L 1 0L -1 0ZM -1 9.37323L -1 14.3065L 1 14.3065L 1 9.37323L -1 9.37323ZM -1 21.2131L -1 26.1464L 1 26.1464L 1 21.2131L -1 21.2131ZM -1 33.053L -1 37.9863L 1 37.9863L 1 33.053L -1 33.053ZM -1 44.8928L -1 49.8261L 1 49.8261L 1 44.8928L -1 44.8928ZM -1 56.7327L -1 61.666L 1 61.666L 1 56.7327L -1 56.7327ZM -1 68.5726L -1 73.5059L 1 73.5059L 1 68.5726L -1 68.5726ZM -1 80.4125L -1 85.3457L 1 85.3457L 1 80.4125L -1 80.4125ZM -1 92.2523L -1 97.1856L 1 97.1856L 1 92.2523L -1 92.2523ZM -1 104.092L -1 109.025L 1 109.025L 1 104.092L -1 104.092ZM -1 115.932L -1 120.865L 1 120.865L 1 115.932L -1 115.932ZM -1 127.772L -1 132.705L 1 132.705L 1 127.772L -1 127.772ZM -1 139.612L -1 144.545L 1 144.545L 1 139.612L -1 139.612ZM -1 151.452L -1 156.385L 1 156.385L 1 151.452L -1 151.452ZM -1 163.292L -1 168.225L 1 168.225L 1 163.292L -1 163.292ZM -1 175.131L -1 180.065L 1 180.065L 1 175.131L -1 175.131ZM -1 186.971L -1 191.905L 1 191.905L 1 186.971L -1 186.971ZM -1 198.811L -1 203.744L 1 203.744L 1 198.811L -1 198.811ZM -1 210.651L -1 215.584L 1 215.584L 1 210.651L -1 210.651ZM -1 222.491L -1 227.424L 1 227.424L 1 222.491L -1 222.491ZM -1 234.331L -1 239.264L 1 239.264L 1 234.331L -1 234.331ZM -1 246.171L -1 251.104L 1 251.104L 1 246.171L -1 246.171ZM -1 258.011L -1 262.944L 1 262.944L 1 258.011L -1 258.011ZM -1 269.85L -1 274.784L 1 274.784L 1 269.85L -1 269.85ZM -1 281.69L -1 286.624L 1 286.624L 1 281.69L -1 281.69ZM -1 293.53L -1 298.463L 1 298.463L 1 293.53L -1 293.53ZM -1 305.37L -1 310.303L 1 310.303L 1 305.37L -1 305.37ZM -1 317.21L -1 322.143L 1 322.143L 1 317.21L -1 317.21ZM -1 329.05L -1 333.983L 1 333.983L 1 329.05L -1 329.05ZM -1 340.89L -1 345.823L 1 345.823L 1 340.89L -1 340.89ZM -1 352.73L -1 357.663L 1 357.663L 1 352.73L -1 352.73ZM -1 364.569L -1 369.503L 1 369.503L 1 364.569L -1 364.569ZM -1 376.409L -1 381.343L 1 381.343L 1 376.409L -1 376.409ZM -1 388.249L -1 393.182L 1 393.182L 1 388.249L -1 388.249ZM -1 400.089L -1 405.022L 1 405.022L 1 400.089L -1 400.089ZM -1 411.929L -1 414.396L 1 414.396L 1 411.929L -1 411.929ZM 0 415.396L 2.45774 415.396L 2.45774 413.396L 0 413.396L 0 415.396ZM 9.33942 415.396L 14.2549 415.396L 14.2549 413.396L 9.33942 413.396L 9.33942 415.396ZM 21.1366 415.396L 26.0521 415.396L 26.0521 413.396L 21.1366 413.396L 21.1366 415.396ZM 32.9337 415.396L 37.8492 415.396L 37.8492 413.396L 32.9337 413.396L 32.9337 415.396ZM 44.7309 415.396L 49.6464 415.396L 49.6464 413.396L 44.7309 413.396L 44.7309 415.396ZM 56.5281 415.396L 61.4435 415.396L 61.4435 413.396L 56.5281 413.396L 56.5281 415.396ZM 68.3252 415.396L 73.2407 415.396L 73.2407 413.396L 68.3252 413.396L 68.3252 415.396ZM 80.1224 415.396L 85.0379 415.396L 85.0379 413.396L 80.1224 413.396L 80.1224 415.396ZM 91.9195 415.396L 96.835 415.396L 96.835 413.396L 91.9195 413.396L 91.9195 415.396ZM 103.717 415.396L 108.632 415.396L 108.632 413.396L 103.717 413.396L 103.717 415.396ZM 115.514 415.396L 120.429 415.396L 120.429 413.396L 115.514 413.396L 115.514 415.396ZM 127.311 415.396L 132.227 415.396L 132.227 413.396L 127.311 413.396L 127.311 415.396ZM 139.108 415.396L 144.024 415.396L 144.024 413.396L 139.108 413.396L 139.108 415.396ZM 150.905 415.396L 155.821 415.396L 155.821 413.396L 150.905 413.396L 150.905 415.396ZM 162.702 415.396L 167.618 415.396L 167.618 413.396L 162.702 413.396L 162.702 415.396ZM 174.5 415.396L 179.415 415.396L 179.415 413.396L 174.5 413.396L 174.5 415.396ZM 186.297 415.396L 191.212 415.396L 191.212 413.396L 186.297 413.396L 186.297 415.396ZM 198.094 415.396L 203.009 415.396L 203.009 413.396L 198.094 413.396L 198.094 415.396ZM 209.891 415.396L 214.807 415.396L 214.807 413.396L 209.891 413.396L 209.891 415.396ZM 221.688 415.396L 224.146 415.396L 224.146 413.396L 221.688 413.396L 221.688 415.396ZM 225.146 414.396L 225.146 411.929L 223.146 411.929L 223.146 414.396L 225.146 414.396ZM 225.146 405.022L 225.146 400.089L 223.146 400.089L 223.146 405.022L 225.146 405.022ZM 225.146 393.182L 225.146 388.249L 223.146 388.249L 223.146 393.182L 225.146 393.182ZM 225.146 381.343L 225.146 376.409L 223.146 376.409L 223.146 381.343L 225.146 381.343ZM 225.146 369.503L 225.146 364.569L 223.146 364.569L 223.146 369.503L 225.146 369.503ZM 225.146 357.663L 225.146 352.73L 223.146 352.73L 223.146 357.663L 225.146 357.663ZM 225.146 345.823L 225.146 340.89L 223.146 340.89L 223.146 345.823L 225.146 345.823ZM 225.146 333.983L 225.146 329.05L 223.146 329.05L 223.146 333.983L 225.146 333.983ZM 225.146 322.143L 225.146 317.21L 223.146 317.21L 223.146 322.143L 225.146 322.143ZM 225.146 310.303L 225.146 305.37L 223.146 305.37L 223.146 310.303L 225.146 310.303ZM 225.146 298.463L 225.146 293.53L 223.146 293.53L 223.146 298.463L 225.146 298.463ZM 225.146 286.624L 225.146 281.69L 223.146 281.69L 223.146 286.624L 225.146 286.624ZM 225.146 274.784L 225.146 269.85L 223.146 269.85L 223.146 274.784L 225.146 274.784ZM 225.146 262.944L 225.146 258.011L 223.146 258.011L 223.146 262.944L 225.146 262.944ZM 225.146 251.104L 225.146 246.171L 223.146 246.171L 223.146 251.104L 225.146 251.104ZM 225.146 239.264L 225.146 234.331L 223.146 234.331L 223.146 239.264L 225.146 239.264ZM 225.146 227.424L 225.146 222.491L 223.146 222.491L 223.146 227.424L 225.146 227.424ZM 225.146 215.584L 225.146 210.651L 223.146 210.651L 223.146 215.584L 225.146 215.584ZM 225.146 203.744L 225.146 198.811L 223.146 198.811L 223.146 203.744L 225.146 203.744ZM 225.146 191.905L 225.146 186.971L 223.146 186.971L 223.146 191.905L 225.146 191.905ZM 225.146 180.065L 225.146 175.131L 223.146 175.131L 223.146 180.065L 225.146 180.065ZM 225.146 168.225L 225.146 163.292L 223.146 163.292L 223.146 168.225L 225.146 168.225ZM 225.146 156.385L 225.146 151.452L 223.146 151.452L 223.146 156.385L 225.146 156.385ZM 225.146 144.545L 225.146 139.612L 223.146 139.612L 223.146 144.545L 225.146 144.545ZM 225.146 132.705L 225.146 127.772L 223.146 127.772L 223.146 132.705L 225.146 132.705ZM 225.146 120.865L 225.146 115.932L 223.146 115.932L 223.146 120.865L 225.146 120.865ZM 225.146 109.025L 225.146 104.092L 223.146 104.092L 223.146 109.025L 225.146 109.025ZM 225.146 97.1856L 225.146 92.2523L 223.146 92.2523L 223.146 97.1856L 225.146 97.1856ZM 225.146 85.3457L 225.146 80.4125L 223.146 80.4125L 223.146 85.3457L 225.146 85.3457ZM 225.146 73.5059L 225.146 68.5726L 223.146 68.5726L 223.146 73.5059L 225.146 73.5059ZM 225.146 61.666L 225.146 56.7327L 223.146 56.7327L 223.146 61.666L 225.146 61.666ZM 225.146 49.8261L 225.146 44.8928L 223.146 44.8928L 223.146 49.8261L 225.146 49.8261ZM 225.146 37.9862L 225.146 33.053L 223.146 33.053L 223.146 37.9862L 225.146 37.9862ZM 225.146 26.1464L 225.146 21.2131L 223.146 21.2131L 223.146 26.1464L 225.146 26.1464ZM 225.146 14.3065L 225.146 9.37322L 223.146 9.37322L 223.146 14.3065L 225.146 14.3065ZM 225.146 2.46663L 225.146 0L 223.146 0L 223.146 2.46663L 225.146 2.46663ZM 224.146 -1L 221.688 -1L 221.688 1L 224.146 1L 224.146 -1ZM 214.807 -1L 209.891 -1L 209.891 1L 214.807 1L 214.807 -1ZM 203.009 -1L 198.094 -1L 198.094 1L 203.009 1L 203.009 -1ZM 191.212 -1L 186.297 -1L 186.297 1L 191.212 1L 191.212 -1ZM 179.415 -1L 174.5 -1L 174.5 1L 179.415 1L 179.415 -1ZM 167.618 -1L 162.702 -1L 162.702 1L 167.618 1L 167.618 -1ZM 155.821 -1L 150.905 -1L 150.905 1L 155.821 1L 155.821 -1ZM 144.024 -1L 139.108 -1L 139.108 1L 144.024 1L 144.024 -1ZM 132.227 -1L 127.311 -1L 127.311 1L 132.227 1L 132.227 -1ZM 120.429 -1L 115.514 -1L 115.514 1L 120.429 1L 120.429 -1ZM 108.632 -1L 103.717 -1L 103.717 1L 108.632 1L 108.632 -1ZM 96.835 -1L 91.9195 -1L 91.9195 1L 96.835 1L 96.835 -1ZM 85.0379 -1L 80.1224 -1L 80.1224 1L 85.0379 1L 85.0379 -1ZM 73.2407 -1L 68.3252 -1L 68.3252 1L 73.2407 1L 73.2407 -1ZM 61.4435 -1L 56.5281 -1L 56.5281 1L 61.4435 1L 61.4435 -1ZM 49.6464 -1L 44.7309 -1L 44.7309 1L 49.6464 1L 49.6464 -1ZM 37.8492 -1L 32.9337 -1L 32.9337 1L 37.8492 1L 37.8492 -1ZM 26.0521 -1L 21.1366 -1L 21.1366 1L 26.0521 1L 26.0521 -1ZM 14.2549 -1L 9.33942 -1L 9.33942 1L 14.2549 1L 14.2549 -1ZM 2.45774 -1L 0 -1L 0 1L 2.45774 1L 2.45774 -1ZM 0 0L 0 -2L -2 -2L -2 0L 0 0ZM 224.146 0L 226.146 0L 226.146 -2L 224.146 -2L 224.146 0ZM 224.146 414.396L 224.146 416.396L 226.146 416.396L 226.146 414.396L 224.146 414.396ZM 0 414.396L -2 414.396L -2 416.396L 0 416.396L 0 414.396ZM -2 0L -2 2.46664L 2 2.46664L 2 0L -2 0ZM -2 9.37323L -2 14.3065L 2 14.3065L 2 9.37323L -2 9.37323ZM -2 21.2131L -2 26.1464L 2 26.1464L 2 21.2131L -2 21.2131ZM -2 33.053L -2 37.9863L 2 37.9863L 2 33.053L -2 33.053ZM -2 44.8928L -2 49.8261L 2 49.8261L 2 44.8928L -2 44.8928ZM -2 56.7327L -2 61.666L 2 61.666L 2 56.7327L -2 56.7327ZM -2 68.5726L -2 73.5059L 2 73.5059L 2 68.5726L -2 68.5726ZM -2 80.4125L -2 85.3457L 2 85.3457L 2 80.4125L -2 80.4125ZM -2 92.2523L -2 97.1856L 2 97.1856L 2 92.2523L -2 92.2523ZM -2 104.092L -2 109.025L 2 109.025L 2 104.092L -2 104.092ZM -2 115.932L -2 120.865L 2 120.865L 2 115.932L -2 115.932ZM -2 127.772L -2 132.705L 2 132.705L 2 127.772L -2 127.772ZM -2 139.612L -2 144.545L 2 144.545L 2 139.612L -2 139.612ZM -2 151.452L -2 156.385L 2 156.385L 2 151.452L -2 151.452ZM -2 163.292L -2 168.225L 2 168.225L 2 163.292L -2 163.292ZM -2 175.131L -2 180.065L 2 180.065L 2 175.131L -2 175.131ZM -2 186.971L -2 191.905L 2 191.905L 2 186.971L -2 186.971ZM -2 198.811L -2 203.744L 2 203.744L 2 198.811L -2 198.811ZM -2 210.651L -2 215.584L 2 215.584L 2 210.651L -2 210.651ZM -2 222.491L -2 227.424L 2 227.424L 2 222.491L -2 222.491ZM -2 234.331L -2 239.264L 2 239.264L 2 234.331L -2 234.331ZM -2 246.171L -2 251.104L 2 251.104L 2 246.171L -2 246.171ZM -2 258.011L -2 262.944L 2 262.944L 2 258.011L -2 258.011ZM -2 269.85L -2 274.784L 2 274.784L 2 269.85L -2 269.85ZM -2 281.69L -2 286.624L 2 286.624L 2 281.69L -2 281.69ZM -2 293.53L -2 298.463L 2 298.463L 2 293.53L -2 293.53ZM -2 305.37L -2 310.303L 2 310.303L 2 305.37L -2 305.37ZM -2 317.21L -2 322.143L 2 322.143L 2 317.21L -2 317.21ZM -2 329.05L -2 333.983L 2 333.983L 2 329.05L -2 329.05ZM -2 340.89L -2 345.823L 2 345.823L 2 340.89L -2 340.89ZM -2 352.73L -2 357.663L 2 357.663L 2 352.73L -2 352.73ZM -2 364.569L -2 369.503L 2 369.503L 2 364.569L -2 364.569ZM -2 376.409L -2 381.343L 2 381.343L 2 376.409L -2 376.409ZM -2 388.249L -2 393.182L 2 393.182L 2 388.249L -2 388.249ZM -2 400.089L -2 405.022L 2 405.022L 2 400.089L -2 400.089ZM -2 411.929L -2 414.396L 2 414.396L 2 411.929L -2 411.929ZM 0 416.396L 2.45774 416.396L 2.45774 412.396L 0 412.396L 0 416.396ZM 9.33942 416.396L 14.2549 416.396L 14.2549 412.396L 9.33942 412.396L 9.33942 416.396ZM 21.1366 416.396L 26.0521 416.396L 26.0521 412.396L 21.1366 412.396L 21.1366 416.396ZM 32.9337 416.396L 37.8492 416.396L 37.8492 412.396L 32.9337 412.396L 32.9337 416.396ZM 44.7309 416.396L 49.6464 416.396L 49.6464 412.396L 44.7309 412.396L 44.7309 416.396ZM 56.5281 416.396L 61.4435 416.396L 61.4435 412.396L 56.5281 412.396L 56.5281 416.396ZM 68.3252 416.396L 73.2407 416.396L 73.2407 412.396L 68.3252 412.396L 68.3252 416.396ZM 80.1224 416.396L 85.0379 416.396L 85.0379 412.396L 80.1224 412.396L 80.1224 416.396ZM 91.9195 416.396L 96.835 416.396L 96.835 412.396L 91.9195 412.396L 91.9195 416.396ZM 103.717 416.396L 108.632 416.396L 108.632 412.396L 103.717 412.396L 103.717 416.396ZM 115.514 416.396L 120.429 416.396L 120.429 412.396L 115.514 412.396L 115.514 416.396ZM 127.311 416.396L 132.227 416.396L 132.227 412.396L 127.311 412.396L 127.311 416.396ZM 139.108 416.396L 144.024 416.396L 144.024 412.396L 139.108 412.396L 139.108 416.396ZM 150.905 416.396L 155.821 416.396L 155.821 412.396L 150.905 412.396L 150.905 416.396ZM 162.702 416.396L 167.618 416.396L 167.618 412.396L 162.702 412.396L 162.702 416.396ZM 174.5 416.396L 179.415 416.396L 179.415 412.396L 174.5 412.396L 174.5 416.396ZM 186.297 416.396L 191.212 416.396L 191.212 412.396L 186.297 412.396L 186.297 416.396ZM 198.094 416.396L 203.009 416.396L 203.009 412.396L 198.094 412.396L 198.094 416.396ZM 209.891 416.396L 214.807 416.396L 214.807 412.396L 209.891 412.396L 209.891 416.396ZM 221.688 416.396L 224.146 416.396L 224.146 412.396L 221.688 412.396L 221.688 416.396ZM 226.146 414.396L 226.146 411.929L 222.146 411.929L 222.146 414.396L 226.146 414.396ZM 226.146 405.022L 226.146 400.089L 222.146 400.089L 222.146 405.022L 226.146 405.022ZM 226.146 393.182L 226.146 388.249L 222.146 388.249L 222.146 393.182L 226.146 393.182ZM 226.146 381.343L 226.146 376.409L 222.146 376.409L 222.146 381.343L 226.146 381.343ZM 226.146 369.503L 226.146 364.569L 222.146 364.569L 222.146 369.503L 226.146 369.503ZM 226.146 357.663L 226.146 352.73L 222.146 352.73L 222.146 357.663L 226.146 357.663ZM 226.146 345.823L 226.146 340.89L 222.146 340.89L 222.146 345.823L 226.146 345.823ZM 226.146 333.983L 226.146 329.05L 222.146 329.05L 222.146 333.983L 226.146 333.983ZM 226.146 322.143L 226.146 317.21L 222.146 317.21L 222.146 322.143L 226.146 322.143ZM 226.146 310.303L 226.146 305.37L 222.146 305.37L 222.146 310.303L 226.146 310.303ZM 226.146 298.463L 226.146 293.53L 222.146 293.53L 222.146 298.463L 226.146 298.463ZM 226.146 286.624L 226.146 281.69L 222.146 281.69L 222.146 286.624L 226.146 286.624ZM 226.146 274.784L 226.146 269.85L 222.146 269.85L 222.146 274.784L 226.146 274.784ZM 226.146 262.944L 226.146 258.011L 222.146 258.011L 222.146 262.944L 226.146 262.944ZM 226.146 251.104L 226.146 246.171L 222.146 246.171L 222.146 251.104L 226.146 251.104ZM 226.146 239.264L 226.146 234.331L 222.146 234.331L 222.146 239.264L 226.146 239.264ZM 226.146 227.424L 226.146 222.491L 222.146 222.491L 222.146 227.424L 226.146 227.424ZM 226.146 215.584L 226.146 210.651L 222.146 210.651L 222.146 215.584L 226.146 215.584ZM 226.146 203.744L 226.146 198.811L 222.146 198.811L 222.146 203.744L 226.146 203.744ZM 226.146 191.905L 226.146 186.971L 222.146 186.971L 222.146 191.905L 226.146 191.905ZM 226.146 180.065L 226.146 175.131L 222.146 175.131L 222.146 180.065L 226.146 180.065ZM 226.146 168.225L 226.146 163.292L 222.146 163.292L 222.146 168.225L 226.146 168.225ZM 226.146 156.385L 226.146 151.452L 222.146 151.452L 222.146 156.385L 226.146 156.385ZM 226.146 144.545L 226.146 139.612L 222.146 139.612L 222.146 144.545L 226.146 144.545ZM 226.146 132.705L 226.146 127.772L 222.146 127.772L 222.146 132.705L 226.146 132.705ZM 226.146 120.865L 226.146 115.932L 222.146 115.932L 222.146 120.865L 226.146 120.865ZM 226.146 109.025L 226.146 104.092L 222.146 104.092L 222.146 109.025L 226.146 109.025ZM 226.146 97.1856L 226.146 92.2523L 222.146 92.2523L 222.146 97.1856L 226.146 97.1856ZM 226.146 85.3457L 226.146 80.4125L 222.146 80.4125L 222.146 85.3457L 226.146 85.3457ZM 226.146 73.5059L 226.146 68.5726L 222.146 68.5726L 222.146 73.5059L 226.146 73.5059ZM 226.146 61.666L 226.146 56.7327L 222.146 56.7327L 222.146 61.666L 226.146 61.666ZM 226.146 49.8261L 226.146 44.8928L 222.146 44.8928L 222.146 49.8261L 226.146 49.8261ZM 226.146 37.9862L 226.146 33.053L 222.146 33.053L 222.146 37.9862L 226.146 37.9862ZM 226.146 26.1464L 226.146 21.2131L 222.146 21.2131L 222.146 26.1464L 226.146 26.1464ZM 226.146 14.3065L 226.146 9.37322L 222.146 9.37322L 222.146 14.3065L 226.146 14.3065ZM 226.146 2.46663L 226.146 0L 222.146 0L 222.146 2.46663L 226.146 2.46663ZM 224.146 -2L 221.688 -2L 221.688 2L 224.146 2L 224.146 -2ZM 214.807 -2L 209.891 -2L 209.891 2L 214.807 2L 214.807 -2ZM 203.009 -2L 198.094 -2L 198.094 2L 203.009 2L 203.009 -2ZM 191.212 -2L 186.297 -2L 186.297 2L 191.212 2L 191.212 -2ZM 179.415 -2L 174.5 -2L 174.5 2L 179.415 2L 179.415 -2ZM 167.618 -2L 162.702 -2L 162.702 2L 167.618 2L 167.618 -2ZM 155.821 -2L 150.905 -2L 150.905 2L 155.821 2L 155.821 -2ZM 144.024 -2L 139.108 -2L 139.108 2L 144.024 2L 144.024 -2ZM 132.227 -2L 127.311 -2L 127.311 2L 132.227 2L 132.227 -2ZM 120.429 -2L 115.514 -2L 115.514 2L 120.429 2L 120.429 -2ZM 108.632 -2L 103.717 -2L 103.717 2L 108.632 2L 108.632 -2ZM 96.835 -2L 91.9195 -2L 91.9195 2L 96.835 2L 96.835 -2ZM 85.0379 -2L 80.1224 -2L 80.1224 2L 85.0379 2L 85.0379 -2ZM 73.2407 -2L 68.3252 -2L 68.3252 2L 73.2407 2L 73.2407 -2ZM 61.4435 -2L 56.5281 -2L 56.5281 2L 61.4435 2L 61.4435 -2ZM 49.6464 -2L 44.7309 -2L 44.7309 2L 49.6464 2L 49.6464 -2ZM 37.8492 -2L 32.9337 -2L 32.9337 2L 37.8492 2L 37.8492 -2ZM 26.0521 -2L 21.1366 -2L 21.1366 2L 26.0521 2L 26.0521 -2ZM 14.2549 -2L 9.33942 -2L 9.33942 2L 14.2549 2L 14.2549 -2ZM 2.45774 -2L 0 -2L 0 2L 2.45774 2L 2.45774 -2Z"/>
<path id="path22_fill" d="M 0 0L 8.87707 0L 8.87707 9.78887L 0 9.78887L 0 0Z"/>
<path id="path23_stroke_2x" d="M 0 0L 0 -1L -1 -1L -1 0L 0 0ZM 8.87707 0L 9.87707 0L 9.87707 -1L 8.87707 -1L 8.87707 0ZM 8.87707 9.78887L 8.87707 10.7889L 9.87707 10.7889L 9.87707 9.78887L 8.87707 9.78887ZM 0 9.78887L -1 9.78887L -1 10.7889L 0 10.7889L 0 9.78887ZM 0 1L 8.87707 1L 8.87707 -1L 0 -1L 0 1ZM 7.87707 0L 7.87707 9.78887L 9.87707 9.78887L 9.87707 0L 7.87707 0ZM 8.87707 8.78887L 0 8.78887L 0 10.7889L 8.87707 10.7889L 8.87707 8.78887ZM 1 9.78887L 1 0L -1 0L -1 9.78887L 1 9.78887Z"/>
<path id="path24_fill" d="M 0 31.8138L 0 0L 21.4529 18.8895L 7.88067 18.8895L 0 31.8138Z"/>
<path id="path25_stroke" d="M 0 0L 0.660843 -0.750525L -1 -2.21291L -1 0L 0 0ZM 0 31.8138L -1 31.8138L -1 35.3747L 0.853798 32.3344L 0 31.8138ZM 7.88067 18.8895L 7.88067 17.8895L 7.31918 17.8895L 7.02687 18.3689L 7.88067 18.8895ZM 21.4529 18.8895L 21.4529 19.8895L 24.1019 19.8895L 22.1138 18.1389L 21.4529 18.8895ZM -1 0L -1 31.8138L 1 31.8138L 1 0L -1 0ZM 0.853798 32.3344L 8.73446 19.4101L 7.02687 18.3689L -0.853798 31.2932L 0.853798 32.3344ZM 7.88067 19.8895L 21.4529 19.8895L 21.4529 17.8895L 7.88067 17.8895L 7.88067 19.8895ZM 22.1138 18.1389L 0.660843 -0.750525L -0.660843 0.750525L 20.7921 19.64L 22.1138 18.1389Z"/>
</defs>
</svg>
