<?xml version="1.0" encoding="utf-8"?>
<!-- Generator: Adobe Illustrator 15.0.0, SVG Export Plug-In . SVG Version: 6.00 Build 0)  -->
<!DOCTYPE svg PUBLIC "-//W3C//DTD SVG 1.1//EN" "http://www.w3.org/Graphics/SVG/1.1/DTD/svg11.dtd">
<svg version="1.1" id="Layer_1" xmlns="http://www.w3.org/2000/svg" xmlns:xlink="http://www.w3.org/1999/xlink" x="0px" y="0px"
	 width="1920px" height="655px" viewBox="0 0 1920 655" enable-background="new 0 0 1920 655" xml:space="preserve">
<path fill="#414042" d="M1920,397v-51.853v-10.344v-16.255V254h-41v65h-92v-58h-69v58h-5V174h-18v-19h-22v-25.596l-4.5-14.777
	l-4.5,14.777V155h-22v19h-23v128h-15v-25h-19v-89.965V181h-17v-19h-9.415c-0.598-15-11.777-26.882-26.187-28.805l-3.782-12.635
	l-3.759,12.566c-14.66,1.697-26.099,13.874-26.703,28.874H1472v25h-13v58h-13v37h-9V104h-31V88h-34v16h-31v92h-12v-49h-46v-17.596
	l-3-14.777l-3,14.777V147h-16V90.984V75h-41V61h-15v14h-25v16h-25v164h-15V72h-24V25h-3v47h-9V61h-12.552l-6.648-20.319L1077.098,61
	H1070v11h-23v220h-22v-15h-12v-37h-3v-5.68v-13.299l-3-14.777l-3,14.777V234h-8v-26.277l-2.5-14.777l-2.5,14.777V234h-14v6h-4v-7
	h-27v7h-22v53h-24v14h-19V136.793l-33-14.777v-16.254l13-6.713v-3.631l7.008-4.367L874.339,75h-0.052
	c0.029,0,0.414-0.38,0.414-0.505c0-3.464-11.701-6.575-27.701-7.898V56h-17V15.622L827.5,0L825,15.622V56h-17v10.597
	c-16,1.323-28.123,4.435-28.123,7.898c0,0.125-0.038,0.505-0.01,0.505h-0.052l6.753,16.051L794,95.418v3.631l13,6.713v16.254
	l-33,14.777V305h-22v-26.348V220h-41v-18h-21v-8h-6.185l-7.385,8H669v18h-25v50h-10v9h-6v38h-21v18h-17v-79.992v-33.986V166h-68v55
	h-30v34h-37v90h-29.714l11.884-85.106c-7.346,8.449-15.84,15.908-25.229,22.076l3.075-22.02
	c-6.921,7.959-14.855,15.02-23.601,20.968l2.924-20.955c-6.921,7.96-14.855,15.012-23.601,20.961l2.924-20.958
	c-15.646,17.994-36.47,31.354-60.15,37.751c-20.492-5.521-38.857-16.234-53.572-30.674l2.818,18.861
	c-9.121-5.215-17.522-11.551-24.973-18.861l2.683,17.946c-8.503-5.036-16.348-11.065-23.36-17.946l2.684,17.946
	c-8.503-5.036-16.348-10.891-23.36-17.771L211.173,366h-0.342c0,0-145.231-36.391-151.2-25.152
	C53.662,352.084,62.031,361,70.154,370C45.785,370,0,370,0,370l0.738,27H1v258h1919V397L1920,397z"/>
<linearGradient id="SVGID_1_" gradientUnits="userSpaceOnUse" x1="999" y1="192.9453" x2="999" y2="417.0005">
	<stop  offset="0" style="stop-color:#58595B;stop-opacity:0.5"/>
	<stop  offset="1" style="stop-color:#58595B;stop-opacity:0"/>
</linearGradient>
<polygon fill="url(#SVGID_1_)" points="973,240 977,240 977,234 991,234 991,207.723 993.5,192.945 996,207.723 996,234 1004,234 
	1004,221.021 1007,206.244 1010,221.021 1010,234.32 1010,240 1013,240 1013,277 1025,277 1025,291.986 1025,417 973,417 "/>
<g>
	<g>
		<linearGradient id="SVGID_2_" gradientUnits="userSpaceOnUse" x1="375.0122" y1="259.8887" x2="375.0122" y2="417.0005">
			<stop  offset="0" style="stop-color:#6D6E71;stop-opacity:0.5"/>
			<stop  offset="1" style="stop-color:#6D6E71;stop-opacity:0"/>
		</linearGradient>
		<path fill="url(#SVGID_2_)" d="M313.185,297.974c23.68-6.396,44.669-19.885,60.313-37.879l-2.842,20.894
			c8.745-5.949,16.721-13.034,23.642-20.994l-2.903,20.938c8.745-5.948,16.689-13.018,23.61-20.977l-3.069,22.015
			c9.39-6.168,17.743-13.632,25.089-22.081L425,344.986V417H313L313.185,297.974z"/>
		<linearGradient id="SVGID_3_" gradientUnits="userSpaceOnUse" x1="556.5" y1="166" x2="556.5" y2="417.0005">
			<stop  offset="0" style="stop-color:#6D6E71;stop-opacity:0.5"/>
			<stop  offset="1" style="stop-color:#6D6E71;stop-opacity:0"/>
		</linearGradient>
		<rect x="522" y="166" fill="url(#SVGID_3_)" width="69" height="251"/>
		<linearGradient id="SVGID_4_" gradientUnits="userSpaceOnUse" x1="721" y1="202" x2="721" y2="417.0005">
			<stop  offset="0" style="stop-color:#6D6E71;stop-opacity:0.5"/>
			<stop  offset="1" style="stop-color:#6D6E71;stop-opacity:0"/>
		</linearGradient>
		<polygon fill="url(#SVGID_4_)" points="711,220 711,202 690,202 690,417 711,417 752,417 752,220 		"/>
		<linearGradient id="SVGID_5_" gradientUnits="userSpaceOnUse" x1="854" y1="0.0068" x2="854" y2="417.0005">
			<stop  offset="0" style="stop-color:#6D6E71;stop-opacity:0.5"/>
			<stop  offset="1" style="stop-color:#6D6E71;stop-opacity:0"/>
		</linearGradient>
		<path fill="url(#SVGID_5_)" d="M827.25,0.007L830,15.622V56h17v10.597c16,1.323,27.701,4.435,27.701,7.898
			c0,0.125-0.385,0.505-0.414,0.505h0.052l-6.331,16.051L861,95.418v3.631l-13,6.713v16.254l33,14.777v170.193V417h-54L827.25,0.007
			z"/>
		<linearGradient id="SVGID_6_" gradientUnits="userSpaceOnUse" x1="1115.5" y1="61" x2="1115.5" y2="417.0005">
			<stop  offset="0" style="stop-color:#6D6E71;stop-opacity:0.5"/>
			<stop  offset="1" style="stop-color:#6D6E71;stop-opacity:0"/>
		</linearGradient>
		<polygon fill="url(#SVGID_6_)" points="1104,72 1104,61 1091,61 1091,417 1104,417 1140,417 1140,72 		"/>
	</g>
	<linearGradient id="SVGID_7_" gradientUnits="userSpaceOnUse" x1="1412.5" y1="88" x2="1412.5" y2="417.0005">
		<stop  offset="0" style="stop-color:#6D6E71;stop-opacity:0.5"/>
		<stop  offset="1" style="stop-color:#6D6E71;stop-opacity:0"/>
	</linearGradient>
	<polygon fill="url(#SVGID_7_)" points="1406,104 1406,88 1388,88 1388,417 1406,417 1437,417 1437,104 	"/>
	<linearGradient id="SVGID_8_" gradientUnits="userSpaceOnUse" x1="1566.4043" y1="120.8076" x2="1566.4043" y2="442.0005">
		<stop  offset="0" style="stop-color:#6D6E71;stop-opacity:0.5"/>
		<stop  offset="1" style="stop-color:#6D6E71;stop-opacity:0"/>
	</linearGradient>
	<path fill="url(#SVGID_8_)" d="M1528.809,120.808l3.686,12.513c14.409,1.923,25.493,13.679,26.091,28.679H1568v19h17v6.035V277h19
		v24.986V442h-75L1528.809,120.808z"/>
	<linearGradient id="SVGID_9_" gradientUnits="userSpaceOnUse" x1="1274.5" y1="75" x2="1274.5" y2="417.0005">
		<stop  offset="0" style="stop-color:#6D6E71;stop-opacity:0.5"/>
		<stop  offset="1" style="stop-color:#6D6E71;stop-opacity:0"/>
	</linearGradient>
	<polygon fill="url(#SVGID_9_)" points="1283,147 1283,129.404 1280,114.627 1277,129.404 1277,147 1261,147 1261,75 1220,75 
		1220,417 1261,417 1329,417 1329,195.986 1329,147 	"/>
	<linearGradient id="SVGID_10_" gradientUnits="userSpaceOnUse" x1="1768.5" y1="261" x2="1768.5" y2="442.0005">
		<stop  offset="0" style="stop-color:#6D6E71;stop-opacity:0.5"/>
		<stop  offset="1" style="stop-color:#6D6E71;stop-opacity:0"/>
	</linearGradient>
	<rect x="1751" y="261" fill="url(#SVGID_10_)" width="35" height="181"/>
	<linearGradient id="SVGID_11_" gradientUnits="userSpaceOnUse" x1="1911" y1="254" x2="1911" y2="442.0005">
		<stop  offset="0" style="stop-color:#6D6E71;stop-opacity:0.5"/>
		<stop  offset="1" style="stop-color:#6D6E71;stop-opacity:0"/>
	</linearGradient>
	<rect x="1902" y="254" fill="url(#SVGID_11_)" width="18" height="188"/>
	<linearGradient id="SVGID_12_" gradientUnits="userSpaceOnUse" x1="1690.5" y1="114.8779" x2="1690.5" y2="442.0005">
		<stop  offset="0" style="stop-color:#6D6E71;stop-opacity:0.5"/>
		<stop  offset="1" style="stop-color:#6D6E71;stop-opacity:0"/>
	</linearGradient>
	<polygon fill="url(#SVGID_12_)" points="1668.25,114.878 1673,129.404 1673,155 1695,155 1695,174 1713,174 1713,318.986 1713,442 
		1668,442 	"/>
</g>
</svg>
