<?xml version="1.0" encoding="UTF-8" standalone="no"?>
<!-- Created with Inkscape (http://www.inkscape.org/) -->

<svg
   xmlns:dc="http://purl.org/dc/elements/1.1/"
   xmlns:cc="http://creativecommons.org/ns#"
   xmlns:rdf="http://www.w3.org/1999/02/22-rdf-syntax-ns#"
   xmlns:svg="http://www.w3.org/2000/svg"
   xmlns="http://www.w3.org/2000/svg"
   xmlns:sodipodi="http://sodipodi.sourceforge.net/DTD/sodipodi-0.dtd"
   xmlns:inkscape="http://www.inkscape.org/namespaces/inkscape"
   id="svg2"
   version="1.1"
   inkscape:version="0.92.2 5c3e80d, 2017-08-06"
   xml:space="preserve"
   width="352.56"
   height="65.684502"
   viewBox="0 0 352.56 65.684502"
   sodipodi:docname="deloitte.svg"><metadata
     id="metadata8"><rdf:RDF><cc:Work
         rdf:about=""><dc:format>image/svg+xml</dc:format><dc:type
           rdf:resource="http://purl.org/dc/dcmitype/StillImage" /><dc:title /></cc:Work></rdf:RDF></metadata><defs
     id="defs6" /><sodipodi:namedview
     pagecolor="#000000"
     bordercolor="#666666"
     borderopacity="1"
     objecttolerance="10"
     gridtolerance="10"
     guidetolerance="10"
     inkscape:pageopacity="0"
     inkscape:pageshadow="2"
     inkscape:window-width="1918"
     inkscape:window-height="2136"
     id="namedview4"
     showgrid="false"
     fit-margin-top="0"
     fit-margin-left="0"
     fit-margin-right="0"
     fit-margin-bottom="0"
     inkscape:zoom="0.93419355"
     inkscape:cx="-1.0248343"
     inkscape:cy="36.436498"
     inkscape:window-x="3840"
     inkscape:window-y="22"
     inkscape:window-maximized="0"
     inkscape:current-layer="g10" /><g
     id="g10"
     inkscape:groupmode="layer"
     inkscape:label="ink_ext_XXXXXX"
     transform="matrix(1.25,0,0,-1.25,-25.645,78.623)"><path
       inkscape:connector-curvature="0"
       id="path14"
       style="fill:#1e4695;fill-opacity:1;fill-rule:nonzero;stroke:none"
       d="m 100.565,21.4402 c -1.3052,-0.4429 -2.6658,-0.8433 -4.0267,-1.1211 -1.5973,-0.3242 -3.2508,-0.5015 -4.9305,-0.5015 -5.4293,0 -9.6793,1.8062 -10.3742,6.1094 h 23.1614 c 0.171,0.8257 0.475,2.8257 0.475,4.9293 0,9.7781 -4.865,18.7546 -17.277,18.7546 -12.0578,0 -18.477,-9.455 -18.477,-20.0496 0,-12.2129 8.5387,-19.1992 20.4598,-19.1992 3.0359,0 5.2555,0.2727 7.0875,0.6445 1.9015,0.3879 3.9967,1.0137 5.7687,1.8071 z M 87.3816,40.8395 c 4.5907,0 5.9774,-4.1942 5.9774,-6.4965 -0.0082,0 -12.3656,0 -12.3731,0 0,3.2617 2.2676,6.4965 6.3957,6.4965" /><path
       inkscape:connector-curvature="0"
       id="path16"
       style="fill:#1e4695;fill-opacity:1;fill-rule:nonzero;stroke:none"
       d="m 280.372,21.4402 c -1.305,-0.4429 -2.666,-0.8433 -4.027,-1.1211 -1.598,-0.3242 -3.25,-0.5015 -4.93,-0.5015 -5.428,0 -9.678,1.8062 -10.373,6.1094 h 23.16 c 0.172,0.8257 0.475,2.8257 0.475,4.9293 0,9.7781 -4.865,18.7546 -17.276,18.7546 -12.058,0 -18.476,-9.455 -18.476,-20.0496 0,-12.2129 8.537,-19.1992 20.459,-19.1992 3.035,0 5.254,0.2727 7.088,0.6445 1.9,0.3879 3.996,1.0137 5.767,1.8071 z M 267.19,40.8395 c 4.59,0 5.977,-4.1942 5.977,-6.4965 -0.008,0 -12.365,0 -12.373,0 0,3.2617 2.268,6.4965 6.396,6.4965" /><path
       inkscape:connector-curvature="0"
       id="path18"
       style="fill:#1e4695;fill-opacity:1;fill-rule:nonzero;stroke:none"
       d="m 110.543,11.1672 h 12.5602 V 62.0613 H 110.543 Z" /><path
       inkscape:connector-curvature="0"
       id="path20"
       style="fill:#1e4695;fill-opacity:1;fill-rule:nonzero;stroke:none"
       d="m 148.157,10.3621 c 9.801,0 19.72,6.1723 19.72,19.9555 0,8.2066 -4.862,19.2308 -19.105,19.2308 -14.662,0 -20.01,-10.6824 -20.01,-19.8558 0,-11.5117 7.994,-19.3305 19.395,-19.3305 z m 0.169,9.3156 c -4.08,0 -6.76,4.0332 -6.76,10.2703 0,4.9692 1.796,10.2731 6.803,10.2731 4.831,0 6.546,-5.4977 6.546,-10.2184 0,-6.2664 -2.606,-10.325 -6.589,-10.325" /><path
       inkscape:connector-curvature="0"
       id="path22"
       style="fill:#1e4695;fill-opacity:1;fill-rule:nonzero;stroke:none"
       d="m 173.338,11.1672 h 12.5582 V 48.7231 H 173.338 Z" /><path
       inkscape:connector-curvature="0"
       id="path24"
       style="fill:#1e4695;fill-opacity:1;fill-rule:nonzero;stroke:none"
       d="m 173.338,52.2945 h 12.5582 v 9.75156 H 173.338 Z" /><path
       inkscape:connector-curvature="0"
       id="path26"
       style="fill:#1e4695;fill-opacity:1;fill-rule:nonzero;stroke:none"
       d="M 195.844,58.9418 V 48.7281 h -4.826 v -9.307 h 4.826 V 24.0352 c 0,-8.4622 3.869,-13.6399 12.701,-13.6399 1.656,0 3.526,0.1699 5.249,0.4277 1.594,0.2395 3.008,0.5293 3.627,0.7317 0.01,0.0098 -0.092,9.8098 -0.092,9.8457 -0.404,-0.1399 -3.252,-0.6184 -4.293,-0.6184 -1.01,0 -2.511,0.1282 -3.583,1.2258 -0.765,0.782 -1.314,2.0567 -1.314,4.1277 v 13.2856 h 8.118 v 9.307 c 0,0 -7.046,0 -8.118,0 0,1.1016 0,11.5996 0,11.5996 l -12.295,-1.3859" /><path
       inkscape:connector-curvature="0"
       id="path28"
       style="fill:#1e4695;fill-opacity:1;fill-rule:nonzero;stroke:none"
       d="M 224.901,58.9418 V 48.7281 h -4.826 v -9.307 h 4.826 V 24.0352 c 0,-8.4622 3.87,-13.6399 12.702,-13.6399 1.656,0 3.525,0.1699 5.246,0.4277 1.595,0.2395 3.009,0.5293 3.629,0.7317 0.009,0.0098 -0.092,9.8098 -0.092,9.8457 -0.405,-0.1399 -3.25,-0.6184 -4.293,-0.6184 -1.01,0 -2.51,0.1282 -3.582,1.2258 -0.766,0.782 -1.313,2.0567 -1.313,4.1277 v 13.2856 h 8.115 v 9.307 c 0,0 -7.044,0 -8.115,0 0,1.1016 0,11.5996 0,11.5996 l -12.297,-1.3859" /><path
       inkscape:connector-curvature="0"
       id="path30"
       style="fill:#8cd133;fill-opacity:1;fill-rule:nonzero;stroke:none"
       d="m 288.668,17.2988 c 0,3.836 3.111,6.9453 6.947,6.9453 3.836,0 6.949,-3.1093 6.949,-6.9453 0,-3.8386 -3.113,-6.948 -6.949,-6.948 -3.836,0 -6.947,3.1094 -6.947,6.948" /><path
       inkscape:connector-curvature="0"
       id="path32"
       style="fill:#1e4695;fill-opacity:1;fill-rule:nonzero;stroke:none"
       d="M 38.6848,21.2512 C 38.1625,21.2078 37.3777,21.1887 36.875,21.1887 h -3.9824 c 0.0058,0.0039 0,31.2777 0,31.2777 1.3773,0.1231 3.1269,0.2051 4.2969,0.2051 7.3011,0 15.0808,-4.7375 15.0808,-15.6793 0,-11.4152 -7.3113,-15.2234 -13.5855,-15.741 z M 20.516,11.1113 h 14.2129 c 0.9625,0 2.1258,0.0235 3.0379,0.0703 19.452,1.0047 27.5457,12.5176 27.5457,25.8106 0,16.6051 -11.1992,25.9062 -30.5277,25.9062 -4.9606,0 -9.3707,-0.1687 -14.2688,-0.582 V 11.1113" /></g></svg>