<?xml version="1.0" encoding="UTF-8" standalone="no"?>
<svg
   xmlns:dc="http://purl.org/dc/elements/1.1/"
   xmlns:cc="http://creativecommons.org/ns#"
   xmlns:rdf="http://www.w3.org/1999/02/22-rdf-syntax-ns#"
   xmlns:svg="http://www.w3.org/2000/svg"
   xmlns="http://www.w3.org/2000/svg"
   xmlns:sodipodi="http://sodipodi.sourceforge.net/DTD/sodipodi-0.dtd"
   xmlns:inkscape="http://www.inkscape.org/namespaces/inkscape"
   width="708.66937pt"
   height="147.15895pt"
   viewBox="0 0 708.66937 147.15895"
   version="1.1"
   id="svg94"
   sodipodi:docname="finning_digital.svg"
   inkscape:version="0.92.2 5c3e80d, 2017-08-06">
  <metadata
     id="metadata100">
    <rdf:RDF>
      <cc:Work
         rdf:about="">
        <dc:format>image/svg+xml</dc:format>
        <dc:type
           rdf:resource="http://purl.org/dc/dcmitype/StillImage" />
      </cc:Work>
    </rdf:RDF>
  </metadata>
  <defs
     id="defs98" />
  <sodipodi:namedview
     pagecolor="#ffffff"
     bordercolor="#666666"
     borderopacity="1"
     objecttolerance="10"
     gridtolerance="10"
     guidetolerance="10"
     inkscape:pageopacity="0"
     inkscape:pageshadow="2"
     inkscape:window-width="1918"
     inkscape:window-height="2136"
     id="namedview96"
     showgrid="false"
     inkscape:zoom="0.34711538"
     inkscape:cx="481.99749"
     inkscape:cy="97.457585"
     inkscape:window-x="3840"
     inkscape:window-y="22"
     inkscape:window-maximized="0"
     inkscape:current-layer="svg94" />
  <g
     id="#ffffffff"
     transform="translate(-34.983878,-6.9342341)" />
  <g
     id="#000000ff"
     transform="translate(-34.983878,-6.9342341)">
    <path
       d="m 44.14,14.07 c 4.34,-5.14 11.39,-6.73 17.84,-6.82 10.05,0 20.1,-0.03 30.15,0.01 1.62,-0.24 3.37,0.89 3.06,2.7 -0.27,3.66 -0.63,7.33 -1.45,10.91 -0.42,2.15 -2.96,2.33 -4.73,2.37 -9.35,0.06 -18.71,-0.04 -28.06,0.02 -1.53,-0.13 -3.27,0.56 -3.62,2.21 -0.74,3.05 -0.93,6.2 -1.37,9.3 9.35,-0.06 18.69,0.01 28.03,-0.04 1.98,0.02 4.04,-0.12 5.93,0.62 1.51,2.67 0.13,5.83 0.05,8.68 -0.44,2.35 -0.19,5.93 -3.16,6.63 -10.98,0.24 -21.99,-0.01 -32.98,0.12 -0.67,4.41 -1.08,8.86 -1.85,13.26 -0.14,2.44 -2.95,3.12 -4.96,2.97 -3.99,-0.15 -8.15,0.56 -12,-0.82 0.46,-11.51 2.81,-22.86 4.08,-34.3 0.97,-6.06 0.86,-12.86 5.04,-17.82 z"
       id="path3"
       inkscape:connector-curvature="0"
       style="opacity:1;fill:#000000" />
    <path
       d="m 108.38,7.4 c 4.41,-0.26 8.86,-0.29 13.27,0.01 2.07,0.4 1.62,2.93 1.52,4.46 -2.19,17.01 -4.51,34 -6.77,51 -0.18,1.81 -1.11,4.04 -3.27,4.01 -4.04,0.19 -8.12,0.31 -12.15,-0.1 -1.75,-0.25 -2.23,-2.39 -1.79,-3.86 2.18,-17 4.54,-33.98 6.75,-50.98 0.2,-1.72 0.5,-3.92 2.44,-4.54 z"
       id="path5"
       inkscape:connector-curvature="0"
       style="opacity:1;fill:#000000" />
    <path
       d="m 135.8,11.07 c 0.04,-1.78 1.23,-3.84 3.23,-3.78 11.65,-0.11 23.31,-0.01 34.96,-0.04 5.9,0.09 12.46,1.41 16.31,6.29 3.54,4.25 3.58,10.15 2.94,15.37 -1.55,11.42 -3.04,22.84 -4.59,34.26 -0.1,1.88 -1.49,3.86 -3.55,3.75 -4.04,0.08 -8.14,0.37 -12.14,-0.22 -1.71,-0.28 -1.61,-2.39 -1.46,-3.68 1.39,-12.04 3.33,-24.02 4.66,-36.07 0.51,-1.99 -1.17,-3.88 -3.18,-3.68 -7.2,-0.09 -14.41,0.05 -21.61,-0.05 -1.79,13.26 -3.5,26.53 -5.29,39.79 0.06,2.14 -1.63,4.16 -3.88,3.95 -4.42,-0.12 -9.03,0.7 -13.3,-0.79 -0.09,-1.93 0,-3.87 0.28,-5.78 2.25,-16.43 4.35,-32.89 6.62,-49.32 z"
       id="path7"
       inkscape:connector-curvature="0"
       style="opacity:1;fill:#000000" />
    <path
       d="m 208.1,10.92 c 0.01,-2.03 1.64,-4 3.8,-3.66 11.72,-0.02 23.44,-0.03 35.15,0 5.84,0.2 12.35,1.75 15.92,6.79 3.26,4.32 3.18,10.03 2.52,15.14 -1.44,10.97 -2.94,21.92 -4.36,32.89 -0.26,1.76 -0.51,4.25 -2.67,4.64 -3.8,0.58 -7.7,0.23 -11.54,0.25 -1.59,0.17 -3.65,-1.04 -3.18,-2.89 1.25,-12.4 3.4,-24.72 4.71,-37.12 0.39,-1.66 -0.66,-3.65 -2.49,-3.65 -7.44,-0.16 -14.89,-0.02 -22.33,-0.05 -1.74,13.31 -3.49,26.62 -5.26,39.92 -0.11,1.79 -1.33,3.76 -3.33,3.71 -4.02,0.17 -8.09,0.31 -12.1,-0.11 -1.68,-0.28 -2.15,-2.3 -1.77,-3.73 2.26,-17.38 4.61,-34.75 6.93,-52.13 z"
       id="path9"
       inkscape:connector-curvature="0"
       style="opacity:1;fill:#000000" />
    <path
       d="m 282.37,7.52 c 4.42,-0.56 8.96,-0.26 13.42,-0.19 2.48,0.63 1.63,3.68 1.58,5.54 -2.24,16.76 -4.46,33.52 -6.71,50.28 -0.05,1.89 -1.47,3.83 -3.5,3.76 -4.04,0.1 -8.14,0.36 -12.16,-0.2 -2.08,-0.46 -1.62,-3.04 -1.42,-4.62 2.21,-16.76 4.45,-33.52 6.67,-50.28 0.24,-1.56 0.45,-3.59 2.12,-4.29 z"
       id="path11"
       inkscape:connector-curvature="0"
       style="opacity:1;fill:#000000" />
    <path
       d="m 309.95,11.97 c 0.17,-1.87 0.73,-4.61 3.1,-4.66 11.99,-0.14 24,-0.05 35.99,-0.04 6.32,0.12 13.47,2.1 16.76,7.99 4.07,7.06 1.22,15.37 0.54,22.91 -1.5,9.32 -1.96,18.84 -4.18,28.03 -3.26,1.19 -6.77,0.74 -10.16,0.82 -1.7,-0.11 -3.55,0.29 -5.1,-0.59 -1.76,-0.71 -1.02,-2.97 -0.98,-4.39 1.46,-11.04 2.99,-22.08 4.4,-33.14 0.21,-1.91 0.68,-4.7 -1.67,-5.49 -7.63,-0.39 -15.3,-0.03 -22.94,-0.17 -1.84,13.27 -3.5,26.57 -5.31,39.84 -0.13,1.78 -1.25,3.8 -3.25,3.8 -4.06,0.18 -8.17,0.32 -12.21,-0.11 -1.72,-0.28 -2.18,-2.36 -1.75,-3.82 2.21,-17 4.54,-33.98 6.76,-50.98 z"
       id="path13"
       inkscape:connector-curvature="0"
       style="opacity:1;fill:#000000" />
    <path
       d="m 387.04,10.98 c 5.55,-3.77 12.52,-3.8 18.97,-3.98 9.67,0.01 19.34,-0.03 29.01,0.02 1.5,0.11 3.66,-0.01 4.21,1.8 0.11,3.77 -0.53,7.53 -1.17,11.24 -0.17,1.48 -1.35,2.99 -2.96,2.89 -11.41,0.18 -22.83,-0.09 -34.24,0.11 -1.85,-0.05 -4.01,0.92 -4.17,2.99 -1.01,6.97 -2.02,13.96 -2.73,20.97 -0.59,1.94 0.88,4.08 2.98,3.93 6.67,0.15 13.36,-0.01 20.04,0.05 0.28,-2.16 0.55,-4.33 0.82,-6.5 -3.91,-0.29 -8.05,0.72 -11.78,-0.73 -1.56,-1.82 -0.46,-4.47 -0.4,-6.62 0.51,-2.32 0.16,-6.25 3.39,-6.56 8.31,-0.19 16.64,-0.11 24.95,-0.04 1.92,-0.24 3,1.78 2.52,3.44 -1.17,9.97 -2.54,19.93 -3.95,29.88 -0.13,2.26 -2.41,3.33 -4.45,3.11 -10.34,0.05 -20.69,0 -31.04,0.02 -5.53,-0.1 -11.56,-0.68 -15.97,-4.39 -4.17,-3.54 -5.38,-9.43 -4.59,-14.64 1.03,-8.16 2.13,-16.3 3.26,-24.45 0.64,-4.92 3,-9.82 7.3,-12.54 z"
       id="path15"
       inkscape:connector-curvature="0"
       style="opacity:1;fill:#000000" />
    <path
       d="m 480.25,7.37 c 6.61,-0.21 13.25,-0.25 19.85,0.06 6.15,0.25 12.61,3.52 14.92,9.51 2.92,7.64 0.67,15.84 -0.22,23.65 -1.1,8.23 -3.39,17.43 -10.75,22.31 -8.21,5.78 -18.7,3.7 -28.08,4.12 -2.67,0.29 -6.91,-0.24 -6.21,-3.94 2.14,-17.01 4.67,-33.99 6.94,-50.99 0.07,-2.15 1.04,-4.63 3.55,-4.72 m 5.76,7.63 c -0.39,0.34 -1.17,1 -1.56,1.33 -1.93,14.28 -4.11,28.53 -5.8,42.84 6.95,-0.3 14.79,1.61 20.88,-2.72 4.71,-3.27 5.81,-9.35 6.74,-14.62 0.83,-6.29 2.3,-12.64 1.54,-19.02 -0.6,-3.93 -4.07,-6.82 -7.87,-7.47 -4.6,-0.72 -9.29,-0.19 -13.93,-0.34 z"
       id="path17"
       inkscape:connector-curvature="0"
       style="opacity:1;fill:#000000" />
    <path
       d="m 529.98,9.99 c 0.96,-3.39 5.15,-3.12 7.63,-1.65 0.31,1.89 0.39,3.82 0.06,5.72 -2.39,16.65 -4.54,33.33 -6.98,49.96 -0.66,3.61 -5.19,3.38 -7.72,1.95 -0.25,-1.63 -0.47,-3.27 -0.15,-4.9 2.45,-17.02 4.59,-34.09 7.16,-51.08 z"
       id="path19"
       inkscape:connector-curvature="0"
       style="opacity:1;fill:#000000" />
    <path
       d="m 549.46,19.09 c 4.2,-7.57 12.8,-12.56 21.5,-12.13 6.25,-0.25 12.74,2.76 15.81,8.36 1.51,2.87 3.11,6.48 1.34,9.6 -1.17,1.51 -3.4,1.5 -5.11,1.25 -2.88,-1.19 -2.23,-5.03 -3.99,-7.18 -4.21,-6.17 -13.76,-5.55 -18.83,-0.78 -4.09,3.33 -5,8.8 -5.78,13.7 -0.85,6 -2,12.01 -1.9,18.09 -0.14,4.33 3.16,8.24 7.27,9.31 6.02,1.67 12.77,-1.24 16.07,-6.46 2.11,-3.12 2.51,-6.97 2.97,-10.6 -4.39,-0.26 -9.02,0.77 -13.19,-0.99 -0.53,-2.36 -0.71,-5.8 2.36,-6.42 5.69,-0.17 11.4,-0.18 17.08,0.02 2.03,0.14 2.74,2.45 2.49,4.17 -0.81,6.51 -1.4,13.57 -5.68,18.88 -6.48,8.34 -18.78,12.16 -28.51,7.51 -4.19,-2.11 -7.81,-5.86 -8.82,-10.54 -1.26,-5.63 0.04,-11.38 0.67,-17 1.02,-6.33 1.39,-12.95 4.25,-18.79 z"
       id="path21"
       inkscape:connector-curvature="0"
       style="opacity:1;fill:#000000" />
    <path
       d="m 603.41,8.41 c 1.75,-1.91 4.53,-0.97 6.64,-0.29 0.4,1.9 0.56,3.86 0.18,5.79 -2.43,16.76 -4.51,33.57 -7.06,50.31 -0.83,3.56 -5.28,3.17 -7.73,1.58 -0.59,-3.32 0.24,-6.63 0.66,-9.92 2.02,-14.66 4.07,-29.33 6.06,-44 0.24,-1.19 0.2,-2.63 1.25,-3.47 z"
       id="path23"
       inkscape:connector-curvature="0"
       style="opacity:1;fill:#000000" />
    <path
       d="m 620.26,8.3 c 1.92,-1.46 4.48,-0.95 6.72,-1.07 10.26,0.14 20.53,-0.19 30.77,0.16 3.85,0.32 3.83,6.49 0.32,7.45 -4.35,0.38 -8.73,0.07 -13.09,0.15 -0.4,0.33 -1.2,0.99 -1.59,1.32 -2.34,15.88 -4.34,31.8 -6.67,47.67 -0.64,3.65 -5.16,3.45 -7.7,2.01 -0.27,-1.29 -0.37,-2.59 -0.29,-3.89 2.04,-15.67 4.48,-31.29 6.34,-46.98 -4.41,-0.3 -8.83,0.1 -13.22,-0.25 -3.1,-0.32 -3.46,-4.68 -1.59,-6.57 z"
       id="path25"
       inkscape:connector-curvature="0"
       style="opacity:1;fill:#000000" />
    <path
       d="m 676.86,9.93 c 1.23,-3.54 7.82,-3.94 8.62,0.03 3.9,17.05 7.79,34.1 11.69,51.15 0.49,1.64 -0.21,3.29 -0.4,4.92 -2,0.8 -4.3,1.53 -6.35,0.5 -1.09,-0.9 -1.28,-2.39 -1.59,-3.67 -2.4,-11.58 -4.9,-23.14 -7.32,-34.72 -0.47,-2.36 -0.9,-4.77 -1.87,-6.99 -6.53,13.01 -12.91,26.1 -19.35,39.15 -1.43,2.7 -2.38,7.1 -6.31,6.73 -2.91,0.62 -5.14,-2.7 -3.41,-5.13 8.75,-17.33 17.51,-34.65 26.29,-51.97 z"
       id="path27"
       inkscape:connector-curvature="0"
       style="opacity:1;fill:#000000" />
    <path
       d="m 713.46,10.03 c 0.88,-3.39 4.98,-3.06 7.53,-1.91 0.27,1.57 0.62,3.17 0.31,4.76 -2.09,15.41 -4.36,30.8 -6.3,46.22 9.33,0.75 18.85,-0.83 28.07,0.87 1.23,2.64 0.64,6.93 -2.98,6.95 -10.4,0.11 -20.82,0.2 -31.22,-0.05 -2.48,-0.21 -3.18,-2.87 -2.65,-4.94 2.45,-17.3 4.66,-34.63 7.24,-51.9 z"
       id="path29"
       inkscape:connector-curvature="0"
       style="opacity:1;fill:#000000" />
    <path
       d="m 436.74,64.56 c -2.23,-3.5 1.02,-8.49 5.09,-7.86 3.9,-0.02 5.05,4.35 5.39,7.45 -0.66,-0.29 -1.3,-0.58 -1.95,-0.86 1.36,-3.95 -3.12,-6.33 -6.4,-4.92 1.75,0.31 3.47,0.74 5.17,1.28 -0.71,1.77 -1.04,3.67 -1.84,5.4 l -0.77,-3.42 c -0.59,1.63 -1.38,3.14 -2.36,4.56 2.68,0.04 5.16,-0.88 7.59,-1.9 -2.14,3.45 -7.97,4.26 -9.92,0.27 m 2.02,0.06 c 0.26,-1.68 0.3,-3.57 -0.02,-5.24 -1.85,0.62 -1.75,4.61 0.02,5.24 m 1.63,-4.45 c 0.01,3.3 2.99,-1.52 0,0 z"
       id="path31"
       inkscape:connector-curvature="0"
       style="opacity:1;fill:#000000" />
    <path
       d="m 41.39,107.65 c 4.02,-1 8.91,-1.34 12.33,1.4 2.49,2.26 2.47,5.84 2.62,8.94 -1.65,0.01 -3.3,0.01 -4.95,0.01 -0.41,-1.91 -0.02,-4.34 -1.7,-5.71 -2.97,-2.21 -8.26,-1.12 -9.25,2.74 -0.96,4.24 -0.63,8.64 -0.7,12.96 0.02,3.36 -0.08,6.86 1.14,10.04 1.34,3.39 6.18,3.92 8.76,1.72 1.69,-1.62 1.83,-4.11 2.33,-6.25 1.64,0 3.28,0 4.92,0.02 -0.29,3.24 -0.54,6.92 -3.08,9.29 -3.32,2.89 -8.18,2.81 -12.23,1.85 -4.5,-1.27 -6.3,-6.32 -6.53,-10.55 -0.12,-5.38 -0.04,-10.76 -0.04,-16.14 0.01,-4.2 2.01,-9.08 6.38,-10.32 z"
       id="path33"
       inkscape:connector-curvature="0"
       style="opacity:1;fill:#000000" />
    <path
       d="m 274.25,107.77 c 1.05,-0.02 3.16,-0.04 4.21,-0.05 0.09,12.26 0.03,24.53 0.03,36.79 -1.06,0 -3.2,-0.02 -4.27,-0.02 0.02,-0.62 0.06,-1.85 0.08,-2.47 -2.1,2.21 -5.15,3.69 -8.23,2.69 -3.95,-0.74 -5.43,-5.06 -5.74,-8.58 -0.42,-4.67 -0.65,-9.65 1.12,-14.09 2.27,-4.81 9.63,-5.15 12.85,-1.12 -0.09,-4.38 -0.04,-8.77 -0.05,-13.15 m -6.95,14.55 c -2.29,1.26 -2.4,4.31 -2.55,6.62 0.09,3.36 -0.52,6.98 0.99,10.11 1.4,3.09 6.8,2.98 7.61,-0.54 1.08,-4.42 1.28,-9.2 0.1,-13.63 -0.61,-2.61 -3.88,-4.02 -6.15,-2.56 z"
       id="path35"
       inkscape:connector-curvature="0"
       style="opacity:1;fill:#000000" />
    <path
       d="m 359,107.75 c 1.66,0 3.33,0 5,0 0,12.25 0,24.5 0,36.75 -1.67,0 -3.34,0 -5,0 0,-12.25 0,-24.5 0,-36.75 z"
       id="path37"
       inkscape:connector-curvature="0"
       style="opacity:1;fill:#000000" />
    <path
       d="m 460,107.75 c 1.58,0 3.16,0 4.74,-0.01 0,1.59 0,3.17 0.02,4.76 -1.59,0 -3.18,0 -4.76,0 -0.01,-1.58 0,-3.17 0,-4.75 z"
       id="path39"
       inkscape:connector-curvature="0"
       style="opacity:1;fill:#000000" />
    <path
       d="m 193,113.75 c 1.41,-0.66 2.82,-1.3 4.24,-1.95 0.01,2.32 0.01,4.63 0.01,6.95 1.83,0 3.65,-0.01 5.48,0 0.01,0.81 0.03,2.43 0.04,3.24 -1.85,0.01 -3.69,0.02 -5.53,0.03 0.11,5.61 -0.16,11.23 0.1,16.84 0.46,2.66 3.68,2.02 5.63,2.33 -0.13,1.04 -0.28,2.07 -0.47,3.1 -3.09,0.66 -7.98,1.21 -9.35,-2.44 -0.37,-6.6 -0.04,-13.23 -0.15,-19.85 -1.42,0 -2.84,0 -4.25,0 0,-0.82 0,-2.45 0,-3.27 1.4,0.02 2.8,0.04 4.2,0.07 0.03,-1.69 0.04,-3.37 0.05,-5.05 z"
       id="path41"
       inkscape:connector-curvature="0"
       style="opacity:1;fill:#000000" />
    <path
       d="m 219.99,113.74 c 1.42,-0.65 2.83,-1.29 4.25,-1.93 0.01,2.31 0.01,4.63 0.02,6.94 1.82,0 3.65,0 5.48,0 0.01,0.81 0.02,2.43 0.02,3.24 -1.85,0.01 -3.68,0.02 -5.52,0.03 0.11,5.61 -0.15,11.24 0.1,16.84 0.47,2.65 3.67,2.03 5.63,2.33 -0.13,1.03 -0.28,2.07 -0.47,3.1 -3.08,0.66 -7.91,1.21 -9.35,-2.39 -0.37,-6.62 -0.04,-13.27 -0.15,-19.9 -1.42,0 -2.84,0 -4.25,0 0,-0.82 0,-2.45 0,-3.26 1.41,0.01 2.82,0.02 4.23,0.03 0.01,-1.68 0.01,-3.36 0.01,-5.03 z"
       id="path43"
       inkscape:connector-curvature="0"
       style="opacity:1;fill:#000000" />
    <path
       d="m 535.49,113.83 c 1.49,-0.68 2.98,-1.37 4.5,-2.03 0,2.32 0.01,4.64 0.03,6.97 1.82,-0.02 3.64,-0.02 5.48,-0.03 0,0.82 0,2.45 0,3.26 -1.84,0 -3.67,0 -5.5,0 0.08,5.68 -0.17,11.38 0.1,17.06 0.53,2.44 3.59,1.83 5.42,2.03 -0.01,0.81 -0.03,2.43 -0.04,3.24 -2.7,0.24 -5.71,1 -8.17,-0.52 -1.66,-0.95 -1.81,-3.06 -1.83,-4.75 0,-5.69 0.03,-11.37 0.02,-17.06 -1,0 -3,0 -4,0 0,-0.81 0,-2.43 0,-3.24 1.33,-0.01 2.67,-0.03 4.02,-0.04 -0.02,-1.63 -0.03,-3.26 -0.03,-4.89 z"
       id="path45"
       inkscape:connector-curvature="0"
       style="opacity:1;fill:#000000" />
    <path
       d="m 69.5,118.6 c 4.22,-0.98 9.96,-0.65 12.07,3.83 1.79,4.65 1.64,9.85 0.97,14.73 -0.42,3.17 -2.21,6.61 -5.58,7.36 -3.9,0.83 -9.14,0.88 -11.53,-2.92 -2.36,-4.05 -2.01,-8.97 -1.87,-13.48 0.15,-3.85 1.66,-8.58 5.94,-9.52 m 1.67,3.55 c -2.66,1.04 -2.93,4.35 -3.15,6.79 -0.05,3.3 -0.14,6.77 1.1,9.89 1.27,3.46 7.2,3.27 8.25,-0.24 1.35,-4.03 1,-8.45 0.61,-12.62 -0.3,-3.21 -3.9,-5.21 -6.81,-3.82 z"
       id="path47"
       inkscape:connector-curvature="0"
       style="opacity:1;fill:#000000" />
    <path
       d="m 94.18,121.72 c 2.22,-3.66 7.11,-4.43 10.82,-2.78 2.58,1.26 2.96,4.46 3,7 -0.01,6.22 0.06,12.44 -0.07,18.65 -1.4,-0.06 -2.81,-0.12 -4.21,-0.17 0.02,-5.81 0.08,-11.62 0.01,-17.42 -0.04,-1.95 -0.55,-4.57 -2.82,-4.98 -2.88,-1.13 -6.09,1.11 -6.31,4.13 -0.77,6.04 -0.17,12.18 -0.32,18.27 -1.4,0.05 -2.8,0.11 -4.2,0.18 -0.31,-8.61 0.26,-17.25 -0.35,-25.85 1.51,0 3.02,0 4.54,0 -0.02,0.74 -0.07,2.23 -0.09,2.97 z"
       id="path49"
       inkscape:connector-curvature="0"
       style="opacity:1;fill:#000000" />
    <path
       d="m 120.15,121.25 c 3.28,-4.52 12.71,-4.46 13.47,2.02 0.34,7.05 0,14.13 0.16,21.19 -1.43,0.01 -2.85,0.04 -4.27,0.08 -0.12,-6.5 0.18,-13 -0.13,-19.49 -0.37,-2.82 -3.87,-4.07 -6.24,-2.88 -2.21,0.95 -2.86,3.58 -2.87,5.77 -0.06,5.5 -0.01,11.01 0.01,16.51 -1.52,0.03 -3.03,0.04 -4.55,0.03 -0.05,-8.58 0.2,-17.17 -0.14,-25.74 1.56,0.01 3.12,0.01 4.68,0.01 -0.03,0.63 -0.09,1.87 -0.12,2.5 z"
       id="path51"
       inkscape:connector-curvature="0"
       style="opacity:1;fill:#000000" />
    <path
       d="m 141.56,125.1 c 0.46,-3.36 3.1,-6.3 6.51,-6.75 3.41,-0.34 7.77,-0.48 9.94,2.71 2.17,3.57 1.85,7.93 2.04,11.94 -4.81,0.01 -9.61,-0.02 -14.42,0.02 0.16,3.08 0.3,8.01 4.41,8.24 3,0.56 4.58,-2.35 5.2,-4.77 1.57,0.01 3.15,0.03 4.73,0.05 -0.38,3.06 -1.51,6.49 -4.71,7.61 -4.28,1.56 -10.73,1.29 -12.81,-3.5 -1.91,-4.92 -1.7,-10.42 -0.89,-15.55 m 6.64,-3.13 c -2.32,1.75 -2.22,4.92 -2.61,7.51 3.27,0.03 6.53,0.02 9.8,0 -0.32,-2.37 -0.11,-5.13 -1.87,-7.01 -1.45,-1.22 -3.63,-1.17 -5.32,-0.5 z"
       id="path53"
       inkscape:connector-curvature="0"
       style="opacity:1;fill:#000000" />
    <path
       d="m 171,118.88 c 3.22,-1 7.18,-1.22 10.01,0.9 2.22,1.67 2.38,4.66 2.64,7.19 -1.48,0.02 -2.95,0.03 -4.43,0.03 -0.46,-1.95 -0.7,-4.9 -3.22,-5.22 -2.59,-0.45 -4.84,1.79 -5.17,4.23 -0.6,3.94 -0.55,8.05 0.36,11.95 0.53,2.4 3.46,4.27 5.72,2.85 1.95,-0.96 1.76,-3.44 2.82,-5.01 1.05,-0.02 3.15,-0.06 4.2,-0.08 -0.43,2.12 -0.45,4.57 -2,6.24 -2.93,3.63 -8.69,3.87 -12.41,1.43 -3.96,-3.19 -3.52,-8.85 -3.55,-13.41 -0.04,-4.09 0.69,-9.37 5.03,-11.1 z"
       id="path55"
       inkscape:connector-curvature="0"
       style="opacity:1;fill:#000000" />
    <path
       d="m 240.43,118.56 c 4.4,-1.05 10.45,-0.37 12.19,4.54 1.58,5.42 1.65,11.43 -0.04,16.83 -0.8,2.84 -3.54,4.67 -6.41,4.87 -3.67,0.53 -8.48,0.06 -10.28,-3.73 -2.17,-4.72 -1.84,-10.18 -1.28,-15.22 0.36,-3.28 2.4,-6.57 5.82,-7.29 m 0.9,3.89 c -2.22,1.42 -2.33,4.31 -2.55,6.66 -0.06,3.32 -0.05,6.8 1.2,9.93 1.53,3.39 7.48,2.89 8.31,-0.81 1.1,-4.31 1.38,-9.03 0.13,-13.34 -0.71,-3.03 -4.65,-3.98 -7.09,-2.44 z"
       id="path57"
       inkscape:connector-curvature="0"
       style="opacity:1;fill:#000000" />
    <path
       d="m 290.03,119.08 c 3.1,-1.25 6.82,-1.25 9.92,-0.01 2.67,1.1 3.59,4.24 3.55,6.9 0.17,6.18 -0.4,12.4 0.46,18.54 -1.59,0 -3.19,-0.01 -4.78,-0.02 0.06,-0.8 0.19,-2.4 0.26,-3.2 -2.22,3.45 -6.85,4.8 -10.49,2.81 -3.67,-2.45 -3.73,-7.9 -2.3,-11.64 2.53,-4.33 8.19,-3.99 12.52,-4.3 -0.15,-2.44 0.02,-6.16 -3.23,-6.56 -2.8,-0.81 -4.97,1.77 -4.99,4.39 -1.55,0 -3.09,0.01 -4.63,0.02 0.35,-2.62 0.94,-5.83 3.71,-6.93 m 1.4,14.33 c -2.85,2.62 -0.69,9.06 3.63,7.76 4.06,-1.1 3.98,-6.12 4.19,-9.48 -2.62,0.21 -5.77,-0.3 -7.82,1.72 z"
       id="path59"
       inkscape:connector-curvature="0"
       style="opacity:1;fill:#000000" />
    <path
       d="m 376.95,120.87 c 3.01,-3.65 8.97,-3.55 12.14,-0.16 3.25,-3.93 11.95,-3.67 12.8,2.17 0.25,7.23 0.1,14.48 0.04,21.71 -1.41,-0.07 -2.81,-0.12 -4.2,-0.17 0.02,-5.81 0.04,-11.62 0.02,-17.43 0.02,-1.97 -0.45,-4.68 -2.78,-5.08 -2.25,-0.79 -5.12,0.67 -5.26,3.19 -0.5,6.43 -0.07,12.91 -0.21,19.36 -1.04,0.03 -3.13,0.09 -4.17,0.11 -0.44,-6.83 0.53,-13.75 -0.58,-20.52 -1.21,-3.64 -6.94,-2.52 -7.58,0.97 -0.42,6.47 -0.05,12.99 -0.17,19.48 -1.5,0 -3,0 -4.5,0.01 -0.1,-8.6 0.19,-17.21 -0.16,-25.8 1.55,0.02 3.11,0.04 4.67,0.06 z"
       id="path61"
       inkscape:connector-curvature="0"
       style="opacity:1;fill:#000000" />
    <path
       d="m 413.87,118.83 c 4.32,-1.29 11.14,-1.28 12.58,4.08 0.89,7.15 -0.36,14.44 0.84,21.59 -1.63,-0.01 -3.25,-0.01 -4.87,0 0.07,-0.82 0.21,-2.46 0.28,-3.28 -2.51,5.1 -11.51,5.14 -13.06,-0.66 -0.61,-3.15 -1.05,-7.07 1.43,-9.57 3.07,-2.93 7.67,-2.48 11.57,-2.84 -0.23,-2.52 -0.25,-6.42 -3.64,-6.6 -2.78,-0.64 -4.63,1.84 -4.64,4.36 -1.6,0.06 -3.21,0.09 -4.79,0.12 0.43,-2.81 1.16,-6.27 4.3,-7.2 m 0.25,15.39 c -2.08,3.15 0.86,8.53 4.87,6.81 3.53,-1.66 3.32,-6.06 3.62,-9.35 -2.85,0.26 -6.8,-0.39 -8.49,2.54 z"
       id="path63"
       inkscape:connector-curvature="0"
       style="opacity:1;fill:#000000" />
    <path
       d="m 436.67,120.74 c 2.68,-3.61 8.68,-3.38 11.26,0.24 0.03,-0.56 0.1,-1.67 0.13,-2.22 1.46,-0.02 2.92,-0.03 4.39,-0.04 0.09,9.38 0.07,18.76 0.03,28.14 0.05,2.69 -1.16,5.66 -3.96,6.47 -3.76,0.95 -8.49,1.48 -11.62,-1.31 -1.5,-1.18 -1.56,-3.19 -1.93,-4.89 1.57,-0.07 3.14,-0.12 4.72,-0.15 0.62,2.61 3.13,4.59 5.83,3.39 3.55,-1.27 2.24,-5.64 2.52,-8.51 -2.29,2.36 -5.88,3.4 -8.95,1.95 -3.46,-1.36 -4.41,-5.47 -4.76,-8.78 -0.17,-4.8 -0.67,-10.19 2.34,-14.29 m 4.65,1.64 c -2.69,1.94 -2.54,5.68 -2.61,8.65 0.18,3.1 -0.1,6.9 2.54,9.1 2.32,1.58 5.6,0.12 6.27,-2.52 1.03,-4.1 1,-8.5 0.04,-12.6 -0.59,-2.64 -3.93,-4.1 -6.24,-2.63 z"
       id="path65"
       inkscape:connector-curvature="0"
       style="opacity:1;fill:#000000" />
    <path
       d="m 476.92,120.88 c 3.53,-3.88 12.22,-4.1 13.2,2.13 0.86,7.12 0.16,14.34 0.37,21.5 -1.5,-0.01 -3,-0.01 -4.49,-0.01 -0.08,-6.52 0.15,-13.04 -0.1,-19.55 -0.71,-4.5 -7.81,-4 -8.67,0.21 -1.02,6.34 -0.27,12.84 -0.43,19.25 -1.44,0.07 -2.86,0.11 -4.29,0.13 -0.08,-8.6 0.17,-17.2 -0.31,-25.79 1.09,0 3.28,0 4.38,0 0.08,0.53 0.25,1.6 0.34,2.13 z"
       id="path67"
       inkscape:connector-curvature="0"
       style="opacity:1;fill:#000000" />
    <path
       d="m 501.19,119.14 c 3.63,-1.41 8.33,-1.56 11.55,0.92 3.23,3.43 2.66,8.59 2.78,12.94 -4.82,0.02 -9.64,-0.07 -14.45,0.08 0.4,3.12 0.53,8.34 4.9,8.23 2.88,0.26 4.19,-2.52 4.81,-4.82 1.55,0.01 3.12,0.02 4.68,0.04 -0.43,2.01 -0.47,4.31 -2.04,5.84 -2.93,3.05 -7.85,3.09 -11.63,1.86 -4.44,-1.65 -5.07,-7.14 -5.07,-11.23 -0.01,-4.78 -0.47,-11.22 4.47,-13.86 m 2,3.25 c -1.62,1.99 -1.7,4.67 -2.06,7.09 3.25,0.02 6.5,0 9.75,0.09 -0.27,-2.34 0.07,-5.06 -1.61,-6.95 -1.72,-1.43 -4.25,-1.5 -6.08,-0.23 z"
       id="path69"
       inkscape:connector-curvature="0"
       style="opacity:1;fill:#000000" />
    <path
       d="m 556.36,118.51 c 3.79,-0.65 8.75,-0.66 11.12,2.96 2.19,3.75 1.97,8.35 1.89,12.54 -0.22,3.8 -1.02,8.75 -5.12,10.22 -3.44,1.12 -7.59,1.18 -10.71,-0.81 -4.11,-3.53 -3.55,-9.53 -3.54,-14.42 -0.06,-4.23 1.52,-9.7 6.36,-10.49 m 0.95,3.8 c -2.37,1.25 -2.67,4.28 -2.81,6.67 -0.02,3.41 -0.18,7.06 1.29,10.22 1.69,3.35 7.54,2.58 8.25,-1.17 1.06,-4.04 0.97,-8.41 0.29,-12.51 -0.43,-3.24 -4.3,-4.72 -7.02,-3.21 z"
       id="path71"
       inkscape:connector-curvature="0"
       style="opacity:1;fill:#000000" />
    <path
       d="m 580.64,120.89 c 3.07,-3.58 9.19,-3.71 12.28,-0.08 3.35,-4.47 12.95,-3.44 12.94,3.03 0.35,6.88 0.03,13.77 0.14,20.66 -1.5,0 -3,0.01 -4.49,0.01 -0.11,-6.47 0.14,-12.95 -0.1,-19.42 -0.04,-3.58 -5.48,-4.57 -7.22,-1.77 -1.1,2.04 -0.94,4.42 -0.96,6.66 0.04,4.81 0,9.63 0.04,14.44 -1.4,0.05 -2.8,0.11 -4.19,0.18 -0.32,-6.6 0.27,-13.23 -0.32,-19.81 -0.57,-4.16 -7.06,-3.76 -7.75,0.14 -0.67,6.53 0.04,13.14 -0.37,19.7 -1.48,-0.1 -2.96,-0.17 -4.43,-0.22 0.05,-8.56 0.08,-17.13 -0.02,-25.7 1.53,0.02 3.06,0.04 4.6,0.06 -0.04,0.53 -0.11,1.59 -0.15,2.12 z"
       id="path73"
       inkscape:connector-curvature="0"
       style="opacity:1;fill:#000000" />
    <path
       d="m 618.54,118.66 c 3.66,-0.81 8.1,-0.9 11.05,1.8 3.14,3.73 2.67,8.98 2.65,13.54 -0.16,3.78 -1.04,8.56 -4.97,10.2 -3.82,1.19 -8.73,1.36 -11.78,-1.62 -3.1,-4.09 -2.83,-9.65 -2.56,-14.52 0.14,-3.75 1.6,-8.23 5.61,-9.4 m 1.75,3.53 c -3.65,2.27 -2.68,7.23 -2.8,10.87 0.05,3.1 0.41,8.01 4.49,8.19 2.62,0.59 4.84,-1.56 5.19,-4.04 0.72,-4 1.03,-8.26 -0.11,-12.21 -0.68,-2.9 -4.26,-3.95 -6.77,-2.81 z"
       id="path75"
       inkscape:connector-curvature="0"
       style="opacity:1;fill:#000000" />
    <path
       d="m 643.62,121.85 c 1.68,-2.89 4.85,-4.01 8.09,-3.71 0.03,1.49 0.06,2.97 0.11,4.45 -2.96,-0.5 -6.86,0.09 -7.59,3.57 -1.03,6 -0.26,12.18 -0.43,18.26 -1.44,0.05 -2.87,0.09 -4.29,0.12 0,-8.61 -0.06,-17.21 0.03,-25.82 1.06,0.01 3.19,0.04 4.25,0.05 -0.04,0.77 -0.13,2.31 -0.17,3.08 z"
       id="path77"
       inkscape:connector-curvature="0"
       style="opacity:1;fill:#000000" />
    <path
       d="m 661.95,121.67 c 1.62,-2.81 4.67,-3.72 7.75,-3.55 0.03,1.49 0.07,2.98 0.13,4.46 -3.24,-0.67 -7.18,0.61 -7.69,4.28 -0.36,5.87 -0.03,11.76 -0.14,17.64 -1.51,0 -3,0 -4.49,0.01 0,-8.6 -0.07,-17.2 0.04,-25.79 1.48,0.01 2.97,0.03 4.47,0.05 -0.02,0.72 -0.05,2.17 -0.07,2.9 z"
       id="path79"
       inkscape:connector-curvature="0"
       style="opacity:1;fill:#000000" />
    <path
       d="m 680.44,118.64 c 3.83,-0.79 8.75,-0.92 11.46,2.44 2.56,3.75 2.08,8.57 2.1,12.89 -0.07,3.96 -1.14,9.05 -5.45,10.42 -4.04,1.06 -9.62,1.08 -12.08,-2.92 -2.32,-4.36 -1.95,-9.57 -1.65,-14.34 0.13,-3.55 1.9,-7.51 5.62,-8.49 m 1.72,3.52 c -2.19,0.96 -2.68,3.63 -2.87,5.75 -0.08,3.61 -0.38,7.4 0.95,10.85 1.34,3.44 7.11,3.42 8.3,-0.15 1.26,-4.36 1.37,-9.15 0.33,-13.57 -0.71,-2.83 -4.2,-4.02 -6.71,-2.88 z"
       id="path81"
       inkscape:connector-curvature="0"
       style="opacity:1;fill:#000000" />
    <path
       d="m 308.63,118.75 c 1.69,0 3.38,0.01 5.07,0.03 1.94,6.76 3.87,13.53 5.95,20.26 2.01,-6.77 3.9,-13.57 5.97,-20.32 1.58,0.02 3.16,0.03 4.74,0.05 -3.83,11.74 -7.7,23.47 -11.46,35.23 -1.54,0 -3.09,0 -4.62,0 0.87,-3.3 2.21,-6.49 2.71,-9.88 -2.59,-8.51 -5.63,-16.9 -8.36,-25.37 z"
       id="path83"
       inkscape:connector-curvature="0"
       style="opacity:1;fill:#000000" />
    <path
       d="m 460.22,118.83 c 1.4,-0.06 2.81,-0.11 4.23,-0.15 0.1,8.62 0.04,17.24 0.04,25.86 -1.44,-0.03 -2.86,-0.07 -4.28,-0.12 0.07,-8.53 0.05,-17.06 0.01,-25.59 z"
       id="path85"
       inkscape:connector-curvature="0"
       style="opacity:1;fill:#000000" />
    <path
       d="m 698.25,118.74 c 1.62,0.01 3.24,0.01 4.87,0.02 1.53,7.14 2.96,14.31 4.46,21.46 1.91,-7.14 3.66,-14.33 5.53,-21.49 2.03,0.01 4.06,0.02 6.1,0.03 1.73,7.12 3.14,14.32 5.17,21.36 1.45,-7.16 3.18,-14.26 4.77,-21.38 1.54,0 3.09,0.01 4.65,0.01 -2.24,8.59 -4.54,17.16 -6.79,25.74 -1.93,0.01 -3.84,0 -5.75,-0.02 -1.79,-6.92 -3.16,-13.97 -5.4,-20.76 -2.01,6.88 -3.67,13.86 -5.52,20.79 -1.92,0 -3.83,0 -5.73,0.01 -2.06,-8.61 -4.22,-17.19 -6.36,-25.77 z"
       id="path87"
       inkscape:connector-curvature="0"
       style="opacity:1;fill:#000000" />
    <path
       d="m 333.5,139 c 1.66,0 3.33,0 5,0 0,1.83 0,3.66 0,5.5 -1.67,0 -3.34,0 -5,0 -0.01,-1.83 -0.01,-3.67 0,-5.5 z"
       id="path89"
       inkscape:connector-curvature="0"
       style="opacity:1;fill:#000000" />
    <path
       d="m 735.75,139 c 1.57,0 3.16,0 4.75,0 -0.01,1.83 -0.01,3.66 0,5.5 -1.59,0 -3.18,0 -4.75,0 -0.01,-1.83 -0.01,-3.67 0,-5.5 z"
       id="path91"
       inkscape:connector-curvature="0"
       style="opacity:1;fill:#000000" />
  </g>
</svg>
