<?xml version="1.0" encoding="UTF-8" ?>
<!DOCTYPE svg PUBLIC "-//W3C//DTD SVG 1.1//EN" "http://www.w3.org/Graphics/SVG/1.1/DTD/svg11.dtd">
<svg width="780pt" height="162pt" viewBox="0 0 780 162" version="1.1" xmlns="http://www.w3.org/2000/svg">
<g id="#ffffffff">
</g>
<g id="#000000ff">
<path fill="#000000" opacity="1.00" d=" M 44.14 14.07 C 48.48 8.93 55.53 7.34 61.98 7.25 C 72.03 7.25 82.08 7.22 92.13 7.26 C 93.75 7.02 95.50 8.15 95.19 9.96 C 94.92 13.62 94.56 17.29 93.74 20.87 C 93.32 23.02 90.78 23.20 89.01 23.24 C 79.66 23.30 70.30 23.20 60.95 23.26 C 59.42 23.13 57.68 23.82 57.33 25.47 C 56.59 28.52 56.40 31.67 55.96 34.77 C 65.31 34.71 74.65 34.78 83.99 34.73 C 85.97 34.75 88.03 34.61 89.92 35.35 C 91.43 38.02 90.05 41.18 89.97 44.03 C 89.53 46.38 89.78 49.96 86.81 50.66 C 75.83 50.90 64.82 50.65 53.83 50.78 C 53.16 55.19 52.75 59.64 51.98 64.04 C 51.84 66.48 49.03 67.16 47.02 67.01 C 43.03 66.86 38.87 67.57 35.02 66.19 C 35.48 54.68 37.83 43.33 39.10 31.89 C 40.07 25.83 39.96 19.03 44.14 14.07 Z" />
<path fill="#000000" opacity="1.00" d=" M 108.38 7.40 C 112.79 7.14 117.24 7.11 121.65 7.41 C 123.72 7.81 123.27 10.34 123.17 11.87 C 120.98 28.88 118.66 45.87 116.40 62.87 C 116.22 64.68 115.29 66.91 113.13 66.88 C 109.09 67.07 105.01 67.19 100.98 66.78 C 99.23 66.53 98.75 64.39 99.19 62.92 C 101.37 45.92 103.73 28.94 105.94 11.94 C 106.14 10.22 106.44 8.02 108.38 7.40 Z" />
<path fill="#000000" opacity="1.00" d=" M 135.80 11.07 C 135.84 9.29 137.03 7.23 139.03 7.29 C 150.68 7.18 162.34 7.28 173.99 7.25 C 179.89 7.34 186.45 8.66 190.30 13.54 C 193.84 17.79 193.88 23.69 193.24 28.91 C 191.69 40.33 190.20 51.75 188.65 63.17 C 188.55 65.05 187.16 67.03 185.10 66.92 C 181.06 67.00 176.96 67.29 172.96 66.70 C 171.25 66.42 171.35 64.31 171.50 63.02 C 172.89 50.98 174.83 39.00 176.16 26.95 C 176.67 24.96 174.99 23.07 172.98 23.27 C 165.78 23.18 158.57 23.32 151.37 23.22 C 149.58 36.48 147.87 49.75 146.08 63.01 C 146.14 65.15 144.45 67.17 142.20 66.96 C 137.78 66.84 133.17 67.66 128.90 66.17 C 128.81 64.24 128.90 62.30 129.18 60.39 C 131.43 43.96 133.53 27.50 135.80 11.07 Z" />
<path fill="#000000" opacity="1.00" d=" M 208.10 10.92 C 208.11 8.89 209.74 6.92 211.90 7.26 C 223.62 7.24 235.34 7.23 247.05 7.26 C 252.89 7.46 259.40 9.01 262.97 14.05 C 266.23 18.37 266.15 24.08 265.49 29.19 C 264.05 40.16 262.55 51.11 261.13 62.08 C 260.87 63.84 260.62 66.33 258.46 66.72 C 254.66 67.30 250.76 66.95 246.92 66.97 C 245.33 67.14 243.27 65.93 243.74 64.08 C 244.99 51.68 247.14 39.36 248.45 26.96 C 248.84 25.30 247.79 23.31 245.96 23.31 C 238.52 23.15 231.07 23.29 223.63 23.26 C 221.89 36.57 220.14 49.88 218.37 63.18 C 218.26 64.97 217.04 66.94 215.04 66.89 C 211.02 67.06 206.95 67.20 202.94 66.78 C 201.26 66.50 200.79 64.48 201.17 63.05 C 203.43 45.67 205.78 28.30 208.10 10.92 Z" />
<path fill="#000000" opacity="1.00" d=" M 282.37 7.52 C 286.79 6.96 291.33 7.26 295.79 7.33 C 298.27 7.96 297.42 11.01 297.37 12.87 C 295.13 29.63 292.91 46.39 290.66 63.15 C 290.61 65.04 289.19 66.98 287.16 66.91 C 283.12 67.01 279.02 67.27 275.00 66.71 C 272.92 66.25 273.38 63.67 273.58 62.09 C 275.79 45.33 278.03 28.57 280.25 11.81 C 280.49 10.25 280.70 8.22 282.37 7.52 Z" />
<path fill="#000000" opacity="1.00" d=" M 309.95 11.97 C 310.12 10.10 310.68 7.36 313.05 7.31 C 325.04 7.17 337.05 7.26 349.04 7.27 C 355.36 7.39 362.51 9.37 365.80 15.26 C 369.87 22.32 367.02 30.63 366.34 38.17 C 364.84 47.49 364.38 57.01 362.16 66.20 C 358.90 67.39 355.39 66.94 352.00 67.02 C 350.30 66.91 348.45 67.31 346.90 66.43 C 345.14 65.72 345.88 63.46 345.92 62.04 C 347.38 51.00 348.91 39.96 350.32 28.90 C 350.53 26.99 351.00 24.20 348.65 23.41 C 341.02 23.02 333.35 23.38 325.71 23.24 C 323.87 36.51 322.21 49.81 320.40 63.08 C 320.27 64.86 319.15 66.88 317.15 66.88 C 313.09 67.06 308.98 67.20 304.94 66.77 C 303.22 66.49 302.76 64.41 303.19 62.95 C 305.40 45.95 307.73 28.97 309.95 11.97 Z" />
<path fill="#000000" opacity="1.00" d=" M 387.04 10.98 C 392.59 7.21 399.56 7.18 406.01 7.00 C 415.68 7.01 425.35 6.97 435.02 7.02 C 436.52 7.13 438.68 7.01 439.23 8.82 C 439.34 12.59 438.70 16.35 438.06 20.06 C 437.89 21.54 436.71 23.05 435.10 22.95 C 423.69 23.13 412.27 22.86 400.86 23.06 C 399.01 23.01 396.85 23.98 396.69 26.05 C 395.68 33.02 394.67 40.01 393.96 47.02 C 393.37 48.96 394.84 51.10 396.94 50.95 C 403.61 51.10 410.30 50.94 416.98 51.00 C 417.26 48.84 417.53 46.67 417.80 44.50 C 413.89 44.21 409.75 45.22 406.02 43.77 C 404.46 41.95 405.56 39.30 405.62 37.15 C 406.13 34.83 405.78 30.90 409.01 30.59 C 417.32 30.40 425.65 30.48 433.96 30.55 C 435.88 30.31 436.96 32.33 436.48 33.99 C 435.31 43.96 433.94 53.92 432.53 63.87 C 432.40 66.13 430.12 67.20 428.08 66.98 C 417.74 67.03 407.39 66.98 397.04 67.00 C 391.51 66.90 385.48 66.32 381.07 62.61 C 376.90 59.07 375.69 53.18 376.48 47.97 C 377.51 39.81 378.61 31.67 379.74 23.52 C 380.38 18.60 382.74 13.70 387.04 10.98 Z" />
<path fill="#000000" opacity="1.00" d=" M 480.25 7.37 C 486.86 7.16 493.50 7.12 500.10 7.43 C 506.25 7.68 512.71 10.95 515.02 16.94 C 517.94 24.58 515.69 32.78 514.80 40.59 C 513.70 48.82 511.41 58.02 504.05 62.90 C 495.84 68.68 485.35 66.60 475.97 67.02 C 473.30 67.31 469.06 66.78 469.76 63.08 C 471.90 46.07 474.43 29.09 476.70 12.09 C 476.77 9.94 477.74 7.46 480.25 7.37 M 486.01 15.00 C 485.62 15.34 484.84 16.00 484.45 16.33 C 482.52 30.61 480.34 44.86 478.65 59.17 C 485.60 58.87 493.44 60.78 499.53 56.45 C 504.24 53.18 505.34 47.10 506.27 41.83 C 507.10 35.54 508.57 29.19 507.81 22.81 C 507.21 18.88 503.74 15.99 499.94 15.34 C 495.34 14.62 490.65 15.15 486.01 15.00 Z" />
<path fill="#000000" opacity="1.00" d=" M 529.98 9.99 C 530.94 6.60 535.13 6.87 537.61 8.34 C 537.92 10.23 538.00 12.16 537.67 14.06 C 535.28 30.71 533.13 47.39 530.69 64.02 C 530.03 67.63 525.50 67.40 522.97 65.97 C 522.72 64.34 522.50 62.70 522.82 61.07 C 525.27 44.05 527.41 26.98 529.98 9.99 Z" />
<path fill="#000000" opacity="1.00" d=" M 549.46 19.09 C 553.66 11.52 562.26 6.53 570.96 6.96 C 577.21 6.71 583.70 9.72 586.77 15.32 C 588.28 18.19 589.88 21.80 588.11 24.92 C 586.94 26.43 584.71 26.42 583.00 26.17 C 580.12 24.98 580.77 21.14 579.01 18.99 C 574.80 12.82 565.25 13.44 560.18 18.21 C 556.09 21.54 555.18 27.01 554.40 31.91 C 553.55 37.91 552.40 43.92 552.50 50.00 C 552.36 54.33 555.66 58.24 559.77 59.31 C 565.79 60.98 572.54 58.07 575.84 52.85 C 577.95 49.73 578.35 45.88 578.81 42.25 C 574.42 41.99 569.79 43.02 565.62 41.26 C 565.09 38.90 564.91 35.46 567.98 34.84 C 573.67 34.67 579.38 34.66 585.06 34.86 C 587.09 35.00 587.80 37.31 587.55 39.03 C 586.74 45.54 586.15 52.60 581.87 57.91 C 575.39 66.25 563.09 70.07 553.36 65.42 C 549.17 63.31 545.55 59.56 544.54 54.88 C 543.28 49.25 544.58 43.50 545.21 37.88 C 546.23 31.55 546.60 24.93 549.46 19.09 Z" />
<path fill="#000000" opacity="1.00" d=" M 603.41 8.41 C 605.16 6.50 607.94 7.44 610.05 8.12 C 610.45 10.02 610.61 11.98 610.23 13.91 C 607.80 30.67 605.72 47.48 603.17 64.22 C 602.34 67.78 597.89 67.39 595.44 65.80 C 594.85 62.48 595.68 59.17 596.10 55.88 C 598.12 41.22 600.17 26.55 602.16 11.88 C 602.40 10.69 602.36 9.25 603.41 8.41 Z" />
<path fill="#000000" opacity="1.00" d=" M 620.26 8.30 C 622.18 6.84 624.74 7.35 626.98 7.23 C 637.24 7.37 647.51 7.04 657.75 7.39 C 661.60 7.71 661.58 13.88 658.07 14.84 C 653.72 15.22 649.34 14.91 644.98 14.99 C 644.58 15.32 643.78 15.98 643.39 16.31 C 641.05 32.19 639.05 48.11 636.72 63.98 C 636.08 67.63 631.56 67.43 629.02 65.99 C 628.75 64.70 628.65 63.40 628.73 62.10 C 630.77 46.43 633.21 30.81 635.07 15.12 C 630.66 14.82 626.24 15.22 621.85 14.87 C 618.75 14.55 618.39 10.19 620.26 8.30 Z" />
<path fill="#000000" opacity="1.00" d=" M 676.86 9.93 C 678.09 6.39 684.68 5.99 685.48 9.96 C 689.38 27.01 693.27 44.06 697.17 61.11 C 697.66 62.75 696.96 64.40 696.77 66.03 C 694.77 66.83 692.47 67.56 690.42 66.53 C 689.33 65.63 689.14 64.14 688.83 62.86 C 686.43 51.28 683.93 39.72 681.51 28.14 C 681.04 25.78 680.61 23.37 679.64 21.15 C 673.11 34.16 666.73 47.25 660.29 60.30 C 658.86 63.00 657.91 67.40 653.98 67.03 C 651.07 67.65 648.84 64.33 650.57 61.90 C 659.32 44.57 668.08 27.25 676.86 9.93 Z" />
<path fill="#000000" opacity="1.00" d=" M 713.46 10.03 C 714.34 6.64 718.44 6.97 720.99 8.12 C 721.26 9.69 721.61 11.29 721.30 12.88 C 719.21 28.29 716.94 43.68 715.00 59.10 C 724.33 59.85 733.85 58.27 743.07 59.97 C 744.30 62.61 743.71 66.90 740.09 66.92 C 729.69 67.03 719.27 67.12 708.87 66.87 C 706.39 66.66 705.69 64.00 706.22 61.93 C 708.67 44.63 710.88 27.30 713.46 10.03 Z" />
<path fill="#000000" opacity="1.00" d=" M 436.74 64.56 C 434.51 61.06 437.76 56.07 441.83 56.70 C 445.73 56.68 446.88 61.05 447.22 64.15 C 446.56 63.86 445.92 63.57 445.27 63.29 C 446.63 59.34 442.15 56.96 438.87 58.37 C 440.62 58.68 442.34 59.11 444.04 59.65 C 443.33 61.42 443.00 63.32 442.20 65.05 L 441.43 61.63 C 440.84 63.26 440.05 64.77 439.07 66.19 C 441.75 66.23 444.23 65.31 446.66 64.29 C 444.52 67.74 438.69 68.55 436.74 64.56 M 438.76 64.62 C 439.02 62.94 439.06 61.05 438.74 59.38 C 436.89 60.00 436.99 63.99 438.76 64.62 M 440.39 60.17 C 440.40 63.47 443.38 58.65 440.39 60.17 Z" />
<path fill="#000000" opacity="1.00" d=" M 41.39 107.65 C 45.41 106.65 50.30 106.31 53.72 109.05 C 56.21 111.31 56.19 114.89 56.34 117.99 C 54.69 118.00 53.04 118.00 51.39 118.00 C 50.98 116.09 51.37 113.66 49.69 112.29 C 46.72 110.08 41.43 111.17 40.44 115.03 C 39.48 119.27 39.81 123.67 39.74 127.99 C 39.76 131.35 39.66 134.85 40.88 138.03 C 42.22 141.42 47.06 141.95 49.64 139.75 C 51.33 138.13 51.47 135.64 51.97 133.50 C 53.61 133.50 55.25 133.50 56.89 133.52 C 56.60 136.76 56.35 140.44 53.81 142.81 C 50.49 145.70 45.63 145.62 41.58 144.66 C 37.08 143.39 35.28 138.34 35.05 134.11 C 34.93 128.73 35.01 123.35 35.01 117.97 C 35.02 113.77 37.02 108.89 41.39 107.65 Z" />
<path fill="#000000" opacity="1.00" d=" M 274.25 107.77 C 275.30 107.75 277.41 107.73 278.46 107.72 C 278.55 119.98 278.49 132.25 278.49 144.51 C 277.43 144.51 275.29 144.49 274.22 144.49 C 274.24 143.87 274.28 142.64 274.30 142.02 C 272.20 144.23 269.15 145.71 266.07 144.71 C 262.12 143.97 260.64 139.65 260.33 136.13 C 259.91 131.46 259.68 126.48 261.45 122.04 C 263.72 117.23 271.08 116.89 274.30 120.92 C 274.21 116.54 274.26 112.15 274.25 107.77 M 267.30 122.32 C 265.01 123.58 264.90 126.63 264.75 128.94 C 264.84 132.30 264.23 135.92 265.74 139.05 C 267.14 142.14 272.54 142.03 273.35 138.51 C 274.43 134.09 274.63 129.31 273.45 124.88 C 272.84 122.27 269.57 120.86 267.30 122.32 Z" />
<path fill="#000000" opacity="1.00" d=" M 359.00 107.75 C 360.66 107.75 362.33 107.75 364.00 107.75 C 364.00 120.00 364.00 132.25 364.00 144.50 C 362.33 144.50 360.66 144.50 359.00 144.50 C 359.00 132.25 359.00 120.00 359.00 107.75 Z" />
<path fill="#000000" opacity="1.00" d=" M 460.00 107.75 C 461.58 107.75 463.16 107.75 464.74 107.74 C 464.74 109.33 464.74 110.91 464.76 112.50 C 463.17 112.50 461.58 112.50 460.00 112.50 C 459.99 110.92 460.00 109.33 460.00 107.75 Z" />
<path fill="#000000" opacity="1.00" d=" M 193.00 113.75 C 194.41 113.09 195.82 112.45 197.24 111.80 C 197.25 114.12 197.25 116.43 197.25 118.75 C 199.08 118.75 200.90 118.74 202.73 118.75 C 202.74 119.56 202.76 121.18 202.77 121.99 C 200.92 122.00 199.08 122.01 197.24 122.02 C 197.35 127.63 197.08 133.25 197.34 138.86 C 197.80 141.52 201.02 140.88 202.97 141.19 C 202.84 142.23 202.69 143.26 202.50 144.29 C 199.41 144.95 194.52 145.50 193.15 141.85 C 192.78 135.25 193.11 128.62 193.00 122.00 C 191.58 122.00 190.16 122.00 188.75 122.00 C 188.75 121.18 188.75 119.55 188.75 118.73 C 190.15 118.75 191.55 118.77 192.95 118.80 C 192.98 117.11 192.99 115.43 193.00 113.75 Z" />
<path fill="#000000" opacity="1.00" d=" M 219.99 113.74 C 221.41 113.09 222.82 112.45 224.24 111.81 C 224.25 114.12 224.25 116.44 224.26 118.75 C 226.08 118.75 227.91 118.75 229.74 118.75 C 229.75 119.56 229.76 121.18 229.76 121.99 C 227.91 122.00 226.08 122.01 224.24 122.02 C 224.35 127.63 224.09 133.26 224.34 138.86 C 224.81 141.51 228.01 140.89 229.97 141.19 C 229.84 142.22 229.69 143.26 229.50 144.29 C 226.42 144.95 221.59 145.50 220.15 141.90 C 219.78 135.28 220.11 128.63 220.00 122.00 C 218.58 122.00 217.16 122.00 215.75 122.00 C 215.75 121.18 215.75 119.55 215.75 118.74 C 217.16 118.75 218.57 118.76 219.98 118.77 C 219.99 117.09 219.99 115.41 219.99 113.74 Z" />
<path fill="#000000" opacity="1.00" d=" M 535.49 113.83 C 536.98 113.15 538.47 112.46 539.99 111.80 C 539.99 114.12 540.00 116.44 540.02 118.77 C 541.84 118.75 543.66 118.75 545.50 118.74 C 545.50 119.56 545.50 121.19 545.50 122.00 C 543.66 122.00 541.83 122.00 540.00 122.00 C 540.08 127.68 539.83 133.38 540.10 139.06 C 540.63 141.50 543.69 140.89 545.52 141.09 C 545.51 141.90 545.49 143.52 545.48 144.33 C 542.78 144.57 539.77 145.33 537.31 143.81 C 535.65 142.86 535.50 140.75 535.48 139.06 C 535.48 133.37 535.51 127.69 535.50 122.00 C 534.50 122.00 532.50 122.00 531.50 122.00 C 531.50 121.19 531.50 119.57 531.50 118.76 C 532.83 118.75 534.17 118.73 535.52 118.72 C 535.50 117.09 535.49 115.46 535.49 113.83 Z" />
<path fill="#000000" opacity="1.00" d=" M 69.50 118.60 C 73.72 117.62 79.46 117.95 81.57 122.43 C 83.36 127.08 83.21 132.28 82.54 137.16 C 82.12 140.33 80.33 143.77 76.96 144.52 C 73.06 145.35 67.82 145.40 65.43 141.60 C 63.07 137.55 63.42 132.63 63.56 128.12 C 63.71 124.27 65.22 119.54 69.50 118.60 M 71.17 122.15 C 68.51 123.19 68.24 126.50 68.02 128.94 C 67.97 132.24 67.88 135.71 69.12 138.83 C 70.39 142.29 76.32 142.10 77.37 138.59 C 78.72 134.56 78.37 130.14 77.98 125.97 C 77.68 122.76 74.08 120.76 71.17 122.15 Z" />
<path fill="#000000" opacity="1.00" d=" M 94.18 121.72 C 96.40 118.06 101.29 117.29 105.00 118.94 C 107.58 120.20 107.96 123.40 108.00 125.94 C 107.99 132.16 108.06 138.38 107.93 144.59 C 106.53 144.53 105.12 144.47 103.72 144.42 C 103.74 138.61 103.80 132.80 103.73 127.00 C 103.69 125.05 103.18 122.43 100.91 122.02 C 98.03 120.89 94.82 123.13 94.60 126.15 C 93.83 132.19 94.43 138.33 94.28 144.42 C 92.88 144.47 91.48 144.53 90.08 144.60 C 89.77 135.99 90.34 127.35 89.73 118.75 C 91.24 118.75 92.75 118.75 94.27 118.75 C 94.25 119.49 94.20 120.98 94.18 121.72 Z" />
<path fill="#000000" opacity="1.00" d=" M 120.15 121.25 C 123.43 116.73 132.86 116.79 133.62 123.27 C 133.96 130.32 133.62 137.40 133.78 144.46 C 132.35 144.47 130.93 144.50 129.51 144.54 C 129.39 138.04 129.69 131.54 129.38 125.05 C 129.01 122.23 125.51 120.98 123.14 122.17 C 120.93 123.12 120.28 125.75 120.27 127.94 C 120.21 133.44 120.26 138.95 120.28 144.45 C 118.76 144.48 117.25 144.49 115.73 144.48 C 115.68 135.90 115.93 127.31 115.59 118.74 C 117.15 118.75 118.71 118.75 120.27 118.75 C 120.24 119.38 120.18 120.62 120.15 121.25 Z" />
<path fill="#000000" opacity="1.00" d=" M 141.56 125.10 C 142.02 121.74 144.66 118.80 148.07 118.35 C 151.48 118.01 155.84 117.87 158.01 121.06 C 160.18 124.63 159.86 128.99 160.05 133.00 C 155.24 133.01 150.44 132.98 145.63 133.02 C 145.79 136.10 145.93 141.03 150.04 141.26 C 153.04 141.82 154.62 138.91 155.24 136.49 C 156.81 136.50 158.39 136.52 159.97 136.54 C 159.59 139.60 158.46 143.03 155.26 144.15 C 150.98 145.71 144.53 145.44 142.45 140.65 C 140.54 135.73 140.75 130.23 141.56 125.10 M 148.20 121.97 C 145.88 123.72 145.98 126.89 145.59 129.48 C 148.86 129.51 152.12 129.50 155.39 129.48 C 155.07 127.11 155.28 124.35 153.52 122.47 C 152.07 121.25 149.89 121.30 148.20 121.97 Z" />
<path fill="#000000" opacity="1.00" d=" M 171.00 118.88 C 174.22 117.88 178.18 117.66 181.01 119.78 C 183.23 121.45 183.39 124.44 183.65 126.97 C 182.17 126.99 180.70 127.00 179.22 127.00 C 178.76 125.05 178.52 122.10 176.00 121.78 C 173.41 121.33 171.16 123.57 170.83 126.01 C 170.23 129.95 170.28 134.06 171.19 137.96 C 171.72 140.36 174.65 142.23 176.91 140.81 C 178.86 139.85 178.67 137.37 179.73 135.80 C 180.78 135.78 182.88 135.74 183.93 135.72 C 183.50 137.84 183.48 140.29 181.93 141.96 C 179.00 145.59 173.24 145.83 169.52 143.39 C 165.56 140.20 166.00 134.54 165.97 129.98 C 165.93 125.89 166.66 120.61 171.00 118.88 Z" />
<path fill="#000000" opacity="1.00" d=" M 240.43 118.56 C 244.83 117.51 250.88 118.19 252.62 123.10 C 254.20 128.52 254.27 134.53 252.58 139.93 C 251.78 142.77 249.04 144.60 246.17 144.80 C 242.50 145.33 237.69 144.86 235.89 141.07 C 233.72 136.35 234.05 130.89 234.61 125.85 C 234.97 122.57 237.01 119.28 240.43 118.56 M 241.33 122.45 C 239.11 123.87 239.00 126.76 238.78 129.11 C 238.72 132.43 238.73 135.91 239.98 139.04 C 241.51 142.43 247.46 141.93 248.29 138.23 C 249.39 133.92 249.67 129.20 248.42 124.89 C 247.71 121.86 243.77 120.91 241.33 122.45 Z" />
<path fill="#000000" opacity="1.00" d=" M 290.03 119.08 C 293.13 117.83 296.85 117.83 299.95 119.07 C 302.62 120.17 303.54 123.31 303.50 125.97 C 303.67 132.15 303.10 138.37 303.96 144.51 C 302.37 144.51 300.77 144.50 299.18 144.49 C 299.24 143.69 299.37 142.09 299.44 141.29 C 297.22 144.74 292.59 146.09 288.95 144.10 C 285.28 141.65 285.22 136.20 286.65 132.46 C 289.18 128.13 294.84 128.47 299.17 128.16 C 299.02 125.72 299.19 122.00 295.94 121.60 C 293.14 120.79 290.97 123.37 290.95 125.99 C 289.40 125.99 287.86 126.00 286.32 126.01 C 286.67 123.39 287.26 120.18 290.03 119.08 M 291.43 133.41 C 288.58 136.03 290.74 142.47 295.06 141.17 C 299.12 140.07 299.04 135.05 299.25 131.69 C 296.63 131.90 293.48 131.39 291.43 133.41 Z" />
<path fill="#000000" opacity="1.00" d=" M 376.95 120.87 C 379.96 117.22 385.92 117.32 389.09 120.71 C 392.34 116.78 401.04 117.04 401.89 122.88 C 402.14 130.11 401.99 137.36 401.93 144.59 C 400.52 144.52 399.12 144.47 397.73 144.42 C 397.75 138.61 397.77 132.80 397.75 126.99 C 397.77 125.02 397.30 122.31 394.97 121.91 C 392.72 121.12 389.85 122.58 389.71 125.10 C 389.21 131.53 389.64 138.01 389.50 144.46 C 388.46 144.49 386.37 144.55 385.33 144.57 C 384.89 137.74 385.86 130.82 384.75 124.05 C 383.54 120.41 377.81 121.53 377.17 125.02 C 376.75 131.49 377.12 138.01 377.00 144.50 C 375.50 144.50 374.00 144.50 372.50 144.51 C 372.40 135.91 372.69 127.30 372.34 118.71 C 373.89 118.73 375.45 118.75 377.01 118.77 L 376.95 120.87 Z" />
<path fill="#000000" opacity="1.00" d=" M 413.87 118.83 C 418.19 117.54 425.01 117.55 426.45 122.91 C 427.34 130.06 426.09 137.35 427.29 144.50 C 425.66 144.49 424.04 144.49 422.42 144.50 C 422.49 143.68 422.63 142.04 422.70 141.22 C 420.19 146.32 411.19 146.36 409.64 140.56 C 409.03 137.41 408.59 133.49 411.07 130.99 C 414.14 128.06 418.74 128.51 422.64 128.15 C 422.41 125.63 422.39 121.73 419.00 121.55 C 416.22 120.91 414.37 123.39 414.36 125.91 C 412.76 125.97 411.15 126.00 409.57 126.03 C 410.00 123.22 410.73 119.76 413.87 118.83 M 414.12 134.22 C 412.04 137.37 414.98 142.75 418.99 141.03 C 422.52 139.37 422.31 134.97 422.61 131.68 C 419.76 131.94 415.81 131.29 414.12 134.22 Z" />
<path fill="#000000" opacity="1.00" d=" M 436.67 120.74 C 439.35 117.13 445.35 117.36 447.93 120.98 C 447.96 120.42 448.03 119.31 448.06 118.76 C 449.52 118.74 450.98 118.73 452.45 118.72 C 452.54 128.10 452.52 137.48 452.48 146.86 C 452.53 149.55 451.32 152.52 448.52 153.33 C 444.76 154.28 440.03 154.81 436.90 152.02 C 435.40 150.84 435.34 148.83 434.97 147.13 C 436.54 147.06 438.11 147.01 439.69 146.98 C 440.31 149.59 442.82 151.57 445.52 150.37 C 449.07 149.10 447.76 144.73 448.04 141.86 C 445.75 144.22 442.16 145.26 439.09 143.81 C 435.63 142.45 434.68 138.34 434.33 135.03 C 434.16 130.23 433.66 124.84 436.67 120.74 M 441.32 122.38 C 438.63 124.32 438.78 128.06 438.71 131.03 C 438.89 134.13 438.61 137.93 441.25 140.13 C 443.57 141.71 446.85 140.25 447.52 137.61 C 448.55 133.51 448.52 129.11 447.56 125.01 C 446.97 122.37 443.63 120.91 441.32 122.38 Z" />
<path fill="#000000" opacity="1.00" d=" M 476.92 120.88 C 480.45 117.00 489.14 116.78 490.12 123.01 C 490.98 130.13 490.28 137.35 490.49 144.51 C 488.99 144.50 487.49 144.50 486.00 144.50 C 485.92 137.98 486.15 131.46 485.90 124.95 C 485.19 120.45 478.09 120.95 477.23 125.16 C 476.21 131.50 476.96 138.00 476.80 144.41 C 475.36 144.48 473.94 144.52 472.51 144.54 C 472.43 135.94 472.68 127.34 472.20 118.75 C 473.29 118.75 475.48 118.75 476.58 118.75 C 476.66 119.28 476.83 120.35 476.92 120.88 Z" />
<path fill="#000000" opacity="1.00" d=" M 501.19 119.14 C 504.82 117.73 509.52 117.58 512.74 120.06 C 515.97 123.49 515.40 128.65 515.52 133.00 C 510.70 133.02 505.88 132.93 501.07 133.08 C 501.47 136.20 501.60 141.42 505.97 141.31 C 508.85 141.57 510.16 138.79 510.78 136.49 C 512.33 136.50 513.90 136.51 515.46 136.53 C 515.03 138.54 514.99 140.84 513.42 142.37 C 510.49 145.42 505.57 145.46 501.79 144.23 C 497.35 142.58 496.72 137.09 496.72 133.00 C 496.71 128.22 496.25 121.78 501.19 119.14 M 503.19 122.39 C 501.57 124.38 501.49 127.06 501.13 129.48 C 504.38 129.50 507.63 129.48 510.88 129.57 C 510.61 127.23 510.95 124.51 509.27 122.62 C 507.55 121.19 505.02 121.12 503.19 122.39 Z" />
<path fill="#000000" opacity="1.00" d=" M 556.36 118.51 C 560.15 117.86 565.11 117.85 567.48 121.47 C 569.67 125.22 569.45 129.82 569.37 134.01 C 569.15 137.81 568.35 142.76 564.25 144.23 C 560.81 145.35 556.66 145.41 553.54 143.42 C 549.43 139.89 549.99 133.89 550.00 129.00 C 549.94 124.77 551.52 119.30 556.36 118.51 M 557.31 122.31 C 554.94 123.56 554.64 126.59 554.50 128.98 C 554.48 132.39 554.32 136.04 555.79 139.20 C 557.48 142.55 563.33 141.78 564.04 138.03 C 565.10 133.99 565.01 129.62 564.33 125.52 C 563.90 122.28 560.03 120.80 557.31 122.31 Z" />
<path fill="#000000" opacity="1.00" d=" M 580.64 120.89 C 583.71 117.31 589.83 117.18 592.92 120.81 C 596.27 116.34 605.87 117.37 605.86 123.84 C 606.21 130.72 605.89 137.61 606.00 144.50 C 604.50 144.50 603.00 144.51 601.51 144.51 C 601.40 138.04 601.65 131.56 601.41 125.09 C 601.37 121.51 595.93 120.52 594.19 123.32 C 593.09 125.36 593.25 127.74 593.23 129.98 C 593.27 134.79 593.23 139.61 593.27 144.42 C 591.87 144.47 590.47 144.53 589.08 144.60 C 588.76 138.00 589.35 131.37 588.76 124.79 C 588.19 120.63 581.70 121.03 581.01 124.93 C 580.34 131.46 581.05 138.07 580.64 144.63 C 579.16 144.53 577.68 144.46 576.21 144.41 C 576.26 135.85 576.29 127.28 576.19 118.71 C 577.72 118.73 579.25 118.75 580.79 118.77 C 580.75 119.30 580.68 120.36 580.64 120.89 Z" />
<path fill="#000000" opacity="1.00" d=" M 618.54 118.66 C 622.20 117.85 626.64 117.76 629.59 120.46 C 632.73 124.19 632.26 129.44 632.24 134.00 C 632.08 137.78 631.20 142.56 627.27 144.20 C 623.45 145.39 618.54 145.56 615.49 142.58 C 612.39 138.49 612.66 132.93 612.93 128.06 C 613.07 124.31 614.53 119.83 618.54 118.66 M 620.29 122.19 C 616.64 124.46 617.61 129.42 617.49 133.06 C 617.54 136.16 617.90 141.07 621.98 141.25 C 624.60 141.84 626.82 139.69 627.17 137.21 C 627.89 133.21 628.20 128.95 627.06 125.00 C 626.38 122.10 622.80 121.05 620.29 122.19 Z" />
<path fill="#000000" opacity="1.00" d=" M 643.62 121.85 C 645.30 118.96 648.47 117.84 651.71 118.14 C 651.74 119.63 651.77 121.11 651.82 122.59 C 648.86 122.09 644.96 122.68 644.23 126.16 C 643.20 132.16 643.97 138.34 643.80 144.42 C 642.36 144.47 640.93 144.51 639.51 144.54 C 639.51 135.93 639.45 127.33 639.54 118.72 C 640.60 118.73 642.73 118.76 643.79 118.77 C 643.75 119.54 643.66 121.08 643.62 121.85 Z" />
<path fill="#000000" opacity="1.00" d=" M 661.95 121.67 C 663.57 118.86 666.62 117.95 669.70 118.12 C 669.73 119.61 669.77 121.10 669.83 122.58 C 666.59 121.91 662.65 123.19 662.14 126.86 C 661.78 132.73 662.11 138.62 662.00 144.50 C 660.49 144.50 659.00 144.50 657.51 144.51 C 657.51 135.91 657.44 127.31 657.55 118.72 C 659.03 118.73 660.52 118.75 662.02 118.77 C 662.00 119.49 661.97 120.94 661.95 121.67 Z" />
<path fill="#000000" opacity="1.00" d=" M 680.44 118.64 C 684.27 117.85 689.19 117.72 691.90 121.08 C 694.46 124.83 693.98 129.65 694.00 133.97 C 693.93 137.93 692.86 143.02 688.55 144.39 C 684.51 145.45 678.93 145.47 676.47 141.47 C 674.15 137.11 674.52 131.90 674.82 127.13 C 674.95 123.58 676.72 119.62 680.44 118.64 M 682.16 122.16 C 679.97 123.12 679.48 125.79 679.29 127.91 C 679.21 131.52 678.91 135.31 680.24 138.76 C 681.58 142.20 687.35 142.18 688.54 138.61 C 689.80 134.25 689.91 129.46 688.87 125.04 C 688.16 122.21 684.67 121.02 682.16 122.16 Z" />
<path fill="#000000" opacity="1.00" d=" M 308.63 118.75 C 310.32 118.75 312.01 118.76 313.70 118.78 C 315.64 125.54 317.57 132.31 319.65 139.04 C 321.66 132.27 323.55 125.47 325.62 118.72 C 327.20 118.74 328.78 118.75 330.36 118.77 C 326.53 130.51 322.66 142.24 318.90 154.00 C 317.36 154.00 315.81 154.00 314.28 154.00 C 315.15 150.70 316.49 147.51 316.99 144.12 C 314.40 135.61 311.36 127.22 308.63 118.75 Z" />
<path fill="#000000" opacity="1.00" d=" M 460.22 118.83 C 461.62 118.77 463.03 118.72 464.45 118.68 C 464.55 127.30 464.49 135.92 464.49 144.54 C 463.05 144.51 461.63 144.47 460.21 144.42 C 460.28 135.89 460.26 127.36 460.22 118.83 Z" />
<path fill="#000000" opacity="1.00" d=" M 698.25 118.74 C 699.87 118.75 701.49 118.75 703.12 118.76 C 704.65 125.90 706.08 133.07 707.58 140.22 C 709.49 133.08 711.24 125.89 713.11 118.73 C 715.14 118.74 717.17 118.75 719.21 118.76 C 720.94 125.88 722.35 133.08 724.38 140.12 C 725.83 132.96 727.56 125.86 729.15 118.74 C 730.69 118.74 732.24 118.75 733.80 118.75 C 731.56 127.34 729.26 135.91 727.01 144.49 C 725.08 144.50 723.17 144.49 721.26 144.47 C 719.47 137.55 718.10 130.50 715.86 123.71 C 713.85 130.59 712.19 137.57 710.34 144.50 C 708.42 144.50 706.51 144.50 704.61 144.51 C 702.55 135.90 700.39 127.32 698.25 118.74 Z" />
<path fill="#000000" opacity="1.00" d=" M 333.50 139.00 C 335.16 139.00 336.83 139.00 338.50 139.00 C 338.50 140.83 338.50 142.66 338.50 144.50 C 336.83 144.50 335.16 144.50 333.50 144.50 C 333.49 142.67 333.49 140.83 333.50 139.00 Z" />
<path fill="#000000" opacity="1.00" d=" M 735.75 139.00 C 737.32 139.00 738.91 139.00 740.50 139.00 C 740.49 140.83 740.49 142.66 740.50 144.50 C 738.91 144.50 737.32 144.50 735.75 144.50 C 735.74 142.67 735.74 140.83 735.75 139.00 Z" />
</g>
</svg>
