<?xml version="1.0" encoding="UTF-8" standalone="no"?>
<svg
   xmlns:dc="http://purl.org/dc/elements/1.1/"
   xmlns:cc="http://creativecommons.org/ns#"
   xmlns:rdf="http://www.w3.org/1999/02/22-rdf-syntax-ns#"
   xmlns:svg="http://www.w3.org/2000/svg"
   xmlns="http://www.w3.org/2000/svg"
   xmlns:sodipodi="http://sodipodi.sourceforge.net/DTD/sodipodi-0.dtd"
   xmlns:inkscape="http://www.inkscape.org/namespaces/inkscape"
   version="1.1"
   width="999.00098"
   height="327.552"
   id="svg2"
   sodipodi:docname="google-logo.svg"
   inkscape:version="0.92.2 5c3e80d, 2017-08-06">
  <metadata
     id="metadata13">
    <rdf:RDF>
      <cc:Work
         rdf:about="">
        <dc:format>image/svg+xml</dc:format>
        <dc:type
           rdf:resource="http://purl.org/dc/dcmitype/StillImage" />
      </cc:Work>
    </rdf:RDF>
  </metadata>
  <defs
     id="defs11" />
  <sodipodi:namedview
     pagecolor="#ffffff"
     bordercolor="#666666"
     borderopacity="1"
     objecttolerance="10"
     gridtolerance="10"
     guidetolerance="10"
     inkscape:pageopacity="0"
     inkscape:pageshadow="2"
     inkscape:window-width="1918"
     inkscape:window-height="2136"
     id="namedview9"
     showgrid="false"
     inkscape:zoom="0.361"
     inkscape:cx="507.81125"
     inkscape:cy="163.775"
     inkscape:window-x="3840"
     inkscape:window-y="22"
     inkscape:window-maximized="0"
     inkscape:current-layer="svg2" />
  <path
     style="fill:#4285f4;fill-opacity:1"
     d="m 245.611,115.677 h -116.57 v 34.591 h 82.673 c -4.0842,48.506 -44.44,69.192 -82.533,69.192 -48.736,0 -91.264,-38.346 -91.264,-92.092 0,-52.357 40.54,-92.679 91.371,-92.679 39.217,0 62.326,25 62.326,25 l 24.22,-25.081 C 215.834,34.608 184.747,1.2308227e-8 128.05,1.2308227e-8 55.853,-9.9998769e-4 0,60.933 0,126.75 c 0,64.493 52.539,127.38 129.89,127.38 68.031,0 117.83,-46.604 117.83,-115.52 0,-14.539 -2.1109,-22.942 -2.1109,-22.942 z"
     id="path2998"
     inkscape:connector-curvature="0" />
  <path
     style="fill:#ea4335;fill-opacity:1"
     d="m 341.101,90.626 c -47.832,0 -82.111,37.395 -82.111,81.008 0,44.258 33.249,82.348 82.673,82.348 44.742,0 81.397,-34.197 81.397,-81.397 0,-54.098 -42.638,-81.959 -81.959,-81.959 z m 0.47563,32.083 c 23.522,0 45.812,19.017 45.812,49.66 0,29.993 -22.195,49.552 -45.92,49.552 -26.068,0 -46.633,-20.878 -46.633,-49.79 0,-28.292 20.31,-49.422 46.741,-49.422 z"
     id="path3000"
     inkscape:connector-curvature="0" />
  <path
     style="fill:#fbbc05;fill-opacity:1"
     d="m 519.681,90.626 c -47.832,0 -82.111,37.395 -82.111,81.008 0,44.258 33.249,82.348 82.673,82.348 44.742,0 81.397,-34.197 81.397,-81.397 0,-54.098 -42.638,-81.959 -81.959,-81.959 z m 0.47562,32.083 c 23.522,0 45.812,19.017 45.812,49.66 0,29.993 -22.195,49.552 -45.92,49.552 -26.068,0 -46.633,-20.878 -46.633,-49.79 0,-28.292 20.31,-49.422 46.741,-49.422 z"
     id="path3005"
     inkscape:connector-curvature="0" />
  <path
     style="fill:#4285f4;fill-opacity:1"
     d="m 694.841,90.712 c -43.904,0 -78.414,38.453 -78.414,81.613 0,49.163 40.009,81.765 77.657,81.765 23.279,0 35.657,-9.2405 44.796,-19.847 v 16.106 c 0,28.18 -17.11,45.055 -42.936,45.055 -24.949,0 -37.463,-18.551 -41.812,-29.078 l -31.391,13.123 c 11.136,23.547 33.554,48.103 73.463,48.103 43.652,0 76.922,-27.495 76.922,-85.159 V 95.623 h -34.245 v 13.836 c -10.53,-11.347 -24.93,-18.745 -44.04,-18.745 z m 3.178,32.018 c 21.525,0 43.628,18.38 43.628,49.768 0,31.904 -22.056,49.487 -44.104,49.487 -23.406,0 -45.185,-19.005 -45.185,-49.184 0,-31.358 22.619,-50.071 45.66,-50.071 z"
     id="path3007"
     inkscape:connector-curvature="0" />
  <path
     style="fill:#ea4335;fill-opacity:1"
     d="m 925.391,90.517 c -41.414,0 -76.187,32.95 -76.187,81.57 0,51.447 38.759,81.959 80.165,81.959 34.558,0 55.768,-18.906 68.426,-35.845 L 969.56,199.414 c -7.3268,11.371 -19.576,22.484 -40.018,22.484 -22.962,0 -33.52,-12.574 -40.061,-24.754 l 109.52,-45.444 -5.6859,-13.318 c -10.58,-26.08 -35.26,-47.86 -67.92,-47.86 z m 1.4268,31.413 c 14.923,0 25.663,7.9342 30.224,17.447 l -73.139,30.57 c -3.1532,-23.667 19.269,-48.017 42.915,-48.017 z"
     id="path3011"
     inkscape:connector-curvature="0" />
  <path
     style="fill:#34a853;fill-opacity:1"
     d="m 796.991,249.197 h 35.975 V 8.447 h -35.975 z"
     id="path3015"
     inkscape:connector-curvature="0" />
</svg>
