<?xml version="1.0" encoding="UTF-8" standalone="no"?>
<svg
   xmlns:dc="http://purl.org/dc/elements/1.1/"
   xmlns:cc="http://creativecommons.org/ns#"
   xmlns:rdf="http://www.w3.org/1999/02/22-rdf-syntax-ns#"
   xmlns:svg="http://www.w3.org/2000/svg"
   xmlns="http://www.w3.org/2000/svg"
   xmlns:sodipodi="http://sodipodi.sourceforge.net/DTD/sodipodi-0.dtd"
   xmlns:inkscape="http://www.inkscape.org/namespaces/inkscape"
   id="Layer_1"
   data-name="Layer 1"
   viewBox="0 0 120.80068 130.89664"
   version="1.1"
   sodipodi:docname="jetbrains.svg"
   width="120.80067"
   height="130.89664"
   inkscape:version="0.92.2 5c3e80d, 2017-08-06">
  <metadata
     id="metadata63">
    <rdf:RDF>
      <cc:Work
         rdf:about="">
        <dc:format>image/svg+xml</dc:format>
        <dc:type
           rdf:resource="http://purl.org/dc/dcmitype/StillImage" />
      </cc:Work>
    </rdf:RDF>
  </metadata>
  <sodipodi:namedview
     pagecolor="#ffffff"
     bordercolor="#666666"
     borderopacity="1"
     objecttolerance="10"
     gridtolerance="10"
     guidetolerance="10"
     inkscape:pageopacity="0"
     inkscape:pageshadow="2"
     inkscape:window-width="1918"
     inkscape:window-height="2136"
     id="namedview61"
     showgrid="false"
     inkscape:zoom="1.8029323"
     inkscape:cx="62.064499"
     inkscape:cy="65.448622"
     inkscape:window-x="3840"
     inkscape:window-y="22"
     inkscape:window-maximized="0"
     inkscape:current-layer="Layer_1" />
  <defs
     id="defs22">
    <radialGradient
       id="radial-gradient"
       cx="113.6915"
       cy="68.825188"
       r="98.860489"
       gradientUnits="userSpaceOnUse">
      <stop
         offset="0.04518"
         stop-color="#f4793b"
         id="stop2" />
      <stop
         offset="1"
         stop-color="#fff33e"
         id="stop4" />
    </radialGradient>
    <radialGradient
       id="radial-gradient-2"
       cx="9.3632002"
       cy="41.049358"
       r="49.676701"
       gradientUnits="userSpaceOnUse">
      <stop
         offset="0.25818"
         stop-color="#ee3d85"
         id="stop7" />
      <stop
         offset="1"
         stop-color="#7b5aa6"
         id="stop9" />
    </radialGradient>
    <linearGradient
       id="linear-gradient"
       x1="11.42378"
       y1="37.79237"
       x2="39.915939"
       y2="13.74468"
       gradientUnits="userSpaceOnUse">
      <stop
         offset="0"
         stop-color="#ee3d85"
         id="stop12" />
      <stop
         offset="1"
         stop-color="#f05872"
         id="stop14" />
    </linearGradient>
    <radialGradient
       id="radial-gradient-3"
       cx="50.06826"
       cy="9.7160397"
       r="88.220108"
       gradientUnits="userSpaceOnUse">
      <stop
         offset="0.1343"
         stop-color="#f05872"
         id="stop17" />
      <stop
         offset="1"
         stop-color="#f4793b"
         id="stop19" />
    </radialGradient>
  </defs>
  <title
     id="title24">logo-4</title>
  <g
     id="g58"
     transform="translate(3.5905049e-6,-9.2787159e-4)">
    <g
       id="g34">
      <path
         d="m 118.69638,72.62406 a 4.67136,4.67136 0 0 0 -4.74706,-8.02629 l -86.24723,47.29075 a 10.19806,10.19806 0 1 0 11.16121,17.038 z"
         id="path26"
         inkscape:connector-curvature="0"
         style="opacity:0.99687997;fill:url(#radial-gradient)" />
      <path
         d="M 18.27209,29.0161 A 11.24043,11.24043 0 1 0 6.77615,48.10142 l 46.204,19.08234 a 4.32591,4.32591 0 0 0 4.60033,-7.21184 z"
         id="path28"
         inkscape:connector-curvature="0"
         style="fill:url(#radial-gradient-2)" />
      <path
         d="M 52.2019,0.40458 A 8.86652,8.86652 0 0 0 44.79526,1.38813 L 4.699,28.59941 A 11.24106,11.24106 0 1 0 18.60258,46.23878 L 55.15529,15.79451 A 8.888,8.888 0 0 0 52.2019,0.40458 Z"
         id="path30"
         inkscape:connector-curvature="0"
         style="opacity:0.99890992;fill:url(#linear-gradient)" />
      <path
         d="M 55.81058,2.57282 A 8.88722,8.88722 0 1 0 43.66406,15.54018 l 69.6015,56.90322 a 4.66421,4.66421 0 0 0 6.36265,-6.76831 z"
         id="path32"
         inkscape:connector-curvature="0"
         style="opacity:0.99687997;fill:url(#radial-gradient-3)" />
    </g>
    <rect
       x="36.90538"
       y="36.21151"
       width="51.253021"
       height="51.253029"
       id="rect36" />
    <rect
       x="41.326271"
       y="77.854584"
       width="19.219879"
       height="3.20332"
       id="rect38"
       style="fill:#ffffff" />
    <g
       id="g56">
      <path
         d="m 44.0459,51.115 a 3.14761,3.14761 0 0 0 2.29126,-0.84729 3.10351,3.10351 0 0 0 0.82343,-2.351 v -5.29857 h -2.30317 v 5.28668 a 0.97359,0.97359 0 0 1 -0.94281,1.16943 1.6911,1.6911 0 0 1 -1.31274,-0.77563 l -1.49164,1.4082 A 3.41138,3.41138 0 0 0 44.0459,51.115 Z"
         id="path40"
         inkscape:connector-curvature="0"
         style="fill:#ffffff" />
      <polygon
         points="49.989,47.678 53.998,47.678 53.998,45.852 49.989,45.852 49.989,44.575 54.416,44.575 54.416,42.618 47.697,42.618 47.697,50.972 54.476,50.972 54.476,49.003 49.989,49.003 "
         id="polygon42"
         style="fill:#ffffff" />
      <polygon
         points="59.758,44.647 62.264,44.647 62.264,42.618 54.948,42.618 54.948,44.647 57.443,44.647 57.443,50.972 59.758,50.972 "
         id="polygon44"
         style="fill:#ffffff" />
      <path
         d="m 47.13666,56.91013 a 1.93348,1.93348 0 0 0 1.28888,-1.86163 v -0.02387 a 1.88011,1.88011 0 0 0 -0.537,-1.36047 3.12872,3.12872 0 0 0 -2.27942,-0.73993 H 41.325 v 8.35364 h 4.308 c 1.99292,0 3.16241,-0.87115 3.16241,-2.30316 v -0.02393 a 2.02716,2.02716 0 0 0 -1.65875,-2.04065 z m -3.55621,-2.12421 h 1.51563 c 0.68024,0 1.05011,0.25061 1.05011,0.71606 v 0.0238 c 0,0.48932 -0.40576,0.728 -1.1098,0.728 h -1.45595 v -1.46786 z m 2.8999,3.86652 c 0,0.48926 -0.39386,0.76373 -1.1098,0.76373 h -1.7901 v -1.53943 h 1.76624 c 0.7757,0 1.13367,0.2984 1.13367,0.75183 v 0.02386 z"
         id="path46"
         inkscape:connector-curvature="0"
         style="fill:#ffffff" />
      <path
         d="m 59.26086,52.8646 -3.12134,7.40924 -1.30572,-1.90778 a 2.6467,2.6467 0 0 0 1.71838,-2.5777 V 55.7645 a 2.60811,2.60811 0 0 0 -0.73987,-1.94519 3.69812,3.69812 0 0 0 -2.72083,-0.89508 h -3.95012 v 8.35364 h 2.31512 V 58.748 h 1.02637 l 1.68262,2.52991 h 3.97363 l 0.59674,-1.5036 h 3.234 l 0.59668,1.5036 h 2.4823 L 61.49249,52.8646 Z m -5.0238,3.07892 A 1.04924,1.04924 0 0 1 52.99591,56.934 H 51.45648 V 54.91721 H 52.984 a 1.04265,1.04265 0 0 1 1.25305,1.00244 v 0.02386 z m 5.179,2.02875 0.94275,-2.36292 0.93085,2.36292 H 59.416 Z"
         id="path48"
         inkscape:connector-curvature="0"
         style="fill:#ffffff" />
      <rect
         x="65.322937"
         y="52.924229"
         width="2.31512"
         height="8.3536396"
         id="rect50"
         style="fill:#ffffff" />
      <polygon
         points="68.211,52.924 68.211,61.278 70.502,61.278 70.502,56.695 74.082,61.278 76.099,61.278 76.099,52.924 73.808,52.924 73.808,57.34 70.371,52.924 "
         id="polygon52"
         style="fill:#ffffff" />
      <path
         d="m 80.43274,56.0748 c -1.16949,-0.26251 -1.45593,-0.42963 -1.45593,-0.81152 v -0.02386 c 0,-0.3103 0.27454,-0.537 0.83539,-0.537 a 4.10069,4.10069 0 0 1 2.33905,0.82336 l 1.15753,-1.63489 A 5.25781,5.25781 0 0 0 79.87189,52.781 c -2.00488,0 -3.23407,1.12183 -3.23407,2.67316 v 0.02393 c 0,1.70648 1.37238,2.20776 3.15057,2.61346 1.14557,0.27448 1.42,0.45349 1.42,0.81152 v 0.0238 c 0,0.35809 -0.33417,0.57288 -0.96661,0.57288 a 4.32765,4.32765 0 0 1 -2.709,-1.00244 L 76.244,60.03678 a 5.857,5.857 0 0 0 3.91425,1.38434 c 2.02875,0 3.37732,-1.01434 3.37732,-2.72089 v -0.02386 c 10e-6,-1.56337 -1.19347,-2.1839 -3.10283,-2.60157 z"
         id="path54"
         inkscape:connector-curvature="0"
         style="fill:#ffffff" />
    </g>
  </g>
</svg>
