<?xml version="1.0" encoding="UTF-8" ?>
<!DOCTYPE svg PUBLIC "-//W3C//DTD SVG 1.1//EN" "http://www.w3.org/Graphics/SVG/1.1/DTD/svg11.dtd">
<svg width="64pt" height="64pt" viewBox="0 0 64 64" version="1.1" xmlns="http://www.w3.org/2000/svg">
<g id="#ffffffff">
</g>
<g id="#4c76b0ff">
<path fill="#4c76b0" opacity="1.00" d=" M 27.60 5.29 C 30.53 4.63 33.57 4.80 36.52 5.29 C 35.71 6.46 34.91 7.62 34.08 8.77 C 30.14 8.53 26.17 9.20 22.53 10.71 C 24.36 9.04 25.80 6.99 27.60 5.29 Z" />
<path fill="#4c76b0" opacity="1.00" d=" M 6.34 23.50 C 8.44 22.19 10.54 20.87 12.47 19.32 C 10.62 22.26 9.45 25.57 8.88 28.99 C 7.57 30.25 6.22 31.48 4.84 32.69 C 4.84 29.62 5.37 26.60 6.12 23.64 L 6.34 23.50 Z" />
</g>
<g id="#2996c9ff">
<path fill="#2996c9" opacity="1.00" d=" M 6.34 23.50 C 9.26 14.10 17.88 6.78 27.60 5.29 C 25.80 6.99 24.36 9.04 22.53 10.71 C 18.48 12.64 14.96 15.58 12.47 19.32 C 10.54 20.87 8.44 22.19 6.34 23.50 Z" />
</g>
<g id="#853f87ff">
<path fill="#853f87" opacity="1.00" d=" M 36.52 5.29 C 38.84 5.71 41.11 6.39 43.28 7.34 C 42.67 8.48 42.07 9.62 41.46 10.76 C 39.11 9.76 36.61 9.15 34.08 8.77 C 34.91 7.62 35.71 6.46 36.52 5.29 Z" />
<path fill="#853f87" opacity="1.00" d=" M 4.84 32.69 C 6.22 31.48 7.57 30.25 8.88 28.99 C 8.55 31.75 8.79 34.54 9.33 37.26 C 8.25 38.09 7.18 38.90 6.09 39.72 L 5.95 39.83 C 5.41 37.48 5.10 35.08 4.84 32.69 Z" />
</g>
<g id="#b9196dff">
<path fill="#b9196d" opacity="1.00" d=" M 43.28 7.34 C 46.87 9.02 50.01 11.50 52.63 14.46 C 52.04 15.77 51.45 17.07 50.87 18.38 C 48.47 15.06 45.16 12.47 41.46 10.76 C 42.07 9.62 42.67 8.48 43.28 7.34 Z" />
<path fill="#b9196d" opacity="1.00" d=" M 27.87 23.83 C 28.71 20.03 33.18 20.14 36.22 20.66 C 36.15 23.10 36.15 25.55 36.16 28.00 C 33.62 30.48 30.78 32.61 27.83 34.56 C 27.86 30.98 27.73 27.40 27.87 23.83 Z" />
<path fill="#b9196d" opacity="1.00" d=" M 6.09 39.72 C 7.18 38.90 8.25 38.09 9.33 37.26 C 10.45 41.90 12.98 46.15 16.49 49.38 C 14.87 49.91 13.17 49.88 11.49 49.71 C 9.11 46.75 7.05 43.44 6.09 39.72 Z" />
</g>
<g id="#db1a75ff">
<path fill="#db1a75" opacity="1.00" d=" M 52.63 14.46 C 55.56 17.84 57.41 21.98 58.53 26.27 L 58.15 27.27 C 57.64 28.60 57.14 29.92 56.65 31.26 C 56.13 30.37 55.63 29.48 55.14 28.59 C 54.35 24.96 53.03 21.42 50.87 18.38 C 51.45 17.07 52.04 15.77 52.63 14.46 Z" />
<path fill="#db1a75" opacity="1.00" d=" M 27.83 34.56 C 30.78 32.61 33.62 30.48 36.16 28.00 C 36.11 32.01 36.25 36.04 36.09 40.05 C 35.36 43.97 30.87 43.67 27.82 43.47 C 27.82 40.50 27.80 37.53 27.83 34.56 Z" />
<path fill="#db1a75" opacity="1.00" d=" M 11.49 49.71 C 13.17 49.88 14.87 49.91 16.49 49.38 C 19.00 51.40 21.76 53.14 24.84 54.15 C 23.61 55.03 22.38 55.92 21.16 56.81 C 17.46 55.18 14.20 52.70 11.49 49.71 Z" />
</g>
<g id="#ca1971ff">
<path fill="#ca1971" opacity="1.00" d=" M 40.48 21.49 C 43.02 18.89 47.86 21.55 47.30 25.05 C 47.09 27.99 43.32 29.88 40.92 28.07 C 38.64 26.74 38.41 23.12 40.48 21.49 Z" />
<path fill="#ca1971" opacity="1.00" d=" M 19.41 35.44 C 22.16 34.31 25.47 36.98 24.87 39.92 C 24.67 42.91 20.67 44.68 18.38 42.67 C 15.65 40.95 16.35 36.35 19.41 35.44 Z" />
</g>
<g id="#ee5e55ff">
<path fill="#ee5e55" opacity="1.00" d=" M 58.15 27.27 L 58.50 26.42 C 59.00 28.93 59.22 31.48 59.10 34.04 C 57.77 35.79 56.16 37.29 54.37 38.54 C 55.27 35.30 55.38 31.92 55.14 28.59 C 55.63 29.48 56.13 30.37 56.65 31.26 C 57.14 29.92 57.64 28.60 58.15 27.27 Z" />
<path fill="#ee5e55" opacity="1.00" d=" M 24.84 54.15 C 28.32 55.15 31.97 55.54 35.58 55.09 C 33.34 56.84 31.19 59.25 28.03 58.75 C 25.65 58.49 23.35 57.75 21.16 56.81 C 22.38 55.92 23.61 55.03 24.84 54.15 Z" />
</g>
<g id="#f3a53cff">
<path fill="#f3a53c" opacity="1.00" d=" M 54.37 38.54 C 56.16 37.29 57.77 35.79 59.10 34.04 C 58.14 49.12 43.02 61.49 28.03 58.75 C 31.19 59.25 33.34 56.84 35.58 55.09 C 44.29 53.53 51.84 47.07 54.37 38.54 Z" />
</g>
</svg>
