<?xml version="1.0" encoding="UTF-8" standalone="no"?>
<!-- Created with Inkscape (http://www.inkscape.org/) -->

<svg
   xmlns:dc="http://purl.org/dc/elements/1.1/"
   xmlns:cc="http://creativecommons.org/ns#"
   xmlns:rdf="http://www.w3.org/1999/02/22-rdf-syntax-ns#"
   xmlns:svg="http://www.w3.org/2000/svg"
   xmlns="http://www.w3.org/2000/svg"
   xmlns:sodipodi="http://sodipodi.sourceforge.net/DTD/sodipodi-0.dtd"
   xmlns:inkscape="http://www.inkscape.org/namespaces/inkscape"
   id="svg4155"
   version="1.1"
   inkscape:version="0.92.2 5c3e80d, 2017-08-06"
   xml:space="preserve"
   width="496.9696"
   height="209.44341"
   viewBox="0 0 496.9696 209.44341"
   sodipodi:docname="lebeau.svg"><metadata
     id="metadata4161"><rdf:RDF><cc:Work
         rdf:about=""><dc:format>image/svg+xml</dc:format><dc:type
           rdf:resource="http://purl.org/dc/dcmitype/StillImage" /><dc:title /></cc:Work></rdf:RDF></metadata><defs
     id="defs4159"><clipPath
       clipPathUnits="userSpaceOnUse"
       id="clipPath4177"><path
         d="M 0,792 H 612 V 0 H 0 Z"
         id="path4179"
         inkscape:connector-curvature="0" /></clipPath><clipPath
       clipPathUnits="userSpaceOnUse"
       id="clipPath4355"><path
         d="M 0,792 H 612 V 0 H 0 Z"
         id="path4357"
         inkscape:connector-curvature="0" /></clipPath><clipPath
       clipPathUnits="userSpaceOnUse"
       id="clipPath4367"><path
         d="m 93.5,630.001 h 15.562 v 15.562 H 93.5 Z"
         id="path4369"
         inkscape:connector-curvature="0" /></clipPath><clipPath
       clipPathUnits="userSpaceOnUse"
       id="clipPath4393"><path
         d="M 0,792 H 612 V 0 H 0 Z"
         id="path4395"
         inkscape:connector-curvature="0" /></clipPath><clipPath
       clipPathUnits="userSpaceOnUse"
       id="clipPath4405"><path
         d="m 92.499,437.159 h 15.562 v 15.562 H 92.499 Z"
         id="path4407"
         inkscape:connector-curvature="0" /></clipPath><clipPath
       clipPathUnits="userSpaceOnUse"
       id="clipPath4431"><path
         d="M 0,792 H 612 V 0 H 0 Z"
         id="path4433"
         inkscape:connector-curvature="0" /></clipPath><clipPath
       clipPathUnits="userSpaceOnUse"
       id="clipPath4443"><path
         d="m 92.499,259.027 h 15.562 v 15.562 H 92.499 Z"
         id="path4445"
         inkscape:connector-curvature="0" /></clipPath><clipPath
       clipPathUnits="userSpaceOnUse"
       id="clipPath4455"><path
         d="m 73.252,259.071 h 16.419 v 16.077 H 73.252 Z"
         id="path4457"
         inkscape:connector-curvature="0" /></clipPath><clipPath
       clipPathUnits="userSpaceOnUse"
       id="clipPath4477"><path
         d="M 0,792 H 612 V 0 H 0 Z"
         id="path4479"
         inkscape:connector-curvature="0" /></clipPath><clipPath
       clipPathUnits="userSpaceOnUse"
       id="clipPath4489"><path
         d="m 92.499,70.088 h 15.562 V 85.651 H 92.499 Z"
         id="path4491"
         inkscape:connector-curvature="0" /></clipPath><clipPath
       clipPathUnits="userSpaceOnUse"
       id="clipPath4505"><path
         d="M 0,792 H 612 V 0 H 0 Z"
         id="path4507"
         inkscape:connector-curvature="0" /></clipPath></defs><sodipodi:namedview
     pagecolor="#ffffff"
     bordercolor="#666666"
     borderopacity="1"
     objecttolerance="10"
     gridtolerance="10"
     guidetolerance="10"
     inkscape:pageopacity="0"
     inkscape:pageshadow="2"
     inkscape:window-width="1918"
     inkscape:window-height="2136"
     id="namedview4157"
     showgrid="false"
     fit-margin-top="0"
     fit-margin-left="0"
     fit-margin-right="0"
     fit-margin-bottom="0"
     inkscape:zoom="0.62068262"
     inkscape:cx="236.28314"
     inkscape:cy="82.613724"
     inkscape:window-x="3840"
     inkscape:window-y="22"
     inkscape:window-maximized="0"
     inkscape:current-layer="g4163" /><g
     id="g4163"
     inkscape:groupmode="layer"
     inkscape:label="2013 new Lebeau_logo_comps 2 all colors"
     transform="matrix(1.25,0,0,-1.25,-95.285506,916.85462)"><g
       id="g4181"
       transform="matrix(3.6112646,0,0,3.6112646,278.45235,587.3658)"><path
         d="m 0,0 v 6.983 h 10.823 v 5.413 H 0 v 6.11 h 11.477 v 5.456 H -6.679 V 20.43 c 0.713,-1.011 1.149,-2.242 1.149,-3.67 0,-1.29 -0.375,-2.536 -1.149,-3.617 V 8.358 c 1.332,-1.279 2.153,-3.038 2.153,-5.216 0,-2.191 -0.837,-3.991 -2.153,-5.39 V -5.456 H 8.825 L 10.492,0 H 0"
         style="fill:#c1c0c1;fill-opacity:1;fill-rule:nonzero;stroke:none"
         id="path4183"
         inkscape:connector-curvature="0" /></g><g
       id="g4185"
       transform="matrix(3.6112646,0,0,3.6112646,449.84334,612.7418)"><path
         d="m 0,0 c 0,-5.194 -1.919,-7.638 -5.411,-7.638 -3.406,0 -5.326,2.575 -5.326,7.638 v 16.936 h -6.677 V 5.651 l 5.307,-17.115 c 1.77,-1.007 3.94,-1.499 6.477,-1.499 7.682,0 12.265,4.321 12.265,13.399 v 16.5 H 0 V 0"
         style="fill:#d3d2d2;fill-opacity:1;fill-rule:nonzero;stroke:none"
         id="path4187"
         inkscape:connector-curvature="0" /></g><g
       id="g4189"
       transform="matrix(3.6112646,0,0,3.6112646,183.29734,587.3658)"><path
         d="M 0,0 H -8.648 V 6.983 H 0 v 5.413 h -8.648 v 6.11 H 0 v 5.063 c 0.698,0.14 1.688,0.265 2.83,0.364 v 0.029 H -15.326 V 0.13 h 4.053 V -5.456 H 1.034 C 0.653,-5.413 0.302,-5.369 0,-5.325 V 0"
         style="fill:#e5e4e4;fill-opacity:1;fill-rule:nonzero;stroke:none"
         id="path4191"
         inkscape:connector-curvature="0" /></g><g
       id="g4193"
       transform="matrix(3.6112646,0,0,3.6112646,346.25927,612.89996)"><path
         d="m 0,0 1.747,6.241 c 0.48,1.702 0.916,3.928 1.353,5.674 H 3.186 C 3.624,10.169 4.146,7.987 4.671,6.241 L 6.503,0 H 0 M 11.269,0.48 V 5.607 L 7.77,16.892 H -0.96 L -8.284,-7.071 h 1.597 v -5.455 h 3.632 l 2.095,7.55 h 8.423 l 2.271,-7.55 h 7.159 l -0.316,1.018 C 13.17,-9.571 11.269,-5.695 11.269,0.48"
         style="fill:#e5e4e4;fill-opacity:1;fill-rule:nonzero;stroke:none"
         id="path4195"
         inkscape:connector-curvature="0" /></g><g
       id="g4197"
       transform="matrix(3.6112646,0,0,3.6112646,322.11218,567.66455)"><path
         d="m 0,0 h -3.265 l 1.667,5.456 H 0 Z"
         style="fill:#cdcccc;fill-opacity:1;fill-rule:nonzero;stroke:none"
         id="path4199"
         inkscape:connector-curvature="0" /></g><g
       id="g4201"
       transform="matrix(3.6112646,0,0,3.6112646,316.34282,587.3658)"><path
         d="M 0,0 -1.667,-5.456 H 1.598 V 0 Z"
         style="fill:#d7d7d7;fill-opacity:1;fill-rule:nonzero;stroke:none"
         id="path4203"
         inkscape:connector-curvature="0" /></g><g
       id="g4205"
       transform="matrix(3.6112646,0,0,3.6112646,406.12355,571.34262)"><path
         d="m 0,0 c -3.407,1.937 -5.308,5.812 -5.308,11.988 v 5.127 L 0,0"
         style="fill:#dbdada;fill-opacity:1;fill-rule:nonzero;stroke:none"
         id="path4207"
         inkscape:connector-curvature="0" /></g><g
       id="g4209"
       transform="matrix(3.6112646,0,0,3.6112646,386.95641,614.63373)"><path
         d="M 0,0 C 0,-6.175 1.9,-10.051 5.308,-11.988 L 0,5.127 Z"
         style="fill:#d7d7d7;fill-opacity:1;fill-rule:nonzero;stroke:none"
         id="path4211"
         inkscape:connector-curvature="0" /></g><g
       id="g4213"
       transform="matrix(3.6112646,0,0,3.6112646,216.39458,584.36953)"><path
         d="M 0,0 C -1.134,0 -1.92,0 -2.575,0.088 V 8.38 h 2.27 c 3.317,0 5.98,-1.178 5.98,-4.146 C 5.675,1.179 3.012,0 0,0 m -2.575,19.99 c 0.567,0.088 1.397,0.175 2.837,0.175 3.012,0 4.714,-1.179 4.714,-3.405 0,-2.182 -1.876,-3.622 -5.368,-3.622 H -2.575 V 19.99 M 6.81,11.218 v 0.087 c 1.682,0.619 2.9,1.555 3.696,2.668 v 7.287 c -0.616,0.874 -1.436,1.585 -2.387,2.091 -2.139,1.266 -4.627,1.658 -8.686,1.658 -1.991,0 -4.054,-0.095 -5.767,-0.246 v -5.427 h -2.831 v -6.11 h 2.176 V 7.813 H -9.165 V 0.83 h 3.442 v -5.456 h -2.408 c 1.488,-0.166 3.56,-0.306 6.168,-0.306 5.847,0 9.426,0.96 11.566,2.663 0.324,0.262 0.62,0.55 0.903,0.851 V 9.188 c -0.99,0.951 -2.263,1.639 -3.696,2.03"
         style="fill:#b9b7b8;fill-opacity:1;fill-rule:nonzero;stroke:none"
         id="path4215"
         inkscape:connector-curvature="0" /></g><g
       id="g4217"
       transform="matrix(3.6112646,0,0,3.6112646,254.33416,579.24731)"><path
         d="M 0,0 V 10.606 C 1.332,9.327 2.152,7.568 2.152,5.39 2.152,3.199 1.316,1.399 0,0"
         style="fill:#cdcccc;fill-opacity:1;fill-rule:nonzero;stroke:none"
         id="path4219"
         inkscape:connector-curvature="0" /></g><g
       id="g4221"
       transform="matrix(3.6112646,0,0,3.6112646,254.33416,617.54838)"><path
         d="m 0,0 v -10.606 c 1.315,1.399 2.152,3.199 2.152,5.39 C 2.152,-3.038 1.332,-1.279 0,0"
         style="fill:#a7a5a6;fill-opacity:1;fill-rule:nonzero;stroke:none"
         id="path4223"
         inkscape:connector-curvature="0" /></g><g
       id="g4225"
       transform="matrix(3.6112646,0,0,3.6112646,254.33416,634.82901)"><path
         d="M 0,0 V 7.287 C 0.712,6.276 1.148,5.045 1.148,3.617 1.148,2.327 0.773,1.081 0,0"
         style="fill:#aeacad;fill-opacity:1;fill-rule:nonzero;stroke:none"
         id="path4227"
         inkscape:connector-curvature="0" /></g><g
       id="g4229"
       transform="matrix(3.6112646,0,0,3.6112646,195.7284,567.66455)"><path
         d="m 0,0 h -2.409 c -0.38,0.042 -0.732,0.086 -1.033,0.131 V 5.456 H 0 V 0"
         style="fill:#e9e9e9;fill-opacity:1;fill-rule:nonzero;stroke:none"
         id="path4231"
         inkscape:connector-curvature="0" /></g><g
       id="g4233"
       transform="matrix(3.6112646,0,0,3.6112646,195.7284,587.3658)"><path
         d="m 0,0 h -3.442 v -5.325 c 0.301,-0.044 0.653,-0.088 1.033,-0.131 H 0 Z"
         style="fill:#b0aeaf;fill-opacity:1;fill-rule:nonzero;stroke:none"
         id="path4235"
         inkscape:connector-curvature="0" /></g><g
       id="g4237"
       transform="matrix(3.6112646,0,0,3.6112646,193.51903,654.1955)"><path
         d="M 0,0 H -2.83 V 5.063 C -2.133,5.203 -1.142,5.328 0,5.428 V 0"
         style="fill:#e9e9e9;fill-opacity:1;fill-rule:nonzero;stroke:none"
         id="path4239"
         inkscape:connector-curvature="0" /></g><g
       id="g4241"
       transform="matrix(3.6112646,0,0,3.6112646,183.29734,654.19514)"><path
         d="M 0,0 H 2.831 V 5.428 C 1.688,5.328 0.698,5.203 0,5.063 Z"
         style="fill:#b0aeaf;fill-opacity:1;fill-rule:nonzero;stroke:none"
         id="path4243"
         inkscape:connector-curvature="0" /></g><path
       d="m 191.15545,612.58326 h -7.85811 v 19.54777 h 7.85811 z"
       style="fill:#e9e9e9;fill-opacity:1;fill-rule:nonzero;stroke:none"
       id="path4245"
       inkscape:connector-curvature="0" /><path
       d="m 191.15545,632.13103 h -7.85811 v -19.54777 h 7.85811 z"
       style="fill:#b0aeaf;fill-opacity:1;fill-rule:nonzero;stroke:none"
       id="path4247"
       inkscape:connector-curvature="0" /><g
       id="g4249"
       transform="matrix(3.6112646,0,0,3.6112646,100.34443,587.83634)"><path
         d="M 0,0 V 23.832 H -6.678 V -5.586 H 7.645 V 0 Z"
         style="fill:#d3d2d2;fill-opacity:1;fill-rule:nonzero;stroke:none"
         id="path4251"
         inkscape:connector-curvature="0" /></g><path
       d="m 142.58756,567.66274 h -14.63645 v 20.17253 h 14.63645 z"
       style="fill:#e9e9e9;fill-opacity:1;fill-rule:nonzero;stroke:none"
       id="path4253"
       inkscape:connector-curvature="0" /><path
       d="m 127.95111,567.66274 h 14.63645 v 20.17253 h -14.63645 z"
       style="fill:#cac9c9;fill-opacity:1;fill-rule:nonzero;stroke:none"
       id="path4255"
       inkscape:connector-curvature="0" /><g
       id="g4257"
       transform="matrix(3.6112646,0,0,3.6112646,106.59119,725.00806)"><path
         d="m 0,0 c 0.956,0 1.737,-0.042 2.342,-0.126 0.606,-0.083 1.07,-0.241 1.392,-0.47 0.323,-0.23 0.485,-0.547 0.485,-0.95 0,-0.292 -0.106,-0.655 -0.317,-1.09 C 3.691,-3.07 3.351,-3.503 2.882,-3.935 2.414,-4.367 1.78,-4.728 0.982,-5.02 c -0.797,-0.292 -1.74,-0.438 -2.826,-0.438 -0.124,0 -0.278,0.006 -0.461,0.019 -0.183,0.012 -0.393,0.025 -0.629,0.037 l 0.531,0.894 1.416,0.27 c 0.161,0.031 0.242,0.087 0.242,0.168 0,0.093 -0.05,0.14 -0.149,0.14 l -1.22,-0.14 1.62,2.543 C -0.152,-1 0.019,-0.575 0.019,-0.251 0.019,-0.152 0.012,-0.068 0,0 m -6.631,-1.686 c 0.174,0.068 0.461,0.185 0.861,0.35 0.401,0.164 0.856,0.338 1.365,0.521 0.509,0.183 1.12,0.356 1.835,0.517 0.714,0.161 1.393,0.255 2.039,0.279 l -2.84,-4.237 c -0.863,-0.193 -1.515,-0.453 -1.956,-0.783 -0.441,-0.329 -0.661,-0.686 -0.661,-1.07 0,-0.174 0.08,-0.351 0.242,-0.531 0.161,-0.18 0.388,-0.326 0.68,-0.438 -0.547,-0.981 -0.955,-1.768 -1.225,-2.361 -0.27,-0.593 -0.405,-1.026 -0.405,-1.299 0,-0.192 0.025,-0.343 0.074,-0.451 0.05,-0.109 0.165,-0.164 0.345,-0.164 l 0.265,0.112 c 0.09,0.074 0.171,0.161 0.242,0.261 0.072,0.099 0.21,0.301 0.415,0.605 0.205,0.305 0.369,0.55 0.494,0.736 0.087,0.13 0.13,0.292 0.13,0.484 0,0.081 -0.043,0.186 -0.13,0.317 l 0.838,1.527 c 0.633,-0.074 1.052,-0.111 1.257,-0.111 1.161,0 2.229,0.147 3.204,0.442 0.974,0.294 1.822,0.722 2.542,1.28 0.72,0.559 1.274,1.219 1.663,1.979 0.387,0.761 0.582,1.607 0.582,2.538 0,0.41 -0.074,0.824 -0.219,1.244 -0.146,0.418 -0.353,0.771 -0.62,1.056 -0.745,0.82 -2.08,1.23 -4.004,1.23 -1.664,0 -3.583,-0.389 -5.756,-1.164 -0.391,-0.64 -0.73,-1.239 -1.02,-1.798 -0.288,-0.558 -0.433,-0.863 -0.433,-0.912 l 0.066,-0.112 z"
         style="fill:#a7a5a6;fill-opacity:1;fill-rule:nonzero;stroke:none"
         id="path4259"
         inkscape:connector-curvature="0" /></g><g
       id="g4261"
       transform="matrix(3.6112646,0,0,3.6112646,129.81415,703.18013)"><path
         d="M 0,0 C 0.686,0.516 1.836,1.143 3.451,1.881 2.693,0.82 2.044,-0.02 1.504,-0.638 0.964,-1.256 0.368,-1.757 -0.284,-2.142 c -0.174,-0.087 -0.295,-0.13 -0.363,-0.13 -0.118,0 -0.211,0.064 -0.28,0.191 -0.068,0.127 -0.102,0.29 -0.102,0.489 0,0.546 0.343,1.077 1.029,1.592 m -1.783,0.047 c -0.162,-0.205 -0.27,-0.405 -0.326,-0.601 -0.056,-0.196 -0.084,-0.439 -0.084,-0.731 0,-0.403 0.079,-0.793 0.237,-1.169 0.159,-0.376 0.34,-0.681 0.545,-0.917 0.205,-0.236 0.376,-0.354 0.513,-0.354 0.285,0 0.648,0.213 1.089,0.638 0.441,0.425 1.114,1.141 2.021,2.147 -0.354,-0.932 -0.531,-1.643 -0.531,-2.133 0,-0.311 0.051,-0.545 0.154,-0.703 0.102,-0.159 0.274,-0.238 0.517,-0.238 0.676,0 1.8,0.872 3.371,2.617 v 0.028 L 5.545,-1.527 v 0.552 c -0.83,-0.706 -1.457,-1.074 -1.862,-1.074 -0.422,0 -0.633,0.23 -0.633,0.69 0,0.279 0.061,0.515 0.181,0.707 0.122,0.193 0.333,0.492 0.634,0.899 0.301,0.406 0.451,0.685 0.451,0.834 0,0.074 -0.018,0.159 -0.055,0.255 C 4.224,1.433 4.171,1.559 4.103,1.714 4.034,1.869 3.978,1.996 3.935,2.096 4.152,2.17 4.304,2.234 4.391,2.287 4.478,2.339 4.521,2.421 4.521,2.533 4.521,2.602 4.489,2.707 4.424,2.85 4.358,2.993 4.27,3.119 4.158,3.227 4.046,3.335 3.925,3.39 3.795,3.39 3.311,3.39 2.625,3.182 1.737,2.766 0.849,2.35 -0.067,1.714 -1.01,0.857 -1.364,0.521 -1.622,0.251 -1.783,0.047"
         style="fill:#a7a5a6;fill-opacity:1;fill-rule:nonzero;stroke:none"
         id="path4263"
         inkscape:connector-curvature="0" /></g><g
       id="g4265"
       transform="matrix(3.6112646,0,0,3.6112646,150.48034,698.23739)"><path
         d="m 0,0 0.046,0.042 0.21,0.186 0.214,0.195 0.247,0.22 C 0.469,0.003 0.296,-0.475 0.2,-0.792 0.104,-1.108 0.056,-1.382 0.056,-1.611 c 0,-0.342 0.085,-0.621 0.256,-0.839 0.17,-0.217 0.396,-0.325 0.675,-0.325 0.789,0 2.006,0.886 3.644,2.652 L 4.61,0.083 c 0,0.161 0.028,0.309 0.05,0.46 C 4.042,0.041 3.543,-0.337 3.171,-0.582 2.789,-0.833 2.48,-0.959 2.244,-0.959 c -0.341,0 -0.512,0.214 -0.512,0.642 0,0.317 0.06,0.652 0.182,1.006 C 2.035,1.043 2.208,1.433 2.435,1.858 2.662,2.283 2.943,2.766 3.278,3.306 3.452,3.293 3.6,3.283 3.72,3.273 3.841,3.264 3.961,3.255 4.079,3.246 4.197,3.236 4.343,3.225 4.517,3.213 5.051,3.902 5.495,4.576 5.849,5.234 5.755,5.246 5.626,5.262 5.462,5.28 5.297,5.299 5.109,5.321 4.898,5.346 c 0.137,0.223 0.339,0.499 0.606,0.828 0.267,0.329 0.4,0.531 0.4,0.606 0,0.155 -0.171,0.233 -0.512,0.233 C 5.051,7.013 4.746,6.89 4.479,6.645 4.212,6.399 3.915,5.982 3.585,5.392 h -0.4 C 2.707,5.392 2.336,5.362 2.072,5.304 1.808,5.245 1.584,5.131 1.401,4.964 1.218,4.796 1.024,4.538 0.819,4.19 0.565,3.781 0.438,3.474 0.438,3.269 L 0.475,3.213 0.61,3.246 0.819,3.306 C 1,3.355 1.272,3.38 1.639,3.38 1.751,3.38 1.847,3.379 1.928,3.376 2.008,3.373 2.095,3.368 2.188,3.362 1.263,1.99 0.475,1.03 -0.177,0.484 V 0.394 L 0,0.54 Z"
         style="fill:#a7a5a6;fill-opacity:1;fill-rule:nonzero;stroke:none"
         id="path4267"
         inkscape:connector-curvature="0" /></g><g
       id="g4269"
       transform="matrix(3.6112646,0,0,3.6112646,150.48034,698.23739)"><path
         d="M 0,0 V 0.54 L -0.177,0.394 v -0.553 z"
         style="fill:#a7a5a6;fill-opacity:1;fill-rule:nonzero;stroke:none"
         id="path4271"
         inkscape:connector-curvature="0" /></g><g
       id="g4273"
       transform="matrix(3.6112646,0,0,3.6112646,181.18656,715.2887)"><path
         d="M 0,0 C 0.292,0 0.565,0.161 0.82,0.484 1.074,0.807 1.202,1.102 1.202,1.369 1.202,1.586 1.139,1.752 1.015,1.867 0.891,1.982 0.736,2.04 0.549,2.04 0.27,2.04 0,1.872 -0.261,1.537 -0.521,1.201 -0.652,0.897 -0.652,0.624 c 0,-0.18 0.07,-0.33 0.21,-0.447 C -0.303,0.059 -0.155,0 0,0"
         style="fill:#a7a5a6;fill-opacity:1;fill-rule:nonzero;stroke:none"
         id="path4275"
         inkscape:connector-curvature="0" /></g><g
       id="g4277"
       transform="matrix(3.6112646,0,0,3.6112646,167.46447,698.06839)"><path
         d="m 0,0 -0.072,-0.076 c 0.025,-0.551 0.131,-1.07 0.352,-1.544 0.248,-0.534 0.627,-0.801 1.136,-0.801 0.366,0 0.81,0.197 1.332,0.591 0.492,0.372 1.023,0.922 1.587,1.635 C 4.322,-0.03 4.312,0.144 4.312,0.345 V 0.508 C 3.813,0.093 3.392,-0.227 3.069,-0.424 2.718,-0.638 2.396,-0.745 2.105,-0.745 c -0.267,0 -0.484,0.075 -0.652,0.224 -0.168,0.148 -0.251,0.335 -0.251,0.559 0,0.26 0.082,0.493 0.246,0.698 0.165,0.205 0.517,0.568 1.057,1.09 C 2.698,2.005 2.917,2.307 3.162,2.729 3.407,3.151 3.53,3.461 3.53,3.66 3.53,3.952 3.34,4.098 2.962,4.098 2.229,4.098 1.422,3.412 0.541,2.04 0.354,1.735 0.227,1.512 0.159,1.369 0.09,1.226 0.031,1.044 -0.019,0.824 L -0.043,0.59 0,0.624 Z"
         style="fill:#a7a5a6;fill-opacity:1;fill-rule:nonzero;stroke:none"
         id="path4279"
         inkscape:connector-curvature="0" /></g><g
       id="g4281"
       transform="matrix(3.6112646,0,0,3.6112646,167.20519,697.79501)"><path
         d="M 0,0 0.072,0.076 V 0.7 L 0.028,0.666 C 0.006,0.515 -0.021,0.366 -0.021,0.206 Z"
         style="fill:#a7a5a6;fill-opacity:1;fill-rule:nonzero;stroke:none"
         id="path4283"
         inkscape:connector-curvature="0" /></g><g
       id="g4285"
       transform="matrix(3.6112646,0,0,3.6112646,194.97545,709.36948)"><path
         d="m 0,0 0.167,-1.36 0.015,-0.149 0.004,-0.167 c 0,-0.522 -0.113,-0.933 -0.34,-1.235 -0.226,-0.3 -0.551,-0.538 -0.973,-0.712 -0.248,0.391 -0.441,0.655 -0.578,0.792 -0.136,0.136 -0.391,0.245 -0.763,0.326 C -1.208,-1.27 -0.385,-0.435 0,0 m -3.185,-3.204 -0.098,-0.12 c 0.017,-0.218 0.043,-0.413 0.084,-0.569 0.071,-0.273 0.253,-0.559 0.545,-0.857 0.496,-0.497 1.036,-0.745 1.62,-0.745 0.453,0 0.993,0.201 1.62,0.601 0.612,0.391 1.305,0.963 2.076,1.71 -0.008,0.129 -0.017,0.251 -0.017,0.399 v 0.22 C 2.268,-2.877 1.931,-3.138 1.644,-3.339 1.336,-3.553 1.035,-3.724 0.74,-3.851 0.445,-3.979 0.17,-4.042 -0.084,-4.042 c -0.13,0 -0.307,0.019 -0.531,0.056 0.559,0.36 1.015,0.713 1.369,1.057 0.354,0.345 0.624,0.704 0.81,1.08 0.187,0.376 0.28,0.768 0.28,1.179 0,0.273 -0.025,0.518 -0.074,0.735 C 1.72,0.282 1.65,0.551 1.56,0.871 1.47,1.19 1.425,1.409 1.425,1.527 c 0,0.137 0.012,0.243 0.037,0.317 L 1.406,2.021 C 1.257,2.095 1.118,2.132 0.987,2.132 0.465,2.132 0.136,1.75 0,0.987 -0.603,0.31 -1.705,-0.873 -3.306,-2.561 v -0.06 l 0.121,0.097 z"
         style="fill:#a7a5a6;fill-opacity:1;fill-rule:nonzero;stroke:none"
         id="path4287"
         inkscape:connector-curvature="0" /></g><g
       id="g4289"
       transform="matrix(3.6112646,0,0,3.6112646,183.11894,697.36456)"><path
         d="M 0,0 0.098,0.121 V 0.8 L -0.023,0.703 V 0.54 C -0.023,0.339 -0.013,0.165 0,0"
         style="fill:#a7a5a6;fill-opacity:1;fill-rule:nonzero;stroke:none"
         id="path4291"
         inkscape:connector-curvature="0" /></g><g
       id="g4293"
       transform="matrix(3.6112646,0,0,3.6112646,216.465,709.36948)"><path
         d="m 0,0 0.167,-1.36 0.015,-0.149 0.004,-0.167 c 0,-0.522 -0.113,-0.933 -0.34,-1.235 -0.226,-0.3 -0.551,-0.538 -0.973,-0.712 -0.248,0.391 -0.441,0.655 -0.578,0.792 -0.136,0.136 -0.391,0.245 -0.763,0.326 C -1.208,-1.27 -0.385,-0.435 0,0 m -3.231,-3.129 -0.058,-0.055 c 0.016,-0.275 0.041,-0.523 0.09,-0.709 0.071,-0.273 0.253,-0.559 0.545,-0.857 0.496,-0.497 1.036,-0.745 1.62,-0.745 0.453,0 0.993,0.201 1.62,0.601 0.599,0.382 1.275,0.94 2.026,1.664 0.005,0.243 0.034,0.478 0.081,0.704 C 2.295,-2.857 1.944,-3.129 1.644,-3.339 1.336,-3.553 1.035,-3.724 0.74,-3.851 0.445,-3.979 0.17,-4.042 -0.084,-4.042 c -0.13,0 -0.307,0.019 -0.531,0.056 0.559,0.36 1.015,0.713 1.369,1.057 0.354,0.345 0.624,0.704 0.81,1.08 0.187,0.376 0.28,0.768 0.28,1.179 0,0.273 -0.025,0.518 -0.074,0.735 C 1.72,0.282 1.65,0.551 1.56,0.871 1.47,1.19 1.425,1.409 1.425,1.527 c 0,0.137 0.012,0.243 0.037,0.317 L 1.406,2.021 C 1.257,2.095 1.118,2.132 0.987,2.132 0.465,2.132 0.136,1.75 0,0.987 -0.603,0.31 -1.705,-0.873 -3.306,-2.561 v -0.004 l 0.075,0.06 z"
         style="fill:#a7a5a6;fill-opacity:1;fill-rule:nonzero;stroke:none"
         id="path4295"
         inkscape:connector-curvature="0" /></g><g
       id="g4297"
       transform="matrix(3.6112646,0,0,3.6112646,204.58755,697.87266)"><path
         d="M 0,0 0.058,0.054 V 0.678 L -0.017,0.618 V 0.399 C -0.017,0.25 -0.007,0.128 0,0"
         style="fill:#a7a5a6;fill-opacity:1;fill-rule:nonzero;stroke:none"
         id="path4299"
         inkscape:connector-curvature="0" /></g><g
       id="g4301"
       transform="matrix(3.6112646,0,0,3.6112646,233.31516,704.89585)"><path
         d="m 0,0 c 0.205,0.311 0.436,0.581 0.694,0.81 0.257,0.23 0.512,0.416 0.764,0.559 0.251,0.143 0.433,0.214 0.544,0.214 0.13,0 0.196,-0.071 0.196,-0.214 C 2.198,1.232 2.103,1.017 1.914,0.722 1.724,0.427 1.431,0.118 1.034,-0.205 0.636,-0.528 0.158,-0.798 -0.4,-1.015 -0.338,-0.649 -0.205,-0.311 0,0 m -1.947,-1.891 -0.107,-0.1 -0.004,-0.076 c 0,-0.746 0.161,-1.332 0.484,-1.761 0.323,-0.428 0.761,-0.642 1.313,-0.642 0.634,0 1.258,0.225 1.872,0.675 0.587,0.43 1.215,1.045 1.881,1.835 v 0.563 l 0.083,0.103 C 3.114,-1.687 2.723,-2.001 2.403,-2.235 2.08,-2.471 1.755,-2.661 1.429,-2.803 1.104,-2.946 0.788,-3.018 0.484,-3.018 c -0.292,0 -0.527,0.103 -0.708,0.308 -0.18,0.205 -0.27,0.49 -0.27,0.857 v 0.232 c 0.876,0.354 1.613,0.723 2.212,1.104 0.599,0.382 1.045,0.767 1.337,1.155 0.291,0.388 0.437,0.778 0.437,1.169 0,0.267 -0.085,0.467 -0.256,0.6 -0.171,0.134 -0.402,0.2 -0.694,0.2 C 2.176,2.607 1.76,2.505 1.294,2.3 0.829,2.095 0.36,1.791 -0.112,1.388 -0.801,0.798 -1.298,0.237 -1.602,-0.293 -1.78,-0.604 -1.899,-0.937 -1.973,-1.288 l 0.026,0.021 z"
         style="fill:#a7a5a6;fill-opacity:1;fill-rule:nonzero;stroke:none"
         id="path4303"
         inkscape:connector-curvature="0" /></g><g
       id="g4305"
       transform="matrix(3.6112646,0,0,3.6112646,226.2851,698.06839)"><path
         d="M 0,0 V 0.624 L -0.026,0.603 C -0.074,0.377 -0.102,0.143 -0.107,-0.101 Z"
         style="fill:#a7a5a6;fill-opacity:1;fill-rule:nonzero;stroke:none"
         id="path4307"
         inkscape:connector-curvature="0" /></g><g
       id="g4309"
       transform="matrix(3.6112646,0,0,3.6112646,246.26334,698.20417)"><path
         d="M 0,0 -0.093,-0.107 V -0.149 C 0.64,0.478 1.198,1.176 1.583,1.946 1.714,1.971 1.9,2.005 2.142,2.049 2.384,2.092 2.614,2.134 2.831,2.174 3.048,2.215 3.244,2.253 3.418,2.291 3.089,1.894 2.792,1.495 2.528,1.094 2.265,0.693 2.064,0.323 1.928,-0.019 1.791,-0.36 1.723,-0.665 1.723,-0.932 c 0,-0.453 0.087,-0.799 0.261,-1.038 0.174,-0.239 0.391,-0.359 0.652,-0.359 0.223,0 0.478,0.092 0.763,0.275 0.286,0.183 0.596,0.43 0.932,0.741 0.314,0.291 0.714,0.691 1.186,1.184 L 5.495,0.093 c 0,0.155 0.027,0.298 0.047,0.444 -0.901,-0.733 -1.541,-1.105 -1.91,-1.105 -0.36,0 -0.54,0.146 -0.54,0.438 0,0.211 0.112,0.524 0.335,0.94 0.224,0.416 0.5,0.801 0.829,1.155 0.28,0.291 0.476,0.514 0.592,0.666 0.114,0.152 0.172,0.293 0.172,0.423 0,0.205 -0.035,0.41 -0.103,0.615 -0.068,0.205 -0.155,0.335 -0.26,0.391 -0.05,0.025 -0.14,0.038 -0.27,0.038 -0.336,0 -1.143,-0.1 -2.422,-0.299 0.193,0.323 0.289,0.537 0.289,0.643 0,0.118 -0.062,0.177 -0.187,0.177 L 1.816,4.554 C 1.593,4.467 1.344,4.274 1.071,3.977 0.798,3.678 0.568,3.358 0.382,3.017 0.196,2.676 0.103,2.393 0.103,2.17 0.103,1.971 0.147,1.822 0.238,1.723 0.328,1.623 0.472,1.54 0.67,1.471 0.513,1.218 0.28,0.909 -0.011,0.559 L 0,0.568 Z"
         style="fill:#a7a5a6;fill-opacity:1;fill-rule:nonzero;stroke:none"
         id="path4311"
         inkscape:connector-curvature="0" /></g><g
       id="g4313"
       transform="matrix(3.6112646,0,0,3.6112646,245.92641,697.81597)"><path
         d="M 0,0 0.093,0.107 V 0.675 L 0.083,0.667 0,0.563 Z"
         style="fill:#a7a5a6;fill-opacity:1;fill-rule:nonzero;stroke:none"
         id="path4315"
         inkscape:connector-curvature="0" /></g><g
       id="g4317"
       transform="matrix(3.6112646,0,0,3.6112646,280.16301,715.2887)"><path
         d="M 0,0 C 0.292,0 0.565,0.161 0.82,0.484 1.074,0.807 1.202,1.102 1.202,1.369 1.202,1.586 1.139,1.752 1.015,1.867 0.891,1.982 0.736,2.04 0.549,2.04 0.27,2.04 0,1.872 -0.261,1.537 -0.521,1.201 -0.652,0.897 -0.652,0.624 c 0,-0.18 0.07,-0.33 0.21,-0.447 C -0.303,0.059 -0.155,0 0,0"
         style="fill:#a7a5a6;fill-opacity:1;fill-rule:nonzero;stroke:none"
         id="path4319"
         inkscape:connector-curvature="0" /></g><g
       id="g4321"
       transform="matrix(3.6112646,0,0,3.6112646,266.50954,698.06839)"><path
         d="m 0,0 -0.089,-0.092 c 0.026,-0.545 0.131,-1.059 0.35,-1.528 0.248,-0.534 0.627,-0.801 1.135,-0.801 0.367,0 0.811,0.197 1.333,0.591 0.476,0.36 0.988,0.888 1.532,1.568 l -0.005,0.085 c 0,0.248 0.03,0.484 0.073,0.714 C 3.813,0.105 3.381,-0.222 3.05,-0.424 2.699,-0.638 2.377,-0.745 2.086,-0.745 c -0.267,0 -0.484,0.075 -0.652,0.224 -0.168,0.148 -0.251,0.335 -0.251,0.559 0,0.26 0.082,0.493 0.246,0.698 0.165,0.205 0.517,0.568 1.057,1.09 0.193,0.179 0.411,0.481 0.657,0.903 0.245,0.422 0.368,0.732 0.368,0.931 0,0.292 -0.19,0.438 -0.568,0.438 C 2.21,4.098 1.403,3.412 0.521,2.04 0.335,1.735 0.208,1.512 0.14,1.369 0.071,1.226 0.012,1.044 -0.038,0.824 L -0.064,0.574 0,0.624 Z"
         style="fill:#a7a5a6;fill-opacity:1;fill-rule:nonzero;stroke:none"
         id="path4323"
         inkscape:connector-curvature="0" /></g><g
       id="g4325"
       transform="matrix(3.6112646,0,0,3.6112646,266.18706,697.73688)"><path
         d="M 0,0 0.089,0.092 V 0.716 L 0.025,0.666 C 0.005,0.52 -0.022,0.377 -0.022,0.222 Z"
         style="fill:#a7a5a6;fill-opacity:1;fill-rule:nonzero;stroke:none"
         id="path4327"
         inkscape:connector-curvature="0" /></g><g
       id="g4329"
       transform="matrix(3.6112646,0,0,3.6112646,289.31287,704.89585)"><path
         d="m 0,0 c 0.205,0.311 0.436,0.581 0.694,0.81 0.257,0.23 0.512,0.416 0.764,0.559 0.251,0.143 0.433,0.214 0.544,0.214 0.13,0 0.196,-0.071 0.196,-0.214 C 2.198,1.232 2.103,1.017 1.914,0.722 1.724,0.427 1.431,0.118 1.034,-0.205 0.636,-0.528 0.158,-0.798 -0.4,-1.015 -0.338,-0.649 -0.205,-0.311 0,0 m -1.9,-1.965 -0.153,-0.188 c 0.012,-0.702 0.169,-1.264 0.479,-1.675 0.323,-0.428 0.761,-0.642 1.313,-0.642 0.634,0 1.258,0.225 1.872,0.675 0.615,0.45 1.273,1.097 1.974,1.942 v 0.568 C 3.12,-1.683 2.726,-1.999 2.403,-2.235 2.08,-2.471 1.755,-2.661 1.429,-2.803 1.104,-2.946 0.788,-3.018 0.484,-3.018 c -0.292,0 -0.527,0.103 -0.708,0.308 -0.18,0.205 -0.27,0.49 -0.27,0.857 v 0.232 c 0.876,0.354 1.613,0.723 2.212,1.104 0.599,0.382 1.045,0.767 1.337,1.155 0.291,0.388 0.437,0.778 0.437,1.169 0,0.267 -0.085,0.467 -0.256,0.6 -0.171,0.134 -0.402,0.2 -0.694,0.2 C 2.176,2.607 1.76,2.505 1.294,2.3 0.829,2.095 0.36,1.791 -0.112,1.388 -0.801,0.798 -1.298,0.237 -1.602,-0.293 -1.791,-0.623 -1.914,-0.978 -1.985,-1.354 l 0.085,0.069 z"
         style="fill:#a7a5a6;fill-opacity:1;fill-rule:nonzero;stroke:none"
         id="path4331"
         inkscape:connector-curvature="0" /></g><g
       id="g4333"
       transform="matrix(3.6112646,0,0,3.6112646,281.89822,697.12151)"><path
         d="m 0,0 0.153,0.188 v 0.68 L 0.068,0.799 C 0.024,0.569 -0.005,0.333 -0.005,0.085 Z"
         style="fill:#a7a5a6;fill-opacity:1;fill-rule:nonzero;stroke:none"
         id="path4335"
         inkscape:connector-curvature="0" /></g><g
       id="g4337"
       transform="matrix(3.6112646,0,0,3.6112646,135.94174,720.33003)"><path
         d="M 0,0 C 0.292,0 0.717,0.313 1.276,0.94 1.363,1.034 1.451,1.126 1.542,1.22 1.631,1.313 1.705,1.36 1.76,1.36 1.841,1.36 1.903,1.294 1.947,1.164 2.151,0.804 2.359,0.523 2.57,0.321 2.781,0.119 2.968,0.019 3.129,0.019 c 0.1,0 0.182,0.043 0.247,0.13 0.065,0.087 0.098,0.177 0.098,0.27 0,0.13 -0.062,0.435 -0.186,0.913 C 3.164,1.81 3.027,2.201 2.878,2.505 2.71,2.859 2.484,3.036 2.198,3.036 1.912,3.036 1.569,2.851 1.169,2.482 0.769,2.112 0.404,1.701 0.075,1.248 -0.254,0.794 -0.419,0.5 -0.419,0.363 -0.419,0.121 -0.279,0 0,0"
         style="fill:#a7a5a6;fill-opacity:1;fill-rule:nonzero;stroke:none"
         id="path4339"
         inkscape:connector-curvature="0" /></g></g></svg>