<?xml version="1.0" encoding="UTF-8" standalone="no"?>
<!-- Created with Inkscape (http://www.inkscape.org/) -->

<svg
   xmlns:dc="http://purl.org/dc/elements/1.1/"
   xmlns:cc="http://creativecommons.org/ns#"
   xmlns:rdf="http://www.w3.org/1999/02/22-rdf-syntax-ns#"
   xmlns:svg="http://www.w3.org/2000/svg"
   xmlns="http://www.w3.org/2000/svg"
   xmlns:sodipodi="http://sodipodi.sourceforge.net/DTD/sodipodi-0.dtd"
   xmlns:inkscape="http://www.inkscape.org/namespaces/inkscape"
   id="svg4155"
   version="1.1"
   inkscape:version="0.92.2 5c3e80d, 2017-08-06"
   xml:space="preserve"
   width="692.58185"
   height="293.05011"
   viewBox="0 0 692.58183 293.05011"
   sodipodi:docname="pia-logo.svg"><metadata
     id="metadata4161"><rdf:RDF><cc:Work
         rdf:about=""><dc:format>image/svg+xml</dc:format><dc:type
           rdf:resource="http://purl.org/dc/dcmitype/StillImage" /><dc:title /></cc:Work></rdf:RDF></metadata><defs
     id="defs4159"><clipPath
       clipPathUnits="userSpaceOnUse"
       id="clipPath4171"><path
         d="M 0,733.271 H 1013.12 V 0 H 0 Z"
         id="path4173"
         inkscape:connector-curvature="0" /></clipPath><radialGradient
       fx="0"
       fy="0"
       cx="0"
       cy="0"
       r="1"
       gradientUnits="userSpaceOnUse"
       gradientTransform="matrix(-41.494541,-27.611081,-27.611081,41.494541,441.22938,91.037613)"
       spreadMethod="pad"
       id="radialGradient4283"><stop
         style="stop-opacity:1;stop-color:#23ff16"
         offset="0"
         id="stop4285" /><stop
         style="stop-opacity:1;stop-color:#23ff16"
         offset="0.67307655"
         id="stop4287" /><stop
         style="stop-opacity:1;stop-color:#1ac50f"
         offset="1"
         id="stop4289" /></radialGradient><clipPath
       clipPathUnits="userSpaceOnUse"
       id="clipPath4297"><path
         d="M 0,733.271 H 1013.12 V 0 H 0 Z"
         id="path4299"
         inkscape:connector-curvature="0" /></clipPath><linearGradient
       x1="0"
       y1="0"
       x2="1"
       y2="0"
       gradientUnits="userSpaceOnUse"
       gradientTransform="matrix(3.5147278,5.2820101,-5.2820101,3.5147278,590.70184,425.25067)"
       spreadMethod="pad"
       id="linearGradient4321"><stop
         style="stop-opacity:1;stop-color:#23ff16"
         offset="0"
         id="stop4323" /><stop
         style="stop-opacity:1;stop-color:#91ff8a"
         offset="1"
         id="stop4325" /></linearGradient><clipPath
       clipPathUnits="userSpaceOnUse"
       id="clipPath4333"><path
         d="M 0,733.271 H 1013.12 V 0 H 0 Z"
         id="path4335"
         inkscape:connector-curvature="0" /></clipPath><linearGradient
       x1="0"
       y1="0"
       x2="1"
       y2="0"
       gradientUnits="userSpaceOnUse"
       gradientTransform="matrix(2.3369191,-15.839518,15.839518,2.3369191,596.15643,400.54987)"
       spreadMethod="pad"
       id="linearGradient4373"><stop
         style="stop-opacity:1;stop-color:#23ff16"
         offset="0"
         id="stop4375" /><stop
         style="stop-opacity:1;stop-color:#189a33"
         offset="1"
         id="stop4377" /></linearGradient><clipPath
       clipPathUnits="userSpaceOnUse"
       id="clipPath4385"><path
         d="M 0,733.271 H 1013.12 V 0 H 0 Z"
         id="path4387"
         inkscape:connector-curvature="0" /></clipPath><clipPath
       clipPathUnits="userSpaceOnUse"
       id="clipPath4407"><path
         d="M 242.202,493.805 H 379.181 V 356.827 H 242.202 Z"
         id="path4409"
         inkscape:connector-curvature="0" /></clipPath><linearGradient
       x1="0"
       y1="0"
       x2="1"
       y2="0"
       gradientUnits="userSpaceOnUse"
       gradientTransform="matrix(0,-136.97835,-136.97835,0,305.24005,500.34647)"
       spreadMethod="pad"
       id="linearGradient4431"><stop
         style="stop-opacity:1;stop-color:#96ef75"
         offset="0"
         id="stop4433" /><stop
         style="stop-opacity:1;stop-color:#52f752"
         offset="0.182737"
         id="stop4435" /><stop
         style="stop-opacity:1;stop-color:#1bc91b"
         offset="0.516901"
         id="stop4437" /><stop
         style="stop-opacity:1;stop-color:#047204"
         offset="1"
         id="stop4439" /></linearGradient><clipPath
       clipPathUnits="userSpaceOnUse"
       id="clipPath4447"><path
         d="M 0,733.271 H 1013.12 V 0 H 0 Z"
         id="path4449"
         inkscape:connector-curvature="0" /></clipPath></defs><sodipodi:namedview
     pagecolor="#a2a2a2"
     bordercolor="#666666"
     borderopacity="1"
     objecttolerance="10"
     gridtolerance="10"
     guidetolerance="10"
     inkscape:pageopacity="1"
     inkscape:pageshadow="2"
     inkscape:window-width="1918"
     inkscape:window-height="2136"
     id="namedview4157"
     showgrid="false"
     fit-margin-top="0"
     fit-margin-left="0"
     fit-margin-right="0"
     fit-margin-bottom="0"
     inkscape:zoom="1.8874332"
     inkscape:cx="332.66144"
     inkscape:cy="163.34813"
     inkscape:window-x="3840"
     inkscape:window-y="22"
     inkscape:window-maximized="0"
     inkscape:current-layer="g4163" /><g
     id="g4163"
     inkscape:groupmode="layer"
     inkscape:label="PIA_logo_white"
     transform="matrix(1.25,0,0,-1.25,-292.885,628.486)"><path
       inkscape:connector-curvature="0"
       id="path4177"
       style="fill:#ffffff;fill-opacity:1;fill-rule:nonzero;stroke:none"
       d="m 445.4546,275.7906 v 2.297 c -0.724,0.974 -1.998,1.474 -3.296,1.474 -1.773,0 -2.997,-1.099 -2.997,-2.622 0,-1.549 1.224,-2.647 2.997,-2.647 1.298,0 2.572,0.499 3.296,1.498 m 0,-2.547 v 1.373 c -0.974,-1.099 -2.372,-1.673 -3.996,-1.673 -2.022,0 -4.195,1.374 -4.195,3.996 0,2.722 2.148,3.97 4.195,3.97 1.649,0 3.022,-0.524 3.996,-1.623 v 2.173 c 0,1.598 -1.299,2.522 -3.047,2.522 -1.448,0 -2.622,-0.5 -3.696,-1.673 l -0.874,1.298 c 1.299,1.349 2.847,1.998 4.82,1.998 2.572,0 4.67,-1.149 4.67,-4.07 v -8.291 z" /><path
       d="m 457.566,289.9 h 1.873 v -16.657 h -1.873 z"
       style="fill:#ffffff;fill-opacity:1;fill-rule:nonzero;stroke:none"
       id="path4179"
       inkscape:connector-curvature="0" /><path
       inkscape:connector-curvature="0"
       id="path4183"
       style="fill:#ffffff;fill-opacity:1;fill-rule:nonzero;stroke:none"
       d="m 472.4489,279.2867 c 0,2.447 -1.423,4.645 -3.996,4.645 -2.572,0 -3.995,-2.198 -3.995,-4.645 0,-2.472 1.423,-4.67 3.995,-4.67 2.573,0 3.996,2.198 3.996,4.67 m -9.964,0 c 0,3.496 2.297,6.318 5.968,6.318 3.671,0 5.969,-2.822 5.969,-6.318 0,-3.496 -2.298,-6.343 -5.969,-6.343 -3.671,0 -5.968,2.847 -5.968,6.343" /><path
       inkscape:connector-curvature="0"
       id="path4187"
       style="fill:#ffffff;fill-opacity:1;fill-rule:nonzero;stroke:none"
       d="m 485.6339,273.2434 v 7.891 c 0,2.148 -1.099,2.797 -2.722,2.797 -1.473,0 -2.847,-0.899 -3.571,-1.873 v -8.815 h -1.873 v 12.062 h 1.873 v -1.748 c 0.849,1.024 2.497,2.047 4.32,2.047 2.497,0 3.821,-1.273 3.821,-3.895 v -8.466 z" /><path
       inkscape:connector-curvature="0"
       id="path4191"
       style="fill:#ffffff;fill-opacity:1;fill-rule:nonzero;stroke:none"
       d="m 499.9925,276.5397 v 5.444 c -0.649,1.049 -2.123,1.948 -3.596,1.948 -2.447,0 -3.896,-1.998 -3.896,-4.67 0,-2.672 1.449,-4.645 3.896,-4.645 1.473,0 2.947,0.874 3.596,1.923 m 0,-3.296 v 1.798 c -0.899,-1.224 -2.372,-2.098 -4.071,-2.098 -3.146,0 -5.369,2.397 -5.369,6.318 0,3.871 2.223,6.343 5.369,6.343 1.624,0 3.097,-0.799 4.071,-2.123 v 6.418 h 1.873 v -16.656 z" /><path
       inkscape:connector-curvature="0"
       id="path4195"
       style="fill:#ffffff;fill-opacity:1;fill-rule:nonzero;stroke:none"
       d="m 514.8758,279.2867 c 0,2.447 -1.424,4.645 -3.996,4.645 -2.572,0 -3.995,-2.198 -3.995,-4.645 0,-2.472 1.423,-4.67 3.995,-4.67 2.572,0 3.996,2.198 3.996,4.67 m -9.964,0 c 0,3.496 2.297,6.318 5.968,6.318 3.671,0 5.969,-2.822 5.969,-6.318 0,-3.496 -2.298,-6.343 -5.969,-6.343 -3.671,0 -5.968,2.847 -5.968,6.343" /><path
       inkscape:connector-curvature="0"
       id="path4199"
       style="fill:#ffffff;fill-opacity:1;fill-rule:nonzero;stroke:none"
       d="m 528.0607,273.2434 v 7.891 c 0,2.148 -1.099,2.797 -2.722,2.797 -1.473,0 -2.847,-0.899 -3.571,-1.873 v -8.815 h -1.873 v 12.062 h 1.873 v -1.748 c 0.849,1.024 2.497,2.047 4.32,2.047 2.497,0 3.821,-1.273 3.821,-3.895 v -8.466 z" /><path
       inkscape:connector-curvature="0"
       id="path4203"
       style="fill:#ffffff;fill-opacity:1;fill-rule:nonzero;stroke:none"
       d="m 534.0035,276.4898 v 5.494 h -1.998 v 3.321 h 1.998 v 3.297 h 3.846 v -3.297 h 2.447 v -3.321 h -2.447 v -4.42 c 0,-0.699 0.399,-1.224 1.049,-1.224 0.424,0 0.849,0.15 0.974,0.3 l 0.749,-2.897 c -0.475,-0.449 -1.424,-0.799 -2.847,-0.799 -2.447,0 -3.771,1.224 -3.771,3.546" /><path
       inkscape:connector-curvature="0"
       id="path4207"
       style="fill:#ffffff;fill-opacity:1;fill-rule:nonzero;stroke:none"
       d="m 542.194,273.2434 v 12.062 h 3.846 v -1.474 c 0.799,0.974 2.347,1.798 3.771,1.798 v -3.696 c -0.225,0.075 -0.55,0.1 -0.949,0.1 -0.999,0 -2.323,-0.424 -2.822,-1.098 v -7.692 z" /><path
       inkscape:connector-curvature="0"
       id="path4211"
       style="fill:#ffffff;fill-opacity:1;fill-rule:nonzero;stroke:none"
       d="m 559.6996,273.2434 v 1.448 c -0.749,-0.849 -2.123,-1.748 -4.17,-1.748 -2.722,0 -3.971,1.574 -3.971,3.771 v 8.591 h 3.846 v -6.993 c 0,-1.473 0.749,-1.972 1.998,-1.972 1.098,0 1.847,0.599 2.297,1.173 v 7.792 h 3.846 v -12.062 z" /><path
       inkscape:connector-curvature="0"
       id="path4215"
       style="fill:#ffffff;fill-opacity:1;fill-rule:nonzero;stroke:none"
       d="m 565.3179,274.8167 1.598,2.747 c 0.899,-0.799 2.822,-1.623 4.246,-1.623 1.148,0 1.623,0.324 1.623,0.849 0,1.498 -7.017,-0.05 -7.017,4.845 0,2.122 1.848,3.97 5.169,3.97 2.048,0 3.746,-0.649 5.044,-1.598 l -1.473,-2.722 c -0.724,0.699 -2.098,1.323 -3.546,1.323 -0.899,0 -1.498,-0.349 -1.498,-0.824 0,-1.323 6.992,0.05 6.992,-4.894 0,-2.298 -2.023,-3.946 -5.469,-3.946 -2.173,0 -4.395,0.724 -5.669,1.873" /><path
       inkscape:connector-curvature="0"
       id="path4219"
       style="fill:#ffffff;fill-opacity:1;fill-rule:nonzero;stroke:none"
       d="m 579.2273,276.4898 v 5.494 h -1.998 v 3.321 h 1.998 v 3.297 h 3.846 v -3.297 h 2.447 v -3.321 h -2.447 v -4.42 c 0,-0.699 0.399,-1.224 1.049,-1.224 0.424,0 0.849,0.15 0.973,0.3 l 0.75,-2.897 c -0.475,-0.449 -1.424,-0.799 -2.847,-0.799 -2.448,0 -3.771,1.224 -3.771,3.546" /><path
       inkscape:connector-curvature="0"
       id="path4223"
       style="fill:#ffffff;fill-opacity:1;fill-rule:nonzero;stroke:none"
       d="m 602.4512,273.2434 v 8.191 c 0,1.523 -0.649,2.497 -2.223,2.497 -1.248,0 -2.572,-0.874 -3.196,-1.848 v -8.84 h -1.873 v 8.191 c 0,1.523 -0.624,2.497 -2.223,2.497 -1.223,0 -2.522,-0.899 -3.171,-1.873 v -8.815 h -1.873 v 12.062 h 1.873 v -1.748 c 0.524,0.774 2.123,2.047 3.921,2.047 1.823,0 2.871,-0.998 3.221,-2.247 0.674,1.099 2.297,2.247 4.046,2.247 2.197,0 3.371,-1.223 3.371,-3.646 v -8.715 z" /><path
       inkscape:connector-curvature="0"
       id="path4227"
       style="fill:#ffffff;fill-opacity:1;fill-rule:nonzero;stroke:none"
       d="m 613.2888,284.0565 c -2.572,0 -3.846,-2.173 -3.946,-3.996 h 7.917 c -0.025,1.773 -1.224,3.996 -3.971,3.996 m -5.919,-4.77 c 0,3.496 2.498,6.318 5.944,6.318 3.646,0 5.794,-2.847 5.794,-6.468 v -0.474 h -9.74 c 0.15,-2.273 1.723,-4.17 4.321,-4.17 1.398,0 2.772,0.549 3.745,1.548 l 0.899,-1.224 c -1.223,-1.199 -2.846,-1.873 -4.794,-1.873 -3.596,0 -6.169,2.572 -6.169,6.343" /><path
       inkscape:connector-curvature="0"
       id="path4231"
       style="fill:#ffffff;fill-opacity:1;fill-rule:nonzero;stroke:none"
       d="m 630.8688,276.5397 v 5.444 c -0.649,1.049 -2.123,1.948 -3.596,1.948 -2.447,0 -3.896,-1.998 -3.896,-4.67 0,-2.672 1.449,-4.645 3.896,-4.645 1.473,0 2.947,0.874 3.596,1.923 m 0,-3.296 v 1.798 c -0.899,-1.224 -2.372,-2.098 -4.07,-2.098 -3.147,0 -5.37,2.397 -5.37,6.318 0,3.871 2.223,6.343 5.37,6.343 1.623,0 3.096,-0.799 4.07,-2.123 v 6.418 h 1.873 v -16.656 z" /><path
       d="m 636.487,285.305 h 1.873 v -12.062 h -1.873 z m -0.324,2.972 c 0,0.699 0.574,1.273 1.273,1.273 0.699,0 1.249,-0.574 1.249,-1.273 0,-0.699 -0.55,-1.249 -1.249,-1.249 -0.699,0 -1.273,0.55 -1.273,1.249"
       style="fill:#ffffff;fill-opacity:1;fill-rule:nonzero;stroke:none"
       id="path4233"
       inkscape:connector-curvature="0" /><path
       inkscape:connector-curvature="0"
       id="path4237"
       style="fill:#ffffff;fill-opacity:1;fill-rule:nonzero;stroke:none"
       d="m 649.6475,275.7906 v 2.297 c -0.724,0.974 -1.998,1.474 -3.296,1.474 -1.773,0 -2.997,-1.099 -2.997,-2.622 0,-1.549 1.224,-2.647 2.997,-2.647 1.298,0 2.572,0.499 3.296,1.498 m 0,-2.547 v 1.373 c -0.974,-1.099 -2.372,-1.673 -3.996,-1.673 -2.022,0 -4.195,1.374 -4.195,3.996 0,2.722 2.148,3.97 4.195,3.97 1.649,0 3.022,-0.524 3.996,-1.623 v 2.173 c 0,1.598 -1.299,2.522 -3.047,2.522 -1.448,0 -2.622,-0.5 -3.695,-1.673 l -0.875,1.298 c 1.299,1.349 2.847,1.998 4.82,1.998 2.572,0 4.67,-1.149 4.67,-4.07 v -8.291 z" /><path
       inkscape:connector-curvature="0"
       id="path4241"
       style="fill:#ffffff;fill-opacity:1;fill-rule:nonzero;stroke:none"
       d="m 661.0592,279.2867 c 0,3.571 2.422,6.318 6.018,6.318 2.198,0 3.497,-0.899 4.42,-2.098 l -1.248,-1.123 c -0.799,1.098 -1.823,1.548 -3.072,1.548 -2.547,0 -4.17,-1.973 -4.17,-4.645 0,-2.672 1.623,-4.67 4.17,-4.67 1.249,0 2.273,0.5 3.072,1.573 l 1.248,-1.148 c -0.923,-1.199 -2.222,-2.098 -4.42,-2.098 -3.596,0 -6.018,2.772 -6.018,6.343" /><path
       inkscape:connector-curvature="0"
       id="path4245"
       style="fill:#ffffff;fill-opacity:1;fill-rule:nonzero;stroke:none"
       d="m 683.4091,279.2867 c 0,2.447 -1.423,4.645 -3.996,4.645 -2.572,0 -3.995,-2.198 -3.995,-4.645 0,-2.472 1.423,-4.67 3.995,-4.67 2.573,0 3.996,2.198 3.996,4.67 m -9.964,0 c 0,3.496 2.297,6.318 5.968,6.318 3.671,0 5.969,-2.822 5.969,-6.318 0,-3.496 -2.298,-6.343 -5.969,-6.343 -3.671,0 -5.968,2.847 -5.968,6.343" /><path
       inkscape:connector-curvature="0"
       id="path4249"
       style="fill:#ffffff;fill-opacity:1;fill-rule:nonzero;stroke:none"
       d="m 702.987,273.2434 v 8.191 c 0,1.523 -0.649,2.497 -2.223,2.497 -1.248,0 -2.572,-0.874 -3.196,-1.848 v -8.84 h -1.873 v 8.191 c 0,1.523 -0.624,2.497 -2.223,2.497 -1.223,0 -2.522,-0.899 -3.171,-1.873 v -8.815 h -1.873 v 12.062 h 1.873 v -1.748 c 0.524,0.774 2.123,2.047 3.921,2.047 1.823,0 2.872,-0.998 3.221,-2.247 0.674,1.099 2.298,2.247 4.046,2.247 2.197,0 3.371,-1.223 3.371,-3.646 v -8.715 z" /><path
       inkscape:connector-curvature="0"
       id="path4253"
       style="fill:#ffffff;fill-opacity:1;fill-rule:nonzero;stroke:none"
       d="m 717.9452,279.2867 c 0,2.672 -1.448,4.645 -3.871,4.645 -1.473,0 -2.947,-0.874 -3.596,-1.923 v -5.444 c 0.649,-1.049 2.123,-1.948 3.596,-1.948 2.423,0 3.871,1.998 3.871,4.67 m -7.467,-4.22 v -6.418 h -1.873 v 16.656 h 1.873 v -1.798 c 0.874,1.224 2.373,2.098 4.071,2.098 3.171,0 5.369,-2.397 5.369,-6.318 0,-3.896 -2.198,-6.343 -5.369,-6.343 -1.648,0 -3.072,0.799 -4.071,2.123" /><path
       inkscape:connector-curvature="0"
       id="path4257"
       style="fill:#ffffff;fill-opacity:1;fill-rule:nonzero;stroke:none"
       d="m 730.4308,275.7906 v 2.297 c -0.724,0.974 -1.998,1.474 -3.296,1.474 -1.773,0 -2.997,-1.099 -2.997,-2.622 0,-1.549 1.224,-2.647 2.997,-2.647 1.298,0 2.572,0.499 3.296,1.498 m 0,-2.547 v 1.373 c -0.974,-1.099 -2.372,-1.673 -3.996,-1.673 -2.022,0 -4.195,1.374 -4.195,3.996 0,2.722 2.148,3.97 4.195,3.97 1.649,0 3.022,-0.524 3.996,-1.623 v 2.173 c 0,1.598 -1.299,2.522 -3.047,2.522 -1.448,0 -2.622,-0.5 -3.695,-1.673 l -0.875,1.298 c 1.299,1.349 2.847,1.998 4.82,1.998 2.572,0 4.67,-1.149 4.67,-4.07 v -8.291 z" /><path
       inkscape:connector-curvature="0"
       id="path4261"
       style="fill:#ffffff;fill-opacity:1;fill-rule:nonzero;stroke:none"
       d="m 744.2404,273.2434 v 7.891 c 0,2.148 -1.099,2.797 -2.722,2.797 -1.473,0 -2.847,-0.899 -3.571,-1.873 v -8.815 h -1.873 v 12.062 h 1.873 v -1.748 c 0.849,1.024 2.497,2.047 4.32,2.047 2.497,0 3.821,-1.273 3.821,-3.895 v -8.466 z" /><path
       inkscape:connector-curvature="0"
       id="path4265"
       style="fill:#ffffff;fill-opacity:1;fill-rule:nonzero;stroke:none"
       d="m 749.484,270.2217 c 0.275,-0.125 0.724,-0.2 1.024,-0.2 0.824,0 1.373,0.275 1.798,1.274 l 0.799,1.823 -5.044,12.186 h 2.047 l 3.996,-9.889 4.021,9.889 h 2.022 l -6.043,-14.509 c -0.724,-1.748 -1.948,-2.422 -3.546,-2.447 -0.4,0 -1.024,0.075 -1.349,0.175 z" /><path
       style="fill:#ffffff;stroke:none"
       d="m 451.4668,41.433594 c -5.4975,0 -10.93782,1.32164 -15.82032,3.86914 v 15.326172 c 7.055,-8.0275 19.13289,-9.800547 28.2754,-3.716797 9.96749,6.6325 12.67156,20.089141 6.03906,30.056641 l -3.52149,5.292969 -30.79297,-20.490235 v 78.476566 l 1.60743,1.06836 c 1.32375,0.86375 2.21929,0.73296 2.96679,0.38671 0.73375,-0.36 1.27274,-1.05039 1.45899,-1.33789 0.0588,-0.09 0.0781,-0.12695 0.0781,-0.12695 l 0.0215,-0.0371 10.95312,-14.39062 6.69922,4.45507 c 1.74625,1.15751 2.79406,1.39376 3.63281,1.09376 0.86875,-0.28625 1.78602,-1.3036 2.94727,-3.0586 l 17.83398,-26.80469 c 2.18125,-3.29125 1.27532,-7.72593 -2.02343,-9.92968 l -4.55274,-3.027348 2.76953,-4.164062 c 10.36625,-15.63875 6.07156,-36.728281 -9.61718,-47.207031 -5.85,-3.8775 -12.44258,-5.734375 -18.95508,-5.734375 z"
       id="path4291"
       transform="matrix(0.8,0,0,-0.8,234.308,502.7888)"
       inkscape:connector-curvature="0" /><path
       inkscape:connector-curvature="0"
       id="path4303"
       style="fill:#ffffff;fill-opacity:1;fill-rule:nonzero;stroke:none"
       d="m 582.8248,404.0902 13.215,-8.793 -0.961,-1.443 -12.254,8.154 z" /><path
       inkscape:connector-curvature="0"
       id="path4343"
       style="fill:#ffffff;fill-opacity:1;fill-rule:nonzero;stroke:none"
       d="m 602.3433,447.946 c -0.98,-1.473 -0.581,-3.462 0.893,-4.443 1.474,-0.981 3.462,-0.581 4.442,0.893 0.981,1.474 0.582,3.461 -0.892,4.442 -1.474,0.981 -3.462,0.582 -4.443,-0.892" /><path
       inkscape:connector-curvature="0"
       id="path4347"
       style="fill:#ffffff;fill-opacity:1;fill-rule:nonzero;stroke:none"
       d="m 592.8324,454.2747 c -0.98,-1.473 -0.579,-3.464 0.894,-4.444 1.473,-0.98 3.461,-0.579 4.441,0.894 0.981,1.474 0.582,3.461 -0.891,4.441 -1.473,0.98 -3.463,0.583 -4.444,-0.891" /><path
       inkscape:connector-curvature="0"
       id="path4351"
       style="fill:#ffffff;fill-opacity:1;fill-rule:nonzero;stroke:none"
       d="m 582.8248,422.1601 4.676,-3.112 -4.676,-7.028 z" /><path
       inkscape:connector-curvature="0"
       id="path4355"
       style="fill:#ffffff;fill-opacity:1;fill-rule:nonzero;stroke:none"
       d="m 582.8248,427.6687 c 0.966,-0.041 1.93,-0.334 2.792,-0.907 2.229,-1.485 3,-4.319 2.045,-6.758 l -1.15,0.766 c 0.58,1.817 -0.035,3.822 -1.63,4.888 -0.632,0.419 -1.341,0.639 -2.057,0.677 z" /><path
       d="m 593.474,386.936 1.47,-0.978 c 2.474,-1.647 5.831,-0.951 7.498,1.553 v 0 l 0.27,0.406 c -0.318,0.162 -0.65,0.359 -1.001,0.594 v 0 l -4.673,3.111 z"
       style="fill:#ffffff;stroke:none"
       id="path4379"
       inkscape:connector-curvature="0" /><path
       inkscape:connector-curvature="0"
       id="path4391"
       style="fill:#ffffff;fill-opacity:1;fill-rule:nonzero;stroke:none"
       d="m 602.0885,438.4724 c -5.749,0.156 -10.922,3.524 -13.391,8.714 0.502,0.239 1.003,0.477 1.505,0.716 2.2,-4.624 6.809,-7.625 11.932,-7.764 -0.016,-0.555 -0.031,-1.111 -0.046,-1.666" /><path
       inkscape:connector-curvature="0"
       id="path4395"
       style="fill:#ffffff;fill-opacity:1;fill-rule:nonzero;stroke:none"
       d="m 487.2201,451.5654 c 0,6.789 -5.092,9.995 -11.505,9.995 h -24.14 v -19.802 h 24.14 c 6.413,0 11.505,3.206 11.505,9.807 m -73.74,-82.604 v 125.792 h 67.139 c 29.421,0 45.262,-19.614 45.262,-43.188 0,-23.386 -15.841,-42.999 -45.262,-42.999 h -29.044 v -39.605 z" /><path
       inkscape:connector-curvature="0"
       id="path4401"
       style="fill:#ffffff;fill-opacity:1;fill-rule:nonzero;stroke:none"
       d="m 685.3986,457.4118 -12.447,-40.548 h 24.894 z m 27.157,-88.45 -4.526,14.71 h -45.262 l -4.526,-14.71 h -43.189 l 46.394,125.791 h 47.903 l 46.394,-125.791 z" /><path
       inkscape:connector-curvature="0"
       id="path4453"
       style="fill:#ffffff;fill-opacity:1;fill-rule:nonzero;stroke:none"
       d="m 305.24,497.9038 c -8.917,0 -17.567,-1.746 -25.707,-5.189 -7.865,-3.327 -14.929,-8.089 -20.995,-14.156 -6.066,-6.066 -10.829,-13.13 -14.155,-20.994 -3.444,-8.141 -5.189,-16.79 -5.189,-25.708 0,-8.917 1.745,-17.566 5.189,-25.707 3.326,-7.865 8.089,-14.928 14.155,-20.994 6.066,-6.067 13.13,-10.829 20.995,-14.156 8.14,-3.443 16.79,-5.189 25.707,-5.189 8.917,0 17.567,1.746 25.708,5.189 7.864,3.327 14.928,8.089 20.994,14.156 6.066,6.066 10.829,13.129 14.155,20.994 3.444,8.141 5.19,16.79 5.19,25.707 0,8.918 -1.746,17.567 -5.19,25.708 -3.326,7.864 -8.089,14.928 -14.155,20.994 -6.066,6.067 -13.13,10.829 -20.994,14.156 -8.141,3.443 -16.791,5.189 -25.708,5.189 m 0,-136.978 c -9.575,0 -18.864,1.875 -27.611,5.575 -8.446,3.573 -16.032,8.687 -22.545,15.2 -6.514,6.514 -11.628,14.099 -15.201,22.546 -3.699,8.746 -5.575,18.036 -5.575,27.61 0,9.575 1.876,18.865 5.575,27.611 3.573,8.447 8.687,16.032 15.201,22.546 6.513,6.513 14.099,11.627 22.545,15.2 8.747,3.7 18.036,5.575 27.611,5.575 9.575,0 18.864,-1.875 27.611,-5.575 8.446,-3.573 16.032,-8.687 22.545,-15.2 6.514,-6.514 11.628,-14.099 15.201,-22.546 3.699,-8.746 5.575,-18.036 5.575,-27.611 0,-9.574 -1.876,-18.864 -5.575,-27.61 -3.573,-8.447 -8.687,-16.032 -15.201,-22.546 -6.513,-6.513 -14.099,-11.627 -22.545,-15.2 -8.747,-3.7 -18.036,-5.575 -27.611,-5.575" /><path
       inkscape:connector-curvature="0"
       id="path4457"
       style="fill:#ffffff;fill-opacity:1;fill-rule:nonzero;stroke:none"
       d="m 314.4487,443.4235 h -17.88 v 6.86 c 0,4.892 4.048,8.873 8.94,8.873 4.892,0 8.94,-3.981 8.94,-8.873 z m 16.122,0 h -4.202 v 6.86 c 0,11.354 -9.506,20.59 -20.86,20.59 -11.353,0 -20.86,-9.236 -20.86,-20.59 v -6.86 h -4.632 c -0.924,0 -2.073,-1.579 -2.073,-2.503 v -37.497 c 0,-0.924 1.149,-1.72 2.073,-1.72 h 50.554 c 0.924,0 2.503,0.796 2.503,1.72 v 37.497 c 0,0.924 -1.579,2.503 -2.503,2.503" /><path
       inkscape:connector-curvature="0"
       id="path4461"
       style="fill:#ffffff;fill-opacity:1;fill-rule:nonzero;stroke:none"
       d="m 258.0541,319.4866 c 0,6.559 -3.42,11.549 -9.474,11.549 -3.756,0 -7.344,-2.243 -8.914,-4.822 v -13.398 c 1.57,-2.579 5.158,-4.934 8.914,-4.934 6.054,0 9.474,5.046 9.474,11.605 m -18.388,-9.194 v -14.688 h -2.915 v 37.393 h 2.915 v -4.261 c 1.906,2.747 5.382,4.933 9.418,4.933 7.232,0 12.109,-5.494 12.109,-14.183 0,-8.633 -4.877,-14.24 -12.109,-14.24 -3.812,0 -7.232,1.963 -9.418,5.046" /><path
       inkscape:connector-curvature="0"
       id="path4465"
       style="fill:#ffffff;fill-opacity:1;fill-rule:nonzero;stroke:none"
       d="m 268.5363,305.9199 v 27.077 h 2.915 v -4.653 c 2.299,3.028 5.382,5.214 9.138,5.214 v -3.195 c -0.504,0.112 -0.897,0.112 -1.457,0.112 -2.747,0 -6.447,-2.467 -7.681,-4.822 v -19.733 z" /><path
       d="m 286.307,332.997 h 2.915 V 305.92 h -2.915 z m -0.785,6.503 c 0,1.234 1.065,2.187 2.242,2.187 1.234,0 2.243,-0.953 2.243,-2.187 0,-1.233 -1.009,-2.242 -2.243,-2.242 -1.177,0 -2.242,1.009 -2.242,2.242"
       style="fill:#ffffff;fill-opacity:1;fill-rule:nonzero;stroke:none"
       id="path4467"
       inkscape:connector-curvature="0" /><path
       inkscape:connector-curvature="0"
       id="path4471"
       style="fill:#ffffff;fill-opacity:1;fill-rule:nonzero;stroke:none"
       d="m 305.5908,305.9199 -11.436,27.077 h 3.251 l 9.867,-23.657 9.754,23.657 h 3.308 l -11.436,-27.077 z" /><path
       inkscape:connector-curvature="0"
       id="path4475"
       style="fill:#ffffff;fill-opacity:1;fill-rule:nonzero;stroke:none"
       d="m 342.478,311.2456 v 5.943 c -1.906,2.522 -4.933,3.756 -8.185,3.756 -4.429,0 -7.4,-2.86 -7.4,-6.728 0,-3.812 2.971,-6.671 7.4,-6.671 3.252,0 6.279,1.233 8.185,3.7 m 0,-5.326 v 3.196 c -2.411,-2.635 -5.438,-3.869 -9.194,-3.869 -4.653,0 -9.474,3.196 -9.474,9.026 0,5.887 4.765,8.97 9.474,8.97 3.756,0 6.839,-1.233 9.194,-3.868 v 5.494 c 0,4.036 -3.252,6.223 -7.232,6.223 -3.42,0 -6.054,-1.178 -8.521,-3.981 l -1.626,2.019 c 2.803,3.027 5.943,4.54 10.427,4.54 5.494,0 9.867,-2.634 9.867,-8.689 v -19.061 z" /><path
       inkscape:connector-curvature="0"
       id="path4479"
       style="fill:#ffffff;fill-opacity:1;fill-rule:nonzero;stroke:none"
       d="m 355.035,311.1335 v 19.285 h -4.485 v 2.579 h 4.485 v 7.4 h 2.971 v -7.4 h 5.494 v -2.579 h -5.494 v -18.837 c 0,-2.186 0.897,-3.7 2.803,-3.7 1.29,0 2.411,0.617 3.028,1.29 l 1.121,-2.243 c -1.065,-1.009 -2.355,-1.681 -4.597,-1.681 -3.588,0 -5.326,2.186 -5.326,5.886" /><path
       inkscape:connector-curvature="0"
       id="path4483"
       style="fill:#ffffff;fill-opacity:1;fill-rule:nonzero;stroke:none"
       d="m 381.3271,331.1473 c -6.391,0 -9.586,-5.606 -9.811,-10.315 h 19.678 c -0.056,4.597 -3.084,10.315 -9.867,10.315 m -12.95,-11.661 c 0,7.849 5.494,14.184 13.006,14.184 8.241,0 12.782,-6.503 12.782,-14.352 v -0.785 h -22.649 c 0.281,-5.886 4.205,-10.763 10.596,-10.763 3.42,0 6.559,1.289 8.857,3.756 l 1.514,-1.906 c -2.691,-2.804 -6.11,-4.373 -10.595,-4.373 -7.905,0 -13.511,5.886 -13.511,14.239" /><path
       d="m 400.667,332.997 h 7.12 V 305.92 h -7.12 z m -0.673,7.176 c 0,2.355 1.906,4.205 4.205,4.205 2.354,0 4.26,-1.85 4.26,-4.205 0,-2.354 -1.906,-4.26 -4.26,-4.26 -2.299,0 -4.205,1.906 -4.205,4.26"
       style="fill:#ffffff;fill-opacity:1;fill-rule:nonzero;stroke:none"
       id="path4485"
       inkscape:connector-curvature="0" /><path
       inkscape:connector-curvature="0"
       id="path4489"
       style="fill:#ffffff;fill-opacity:1;fill-rule:nonzero;stroke:none"
       d="m 433.1255,305.9199 v 16.37 c 0,3.756 -1.962,5.045 -4.989,5.045 -2.803,0 -4.934,-1.569 -6.167,-3.139 v -18.276 h -7.12 v 27.077 h 7.12 v -3.475 c 1.738,2.018 5.101,4.148 9.474,4.148 5.999,0 8.858,-3.363 8.858,-8.633 v -19.117 z" /><path
       inkscape:connector-curvature="0"
       id="path4493"
       style="fill:#ffffff;fill-opacity:1;fill-rule:nonzero;stroke:none"
       d="m 448.7659,312.7032 v 14.071 h -4.485 v 6.223 h 4.485 v 7.4 h 7.12 v -7.4 h 5.494 v -6.223 h -5.494 v -12.165 c 0,-1.738 0.897,-3.027 2.466,-3.027 1.066,0 2.075,0.392 2.467,0.841 l 1.514,-5.438 c -1.065,-0.953 -2.971,-1.738 -5.943,-1.738 -4.989,0 -7.624,2.579 -7.624,7.456" /><path
       inkscape:connector-curvature="0"
       id="path4497"
       style="fill:#ffffff;fill-opacity:1;fill-rule:nonzero;stroke:none"
       d="m 478.5339,327.8398 c -4.429,0 -6.335,-3.083 -6.615,-5.774 h 13.342 c -0.224,2.579 -2.018,5.774 -6.727,5.774 m -14.015,-8.353 c 0,7.848 5.83,14.183 14.015,14.183 8.129,0 13.567,-6.054 13.567,-14.856 v -1.682 h -20.126 c 0.504,-3.307 3.195,-6.054 7.792,-6.054 2.299,0 5.438,0.953 7.176,2.635 l 3.196,-4.71 c -2.691,-2.466 -6.952,-3.756 -11.157,-3.756 -8.241,0 -14.463,5.55 -14.463,14.24" /><path
       inkscape:connector-curvature="0"
       id="path4501"
       style="fill:#ffffff;fill-opacity:1;fill-rule:nonzero;stroke:none"
       d="m 497.2575,305.9199 v 27.077 h 7.12 v -3.643 c 1.962,2.354 5.27,4.316 8.633,4.316 v -6.951 c -0.504,0.112 -1.121,0.168 -1.962,0.168 -2.355,0 -5.494,-1.346 -6.671,-3.084 v -17.883 z" /><path
       inkscape:connector-curvature="0"
       id="path4505"
       style="fill:#ffffff;fill-opacity:1;fill-rule:nonzero;stroke:none"
       d="m 535.7143,305.9199 v 16.37 c 0,3.756 -1.962,5.045 -4.989,5.045 -2.803,0 -4.934,-1.569 -6.167,-3.139 v -18.276 h -7.12 v 27.077 h 7.12 v -3.475 c 1.738,2.018 5.101,4.148 9.474,4.148 5.999,0 8.858,-3.363 8.858,-8.633 v -19.117 z" /><path
       inkscape:connector-curvature="0"
       id="path4509"
       style="fill:#ffffff;fill-opacity:1;fill-rule:nonzero;stroke:none"
       d="m 562.1744,327.8398 c -4.429,0 -6.335,-3.083 -6.615,-5.774 h 13.342 c -0.224,2.579 -2.018,5.774 -6.727,5.774 m -14.015,-8.353 c 0,7.848 5.83,14.183 14.015,14.183 8.129,0 13.567,-6.054 13.567,-14.856 v -1.682 h -20.126 c 0.504,-3.307 3.195,-6.054 7.792,-6.054 2.299,0 5.438,0.953 7.176,2.635 l 3.196,-4.71 c -2.691,-2.466 -6.952,-3.756 -11.156,-3.756 -8.241,0 -14.464,5.55 -14.464,14.24" /><path
       inkscape:connector-curvature="0"
       id="path4513"
       style="fill:#ffffff;fill-opacity:1;fill-rule:nonzero;stroke:none"
       d="m 582.3556,312.7032 v 14.071 h -4.485 v 6.223 h 4.485 v 7.4 h 7.12 v -7.4 h 5.494 v -6.223 h -5.494 v -12.165 c 0,-1.738 0.897,-3.027 2.466,-3.027 1.066,0 2.075,0.392 2.467,0.841 l 1.514,-5.438 c -1.065,-0.953 -2.971,-1.738 -5.943,-1.738 -4.989,0 -7.624,2.579 -7.624,7.456" /><path
       inkscape:connector-curvature="0"
       id="path4517"
       style="fill:#ffffff;fill-opacity:1;fill-rule:nonzero;stroke:none"
       d="m 618.066,311.2456 v 5.943 c -1.906,2.522 -4.933,3.756 -8.185,3.756 -4.429,0 -7.4,-2.86 -7.4,-6.728 0,-3.812 2.971,-6.671 7.4,-6.671 3.252,0 6.279,1.233 8.185,3.7 m 0,-5.326 v 3.196 c -2.411,-2.635 -5.438,-3.869 -9.194,-3.869 -4.653,0 -9.474,3.196 -9.474,9.026 0,5.887 4.765,8.97 9.474,8.97 3.756,0 6.84,-1.233 9.194,-3.868 v 5.494 c 0,4.036 -3.252,6.223 -7.232,6.223 -3.42,0 -6.054,-1.178 -8.521,-3.981 l -1.626,2.019 c 2.803,3.027 5.943,4.54 10.428,4.54 5.493,0 9.866,-2.634 9.866,-8.689 v -19.061 z" /><path
       inkscape:connector-curvature="0"
       id="path4521"
       style="fill:#ffffff;fill-opacity:1;fill-rule:nonzero;stroke:none"
       d="m 628.549,319.4866 c 0,7.905 5.158,14.183 13.118,14.183 4.709,0 7.4,-1.85 9.587,-4.597 l -2.019,-1.793 c -1.962,2.69 -4.428,3.756 -7.4,3.756 -6.335,0 -10.203,-5.046 -10.203,-11.549 0,-6.503 3.868,-11.605 10.203,-11.605 2.972,0 5.438,1.122 7.4,3.813 l 2.019,-1.794 c -2.187,-2.803 -4.878,-4.654 -9.587,-4.654 -7.96,0 -13.118,6.335 -13.118,14.24" /><path
       inkscape:connector-curvature="0"
       id="path4525"
       style="fill:#ffffff;fill-opacity:1;fill-rule:nonzero;stroke:none"
       d="m 656.2421,319.4866 c 0,7.905 5.158,14.183 13.118,14.183 4.709,0 7.4,-1.85 9.587,-4.597 l -2.019,-1.793 c -1.962,2.69 -4.428,3.756 -7.4,3.756 -6.335,0 -10.203,-5.046 -10.203,-11.549 0,-6.503 3.868,-11.605 10.203,-11.605 2.972,0 5.438,1.122 7.4,3.813 l 2.019,-1.794 c -2.187,-2.803 -4.878,-4.654 -9.587,-4.654 -7.96,0 -13.118,6.335 -13.118,14.24" /><path
       inkscape:connector-curvature="0"
       id="path4529"
       style="fill:#ffffff;fill-opacity:1;fill-rule:nonzero;stroke:none"
       d="m 696.8851,331.1473 c -6.391,0 -9.586,-5.606 -9.811,-10.315 h 19.678 c -0.056,4.597 -3.083,10.315 -9.867,10.315 m -12.95,-11.661 c 0,7.849 5.494,14.184 13.006,14.184 8.241,0 12.782,-6.503 12.782,-14.352 v -0.785 h -22.649 c 0.281,-5.886 4.205,-10.763 10.596,-10.763 3.42,0 6.559,1.289 8.858,3.756 l 1.513,-1.906 c -2.691,-2.804 -6.11,-4.373 -10.595,-4.373 -7.905,0 -13.511,5.886 -13.511,14.239" /><path
       inkscape:connector-curvature="0"
       id="path4533"
       style="fill:#ffffff;fill-opacity:1;fill-rule:nonzero;stroke:none"
       d="m 714.8796,309.5638 1.738,2.13 c 1.738,-2.186 4.933,-3.98 8.745,-3.98 4.541,0 7.232,2.355 7.232,5.494 0,7.4 -17.098,3.195 -17.098,12.95 0,4.149 3.531,7.512 9.642,7.512 4.653,0 7.737,-1.794 9.699,-3.98 l -1.626,-2.074 c -1.57,2.13 -4.485,3.588 -8.073,3.588 -4.204,0 -6.727,-2.131 -6.727,-4.934 0,-6.783 17.042,-2.635 17.042,-13.062 0,-4.373 -3.363,-7.961 -10.147,-7.961 -4.372,0 -7.736,1.29 -10.427,4.317" /><path
       inkscape:connector-curvature="0"
       id="path4537"
       style="fill:#ffffff;fill-opacity:1;fill-rule:nonzero;stroke:none"
       d="m 740.6112,309.5638 1.738,2.13 c 1.738,-2.186 4.933,-3.98 8.745,-3.98 4.541,0 7.232,2.355 7.232,5.494 0,7.4 -17.098,3.195 -17.098,12.95 0,4.149 3.531,7.512 9.642,7.512 4.653,0 7.737,-1.794 9.699,-3.98 l -1.626,-2.074 c -1.57,2.13 -4.485,3.588 -8.073,3.588 -4.204,0 -6.727,-2.131 -6.727,-4.934 0,-6.783 17.042,-2.635 17.042,-13.062 0,-4.373 -3.363,-7.961 -10.147,-7.961 -4.372,0 -7.736,1.29 -10.427,4.317" /><path
       inkscape:connector-curvature="0"
       id="path4541"
       style="fill:#ffffff;fill-opacity:1;fill-rule:nonzero;stroke:none"
       d="m 786.8195,326.4726 v 10.102 l -4.163,-10.102 h -0.444 l -4.163,10.102 v -10.102 h -1.554 v 12.211 h 2.387 l 3.552,-8.881 3.552,8.881 h 2.387 v -12.211 z m -15.763,10.768 v -10.768 h -1.554 v 10.768 h -3.442 v 1.443 h 8.437 v -1.443 z" /><path
       inkscape:connector-curvature="0"
       id="path5396"
       style="fill:#ffffff;fill-opacity:1;fill-rule:nonzero;stroke:none"
       d="m 541.597,494.753 h 38.095 V 368.961 h -38.095 z" /></g></svg>