<?xml version="1.0" encoding="UTF-8" standalone="no"?>
<!-- Generator: Adobe Illustrator 14.0.0, SVG Export Plug-In . SVG Version: 6.00 Build 43363)  -->

<svg
   xmlns:dc="http://purl.org/dc/elements/1.1/"
   xmlns:cc="http://creativecommons.org/ns#"
   xmlns:rdf="http://www.w3.org/1999/02/22-rdf-syntax-ns#"
   xmlns:svg="http://www.w3.org/2000/svg"
   xmlns="http://www.w3.org/2000/svg"
   xmlns:sodipodi="http://sodipodi.sourceforge.net/DTD/sodipodi-0.dtd"
   xmlns:inkscape="http://www.inkscape.org/namespaces/inkscape"
   version="1.1"
   id="Layer_1"
   x="0px"
   y="0px"
   width="3953.9062"
   height="5197.6562"
   viewBox="0 0 39.539062 51.976562"
   enable-background="new 0 0 39.5 52"
   xml:space="preserve"
   inkscape:version="0.92.2 5c3e80d, 2017-08-06"
   sodipodi:docname="rbc_outline.svg"><metadata
     id="metadata19"><rdf:RDF><cc:Work
         rdf:about=""><dc:format>image/svg+xml</dc:format><dc:type
           rdf:resource="http://purl.org/dc/dcmitype/StillImage" /><dc:title /></cc:Work></rdf:RDF></metadata><defs
     id="defs17" /><sodipodi:namedview
     pagecolor="#ffffff"
     bordercolor="#666666"
     borderopacity="1"
     objecttolerance="10"
     gridtolerance="10"
     guidetolerance="10"
     inkscape:pageopacity="0"
     inkscape:pageshadow="2"
     inkscape:window-width="1918"
     inkscape:window-height="2136"
     id="namedview15"
     showgrid="false"
     inkscape:zoom="18.153846"
     inkscape:cx="9.1381329"
     inkscape:cy="19.650207"
     inkscape:window-x="3840"
     inkscape:window-y="22"
     inkscape:window-maximized="0"
     inkscape:current-layer="Layer_1" /><path
     d="m 0,0 v 45.611328 c 0,1.717 0.703125,2.715094 2.078125,3.246094 5.343,2.058 11.672359,3.11914 17.693359,3.11914 6.018,0 12.345453,-1.06014 17.689454,-3.11914 1.375,-0.531 2.078124,-1.529094 2.078124,-3.246094 V 0 Z m 8.1582031,1.890625 h 2.9960939 v 2.0214843 h 11.65625 v 2.9863281 c 0,0.504 -0.03012,1.1794689 -0.07813,1.6054689 C 22.696422,8.8159062 22.588,9.3742188 22,9.8242188 c -0.357,0.2699992 -0.893719,0.3788122 -1.761719,0.3828122 -0.285,10e-4 -1.109609,-0.01222 -2.099609,-0.07422 -1.328,-0.085 -1.705766,0.43025 -1.759766,0.90625 -0.011,0.1 -0.01105,0.196063 0.002,0.289063 0.622,-0.48 1.502,-0.819907 2.5,-0.503906 1.758,0.552999 2.259782,0.599859 3.175782,-0.119141 l 0.09375,0.205078 c -0.1,0.153 -0.276203,0.373359 -0.533203,0.568359 h 0.849609 v 4.601563 l 2.644531,-1.585938 h 7.423828 c 0,0 3.135391,1.638204 3.650391,1.908203 0.456,0.24 0.635078,0.530079 0.705078,0.955079 0.061,0.355 -0.03208,0.80575 -0.205078,1.09375 -0.109,0.18 -0.96311,1.576265 -1.412109,2.322265 1.261,1.365 2.113281,3.275344 2.113281,5.402344 0,1.928 -0.71425,4.413719 -3.03125,6.261719 1.02,0.334 1.6745,0.890093 2.1875,1.621093 l -0.720703,2.449219 h -0.375 c 0,-2.042 -1.872985,-2.601562 -3.833985,-2.601562 h -6.130859 c 0.198,1.008 0.287719,2.186781 0.136719,3.300781 H 25.3145 c -0.567,-4.592 -3.161062,-6.863781 -6.789062,-9.300781 v 2.091797 H 18.22075 c -0.965,-2.158 -3.081937,-4.179235 -5.085937,-5.615235 -0.533,-0.38 -1.089719,-0.775062 -1.636719,-1.164062 v 2.251953 h -0.304688 c -0.85,-2.234 -2.3927496,-3.901672 -4.5937496,-5.888672 -2.379,-2.14 -3.3365313,-3.421531 -3.8945313,-4.894531 -0.338,-0.892 -0.4303594,-1.612797 -0.4433593,-2.591797 -0.021,-1.751 0.8647968,-3.3318749 1.9667968,-3.9218749 v 0.8476562 c -0.546,0.723 -0.8280781,1.6412657 -0.8300781,2.5722657 -0.003,0.861 0.2028594,1.816859 0.6308594,2.630859 1.339,2.548 5.8489379,5.676609 8.7109371,7.59961 8.905,5.972 10.682157,7.014593 12.160157,10.183593 0.165,0.353 0.329796,0.825905 0.466797,1.378907 1.286,-0.199 5.953499,-0.910876 6.8125,-1.046876 0.167,-0.027 0.509498,-0.06808 0.6875,-0.08008 0.804999,-0.508 1.431468,-1.15489 1.980468,-1.96289 L 31.4375,30.03125 c -0.177,0.391 -0.350906,0.721375 -0.503906,0.984375 h -0.279297 c 0.094,-0.346 0.175094,-0.688391 0.246094,-1.025391 l -0.875,-0.0625 v -0.1875 l 0.945312,-0.117187 c 0.18,-0.965 0.268156,-1.879422 0.285156,-2.732422 l -4.302734,-0.244141 c -0.021,0.442 -0.02477,0.857141 -0.0098,1.244141 h -0.273437 c -0.094,-0.43 -0.166703,-0.856485 -0.220703,-1.271485 L 25.507778,26.5625 v -0.285157 l 0.896485,-0.04883 c -0.126,-1.139 -0.134844,-2.200281 -0.08984,-3.113281 l -2.511719,-0.113281 c 0.117,0.222 0.240172,0.4425 0.326172,0.6875 0.544,1.517 0.412375,3.294281 0.234375,4.113281 h -0.304687 c -0.045,-0.946 -0.361063,-2.1065 -0.664063,-2.8125 -0.695,-1.639 -2.255094,-3.089531 -4.871093,-4.769531 v 2.09375 H 18.21875 c -0.869,-2.75 -3.034906,-4.280594 -6.253906,-5.933594 C 9.3088434,15.017859 8.4847656,13.374031 8.6347656,10.832031 L 9.53125,11.365234 c 0.229,2.376 2.05575,3.748375 3.96875,3.734375 1.126,-0.01 2.181219,-0.159328 3.199219,-0.361328 1.472,-0.299 2.833703,-0.549437 3.970703,-0.148438 v -1.404296 h -0.894531 c -0.32,0.275 -0.966922,0.594328 -1.919922,0.611328 -1.047,0.018 -3.029297,-0.583828 -3.029297,-2.798828 0,-1.9240006 1.626172,-2.232422 2.951172,-2.232422 0.712,0 1.892969,-0.025875 2.292968,-0.046875 0.295001,-0.02 0.51711,-0.063031 0.66211,-0.2070313 0.15,-0.147 0.194516,-0.2990939 0.228516,-0.4960937 0.042,-0.2390001 0.04297,-0.4815313 0.04297,-0.8945313 v -1.40625 H 14.859375 V 8.1484375 L 12.535156,7.2636718 V 6.6816406 h 1.111328 V 5.7148437 H 9.5039062 V 3.6933594 H 8.0917969 c -0.754,0 -1.6245,0.5316405 -1.6875,1.5566407 -0.057,0.9829998 0.3854375,1.8105468 1.3984375,1.8105468 H 7.9824219 V 8.2382813 H 7.8027344 c -1.775,0 -3.1113282,-1.3316094 -3.1113282,-3.0996095 0,-1.844 1.5677969,-3.2480469 3.4667969,-3.2480468 z m 10.4101559,9.732422 c -0.631781,-0.03356 -1.072234,0.145968 -1.521484,0.574218 0.294,0.14 0.661406,0.216452 1.066406,0.189454 0.587,-0.042 0.949203,-0.392157 1.158203,-0.660157 -0.26075,-0.05725 -0.492531,-0.09233 -0.703125,-0.103515 z m 1.06836,4.496093 c -1.013,-0.018 -2.721875,0.445219 -3.546875,0.574219 0.369,0.251 1.678078,1.090063 2.580078,1.664063 l 2.9375,-1.761719 c -0.578,-0.285 -1.214703,-0.467563 -1.970703,-0.476563 z m 5.9375,0.0625 -5.320313,3.199219 c 0.998,0.694 1.919266,1.445172 2.572266,2.201172 1.424,-2.075 3.929156,-3.396484 6.410156,-3.396484 0.811,0.001 1.755875,0.08837 2.546875,0.359375 l 0.40625,-0.574219 -0.628906,-0.839844 0.103515,-0.1875 1.771485,0.955078 -0.386719,1.171875 c 0.287,0.138 0.549438,0.310969 0.898438,0.542969 L 35.09375,17.730469 32.126953,16.18164 Z m -22.6542971,2.328125 0.515625,0.341797 c -0.191,0.548 -0.2935782,1.317485 -0.2675781,1.771485 0.1559999,2.242 1.9605464,3.755828 7.4355472,7.173828 5.805,3.624 7.428875,5.837031 7.921875,8.707031 h -0.302735 c -1.259,-2.77 -3.819703,-4.318797 -6.720703,-5.966797 v 2.234375 h -0.304687 c -0.844,-1.97 -2.3109848,-3.849937 -4.4589848,-5.460937 -1.9939999,-1.496 -2.8013125,-2.241782 -3.5703124,-3.425782 -0.5090001,-0.783 -0.9238282,-1.762593 -0.9238282,-3.058593 0,-0.793 0.2637813,-1.658407 0.6757813,-2.316407 z m 26.2949221,1.236328 c -0.243,0 -0.485703,0.02969 -0.720703,0.05469 -0.347,0.869 -0.629375,1.746719 -0.859375,2.636719 l 3.03125,-0.167969 c -0.36,-1.243 -0.789625,-2.105719 -1.015625,-2.511719 -0.144,-0.009 -0.290547,-0.01172 -0.435547,-0.01172 z m 2.404297,0.4375 c 0.257,0.691 0.450796,1.357 0.591797,2 L 34.3125,22.068359 c -0.722,-0.832 -1.645359,-1.484765 -2.693359,-1.884766 z m -4.949219,0.140626 c -1.197,0.536 -2.023719,1.264546 -2.761719,2.310546 l 2.449219,-0.126953 c 0.088,-1.087 0.2305,-1.810594 0.3125,-2.183593 z m 0.785156,2.845703 c -0.237,1.057 -0.394797,2.087296 -0.466797,3.029297 L 31.25,25.972656 c -0.036,-0.979 -0.157266,-1.865484 -0.322266,-2.646484 z m 4.962891,0.224609 c 0.111,0.897 0.125406,1.736719 0.06641,2.511719 l 3.441406,-0.179688 c -0.088,-0.782 -0.312531,-1.521218 -0.644531,-2.199219 z m -0.05469,3.558594 c -0.163,1.002 -0.428844,1.872937 -0.714843,2.585937 l 3.839843,-0.480469 c 0.246,-0.599 0.404172,-1.174343 0.451172,-1.902343 z m 0.0293,10.353515 c 2.116,0 3.003906,0.638672 3.003906,0.638672 l -0.49414,1.685547 c 0,0 -0.06575,0.01152 -0.09375,-0.02148 -0.005,-0.004 -0.191828,-0.456828 -0.798828,-0.798828 -0.334,-0.189 -0.824594,-0.419922 -1.808594,-0.419922 -1.762,0 -3.079156,0.982906 -3.035156,4.003906 0.043,3.268 2.197156,3.9375 3.660156,3.9375 1.775,0 2.603516,-0.771484 2.603516,-0.771484 v 1.154296 c -1e-6,1e-6 -0.920719,0.746094 -3.261719,0.746094 -2.519,0 -5.375,-1.032765 -5.375,-5.009765 0,-3.53 2.397609,-5.144532 5.599609,-5.144532 z M 3.9941406,37.458984 h 5.4824219 c 2.6499995,0 3.6660155,0.898797 3.6660155,2.591797 0,1.443 -1.088062,2.237953 -2.539062,2.626953 l 3.623046,4.628906 h -2.83789 L 8.1757812,42.943359 H 7.3457031 V 47.30664 H 5.0703125 v -7.679687 c 0,-0.78 -0.1150469,-1.357328 -0.4980469,-1.736328 -0.149,-0.145 -0.375125,-0.275703 -0.578125,-0.345703 z m 11.2695314,0.002 h 5.253906 c 3.112,0 3.560547,1.159797 3.560547,2.216797 0,1.173 -0.951219,1.949328 -1.949219,2.111328 1.356,0.089 2.680688,0.812672 2.679688,2.513672 0,2.095 -1.732953,3.005859 -4.126953,3.005859 h -4.353516 v -7.863281 c -0.014,-0.692 -0.132281,-1.2115 -0.488281,-1.5625 -0.165,-0.16 -0.417172,-0.28889 -0.576172,-0.33789 z m -7.9179689,0.935547 v 3.65625 h 1.2050781 c 1.3990001,0 2.2695308,-0.717734 2.2695308,-1.927734 0,-1.354 -0.666359,-1.728516 -1.9433589,-1.728516 z m 11.2519529,0 v 3.048828 h 0.994141 c 1.155,0 2.166015,-0.349187 2.166015,-1.617187 0,-1.188 -0.75514,-1.431641 -1.86914,-1.431641 z m 0,3.958985 v 4.023437 h 1.404297 c 1.56,0 2.483375,-0.600797 2.484375,-2.091797 0,-1.379 -0.706828,-1.93164 -2.548828,-1.93164 z"
     id="path3"
     inkscape:connector-curvature="0" /></svg>