<?xml version="1.0" encoding="UTF-8" standalone="no"?>
<!-- Generator: Adobe Illustrator 16.0.4, SVG Export Plug-In . SVG Version: 6.00 Build 0)  -->

<svg
   xmlns:dc="http://purl.org/dc/elements/1.1/"
   xmlns:cc="http://creativecommons.org/ns#"
   xmlns:rdf="http://www.w3.org/1999/02/22-rdf-syntax-ns#"
   xmlns:svg="http://www.w3.org/2000/svg"
   xmlns="http://www.w3.org/2000/svg"
   xmlns:sodipodi="http://sodipodi.sourceforge.net/DTD/sodipodi-0.dtd"
   xmlns:inkscape="http://www.inkscape.org/namespaces/inkscape"
   version="1.1"
   id="Layer_1"
   x="0px"
   y="0px"
   width="864.99902"
   height="145.4375"
   viewBox="-0.154 168.199 864.99902 145.4375"
   enable-background="new -0.154 168.199 865 146"
   xml:space="preserve"
   sodipodi:docname="red-transparent.svg"
   inkscape:version="0.92.2 5c3e80d, 2017-08-06"><metadata
     id="metadata37"><rdf:RDF><cc:Work
         rdf:about=""><dc:format>image/svg+xml</dc:format><dc:type
           rdf:resource="http://purl.org/dc/dcmitype/StillImage" /><dc:title /></cc:Work></rdf:RDF></metadata><defs
     id="defs35" /><sodipodi:namedview
     pagecolor="#ffffff"
     bordercolor="#666666"
     borderopacity="1"
     objecttolerance="10"
     gridtolerance="10"
     guidetolerance="10"
     inkscape:pageopacity="0"
     inkscape:pageshadow="2"
     inkscape:window-width="1918"
     inkscape:window-height="2136"
     id="namedview33"
     showgrid="false"
     inkscape:zoom="0.82727406"
     inkscape:cx="255.74706"
     inkscape:cy="145.82479"
     inkscape:window-x="3840"
     inkscape:window-y="22"
     inkscape:window-maximized="0"
     inkscape:current-layer="Layer_1" /><path
     style="fill:#e2231a"
     d="M -0.154,168.199 V 313.6365 H 287.94952 V 168.199 Z m 36.013672,36.01367 h 33.242187 c 9.003,0 16.62175,2.77019 21.46875,7.61719 4.156,4.155 6.232422,9.69509 6.232422,16.62109 0,11.773 -6.233328,19.39247 -15.236328,22.85547 l 18.005859,26.31641 H 80.875297 L 65.638969,254.07791 H 51.787406 v 23.54687 H 35.859672 Z m 77.566408,0 h 54.71094 v 14.54297 h -38.78321 v 14.54492 h 33.9336 v 14.54492 h -33.9336 v 15.23438 h 39.47461 v 14.54492 h -55.4043 z m 72.02344,0 h 28.39453 c 22.854,0 38.7832,15.92967 38.7832,36.01367 0,20.778 -15.9292,36.70508 -38.7832,36.70508 H 185.44952 Z M 51.787406,218.75564 v 20.77734 h 15.927735 c 7.618,0 12.466797,-4.15467 12.466797,-10.38867 0,-6.925 -4.848797,-10.38867 -12.466797,-10.38867 z m 149.591794,0 v 43.63281 h 12.46485 c 13.159,0 22.16211,-9.0037 22.16211,-21.4707 0,-13.159 -9.00311,-22.16211 -22.16211,-22.16211 z"
     id="rect2"
     inkscape:connector-curvature="0" /><g
     id="g28"
     transform="translate(0,-0.28125)"><path
       style="fill:#808184"
       inkscape:connector-curvature="0"
       id="path14"
       d="m 355.817,204.494 h 11.775 l 31.858,72.719 h -13.159 l -7.617,-17.315 h -33.937 l -7.618,17.315 h -13.158 z m 18.008,44.324 -12.464,-29.087 -12.466,29.087 z" /><path
       style="fill:#808184"
       inkscape:connector-curvature="0"
       id="path16"
       d="m 403.605,241.892 v 0 c 0,-20.776 15.236,-37.397 37.398,-37.397 13.157,0 21.469,4.849 28.393,11.08 l -8.31,9.696 c -5.54,-5.541 -11.774,-9.003 -20.083,-9.003 -13.853,0 -23.547,11.08 -23.547,25.624 v 0 c 0,13.853 9.696,25.625 23.547,25.625 9.003,0 14.543,-3.461 20.775,-9.004 l 8.311,8.312 c -7.618,7.617 -15.929,12.465 -29.087,12.465 -21.468,-0.692 -37.397,-16.62 -37.397,-37.398 z" /><path
       style="fill:#808184"
       inkscape:connector-curvature="0"
       id="path18"
       d="m 508.182,204.494 h 11.773 l 31.857,72.719 h -13.158 l -7.618,-17.315 H 497.1 l -7.618,17.315 h -13.158 z m 18.005,44.324 -12.466,-29.087 -12.466,29.087 z" /><path
       style="fill:#808184"
       inkscape:connector-curvature="0"
       id="path20"
       d="m 563.584,205.188 h 27.012 c 22.854,0 38.088,15.235 38.088,36.013 v 0 c 0,20.085 -15.928,36.013 -38.088,36.013 h -27.012 z m 13.16,11.772 v 49.173 h 13.852 c 15.235,0 24.932,-10.389 24.932,-24.241 v 0 c 0,-13.851 -9.696,-24.238 -24.932,-24.238 h -13.852 z" /><path
       style="fill:#808184"
       inkscape:connector-curvature="0"
       id="path22"
       d="m 643.921,205.188 h 53.327 v 11.772 h -40.859 v 18.699 H 692.4 v 11.082 h -36.012 v 19.392 h 41.553 v 11.08 H 643.92 v -72.025 z" /><path
       style="fill:#808184"
       inkscape:connector-curvature="0"
       id="path24"
       d="m 713.177,205.188 h 13.158 l 22.162,33.935 22.161,-33.935 h 13.158 v 72.025 H 771.351 V 225.964 L 748.497,259.9 h -0.692 L 724.95,225.963 v 51.249 h -11.772 v -72.024 z" /><path
       style="fill:#808184"
       inkscape:connector-curvature="0"
       id="path26"
       d="m 823.293,248.818 -28.395,-43.631 h 15.235 l 20.083,31.857 20.085,-31.857 h 14.544 l -28.394,43.631 v 29.088 h -12.467 v -29.088 z" /></g></svg>