<?xml version="1.0" encoding="utf-8"?>
<!-- Generator: Adobe Illustrator 16.0.4, SVG Export Plug-In . SVG Version: 6.00 Build 0)  -->
<!DOCTYPE svg PUBLIC "-//W3C//DTD SVG 1.1//EN" "http://www.w3.org/Graphics/SVG/1.1/DTD/svg11.dtd">
<svg version="1.1" id="Layer_1" xmlns="http://www.w3.org/2000/svg" xmlns:xlink="http://www.w3.org/1999/xlink" x="0px" y="0px"
	 width="865px" height="146px" viewBox="-0.154 168.199 865 146" enable-background="new -0.154 168.199 865 146"
	 xml:space="preserve">
<g>
	<g>
		<rect x="-0.154" y="168.481" fill="#E2231A" width="288.103" height="145.436"/>
	</g>
	<g>
		<path fill="#FFFFFF" d="M35.859,204.494h33.242c9.003,0,16.622,2.771,21.469,7.618c4.156,4.155,6.233,9.695,6.233,16.621l0,0
			c0,11.773-6.233,19.392-15.236,22.855l18.006,26.317H80.875L65.638,254.36H51.788v23.546H35.859V204.494z M67.716,239.815
			c7.618,0,12.466-4.156,12.466-10.39l0,0c0-6.925-4.848-10.389-12.466-10.389H51.788v20.778H67.716z"/>
		<path fill="#FFFFFF" d="M113.426,204.494h54.711v14.543h-38.784v14.544h33.935v14.545h-33.935v15.236h39.476v14.544h-55.405
			L113.426,204.494L113.426,204.494z"/>
		<path fill="#FFFFFF" d="M185.45,204.494h28.395c22.854,0,38.783,15.929,38.783,36.013l0,0c0,20.778-15.929,36.706-38.783,36.706
			H185.45V204.494L185.45,204.494z M201.38,219.037v43.633h12.465c13.159,0,22.162-9.004,22.162-21.471l0,0
			c0-13.159-9.003-22.162-22.162-22.162H201.38L201.38,219.037z"/>
	</g>
	<g>
		<path fill="#808184" d="M355.817,204.494h11.775l31.858,72.719h-13.159l-7.617-17.315h-33.937l-7.618,17.315h-13.158
			L355.817,204.494z M373.825,248.818l-12.464-29.087l-12.466,29.087H373.825z"/>
		<path fill="#808184" d="M403.605,241.892L403.605,241.892c0-20.776,15.236-37.397,37.398-37.397
			c13.157,0,21.469,4.849,28.393,11.08l-8.31,9.696c-5.54-5.541-11.774-9.003-20.083-9.003c-13.853,0-23.547,11.08-23.547,25.624
			l0,0c0,13.853,9.696,25.625,23.547,25.625c9.003,0,14.543-3.461,20.775-9.004l8.311,8.312
			c-7.618,7.617-15.929,12.465-29.087,12.465C419.534,278.598,403.605,262.67,403.605,241.892z"/>
		<path fill="#808184" d="M508.182,204.494h11.773l31.857,72.719h-13.158l-7.618-17.315H497.1l-7.618,17.315h-13.158
			L508.182,204.494z M526.187,248.818l-12.466-29.087l-12.466,29.087H526.187z"/>
		<path fill="#808184" d="M563.584,205.188h27.012c22.854,0,38.088,15.235,38.088,36.013l0,0c0,20.085-15.928,36.013-38.088,36.013
			h-27.012V205.188z M576.744,216.96v49.173h13.852c15.235,0,24.932-10.389,24.932-24.241l0,0c0-13.851-9.696-24.238-24.932-24.238
			h-13.852V216.96z"/>
		<path fill="#808184" d="M643.921,205.188h53.327v11.772h-40.859v18.699H692.4v11.082h-36.012v19.392h41.553v11.08h-54.021V205.188
			z"/>
		<path fill="#808184" d="M713.177,205.188h13.158l22.162,33.935l22.161-33.935h13.158v72.025h-12.465v-51.249L748.497,259.9h-0.692
			l-22.855-33.937v51.249h-11.772V205.188L713.177,205.188z"/>
		<path fill="#808184" d="M823.293,248.818l-28.395-43.631h15.235l20.083,31.857l20.085-31.857h14.544l-28.394,43.631v29.088
			h-12.467v-29.088H823.293L823.293,248.818z"/>
	</g>
</g>
</svg>
