<?xml version="1.0" encoding="UTF-8" standalone="no"?>
<!-- Generator: Adobe Illustrator 16.0.4, SVG Export Plug-In . SVG Version: 6.00 Build 0)  -->

<svg
   xmlns:dc="http://purl.org/dc/elements/1.1/"
   xmlns:cc="http://creativecommons.org/ns#"
   xmlns:rdf="http://www.w3.org/1999/02/22-rdf-syntax-ns#"
   xmlns:svg="http://www.w3.org/2000/svg"
   xmlns="http://www.w3.org/2000/svg"
   xmlns:sodipodi="http://sodipodi.sourceforge.net/DTD/sodipodi-0.dtd"
   xmlns:inkscape="http://www.inkscape.org/namespaces/inkscape"
   version="1.1"
   id="Layer_1"
   x="0px"
   y="0px"
   width="864.99902"
   height="145.436"
   viewBox="-0.154 168.199 864.99902 145.436"
   enable-background="new -0.154 168.199 865 146"
   xml:space="preserve"
   sodipodi:docname="red.svg"
   inkscape:version="0.92.2 5c3e80d, 2017-08-06"><metadata
     id="metadata37"><rdf:RDF><cc:Work
         rdf:about=""><dc:format>image/svg+xml</dc:format><dc:type
           rdf:resource="http://purl.org/dc/dcmitype/StillImage" /></cc:Work></rdf:RDF></metadata><defs
     id="defs35" /><sodipodi:namedview
     pagecolor="#ffffff"
     bordercolor="#666666"
     borderopacity="1"
     objecttolerance="10"
     gridtolerance="10"
     guidetolerance="10"
     inkscape:pageopacity="0"
     inkscape:pageshadow="2"
     inkscape:window-width="1918"
     inkscape:window-height="2136"
     id="namedview33"
     showgrid="false"
     inkscape:zoom="0.41734104"
     inkscape:cx="439.68837"
     inkscape:cy="72.718007"
     inkscape:window-x="3840"
     inkscape:window-y="22"
     inkscape:window-maximized="0"
     inkscape:current-layer="Layer_1" /><g
     id="g30"
     transform="translate(0,-0.28200281)"><g
       id="g4"><rect
         x="-0.154"
         y="168.481"
         width="288.103"
         height="145.436"
         id="rect2"
         style="fill:#e2231a" /></g><g
       id="g12"><path
         d="m 35.859,204.494 h 33.242 c 9.003,0 16.622,2.771 21.469,7.618 4.156,4.155 6.233,9.695 6.233,16.621 v 0 c 0,11.773 -6.233,19.392 -15.236,22.855 l 18.006,26.317 H 80.875 L 65.638,254.36 h -13.85 v 23.546 H 35.859 Z m 31.857,35.321 c 7.618,0 12.466,-4.156 12.466,-10.39 v 0 c 0,-6.925 -4.848,-10.389 -12.466,-10.389 H 51.788 v 20.778 h 15.928 z"
         id="path6"
         inkscape:connector-curvature="0"
         style="fill:#ffffff" /><path
         d="m 113.426,204.494 h 54.711 v 14.543 h -38.784 v 14.544 h 33.935 v 14.545 h -33.935 v 15.236 h 39.476 v 14.544 h -55.405 z"
         id="path8"
         inkscape:connector-curvature="0"
         style="fill:#ffffff" /><path
         d="m 185.45,204.494 h 28.395 c 22.854,0 38.783,15.929 38.783,36.013 v 0 c 0,20.778 -15.929,36.706 -38.783,36.706 H 185.45 Z m 15.93,14.543 v 43.633 h 12.465 c 13.159,0 22.162,-9.004 22.162,-21.471 v 0 c 0,-13.159 -9.003,-22.162 -22.162,-22.162 z"
         id="path10"
         inkscape:connector-curvature="0"
         style="fill:#ffffff" /></g><g
       id="g28"><path
         d="m 355.817,204.494 h 11.775 l 31.858,72.719 h -13.159 l -7.617,-17.315 h -33.937 l -7.618,17.315 h -13.158 z m 18.008,44.324 -12.464,-29.087 -12.466,29.087 z"
         id="path14"
         inkscape:connector-curvature="0"
         style="fill:#808184" /><path
         d="m 403.605,241.892 v 0 c 0,-20.776 15.236,-37.397 37.398,-37.397 13.157,0 21.469,4.849 28.393,11.08 l -8.31,9.696 c -5.54,-5.541 -11.774,-9.003 -20.083,-9.003 -13.853,0 -23.547,11.08 -23.547,25.624 v 0 c 0,13.853 9.696,25.625 23.547,25.625 9.003,0 14.543,-3.461 20.775,-9.004 l 8.311,8.312 c -7.618,7.617 -15.929,12.465 -29.087,12.465 -21.468,-0.692 -37.397,-16.62 -37.397,-37.398 z"
         id="path16"
         inkscape:connector-curvature="0"
         style="fill:#808184" /><path
         d="m 508.182,204.494 h 11.773 l 31.857,72.719 h -13.158 l -7.618,-17.315 H 497.1 l -7.618,17.315 h -13.158 z m 18.005,44.324 -12.466,-29.087 -12.466,29.087 z"
         id="path18"
         inkscape:connector-curvature="0"
         style="fill:#808184" /><path
         d="m 563.584,205.188 h 27.012 c 22.854,0 38.088,15.235 38.088,36.013 v 0 c 0,20.085 -15.928,36.013 -38.088,36.013 h -27.012 z m 13.16,11.772 v 49.173 h 13.852 c 15.235,0 24.932,-10.389 24.932,-24.241 v 0 c 0,-13.851 -9.696,-24.238 -24.932,-24.238 h -13.852 z"
         id="path20"
         inkscape:connector-curvature="0"
         style="fill:#808184" /><path
         d="m 643.921,205.188 h 53.327 v 11.772 h -40.859 v 18.699 H 692.4 v 11.082 h -36.012 v 19.392 h 41.553 v 11.08 H 643.92 v -72.025 z"
         id="path22"
         inkscape:connector-curvature="0"
         style="fill:#808184" /><path
         d="m 713.177,205.188 h 13.158 l 22.162,33.935 22.161,-33.935 h 13.158 v 72.025 H 771.351 V 225.964 L 748.497,259.9 h -0.692 L 724.95,225.963 v 51.249 h -11.772 v -72.024 z"
         id="path24"
         inkscape:connector-curvature="0"
         style="fill:#808184" /><path
         d="m 823.293,248.818 -28.395,-43.631 h 15.235 l 20.083,31.857 20.085,-31.857 h 14.544 l -28.394,43.631 v 29.088 h -12.467 v -29.088 z"
         id="path26"
         inkscape:connector-curvature="0"
         style="fill:#808184" /></g></g></svg>