<?xml version="1.0" encoding="UTF-8" standalone="no"?>
<svg
   xmlns:dc="http://purl.org/dc/elements/1.1/"
   xmlns:cc="http://creativecommons.org/ns#"
   xmlns:rdf="http://www.w3.org/1999/02/22-rdf-syntax-ns#"
   xmlns:svg="http://www.w3.org/2000/svg"
   xmlns="http://www.w3.org/2000/svg"
   xmlns:sodipodi="http://sodipodi.sourceforge.net/DTD/sodipodi-0.dtd"
   xmlns:inkscape="http://www.inkscape.org/namespaces/inkscape"
   viewBox="0 0 316.6 72.100002"
   version="1.1"
   id="svg78"
   sodipodi:docname="right-mesh.svg"
   width="316.60001"
   height="72.099998"
   inkscape:version="0.92.2 5c3e80d, 2017-08-06">
  <metadata
     id="metadata82">
    <rdf:RDF>
      <cc:Work
         rdf:about="">
        <dc:format>image/svg+xml</dc:format>
        <dc:type
           rdf:resource="http://purl.org/dc/dcmitype/StillImage" />
      </cc:Work>
    </rdf:RDF>
  </metadata>
  <sodipodi:namedview
     pagecolor="#ffffff"
     bordercolor="#666666"
     borderopacity="1"
     objecttolerance="10"
     gridtolerance="10"
     guidetolerance="10"
     inkscape:pageopacity="0"
     inkscape:pageshadow="2"
     inkscape:window-width="1918"
     inkscape:window-height="2136"
     id="namedview80"
     showgrid="false"
     inkscape:zoom="1.14024"
     inkscape:cx="160.93103"
     inkscape:cy="36.000003"
     inkscape:window-x="3840"
     inkscape:window-y="22"
     inkscape:window-maximized="0"
     inkscape:current-layer="svg78" />
  <defs
     id="defs4">
    <style
       id="style2">.cls-1{fill:#d3d3d3;}.cls-2{fill:#01434f;}.cls-3{fill:#00aa81;}</style>
  </defs>
  <title
     id="title6">Asset 1</title>
  <g
     id="Layer_2"
     data-name="Layer 2">
    <g
       id="Layer_1-2"
       data-name="Layer 1">
      <path
         class="cls-1"
         d="M 61,19.9 33.4,3.9 H 32.9 L 5.3,19.9 A 0.5,0.5 0 0 0 5,20.3 v 31.9 a 0.5,0.5 0 0 0 0.3,0.4 l 27.6,16 h 0.4 L 17.4,59.6 18.4,59 6,51.9 V 36.6 h 0.1 l 12.7,-6.9 v 14.2 a 0.5,0.5 0 0 0 0.2,0.4 l 11.8,7.1 1,-0.6 -12,-7.2 V 29.5 l 12.8,7.3 v 13.5 l 1,-0.6 V 36.8 L 44.8,30.4 V 30 L 44.2,29.6 33.1,35.9 H 33 L 20.3,28.6 h 0.2 L 33.1,21 h 0.1 L 34,21.5 33.2,20 h -0.3 l -12.7,7.5 v -15 h 0.1 l 13,-7.5 1.7,0.4 0.3,0.8 11.4,6.6 v 0 14.5 l 1,1 v 0 -15 l 12.7,7.3 V 35.2 H 60.2 L 47.5,28.3 h 0.1 v 1.2 l 12.5,6.8 v 15.6 l -13.4,7.9 -10.1,-6.1 -1,0.6 1,0.6 9.1,5.5 -11.9,6.8 -0.5,1.4 v 0 L 61,52.6 a 0.5,0.5 0 0 0 0.3,-0.4 V 20.3 A 0.5,0.5 0 0 0 61,19.9 Z m -41.9,8.3 -0.2,0.2 H 18.8 L 6,35.4 6.2,20.7 H 6.3 L 19,13.3 v 14.8 z m 16.5,26 1,-0.6 -2.2,-1.5 -1.2,0.7 z"
         id="path8"
         inkscape:connector-curvature="0"
         style="fill:#d3d3d3" />
      <rect
         class="cls-1"
         x="4.5999999"
         y="47.5"
         width="16.1"
         height="0.94999999"
         transform="matrix(0.86,-0.52,0.52,0.86,-22.91,13.4)"
         id="rect10"
         style="fill:#d3d3d3" />
      <rect
         class="cls-1"
         x="53.099998"
         y="39.900002"
         width="1"
         height="16.110001"
         transform="rotate(-59,53.605293,47.94458)"
         id="rect12"
         style="fill:#d3d3d3" />
      <polygon
         class="cls-2"
         points="19.8,59.8 46.6,43.6 46.6,28.6 46.1,28.6 33.3,20.9 33.3,20.6 32.9,20.6 32.9,4.2 33.8,4.2 33.8,20 47.6,28.4 47.7,43.7 47.1,44.5 20.8,60.3 33.3,67.6 33.3,68.7 18.8,60.4 "
         id="polygon14"
         style="fill:#01434f" />
      <circle
         class="cls-2"
         cx="33.200001"
         cy="66.900002"
         r="5.1999998"
         id="circle16"
         style="fill:#01434f" />
      <circle
         class="cls-3"
         cx="5.1999998"
         cy="35.200001"
         r="5.1999998"
         id="circle18"
         style="fill:#00aa81" />
      <circle
         class="cls-2"
         cx="46"
         cy="28.299999"
         r="5.1999998"
         id="circle20"
         style="fill:#01434f" />
      <circle
         class="cls-2"
         cx="33.200001"
         cy="3.9000001"
         r="3.9000001"
         id="circle22"
         style="fill:#01434f" />
      <circle
         class="cls-2"
         cx="19.5"
         cy="59.700001"
         r="3.9000001"
         id="circle24"
         style="fill:#01434f" />
      <circle
         class="cls-3"
         cx="33.200001"
         cy="35.700001"
         r="3.9000001"
         id="circle26"
         style="fill:#00aa81" />
      <circle
         class="cls-3"
         cx="60.299999"
         cy="51.5"
         r="3.9000001"
         id="circle28"
         style="fill:#00aa81" />
      <circle
         class="cls-3"
         cx="5.1999998"
         cy="19.799999"
         r="3.9000001"
         id="circle30"
         style="fill:#00aa81" />
      <circle
         class="cls-3"
         cx="60.299999"
         cy="20.200001"
         r="3.9000001"
         id="circle32"
         style="fill:#00aa81" />
      <circle
         class="cls-3"
         cx="5.1999998"
         cy="51.5"
         r="2.7"
         id="circle34"
         style="fill:#00aa81" />
      <circle
         class="cls-3"
         cx="19.1"
         cy="28.299999"
         r="2.7"
         id="circle36"
         style="fill:#00aa81" />
      <circle
         class="cls-3"
         cx="19.1"
         cy="12.2"
         r="2.7"
         id="circle38"
         style="fill:#00aa81" />
      <circle
         class="cls-3"
         cx="19.1"
         cy="43.400002"
         r="2.7"
         id="circle40"
         style="fill:#00aa81" />
      <circle
         class="cls-2"
         cx="33.200001"
         cy="52.200001"
         r="2.7"
         id="circle42"
         style="fill:#01434f" />
      <circle
         class="cls-2"
         cx="46.400002"
         cy="43.400002"
         r="2.7"
         id="circle44"
         style="fill:#01434f" />
      <circle
         class="cls-3"
         cx="46"
         cy="59.700001"
         r="2.7"
         id="circle46"
         style="fill:#00aa81" />
      <circle
         class="cls-3"
         cx="60.299999"
         cy="35.200001"
         r="2.7"
         id="circle48"
         style="fill:#00aa81" />
      <circle
         class="cls-2"
         cx="33.200001"
         cy="19.9"
         r="2.7"
         id="circle50"
         style="fill:#01434f" />
      <circle
         class="cls-3"
         cx="46.400002"
         cy="11.6"
         r="2.7"
         id="circle52"
         style="fill:#00aa81" />
      <path
         class="cls-3"
         d="m 74.8,18.6 a 2.3,2.3 0 0 1 2.3,-2.3 h 10.7 c 9.1,0 14,3.8 14,11.2 0,7.4 -4.6,11.2 -12.9,11.3 l 12.4,14.7 c 0.2,0.3 -0.8,1.9 -2.5,1.9 A 3.3,3.3 0 0 1 96.3,54 L 83.7,38.8 H 78.8 V 53.6 A 1.7,1.7 0 0 1 77,55.4 h -0.5 c -1.1,0 -1.7,-0.6 -1.7,-1.9 z m 13.4,16.8 c 6.4,0 9.4,-3.1 9.4,-7.7 0,-4.6 -3.2,-7.7 -9.7,-7.7 h -9.1 v 15.4 z"
         id="path54"
         inkscape:connector-curvature="0"
         style="fill:#00aa81" />
      <path
         class="cls-3"
         d="m 105.6,28.2 c 0,-1.4 0.7,-1.9 1.7,-1.9 h 0.4 c 1,0 1.7,0.4 1.7,1.9 v 25.4 c 0,1.4 -0.7,1.9 -1.7,1.9 h -0.4 c -1,0 -1.7,-0.4 -1.7,-1.9 z"
         id="path56"
         inkscape:connector-curvature="0"
         style="fill:#00aa81" />
      <path
         class="cls-3"
         d="m 120.1,51.8 a 3.4,3.4 0 0 1 -1.3,-2.8 4.4,4.4 0 0 1 1.3,-2.8 10.1,10.1 0 0 1 -7.2,-9.6 c 0,-6 4.9,-10.8 11.6,-10.8 a 12.7,12.7 0 0 1 7.2,2.2 l 2,-3.2 c 0.8,-1.2 1.5,-1.8 2.8,-1.8 a 2.3,2.3 0 0 1 2.2,1.7 l -4.7,5.4 a 10,10 0 0 1 2.3,6.3 c 0,5.9 -5.1,10.5 -11.8,10.5 H 123 a 2.3,2.3 0 0 0 -0.4,1.4 c 0,2 2.7,2.2 7.9,3.5 5.2,1.3 8.4,2.9 8.4,7.5 0,4.6 -5.4,8.5 -14.6,8.5 -9.2,0 -13.5,-2.5 -13.5,-7.8 0,-5.3 4.1,-7.1 9.3,-8.2 z m 4.3,12.9 c 6.6,0 10.6,-1.9 10.6,-5.2 0,-3.3 -5.4,-4.2 -10,-5.4 -4.6,-1.2 -10.4,2.3 -10.4,6 0,3.7 3.4,4.6 9.9,4.6 z m 7.9,-28.1 c 0,-4.3 -3.1,-7.5 -7.8,-7.5 a 7.2,7.2 0 0 0 -7.6,7.5 c 0,4.3 3.2,7.3 7.7,7.3 4.5,0 7.8,-3 7.8,-7.3 z"
         id="path58"
         inkscape:connector-curvature="0"
         style="fill:#00aa81" />
      <path
         class="cls-3"
         d="m 140.2,14.7 c 0,-0.1 0.6,-0.4 1.3,-0.4 0.7,0 2.6,0.7 2.6,3.8 v 13 a 11.1,11.1 0 0 1 9.7,-5.3 c 7.6,0 11.4,5.1 11.4,12.6 v 15.2 c 0,1.4 -0.7,1.9 -1.7,1.9 H 163 c -1,0 -1.7,-0.4 -1.7,-1.9 V 38.7 c 0,-5.8 -2.9,-9.2 -7.7,-9.2 -4.8,0 -9.4,3.8 -9.4,9.8 v 14.3 c 0,1.4 -0.7,1.9 -1.7,1.9 h -0.4 c -1,0 -1.7,-0.4 -1.7,-1.9 z"
         id="path60"
         inkscape:connector-curvature="0"
         style="fill:#00aa81" />
      <path
         class="cls-3"
         d="m 171.1,30.1 h -2.6 c -1.4,0 -1.9,-0.5 -1.9,-1.6 v -0.4 c 0,-1 0.4,-1.6 1.9,-1.6 h 2.6 v -5 c 0,-1.4 0.7,-1.9 1.7,-1.9 h 0.4 c 1,0 1.7,0.4 1.7,1.9 v 5 h 7.6 c 1.4,0 1.9,0.5 1.9,1.6 v 0.4 c 0,1 -0.4,1.6 -1.9,1.6 H 175 v 16.3 c 0,4.2 1.1,6.2 4.3,6.2 a 5.5,5.5 0 0 0 4.5,-2.1 c 0.1,-0.1 1.3,0.4 1.3,1.9 0,1.5 -2.1,3.5 -5.9,3.5 -5.6,0 -8,-3.2 -8,-9.1 z"
         id="path62"
         inkscape:connector-curvature="0"
         style="fill:#00aa81" />
      <path
         class="cls-2"
         d="m 187.7,18.6 a 2.7,2.7 0 0 1 2.9,-2.6 h 1 c 2.1,0 2.6,1 3.5,3.1 l 10.2,22.7 10.3,-22.7 C 216.5,17 217,16 219.1,16 h 0.8 a 2.7,2.7 0 0 1 2.9,2.6 v 35 c 0,1.3 -0.5,1.9 -1.7,1.9 h -0.5 c -1.1,0 -1.7,-0.6 -1.7,-1.9 V 20.7 l -10,22.2 c -0.7,1.6 -1.6,2.6 -3.5,2.6 -1.9,0 -2.8,-1 -3.5,-2.6 L 191.6,20.7 v 32.9 c 0,1.3 -0.5,1.9 -1.7,1.9 h -0.6 c -1.1,0 -1.6,-0.6 -1.6,-1.9 z"
         id="path64"
         inkscape:connector-curvature="0"
         style="fill:#01434f" />
      <path
         class="cls-2"
         d="m 241.2,25.9 c 8.1,0 13.4,5.7 13.4,14.4 v 0.4 c 0,1.1 -0.4,1.3 -1.6,1.3 h -22.3 a 10.6,10.6 0 0 0 10.9,10.5 c 5.6,0 8.1,-2.4 9.8,-5.1 a 2.3,2.3 0 0 1 2.3,2.2 c 0,2 -4.3,6.4 -12.1,6.4 -7.8,0 -14.8,-6.2 -14.8,-15 0,-8.8 6.1,-15.1 14.4,-15.1 z m 9.2,12.7 c -0.4,-5.7 -3.8,-9.3 -9.2,-9.3 -5.4,0 -9.6,3.8 -10.4,9.3 z"
         id="path66"
         inkscape:connector-curvature="0"
         style="fill:#01434f" />
      <path
         class="cls-2"
         d="m 257.6,48 c 1.9,2.6 5.1,4.6 9.8,4.6 4.7,0 7.4,-1.9 7.4,-4.8 0,-2.9 -3,-4.1 -8.4,-5.3 -5.4,-1.2 -10,-2.2 -10,-8 0,-5.8 4.3,-8.7 10.9,-8.7 6.6,0 10.6,3.3 10.6,5.5 0,2.2 -2,2.2 -2.2,2 a 9.7,9.7 0 0 0 -8.4,-4.2 c -4.7,0 -7.2,2 -7.2,4.8 0,2.8 2.7,3.9 8,5.1 5.3,1.2 10.5,2.3 10.5,8.2 0,5.9 -4.3,8.7 -11.3,8.7 -7,0 -11.8,-3.7 -11.8,-5.8 a 2.3,2.3 0 0 1 2.1,-2.1 z"
         id="path68"
         inkscape:connector-curvature="0"
         style="fill:#01434f" />
      <path
         class="cls-2"
         d="m 281.9,14.7 c 0,-0.1 0.6,-0.4 1.3,-0.4 0.7,0 2.6,0.7 2.6,3.8 v 13 a 11.1,11.1 0 0 1 9.7,-5.3 c 7.6,0 11.4,5.1 11.4,12.6 v 15.2 c 0,1.4 -0.7,1.9 -1.7,1.9 h -0.4 c -1,0 -1.7,-0.4 -1.7,-1.9 V 38.7 c 0,-5.8 -2.9,-9.2 -7.7,-9.2 -4.8,0 -9.4,3.8 -9.4,9.8 v 14.3 c 0,1.4 -0.7,1.9 -1.7,1.9 h -0.4 c -1,0 -1.7,-0.4 -1.7,-1.9 z"
         id="path70"
         inkscape:connector-curvature="0"
         style="fill:#01434f" />
      <path
         class="cls-2"
         d="m 308.8,14.7 v 4.9 h -0.5 v -4.9 h -1.5 v -0.5 h 3.4 v 0.5 z"
         id="path72"
         inkscape:connector-curvature="0"
         style="fill:#01434f" />
      <path
         class="cls-2"
         d="m 311,19.6 0.4,-5.3 h 0.7 l 0.7,2 0.9,2.7 1,-2.7 0.7,-2 h 0.7 l 0.5,5.3 h -0.5 l -0.2,-2.1 -0.2,-2.6 -0.9,2.6 -0.7,2 h -0.6 l -0.7,-2 -0.9,-2.5 c 0,0 -0.1,1.2 -0.2,2.5 l -0.2,2.1 z"
         id="path74"
         inkscape:connector-curvature="0"
         style="fill:#01434f" />
    </g>
  </g>
</svg>
