<svg xmlns="http://www.w3.org/2000/svg" viewBox="0 0 316.6 72.2"><defs><style>.cls-1{fill:#d3d3d3;}.cls-2{fill:#01434f;}.cls-3{fill:#00aa81;}</style></defs><title>Asset 1</title><g id="Layer_2" data-name="Layer 2"><g id="Layer_1-2" data-name="Layer 1"><path class="cls-1" d="M61,19.9,33.4,3.9h-.5L5.3,19.9a.5.5,0,0,0-.3.4V52.2a.5.5,0,0,0,.3.4l27.6,16h.4l-15.9-9,1-.6L6,51.9V36.6h.1l12.7-6.9V43.9a.5.5,0,0,0,.2.4l11.8,7.1,1-.6-12-7.2V29.5l12.8,7.3V50.3l1-.6V36.8l11.2-6.4V30l-.6-.4L33.1,35.9h-.1L20.3,28.6h.2l12.6-7.6h.1l.8.5-.8-1.5h-.3L20.2,27.5v-15h.1l13-7.5,1.7.4.3.8,11.4,6.6h0V27.3l1,1h0V13.3l12.7,7.3V35.2h-.2L47.5,28.3h.1v1.2l12.5,6.8V51.9L46.7,59.8,36.6,53.7l-1,.6,1,.6,9.1,5.5L33.8,67.2l-.5,1.4h0L61,52.6a.5.5,0,0,0,.3-.4V20.3A.5.5,0,0,0,61,19.9ZM19.1,28.2l-.2.2h-.1L6,35.4l.2-14.7h.1L19,13.3V28.1ZM35.6,54.2l1-.6-2.2-1.5-1.2.7Z"/><rect class="cls-1" x="4.6" y="47.5" width="16.1" height="0.95" transform="matrix(0.86, -0.52, 0.52, 0.86, -22.91, 13.4)"/><rect class="cls-1" x="53.1" y="39.9" width="1" height="16.11" transform="translate(-15.1 69.2) rotate(-59)"/><polygon class="cls-2" points="33.3 68.7 18.8 60.4 19.8 59.8 46.6 43.6 46.6 28.6 46.1 28.6 33.3 20.9 33.3 20.6 32.9 20.6 32.9 4.2 33.8 4.2 33.8 20 47.6 28.4 47.7 43.7 47.1 44.5 20.8 60.3 33.3 67.6 33.3 68.7"/><circle class="cls-2" cx="33.2" cy="66.9" r="5.2"/><circle class="cls-3" cx="5.2" cy="35.2" r="5.2"/><circle class="cls-2" cx="46" cy="28.3" r="5.2"/><circle class="cls-2" cx="33.2" cy="3.9" r="3.9"/><circle class="cls-2" cx="19.5" cy="59.7" r="3.9"/><circle class="cls-3" cx="33.2" cy="35.7" r="3.9"/><circle class="cls-3" cx="60.3" cy="51.5" r="3.9"/><circle class="cls-3" cx="5.2" cy="19.8" r="3.9"/><circle class="cls-3" cx="60.3" cy="20.2" r="3.9"/><circle class="cls-3" cx="5.2" cy="51.5" r="2.7"/><circle class="cls-3" cx="19.1" cy="28.3" r="2.7"/><circle class="cls-3" cx="19.1" cy="12.2" r="2.7"/><circle class="cls-3" cx="19.1" cy="43.4" r="2.7"/><circle class="cls-2" cx="33.2" cy="52.2" r="2.7"/><circle class="cls-2" cx="46.4" cy="43.4" r="2.7"/><circle class="cls-3" cx="46" cy="59.7" r="2.7"/><circle class="cls-3" cx="60.3" cy="35.2" r="2.7"/><circle class="cls-2" cx="33.2" cy="19.9" r="2.7"/><circle class="cls-3" cx="46.4" cy="11.6" r="2.7"/><path class="cls-3" d="M74.8,18.6a2.3,2.3,0,0,1,2.3-2.3H87.8c9.1,0,14,3.8,14,11.2S97.2,38.7,88.9,38.8l12.4,14.7c.2.3-.8,1.9-2.5,1.9A3.3,3.3,0,0,1,96.3,54L83.7,38.8H78.8V53.6A1.7,1.7,0,0,1,77,55.4h-.5c-1.1,0-1.7-.6-1.7-1.9ZM88.2,35.4c6.4,0,9.4-3.1,9.4-7.7S94.4,20,87.9,20H78.8V35.4Z"/><path class="cls-3" d="M105.6,28.2c0-1.4.7-1.9,1.7-1.9h.4c1,0,1.7.4,1.7,1.9V53.6c0,1.4-.7,1.9-1.7,1.9h-.4c-1,0-1.7-.4-1.7-1.9Z"/><path class="cls-3" d="M120.1,51.8a3.4,3.4,0,0,1-1.3-2.8,4.4,4.4,0,0,1,1.3-2.8,10.1,10.1,0,0,1-7.2-9.6c0-6,4.9-10.8,11.6-10.8a12.7,12.7,0,0,1,7.2,2.2l2-3.2c.8-1.2,1.5-1.8,2.8-1.8a2.3,2.3,0,0,1,2.2,1.7L134,30.1a10,10,0,0,1,2.3,6.3c0,5.9-5.1,10.5-11.8,10.5H123a2.3,2.3,0,0,0-.4,1.4c0,2,2.7,2.2,7.9,3.5s8.4,2.9,8.4,7.5-5.4,8.5-14.6,8.5-13.5-2.5-13.5-7.8S114.9,52.9,120.1,51.8Zm4.3,12.9c6.6,0,10.6-1.9,10.6-5.2s-5.4-4.2-10-5.4-10.4,2.3-10.4,6S118,64.7,124.5,64.7Zm7.9-28.1c0-4.3-3.1-7.5-7.8-7.5a7.2,7.2,0,0,0-7.6,7.5c0,4.3,3.2,7.3,7.7,7.3S132.4,40.9,132.4,36.6Z"/><path class="cls-3" d="M140.2,14.7c0-.1.6-.4,1.3-.4s2.6.7,2.6,3.8V31.1a11.1,11.1,0,0,1,9.7-5.3c7.6,0,11.4,5.1,11.4,12.6V53.6c0,1.4-.7,1.9-1.7,1.9H163c-1,0-1.7-.4-1.7-1.9V38.7c0-5.8-2.9-9.2-7.7-9.2s-9.4,3.8-9.4,9.8V53.6c0,1.4-.7,1.9-1.7,1.9h-.4c-1,0-1.7-.4-1.7-1.9Z"/><path class="cls-3" d="M171.1,30.1h-2.6c-1.4,0-1.9-.5-1.9-1.6v-.4c0-1,.4-1.6,1.9-1.6h2.6v-5c0-1.4.7-1.9,1.7-1.9h.4c1,0,1.7.4,1.7,1.9v5h7.6c1.4,0,1.9.5,1.9,1.6v.4c0,1-.4,1.6-1.9,1.6H175V46.4c0,4.2,1.1,6.2,4.3,6.2a5.5,5.5,0,0,0,4.5-2.1c.1-.1,1.3.4,1.3,1.9s-2.1,3.5-5.9,3.5c-5.6,0-8-3.2-8-9.1Z"/><path class="cls-2" d="M187.7,18.6a2.7,2.7,0,0,1,2.9-2.6h1c2.1,0,2.6,1,3.5,3.1l10.2,22.7,10.3-22.7c.9-2.1,1.4-3.1,3.5-3.1h.8a2.7,2.7,0,0,1,2.9,2.6V53.6c0,1.3-.5,1.9-1.7,1.9h-.5c-1.1,0-1.7-.6-1.7-1.9V20.7L208.9,42.9c-.7,1.6-1.6,2.6-3.5,2.6s-2.8-1-3.5-2.6L191.6,20.7V53.6c0,1.3-.5,1.9-1.7,1.9h-.6c-1.1,0-1.6-.6-1.6-1.9Z"/><path class="cls-2" d="M241.2,25.9c8.1,0,13.4,5.7,13.4,14.4v.4c0,1.1-.4,1.3-1.6,1.3H230.7a10.6,10.6,0,0,0,10.9,10.5c5.6,0,8.1-2.4,9.8-5.1a2.3,2.3,0,0,1,2.3,2.2c0,2-4.3,6.4-12.1,6.4S226.8,49.8,226.8,41,232.9,25.9,241.2,25.9Zm9.2,12.7c-.4-5.7-3.8-9.3-9.2-9.3s-9.6,3.8-10.4,9.3Z"/><path class="cls-2" d="M257.6,48c1.9,2.6,5.1,4.6,9.8,4.6s7.4-1.9,7.4-4.8-3-4.1-8.4-5.3-10-2.2-10-8,4.3-8.7,10.9-8.7,10.6,3.3,10.6,5.5-2,2.2-2.2,2a9.7,9.7,0,0,0-8.4-4.2c-4.7,0-7.2,2-7.2,4.8s2.7,3.9,8,5.1,10.5,2.3,10.5,8.2-4.3,8.7-11.3,8.7-11.8-3.7-11.8-5.8A2.3,2.3,0,0,1,257.6,48Z"/><path class="cls-2" d="M281.9,14.7c0-.1.6-.4,1.3-.4s2.6.7,2.6,3.8V31.1a11.1,11.1,0,0,1,9.7-5.3c7.6,0,11.4,5.1,11.4,12.6V53.6c0,1.4-.7,1.9-1.7,1.9h-.4c-1,0-1.7-.4-1.7-1.9V38.7c0-5.8-2.9-9.2-7.7-9.2s-9.4,3.8-9.4,9.8V53.6c0,1.4-.7,1.9-1.7,1.9h-.4c-1,0-1.7-.4-1.7-1.9Z"/><path class="cls-2" d="M308.8,14.7v4.9h-.5V14.7h-1.5v-.5h3.4v.5Z"/><path class="cls-2" d="M311,19.6l.4-5.3h.7l.7,2,.9,2.7,1-2.7.7-2h.7l.5,5.3h-.5l-.2-2.1-.2-2.6-.9,2.6-.7,2h-.6l-.7-2-.9-2.5s-.1,1.2-.2,2.5l-.2,2.1Z"/></g></g></svg>