<?xml version="1.0" encoding="UTF-8" standalone="no"?>
<!-- Generator: Adobe Illustrator 12.0.0, SVG Export Plug-In . SVG Version: 6.00 Build 51448)  -->

<svg
   xmlns:dc="http://purl.org/dc/elements/1.1/"
   xmlns:cc="http://creativecommons.org/ns#"
   xmlns:rdf="http://www.w3.org/1999/02/22-rdf-syntax-ns#"
   xmlns:svg="http://www.w3.org/2000/svg"
   xmlns="http://www.w3.org/2000/svg"
   xmlns:sodipodi="http://sodipodi.sourceforge.net/DTD/sodipodi-0.dtd"
   xmlns:inkscape="http://www.inkscape.org/namespaces/inkscape"
   xml:space="preserve"
   overflow="visible"
   height="38.560001"
   viewBox="0 0 216 38.560001"
   width="216"
   version="1.1"
   enable-background="new 0 0 230 57"
   id="svg28"
   sodipodi:docname="scotiabank.svg"
   style="overflow:visible"
   inkscape:version="0.92.2 5c3e80d, 2017-08-06"><sodipodi:namedview
     pagecolor="#ffffff"
     bordercolor="#666666"
     borderopacity="1"
     objecttolerance="10"
     gridtolerance="10"
     guidetolerance="10"
     inkscape:pageopacity="0"
     inkscape:pageshadow="2"
     inkscape:window-width="1918"
     inkscape:window-height="2136"
     id="namedview30"
     showgrid="false"
     inkscape:zoom="1.6712963"
     inkscape:cx="109.79501"
     inkscape:cy="19.279999"
     inkscape:window-x="3840"
     inkscape:window-y="22"
     inkscape:window-maximized="0"
     inkscape:current-layer="svg28" /><metadata
     id="metadata2"><rdf:RDF><cc:Work
         rdf:about=""><dc:format>image/svg+xml</dc:format><dc:type
           rdf:resource="http://purl.org/dc/dcmitype/StillImage" /><dc:title /></cc:Work></rdf:RDF></metadata><defs
     id="defs4" /><path
     d="m 89.011,26.025 c 2.159,0 3.428,-1.893 3.428,-4.146 0,-2.284 -1.208,-4.175 -3.428,-4.175 -2.314,0 -3.424,1.891 -3.424,4.175 0,2.253 1.273,4.146 3.424,4.146 m 0,3.819 c -5.169,0 -8.871,-3.105 -8.871,-7.965 0,-4.8 3.835,-7.995 8.871,-7.995 5.037,0 8.874,3.175 8.874,7.995 0,4.86 -3.733,7.965 -8.874,7.965 z"
     id="path6"
     inkscape:connector-curvature="0"
     style="fill:#ed1b2e" /><path
     d="m 152.66,21.883 c 0,-2.04 -1.163,-3.854 -3.191,-3.854 -1.784,0 -3.222,1.525 -3.222,3.854 0,2.26 1.177,3.868 3.222,3.868 1.844,0 3.191,-1.533 3.191,-3.868 m -11.632,7.635 V 7.991 h 5.301 v 7.377 h 0.06 c 0.373,-0.234 2.087,-1.466 4.608,-1.466 4.128,0 7.162,3.319 7.162,7.709 0,5.486 -3.364,8.248 -7.195,8.248 -2.897,0 -4.369,-1.349 -4.731,-1.739 h -0.083 l -0.077,1.398 z"
     id="path8"
     inkscape:connector-curvature="0"
     style="fill:#ed1b2e" /><path
     d="m 115.21,6.542 c -1.637,0 -2.982,1.346 -2.982,2.981 0,1.638 1.346,2.983 2.982,2.983 1.638,0 2.982,-1.345 2.982,-2.983 0,-1.635 -1.344,-2.981 -2.982,-2.981 m -2.661,7.731 h 5.322 v 15.28 h -5.322 z"
     id="path10"
     inkscape:connector-curvature="0"
     style="fill:#ed1b2e" /><path
     d="m 180.86,29.531 h 5.165 v -7.886 c 0,-1.849 1.226,-3.113 2.791,-3.113 1.79,0 2.806,1.164 2.806,3.113 v 7.886 h 5.167 v -9.192 c 0,-3.459 -2.228,-6.421 -6.314,-6.421 -2.731,0 -4.15,1.483 -4.799,2.067 h -0.109 l -0.052,-1.691 h -4.654 v 15.237"
     id="path12"
     inkscape:connector-curvature="0"
     style="fill:#ed1b2e" /><polyline
     points="206.26,39.313,211.56,39.313,211.56,32.244,211.61,32.244,216.32,39.313,222.21,39.313,216.53,31.221,222.06,24.065,216.18,24.065,211.61,30.359,211.56,30.359,211.56,17.789,206.26,17.789,206.26,39.313"
     transform="translate(-6.21,-9.78)"
     id="polyline14"
     style="fill:#ed1b2e" /><path
     d="m 78.788,14.498 c -0.399,-0.11 -1.856,-0.611 -3.789,-0.611 -4.785,0 -8.371,2.995 -8.371,7.981 0,4.533 3.221,7.979 8.157,7.979 2.102,0 3.65,-0.561 4.003,-0.665 L 78.529,24.73 c -0.41,0.186 -1.468,0.79 -2.689,0.79 -2.143,0 -3.708,-1.517 -3.708,-3.652 0,-2.241 1.675,-3.686 3.77,-3.686 1.181,0 2.234,0.549 2.628,0.744 l 0.258,-4.428"
     id="path16"
     inkscape:connector-curvature="0"
     style="fill:#ed1b2e" /><path
     d="m 125.87,21.743 c 0,2.524 1.41,4.102 3.234,4.102 1.653,0 3.264,-1.548 3.264,-3.895 0,-2.365 -1.428,-3.984 -3.264,-3.984 -1.899,10e-4 -3.234,1.696 -3.234,3.777 m 11.734,-7.479 V 29.53 h -5.157 l -0.077,-1.539 h -0.112 c -0.572,0.516 -1.763,1.876 -5.09,1.876 -3.688,0 -6.919,-3.206 -6.919,-7.984 0,-4.432 2.865,-7.973 7.26,-7.973 2.989,0 4.21,1.317 4.667,1.735 h 0.138 l 0.052,-1.381 z"
     id="path18"
     inkscape:connector-curvature="0"
     style="fill:#ed1b2e" /><path
     d="m 165.69,21.734 c 0,2.525 1.409,4.104 3.234,4.104 1.652,0 3.264,-1.549 3.264,-3.896 0,-2.365 -1.429,-3.983 -3.264,-3.983 -1.901,0 -3.234,1.695 -3.234,3.775 m 11.735,-7.477 v 15.267 h -5.159 l -0.077,-1.541 h -0.11 c -0.572,0.516 -1.765,1.879 -5.09,1.879 -3.689,0 -6.92,-3.208 -6.92,-7.985 0,-4.435 2.865,-7.975 7.26,-7.975 2.99,0 4.209,1.318 4.668,1.736 h 0.137 l 0.052,-1.381 z"
     id="path20"
     inkscape:connector-curvature="0"
     style="fill:#ed1b2e" /><path
     d="m 49.583,28.965 c 1.484,0.449 3.741,0.861 6.134,0.861 4.532,0 9.053,-1.605 9.053,-6.58 0,-6.83 -9.415,-5.884 -9.415,-8.606 0,-1.392 1.447,-1.693 2.865,-1.693 1.968,0 4.458,0.945 5.011,1.169 L 63.658,9.412 C 62.284,8.945 60.2,8.678 58.24,8.678 c -4.475,0 -8.888,1.749 -8.888,6.18 0,6.709 9.389,5.311 9.389,8.83 0,1.355 -1.35,1.869 -3.076,1.869 -2.37,0 -4.599,-1.186 -5.563,-1.614 l -0.519,5.022"
     id="path22"
     inkscape:connector-curvature="0"
     style="fill:#ed1b2e" /><path
     d="m 109.97,25.369 c -0.262,0.072 -0.978,0.256 -1.47,0.256 -1.076,0 -2.252,-0.504 -2.252,-2.368 v -5.161 h 3.337 v -3.837 h -3.337 V 9.342 h -5.312 v 4.917 h -2.322 v 3.837 h 2.322 v 6.038 c 0,3.322 1.542,5.702 5.471,5.702 1.141,0 2.188,-0.152 2.907,-0.289 l 0.656,-4.178"
     id="path24"
     inkscape:connector-curvature="0"
     style="fill:#ed1b2e" /><path
     d="m 30.838,19.295 c 0.134,6.593 -5.825,11.571 -10.805,11.571 H 7.723 L 0,38.56 h 19.899 c 6.353,0 12.447,-5.715 12.447,-12.538 0,-2.004 -0.242,-4.614 -1.507,-6.593 v -0.134 m -2.113,4.857 c 0.768,-1.372 1.145,-2.88 1.238,-4.347 h -5.585 c 0,1.36 -0.227,2.84 -0.738,4.347 z m -5.449,0.862 c -0.634,1.613 -2.14,3.711 -3.605,4.856 2.837,0 6.08,-1.238 8.45,-4.856 z m -0.634,-0.862 c 0.499,-1.372 0.727,-2.88 0.862,-4.347 h -8.45 c 0.135,1.467 0.363,2.975 0.861,4.347 z m -7.694,0 C 14.452,22.645 14.182,21.166 14.182,19.805 H 8.599 c 0.134,1.467 0.498,2.975 1.236,4.347 h 5.115 z m 4.345,4.844 c 1.103,-0.997 2.341,-2.61 2.973,-3.982 h -5.974 c 0.634,1.372 1.871,2.985 3.001,3.982 z m -8.961,-3.982 c 2.475,3.618 5.717,4.856 8.598,4.856 -1.509,-1.146 -3.108,-3.243 -3.621,-4.856 H 10.334 Z M 23.642,14.585 c 0.511,1.332 0.738,2.839 0.738,4.345 h 5.585 c -0.093,-1.506 -0.471,-3.013 -1.238,-4.345 z m 4.481,-1.01 c -2.37,-3.471 -5.612,-4.843 -8.45,-4.843 1.465,1.104 2.971,3.203 3.605,4.843 z m -12.206,1.01 c -0.498,1.332 -0.726,2.839 -0.861,4.345 h 8.45 c -0.135,-1.506 -0.364,-3.013 -0.862,-4.345 z m -6.081,0 C 9.098,15.917 8.733,17.424 8.6,18.93 h 5.583 c 0,-1.506 0.27,-3.013 0.768,-4.345 z M 19.295,9.7 c -1.13,0.997 -2.367,2.503 -3,3.875 h 5.974 C 21.636,12.203 20.398,10.697 19.295,9.7 Z m -3.983,3.875 c 0.513,-1.641 2.112,-3.74 3.621,-4.843 -2.881,0 -6.124,1.372 -8.598,4.843 z M 7.724,19.159 C 6.487,17.195 6.216,14.585 6.216,12.58 6.216,5.757 12.312,0 18.661,0 H 38.563 L 30.839,7.789 H 18.528 c -4.95,0 -10.94,5.02 -10.804,11.37 z"
     id="path26"
     inkscape:connector-curvature="0"
     style="fill:#ed1b2e" /></svg>