<?xml version="1.0" encoding="UTF-8" standalone="no"?>
<!-- Generator: Adobe Illustrator 19.2.1, SVG Export Plug-In . SVG Version: 6.00 Build 0)  -->

<svg
   xmlns:dc="http://purl.org/dc/elements/1.1/"
   xmlns:cc="http://creativecommons.org/ns#"
   xmlns:rdf="http://www.w3.org/1999/02/22-rdf-syntax-ns#"
   xmlns:svg="http://www.w3.org/2000/svg"
   xmlns="http://www.w3.org/2000/svg"
   xmlns:sodipodi="http://sodipodi.sourceforge.net/DTD/sodipodi-0.dtd"
   xmlns:inkscape="http://www.inkscape.org/namespaces/inkscape"
   version="1.1"
   x="0px"
   y="0px"
   viewBox="0 0 1045.5 344.00684"
   enable-background="new 0 0 1085.5 396.5"
   xml:space="preserve"
   id="svg47"
   sodipodi:docname="telus.svg"
   inkscape:version="0.92.2 5c3e80d, 2017-08-06"
   width="1045.5"
   height="344.00684"><metadata
     id="metadata53"><rdf:RDF><cc:Work
         rdf:about=""><dc:format>image/svg+xml</dc:format><dc:type
           rdf:resource="http://purl.org/dc/dcmitype/StillImage" /><dc:title /></cc:Work></rdf:RDF></metadata><defs
     id="defs51" /><sodipodi:namedview
     pagecolor="#ffffff"
     bordercolor="#666666"
     borderopacity="1"
     objecttolerance="10"
     gridtolerance="10"
     guidetolerance="10"
     inkscape:pageopacity="0"
     inkscape:pageshadow="2"
     inkscape:window-width="1918"
     inkscape:window-height="2136"
     id="namedview49"
     showgrid="false"
     inkscape:zoom="0.33256564"
     inkscape:cx="540.79156"
     inkscape:cy="171.95"
     inkscape:window-x="3840"
     inkscape:window-y="22"
     inkscape:window-maximized="0"
     inkscape:current-layer="svg47" /><g
     id="Layer_17"
     transform="translate(-20,-26.193163)"><polyline
       points="618.7,79.4 618.7,58.7 545,58.7 545,165 618.7,165 618.7,143.4 574.8,143.4 574.8,119.9      611.3,119.9 611.3,99.3 574.8,99.3 574.8,79.4 618.7,79.4   "
       id="polyline2"
       style="fill:#ffffff" /></g><g
     id="Layer_16"
     transform="translate(-20,-26.193163)"><polyline
       points="748.7,144 702.6,144 702.6,58.7 672.4,58.7 672.4,165 748.7,165 748.7,144  "
       id="polyline5"
       style="fill:#ffffff" /></g><g
     id="Layer_15"
     transform="translate(-20,-26.193163)"><path
       d="M 992,99.2 C 971.6,94.6 964.5,94.1 964.5,86 c 0,-7.6 10.1,-9.9 15.9,-9.9 9.4,0 20.5,2.2 31.8,8 l 8.2,-19.6 c -11.6,-6.3 -26.4,-8.9 -40.7,-8.9 -28.1,0 -47,11.4 -47.8,33.6 -0.8,20.3 15.7,27.9 30.8,31 14.6,3 29.4,5.6 29.7,14.3 0.3,8 -6.9,11.4 -20.5,11.4 -12.6,0 -24.3,-4 -36.2,-9 l -7,21.3 c 13.7,5.8 27.7,9.1 42.1,9.1 20,0 34.5,-3.1 45.3,-13.2 7.5,-6.9 9.9,-15.3 9.9,-23.2 0,-16.9 -10.5,-26.4 -34,-31.7"
       id="path8"
       inkscape:connector-curvature="0"
       style="fill:#ffffff" /></g><g
     id="Layer_14"
     transform="translate(-20,-26.193163)"><polyline
       points="502.1,79.7 502.1,58.7 409.4,58.7 409.4,79.7 440.7,79.7 440.7,165 470.7,165 470.7,79.7      502.1,79.7  "
       id="polyline11"
       style="fill:#ffffff" /></g><g
     id="Layer_13"
     transform="translate(-20,-26.193163)"><path
       d="m 851.7,58.7 v 67.6 c 0,5.3 0,6.8 -0.3,8.8 -1,6.4 -7.2,10.2 -17.2,10.3 -7.4,-0.1 -12.8,-2.3 -15.3,-6.1 -1.3,-2 -1.9,-5.5 -1.9,-11.2 V 58.7 H 785.7 V 132 c 0,10.1 1.4,14.7 5.9,20.5 7.6,9.5 22.3,14.5 42.6,14.5 0.2,0 0.4,0 0.7,0 0.1,0 0.3,0 0.4,0 27.2,0 41.2,-10.6 45.3,-20.5 2,-4.8 2.2,-7.1 2.2,-16.8 v -71 h -31.1"
       id="path14"
       inkscape:connector-curvature="0"
       style="fill:#ffffff" /></g><g
     id="Layer_12"
     transform="translate(-20,-26.193163)"><path
       d="m 423.5,29.6 -140.9,28 c 4.7,-7.7 7.6,-15 8.1,-21.4 0,-0.2 0,-0.4 0,-0.6 0,-2.4 -1,-4.8 -2.8,-6.6 -1.9,-1.9 -4.5,-2.9 -7.2,-2.8 -8.5,0.5 -24.4,13.1 -33,20.7 -9.1,7.9 -17.5,15.6 -25.4,23.2 L 62.4,104.4 55.2,123.6 205.3,87.1 c -14.4,15.3 -26.6,30.5 -36.7,46 -39,20.9 -88.6,42.3 -138,59.1 l -1.2,0.4 -9.4,25.5 5.4,-2.1 c 31.4,-12 83.7,-34.4 131.2,-59.4 -2.7,7.1 -4,13.7 -4,19.7 0,4.5 0.8,8.6 2.2,12.4 3,7.5 8.9,13.2 17,16.5 12.2,4.8 28.7,4.9 47.6,-0.8 48.3,-14.7 105.6,-59.6 118.1,-68.6 l 0.5,-0.3 c 0.5,-0.3 0.5,-0.9 0.3,-1.2 -0.3,-0.4 -0.8,-0.5 -1.3,-0.3 l -0.6,0.4 c -13.4,8 -78.5,46.6 -120.8,58 -21.5,5.8 -37.9,2.6 -44.1,-6 -2.2,-2.9 -3.2,-6.7 -3.2,-11.1 0,-8.5 4,-19.4 11.8,-31.4 7.1,-4.1 13.8,-8 19.7,-11.8 26.6,-14.9 55.7,-39 73.6,-61.5 99.4,-24.5 150,-39 150.5,-39.2 0.7,-0.2 0.9,-0.7 0.8,-1.1 0,-0.5 -0.5,-0.8 -1.2,-0.7 z m -147.4,9.8 c 2.7,-1.8 3.5,-0.7 2.7,1.3 -0.7,1.7 -2.9,8.4 -12.2,20.2 l -18.4,3.7 v 0 l -0.9,0.2 -3.7,0.8 c 12.9,-12 24.7,-21.2 32.5,-26.2 z m -48.8,59.8 c -11.5,9.5 -19.7,14.8 -36.4,24.6 10.6,-14.9 23.1,-29.1 35.5,-41.7 l 21.4,-5.2 0.6,-0.1 c 1.8,-0.4 3.4,-0.8 5.1,-1.2 -6.8,6.7 -15.3,14.6 -26.2,23.6 z"
       id="path17"
       inkscape:connector-curvature="0"
       style="fill:#ffffff" /></g><g
     id="Layer_11"
     transform="translate(-20,-26.193163)"><path
       d="m 631.3,332.6 v -18 h -0.4 c -1.2,3.1 -3,5.9 -5.4,8.4 -2.4,2.6 -5.1,4.7 -8.2,6.5 -3.1,1.8 -6.3,3.2 -9.8,4.1 -3.5,1 -7,1.5 -10.4,1.5 -7.2,0 -13.5,-1.3 -18.8,-3.9 -5.3,-2.6 -9.8,-6.2 -13.3,-10.8 -3.6,-4.6 -6.2,-9.9 -7.9,-16 -1.7,-6.1 -2.6,-12.4 -2.6,-19.2 0,-6.7 0.9,-13.1 2.6,-19.2 1.7,-6 4.3,-11.4 7.9,-16 3.5,-4.6 8,-8.2 13.3,-10.9 5.3,-2.7 11.6,-4 18.8,-4 3.5,0 7,0.4 10.4,1.3 3.4,0.9 6.5,2.2 9.4,3.9 2.9,1.8 5.5,4 7.8,6.5 2.3,2.6 4,5.6 5.2,9 h 0.4 v -54.3 h 11.6 v 131 h -10.6 z m -63.4,-32.7 c 1.2,4.8 3,9.1 5.5,12.9 2.5,3.8 5.7,6.9 9.6,9.3 3.9,2.4 8.6,3.6 14.1,3.6 6.1,0 11.3,-1.2 15.5,-3.6 4.2,-2.4 7.6,-5.5 10.3,-9.3 2.6,-3.8 4.5,-8.1 5.7,-12.9 1.2,-4.8 1.7,-9.7 1.7,-14.6 0,-4.9 -0.6,-9.7 -1.7,-14.6 -1.2,-4.8 -3.1,-9.1 -5.7,-12.9 -2.6,-3.8 -6,-6.9 -10.3,-9.3 -4.2,-2.4 -9.4,-3.6 -15.5,-3.6 -5.5,0 -10.2,1.2 -14.1,3.6 -3.9,2.4 -7.1,5.5 -9.6,9.3 -2.5,3.8 -4.3,8.1 -5.5,12.9 -1.2,4.8 -1.7,9.7 -1.7,14.6 -0.1,4.9 0.5,9.8 1.7,14.6 z"
       id="path20"
       inkscape:connector-curvature="0"
       style="fill:#ffffff" /></g><g
     id="Layer_10"
     transform="translate(-20,-26.193163)"><path
       d="m 679.4,201.6 v 18.5 h -11.6 v -18.5 z m 0,36.4 v 94.7 H 667.8 V 238 Z"
       id="path23"
       inkscape:connector-curvature="0"
       style="fill:#ffffff" /></g><g
     id="Layer_9"
     transform="translate(-20,-26.193163)"><path
       d="m 783,343.8 c -1.5,5.6 -3.9,10.4 -7.3,14.3 -3.3,3.9 -7.6,6.9 -12.9,9 -5.3,2.1 -11.8,3.1 -19.5,3.1 -4.8,0 -9.4,-0.6 -13.9,-1.7 -4.5,-1.1 -8.6,-2.8 -12.2,-5.1 -3.6,-2.3 -6.6,-5.3 -9,-8.9 -2.4,-3.6 -3.8,-7.9 -4.1,-12.9 h 11.6 c 0.6,3.6 1.8,6.5 3.6,8.9 1.8,2.4 3.9,4.3 6.4,5.8 2.5,1.5 5.3,2.5 8.4,3.2 3.1,0.7 6.2,1 9.4,1 10.8,0 18.5,-3.1 23.3,-9.2 4.8,-6.1 7.2,-14.9 7.2,-26.4 V 312 h -0.4 c -2.7,5.9 -6.6,10.6 -11.8,14.1 -5.2,3.5 -11.3,5.3 -18.3,5.3 -7.6,0 -14.1,-1.3 -19.4,-3.8 -5.4,-2.5 -9.8,-6 -13.3,-10.4 -3.5,-4.4 -6,-9.6 -7.6,-15.5 -1.6,-5.9 -2.4,-12.3 -2.4,-19 0,-6.5 0.9,-12.6 2.8,-18.5 1.9,-5.8 4.7,-10.9 8.3,-15.2 3.6,-4.3 8.1,-7.8 13.4,-10.3 5.3,-2.5 11.4,-3.8 18.3,-3.8 3.6,0 6.9,0.5 10,1.5 3.1,1 6,2.4 8.5,4.1 2.6,1.8 4.9,3.8 6.9,6.2 2,2.3 3.6,4.8 4.7,7.3 h 0.4 v -16 h 11.6 v 87 c -0.5,6.9 -1.2,13.2 -2.7,18.8 z m -26.6,-25.2 c 3.8,-2.1 7,-5 9.5,-8.4 2.6,-3.5 4.5,-7.5 5.8,-12 1.3,-4.5 1.9,-9.2 1.9,-13.9 0,-4.6 -0.6,-9.3 -1.7,-13.9 -1.1,-4.6 -2.9,-8.9 -5.3,-12.7 -2.4,-3.8 -5.6,-6.8 -9.5,-9.2 -3.9,-2.3 -8.5,-3.5 -14,-3.5 -5.5,0 -10.2,1.1 -14.1,3.4 -3.9,2.3 -7.2,5.2 -9.7,8.9 -2.6,3.7 -4.4,7.9 -5.6,12.6 -1.2,4.7 -1.7,9.5 -1.7,14.4 0,4.8 0.6,9.4 1.8,13.9 1.2,4.5 3.1,8.5 5.7,12 2.6,3.5 5.8,6.3 9.7,8.4 3.9,2.1 8.6,3.2 13.9,3.2 5.1,0 9.5,-1 13.3,-3.2 z"
       id="path26"
       inkscape:connector-curvature="0"
       style="fill:#ffffff" /></g><g
     id="Layer_8"
     transform="translate(-20,-26.193163)"><path
       d="m 822.7,201.6 v 18.5 h -11.6 v -18.5 z m 0,36.4 v 94.7 H 811.1 V 238 Z"
       id="path29"
       inkscape:connector-curvature="0"
       style="fill:#ffffff" /></g><g
     id="Layer_7"
     transform="translate(-20,-26.193163)"><path
       d="m 886.2,238 v 9.7 h -19.3 v 63.9 c 0,3.8 0.5,6.8 1.6,8.9 1,2.1 3.6,3.3 7.8,3.6 3.3,0 6.6,-0.2 9.9,-0.6 v 9.7 c -1.7,0 -3.4,0.1 -5.1,0.2 -1.7,0.1 -3.4,0.2 -5.1,0.2 -7.7,0 -13.1,-1.5 -16.1,-4.5 -3.1,-3 -4.5,-8.5 -4.4,-16.6 V 247.7 H 839 V 238 h 16.5 v -28.4 h 11.6 V 238 Z"
       id="path32"
       inkscape:connector-curvature="0"
       style="fill:#ffffff" /></g><g
     id="Layer_6"
     transform="translate(-20,-26.193163)"><path
       d="m 908.9,252.6 c 2,-4 4.6,-7.3 8,-9.9 3.4,-2.6 7.3,-4.5 11.8,-5.7 4.5,-1.2 9.5,-1.8 15,-1.8 4.2,0 8.3,0.4 12.5,1.2 4.2,0.8 7.9,2.3 11.2,4.5 3.3,2.2 6,5.3 8.1,9.3 2.1,4 3.1,9.2 3.1,15.5 V 316 c 0,4.6 2.3,6.9 6.8,6.9 1.3,0 2.6,-0.2 3.7,-0.7 v 9.7 c -1.3,0.2 -2.5,0.4 -3.6,0.5 -1,0.1 -2.4,0.2 -3.9,0.2 -2.9,0 -5.3,-0.4 -7.1,-1.2 -1.8,-0.8 -3.1,-1.9 -4.1,-3.4 -1,-1.5 -1.6,-3.2 -1.9,-5.2 -0.3,-2 -0.5,-4.2 -0.5,-6.7 h -0.4 c -2.1,3.1 -4.2,5.8 -6.3,8.2 -2.1,2.4 -4.5,4.4 -7.2,6 -2.6,1.6 -5.6,2.8 -9,3.7 -3.4,0.9 -7.4,1.3 -12,1.3 -4.4,0 -8.5,-0.5 -12.4,-1.6 -3.9,-1 -7.2,-2.7 -10.1,-4.9 -2.9,-2.3 -5.2,-5.1 -6.8,-8.6 -1.6,-3.5 -2.5,-7.6 -2.5,-12.4 0,-6.6 1.5,-11.8 4.4,-15.5 2.9,-3.7 6.8,-6.6 11.6,-8.5 4.8,-2 10.3,-3.3 16.3,-4.1 6.1,-0.8 12.2,-1.6 18.5,-2.3 2.4,-0.2 4.6,-0.5 6.4,-0.9 1.8,-0.4 3.4,-1 4.6,-1.9 1.2,-0.9 2.2,-2.2 2.8,-3.8 0.7,-1.6 1,-3.7 1,-6.2 0,-3.9 -0.6,-7.1 -1.9,-9.6 -1.3,-2.5 -3,-4.5 -5.3,-6 -2.3,-1.5 -4.9,-2.5 -7.9,-3 -3,-0.6 -6.2,-0.8 -9.6,-0.8 -7.3,0 -13.3,1.7 -18,5.2 -4.6,3.5 -7.1,9.1 -7.3,16.8 h -11.6 c 0.5,-5.7 1.7,-10.5 3.6,-14.6 z m 57.8,28.3 c -0.7,1.4 -2.1,2.3 -4.2,2.9 -2.1,0.6 -3.9,1 -5.5,1.3 -4.9,0.8 -9.9,1.6 -15.1,2.3 -5.2,0.7 -9.9,1.7 -14.2,3 -4.3,1.3 -7.8,3.3 -10.6,5.8 -2.7,2.5 -4.1,6.1 -4.1,10.7 0,2.9 0.6,5.6 1.7,7.8 1.2,2.3 2.7,4.2 4.7,5.9 1.9,1.7 4.2,2.9 6.8,3.8 2.6,0.9 5.2,1.3 7.9,1.3 4.4,0 8.6,-0.7 12.7,-2 4,-1.3 7.6,-3.3 10.6,-5.9 3,-2.6 5.4,-5.7 7.2,-9.4 1.8,-3.7 2.7,-7.8 2.7,-12.5 v -15.1 h -0.6 z"
       id="path35"
       inkscape:connector-curvature="0"
       style="fill:#ffffff" /></g><g
     id="Layer_5"
     transform="translate(-20,-26.193163)"><path
       d="m 1017.2,201.6 v 131 h -11.6 v -131 z"
       id="path38"
       inkscape:connector-curvature="0"
       style="fill:#ffffff" /></g><g
     id="Layer_4"
     transform="translate(-20,-26.193163)"><path
       d="m 1032.3,201.6 h 13.2 v 1.5 h -5.7 v 16.7 h -1.7 v -16.7 h -5.7 v -1.5 z"
       id="path41"
       inkscape:connector-curvature="0"
       style="fill:#ffffff" /></g><g
     id="Layer_3"
     transform="translate(-20,-26.193163)"><path
       d="m 1048.5,219.7 v -18.1 h 2.6 l 5.9,16 h 0.1 l 5.8,-16 h 2.6 v 18.1 h -1.7 v -16.1 0 l -5.9,16.1 h -1.6 l -6,-16.1 v 0 16.1 z"
       id="path44"
       inkscape:connector-curvature="0"
       style="fill:#ffffff" /></g></svg>