<?xml version="1.0" encoding="UTF-8" standalone="no"?>
<!-- Created with Inkscape (http://www.inkscape.org/) -->

<svg
   xmlns:dc="http://purl.org/dc/elements/1.1/"
   xmlns:cc="http://creativecommons.org/ns#"
   xmlns:rdf="http://www.w3.org/1999/02/22-rdf-syntax-ns#"
   xmlns:svg="http://www.w3.org/2000/svg"
   xmlns="http://www.w3.org/2000/svg"
   xmlns:sodipodi="http://sodipodi.sourceforge.net/DTD/sodipodi-0.dtd"
   xmlns:inkscape="http://www.inkscape.org/namespaces/inkscape"
   version="1.1"
   id="svg2"
   xml:space="preserve"
   width="132"
   height="179.99973"
   viewBox="0 0 132 179.99972"
   sodipodi:docname="ubc_large.svg"
   inkscape:version="0.92.2 5c3e80d, 2017-08-06"><metadata
     id="metadata8"><rdf:RDF><cc:Work
         rdf:about=""><dc:format>image/svg+xml</dc:format><dc:type
           rdf:resource="http://purl.org/dc/dcmitype/StillImage" /><dc:title></dc:title></cc:Work></rdf:RDF></metadata><defs
     id="defs6" /><sodipodi:namedview
     pagecolor="#ffffff"
     bordercolor="#666666"
     borderopacity="1"
     objecttolerance="10"
     gridtolerance="10"
     guidetolerance="10"
     inkscape:pageopacity="0"
     inkscape:pageshadow="2"
     inkscape:window-width="1918"
     inkscape:window-height="2136"
     id="namedview4"
     showgrid="false"
     inkscape:pagecheckerboard="true"
     fit-margin-top="0"
     fit-margin-left="0"
     fit-margin-right="0"
     fit-margin-bottom="0"
     inkscape:zoom="5.0556079"
     inkscape:cx="118.84341"
     inkscape:cy="71.654227"
     inkscape:window-x="3840"
     inkscape:window-y="22"
     inkscape:window-maximized="0"
     inkscape:current-layer="g10" /><g
     id="g10"
     inkscape:groupmode="layer"
     inkscape:label="ink_ext_XXXXXX"
     transform="matrix(1.3333333,0,0,-1.3333333,-65.890665,214.14666)"><path
       inkscape:connector-curvature="0"
       id="path14"
       style="fill:#ffffff;fill-opacity:1;fill-rule:nonzero;stroke:none;stroke-width:0.1"
       d="m 98.918,110.476 5.277,-38.2881 17.347,28.9851 -7.36,-31.8808 18.7,17.8906 -9.738,-23.6199 15.559,11.6121 C 131.461,55.466 125.149,44.416 98.918,35.434 v 0 0 C 72.6863,44.416 66.375,55.466 59.1328,75.175 L 74.6914,63.5629 64.9539,87.1828 83.6543,69.2922 76.2938,101.173 93.6402,72.1879 98.918,110.476 v 0" /><path
       inkscape:connector-curvature="0"
       id="path16"
       style="fill:#ffffff;fill-opacity:1;fill-rule:nonzero;stroke:none;stroke-width:0.1"
       d="m 71.4383,123.304 c -7.9485,0 -12.6945,4.253 -12.6945,11.4 v 17.108 h 6.5894 v -16.839 c 0,-4.152 2.1832,-6.435 6.1563,-6.435 4.0738,0 6.2339,2.187 6.2339,6.317 v 16.957 h 6.6332 v -16.995 c 0,-7.103 -4.9496,-11.513 -12.9183,-11.513" /><path
       inkscape:connector-curvature="0"
       id="path18"
       style="fill:#ffffff;fill-opacity:1;fill-rule:nonzero;stroke:none;stroke-width:0.1"
       d="m 99.1648,123.778 h -9.2023 v 28.034 h 9.3391 c 6.8274,0 10.5894,-2.651 10.5894,-7.446 0,-2.523 -1.316,-4.465 -3.828,-5.655 3.368,-1.189 5.078,-3.413 5.078,-6.629 0,-5.359 -4.25,-8.304 -11.9762,-8.304 m -2.8359,4.681 h 2.8359 c 2.5632,0 5.6092,0.655 5.6092,3.78 0,3.221 -3.097,3.906 -5.7033,3.906 h -2.7418 z m 0,12.091 h 2.3945 c 3.2066,0 4.9806,1.203 4.9806,3.384 0,2.145 -1.547,3.19 -4.7192,3.19 h -2.6559 v -6.574" /><path
       inkscape:connector-curvature="0"
       id="path20"
       style="fill:#ffffff;fill-opacity:1;fill-rule:nonzero;stroke:none;stroke-width:0.1"
       d="m 129.598,123.304 c -9.074,0 -14.933,5.666 -14.933,14.453 0,8.683 6.074,14.523 15.112,14.523 3.352,0 6.173,-0.66 8.622,-2.02 l 0.215,-0.119 -0.985,-5.709 -0.433,0.289 c -2.407,1.616 -4.696,2.361 -7.196,2.361 -5.391,0 -8.613,-3.474 -8.613,-9.29 0,-5.71 3.332,-9.254 8.703,-9.254 2.543,0 5.047,0.764 7.653,2.332 l 0.429,0.258 0.93,-5.325 -0.207,-0.121 c -2.676,-1.531 -5.977,-2.378 -9.297,-2.378" /><path
       inkscape:connector-curvature="0"
       id="path22"
       style="fill:#ffffff;fill-opacity:1;fill-rule:nonzero;stroke:none;stroke-width:0.1"
       d="M 98.918,29.4969 C 67.9492,38.2699 53.168,58.716 53.168,87.8641 V 156.86 h 91.5 V 87.8641 c 0,-29.1481 -14.782,-49.5942 -45.75,-58.3672 z M 49.418,160.61 V 87.3949 c 0,-30.7699 16.7418,-53.048 49.5,-61.7847 32.757,8.7367 49.5,31.0148 49.5,61.7847 V 160.61 h -99" /><path
       inkscape:connector-curvature="0"
       id="path24"
       style="fill:#ffffff;fill-opacity:1;fill-rule:nonzero;stroke:none;stroke-width:0.1"
       d="m 98.9195,113.848 c 6.9015,0 7.8355,-2.8 13.3945,-2.766 5.539,-0.034 6.488,2.766 13.39,2.766 6.902,0 7.852,-2.8 13.395,-2.766 v 6.429 c -5.543,-0.038 -6.493,2.728 -13.395,2.728 -6.902,0 -7.851,-2.766 -13.39,-2.728 -5.559,-0.038 -6.493,2.728 -13.3945,2.728 -6.9027,0 -7.8359,-2.766 -13.3945,-2.728 -5.5391,-0.038 -6.4891,2.728 -13.3906,2.728 -6.9028,0 -7.8559,-2.766 -13.3946,-2.728 v -6.429 c 5.5387,-0.034 6.4918,2.766 13.3946,2.766 6.9015,0 7.8515,-2.8 13.3906,-2.766 5.5586,-0.034 6.4918,2.766 13.3945,2.766" /><path
       inkscape:connector-curvature="0"
       id="path26"
       style="fill:#ffffff;fill-opacity:1;fill-rule:nonzero;stroke:none;stroke-width:0.1"
       d="m 103.293,102.232 c 3.329,-0.796 4.914,-2.3172 9.021,-2.2918 5.539,-0.0347 6.488,2.7658 13.39,2.7658 6.902,0 7.852,-2.8005 13.395,-2.7658 v 6.4278 c -5.543,-0.037 -6.493,2.728 -13.395,2.728 -6.902,0 -7.851,-2.765 -13.39,-2.728 -4.463,-0.03 -5.947,1.746 -9.929,2.448 l 0.908,-6.584" /><path
       inkscape:connector-curvature="0"
       id="path28"
       style="fill:#ffffff;fill-opacity:1;fill-rule:nonzero;stroke:none;stroke-width:0.1"
       d="m 85.525,99.9402 c 4.1055,-0.0254 5.6898,1.4948 9.018,2.2918 l 0.9074,6.583 c -3.9801,-0.702 -5.4641,-2.477 -9.9254,-2.447 -5.5391,-0.037 -6.4891,2.728 -13.3906,2.728 -6.9028,0 -7.8559,-2.765 -13.3946,-2.728 v -6.4278 c 5.5387,-0.0347 6.4918,2.7658 13.3946,2.7658 6.9015,0 7.8515,-2.8005 13.3906,-2.7658" /><path
       inkscape:connector-curvature="0"
       id="path30"
       style="fill:#ffffff;fill-opacity:1;fill-rule:nonzero;stroke:none;stroke-width:0.1"
       d="m 104.893,90.6219 c 1.883,-0.6469 3.33,-1.4379 5.567,-1.7188 l 3.858,6.4469 c -0.603,-0.082 -1.261,-0.1289 -2.004,-0.1238 -3.819,-0.025 -5.455,1.2718 -8.343,2.0859 l 0.922,-6.6902" /><path
       inkscape:connector-curvature="0"
       id="path32"
       style="fill:#ffffff;fill-opacity:1;fill-rule:nonzero;stroke:none;stroke-width:0.1"
       d="m 122.563,91.334 c 0.902,0.1422 1.928,0.2301 3.141,0.2301 6.902,0 7.852,-2.8 13.395,-2.7661 v 6.4282 c -5.543,-0.0371 -6.493,2.7289 -13.395,2.7289 -0.583,0 -1.121,-0.0223 -1.626,-0.0582 l -1.515,-6.5629" /><path
       inkscape:connector-curvature="0"
       id="path34"
       style="fill:#ffffff;fill-opacity:1;fill-rule:nonzero;stroke:none;stroke-width:0.1"
       d="m 75.2727,91.334 -1.5153,6.5629 c -0.5039,0.0359 -1.0406,0.0582 -1.623,0.0582 -6.9028,0 -7.8559,-2.766 -13.3946,-2.7289 V 88.798 c 5.5387,-0.0339 6.4918,2.7661 13.3946,2.7661 1.2113,0 2.2367,-0.0879 3.1383,-0.2301" /><path
       inkscape:connector-curvature="0"
       id="path36"
       style="fill:#ffffff;fill-opacity:1;fill-rule:nonzero;stroke:none;stroke-width:0.1"
       d="m 87.3762,88.9031 c 2.2371,0.2797 3.684,1.0699 5.5664,1.718 l 0.9222,6.691 c -2.8863,-0.8152 -4.5222,-2.1109 -8.3398,-2.0859 -0.7441,-0.0051 -1.4035,0.0418 -2.0074,0.125 l 3.8586,-6.4481" /></g></svg>