<?xml version="1.0" encoding="utf-8"?>
<!-- Generator: Adobe Illustrator 16.0.0, SVG Export Plug-In . SVG Version: 6.00 Build 0)  -->
<!DOCTYPE svg PUBLIC "-//W3C//DTD SVG 1.1//EN" "http://www.w3.org/Graphics/SVG/1.1/DTD/svg11.dtd">
<svg version="1.1" id="Layer_1" xmlns="http://www.w3.org/2000/svg" xmlns:xlink="http://www.w3.org/1999/xlink" x="0px" y="0px"
	 width="612px" height="142.414px" viewBox="0 324.761 612 142.414" enable-background="new 0 324.761 612 142.414"
	 xml:space="preserve">
<g>
	<g>
		<g>
			<path fill="#E94095" d="M0,356.358h14.287l33.142,78.446l34.494-78.446h2.51l34.687,78.446l33.785-78.446h14.415l-46.913,108.049
				h-2.574l-34.558-77.353l-34.558,77.353h-2.574L0,356.358z"/>
			<path fill="#E94095" d="M270.927,356.358v108.049H257.22V445.81c-5.856,7.079-12.356,12.42-19.628,15.96
				c-7.272,3.604-15.187,5.341-23.811,5.341c-15.316,0-28.38-5.534-39.191-16.667c-10.811-11.069-16.217-24.583-16.217-40.479
				c0-15.574,5.47-28.895,16.41-39.899c10.94-11.068,24.068-16.603,39.449-16.603c8.88,0,16.925,1.866,24.068,5.663
				c7.208,3.797,13.514,9.46,18.92,16.989v-19.756H270.927z M215.391,366.977c-7.723,0-14.866,1.931-21.43,5.728
				s-11.777,9.138-15.638,16.024c-3.861,6.886-5.792,14.158-5.792,21.816c0,7.594,1.931,14.865,5.856,21.815
				c3.926,6.95,9.138,12.356,15.703,16.217c6.564,3.861,13.643,5.792,21.172,5.792c7.594,0,14.801-1.931,21.623-5.728
				c6.821-3.86,12.034-9.009,15.702-15.573c3.668-6.563,5.534-13.9,5.534-22.138c0-12.484-4.119-22.974-12.356-31.34
				C237.528,371.224,227.425,366.977,215.391,366.977z"/>
			<path fill="#E94095" d="M281.868,356.358h13.9v19.37c5.535-7.4,11.713-12.935,18.47-16.603
				c6.757-3.668,14.094-5.534,22.073-5.534c8.044,0,15.252,2.059,21.494,6.178s10.875,9.653,13.836,16.603
				c2.96,6.95,4.44,17.762,4.44,32.499v55.536h-13.9V412.86c0-12.42-0.515-20.786-1.545-24.904
				c-1.608-7.144-4.697-12.549-9.267-16.153c-4.569-3.604-10.554-5.406-17.891-5.406c-8.43,0-15.959,2.767-22.588,8.366
				c-6.628,5.534-11.068,12.42-13.192,20.657c-1.351,5.341-1.995,15.188-1.995,29.409v39.577h-13.836V356.358z"/>
			<path fill="#E94095" d="M440.177,368.778H409.48v63.517c0,4.055,0.386,7.401,1.158,10.039c0.772,2.639,1.866,4.698,3.346,6.179
				c1.48,1.479,3.218,2.51,5.213,3.024s4.184,0.836,6.5,0.836c2.188,0,4.44-0.321,6.886-0.9c2.381-0.644,4.697-1.48,6.886-2.574
				l0.708,13.707c-2.768,1.094-5.728,1.931-8.752,2.445c-3.024,0.516-6.307,0.837-9.911,0.837c-2.96,0-6.049-0.386-9.331-1.158
				c-3.281-0.772-6.307-2.253-9.073-4.44c-2.768-2.188-5.084-5.148-6.886-8.816c-1.802-3.732-2.703-8.623-2.703-14.673v-68.021
				h-22.588v-13.321h22.588v-30.697h15.831v30.697h30.825V368.778z"/>
		</g>
	</g>
	<g>
		<g>
			<path fill="#E94095" d="M492.432,353.591c16.667,0,30.439,6.049,41.379,18.083c9.975,11.004,14.93,24.004,14.93,38.999
				c0,15.123-5.276,28.315-15.766,39.577c-10.49,11.262-24.004,16.925-40.543,16.925c-16.604,0-30.117-5.663-40.672-16.925
				c-10.489-11.262-15.766-24.454-15.766-39.577c0-14.93,4.955-27.93,14.93-38.934C461.863,359.641,475.699,353.591,492.432,353.591
				z M492.367,367.17c-11.584,0-21.494,4.247-29.796,12.806s-12.484,18.856-12.484,30.954c0,7.787,1.866,15.123,5.663,21.881
				c3.797,6.757,8.881,11.97,15.316,15.638s13.514,5.534,21.236,5.534s14.802-1.866,21.236-5.534
				c6.436-3.668,11.584-8.881,15.381-15.638c3.797-6.758,5.663-14.029,5.663-21.881c0-12.098-4.183-22.459-12.484-30.954
				C513.732,371.481,503.822,367.17,492.367,367.17z"/>
		</g>
	</g>
	<g>
		<g>
			<path fill="#E94095" d="M555.69,353.591c16.668,0,30.439,6.049,41.38,18.083c9.975,11.004,14.93,24.004,14.93,38.999
				c0,15.123-5.277,28.315-15.767,39.577s-24.004,16.925-40.543,16.925c-16.603,0-30.117-5.663-40.671-16.925
				c-10.489-11.262-15.767-24.454-15.767-39.577c0-14.93,4.955-27.93,14.93-38.934C525.188,359.641,539.023,353.591,555.69,353.591z
				 M555.69,367.17c-11.583,0-21.493,4.247-29.795,12.806s-12.484,18.856-12.484,30.954c0,7.787,1.866,15.123,5.663,21.881
				c3.797,6.757,8.88,11.97,15.315,15.638s13.515,5.534,21.237,5.534c7.722,0,14.801-1.866,21.236-5.534s11.583-8.881,15.38-15.638
				c3.797-6.758,5.663-14.029,5.663-21.881c0-12.098-4.183-22.459-12.484-30.954C577.057,371.481,567.146,367.17,555.69,367.17z"/>
		</g>
	</g>
</g>
</svg>
