<svg width="248" height="468" viewBox="0 0 248 468" xmlns="http://www.w3.org/2000/svg" xmlns:xlink="http://www.w3.org/1999/xlink"><title>Bottom_right_crystals</title><desc>Created using Figma</desc><use xlink:href="#a" transform="matrix(-.9739 .22642 .1647 .98646 228.54 5.75)" fill="#5CC689"/><use xlink:href="#b" transform="rotate(3.225 80.865 3358.551) skewX(.057)" fill="url(#c)"/><use xlink:href="#d" transform="rotate(3.225 -618.398 3576.58) skewX(.057)" fill="url(#e)"/><use xlink:href="#f" transform="rotate(3.204 105.748 2501.887) skewX(.014)" fill="url(#g)"/><use xlink:href="#h" transform="rotate(3.225 100.514 2661.306) skewX(.057)" fill="#249769"/><use xlink:href="#i" transform="rotate(3.225 -804.252 3502.547) skewX(.057)" fill="url(#j)"/><use xlink:href="#k" transform="rotate(3.225 -1079.915 3988.394) skewX(.057)" fill="url(#l)"/><g><use xlink:href="#m" transform="matrix(.98523 -.1625 .2896 .958 22.95 92.79)" fill="url(#n)"/><use xlink:href="#o" transform="matrix(.98523 -.1625 .2896 .958 43.23 109.67)" fill="url(#p)"/><use xlink:href="#q" transform="matrix(.98523 -.1625 .2896 .958 -30.35 101.58)" fill="url(#r)"/><use xlink:href="#s" transform="matrix(.98523 -.1625 .2896 .958 -19.69 99.82)" fill="#3A42B5"/><use xlink:href="#t" transform="matrix(.98523 -.1625 .2896 .958 53.55 160.23)" fill="url(#u)"/><use xlink:href="#v" transform="matrix(.98523 -.1625 .2896 .958 89.46 171.17)" fill="url(#w)"/></g><g><use xlink:href="#x" transform="matrix(.95627 .29064 -.15852 .98774 219.02 227.29)" fill="url(#y)"/><use xlink:href="#z" transform="matrix(.95627 .29064 -.15852 .98774 225.4 243)" fill="url(#A)"/><use xlink:href="#B" transform="matrix(.95627 .29064 -.15852 .98774 184.89 216.92)" fill="url(#C)"/><use xlink:href="#D" transform="matrix(.95627 .29064 -.15852 .98774 191.71 219)" fill="#3A42B5"/><use xlink:href="#E" transform="matrix(.95627 .29064 -.15852 .98774 218.27 272.66)" fill="url(#F)"/><use xlink:href="#G" transform="matrix(.95627 .29064 -.15852 .98774 239.21 272.11)" fill="url(#H)"/></g><defs><linearGradient id="c" x2="1" gradientUnits="userSpaceOnUse" gradientTransform="matrix(.43112 86.4769 -63.2312 .40946 49.69 -14.01)"><stop offset="0" stop-color="#34E580"/><stop offset="1" stop-color="#C4C4C4" stop-opacity="0"/></linearGradient><linearGradient id="e" x2="1" gradientUnits="userSpaceOnUse" gradientTransform="matrix(0 91.8817 -54.7524 0 54.752 -35.123)"><stop offset=".331" stop-color="#B6FFD4"/><stop offset="1" stop-color="#1B8A57"/></linearGradient><linearGradient id="g" x2="1" gradientUnits="userSpaceOnUse" gradientTransform="matrix(-23.2806 295.79 -83.2837 -8.51422 72.251 27.794)"><stop offset=".309" stop-color="#067549"/><stop offset=".978" stop-color="#1C215D"/></linearGradient><linearGradient id="j" x2="1" gradientUnits="userSpaceOnUse" gradientTransform="matrix(0 258.939 -34.4897 0 31.903 0)"><stop offset="0" stop-color="#74E2A3"/><stop offset="1" stop-color="#222769"/></linearGradient><linearGradient id="l" x2="1" gradientUnits="userSpaceOnUse" gradientTransform="matrix(0 214.718 -30.6096 0 30.867 0)"><stop offset=".475" stop-color="#97FFC3"/><stop offset="1" stop-color="#22286A"/></linearGradient><linearGradient id="n" x2="1" gradientUnits="userSpaceOnUse" gradientTransform="matrix(-9.38585 55.2656 -38.7696 -9.29222 43.236 14.827)"><stop offset=".05" stop-color="#4C7BFE"/><stop offset="1" stop-color="#2D6DA9" stop-opacity=".63"/></linearGradient><linearGradient id="p" x2="1" gradientUnits="userSpaceOnUse" gradientTransform="matrix(0 104.487 -59.7366 0 59.172 0)"><stop offset=".37" stop-color="#737DFF"/><stop offset=".983" stop-color="#143F8C"/></linearGradient><linearGradient id="r" x2="1" gradientUnits="userSpaceOnUse" gradientTransform="matrix(-25.3998 336.369 -90.8651 -9.68227 78.829 47.306)"><stop offset=".326" stop-color="#303898"/><stop offset=".95" stop-color="#1C215D"/></linearGradient><linearGradient id="u" x2="1" gradientUnits="userSpaceOnUse" gradientTransform="matrix(.83764 269.21 -34.4024 .15107 33.194 -.076)"><stop offset="0" stop-color="#585FFF"/><stop offset=".967" stop-color="#1C215D"/></linearGradient><linearGradient id="w" x2="1" gradientUnits="userSpaceOnUse" gradientTransform="matrix(.57229 250.024 -34.196 .11046 32.855 -.055)"><stop offset=".354" stop-color="#7F88FA"/><stop offset="1" stop-color="#1C215D"/></linearGradient><linearGradient id="y" x2="1" gradientUnits="userSpaceOnUse" gradientTransform="matrix(-6.19238 36.512 -25.5785 -6.13905 28.525 9.795)"><stop offset=".05" stop-color="#4C7BFE"/><stop offset="1" stop-color="#2D6DA9" stop-opacity=".63"/></linearGradient><linearGradient id="A" x2="1" gradientUnits="userSpaceOnUse" gradientTransform="matrix(0 69.0307 -39.4117 0 39.84 0)"><stop offset=".37" stop-color="#737DFF"/><stop offset=".983" stop-color="#143F8C"/></linearGradient><linearGradient id="C" x2="1" gradientUnits="userSpaceOnUse" gradientTransform="matrix(-16.7577 222.227 -59.9489 -6.39673 52.008 31.254)"><stop offset=".326" stop-color="#303898"/><stop offset=".95" stop-color="#1C215D"/></linearGradient><linearGradient id="F" x2="1" gradientUnits="userSpaceOnUse" gradientTransform="matrix(.55264 177.858 -22.6972 .0998 21.9 3.556)"><stop offset="0" stop-color="#585FFF"/><stop offset=".967" stop-color="#1C215D"/></linearGradient><linearGradient id="H" x2="1" gradientUnits="userSpaceOnUse" gradientTransform="matrix(.37757 165.182 -22.5611 .07298 21.677 21.319)"><stop offset=".354" stop-color="#7F88FA"/><stop offset="1" stop-color="#1C215D"/></linearGradient><path id="a" d="M0 37.223L4.734 0l30.768 37.223H0z"/><path id="b" d="M13.65 49.487L0 0l35.104 4.087-21.453 45.4z"/><path id="d" d="M0 10.081L34.454 0l20.298 25.804L23.616 43.62 0 10.08z"/><path id="f" d="M58.496 307.357l4.448-258.27L49.184 0 9.915 46.63 0 277.562l58.496 29.795z"/><path id="h" d="M0 46.63L39.267 0l13.761 49.578L0 46.63z"/><path id="i" d="M0 257.957L4.311 0l23.454 32.952 1.12 216.16L0 257.957z"/><path id="k" d="M0 18.212L30.867 0v213.735L1.12 234.372 0 18.212z"/><path id="m" d="M14.676 72.233L0 0l38.1 20.115-23.424 52.118z"/><path id="o" d="M0 52.118L23.424 0l35.748 69.285-29.634 35.202L0 52.118z"/><path id="q" d="M64.031 365.269L68.674 71.52 54.092 0 10.818 68.727 0 331.34l64.031 33.929z"/><path id="s" d="M0 68.727L43.274 0l14.581 72.08L0 68.726z"/><path id="t" d="M0 293.345L4.704 0 34.18 52.026l-2.665 231.262L0 293.345z"/><path id="v" d="M2.665 35.263L32.455 0v243.057L0 266.525 2.665 35.263z"/><path id="x" d="M8.881 44.014L0 0l25.137 13.29L8.88 44.013z"/><path id="z" d="M0 30.725L16.255 0l11.019 24.05-7.099 27.997L0 30.726z"/><path id="B" d="M42.245 241.32l3.063-194.069L35.688 0 7.138 45.405 0 218.905l42.245 22.415z"/><path id="D" d="M0 45.405L28.55 0l6.602 32.928L0 45.404z"/><path id="E" d="M0 197.409L2.364 0 22.54 21.323l-1.747 169.441L0 197.409z"/><path id="G" d="M1.802 27.49L8.845 0l12.568 181.935L0 197.439 1.802 27.491z"/></defs></svg>