<svg width="304" height="517" viewBox="0 0 304 517" xmlns="http://www.w3.org/2000/svg" xmlns:xlink="http://www.w3.org/1999/xlink"><title>bottom_left_crystals</title><desc>Created using Figma</desc><use xlink:href="#a" transform="rotate(-.633 116.387 -6836.756) skewX(.002)" fill="url(#b)"/><use xlink:href="#c" transform="rotate(-.633 2173.063 -8530.917) skewX(.002)" fill="url(#d)"/><use xlink:href="#e" transform="rotate(-.633 150.893 -633.08) skewX(.002)" fill="url(#f)"/><use xlink:href="#g" transform="rotate(-.633 143.263 -1872.915) skewX(.002)" fill="#249769"/><use xlink:href="#h" transform="rotate(-.633 7512.786 -8010.428) skewX(.002)" fill="url(#i)"/><use xlink:href="#j" transform="rotate(-.633 9214.771 -11634.51) skewX(.002)" fill="url(#k)"/><g><use xlink:href="#l" transform="matrix(-.86168 .50681 .45526 .89066 3.53 190.23)" fill="#5CC689"/><use xlink:href="#m" transform="rotate(-14.272 768.16 200.538) skewX(.056)" fill="url(#n)"/><use xlink:href="#o" transform="rotate(-14.272 878.816 146.123) skewX(.056)" fill="url(#p)"/><use xlink:href="#q" transform="rotate(-14.272 786.584 347.577) skewX(.056)" fill="url(#r)"/><use xlink:href="#s" transform="rotate(-14.272 911.65 153.762) skewX(.056)" fill="url(#t)"/><use xlink:href="#u" transform="rotate(-14.272 944.96 65.244) skewX(.056)" fill="url(#v)"/></g><g><use xlink:href="#w" transform="matrix(.91846 .3955 -.38522 .92282 280.53 158.47)" fill="#4046CD"/><use xlink:href="#x" transform="matrix(.91846 .3955 -.38522 .92282 234.78 138.36)" fill="#356EE5"/><use xlink:href="#y" transform="matrix(.88697 .46363 -.45 .89214 209.64 184.1)" fill="url(#z)"/><use xlink:href="#A" transform="matrix(.88953 .45857 -.44518 .89462 247.86 213.18)" fill="url(#B)"/><use xlink:href="#C" transform="matrix(.91846 .3955 -.38522 .92282 286.26 244.96)" fill="url(#D)"/><use xlink:href="#E" transform="matrix(.91846 .3955 -.38522 .92282 249.26 144.6)" fill="#929FFF"/><use xlink:href="#F" transform="matrix(.88697 .46363 -.45 .89214 222.22 158.55)" fill="url(#G)"/></g><defs><linearGradient id="b" x2="1" gradientUnits="userSpaceOnUse" gradientTransform="matrix(-11.904 62.7739 -49.1711 -10.5547 54.836 16.84)"><stop offset=".05" stop-color="#34E580"/><stop offset="1" stop-color="#2D6DA9" stop-opacity=".63"/></linearGradient><linearGradient id="d" x2="1" gradientUnits="userSpaceOnUse" gradientTransform="matrix(0 118.682 -75.7635 0 75.047 0)"><stop offset=".331" stop-color="#88F8B7"/><stop offset=".983" stop-color="#143F8C"/></linearGradient><linearGradient id="f" x2="1" gradientUnits="userSpaceOnUse" gradientTransform="matrix(-32.2144 382.068 -115.243 -10.9977 99.978 53.733)"><stop offset=".337" stop-color="#067556"/><stop offset=".95" stop-color="#1C215D"/></linearGradient><linearGradient id="i" x2="1" gradientUnits="userSpaceOnUse" gradientTransform="matrix(1.06237 305.784 -43.6322 .17159 42.1 -.086)"><stop offset="0" stop-color="#74E2A3"/><stop offset=".967" stop-color="#1C215D"/></linearGradient><linearGradient id="k" x2="1" gradientUnits="userSpaceOnUse" gradientTransform="matrix(.72583 283.991 -43.3705 .12547 41.67 -.063)"><stop offset=".398" stop-color="#7AE8A8"/><stop offset="1" stop-color="#1C215D"/></linearGradient><linearGradient id="n" x2="1" gradientUnits="userSpaceOnUse" gradientTransform="matrix(.32266 64.204 -47.3228 .304 37.188 -10.402)"><stop offset="0" stop-color="#34E580"/><stop offset="1" stop-color="#C4C4C4" stop-opacity="0"/></linearGradient><linearGradient id="p" x2="1" gradientUnits="userSpaceOnUse" gradientTransform="matrix(0 68.2167 -40.9772 0 40.977 -26.077)"><stop offset=".331" stop-color="#B6FFD4"/><stop offset="1" stop-color="#1B8A57"/></linearGradient><linearGradient id="r" x2="1" gradientUnits="userSpaceOnUse" gradientTransform="matrix(-17.4234 219.607 -62.3303 -6.3213 54.073 20.635)"><stop offset=".309" stop-color="#067549"/><stop offset=".978" stop-color="#1C215D"/></linearGradient><linearGradient id="t" x2="1" gradientUnits="userSpaceOnUse" gradientTransform="matrix(0 192.247 -25.8124 0 23.877 0)"><stop offset="0" stop-color="#74E2A3"/><stop offset="1" stop-color="#222769"/></linearGradient><linearGradient id="v" x2="1" gradientUnits="userSpaceOnUse" gradientTransform="matrix(0 159.415 -22.9085 0 23.101 0)"><stop offset=".475" stop-color="#97FFC3"/><stop offset="1" stop-color="#22286A"/></linearGradient><linearGradient id="z" x2="1" gradientUnits="userSpaceOnUse" gradientTransform="matrix(2.99532 259.469 -71.7006 .86706 61.247 -3.502)"><stop offset="0" stop-color="#131A83"/><stop offset=".354" stop-color="#3D419B"/><stop offset="1" stop-color="#1C215D"/></linearGradient><linearGradient id="B" x2="1" gradientUnits="userSpaceOnUse" gradientTransform="matrix(0 298.123 -73.5526 0 72.901 21.622)"><stop offset="0" stop-color="#3A42B5"/><stop offset=".365" stop-color="#9099FF"/><stop offset=".768" stop-color="#1C215D"/></linearGradient><linearGradient id="D" x2="1" gradientUnits="userSpaceOnUse" gradientTransform="matrix(-1.47592 237.168 -22.9851 -.14991 28.045 5.345)"><stop offset=".033" stop-color="#737DFF"/><stop offset="1" stop-color="#1C215D"/></linearGradient><linearGradient id="G" x2="1" gradientUnits="userSpaceOnUse" gradientTransform="matrix(4.04541 233.652 -64.5664 1.17104 55.26 -4.305)"><stop offset="0" stop-color="#4047CD"/><stop offset=".994" stop-color="#1C215D"/></linearGradient><path id="a" d="M18.613 82.047L0 0l48.322 22.848-29.709 59.199z"/><path id="c" d="M0 59.199L29.708 0l45.339 78.698-37.584 39.984L0 59.199z"/><path id="e" d="M81.21 414.894l5.888-333.657L68.605 0 13.72 78.064 0 376.356l81.21 38.538z"/><path id="g" d="M0 78.064L54.884 0l18.493 81.872L0 78.064z"/><path id="h" d="M0 333.199L5.966 0 43.35 59.094l-3.38 262.681L0 333.199z"/><path id="j" d="M3.38 40.054L41.163 0v276.079L0 302.735l3.38-262.68z"/><path id="l" d="M0 27.642L3.541 0 26.56 27.642H0z"/><path id="m" d="M10.216 36.741L0 0l26.272 3.035L10.217 36.74z"/><path id="o" d="M0 7.485L25.785 0l15.192 19.158-23.303 13.227L0 7.485z"/><path id="q" d="M43.78 228.195l3.328-191.751L36.809 0 7.421 34.62 0 206.074l43.78 22.121z"/><path id="s" d="M0 191.518L3.227 0 20.78 24.465l.838 160.486L0 191.518z"/><path id="u" d="M0 13.521L23.101 0v158.686L.838 174.007 0 13.521z"/><path id="w" d="M0 0l57.732 77.174-17.277 26.352L0 0z"/><path id="x" d="M49.97 0l38.243 87.715L0 83.385 49.97 0z"/><path id="y" d="M0 0l48.546 27.102L68.396 305.1s-20.809-2.209-47.074-8.16L0 0z"/><path id="A" d="M0 18.566c41.01-31.902 35.353-17.171 49.365 3.056l20.738 270.13-51.586 5.85L0 18.566z"/><path id="C" d="M0 10.917L18.759 0l10.659 281.967H2.206L0 10.917z"/><path id="E" d="M34.203 0L18.759 48.187 0 27.48 34.203 0z"/><path id="F" d="M0 29.51l47.566 25.622-6.36-28.721s-9.144-46.162-27.73-16.429L0 29.51z"/></defs></svg>