<svg width="520" height="530" viewBox="0 0 520 530" xmlns="http://www.w3.org/2000/svg" xmlns:xlink="http://www.w3.org/1999/xlink"><title>Group</title><desc>Created using Figma</desc><use xlink:href="#a" fill="#151828"/><g filter="url(#b)" transform="translate(-4529 -1519)"><use xlink:href="#c" transform="matrix(1 0 0 1 4640.23 1655.39)" fill="url(#d)"/><use xlink:href="#e" transform="matrix(1 0 0 1 4751.18 1650.02)" fill="url(#f)"/><use xlink:href="#h" transform="matrix(1 0 0 1 4732.16 1702.67)" fill="#FFDC72" filter="url(#g)"/><use xlink:href="#j" transform="matrix(1 0 0 1 4748.01 1718.79)" fill="#FFF363" filter="url(#i)"/><mask id="l"><use xlink:href="#k" transform="rotate(-179.488 2417.465 889.125) skewX(.017)" fill="#FFF57D"/></mask><g mask="url(#l)"><use xlink:href="#m" transform="matrix(-.7511 .65996 -.64578 -.7637 4830.2 1786.12)" fill="#FFF8E4"/><use xlink:href="#n" transform="matrix(-.7519 .65905 -.64671 -.76293 4813.54 1793.85)" fill="#FFF8E4"/><use xlink:href="#o" transform="matrix(-.7519 .65905 -.64671 -.76293 4786.33 1762.45)" fill="#FFF8E4"/></g><g><use xlink:href="#p" transform="matrix(1 0 0 1 4616 1815.91)" fill="url(#q)"/></g></g><use xlink:href="#r" transform="matrix(1 0 0 1 111.26 133.62)" fill="url(#s)"/><use xlink:href="#e" transform="matrix(1 0 0 1 222.18 128.42)" fill="url(#t)"/><use xlink:href="#h" transform="matrix(1 0 0 1 203.16 181.07)" fill="#F2CB55" filter="url(#u)"/><use xlink:href="#j" transform="matrix(1 0 0 1 219.01 197.19)" fill="#FFEC90" filter="url(#v)"/><g transform="translate(-4529 -1519)"><mask id="w"><use xlink:href="#k" transform="rotate(-179.488 2417.628 887.464) skewX(.017)" fill="#FFF"/></mask><g mask="url(#w)"><use xlink:href="#m" transform="matrix(-.7511 .65996 -.64578 -.7637 4830.55 1782.8)" fill="#FFF8E4"/><use xlink:href="#n" transform="matrix(-.7519 .65905 -.64671 -.76293 4822.34 1800.2)" fill="#FFF8E4"/><use xlink:href="#o" transform="matrix(-.7519 .65905 -.64671 -.76293 4795.13 1768.8)" fill="#FFF8E4"/></g></g><use xlink:href="#x" transform="matrix(1 0 0 1 87 294.31)" fill="url(#y)"/><g transform="translate(-4529 -1519)"><use xlink:href="#z" transform="translate(4666.52 1907.21)" fill="#FFF"/></g><defs><filter id="b" filterUnits="userSpaceOnUse" x="4584" y="1618" width="409" height="291" color-interpolation-filters="sRGB"><feFlood flood-opacity="0" result="BackgroundImageFix"/><feBlend in="SourceGraphic" in2="BackgroundImageFix" result="shape"/><feGaussianBlur stdDeviation="16" result="effect1_foregroundBlur"/></filter><filter id="g" filterUnits="userSpaceOnUse" x="4726" y="1700" width="123" height="125" color-interpolation-filters="sRGB"><feFlood flood-opacity="0" result="BackgroundImageFix"/><feColorMatrix in="SourceAlpha" values="0 0 0 0 0 0 0 0 0 0 0 0 0 0 0 0 0 0 255 0"/><feOffset dy="4"/><feGaussianBlur stdDeviation="3"/><feColorMatrix values="0 0 0 0 0.740175 0 0 0 0 0.618831 0 0 0 0 0.24888 0 0 0 1 0"/><feBlend in2="BackgroundImageFix" result="effect1_dropShadow"/><feBlend in="SourceGraphic" in2="effect1_dropShadow" result="shape"/></filter><filter id="i" filterUnits="userSpaceOnUse" x="4748" y="1718" width="80" height="86" color-interpolation-filters="sRGB"><feFlood flood-opacity="0" result="BackgroundImageFix"/><feBlend in="SourceGraphic" in2="BackgroundImageFix" result="shape"/><feColorMatrix in="SourceAlpha" values="0 0 0 0 0 0 0 0 0 0 0 0 0 0 0 0 0 0 255 0" result="hardAlpha"/><feOffset dy="4"/><feGaussianBlur stdDeviation="2"/><feComposite in2="hardAlpha" operator="arithmetic" k2="-1" k3="1"/><feColorMatrix values="0 0 0 0 0.762009 0 0 0 0 0.663272 0 0 0 0 0.286169 0 0 0 1 0"/><feBlend in2="shape" result="effect1_innerShadow"/></filter><filter id="u" filterUnits="userSpaceOnUse" x="4726" y="1698" width="123" height="125" color-interpolation-filters="sRGB"><feFlood flood-opacity="0" result="BackgroundImageFix"/><feColorMatrix in="SourceAlpha" values="0 0 0 0 0 0 0 0 0 0 0 0 0 0 0 0 0 0 255 0"/><feOffset dy="4"/><feGaussianBlur stdDeviation="3"/><feColorMatrix values="0 0 0 0 0.740175 0 0 0 0 0.618831 0 0 0 0 0.24888 0 0 0 1 0"/><feBlend in2="BackgroundImageFix" result="effect1_dropShadow"/><feBlend in="SourceGraphic" in2="effect1_dropShadow" result="shape"/></filter><filter id="v" filterUnits="userSpaceOnUse" x="4748" y="1716" width="82" height="85" color-interpolation-filters="sRGB"><feFlood flood-opacity="0" result="BackgroundImageFix"/><feBlend in="SourceGraphic" in2="BackgroundImageFix" result="shape"/><feColorMatrix in="SourceAlpha" values="0 0 0 0 0 0 0 0 0 0 0 0 0 0 0 0 0 0 255 0" result="hardAlpha"/><feOffset dx="2" dy="4"/><feGaussianBlur stdDeviation="3"/><feComposite in2="hardAlpha" operator="arithmetic" k2="-1" k3="1"/><feColorMatrix values="0 0 0 0 0.762009 0 0 0 0 0.663272 0 0 0 0 0.286169 0 0 0 1 0"/><feBlend in2="shape" result="effect1_innerShadow"/></filter><linearGradient id="d" x2="1" gradientUnits="userSpaceOnUse" gradientTransform="matrix(-15.3219 240.688 -399.272 -26.2816 348.628 58.807)"><stop offset="0" stop-color="#F2C94C"/><stop offset="1" stop-color="#5D5541"/></linearGradient><radialGradient id="f" cx=".5" cy=".5" r=".5" gradientUnits="userSpaceOnUse" gradientTransform="matrix(0 192.342 -73.9866 0 73.987 0)"><stop offset=".033" stop-color="#FFF"/><stop offset=".983" stop-color="#FCD662"/></radialGradient><linearGradient id="q" x2="1" gradientUnits="userSpaceOnUse" gradientTransform="matrix(0 48.6397 -277.614 0 310.972 30.72)"><stop offset=".011" stop-color="#F2C94C"/><stop offset="1" stop-color="#3C415C"/></linearGradient><linearGradient id="s" x2="1" gradientUnits="userSpaceOnUse" gradientTransform="matrix(-15.3219 240.688 -399.272 -26.2816 348.628 58.807)"><stop offset="0" stop-color="#E1B839"/><stop offset=".994" stop-color="#5D543D"/></linearGradient><radialGradient id="t" cx=".5" cy=".5" r=".5" gradientUnits="userSpaceOnUse" gradientTransform="matrix(0 192.342 -73.9866 0 73.987 0)"><stop offset=".033" stop-color="#FFF"/><stop offset=".978" stop-color="#EFCB5C"/></radialGradient><linearGradient id="y" x2="1" gradientUnits="userSpaceOnUse" gradientTransform="matrix(0 48.6397 -277.615 0 310.972 30.72)"><stop offset=".011" stop-color="#F2C94C"/><stop offset="1" stop-color="#3C415C"/></linearGradient><path id="a" d="M0 0h520v530H0V0z"/><path id="c" d="M148.992 0C33.398 0 3.293 119.551 0 179.327h297.456C298.553 119.551 264.586 0 148.992 0z"/><path id="e" d="M0 20C0 8.954 8.954 0 20 0h33.987c11.045 0 20 8.954 20 20v152.342c0 11.046-8.955 20-20 20H20c-11.046 0-20-8.954-20-20V20z"/><path id="h" d="M110.269 56.04c0 30.95-24.685 56.039-55.135 56.039S0 86.989 0 56.039 24.684 0 55.134 0s55.135 25.09 55.135 56.04z"/><path id="j" d="M79.251 40.294c0 22.253-17.74 40.293-39.626 40.293C17.742 80.587 0 62.547 0 40.294 0 18.04 17.741 0 39.626 0 61.51 0 79.25 18.04 79.25 40.294z"/><path id="k" d="M79.251 40.294c0 22.253-17.74 40.293-39.625 40.293S0 62.547 0 40.294C0 18.04 17.741 0 39.626 0 61.51 0 79.25 18.04 79.25 40.294z"/><path id="m" d="M0 5.494a5.494 5.494 0 1 1 10.987 0V56.58A5.494 5.494 0 1 1 0 56.58V5.494z"/><path id="n" d="M0 3.517a3.517 3.517 0 1 1 7.033 0v31.827a3.517 3.517 0 1 1-7.033 0V3.517z"/><path id="o" d="M0 3.517a3.517 3.517 0 1 1 7.033 0v2.897a3.517 3.517 0 1 1-7.033 0V3.517z"/><path id="p" fill-rule="evenodd" d="M26.426 1.064C15.965-2.482 4.61 3.124 1.064 13.585c-3.546 10.461 2.06 21.816 12.521 25.362C26.633 43.37 70.019 57.345 169.97 60.412c.831.026 1.652 0 2.46-.074.808.074 1.629.1 2.461.074 99.951-3.066 143.337-17.042 156.385-21.465 10.461-3.546 16.067-14.9 12.521-25.362-3.546-10.46-14.901-16.067-25.362-12.52-9.142 3.098-48.602 16.415-144.771 19.366-.414.013-.826.038-1.233.075a20.237 20.237 0 0 0-1.234-.075C75.027 17.48 35.567 4.163 26.426 1.064z"/><path id="r" d="M148.992 0C33.398 0 3.293 126.713 0 186.489h297.456C298.553 126.713 264.586 0 148.992 0z"/><path id="x" fill-rule="evenodd" d="M318.436 1.064c10.461-3.546 21.815 2.06 25.361 12.521 3.546 10.461-2.06 21.816-12.521 25.362-13.048 4.423-56.434 18.398-156.385 21.465-.831.026-1.652 0-2.46-.074-.808.074-1.629.1-2.461.074C70.02 57.346 26.633 43.37 13.585 38.947 3.124 35.401-2.482 24.047 1.064 13.585c3.546-10.46 14.9-16.067 25.362-12.52C35.568 4.162 75.028 17.48 171.197 20.43c.414.013.825.038 1.233.075.408-.037.82-.062 1.235-.075 96.169-2.95 135.628-16.268 144.771-19.367z"/><path id="z" d="M51.693 35V9.8h8.496c2.832 0 4.884.648 6.156 1.944 1.272 1.272 1.908 2.868 1.908 4.788 0 2.472-1.092 4.2-3.276 5.184 1.344.456 2.364 1.224 3.06 2.304a6.35 6.35 0 0 1 1.08 3.6c0 2.016-.684 3.756-2.052 5.22C65.721 34.28 63.61 35 60.73 35h-9.036zm4.284-15.012h3.636c1.44 0 2.52-.276 3.24-.828.744-.576 1.116-1.356 1.116-2.34 0-2.04-1.224-3.06-3.672-3.06h-4.32v6.228zm0 11.052h5.04c1.368 0 2.34-.324 2.916-.972.6-.672.9-1.476.9-2.412 0-2.496-1.62-3.744-4.86-3.744h-3.996v7.128zm33.452 4.392c-2.496 0-4.536-.792-6.12-2.376-1.584-1.608-2.376-4.164-2.376-7.668V9.8h4.248v15.588c0 2.184.372 3.732 1.116 4.644.744.888 1.788 1.332 3.132 1.332 2.832 0 4.248-1.992 4.248-5.976V9.8h4.284v15.588c0 3.456-.792 6-2.376 7.632-1.584 1.608-3.636 2.412-6.156 2.412zm36.799-21.852h-5.292v17.64h5.292V35h-14.832v-3.78h5.256V13.58h-5.256V9.8h14.832v3.78zM139.844 35V9.8h4.284v21.096h11.628V35h-15.912zm29.384 0V9.8h6.336c1.632 0 3.108.24 4.428.72 1.32.48 2.412 1.116 3.276 1.908a9.915 9.915 0 0 1 2.196 2.844c.6 1.08 1.032 2.22 1.296 3.42.264 1.176.396 2.412.396 3.708 0 1.2-.12 2.376-.36 3.528a13.613 13.613 0 0 1-1.224 3.42 10.962 10.962 0 0 1-2.196 2.916c-.864.816-1.98 1.476-3.348 1.98-1.368.504-2.904.756-4.608.756h-6.192zm4.284-4.032h2.34c1.224 0 2.292-.252 3.204-.756.936-.504 1.656-1.176 2.16-2.016a10.42 10.42 0 0 0 1.116-2.736c.24-.984.36-2.004.36-3.06 0-2.352-.54-4.368-1.62-6.048-1.08-1.68-2.688-2.52-4.824-2.52h-2.736v17.136z"/></defs></svg>