<svg xmlns="http://www.w3.org/2000/svg" width="271" height="144" viewBox="0 0 271 144"><linearGradient id="a" gradientUnits="userSpaceOnUse" x1="135.149" x2="135.149" y2="144"><stop offset="0" stop-color="#fff"/><stop offset=".859" stop-color="#fff" stop-opacity=".141"/><stop offset="1" stop-color="#fff" stop-opacity="0"/></linearGradient><path fill="url(#a)" d="M270.299 92.916c0-28.058-22.734-50.802-50.793-50.802-2.223 0-4.401.159-6.548.436C201.741 17.479 176.6 0 147.355 0c-29.15 0-54.226 17.365-65.497 42.308-19.014 1.586-35.047 13.636-42.325 30.382a35.78 35.78 0 0 0-3.909-.218C15.948 72.472 0 88.421 0 108.095c0 19.676 16.291 35.623 35.967 35.623.566 0 1.033-.017 2.033-.043V144h182v-.295c28-.284 50.299-22.906 50.299-50.789z"/></svg>