<svg xmlns="http://www.w3.org/2000/svg" width="1920" height="1350" viewBox="0 0 1920 1350"><linearGradient id="a" gradientUnits="userSpaceOnUse" x1="1759.359" y1="566.13" x2="1759.359" y2="674"><stop offset="0" stop-color="#fff"/><stop offset=".859" stop-color="#fff" stop-opacity=".141"/><stop offset="1" stop-color="#fff" stop-opacity="0"/></linearGradient><path fill="url(#a)" d="M1860.695 635.794c0-21.036-17.053-38.089-38.09-38.089-1.666 0-3.304.119-4.913.326-8.41-18.797-27.263-31.901-49.188-31.901-21.855 0-40.656 13.02-49.106 31.72-14.256 1.189-26.277 10.224-31.734 22.779a27.022 27.022 0 0 0-2.932-.163c-14.751 0-26.709 11.958-26.709 26.708 0 14.752 11.958 26.709 26.71 26.709.424 0 1.268-.013 1.268-.032V674h137v-.127c20.999-.213 37.694-17.174 37.694-38.079z"/><linearGradient id="b" gradientUnits="userSpaceOnUse" x1="1683.659" y1="1130.13" x2="1683.659" y2="1232"><stop offset="0" stop-color="#fff"/><stop offset=".859" stop-color="#fff" stop-opacity=".141"/><stop offset="1" stop-color="#fff" stop-opacity="0"/></linearGradient><path fill="url(#b)" d="M1588.25 1195.795c0-19.829 15.963-35.902 35.792-35.902 1.57 0 3.06.111 4.576.307 7.928-17.717 25.67-30.069 46.337-30.069 20.601 0 38.308 12.272 46.274 29.898 13.436 1.121 24.761 9.637 29.904 21.472.907-.1 1.825-.154 2.76-.154 13.904 0 25.175 11.271 25.175 25.176s-11.121 25.175-25.025 25.175c-.398 0-1.043-.013-1.043-.03v.332h-129v-.313c-20-.201-35.75-16.188-35.75-35.892z"/><linearGradient id="c" gradientUnits="userSpaceOnUse" x1="1127.299" y1="871.128" x2="1127.299" y2="1015"><stop offset="0" stop-color="#fff"/><stop offset=".859" stop-color="#fff" stop-opacity=".141"/><stop offset="1" stop-color="#fff" stop-opacity="0"/></linearGradient><path fill="url(#c)" d="M1262.398 964.044c0-28.058-22.685-50.802-50.743-50.802-2.223 0-4.376.159-6.522.436-11.218-25.071-36.347-42.55-65.591-42.55-29.15 0-54.22 17.365-65.49 42.308-19.014 1.586-35.044 13.636-42.322 30.382a35.762 35.762 0 0 0-3.908-.218c-19.675 0-35.623 15.949-35.623 35.623 0 19.676 16.192 35.623 35.868 35.623.566 0 .934-.017 1.934-.043v.197h182v-.167c27.999-.284 50.397-22.906 50.397-50.789z"/><linearGradient id="d" gradientUnits="userSpaceOnUse" x1="139.806" y1="10.132" x2="139.806" y2="97"><stop offset="0" stop-color="#fff"/><stop offset=".859" stop-color="#fff" stop-opacity=".141"/><stop offset="1" stop-color="#fff" stop-opacity="0"/></linearGradient><path fill="url(#d)" d="M58.348 66.232c0-16.94 13.582-30.673 30.523-30.673 1.342 0 2.586.096 3.883.263 6.772-15.138 21.918-25.69 39.574-25.69 17.601 0 32.722 10.484 39.527 25.544 11.48.958 21.152 8.233 25.547 18.344a21.794 21.794 0 0 1 2.355-.131c11.879 0 21.507 9.63 21.507 21.508 0 11.88-9.497 21.509-21.376 21.509-.344 0-.889-.01-.889-.025V97H89v-.103c-17-.17-30.652-13.83-30.652-30.665z"/><linearGradient id="e" gradientUnits="userSpaceOnUse" x1="632.904" y1="1021.17" x2="632.904" y2="1066"><stop offset="0" stop-color="#fff"/><stop offset=".859" stop-color="#fff" stop-opacity=".141"/><stop offset="1" stop-color="#fff" stop-opacity="0"/></linearGradient><path fill="url(#e)" d="M590.998 1050.098c0-8.735 6.907-15.816 15.643-15.816.691 0 1.284.049 1.952.136 3.492-7.806 11.277-13.247 20.382-13.247 9.075 0 16.86 5.406 20.368 13.171 5.92.494 10.901 4.246 13.167 9.459.399-.043.801-.067 1.212-.067 6.125 0 11.089 4.965 11.089 11.09 0 6.126-5.063 11.091-11.188 11.091-.176 0-.623-.005-.623-.013v.1h-56v-.091c-9-.091-16.002-7.134-16.002-15.813z"/><linearGradient id="f" gradientUnits="userSpaceOnUse" x1="259.911" y1="778.498" x2="259.911" y2="861"><stop offset="0" stop-color="#fff"/><stop offset=".859" stop-color="#fff" stop-opacity=".141"/><stop offset="1" stop-color="#fff" stop-opacity="0"/></linearGradient><path fill="url(#f)" d="M337.039 831.62c0-16.042-12.858-29.045-28.899-29.045-1.27 0-2.445.09-3.672.249-6.413-14.334-20.753-24.326-37.472-24.326-16.666 0-30.984 9.928-37.426 24.187-10.871.907-20.029 7.798-24.191 17.37a20.754 20.754 0 0 0-2.229-.124c-11.247 0-20.366 9.118-20.366 20.365 0 11.25 9.559 20.367 20.807 20.367.324 0 1.41-.009 1.41-.023v.36h103v-.344c15.999-.163 29.038-13.096 29.038-29.036z"/><linearGradient id="g" gradientUnits="userSpaceOnUse" x1="1710.953" y1="187.17" x2="1710.953" y2="232"><stop offset="0" stop-color="#fff"/><stop offset=".859" stop-color="#fff" stop-opacity=".141"/><stop offset="1" stop-color="#fff" stop-opacity="0"/></linearGradient><path fill="url(#g)" d="M1752.906 216.098c0-8.735-6.956-15.816-15.69-15.816-.691 0-1.309.049-1.977.136-3.492-7.806-11.289-13.247-20.394-13.247-9.075 0-16.866 5.406-20.374 13.171-5.92.494-10.904 4.246-13.17 9.459a11.306 11.306 0 0 0-1.213-.067c-6.125 0-11.09 4.965-11.09 11.09 0 6.126 5.157 11.091 11.282 11.091.176 0 .719-.005.719-.013v.1h56v-.091c9.001-.091 15.907-7.134 15.907-15.813z"/><linearGradient id="h" gradientUnits="userSpaceOnUse" x1="119.953" y1="1296.17" x2="119.953" y2="1341"><stop offset="0" stop-color="#fff"/><stop offset=".859" stop-color="#fff" stop-opacity=".141"/><stop offset="1" stop-color="#fff" stop-opacity="0"/></linearGradient><path fill="url(#h)" d="M161.906 1325.098c0-8.735-6.956-15.816-15.69-15.816-.691 0-1.309.049-1.977.136-3.492-7.806-11.289-13.247-20.394-13.247-9.075 0-16.866 5.406-20.374 13.171-5.92.495-10.904 4.246-13.17 9.459a11.306 11.306 0 0 0-1.213-.067c-6.125 0-11.09 4.965-11.09 11.09 0 6.126 5.157 11.091 11.282 11.091.176 0 .719-.005.719-.013v.1h56v-.091c9.001-.091 15.907-7.134 15.907-15.813z"/></svg>