<?xml version="1.0" encoding="utf-8"?>
<!-- Generator: Adobe Illustrator 15.0.0, SVG Export Plug-In . SVG Version: 6.00 Build 0)  -->
<!DOCTYPE svg PUBLIC "-//W3C//DTD SVG 1.1//EN" "http://www.w3.org/Graphics/SVG/1.1/DTD/svg11.dtd">
<svg version="1.1" id="Layer_1" xmlns="http://www.w3.org/2000/svg" xmlns:xlink="http://www.w3.org/1999/xlink" x="0px" y="0px"
	 width="1920px" height="1350px" viewBox="0 0 1920 1350" enable-background="new 0 0 1920 1350" xml:space="preserve">
<linearGradient id="SVGID_1_" gradientUnits="userSpaceOnUse" x1="1759.3594" y1="566.1299" x2="1759.3594" y2="674">
	<stop  offset="0" style="stop-color:#FFFFFF"/>
	<stop  offset="0.8587" style="stop-color:#FFFFFF;stop-opacity:0.1413"/>
	<stop  offset="1" style="stop-color:#FFFFFF;stop-opacity:0"/>
</linearGradient>
<path fill="url(#SVGID_1_)" d="M1860.695,635.794c0-21.036-17.053-38.089-38.09-38.089c-1.666,0-3.304,0.119-4.913,0.326
	c-8.41-18.797-27.263-31.901-49.188-31.901c-21.855,0-40.656,13.02-49.106,31.72c-14.256,1.189-26.277,10.224-31.734,22.779
	c-0.963-0.105-1.94-0.163-2.932-0.163c-14.751,0-26.709,11.958-26.709,26.708c0,14.752,11.958,26.709,26.71,26.709
	c0.424,0,1.268-0.013,1.268-0.032V674h137v-0.127C1844,673.66,1860.695,656.699,1860.695,635.794z"/>
<linearGradient id="SVGID_2_" gradientUnits="userSpaceOnUse" x1="1683.6592" y1="1130.1299" x2="1683.6592" y2="1232">
	<stop  offset="0" style="stop-color:#FFFFFF"/>
	<stop  offset="0.8587" style="stop-color:#FFFFFF;stop-opacity:0.1413"/>
	<stop  offset="1" style="stop-color:#FFFFFF;stop-opacity:0"/>
</linearGradient>
<path fill="url(#SVGID_2_)" d="M1588.25,1195.795c0-19.829,15.963-35.902,35.792-35.902c1.57,0,3.06,0.111,4.576,0.307
	c7.928-17.717,25.67-30.069,46.337-30.069c20.601,0,38.308,12.272,46.274,29.898c13.436,1.121,24.761,9.637,29.904,21.472
	c0.907-0.1,1.825-0.154,2.76-0.154c13.904,0,25.175,11.271,25.175,25.176s-11.121,25.175-25.025,25.175
	c-0.398,0-1.043-0.013-1.043-0.03V1232h-129v-0.313C1604,1231.486,1588.25,1215.499,1588.25,1195.795z"/>
<linearGradient id="SVGID_3_" gradientUnits="userSpaceOnUse" x1="1127.2988" y1="871.1279" x2="1127.2988" y2="1015">
	<stop  offset="0" style="stop-color:#FFFFFF"/>
	<stop  offset="0.8587" style="stop-color:#FFFFFF;stop-opacity:0.1413"/>
	<stop  offset="1" style="stop-color:#FFFFFF;stop-opacity:0"/>
</linearGradient>
<path fill="url(#SVGID_3_)" d="M1262.398,964.044c0-28.058-22.685-50.802-50.743-50.802c-2.223,0-4.376,0.159-6.522,0.436
	c-11.218-25.071-36.347-42.55-65.591-42.55c-29.15,0-54.22,17.365-65.49,42.308c-19.014,1.586-35.044,13.636-42.322,30.382
	c-1.284-0.141-2.586-0.218-3.908-0.218c-19.675,0-35.623,15.949-35.623,35.623c0,19.676,16.192,35.623,35.868,35.623
	c0.566,0,0.934-0.017,1.934-0.043V1015h182v-0.167C1240,1014.549,1262.398,991.927,1262.398,964.044z"/>
<linearGradient id="SVGID_4_" gradientUnits="userSpaceOnUse" x1="139.8062" y1="10.1318" x2="139.8062" y2="97">
	<stop  offset="0" style="stop-color:#FFFFFF"/>
	<stop  offset="0.8587" style="stop-color:#FFFFFF;stop-opacity:0.1413"/>
	<stop  offset="1" style="stop-color:#FFFFFF;stop-opacity:0"/>
</linearGradient>
<path fill="url(#SVGID_4_)" d="M58.348,66.232c0-16.94,13.582-30.673,30.523-30.673c1.342,0,2.586,0.096,3.883,0.263
	c6.772-15.138,21.918-25.69,39.574-25.69c17.601,0,32.722,10.484,39.527,25.544c11.48,0.958,21.152,8.233,25.547,18.344
	c0.775-0.084,1.557-0.131,2.355-0.131c11.879,0,21.507,9.63,21.507,21.508c0,11.88-9.497,21.509-21.376,21.509
	c-0.344,0-0.889-0.01-0.889-0.025V97H89v-0.103C72,96.727,58.348,83.067,58.348,66.232z"/>
<linearGradient id="SVGID_5_" gradientUnits="userSpaceOnUse" x1="632.9043" y1="1021.1699" x2="632.9043" y2="1066">
	<stop  offset="0" style="stop-color:#FFFFFF"/>
	<stop  offset="0.8587" style="stop-color:#FFFFFF;stop-opacity:0.1413"/>
	<stop  offset="1" style="stop-color:#FFFFFF;stop-opacity:0"/>
</linearGradient>
<path fill="url(#SVGID_5_)" d="M590.998,1050.098c0-8.735,6.907-15.816,15.643-15.816c0.691,0,1.284,0.049,1.952,0.136
	c3.492-7.806,11.277-13.247,20.382-13.247c9.075,0,16.86,5.406,20.368,13.171c5.92,0.494,10.901,4.246,13.167,9.459
	c0.399-0.043,0.801-0.067,1.212-0.067c6.125,0,11.089,4.965,11.089,11.09c0,6.126-5.063,11.091-11.188,11.091
	c-0.176,0-0.623-0.005-0.623-0.013v0.1h-56v-0.091C598,1065.82,590.998,1058.777,590.998,1050.098z"/>
<linearGradient id="SVGID_6_" gradientUnits="userSpaceOnUse" x1="259.9111" y1="778.498" x2="259.9111" y2="861">
	<stop  offset="0" style="stop-color:#FFFFFF"/>
	<stop  offset="0.8587" style="stop-color:#FFFFFF;stop-opacity:0.1413"/>
	<stop  offset="1" style="stop-color:#FFFFFF;stop-opacity:0"/>
</linearGradient>
<path fill="url(#SVGID_6_)" d="M337.039,831.62c0-16.042-12.858-29.045-28.899-29.045c-1.27,0-2.445,0.09-3.672,0.249
	c-6.413-14.334-20.753-24.326-37.472-24.326c-16.666,0-30.984,9.928-37.426,24.187c-10.871,0.907-20.029,7.798-24.191,17.37
	c-0.732-0.079-1.475-0.124-2.229-0.124c-11.247,0-20.366,9.118-20.366,20.365c0,11.25,9.559,20.367,20.807,20.367
	c0.324,0,1.41-0.009,1.41-0.023V861h103v-0.344C324,860.493,337.039,847.56,337.039,831.62z"/>
<linearGradient id="SVGID_7_" gradientUnits="userSpaceOnUse" x1="1710.9531" y1="187.1699" x2="1710.9531" y2="232">
	<stop  offset="0" style="stop-color:#FFFFFF"/>
	<stop  offset="0.8587" style="stop-color:#FFFFFF;stop-opacity:0.1413"/>
	<stop  offset="1" style="stop-color:#FFFFFF;stop-opacity:0"/>
</linearGradient>
<path fill="url(#SVGID_7_)" d="M1752.906,216.098c0-8.735-6.956-15.816-15.69-15.816c-0.691,0-1.309,0.049-1.977,0.136
	c-3.492-7.806-11.289-13.247-20.394-13.247c-9.075,0-16.866,5.406-20.374,13.171c-5.92,0.494-10.904,4.246-13.17,9.459
	c-0.399-0.043-0.803-0.067-1.213-0.067c-6.125,0-11.09,4.965-11.09,11.09c0,6.126,5.157,11.091,11.282,11.091
	c0.176,0,0.719-0.005,0.719-0.013v0.1h56v-0.091C1746,231.82,1752.906,224.777,1752.906,216.098z"/>
<linearGradient id="SVGID_8_" gradientUnits="userSpaceOnUse" x1="119.9526" y1="1296.1699" x2="119.9526" y2="1341">
	<stop  offset="0" style="stop-color:#FFFFFF"/>
	<stop  offset="0.8587" style="stop-color:#FFFFFF;stop-opacity:0.1413"/>
	<stop  offset="1" style="stop-color:#FFFFFF;stop-opacity:0"/>
</linearGradient>
<path fill="url(#SVGID_8_)" d="M161.906,1325.098c0-8.735-6.956-15.816-15.69-15.816c-0.691,0-1.309,0.049-1.977,0.136
	c-3.492-7.806-11.289-13.247-20.394-13.247c-9.075,0-16.866,5.406-20.374,13.171c-5.92,0.495-10.904,4.246-13.17,9.459
	c-0.399-0.043-0.803-0.067-1.213-0.067c-6.125,0-11.09,4.965-11.09,11.09c0,6.126,5.157,11.091,11.282,11.091
	c0.176,0,0.719-0.005,0.719-0.013v0.1h56v-0.091C155,1340.82,161.906,1333.777,161.906,1325.098z"/>
</svg>
