<svg width="520" height="530" viewBox="0 0 520 530" xmlns="http://www.w3.org/2000/svg" xmlns:xlink="http://www.w3.org/1999/xlink"><title>Group</title><desc>Created using Figma</desc><use xlink:href="#a" fill="#151828"/><g filter="url(#b)" transform="translate(-3445 -1519)"><use xlink:href="#c" transform="scale(-.99186 -1.00807) rotate(-45 -4210.576 3680.501)" fill="url(#d)"/><mask id="f"><use xlink:href="#c" transform="scale(-.99186 -1.00807) rotate(-45 -4210.576 3680.501)" fill="url(#e)"/></mask><g mask="url(#f)" filter="url(#g)"><use xlink:href="#h" transform="matrix(.6996 .7146 -.70311 .71102 3716.35 1828.4)" fill="#284936"/></g><g><use xlink:href="#i" transform="scale(.99186 1.00807) rotate(-45 3830.308 -3487.178)" fill="#2C413F"/></g><g><use xlink:href="#j" transform="matrix(.7147 -.69942 .68776 .72594 3486 1791.74)" fill="#2C413F"/></g><g><use xlink:href="#k" transform="scale(-.99186 -1.00807) rotate(45 482.188 -5369.258)" fill="url(#l)"/><use xlink:href="#m" transform="scale(.99186 1.00807) rotate(45 -86.558 5497.318)" fill="#2C413F"/><g><use xlink:href="#n" transform="matrix(.68776 .72594 -.7147 .69942 3744.9 1610.73)" fill="#2C413F"/></g></g></g><use xlink:href="#o" transform="scale(-.99153 -1.0084) rotate(-45 -654.366 242.706)" fill="url(#p)"/><g transform="translate(-3445 -1519)"><mask id="r"><use xlink:href="#o" transform="scale(-.99153 -1.0084) rotate(-45 -4209.904 3683.556)" fill="url(#q)"/></mask><g mask="url(#r)" filter="url(#s)"><use xlink:href="#t" transform="matrix(.69936 .71483 -.70287 .71126 3717.07 1827.67)" fill="#284936"/></g></g><use xlink:href="#u" transform="scale(.99153 1.0084) rotate(-45 274.294 -49.481)" fill="url(#v)"/><g transform="translate(-3445 -1519)"><use xlink:href="#w" transform="translate(3508.43 1633.88)" fill="url(#x)"/></g><g><use xlink:href="#o" transform="scale(-.99153 -1.0084) rotate(45 411.767 -420.276)" fill="url(#y)"/><use xlink:href="#u" transform="scale(.99153 1.0084) rotate(45 -6.39 552.4)" fill="url(#z)"/><g transform="translate(-3445 -1519)"><use xlink:href="#A" transform="rotate(90 1130.25 2765.17)" fill="url(#B)"/></g></g><g transform="translate(-3445 -1519)"><use xlink:href="#C" transform="translate(3567 1792.15)" fill="#FFF"/></g><defs><filter id="b" filterUnits="userSpaceOnUse" x="3472" y="1598" width="464" height="364" color-interpolation-filters="sRGB"><feFlood flood-opacity="0" result="BackgroundImageFix"/><feBlend in="SourceGraphic" in2="BackgroundImageFix" result="shape"/><feGaussianBlur stdDeviation="17.5" result="effect1_foregroundBlur"/></filter><filter id="g" filterUnits="userSpaceOnUse" x="3690" y="1818" width="44" height="44" color-interpolation-filters="sRGB"><feFlood flood-opacity="0" result="BackgroundImageFix"/><feBlend in="SourceGraphic" in2="BackgroundImageFix" result="shape"/><feGaussianBlur stdDeviation="5" result="effect1_foregroundBlur"/></filter><filter id="s" filterUnits="userSpaceOnUse" x="3691" y="1817" width="44" height="44" color-interpolation-filters="sRGB"><feFlood flood-opacity="0" result="BackgroundImageFix"/><feBlend in="SourceGraphic" in2="BackgroundImageFix" result="shape"/><feGaussianBlur stdDeviation="5" result="effect1_foregroundBlur"/></filter><linearGradient id="d" x2="1" gradientUnits="userSpaceOnUse" gradientTransform="matrix(0 311.888 -27.4328 0 27.433 0)"><stop offset="0" stop-color="#6FCF97"/><stop offset="1" stop-color="#1B1D29"/></linearGradient><linearGradient id="e" x2="1" gradientUnits="userSpaceOnUse" gradientTransform="matrix(0 311.888 -27.4328 0 27.433 0)"><stop offset="0" stop-color="#6FCF97"/><stop offset="1" stop-color="#1B1D29"/></linearGradient><linearGradient id="l" x2="1" gradientUnits="userSpaceOnUse" gradientTransform="matrix(0 303.981 -27.4328 0 27.433 0)"><stop offset="0" stop-color="#6FCF97"/><stop offset="1" stop-color="#1B1D29"/></linearGradient><linearGradient id="p" x2="1" gradientUnits="userSpaceOnUse" gradientTransform="matrix(0 311.728 -27.4188 0 27.419 0)"><stop offset="0" stop-color="#6FCF97"/><stop offset="1" stop-color="#1B1D29"/></linearGradient><linearGradient id="q" x2="1" gradientUnits="userSpaceOnUse" gradientTransform="matrix(0 311.728 -27.4188 0 27.419 0)"><stop offset="0" stop-color="#6FCF97"/><stop offset="1" stop-color="#1B1D29"/></linearGradient><linearGradient id="v" x2="1" gradientUnits="userSpaceOnUse" gradientTransform="matrix(0 14.8156 -23.2166 0 23.217 0)"><stop offset="0" stop-color="#67C18C"/><stop offset="1" stop-color="#2A2C38"/></linearGradient><linearGradient id="x" x2="1" gradientUnits="userSpaceOnUse" gradientTransform="matrix(34.661 36.2877 -37.0558 36.6098 86.319 42.868)"><stop offset="0" stop-color="#6FCF97"/><stop offset=".901" stop-color="#212D2A"/></linearGradient><linearGradient id="y" x2="1" gradientUnits="userSpaceOnUse" gradientTransform="matrix(2.98654 208.301 -18.3212 .26269 19.884 103.296)"><stop offset="0" stop-color="#6FCF97"/><stop offset="1" stop-color="#1B1D29"/></linearGradient><linearGradient id="z" x2="1" gradientUnits="userSpaceOnUse" gradientTransform="matrix(0 14.8156 -23.2166 0 23.217 0)"><stop offset="0" stop-color="#67C18C"/><stop offset="1" stop-color="#2A2C38"/></linearGradient><linearGradient id="B" x2="1" gradientUnits="userSpaceOnUse" gradientTransform="matrix(35.2509 35.6805 -37.6865 35.9971 87.788 42.15)"><stop offset="0" stop-color="#6FCF97"/><stop offset=".901" stop-color="#212D2A"/></linearGradient><path id="a" d="M0 0h520v530H0V0z"/><path id="c" d="M13.755 0c7.304 0 9.13 7.884 9.13 11.826v266.209c1.949 0 3.844 2.249 4.548 3.374v24.67c-2.743 4.006-9.421 5.809-13.97 5.809-4.548 0-10.702-1.603-13.32-5.809-.108-8.08-.26-22.722 0-24.67.26-1.949 2.947-3.061 4.258-3.374-.734-25.066-.18-183.605.224-266.21C4.625 7.885 6.451 0 13.755 0z"/><path id="h" d="M0 .31L10.425 0l.048 21.805-10.402.337L0 .31z"/><path id="i" d="M11.37 10.416c-4.296 0-9.367 2.805-11.37 4.407C0 8.547 2.266 0 11.37 0c9.422 0 11.696 8.947 11.859 14.823-2.166-1.335-7.473-4.407-11.858-4.407z"/><path id="j" d="M129.231 0C69.175 0 18.054 21.266 0 31.899c33.365-5.145 104.435-15.802 127.745-15.802 23.309 0 97.581 10.657 131.06 15.802C240.637 21.266 189.287 0 129.231 0z"/><path id="k" d="M13.755 0c7.304 0 9.13 7.684 9.13 11.526v259.461c1.949 0 3.844 2.192 4.548 3.288v24.045c-2.743 3.904-9.421 5.661-13.97 5.661-4.548 0-10.702-1.561-13.32-5.661-.108-7.875-.26-22.146 0-24.045.26-1.899 2.947-2.983 4.258-3.288-.734-24.431-.18-178.95.224-259.461C4.625 7.684 6.451 0 13.755 0z"/><path id="m" d="M11.37 10.152c-4.296 0-9.367 2.734-11.37 4.295C0 8.33 2.266 0 11.37 0c9.422 0 11.696 8.72 11.859 14.447-2.166-1.301-7.473-4.295-11.858-4.295z"/><path id="n" d="M129.31 0C69.217 0 18.064 21.253 0 31.88c33.385-5.143 104.499-15.793 127.823-15.793 23.324 0 97.641 10.65 131.14 15.792C240.784 21.253 189.403 0 129.31 0z"/><path id="o" d="M13.748 0c7.3 0 9.125 7.88 9.125 11.82v266.073c1.948 0 3.842 2.248 4.546 3.372v24.657c-2.741 4.004-9.417 5.806-13.963 5.806-4.545 0-10.696-1.601-13.313-5.806-.108-8.075-.26-22.71 0-24.657.26-1.947 2.946-3.06 4.256-3.372-.733-25.053-.18-183.511.224-266.073C4.623 7.88 6.448 0 13.748 0z"/><path id="t" d="M0 .31L10.42 0l.048 21.794L.07 22.13 0 .31z"/><path id="u" d="M11.365 10.411c-4.294 0-9.363 2.803-11.365 4.405C0 8.542 2.265 0 11.365 0c9.416 0 11.69 8.943 11.852 14.816-2.165-1.335-7.469-4.405-11.852-4.405z"/><path id="w" fill-rule="evenodd" d="M0 180.981c5.585-20.342 27.477-71.526 70.364-113.523C113.25 25.461 164.532 4.988 184.812 0c-23.219 16.65-70.005 50.857-93.937 70.864l.023-.014 9.515 10.714-19.03 18.316-9.854-10.022c.109-.17.23-.357.363-.56C51.962 112.034 17.437 157.721 0 180.982z"/><path id="A" fill-rule="evenodd" d="M0 177.953c5.68-20.002 27.945-70.329 71.561-111.624C115.177 25.035 167.332 4.904 187.957 0c-23.616 16.371-71.2 50.009-95.539 69.681l.027-.016 9.677 10.534-19.353 18.01-10.023-9.854c.112-.169.236-.354.373-.554C52.85 110.154 17.735 155.08 0 177.953z"/><path id="C" d="M65.117 39.68c-2.448-.048-4.38-.792-5.796-2.232-1.416-1.416-2.124-3.468-2.124-6.156v-2.268c0-.816-.156-1.464-.468-1.944-.312-.48-.744-.72-1.296-.72h-.936v-3.708h.936c.552 0 .984-.24 1.296-.72.312-.48.468-1.128.468-1.944v-2.196c0-2.688.708-4.74 2.124-6.156 1.416-1.44 3.348-2.196 5.796-2.268h1.26v3.744h-1.26c-2.496.096-3.744 1.44-3.744 4.032v2.448c0 1.512-.24 2.64-.72 3.384-.48.744-1.188 1.236-2.124 1.476v.144c1.896.504 2.844 2.124 2.844 4.86v2.448c0 2.64 1.248 3.996 3.744 4.068h1.26v3.708h-1.26zm25.136-4.284c-1.416 0-2.7-.252-3.852-.756-1.128-.504-2.076-1.164-2.844-1.98-.744-.84-1.368-1.824-1.872-2.952a15.731 15.731 0 0 1-1.08-3.528 21.713 21.713 0 0 1-.324-3.78c0-1.584.18-3.108.54-4.572.384-1.488.96-2.868 1.728-4.14a8.61 8.61 0 0 1 3.132-3.096C87 9.8 88.525 9.404 90.253 9.404c1.968 0 3.612.504 4.932 1.512 1.32 1.008 2.28 2.256 2.88 3.744l-3.816 1.836c-.528-1.008-1.104-1.764-1.728-2.268-.6-.504-1.356-.756-2.268-.756-1.296 0-2.376.48-3.24 1.44a7.965 7.965 0 0 0-1.8 3.384c-.336 1.272-.504 2.64-.504 4.104 0 2.376.48 4.464 1.44 6.264.96 1.776 2.328 2.664 4.104 2.664 1.68 0 3.024-1.08 4.032-3.24l3.888 1.476c-1.584 3.888-4.224 5.832-7.92 5.832zm28.951.036c-2.16 0-3.984-.624-5.472-1.872-1.464-1.272-2.508-2.856-3.132-4.752-.624-1.896-.936-4.032-.936-6.408 0-2.376.312-4.512.936-6.408.624-1.896 1.668-3.468 3.132-4.716 1.488-1.272 3.312-1.908 5.472-1.908 1.32 0 2.52.24 3.6.72 1.08.456 1.98 1.092 2.7 1.908.744.816 1.356 1.788 1.836 2.916.504 1.104.864 2.28 1.08 3.528.24 1.248.36 2.568.36 3.96s-.12 2.712-.36 3.96a14.95 14.95 0 0 1-1.08 3.564c-.48 1.104-1.092 2.064-1.836 2.88-.72.816-1.62 1.464-2.7 1.944-1.08.456-2.28.684-3.6.684zm0-4.068c1.128 0 2.088-.444 2.88-1.332.792-.888 1.356-1.98 1.692-3.276.36-1.32.54-2.772.54-4.356 0-2.592-.432-4.728-1.296-6.408-.84-1.704-2.112-2.556-3.816-2.556-1.68 0-2.952.876-3.816 2.628-.864 1.728-1.296 3.84-1.296 6.336 0 2.568.42 4.704 1.26 6.408.864 1.704 2.148 2.556 3.852 2.556zM140.236 35V9.8h6.336c1.632 0 3.108.24 4.428.72 1.32.48 2.412 1.116 3.276 1.908a9.915 9.915 0 0 1 2.196 2.844c.6 1.08 1.032 2.22 1.296 3.42.264 1.176.396 2.412.396 3.708 0 1.2-.12 2.376-.36 3.528a13.613 13.613 0 0 1-1.224 3.42 10.962 10.962 0 0 1-2.196 2.916c-.864.816-1.98 1.476-3.348 1.98-1.368.504-2.904.756-4.608.756h-6.192zm4.284-4.032h2.34c1.224 0 2.292-.252 3.204-.756.936-.504 1.656-1.176 2.16-2.016a10.42 10.42 0 0 0 1.116-2.736c.24-.984.36-2.004.36-3.06 0-2.352-.54-4.368-1.62-6.048-1.08-1.68-2.688-2.52-4.824-2.52h-2.736v17.136zM169.62 35V9.8h16.164v4.068h-11.88v6.084h7.74v4.068h-7.74v6.912h12.636V35h-16.92zm31.795 4.68v-3.708h1.26c2.496-.072 3.744-1.428 3.744-4.068v-2.448c0-2.736.948-4.356 2.844-4.86v-.144c-1.896-.504-2.844-2.124-2.844-4.86v-2.448c0-2.592-1.248-3.936-3.744-4.032h-1.26V9.368h1.26c2.472.072 4.404.816 5.796 2.232 1.416 1.416 2.124 3.48 2.124 6.192v2.196c0 .816.156 1.464.468 1.944.312.48.744.72 1.296.72h.936v3.708h-.936c-.552 0-.984.24-1.296.72-.312.48-.468 1.128-.468 1.944v2.268c0 2.688-.708 4.74-2.124 6.156-1.416 1.44-3.348 2.184-5.796 2.232h-1.26z"/></defs></svg>