<svg width="520" height="530" viewBox="0 0 520 530" version="1.1" xmlns="http://www.w3.org/2000/svg" xmlns:xlink="http://www.w3.org/1999/xlink">
<title>Group</title>
<desc>Created using Figma</desc>
<g id="Canvas" transform="translate(-3445 -1519)">
<g id="Group">
<g id="Rectangle 21">
<use xlink:href="#path0_fill" transform="translate(3445 1519)" fill="#151828"/>
</g>
<g id="Code">
<g id="Code">
<g id="Group">
<g id="Group" filter="url(#filter0_f)">
<g id="Group">
<g id="Group">
<g id="Vector 20">
<use xlink:href="#path1_fill" transform="matrix(-0.701354 0.712813 -0.701354 -0.712813 3804.55 1914.66)" fill="url(#paint1_linear)"/>
</g>
<g id="Mask Group">
<mask id="mask0_alpha" mask-type="alpha">
<g id="Vector 20">
<use xlink:href="#path1_fill" transform="matrix(-0.701354 0.712813 -0.701354 -0.712813 3804.55 1914.66)" fill="url(#paint2_linear)"/>
</g>
</mask>
<g id="Rectangle 16" mask="url(#mask0_alpha)" filter="url(#filter1_f)">
<use xlink:href="#path2_fill" transform="matrix(0.699593 0.714598 -0.70311 0.711024 3716.35 1828.4)" fill="#284936"/>
</g>
</g>
<g id="Vector 22">
<use xlink:href="#path3_fill" transform="matrix(0.701354 -0.712813 0.701354 0.712813 3558.49 1700.68)" fill="#2C413F"/>
</g>
</g>
<g id="Vector 23">
<use xlink:href="#path4_fill" transform="matrix(0.714707 -0.699424 0.687758 0.72594 3486 1791.74)" fill="#2C413F"/>
</g>
</g>
<g id="Group">
<g id="Group">
<g id="Vector 20">
<use xlink:href="#path5_fill" transform="matrix(-0.701354 -0.712813 0.701354 -0.712813 3625.67 1929.02)" fill="url(#paint6_linear)"/>
</g>
<g id="Vector 22">
<use xlink:href="#path6_fill" transform="matrix(0.701354 0.712813 -0.701354 0.712813 3830.42 1684.82)" fill="#2C413F"/>
</g>
</g>
<g id="Vector 23">
<use xlink:href="#path7_fill" transform="matrix(0.687758 0.72594 -0.714707 0.699424 3744.9 1610.73)" fill="#2C413F"/>
</g>
</g>
</g>
<g id="Group">
<g id="Group">
<g id="Group">
<g id="Vector 20">
<use xlink:href="#path8_fill" transform="matrix(-0.701115 0.713048 -0.701115 -0.713048 3805.2 1913.91)" fill="url(#paint9_linear)"/>
</g>
<g id="Mask Group">
<mask id="mask1_alpha" mask-type="alpha">
<g id="Vector 20">
<use xlink:href="#path8_fill" transform="matrix(-0.701115 0.713048 -0.701115 -0.713048 3805.2 1913.91)" fill="url(#paint10_linear)"/>
</g>
</mask>
<g id="Rectangle 16" mask="url(#mask1_alpha)" filter="url(#filter2_f)">
<use xlink:href="#path9_fill" transform="matrix(0.699356 0.714833 -0.702871 0.711258 3717.07 1827.67)" fill="#284936"/>
</g>
</g>
<g id="Vector 22">
<use xlink:href="#path10_fill" transform="matrix(0.701115 -0.713048 0.701115 0.713048 3559.35 1699.97)" fill="url(#paint12_linear)"/>
</g>
</g>
<g id="Union">
<use xlink:href="#path11_fill" transform="translate(3508.43 1633.88)" fill="url(#paint13_linear)"/>
</g>
</g>
</g>
<g id="Group">
<g id="Group">
<g id="Group">
<g id="Vector 20">
<use xlink:href="#path8_fill" transform="matrix(-0.701115 -0.713048 0.701115 -0.713048 3620.08 1936.74)" fill="url(#paint14_linear)"/>
</g>
<g id="Vector 22">
<use xlink:href="#path10_fill" transform="matrix(0.701115 0.713048 -0.701115 0.713048 3830.44 1686.71)" fill="url(#paint15_linear)"/>
</g>
</g>
<g id="Union">
<use xlink:href="#path12_fill" transform="matrix(0 1 -1 0 3895.42 1634.92)" fill="url(#paint16_linear)"/>
</g>
</g>
</g>
</g>
<g id="{CODE}">
<use xlink:href="#path13_fill" transform="translate(3567 1792.15)" fill="#FFFFFF"/>
</g>
</g>
</g>
</g>
</g>
<defs>
<filter id="filter0_f" filterUnits="userSpaceOnUse" x="3472" y="1598" width="464" height="364" color-interpolation-filters="sRGB">
<feFlood flood-opacity="0" result="BackgroundImageFix"/>
<feBlend mode="normal" in="SourceGraphic" in2="BackgroundImageFix" result="shape"/>
<feGaussianBlur stdDeviation="17.5" result="effect1_foregroundBlur"/>
</filter>
<filter id="filter1_f" filterUnits="userSpaceOnUse" x="3690" y="1818" width="44" height="44" color-interpolation-filters="sRGB">
<feFlood flood-opacity="0" result="BackgroundImageFix"/>
<feBlend mode="normal" in="SourceGraphic" in2="BackgroundImageFix" result="shape"/>
<feGaussianBlur stdDeviation="5" result="effect1_foregroundBlur"/>
</filter>
<filter id="filter2_f" filterUnits="userSpaceOnUse" x="3691" y="1817" width="44" height="44" color-interpolation-filters="sRGB">
<feFlood flood-opacity="0" result="BackgroundImageFix"/>
<feBlend mode="normal" in="SourceGraphic" in2="BackgroundImageFix" result="shape"/>
<feGaussianBlur stdDeviation="5" result="effect1_foregroundBlur"/>
</filter>
<linearGradient id="paint1_linear" x1="0" y1="0" x2="1" y2="0" gradientUnits="userSpaceOnUse" gradientTransform="matrix(0 311.888 -27.4328 2.16415e-14 27.4328 0)">
<stop offset="0" stop-color="#6FCF97"/>
<stop offset="1" stop-color="#1B1D29"/>
</linearGradient>
<linearGradient id="paint2_linear" x1="0" y1="0" x2="1" y2="0" gradientUnits="userSpaceOnUse" gradientTransform="matrix(0 311.888 -27.4328 2.16415e-14 27.4328 0)">
<stop offset="0" stop-color="#6FCF97"/>
<stop offset="1" stop-color="#1B1D29"/>
</linearGradient>
<linearGradient id="paint6_linear" x1="0" y1="0" x2="1" y2="0" gradientUnits="userSpaceOnUse" gradientTransform="matrix(1.67978e-15 303.981 -27.4328 1.86135e-14 27.4328 -1.86135e-14)">
<stop offset="0" stop-color="#6FCF97"/>
<stop offset="1" stop-color="#1B1D29"/>
</linearGradient>
<linearGradient id="paint9_linear" x1="0" y1="0" x2="1" y2="0" gradientUnits="userSpaceOnUse" gradientTransform="matrix(0 311.728 -27.4188 2.16305e-14 27.4188 0)">
<stop offset="0" stop-color="#6FCF97"/>
<stop offset="1" stop-color="#1B1D29"/>
</linearGradient>
<linearGradient id="paint10_linear" x1="0" y1="0" x2="1" y2="0" gradientUnits="userSpaceOnUse" gradientTransform="matrix(0 311.728 -27.4188 2.16305e-14 27.4188 0)">
<stop offset="0" stop-color="#6FCF97"/>
<stop offset="1" stop-color="#1B1D29"/>
</linearGradient>
<linearGradient id="paint12_linear" x1="0" y1="0" x2="1" y2="0" gradientUnits="userSpaceOnUse" gradientTransform="matrix(1.42161e-15 14.8156 -23.2166 9.07194e-16 23.2166 -9.07194e-16)">
<stop offset="0" stop-color="#67C18C"/>
<stop offset="1" stop-color="#2A2C38"/>
</linearGradient>
<linearGradient id="paint13_linear" x1="0" y1="0" x2="1" y2="0" gradientUnits="userSpaceOnUse" gradientTransform="matrix(34.661 36.2877 -37.0558 36.6098 86.3188 42.8682)">
<stop offset="0" stop-color="#6FCF97"/>
<stop offset="0.900553" stop-color="#212D2A"/>
</linearGradient>
<linearGradient id="paint14_linear" x1="0" y1="0" x2="1" y2="0" gradientUnits="userSpaceOnUse" gradientTransform="matrix(2.98654 208.301 -18.3212 0.262688 19.8835 103.296)">
<stop offset="0" stop-color="#6FCF97"/>
<stop offset="1" stop-color="#1B1D29"/>
</linearGradient>
<linearGradient id="paint15_linear" x1="0" y1="0" x2="1" y2="0" gradientUnits="userSpaceOnUse" gradientTransform="matrix(1.42161e-15 14.8156 -23.2166 9.07194e-16 23.2166 -9.07194e-16)">
<stop offset="0" stop-color="#67C18C"/>
<stop offset="1" stop-color="#2A2C38"/>
</linearGradient>
<linearGradient id="paint16_linear" x1="0" y1="0" x2="1" y2="0" gradientUnits="userSpaceOnUse" gradientTransform="matrix(35.2509 35.6805 -37.6865 35.9971 87.7878 42.1508)">
<stop offset="0" stop-color="#6FCF97"/>
<stop offset="0.900553" stop-color="#212D2A"/>
</linearGradient>
<path id="path0_fill" d="M 0 0L 520 0L 520 530L 0 530L 0 0Z"/>
<path id="path1_fill" d="M 13.7549 0C 21.0588 0 22.8847 7.88371 22.8847 11.8256L 22.8847 278.035C 24.834 278.035 26.729 280.284 27.4328 281.409L 27.4328 306.079C 24.6904 310.085 18.0115 311.888 13.4634 311.888C 8.91519 311.888 2.76143 310.285 0.143504 306.079C 0.0352125 297.999 -0.116396 283.357 0.143504 281.409C 0.403403 279.46 3.09011 278.348 4.40098 278.035C 3.66741 252.969 4.22059 94.4302 4.62506 11.8256C 4.62506 7.88371 6.45102 0 13.7549 0Z"/>
<path id="path2_fill" d="M 0 0.309896L 10.4254 0L 10.4731 21.8048L 0.0711666 22.1415L 0 0.309896Z"/>
<path id="path3_fill" d="M 11.3706 10.4163C 7.07439 10.4163 2.00339 13.2207 0 14.8232C 0 8.54669 2.26577 -4.94798e-05 11.3706 0C 20.792 5.12e-05 23.0661 8.94732 23.2285 14.8232C 21.0627 13.4878 15.7564 10.4163 11.3706 10.4163Z"/>
<path id="path4_fill" d="M 129.231 0C 69.1746 0 18.0535 21.2659 0 31.8988C 33.3647 26.7538 104.435 16.0974 127.745 16.0974C 151.054 16.0974 225.326 26.7538 258.805 31.8988C 240.637 21.2659 189.287 0 129.231 0Z"/>
<path id="path5_fill" d="M 13.7549 0C 21.0588 0 22.8847 7.68387 22.8847 11.5258L 22.8847 270.987C 24.834 270.987 26.729 273.179 27.4328 274.275L 27.4328 298.32C 24.6904 302.224 18.0115 303.981 13.4634 303.981C 8.91519 303.981 2.76143 302.42 0.143504 298.32C 0.0352125 290.445 -0.116396 276.174 0.143504 274.275C 0.403403 272.376 3.09011 271.292 4.40098 270.987C 3.66741 246.556 4.22059 92.0364 4.62506 11.5258C 4.62506 7.68387 6.45102 0 13.7549 0Z"/>
<path id="path6_fill" d="M 11.3706 10.1522C 7.07439 10.1522 2.00339 12.8855 0 14.4474C 0 8.33004 2.26577 -4.82255e-05 11.3706 0C 20.792 4.99021e-05 23.0661 8.72051 23.2285 14.4474C 21.0627 13.1458 15.7564 10.1522 11.3706 10.1522Z"/>
<path id="path7_fill" d="M 129.31 0C 69.2169 0 18.0645 21.2528 0 31.8793C 33.3851 26.7374 104.499 16.0875 127.823 16.0875C 151.147 16.0875 225.464 26.7374 258.963 31.8793C 240.784 21.2528 189.403 0 129.31 0Z"/>
<path id="path8_fill" d="M 13.7479 0C 21.048 0 22.873 7.87969 22.873 11.8195L 22.873 277.893C 24.8213 277.893 26.7154 280.141 27.4188 281.265L 27.4188 305.922C 24.6778 309.926 18.0023 311.728 13.4565 311.728C 8.91064 311.728 2.76002 310.127 0.143431 305.922C 0.0351945 297.847 -0.116336 283.212 0.143431 281.265C 0.403197 279.318 3.08853 278.205 4.39873 277.893C 3.66554 252.84 4.21844 94.3819 4.62269 11.8195C 4.62269 7.87969 6.44773 0 13.7479 0Z"/>
<path id="path9_fill" d="M 0 0.309738L 10.4201 0L 10.4677 21.7936L 0.0711302 22.1302L 0 0.309738Z"/>
<path id="path10_fill" d="M 11.3648 10.411C 7.07078 10.411 2.00237 13.2139 0 14.8156C 0 8.54233 2.26461 -4.94546e-05 11.3648 0C 20.7813 5.11738e-05 23.0543 8.94275 23.2166 14.8156C 21.0519 13.4809 15.7484 10.411 11.3648 10.411Z"/>
<path id="path11_fill" fill-rule="evenodd" d="M 0 180.981C 5.58545 160.639 27.4775 109.455 70.3638 67.4581C 113.25 25.4609 164.532 4.98718 184.812 0C 161.593 16.6493 114.807 50.8567 90.8752 70.8644C 90.8831 70.8596 90.8906 70.8549 90.8982 70.8501L 100.413 81.5636L 81.3833 99.8802L 71.5288 89.8579C 71.6375 89.6877 71.759 89.5006 71.8923 89.2985C 51.9629 112.033 17.4373 157.721 0 180.981Z"/>
<path id="path12_fill" fill-rule="evenodd" d="M 0 177.953C 5.6803 157.951 27.9451 107.624 71.5612 66.3293C 115.177 25.0347 167.332 4.90381 187.957 0C 164.341 16.3713 116.757 50.0088 92.4181 69.6814C 92.4272 69.6758 92.4363 69.6704 92.4453 69.665L 102.122 80.1992L 82.7687 98.2095L 72.7463 88.3547C 72.8577 88.1865 72.9822 88.001 73.1188 87.8008C 52.8506 110.154 17.7347 155.081 0 177.953Z"/>
<path id="path13_fill" d="M 65.1172 39.68C 62.6692 39.632 60.7372 38.888 59.3212 37.448C 57.9052 36.032 57.1972 33.98 57.1972 31.292L 57.1972 29.024C 57.1972 28.208 57.0412 27.56 56.7292 27.08C 56.4172 26.6 55.9852 26.36 55.4332 26.36L 54.4972 26.36L 54.4972 22.652L 55.4332 22.652C 55.9852 22.652 56.4172 22.412 56.7292 21.932C 57.0412 21.452 57.1972 20.804 57.1972 19.988L 57.1972 17.792C 57.1972 15.104 57.9052 13.052 59.3212 11.636C 60.7372 10.196 62.6692 9.44 65.1172 9.368L 66.3772 9.368L 66.3772 13.112L 65.1172 13.112C 62.6212 13.208 61.3732 14.552 61.3732 17.144L 61.3732 19.592C 61.3732 21.104 61.1332 22.232 60.6532 22.976C 60.1732 23.72 59.4652 24.212 58.5292 24.452L 58.5292 24.596C 60.4252 25.1 61.3732 26.72 61.3732 29.456L 61.3732 31.904C 61.3732 34.544 62.6212 35.9 65.1172 35.972L 66.3772 35.972L 66.3772 39.68L 65.1172 39.68ZM 90.2528 35.396C 88.8368 35.396 87.5528 35.144 86.4008 34.64C 85.2728 34.136 84.3248 33.476 83.5568 32.66C 82.8128 31.82 82.1888 30.836 81.6848 29.708C 81.1808 28.556 80.8208 27.38 80.6048 26.18C 80.3888 24.956 80.2808 23.696 80.2808 22.4C 80.2808 20.816 80.4608 19.292 80.8208 17.828C 81.2048 16.34 81.7808 14.96 82.5488 13.688C 83.3168 12.392 84.3608 11.36 85.6808 10.592C 87.0008 9.8 88.5248 9.404 90.2528 9.404C 92.2208 9.404 93.8648 9.908 95.1848 10.916C 96.5048 11.924 97.4648 13.172 98.0648 14.66L 94.2488 16.496C 93.7208 15.488 93.1448 14.732 92.5208 14.228C 91.9208 13.724 91.1648 13.472 90.2528 13.472C 88.9568 13.472 87.8768 13.952 87.0128 14.912C 86.1488 15.872 85.5488 17 85.2128 18.296C 84.8768 19.568 84.7088 20.936 84.7088 22.4C 84.7088 24.776 85.1888 26.864 86.1488 28.664C 87.1088 30.44 88.4768 31.328 90.2528 31.328C 91.9328 31.328 93.2768 30.248 94.2848 28.088L 98.1728 29.564C 96.5888 33.452 93.9488 35.396 90.2528 35.396ZM 119.204 35.432C 117.044 35.432 115.22 34.808 113.732 33.56C 112.268 32.288 111.224 30.704 110.6 28.808C 109.976 26.912 109.664 24.776 109.664 22.4C 109.664 20.024 109.976 17.888 110.6 15.992C 111.224 14.096 112.268 12.524 113.732 11.276C 115.22 10.004 117.044 9.368 119.204 9.368C 120.524 9.368 121.724 9.608 122.804 10.088C 123.884 10.544 124.784 11.18 125.504 11.996C 126.248 12.812 126.86 13.784 127.34 14.912C 127.844 16.016 128.204 17.192 128.42 18.44C 128.66 19.688 128.78 21.008 128.78 22.4C 128.78 23.792 128.66 25.112 128.42 26.36C 128.204 27.608 127.844 28.796 127.34 29.924C 126.86 31.028 126.248 31.988 125.504 32.804C 124.784 33.62 123.884 34.268 122.804 34.748C 121.724 35.204 120.524 35.432 119.204 35.432ZM 119.204 31.364C 120.332 31.364 121.292 30.92 122.084 30.032C 122.876 29.144 123.44 28.052 123.776 26.756C 124.136 25.436 124.316 23.984 124.316 22.4C 124.316 19.808 123.884 17.672 123.02 15.992C 122.18 14.288 120.908 13.436 119.204 13.436C 117.524 13.436 116.252 14.312 115.388 16.064C 114.524 17.792 114.092 19.904 114.092 22.4C 114.092 24.968 114.512 27.104 115.352 28.808C 116.216 30.512 117.5 31.364 119.204 31.364ZM 140.236 35L 140.236 9.8L 146.572 9.8C 148.204 9.8 149.68 10.04 151 10.52C 152.32 11 153.412 11.636 154.276 12.428C 155.164 13.22 155.896 14.168 156.472 15.272C 157.072 16.352 157.504 17.492 157.768 18.692C 158.032 19.868 158.164 21.104 158.164 22.4C 158.164 23.6 158.044 24.776 157.804 25.928C 157.564 27.08 157.156 28.22 156.58 29.348C 156.004 30.452 155.272 31.424 154.384 32.264C 153.52 33.08 152.404 33.74 151.036 34.244C 149.668 34.748 148.132 35 146.428 35L 140.236 35ZM 144.52 30.968L 146.86 30.968C 148.084 30.968 149.152 30.716 150.064 30.212C 151 29.708 151.72 29.036 152.224 28.196C 152.728 27.332 153.1 26.42 153.34 25.46C 153.58 24.476 153.7 23.456 153.7 22.4C 153.7 20.048 153.16 18.032 152.08 16.352C 151 14.672 149.392 13.832 147.256 13.832L 144.52 13.832L 144.52 30.968ZM 169.62 35L 169.62 9.8L 185.784 9.8L 185.784 13.868L 173.904 13.868L 173.904 19.952L 181.644 19.952L 181.644 24.02L 173.904 24.02L 173.904 30.932L 186.54 30.932L 186.54 35L 169.62 35ZM 201.415 39.68L 201.415 35.972L 202.675 35.972C 205.171 35.9 206.419 34.544 206.419 31.904L 206.419 29.456C 206.419 26.72 207.367 25.1 209.263 24.596L 209.263 24.452C 207.367 23.948 206.419 22.328 206.419 19.592L 206.419 17.144C 206.419 14.552 205.171 13.208 202.675 13.112L 201.415 13.112L 201.415 9.368L 202.675 9.368C 205.147 9.44 207.079 10.184 208.471 11.6C 209.887 13.016 210.595 15.08 210.595 17.792L 210.595 19.988C 210.595 20.804 210.751 21.452 211.063 21.932C 211.375 22.412 211.807 22.652 212.359 22.652L 213.295 22.652L 213.295 26.36L 212.359 26.36C 211.807 26.36 211.375 26.6 211.063 27.08C 210.751 27.56 210.595 28.208 210.595 29.024L 210.595 31.292C 210.595 33.98 209.887 36.032 208.471 37.448C 207.055 38.888 205.123 39.632 202.675 39.68L 201.415 39.68Z"/>
</defs>
</svg>
