<svg width="520" height="530" viewBox="0 0 520 530" xmlns="http://www.w3.org/2000/svg" xmlns:xlink="http://www.w3.org/1999/xlink"><title>Group</title><desc>Created using Figma</desc><use xlink:href="#a" fill="#151828"/><g filter="url(#b)" transform="translate(-3987 -1519)"><use xlink:href="#c" transform="matrix(.92338 .12233 .01804 1.05432 4236.75 1611.02)" fill="url(#d)"/><use xlink:href="#e" transform="matrix(.92338 .12233 .01804 1.05432 4247.92 1629.88)" fill="url(#f)"/><use xlink:href="#g" transform="matrix(.92338 .12233 .01804 1.05432 4196.54 1605.71)" fill="url(#h)"/><use xlink:href="#i" transform="matrix(.92338 .12233 .01804 1.05432 4204.69 1606.77)" fill="url(#j)"/><use xlink:href="#k" transform="matrix(.92338 .12233 .01804 1.05432 4245.13 1674.44)" fill="url(#l)"/><use xlink:href="#m" transform="matrix(.92338 .12233 .01804 1.05432 4268.73 1692.06)" fill="url(#n)"/><use xlink:href="#o" transform="matrix(.92804 -.04214 .03517 1.05373 4201.93 1892.3)" fill="url(#p)"/><use xlink:href="#q" transform="matrix(.92804 -.04214 .03517 1.05373 4249.91 1923.76)" fill="url(#r)"/><use xlink:href="#s" transform="matrix(.92804 -.04214 .03517 1.05373 4256.46 1907.5)" fill="url(#t)"/></g><g filter="url(#u)" transform="translate(-3987 -1519)"><use xlink:href="#v" transform="matrix(.92338 .12233 .01804 1.05432 4236.3 1619.22)" fill="url(#w)"/><use xlink:href="#x" transform="matrix(.92338 .12233 .01804 1.05432 4246.7 1636.79)" fill="url(#y)"/><use xlink:href="#z" transform="matrix(.92338 .12233 .01804 1.05432 4198.86 1614.29)" fill="url(#A)"/><use xlink:href="#B" transform="matrix(.92338 .12233 .01804 1.05432 4206.45 1615.27)" fill="#212981"/><use xlink:href="#C" transform="matrix(.92338 .12233 .01804 1.05432 4244.11 1678.28)" fill="url(#D)"/><use xlink:href="#E" transform="matrix(.92338 .12233 .01804 1.05432 4266.08 1694.68)" fill="url(#F)"/><use xlink:href="#G" transform="matrix(.92804 -.04214 .03517 1.05373 4203.88 1881.13)" fill="#4B52DD"/><use xlink:href="#H" transform="matrix(.92804 -.04214 .03517 1.05373 4248.56 1910.43)" fill="#303898"/><use xlink:href="#I" transform="matrix(.92804 -.04214 .03517 1.05373 4254.65 1895.28)" fill="url(#J)"/></g><use xlink:href="#K" transform="translate(164.33 245.63)" fill="#FFF"/><g transform="translate(-3987 -1519)"><mask id="M"><use xlink:href="#L" fill="#fff" transform="translate(4129.88 1578.53)"/></mask><g mask="url(#M)"><use xlink:href="#N" transform="translate(4129.88 1578.53)" fill="#7D9EFF"/></g></g><g transform="translate(-3987 -1519)"><use xlink:href="#O" transform="translate(4126.92 1988.03)" fill="#4B52DD"/><mask id="P"><use xlink:href="#O" fill="#fff" transform="translate(4126.92 1988.03)"/></mask><g mask="url(#P)"><use xlink:href="#Q" transform="translate(4126.92 1988.03)" fill="#FFF"/></g></g><g transform="translate(-3987 -1519)"><use xlink:href="#O" transform="translate(4126.18 1780.83)" fill="#4B52DD"/><mask id="R"><use xlink:href="#O" fill="#fff" transform="translate(4126.18 1780.83)"/></mask><g mask="url(#R)"><use xlink:href="#Q" transform="translate(4126.18 1780.83)" fill="#FFF"/></g></g><g transform="translate(-3987 -1519)"><use xlink:href="#O" transform="translate(4349.59 1780.83)" fill="#4B52DD"/><mask id="S"><use xlink:href="#O" fill="#fff" transform="translate(4349.59 1780.83)"/></mask><g mask="url(#S)"><use xlink:href="#Q" transform="translate(4349.59 1780.83)" fill="#FFF"/></g></g><g transform="translate(-3987 -1519)"><use xlink:href="#O" transform="translate(4126.18 1573.64)" fill="#4B52DD"/><mask id="T"><use xlink:href="#O" fill="#fff" transform="translate(4126.18 1573.64)"/></mask><g mask="url(#T)"><use xlink:href="#Q" transform="translate(4126.18 1573.64)" fill="#FFF"/></g></g><g transform="translate(-3987 -1519)"><use xlink:href="#O" transform="translate(4240.84 1573.64)" fill="#4B52DD"/><mask id="U"><use xlink:href="#O" fill="#fff" transform="translate(4240.84 1573.64)"/></mask><g mask="url(#U)"><use xlink:href="#Q" transform="translate(4240.84 1573.64)" fill="#FFF"/></g></g><g transform="translate(-3987 -1519)"><use xlink:href="#O" transform="translate(4240.84 1988.03)" fill="#4B52DD"/><mask id="V"><use xlink:href="#O" fill="#fff" transform="translate(4240.84 1988.03)"/></mask><g mask="url(#V)"><use xlink:href="#Q" transform="translate(4240.84 1988.03)" fill="#FFF"/></g></g><g transform="translate(-3987 -1519)"><use xlink:href="#O" transform="translate(4348.85 1573.64)" fill="#4B52DD"/><mask id="W"><use xlink:href="#O" fill="#fff" transform="translate(4348.85 1573.64)"/></mask><g mask="url(#W)"><use xlink:href="#Q" transform="translate(4348.85 1573.64)" fill="#FFF"/></g></g><g transform="translate(-3987 -1519)"><use xlink:href="#O" transform="translate(4348.85 1988.03)" fill="#4B52DD"/><mask id="X"><use xlink:href="#O" fill="#fff" transform="translate(4348.85 1988.03)"/></mask><g mask="url(#X)"><use xlink:href="#Q" transform="translate(4348.85 1988.03)" fill="#FFF"/></g></g><g transform="translate(370.72 478.82)"><use xlink:href="#Y"/><use xlink:href="#Z" fill="#FFF"/></g><defs><filter id="b" filterUnits="userSpaceOnUse" x="4161" y="1571" width="176" height="428" color-interpolation-filters="sRGB"><feFlood flood-opacity="0" result="BackgroundImageFix"/><feBlend in="SourceGraphic" in2="BackgroundImageFix" result="shape"/><feGaussianBlur stdDeviation="20" result="effect1_foregroundBlur"/></filter><filter id="u" filterUnits="userSpaceOnUse" x="4199" y="1619" width="97" height="332" color-interpolation-filters="sRGB"><feFlood flood-opacity="0" result="BackgroundImageFix"/><feColorMatrix in="SourceAlpha" values="0 0 0 0 0 0 0 0 0 0 0 0 0 0 0 0 0 0 255 0"/><feOffset dy="4"/><feGaussianBlur stdDeviation="2"/><feColorMatrix values="0 0 0 0 0 0 0 0 0 0 0 0 0 0 0 0 0 0 0.25 0"/><feBlend in2="BackgroundImageFix" result="effect1_dropShadow"/><feBlend in="SourceGraphic" in2="effect1_dropShadow" result="shape"/></filter><linearGradient id="d" x2="1" gradientUnits="userSpaceOnUse" gradientTransform="matrix(-11.3061 54.6656 -40.4462 -1.57353 35.089 7.688)"><stop offset=".171" stop-color="#4D54FF"/><stop offset="1" stop-color="#0A0F4A"/></linearGradient><linearGradient id="f" x2="1" gradientUnits="userSpaceOnUse" gradientTransform="matrix(-17.5591 79.0749 -62.8157 -2.27614 54.495 11.121)"><stop offset=".171" stop-color="#4D54FF"/><stop offset="1" stop-color="#0A0F4A"/></linearGradient><linearGradient id="h" x2="1" gradientUnits="userSpaceOnUse" gradientTransform="matrix(-20.3788 276.433 -72.903 -7.95703 63.246 38.877)"><stop offset=".171" stop-color="#4D54FF"/><stop offset="1" stop-color="#0A0F4A"/></linearGradient><linearGradient id="j" x2="1" gradientUnits="userSpaceOnUse" gradientTransform="matrix(-17.1685 54.549 -61.4183 -1.57017 53.282 7.672)"><stop offset=".171" stop-color="#4D54FF"/><stop offset="1" stop-color="#0A0F4A"/></linearGradient><linearGradient id="l" x2="1" gradientUnits="userSpaceOnUse" gradientTransform="matrix(-10.1428 222.002 -36.2849 -6.39024 31.478 31.222)"><stop offset=".171" stop-color="#4D54FF"/><stop offset="1" stop-color="#0A0F4A"/></linearGradient><linearGradient id="n" x2="1" gradientUnits="userSpaceOnUse" gradientTransform="matrix(-9.63108 201.704 -34.4542 -5.80599 29.89 28.367)"><stop offset=".171" stop-color="#4D54FF"/><stop offset="1" stop-color="#0A0F4A"/></linearGradient><linearGradient id="p" x2="1" gradientUnits="userSpaceOnUse" gradientTransform="matrix(-21.4977 59.711 -76.9059 -1.71876 66.719 8.398)"><stop offset=".171" stop-color="#4D54FF"/><stop offset="1" stop-color="#0A0F4A"/></linearGradient><linearGradient id="r" x2="1" gradientUnits="userSpaceOnUse" gradientTransform="matrix(-9.24103 30.3532 -33.0588 -.8737 28.68 4.269)"><stop offset=".171" stop-color="#4D54FF"/><stop offset="1" stop-color="#0A0F4A"/></linearGradient><linearGradient id="t" x2="1" gradientUnits="userSpaceOnUse" gradientTransform="matrix(-15.9529 44.037 -57.0699 -1.26759 49.51 6.193)"><stop offset=".171" stop-color="#4D54FF"/><stop offset="1" stop-color="#0A0F4A"/></linearGradient><linearGradient id="w" x2="1" gradientUnits="userSpaceOnUse" gradientTransform="matrix(-7.0117 42.2893 -28.9628 -7.11042 32.3 11.345)"><stop offset=".05" stop-color="#4C7BFE"/><stop offset="1" stop-color="#2D6DA9" stop-opacity=".63"/></linearGradient><linearGradient id="y" x2="1" gradientUnits="userSpaceOnUse" gradientTransform="matrix(0 79.9534 -44.6263 0 44.204 0)"><stop offset=".37" stop-color="#737DFF"/><stop offset=".983" stop-color="#143F8C"/></linearGradient><linearGradient id="A" x2="1" gradientUnits="userSpaceOnUse" gradientTransform="matrix(-18.975 257.39 -67.8809 -7.40888 58.889 36.199)"><stop offset=".171" stop-color="#2C38CA"/><stop offset=".95" stop-color="#1C215D"/></linearGradient><linearGradient id="D" x2="1" gradientUnits="userSpaceOnUse" gradientTransform="matrix(.62576 206 -25.7003 .1156 24.797 -.058)"><stop offset="0" stop-color="#585FFF"/><stop offset=".967" stop-color="#1C215D"/></linearGradient><linearGradient id="F" x2="1" gradientUnits="userSpaceOnUse" gradientTransform="matrix(.42753 191.318 -25.5462 .08453 24.545 -.042)"><stop offset=".354" stop-color="#7F88FA"/><stop offset="1" stop-color="#1C215D"/></linearGradient><linearGradient id="J" x2="1" gradientUnits="userSpaceOnUse" gradientTransform="matrix(0 44.5262 -40.1607 0 40.16 0)"><stop offset="0" stop-color="#696FDF"/><stop offset=".995" stop-color="#1B248B"/></linearGradient><path id="a" d="M0 0h520v530H0V0z"/><path id="c" d="M11.775 59.362L0 0l30.568 16.53-18.793 42.832z"/><path id="e" d="M0 42.831L18.793 0l28.682 56.94-23.776 28.929L0 42.83z"/><path id="g" d="M51.374 300.183l3.724-241.406L43.4 0 8.68 56.48 0 272.3l51.374 27.883z"/><path id="i" d="M0 56.48L34.72 0l11.698 59.236L0 56.48z"/><path id="k" d="M0 241.075L3.774 0l23.65 42.756-2.14 190.054L0 241.075z"/><path id="m" d="M2.138 28.98L26.04 0v199.748L0 219.034 2.138 28.98z"/><path id="o" d="M58.123 64.841L0 0l50.496 36.203 7.627 28.638z"/><path id="q" d="M24.985 0L0 4.323 7.626 32.96 24.985 0z"/><path id="s" d="M43.132 0L17.364 15.13 0 47.82S37.346 10.988 43.132 0z"/><path id="v" d="M10.963 55.273L0 0l28.462 15.392-17.498 39.88z"/><path id="x" d="M0 39.88L17.499 0l26.705 53.017-22.137 26.936L0 39.881z"/><path id="z" d="M47.835 279.504l3.468-224.777L40.41 0 8.082 52.59 0 253.542l47.835 25.962z"/><path id="B" d="M0 52.59L32.328 0 43.22 55.155 0 52.59z"/><path id="C" d="M0 224.468L3.514 0l22.02 39.81-1.991 176.962L0 224.468z"/><path id="E" d="M1.991 26.984L24.246 0v185.988L0 203.945 1.991 26.984z"/><path id="G" d="M54.12 60.374L0 0l47.018 33.709 7.102 26.665z"/><path id="H" d="M23.264 0L0 4.025 7.101 30.69 23.264 0z"/><path id="I" d="M40.16 0L16.169 14.088 0 44.526S34.773 10.23 40.16 0z"/><path id="K" d="M8.164 35V9.8H14.5c1.632 0 3.108.24 4.428.72 1.32.48 2.412 1.116 3.276 1.908a9.915 9.915 0 0 1 2.196 2.844c.6 1.08 1.032 2.22 1.296 3.42.264 1.176.396 2.412.396 3.708 0 1.2-.12 2.376-.36 3.528a13.613 13.613 0 0 1-1.224 3.42 10.962 10.962 0 0 1-2.196 2.916c-.864.816-1.98 1.476-3.348 1.98-1.368.504-2.904.756-4.608.756H8.164zm4.284-4.032h2.34c1.224 0 2.292-.252 3.204-.756.936-.504 1.656-1.176 2.16-2.016a10.42 10.42 0 0 0 1.116-2.736c.24-.984.36-2.004.36-3.06 0-2.352-.54-4.368-1.62-6.048-1.08-1.68-2.688-2.52-4.824-2.52h-2.736v17.136zM37.548 35V9.8h16.164v4.068h-11.88v6.084h7.74v4.068h-7.74v6.912h12.636V35h-16.92zm38.023.432c-2.04 0-3.876-.588-5.507-1.764-1.632-1.176-2.784-2.748-3.456-4.716l3.888-1.44c.552 1.176 1.308 2.124 2.267 2.844.984.696 2.04 1.044 3.168 1.044 1.105 0 1.993-.288 2.665-.864.671-.576 1.007-1.404 1.007-2.484 0-.912-.456-1.716-1.367-2.412-.913-.72-2.184-1.44-3.817-2.16a36.812 36.812 0 0 1-2.483-1.188c-.625-.336-1.333-.804-2.125-1.404-.768-.6-1.344-1.308-1.728-2.124-.383-.816-.576-1.728-.576-2.736 0-1.872.709-3.444 2.124-4.716 1.44-1.296 3.325-1.944 5.653-1.944 1.847 0 3.456.504 4.823 1.512 1.392 1.008 2.317 2.292 2.772 3.852l-3.852 1.296c-.864-1.752-2.195-2.628-3.996-2.628-.936 0-1.704.24-2.303.72-.6.48-.9 1.14-.9 1.98 0 .192.023.384.072.576.047.168.131.336.251.504.12.144.228.288.325.432.12.12.287.264.504.432.24.144.431.264.575.36.168.096.408.228.72.396.313.144.552.252.72.324.168.072.444.204.828.396.385.168.66.288.829.36 1.007.456 1.847.888 2.52 1.296.672.384 1.416.9 2.231 1.548a6.62 6.62 0 0 1 1.872 2.304c.432.888.648 1.86.648 2.916 0 2.304-.816 4.128-2.448 5.472-1.607 1.344-3.575 2.016-5.903 2.016zm36.512-21.852h-5.292v17.64h5.292V35H97.251v-3.78h5.256V13.58h-5.256V9.8h14.832v3.78zm22.364 21.852c-2.184 0-4.044-.636-5.58-1.908a11.216 11.216 0 0 1-3.348-4.788c-.672-1.92-1.008-4.032-1.008-6.336 0-2.184.348-4.236 1.044-6.156.72-1.944 1.848-3.576 3.384-4.896 1.56-1.32 3.396-1.98 5.508-1.98 1.944 0 3.504.456 4.68 1.368 1.2.912 2.232 2.148 3.096 3.708l-3.78 2.16c-1.128-2.112-2.46-3.168-3.996-3.168-1.272 0-2.34.492-3.204 1.476-.84.96-1.428 2.088-1.764 3.384-.336 1.272-.504 2.64-.504 4.104 0 2.472.468 4.584 1.404 6.336.936 1.752 2.292 2.628 4.068 2.628 1.296 0 2.28-.432 2.952-1.296.696-.864 1.044-1.992 1.044-3.384v-.54h-4.392v-4.032h8.784v3.492c0 3.096-.78 5.508-2.34 7.236-1.56 1.728-3.576 2.592-6.048 2.592zM155.082 35V9.8h4.068l7.848 15.552c.432.744.732 1.32.9 1.728a45.645 45.645 0 0 1-.072-1.728V9.8h3.96V35h-3.888l-7.992-15.624a24.636 24.636 0 0 1-.936-1.728c.072.36.108.936.108 1.728V35h-3.996z"/><path id="L" d="M0 0h224.146v414.396H0V0z"/><path id="N" d="M0 0v-1h-1v1h1zm224.146 0h1v-1h-1v1zm0 414.396v1h1v-1h-1zM0 414.396h-1v1h1v-1zM-1 0v2.467h2V0h-2zm0 9.373v4.934h2V9.372h-2zm0 11.84v4.933h2v-4.933h-2zm0 11.84v4.933h2v-4.933h-2zm0 11.84v4.933h2v-4.933h-2zm0 11.84v4.933h2v-4.933h-2zm0 11.84v4.933h2v-4.933h-2zm0 11.84v4.933h2v-4.934h-2zm0 11.84v4.933h2v-4.934h-2zm0 11.839v4.933h2v-4.933h-2zm0 11.84v4.933h2v-4.933h-2zm0 11.84v4.933h2v-4.933h-2zm0 11.84v4.933h2v-4.933h-2zm0 11.84v4.933h2v-4.933h-2zm0 11.84v4.933h2v-4.933h-2zm0 11.839v4.934h2v-4.934h-2zm0 11.84v4.934h2v-4.934h-2zm0 11.84v4.933h2v-4.933h-2zm0 11.84v4.933h2v-4.933h-2zm0 11.84v4.933h2v-4.933h-2zm0 11.84v4.933h2v-4.933h-2zm0 11.84v4.933h2v-4.933h-2zm0 11.84v4.933h2v-4.933h-2zm0 11.839v4.934h2v-4.934h-2zm0 11.84v4.934h2v-4.934h-2zm0 11.84v4.933h2v-4.933h-2zm0 11.84v4.933h2v-4.933h-2zm0 11.84v4.933h2v-4.933h-2zm0 11.84v4.933h2v-4.933h-2zm0 11.84v4.933h2v-4.933h-2zm0 11.84v4.933h2v-4.933h-2zm0 11.839v4.934h2v-4.934h-2zm0 11.84v4.934h2v-4.934h-2zm0 11.84v4.933h2v-4.933h-2zm0 11.84v4.933h2v-4.933h-2zm0 11.84v2.467h2v-2.467h-2zm1 3.467h2.458v-2H0v2zm9.34 0h4.915v-2H9.339v2zm11.797 0h4.915v-2h-4.915v2zm11.797 0h4.915v-2h-4.915v2zm11.797 0h4.915v-2h-4.915v2zm11.797 0h4.916v-2h-4.916v2zm11.797 0h4.916v-2h-4.916v2zm11.797 0h4.916v-2h-4.916v2zm11.797 0h4.916v-2H91.92v2zm11.798 0h4.915v-2h-4.915v2zm11.797 0h4.915v-2h-4.915v2zm11.797 0h4.916v-2h-4.916v2zm11.797 0h4.916v-2h-4.916v2zm11.797 0h4.916v-2h-4.916v2zm11.797 0h4.916v-2h-4.916v2zm11.798 0h4.915v-2H174.5v2zm11.797 0h4.915v-2h-4.915v2zm11.797 0h4.915v-2h-4.915v2zm11.797 0h4.916v-2h-4.916v2zm11.797 0h2.458v-2h-2.458v2zm3.458-1v-2.467h-2v2.467h2zm0-9.374v-4.933h-2v4.933h2zm0-11.84v-4.933h-2v4.933h2zm0-11.839v-4.934h-2v4.934h2zm0-11.84v-4.934h-2v4.934h2zm0-11.84v-4.933h-2v4.933h2zm0-11.84v-4.933h-2v4.933h2zm0-11.84v-4.933h-2v4.933h2zm0-11.84v-4.933h-2v4.933h2zm0-11.84v-4.933h-2v4.933h2zm0-11.84v-4.933h-2v4.933h2zm0-11.839v-4.934h-2v4.934h2zm0-11.84v-4.934h-2v4.934h2zm0-11.84v-4.933h-2v4.933h2zm0-11.84v-4.933h-2v4.933h2zm0-11.84v-4.933h-2v4.933h2zm0-11.84v-4.933h-2v4.933h2zm0-11.84v-4.933h-2v4.933h2zm0-11.84v-4.933h-2v4.933h2zm0-11.839v-4.934h-2v4.934h2zm0-11.84v-4.934h-2v4.934h2zm0-11.84v-4.933h-2v4.933h2zm0-11.84v-4.933h-2v4.933h2zm0-11.84v-4.933h-2v4.933h2zm0-11.84v-4.933h-2v4.933h2zm0-11.84v-4.933h-2v4.933h2zm0-11.84v-4.933h-2v4.933h2zm0-11.84v-4.933h-2v4.934h2zm0-11.84v-4.933h-2v4.934h2zm0-11.84v-4.932h-2v4.933h2zm0-11.839v-4.933h-2v4.933h2zm0-11.84v-4.933h-2v4.933h2zm0-11.84v-4.933h-2v4.933h2zm0-11.84v-4.933h-2v4.933h2zm0-11.84V9.373h-2v4.934h2zm0-11.84V0h-2v2.467h2zm-1-3.466h-2.458v2h2.458v-2zm-9.339 0h-4.916v2h4.916v-2zm-11.798 0h-4.915v2h4.915v-2zm-11.797 0h-4.915v2h4.915v-2zm-11.797 0H174.5v2h4.915v-2zm-11.797 0h-4.916v2h4.916v-2zm-11.797 0h-4.916v2h4.916v-2zm-11.797 0h-4.916v2h4.916v-2zm-11.797 0h-4.916v2h4.916v-2zm-11.798 0h-4.915v2h4.915v-2zm-11.797 0h-4.915v2h4.915v-2zM96.835-1H91.92v2h4.915v-2zM85.038-1h-4.916v2h4.916v-2zM73.24-1h-4.916v2h4.916v-2zM61.444-1h-4.916v2h4.916v-2zM49.645-1h-4.915v2h4.915v-2zM37.85-1h-4.915v2h4.915v-2zM26.052-1h-4.915v2h4.915v-2zM14.255-1H9.339v2h4.916v-2zM2.458-1H0v2h2.458v-2zM0 0v-2h-2v2h2zm224.146 0h2v-2h-2v2zm0 414.396v2h2v-2h-2zM0 414.396h-2v2h2v-2zM-2 0v2.467h4V0h-4zm0 9.373v4.934h4V9.372h-4zm0 11.84v4.933h4v-4.933h-4zm0 11.84v4.933h4v-4.933h-4zm0 11.84v4.933h4v-4.933h-4zm0 11.84v4.933h4v-4.933h-4zm0 11.84v4.933h4v-4.933h-4zm0 11.84v4.933h4v-4.934h-4zm0 11.84v4.933h4v-4.934h-4zm0 11.839v4.933h4v-4.933h-4zm0 11.84v4.933h4v-4.933h-4zm0 11.84v4.933h4v-4.933h-4zm0 11.84v4.933h4v-4.933h-4zm0 11.84v4.933h4v-4.933h-4zm0 11.84v4.933h4v-4.933h-4zm0 11.839v4.934h4v-4.934h-4zm0 11.84v4.934h4v-4.934h-4zm0 11.84v4.933h4v-4.933h-4zm0 11.84v4.933h4v-4.933h-4zm0 11.84v4.933h4v-4.933h-4zm0 11.84v4.933h4v-4.933h-4zm0 11.84v4.933h4v-4.933h-4zm0 11.84v4.933h4v-4.933h-4zm0 11.839v4.934h4v-4.934h-4zm0 11.84v4.934h4v-4.934h-4zm0 11.84v4.933h4v-4.933h-4zm0 11.84v4.933h4v-4.933h-4zm0 11.84v4.933h4v-4.933h-4zm0 11.84v4.933h4v-4.933h-4zm0 11.84v4.933h4v-4.933h-4zm0 11.84v4.933h4v-4.933h-4zm0 11.839v4.934h4v-4.934h-4zm0 11.84v4.934h4v-4.934h-4zm0 11.84v4.933h4v-4.933h-4zm0 11.84v4.933h4v-4.933h-4zm0 11.84v2.467h4v-2.467h-4zm2 4.467h2.458v-4H0v4zm9.34 0h4.915v-4H9.339v4zm11.797 0h4.915v-4h-4.915v4zm11.797 0h4.915v-4h-4.915v4zm11.797 0h4.915v-4h-4.915v4zm11.797 0h4.916v-4h-4.916v4zm11.797 0h4.916v-4h-4.916v4zm11.797 0h4.916v-4h-4.916v4zm11.797 0h4.916v-4H91.92v4zm11.798 0h4.915v-4h-4.915v4zm11.797 0h4.915v-4h-4.915v4zm11.797 0h4.916v-4h-4.916v4zm11.797 0h4.916v-4h-4.916v4zm11.797 0h4.916v-4h-4.916v4zm11.797 0h4.916v-4h-4.916v4zm11.798 0h4.915v-4H174.5v4zm11.797 0h4.915v-4h-4.915v4zm11.797 0h4.915v-4h-4.915v4zm11.797 0h4.916v-4h-4.916v4zm11.797 0h2.458v-4h-2.458v4zm4.458-2v-2.467h-4v2.467h4zm0-9.374v-4.933h-4v4.933h4zm0-11.84v-4.933h-4v4.933h4zm0-11.839v-4.934h-4v4.934h4zm0-11.84v-4.934h-4v4.934h4zm0-11.84v-4.933h-4v4.933h4zm0-11.84v-4.933h-4v4.933h4zm0-11.84v-4.933h-4v4.933h4zm0-11.84v-4.933h-4v4.933h4zm0-11.84v-4.933h-4v4.933h4zm0-11.84v-4.933h-4v4.933h4zm0-11.839v-4.934h-4v4.934h4zm0-11.84v-4.934h-4v4.934h4zm0-11.84v-4.933h-4v4.933h4zm0-11.84v-4.933h-4v4.933h4zm0-11.84v-4.933h-4v4.933h4zm0-11.84v-4.933h-4v4.933h4zm0-11.84v-4.933h-4v4.933h4zm0-11.84v-4.933h-4v4.933h4zm0-11.839v-4.934h-4v4.934h4zm0-11.84v-4.934h-4v4.934h4zm0-11.84v-4.933h-4v4.933h4zm0-11.84v-4.933h-4v4.933h4zm0-11.84v-4.933h-4v4.933h4zm0-11.84v-4.933h-4v4.933h4zm0-11.84v-4.933h-4v4.933h4zm0-11.84v-4.933h-4v4.933h4zm0-11.84v-4.933h-4v4.934h4zm0-11.84v-4.933h-4v4.934h4zm0-11.84v-4.932h-4v4.933h4zm0-11.839v-4.933h-4v4.933h4zm0-11.84v-4.933h-4v4.933h4zm0-11.84v-4.933h-4v4.933h4zm0-11.84v-4.933h-4v4.933h4zm0-11.84V9.373h-4v4.934h4zm0-11.84V0h-4v2.467h4zm-2-4.466h-2.458v4h2.458v-4zm-9.339 0h-4.916v4h4.916v-4zm-11.798 0h-4.915v4h4.915v-4zm-11.797 0h-4.915v4h4.915v-4zm-11.797 0H174.5v4h4.915v-4zm-11.797 0h-4.916v4h4.916v-4zm-11.797 0h-4.916v4h4.916v-4zm-11.797 0h-4.916v4h4.916v-4zm-11.797 0h-4.916v4h4.916v-4zm-11.798 0h-4.915v4h4.915v-4zm-11.797 0h-4.915v4h4.915v-4zM96.835-2H91.92v4h4.915v-4zM85.038-2h-4.916v4h4.916v-4zM73.24-2h-4.916v4h4.916v-4zM61.444-2h-4.916v4h4.916v-4zM49.645-2h-4.915v4h4.915v-4zM37.85-2h-4.915v4h4.915v-4zM26.052-2h-4.915v4h4.915v-4zM14.255-2H9.339v4h4.916v-4zM2.458-2H0v4h2.458v-4z"/><path id="O" d="M0 0h8.877v9.789H0V0z"/><path id="Q" d="M0 0v-1h-1v1h1zm8.877 0h1v-1h-1v1zm0 9.789v1h1v-1h-1zM0 9.789h-1v1h1v-1zM0 1h8.877v-2H0v2zm7.877-1v9.789h2V0h-2zm1 8.789H0v2h8.877v-2zM1 9.789V0h-2v9.789h2z"/><path id="Y" d="M0 31.814V0l21.453 18.89H7.88L0 31.814z"/><path id="Z" d="M0 0l.66-.75L-1-2.214V0h1zm0 31.814h-1v3.56l1.854-3.04-.854-.52zM7.88 18.89v-1h-.56l-.293.479.854.52zm13.573 0v1h2.649l-1.988-1.751-.661.75zM-1 0v31.814h2V0h-2zM.854 32.334l7.88-12.924-1.707-1.041-7.88 12.924 1.707 1.041zM7.88 19.89h13.572v-2H7.88v2zm14.233-1.75L.66-.751-.661.751 20.792 19.64l1.322-1.501z"/></defs></svg>