<svg width="33" height="33" viewBox="0 0 33 33" xmlns="http://www.w3.org/2000/svg" xmlns:xlink="http://www.w3.org/1999/xlink"><title>insta_icon</title><desc>Created using Figma</desc><use xlink:href="#a" fill="#FFF"/><use xlink:href="#b" transform="translate(9.11 9.03)" fill="#FFF"/><use xlink:href="#c" transform="translate(23.37 6.83)" fill="#FFF"/><defs><path id="a" d="M23.942 0H8.864C3.976 0 0 4 0 8.917v15.167C0 29 3.976 33 8.864 33h15.078c4.888 0 8.864-4 8.864-8.916V8.917C32.806 4 28.83 0 23.942 0zm6.214 24.084c0 3.446-2.788 6.25-6.214 6.25H8.864c-3.426 0-6.214-2.804-6.214-6.25V8.917c0-3.447 2.788-6.251 6.214-6.251h15.078c3.426 0 6.214 2.804 6.214 6.25v15.168z"/><path id="b" d="M14.635 6.314a7.365 7.365 0 0 0-2.075-4.147A7.29 7.29 0 0 0 8.437.08a7.309 7.309 0 0 0-2.158 0 7.301 7.301 0 0 0-4.83 2.912A7.384 7.384 0 0 0 .081 8.485a7.359 7.359 0 0 0 2.894 4.858 7.273 7.273 0 0 0 5.462 1.377 7.301 7.301 0 0 0 4.83-2.912 7.384 7.384 0 0 0 1.368-5.494zm-6.587 5.768a4.653 4.653 0 0 1-3.494-.88 4.707 4.707 0 0 1-1.851-3.108 4.724 4.724 0 0 1 .875-3.514 4.67 4.67 0 0 1 3.78-1.914 4.693 4.693 0 0 1 4.655 4.04c.38 2.581-1.398 4.994-3.965 5.376z"/><path id="c" d="M2.262.39A1.33 1.33 0 0 0 1.325 0 1.33 1.33 0 0 0 0 1.333a1.33 1.33 0 0 0 1.325 1.333 1.33 1.33 0 0 0 1.326-1.333c0-.35-.142-.694-.389-.943z"/></defs></svg>