<svg width="840" height="792" viewBox="0 0 840 792" version="1.1" xmlns="http://www.w3.org/2000/svg" xmlns:xlink="http://www.w3.org/1999/xlink">
<title>Map</title>
<desc>Created using Figma</desc>
<g id="Canvas" transform="matrix(1.5 0 0 1.5 -5955 -5655)">
<g id="Map">
<g id="Group" filter="url(#filter0_d)">
<g id="Vector 3">
<use xlink:href="#path0_fill" transform="translate(4124.54 3800.71)" fill="#E5E4DE"/>
</g>
<g id="Vector 3">
<use xlink:href="#path0_fill" transform="translate(4361.08 3800.71)" fill="#E5E4DE"/>
</g>
<g id="Vector 3">
<use xlink:href="#path1_fill" transform="matrix(-1 0 0 1 4125.24 3801.43)" fill="#F6F5F1"/>
</g>
<g id="Vector 3">
<use xlink:href="#path2_fill" transform="matrix(-1 0 0 1 4361.08 3800)" fill="#F6F5F1"/>
</g>
</g>
<g id="Ellipse">
<use xlink:href="#path3_fill" transform="translate(4068 4197.02)" fill="#219653"/>
</g>
<g id="Vector 4">
<use xlink:href="#path4_stroke" transform="translate(4073.5 4010.79)" fill="#219653"/>
</g>
<g id="Group">
<g id="Line 2">
<use xlink:href="#path5_stroke" transform="matrix(0.698933 0.715187 -0.698933 0.715187 4430 3997.49)" fill="#EB5757"/>
</g>
<g id="Line 2">
<use xlink:href="#path5_stroke" transform="matrix(-0.698933 0.715187 -0.698933 -0.715187 4455 3994.42)" fill="#EB5757"/>
</g>
</g>
<g id="tree">
<g id="Group">
<g id="Vector">
<use xlink:href="#path6_fill" transform="translate(4015 3928.67)" fill="url(#paint8_linear)"/>
</g>
<g id="Vector">
<use xlink:href="#path7_fill" transform="translate(4041.63 3928.67)" fill="url(#paint9_linear)"/>
</g>
</g>
<g id="Group">
<g id="Vector">
<use xlink:href="#path8_fill" transform="translate(4028.2 3877)" fill="url(#paint10_linear)"/>
</g>
<g id="Vector">
<use xlink:href="#path9_fill" transform="translate(4046.11 3877)" fill="url(#paint11_linear)"/>
</g>
</g>
<g id="Group">
<g id="Vector">
<use xlink:href="#path10_fill" transform="translate(4019.8 3900.37)" fill="url(#paint12_linear)"/>
</g>
<g id="Vector">
<use xlink:href="#path11_fill" transform="translate(4043.22 3900.37)" fill="url(#paint13_linear)"/>
</g>
</g>
</g>
<g id="tree">
<g id="Group">
<g id="Vector">
<use xlink:href="#path12_fill" transform="translate(4053.67 3983.98)" fill="url(#paint14_linear)"/>
</g>
<g id="Vector">
<use xlink:href="#path13_fill" transform="translate(4076.75 3983.98)" fill="url(#paint15_linear)"/>
</g>
</g>
<g id="Group">
<g id="Vector">
<use xlink:href="#path14_fill" transform="translate(4065.11 3938.92)" fill="url(#paint16_linear)"/>
</g>
<g id="Vector">
<use xlink:href="#path15_fill" transform="translate(4080.63 3938.92)" fill="url(#paint17_linear)"/>
</g>
</g>
<g id="Group">
<g id="Vector">
<use xlink:href="#path16_fill" transform="translate(4057.83 3959.3)" fill="url(#paint18_linear)"/>
</g>
<g id="Vector">
<use xlink:href="#path17_fill" transform="translate(4078.13 3959.3)" fill="url(#paint19_linear)"/>
</g>
</g>
</g>
<g id="Ellipse 2">
<use xlink:href="#path18_fill" transform="translate(4214 4127.44)" fill="#219653"/>
</g>
<g id="Green Crystal Group" opacity="0.6">
<g id="Group">
<g id="Vector 11">
<use xlink:href="#path19_fill" transform="matrix(0.995371 -0.0112812 0.0108715 1.00436 4318.03 3982.37)" fill="url(#paint21_linear)"/>
</g>
<g id="Vector 12">
<use xlink:href="#path20_fill" transform="matrix(0.995371 -0.0112812 0.0108715 1.00436 4323.24 3988.78)" fill="url(#paint22_linear)"/>
</g>
<g id="Vector 13">
<use xlink:href="#path21_fill" transform="matrix(0.995371 -0.0112812 0.0108715 1.00436 4299.09 3982.59)" fill="url(#paint23_linear)"/>
</g>
<g id="Vector 14">
<use xlink:href="#path22_fill" transform="matrix(0.995371 -0.0112812 0.0108715 1.00436 4302.88 3982.54)" fill="#249769"/>
</g>
<g id="Vector 10">
<use xlink:href="#path23_fill" transform="matrix(0.995371 -0.0112812 0.0108715 1.00436 4321.74 4005.5)" fill="url(#paint25_linear)"/>
</g>
<g id="Vector 15">
<use xlink:href="#path24_fill" transform="matrix(0.995371 -0.0112812 0.0108715 1.00436 4332.83 4010.76)" fill="url(#paint26_linear)"/>
</g>
</g>
<g id="Group">
<g id="Vector 16">
<use xlink:href="#path25_fill" transform="matrix(-0.857901 0.517117 0.445877 0.893962 4298.13 4035.95)" fill="#5CC689"/>
</g>
<g id="Vector 11">
<use xlink:href="#path26_fill" transform="matrix(0.96632 -0.251913 0.24216 0.971608 4290.05 4037.46)" fill="url(#paint28_linear)"/>
</g>
<g id="Vector 12">
<use xlink:href="#path27_fill" transform="matrix(0.96632 -0.251913 0.24216 0.971608 4294.7 4044.7)" fill="url(#paint29_linear)"/>
</g>
<g id="Vector 13">
<use xlink:href="#path28_fill" transform="matrix(0.96632 -0.251913 0.24216 0.971608 4280.2 4040.03)" fill="url(#paint30_linear)"/>
</g>
<g id="Vector 14">
<use xlink:href="#path29_fill" transform="matrix(0.96632 -0.251913 0.24216 0.971608 4282.19 4039.51)" fill="#249769"/>
</g>
<g id="Vector 10">
<use xlink:href="#path30_fill" transform="matrix(0.96632 -0.251913 0.24216 0.971608 4294.46 4047.06)" fill="url(#paint32_linear)"/>
</g>
<g id="Vector 15">
<use xlink:href="#path31_fill" transform="matrix(0.96632 -0.251913 0.24216 0.971608 4300.77 4048.61)" fill="url(#paint33_linear)"/>
</g>
</g>
</g>
</g>
</g>
<defs>
<filter id="filter0_d" filterUnits="userSpaceOnUse" x="3969" y="3770" width="562" height="528" color-interpolation-filters="sRGB">
<feFlood flood-opacity="0" result="BackgroundImageFix"/>
<feColorMatrix in="SourceAlpha" type="matrix" values="0 0 0 0 0 0 0 0 0 0 0 0 0 0 0 0 0 0 255 0"/>
<feOffset dx="7" dy="14"/>
<feGaussianBlur stdDeviation="22"/>
<feColorMatrix type="matrix" values="0 0 0 0 0 0 0 0 0 0.029392 0 0 0 0 0.382096 0 0 0 1 0"/>
<feBlend mode="normal" in2="BackgroundImageFix" result="effect1_dropShadow"/>
<feBlend mode="normal" in="SourceGraphic" in2="effect1_dropShadow" result="shape"/>
</filter>
<linearGradient id="paint8_linear" x1="0" y1="0" x2="1" y2="0" gradientUnits="userSpaceOnUse" gradientTransform="matrix(6.82535e-15 83.446 -111.466 5.10959e-15 90.4408 1.43255)">
<stop offset="0" stop-color="#1C8C4C"/>
<stop offset="1" stop-color="#219653" stop-opacity="0"/>
</linearGradient>
<linearGradient id="paint9_linear" x1="0" y1="0" x2="1" y2="0" gradientUnits="userSpaceOnUse" gradientTransform="matrix(6.82535e-15 83.446 -111.466 5.10959e-15 63.8076 1.43256)">
<stop offset="0" stop-color="#6FCF97"/>
<stop offset="0.994475" stop-color="#219653" stop-opacity="0"/>
</linearGradient>
<linearGradient id="paint10_linear" x1="0" y1="0" x2="1" y2="0" gradientUnits="userSpaceOnUse" gradientTransform="matrix(4.58946e-15 64.0962 -74.9515 3.92476e-15 60.8136 1.10036)">
<stop offset="0" stop-color="#1C8C4C"/>
<stop offset="1" stop-color="#219653" stop-opacity="0"/>
</linearGradient>
<linearGradient id="paint11_linear" x1="0" y1="0" x2="1" y2="0" gradientUnits="userSpaceOnUse" gradientTransform="matrix(4.58946e-15 64.0962 -74.9515 3.92476e-15 42.9051 1.10037)">
<stop offset="0" stop-color="#6FCF97"/>
<stop offset="0.994475" stop-color="#219653" stop-opacity="0"/>
</linearGradient>
<linearGradient id="paint12_linear" x1="0" y1="0" x2="1" y2="0" gradientUnits="userSpaceOnUse" gradientTransform="matrix(6.0016e-15 83.446 -98.0135 5.10959e-15 79.5255 1.43255)">
<stop offset="0" stop-color="#1C8C4C"/>
<stop offset="1" stop-color="#219653" stop-opacity="0"/>
</linearGradient>
<linearGradient id="paint13_linear" x1="0" y1="0" x2="1" y2="0" gradientUnits="userSpaceOnUse" gradientTransform="matrix(6.0016e-15 83.446 -98.0135 5.10959e-15 56.1067 1.43256)">
<stop offset="0" stop-color="#6FCF97"/>
<stop offset="0.994475" stop-color="#219653" stop-opacity="0"/>
</linearGradient>
<linearGradient id="paint14_linear" x1="0" y1="0" x2="1" y2="0" gradientUnits="userSpaceOnUse" gradientTransform="matrix(5.9153e-15 72.7727 -96.6042 4.45604e-15 78.382 1.24932)">
<stop offset="0" stop-color="#1C8C4C"/>
<stop offset="1" stop-color="#219653" stop-opacity="0"/>
</linearGradient>
<linearGradient id="paint15_linear" x1="0" y1="0" x2="1" y2="0" gradientUnits="userSpaceOnUse" gradientTransform="matrix(5.9153e-15 72.7727 -96.6042 4.45604e-15 55.3 1.24933)">
<stop offset="0" stop-color="#6FCF97"/>
<stop offset="0.994475" stop-color="#219653" stop-opacity="0"/>
</linearGradient>
<linearGradient id="paint16_linear" x1="0" y1="0" x2="1" y2="0" gradientUnits="userSpaceOnUse" gradientTransform="matrix(3.97753e-15 55.8978 -64.958 3.42276e-15 52.7052 0.95962)">
<stop offset="0" stop-color="#1C8C4C"/>
<stop offset="1" stop-color="#219653" stop-opacity="0"/>
</linearGradient>
<linearGradient id="paint17_linear" x1="0" y1="0" x2="1" y2="0" gradientUnits="userSpaceOnUse" gradientTransform="matrix(3.97753e-15 55.8978 -64.958 3.42276e-15 37.1844 0.959627)">
<stop offset="0" stop-color="#6FCF97"/>
<stop offset="0.994475" stop-color="#219653" stop-opacity="0"/>
</linearGradient>
<linearGradient id="paint18_linear" x1="0" y1="0" x2="1" y2="0" gradientUnits="userSpaceOnUse" gradientTransform="matrix(5.20139e-15 72.7727 -84.9451 4.45604e-15 68.9221 1.24932)">
<stop offset="0" stop-color="#1C8C4C"/>
<stop offset="1" stop-color="#219653" stop-opacity="0"/>
</linearGradient>
<linearGradient id="paint19_linear" x1="0" y1="0" x2="1" y2="0" gradientUnits="userSpaceOnUse" gradientTransform="matrix(5.20139e-15 72.7727 -84.9451 4.45604e-15 48.6258 1.24933)">
<stop offset="0" stop-color="#6FCF97"/>
<stop offset="0.994475" stop-color="#219653" stop-opacity="0"/>
</linearGradient>
<linearGradient id="paint21_linear" x1="0" y1="0" x2="1" y2="0" gradientUnits="userSpaceOnUse" gradientTransform="matrix(-3.30199 17.6852 -13.6393 -2.97355 15.2106 4.74459)">
<stop offset="0.0497238" stop-color="#34E580"/>
<stop offset="1" stop-color="#2D6DA9" stop-opacity="0.63"/>
</linearGradient>
<linearGradient id="paint22_linear" x1="0" y1="0" x2="1" y2="0" gradientUnits="userSpaceOnUse" gradientTransform="matrix(1.28684e-15 33.4363 -21.0157 2.04738e-15 20.8169 0)">
<stop offset="0.331492" stop-color="#88F8B7"/>
<stop offset="0.983425" stop-color="#143F8C"/>
</linearGradient>
<linearGradient id="paint23_linear" x1="0" y1="0" x2="1" y2="0" gradientUnits="userSpaceOnUse" gradientTransform="matrix(-8.93579 107.64 -31.9668 -3.09837 27.7323 15.1382)">
<stop offset="0.337017" stop-color="#067556"/>
<stop offset="0.950276" stop-color="#1C215D"/>
</linearGradient>
<linearGradient id="paint25_linear" x1="0" y1="0" x2="1" y2="0" gradientUnits="userSpaceOnUse" gradientTransform="matrix(0.294687 86.1485 -12.1029 0.0483415 11.6777 -0.0241707)">
<stop offset="0" stop-color="#74E2A3"/>
<stop offset="0.966851" stop-color="#1C215D"/>
</linearGradient>
<linearGradient id="paint26_linear" x1="0" y1="0" x2="1" y2="0" gradientUnits="userSpaceOnUse" gradientTransform="matrix(0.201333 80.0087 -12.0303 0.0353486 11.5587 -0.0176743)">
<stop offset="0.39779" stop-color="#7AE8A8"/>
<stop offset="1" stop-color="#1C215D"/>
</linearGradient>
<linearGradient id="paint28_linear" x1="0" y1="0" x2="1" y2="0" gradientUnits="userSpaceOnUse" gradientTransform="matrix(0.0893505 18.1174 -13.1047 0.085783 10.2982 -2.93528)">
<stop offset="0" stop-color="#34E580"/>
<stop offset="1" stop-color="#C4C4C4" stop-opacity="0"/>
</linearGradient>
<linearGradient id="paint29_linear" x1="0" y1="0" x2="1" y2="0" gradientUnits="userSpaceOnUse" gradientTransform="matrix(1.88974e-15 19.2497 -11.3475 0 11.3475 -7.35841)">
<stop offset="0.331492" stop-color="#B6FFD4"/>
<stop offset="1" stop-color="#1B8A57"/>
</linearGradient>
<linearGradient id="paint30_linear" x1="0" y1="0" x2="1" y2="0" gradientUnits="userSpaceOnUse" gradientTransform="matrix(-4.82493 61.9697 -17.2607 -1.78377 14.9742 5.82296)">
<stop offset="0.309392" stop-color="#067549"/>
<stop offset="0.977901" stop-color="#1C215D"/>
</linearGradient>
<linearGradient id="paint32_linear" x1="0" y1="0" x2="1" y2="0" gradientUnits="userSpaceOnUse" gradientTransform="matrix(-5.31707e-15 54.2492 -7.14804 5.25001e-15 6.61194 4.20001e-13)">
<stop offset="0" stop-color="#74E2A3"/>
<stop offset="1" stop-color="#222769"/>
</linearGradient>
<linearGradient id="paint33_linear" x1="0" y1="0" x2="1" y2="0" gradientUnits="userSpaceOnUse" gradientTransform="matrix(2.84096e-15 44.9846 -6.34389 3.06643e-15 6.39726 -8.52613e-06)">
<stop offset="0.475138" stop-color="#97FFC3"/>
<stop offset="1" stop-color="#22286A"/>
</linearGradient>
<path id="path0_fill" d="M 0 437.863L 0 72.4051L 117.92 0L 117.92 380.418L 0 437.863Z"/>
<path id="path1_fill" d="M 0 437.15L 0 72.2737L 118.241 0L 118.241 379.813L 0 437.15Z"/>
<path id="path2_fill" d="M 0 440L 0 72.7992L 118.617 0L 118.617 382.232L 0 440Z"/>
<path id="path3_fill" d="M 11 5.62791C 11 8.73611 8.53757 11.2558 5.5 11.2558C 2.46243 11.2558 0 8.73611 0 5.62791C 0 2.5197 2.46243 0 5.5 0C 8.53757 0 11 2.5197 11 5.62791Z"/>
<path id="path4_stroke" d="M 146.5 117.674L 145.048 117.297L 146.5 117.674ZM 169 60.8837L 168.98 62.3836L 169.081 62.3849L 169.182 62.3726L 169 60.8837ZM 287.5 136.605L 287.734 138.086L 287.5 136.605ZM -0.855517 192.581C -0.220148 193.021 0.528245 193.471 1.30414 193.883L 2.71158 191.234C 2.00432 190.859 1.40813 190.501 0.855517 190.117L -0.855517 192.581ZM 3.96113 195.142C 5.33159 195.725 6.86743 196.294 8.4768 196.824L 9.4145 193.974C 7.85705 193.462 6.44055 192.938 5.13718 192.382L 3.96113 195.142ZM 11.221 197.673C 12.6891 198.1 14.2376 198.512 15.8149 198.898L 16.5287 195.985C 14.98 195.605 13.4942 195.21 12.0601 194.792L 11.221 197.673ZM 18.5896 199.547C 20.1087 199.886 21.6681 200.208 23.2293 200.508L 23.7953 197.562C 22.2545 197.266 20.7386 196.953 19.2425 196.619L 18.5896 199.547ZM 26.0233 201.021C 27.5793 201.295 29.1475 201.55 30.6935 201.782L 31.1398 198.816C 29.6114 198.586 28.0797 198.337 26.5426 198.067L 26.0233 201.021ZM 33.5024 202.184C 35.0961 202.4 36.6744 202.594 38.2001 202.763L 38.529 199.781C 37.0218 199.615 35.4807 199.425 33.9057 199.211L 33.5024 202.184ZM 41.0279 203.051C 42.678 203.206 44.2718 203.329 45.7579 203.418L 45.9373 200.424C 44.4775 200.336 42.9338 200.217 41.3075 200.064L 41.0279 203.051ZM 48.6118 203.552C 49.4485 203.579 50.2547 203.593 51 203.593L 51 200.593C 50.2807 200.593 49.5229 200.58 48.7088 200.554L 48.6118 203.552ZM 51 203.593C 51.8161 203.593 52.6847 203.576 53.5737 203.542L 53.4565 200.544C 52.5972 200.577 51.7872 200.593 51 200.593L 51 203.593ZM 56.6497 203.356C 58.2607 203.227 59.985 203.037 61.7634 202.784L 61.3401 199.814C 59.6094 200.061 57.9764 200.24 56.4089 200.366L 56.6497 203.356ZM 64.8041 202.297C 66.4241 202.01 68.1173 201.664 69.8348 201.262L 69.151 198.341C 67.4752 198.733 65.8619 199.063 64.28 199.343L 64.8041 202.297ZM 72.8163 200.514C 74.4175 200.085 76.07 199.598 77.7294 199.06L 76.8035 196.206C 75.1829 196.732 73.6055 197.197 72.0402 197.616L 72.8163 200.514ZM 80.6443 198.063C 82.2118 197.5 83.8163 196.878 85.4163 196.208L 84.2576 193.441C 82.6948 194.096 81.1626 194.689 79.63 195.24L 80.6443 198.063ZM 88.2361 194.976C 89.7582 194.282 91.3073 193.528 92.8436 192.729L 91.4593 190.068C 89.9589 190.848 88.4799 191.568 86.9918 192.246L 88.2361 194.976ZM 95.5498 191.268C 97.0119 190.448 98.4929 189.568 99.9551 188.645L 98.3536 186.108C 96.9257 187.01 95.5121 187.85 94.0829 188.651L 95.5498 191.268ZM 102.53 186.962C 103.92 186.023 105.321 185.022 106.7 183.981L 104.892 181.587C 103.546 182.604 102.208 183.559 100.85 184.477L 102.53 186.962ZM 109.128 182.087C 110.434 181.035 111.746 179.922 113.032 178.771L 111.032 176.536C 109.776 177.66 108.522 178.723 107.246 179.751L 109.128 182.087ZM 115.302 176.676C 116.516 175.52 117.731 174.304 118.919 173.052L 116.742 170.988C 115.582 172.211 114.42 173.374 113.233 174.504L 115.302 176.676ZM 120.995 170.797C 122.112 169.546 123.227 168.236 124.313 166.894L 121.98 165.008C 120.918 166.321 119.851 167.575 118.758 168.798L 120.995 170.797ZM 126.208 164.48C 127.223 163.147 128.232 161.757 129.212 160.336L 126.743 158.632C 125.783 160.024 124.816 161.357 123.821 162.662L 126.208 164.48ZM 130.927 157.776C 131.839 156.374 132.742 154.916 133.616 153.431L 131.031 151.909C 130.173 153.366 129.306 154.767 128.412 156.141L 130.927 157.776ZM 135.133 150.775C 135.944 149.311 136.745 147.794 137.518 146.252L 134.835 144.908C 134.077 146.423 133.306 147.884 132.509 149.321L 135.133 150.775ZM 138.858 143.492C 139.57 141.982 140.268 140.422 140.941 138.838L 138.179 137.666C 137.518 139.223 136.844 140.729 136.144 142.213L 138.858 143.492ZM 142.11 135.994C 142.729 134.439 143.334 132.838 143.914 131.213L 141.088 130.205C 140.518 131.803 139.932 133.354 139.323 134.884L 142.11 135.994ZM 144.905 128.343C 145.435 126.755 145.951 125.123 146.442 123.471L 143.567 122.615C 143.082 124.244 142.582 125.829 142.06 127.393L 144.905 128.343ZM 147.283 120.543C 147.51 119.722 147.734 118.888 147.952 118.052L 145.048 117.297C 144.834 118.122 144.616 118.933 144.392 119.742L 147.283 120.543ZM 147.952 118.052C 148.16 117.25 148.367 116.461 148.573 115.681L 145.672 114.916C 145.466 115.698 145.258 116.492 145.048 117.297L 147.952 118.052ZM 149.307 112.926C 149.738 111.324 150.161 109.776 150.579 108.272L 147.688 107.469C 147.269 108.979 146.842 110.539 146.41 112.147L 149.307 112.926ZM 151.368 105.46C 151.822 103.861 152.267 102.323 152.705 100.838L 149.828 99.9891C 149.388 101.482 148.938 103.034 148.482 104.641L 151.368 105.46ZM 153.531 98.074C 154.016 96.4699 154.489 94.941 154.954 93.4746L 152.094 92.5686C 151.626 94.0443 151.147 95.592 150.659 97.2055L 153.531 98.074ZM 155.835 90.7346C 156.36 89.1283 156.869 87.6166 157.366 86.1824L 154.531 85.2004C 154.03 86.6472 153.513 88.1839 152.984 89.8028L 155.835 90.7346ZM 158.326 83.4655C 158.908 81.8513 159.465 80.3655 160.005 78.9812L 157.211 77.8909C 156.664 79.2932 156.092 80.8154 155.503 82.4479L 158.326 83.4655ZM 161.074 76.3175C 161.748 74.685 162.379 73.2502 162.979 71.9624L 160.26 70.6951C 159.646 72.0129 158.988 73.5087 158.301 75.1722L 161.074 76.3175ZM 164.228 69.4064C 165.108 67.6923 165.868 66.4045 166.549 65.3824L 164.052 63.7197C 163.327 64.8103 162.481 66.2437 161.56 68.0347L 164.228 69.4064ZM 168.167 63.2756C 168.725 62.6754 169.078 62.4509 169.215 62.3784C 169.274 62.3425 169.272 62.3528 169.251 62.3569C 169.274 62.3526 169.138 62.377 169.15 62.3751C 169.173 62.3727 169.062 62.3825 169.073 62.3818C 169.088 62.3811 169.021 62.3836 169.029 62.3834C 169.036 62.3833 169.001 62.3837 169.005 62.3837C 169.009 62.3837 168.991 62.3837 168.993 62.3837C 168.995 62.3837 168.985 62.3836 168.986 62.3837C 168.985 62.3836 168.984 62.3836 168.983 62.3836C 168.982 62.3836 168.98 62.3836 169 60.8837C 169.02 59.3839 169.018 59.3838 169.017 59.3838C 169.016 59.3838 169.015 59.3838 169.014 59.3838C 169.013 59.3838 169.009 59.3837 169.007 59.3837C 169.005 59.3837 168.999 59.3837 168.994 59.3837C 168.99 59.3838 168.977 59.3839 168.968 59.384C 168.958 59.3843 168.931 59.3852 168.912 59.3861C 168.89 59.3874 168.832 59.3921 168.789 59.397C 168.736 59.4038 168.609 59.4259 168.506 59.4509C 168.365 59.4883 168.079 59.5908 167.815 59.7252C 167.308 59.993 166.695 60.4536 165.97 61.2323L 168.167 63.2756ZM 169.182 62.3726C 169.98 62.2742 170.726 62.2353 171.523 62.2476L 171.566 59.2479C 170.67 59.2358 169.72 59.2855 168.818 59.3948L 169.182 62.3726ZM 174.329 62.5076C 175.872 62.7664 177.345 63.1949 178.902 63.8158L 180.01 61.0282C 178.319 60.3573 176.542 59.8421 174.83 59.5497L 174.329 62.5076ZM 181.548 65.0261C 182.955 65.75 184.329 66.5798 185.752 67.5469L 187.438 65.0656C 185.948 64.054 184.418 63.1308 182.922 62.3593L 181.548 65.0261ZM 188.162 69.2854C 189.449 70.2648 190.722 71.3128 192.023 72.4505L 193.998 70.1918C 192.663 69.025 191.311 67.9126 189.979 66.8986L 188.162 69.2854ZM 194.256 74.4654C 195.459 75.5824 196.658 76.7457 197.875 77.9664L 199.999 75.8482C 198.764 74.61 197.524 73.4069 196.298 72.2677L 194.256 74.4654ZM 200 80.1357C 201.151 81.3299 202.304 82.5556 203.47 83.8169L 205.673 81.7798C 204.497 80.5093 203.323 79.2612 202.16 78.0539L 200 80.1357ZM 205.532 86.0662C 206.658 87.3039 207.789 88.5626 208.932 89.8409L 211.169 87.8416C 210.023 86.5602 208.883 85.2919 207.752 84.0478L 205.532 86.0662ZM 210.957 92.1118C 212.076 93.3698 213.204 94.6406 214.342 95.9181L 216.583 93.9227C 215.446 92.647 214.318 91.3768 213.198 90.1176L 210.957 92.1118ZM 216.383 98.2031C 217.512 99.464 218.654 100.731 219.804 101.992L 222.021 99.9718C 220.877 98.716 219.744 97.4589 218.617 96.2014L 216.383 98.2031ZM 221.876 104.251C 223.031 105.5 224.202 106.748 225.38 107.98L 227.549 105.908C 226.38 104.685 225.227 103.455 224.079 102.214L 221.876 104.251ZM 227.517 110.19C 228.712 111.412 229.927 112.625 231.148 113.813L 233.24 111.662C 232.033 110.489 230.845 109.301 229.66 108.092L 227.517 110.19ZM 233.374 115.941C 234.626 117.116 235.901 118.276 237.181 119.399L 239.159 117.143C 237.899 116.039 236.662 114.913 235.428 113.754L 233.374 115.941ZM 239.531 121.412C 240.854 122.517 242.207 123.6 243.563 124.632L 245.38 122.245C 244.053 121.235 242.754 120.195 241.455 119.11L 239.531 121.412ZM 246.054 126.469C 247.463 127.473 248.91 128.445 250.357 129.353L 251.951 126.811C 250.543 125.929 249.171 125.007 247.795 124.026L 246.054 126.469ZM 253.032 130.956C 254.539 131.818 256.091 132.633 257.64 133.371L 258.929 130.661C 257.433 129.95 255.981 129.187 254.522 128.352L 253.032 130.956ZM 260.5 134.644C 262.103 135.309 263.762 135.913 265.412 136.426L 266.302 133.561C 264.72 133.07 263.192 132.513 261.65 131.873L 260.5 134.644ZM 268.44 137.268C 270.119 137.68 271.861 138.016 273.591 138.252L 273.996 135.28C 272.348 135.055 270.761 134.75 269.156 134.355L 268.44 137.268ZM 276.728 138.576C 278.441 138.696 280.219 138.725 281.981 138.656L 281.862 135.658C 280.184 135.725 278.57 135.699 276.938 135.583L 276.728 138.576ZM 285.107 138.431C 285.97 138.341 286.859 138.224 287.734 138.086L 287.266 135.123C 286.43 135.255 285.62 135.361 284.796 135.447L 285.107 138.431ZM 287.734 138.086C 288.604 137.949 289.473 137.798 290.318 137.638L 289.761 134.69C 288.938 134.846 288.114 134.989 287.266 135.123L 287.734 138.086ZM 293.323 137.012C 295.037 136.621 296.722 136.176 298.332 135.691L 297.467 132.819C 295.906 133.289 294.32 133.708 292.656 134.087L 293.323 137.012ZM 301.281 134.733C 302.932 134.155 304.554 133.517 306.093 132.841L 304.887 130.094C 303.4 130.747 301.887 131.343 300.291 131.901L 301.281 134.733ZM 308.917 131.517C 310.48 130.736 312.011 129.887 313.457 129.005L 311.894 126.444C 310.502 127.295 309.082 128.081 307.577 128.833L 308.917 131.517ZM 316.071 127.315C 317.505 126.333 318.906 125.281 320.224 124.2L 318.322 121.88C 317.053 122.921 315.757 123.896 314.377 124.839L 316.071 127.315ZM 322.58 122.165C 323.857 121.003 325.1 119.772 326.268 118.518L 324.073 116.473C 322.946 117.683 321.791 118.828 320.561 119.946L 322.58 122.165ZM 328.333 116.194C 329.441 114.886 330.516 113.514 331.527 112.126L 329.102 110.36C 328.122 111.706 327.115 112.991 326.044 114.254L 328.333 116.194ZM 333.301 109.582C 334.248 108.164 335.164 106.691 336.029 105.206L 333.436 103.697C 332.594 105.144 331.727 106.539 330.807 107.916L 333.301 109.582ZM 337.536 102.511C 338.341 101.016 339.118 99.4744 339.855 97.924L 337.145 96.6366C 336.423 98.1552 335.68 99.6295 334.894 101.09L 337.536 102.511ZM 341.138 95.126C 341.824 93.5773 342.486 91.9918 343.118 90.3996L 340.33 89.2933C 339.708 90.86 339.068 92.3913 338.395 93.9113L 341.138 95.126ZM 344.222 87.5312C 344.813 85.9471 345.385 84.3347 345.934 82.7177L 343.094 81.7529C 342.551 83.3505 341.994 84.9209 341.411 86.4824L 344.222 87.5312ZM 346.896 79.8128C 347.415 78.2043 347.919 76.5751 348.408 74.9432L 345.533 74.0833C 345.049 75.7014 344.554 77.2998 344.041 78.8914L 346.896 79.8128ZM 349.268 72.0088C 349.735 70.3855 350.191 68.7484 350.637 67.1103L 347.743 66.3222C 347.299 67.9515 346.848 69.568 346.385 71.1796L 349.268 72.0088ZM 351.428 64.1658C 351.861 62.5325 352.288 60.8919 352.71 59.2519L 349.804 58.505C 349.384 60.1409 348.96 61.7704 348.528 63.3967L 351.428 64.1658ZM 353.463 56.3029C 353.879 54.6651 354.293 53.0261 354.706 51.3895L 351.798 50.6546C 351.384 52.2916 350.971 53.9285 350.556 55.5639L 353.463 56.3029ZM 355.452 48.4435C 355.868 46.8051 356.285 45.1718 356.706 43.5426L 353.802 42.7909C 353.379 44.425 352.96 46.0653 352.544 47.7057L 355.452 48.4435ZM 357.473 40.609C 357.904 38.974 358.341 37.3507 358.787 35.7331L 355.896 34.9346C 355.446 36.5618 355.005 38.2016 354.572 39.8433L 357.473 40.609ZM 359.606 32.8194C 360.07 31.1941 360.543 29.5874 361.032 27.9884L 358.164 27.1108C 357.67 28.7247 357.189 30.3581 356.721 31.9952L 359.606 32.8194ZM 361.935 25.1068C 362.451 23.4973 362.98 21.9141 363.532 20.3408L 360.7 19.3484C 360.142 20.9424 359.6 22.5638 359.078 24.1906L 361.935 25.1068ZM 364.554 17.5077C 365.142 15.9254 365.748 14.378 366.383 12.8429L 363.611 11.6956C 362.965 13.2579 362.339 14.8562 361.742 16.4621L 364.554 17.5077ZM 367.564 10.0874C 368.247 8.54739 368.951 7.05179 369.694 5.57138L 367.013 4.22523C 366.253 5.73985 365.518 7.30029 364.821 8.87092L 367.564 10.0874ZM 371.081 2.9163C 371.479 2.18377 371.88 1.46939 372.296 0.754489L 369.704 -0.754489C 369.276 -0.020064 368.853 0.73251 368.445 1.48371L 371.081 2.9163Z"/>
<path id="path5_stroke" d="M 0 0L 35.7688 0L 35.7688 -5L 0 -5L 0 0Z"/>
<path id="path6_fill" d="M 32.1494 0L 0 49.0532L 69.4267 84.8785L 32.1494 0Z"/>
<path id="path7_fill" d="M 5.50313 0L 0 62.8322L 42.9763 84.8785L 5.50313 0Z"/>
<path id="path8_fill" d="M 21.6177 0L 0 37.6785L 46.6834 65.1966L 21.6177 0Z"/>
<path id="path9_fill" d="M 3.70038 0L 0 48.2624L 28.8978 65.1966L 3.70038 0Z"/>
<path id="path10_fill" d="M 28.2693 0L 0 49.0532L 61.0476 84.8785L 28.2693 0Z"/>
<path id="path11_fill" d="M 4.83896 0L 0 62.8322L 37.7895 84.8785L 4.83896 0Z"/>
<path id="path12_fill" d="M 27.8628 0L 0 42.7789L 60.1698 74.022L 27.8628 0Z"/>
<path id="path13_fill" d="M 4.76938 0L 0 54.7955L 37.2461 74.022L 4.76938 0Z"/>
<path id="path14_fill" d="M 18.7353 0L 0 32.8592L 40.459 56.8575L 18.7353 0Z"/>
<path id="path15_fill" d="M 3.207 0L 0 42.0893L 25.0448 56.8575L 3.207 0Z"/>
<path id="path16_fill" d="M 24.5 0L 0 42.7789L 52.9079 74.022L 24.5 0Z"/>
<path id="path17_fill" d="M 4.19377 0L 0 54.7955L 32.7509 74.022L 4.19377 0Z"/>
<path id="path18_fill" d="M 10 5.11628C 10 7.94192 7.76142 10.2326 5 10.2326C 2.23858 10.2326 0 7.94192 0 5.11628C 0 2.29064 2.23858 0 5 0C 7.76142 0 10 2.29064 10 5.11628Z"/>
<path id="path19_fill" d="M 5.16301 23.1149L 0 0L 13.4037 6.43692L 5.16301 23.1149Z"/>
<path id="path20_fill" d="M 0 16.678L 8.24056 0L 20.8169 22.1716L 10.3918 33.4363L 0 16.678Z"/>
<path id="path21_fill" d="M 22.5265 116.888L 24.1597 22.8868L 19.0299 0L 3.80599 21.9928L 0 106.03L 22.5265 116.888Z"/>
<path id="path22_fill" d="M 0 21.9928L 15.2239 0L 20.3538 23.0656L 0 21.9928Z"/>
<path id="path23_fill" d="M 0 93.8718L 1.65478 0L 12.0247 16.6485L 11.087 90.6533L 0 93.8718Z"/>
<path id="path24_fill" d="M 0.937658 11.2845L 11.418 0L 11.418 77.7795L 0 85.2893L 0.937658 11.2845Z"/>
<path id="path25_fill" d="M 0 7.79325L 0.982091 0L 7.36568 7.79325L 0 7.79325Z"/>
<path id="path26_fill" d="M 2.82917 10.3677L 0 0L 7.27532 0.856345L 2.82917 10.3677Z"/>
<path id="path27_fill" d="M 0 2.11203L 7.14055 0L 11.3475 5.4061L 4.89444 9.13857L 0 2.11203Z"/>
<path id="path28_fill" d="M 12.1235 64.393L 13.0452 10.2839L 10.1933 0L 2.05506 9.76922L 0 58.1509L 12.1235 64.393Z"/>
<path id="path29_fill" d="M 0 9.76922L 8.13813 -6.73465e-06L 10.9901 10.3869L 0 9.76922Z"/>
<path id="path30_fill" d="M 0 54.0433L 0.893505 0L 5.75435 6.90372L 5.98649 52.1904L 0 54.0433Z"/>
<path id="path31_fill" d="M 0 3.81554L 6.39728 0L 6.39728 44.7787L 0.232091 49.1022L 0 3.81554Z"/>
</defs>
</svg>
