<svg width="840" height="792" viewBox="0 0 840 792" xmlns="http://www.w3.org/2000/svg" xmlns:xlink="http://www.w3.org/1999/xlink"><title>Map</title><desc>Created using Figma</desc><g filter="url(#a)" transform="matrix(1.5 0 0 1.5 -5955 -5655)"><use xlink:href="#b" transform="translate(4124.54 3800.71)" fill="#E5E4DE"/><use xlink:href="#b" transform="translate(4361.08 3800.71)" fill="#E5E4DE"/><use xlink:href="#c" transform="matrix(-1 0 0 1 4125.24 3801.43)" fill="#F6F5F1"/><use xlink:href="#d" transform="matrix(-1 0 0 1 4361.08 3800)" fill="#F6F5F1"/></g><use xlink:href="#e" transform="matrix(1.5 0 0 1.5 147 640.53)" fill="#219653"/><use xlink:href="#f" transform="matrix(1.5 0 0 1.5 155.25 361.185)" fill="#219653"/><use xlink:href="#g" transform="scale(1.48266 1.51714) rotate(45 -38.812 674.223)" fill="#EB5757"/><use xlink:href="#g" transform="scale(-1.48266 -1.51714) rotate(-45 -513.174 481.351)" fill="#EB5757"/><use xlink:href="#h" transform="matrix(1.5 0 0 1.5 67.5 238.005)" fill="url(#i)"/><use xlink:href="#j" transform="matrix(1.5 0 0 1.5 107.445 238.005)" fill="url(#k)"/><use xlink:href="#l" transform="matrix(1.5 0 0 1.5 87.3 160.5)" fill="url(#m)"/><use xlink:href="#n" transform="matrix(1.5 0 0 1.5 114.165 160.5)" fill="url(#o)"/><g><use xlink:href="#p" transform="matrix(1.5 0 0 1.5 74.7 195.555)" fill="url(#q)"/><use xlink:href="#r" transform="matrix(1.5 0 0 1.5 109.83 195.555)" fill="url(#s)"/></g><g><use xlink:href="#t" transform="matrix(1.5 0 0 1.5 125.505 320.97)" fill="url(#u)"/><use xlink:href="#v" transform="matrix(1.5 0 0 1.5 160.125 320.97)" fill="url(#w)"/><use xlink:href="#x" transform="matrix(1.5 0 0 1.5 142.665 253.38)" fill="url(#y)"/><use xlink:href="#z" transform="matrix(1.5 0 0 1.5 165.945 253.38)" fill="url(#A)"/><g><use xlink:href="#B" transform="matrix(1.5 0 0 1.5 131.745 283.95)" fill="url(#C)"/><use xlink:href="#D" transform="matrix(1.5 0 0 1.5 162.195 283.95)" fill="url(#E)"/></g></g><g transform="matrix(1.5 0 0 1.5 -5955 -5655)"><use xlink:href="#F" transform="translate(4214 4127.44)" fill="#219653"/></g><g opacity=".6"><use xlink:href="#G" transform="matrix(1.49306 -.01692 .0163 1.50654 522.045 318.555)" fill="url(#H)"/><use xlink:href="#I" transform="matrix(1.49306 -.01692 .0163 1.50654 529.86 328.17)" fill="url(#J)"/><use xlink:href="#K" transform="matrix(1.49306 -.01692 .0163 1.50654 493.635 318.885)" fill="url(#L)"/><use xlink:href="#M" transform="matrix(1.49306 -.01692 .0163 1.50654 499.32 318.81)" fill="#249769"/><use xlink:href="#N" transform="matrix(1.49306 -.01692 .0163 1.50654 527.61 353.25)" fill="url(#O)"/><use xlink:href="#P" transform="matrix(1.49306 -.01692 .0163 1.50654 544.245 361.14)" fill="url(#Q)"/><g><use xlink:href="#R" transform="matrix(-1.28685 .77568 .66882 1.34094 492.195 398.925)" fill="#5CC689"/><use xlink:href="#S" transform="matrix(1.44948 -.37787 .36324 1.45741 480.075 401.19)" fill="url(#T)"/><use xlink:href="#U" transform="matrix(1.44948 -.37787 .36324 1.45741 487.05 412.05)" fill="url(#V)"/><use xlink:href="#W" transform="matrix(1.44948 -.37787 .36324 1.45741 465.3 405.045)" fill="url(#X)"/><use xlink:href="#Y" transform="matrix(1.44948 -.37787 .36324 1.45741 468.285 404.265)" fill="#249769"/><use xlink:href="#Z" transform="matrix(1.44948 -.37787 .36324 1.45741 486.69 415.59)" fill="url(#aa)"/><use xlink:href="#ab" transform="matrix(1.44948 -.37787 .36324 1.45741 496.155 417.915)" fill="url(#ac)"/></g></g><defs><filter id="a" filterUnits="userSpaceOnUse" x="3969" y="3770" width="562" height="528" color-interpolation-filters="sRGB"><feFlood flood-opacity="0" result="BackgroundImageFix"/><feColorMatrix in="SourceAlpha" values="0 0 0 0 0 0 0 0 0 0 0 0 0 0 0 0 0 0 255 0"/><feOffset dx="7" dy="14"/><feGaussianBlur stdDeviation="22"/><feColorMatrix values="0 0 0 0 0 0 0 0 0 0.029392 0 0 0 0 0.382096 0 0 0 1 0"/><feBlend in2="BackgroundImageFix" result="effect1_dropShadow"/><feBlend in="SourceGraphic" in2="effect1_dropShadow" result="shape"/></filter><linearGradient id="i" x2="1" gradientUnits="userSpaceOnUse" gradientTransform="matrix(0 83.446 -111.466 0 90.44 1.433)"><stop offset="0" stop-color="#1C8C4C"/><stop offset="1" stop-color="#219653" stop-opacity="0"/></linearGradient><linearGradient id="k" x2="1" gradientUnits="userSpaceOnUse" gradientTransform="matrix(0 83.446 -111.466 0 63.808 1.433)"><stop offset="0" stop-color="#6FCF97"/><stop offset=".994" stop-color="#219653" stop-opacity="0"/></linearGradient><linearGradient id="m" x2="1" gradientUnits="userSpaceOnUse" gradientTransform="matrix(0 64.0962 -74.9515 0 60.814 1.1)"><stop offset="0" stop-color="#1C8C4C"/><stop offset="1" stop-color="#219653" stop-opacity="0"/></linearGradient><linearGradient id="o" x2="1" gradientUnits="userSpaceOnUse" gradientTransform="matrix(0 64.0962 -74.9515 0 42.905 1.1)"><stop offset="0" stop-color="#6FCF97"/><stop offset=".994" stop-color="#219653" stop-opacity="0"/></linearGradient><linearGradient id="q" x2="1" gradientUnits="userSpaceOnUse" gradientTransform="matrix(0 83.446 -98.0135 0 79.525 1.433)"><stop offset="0" stop-color="#1C8C4C"/><stop offset="1" stop-color="#219653" stop-opacity="0"/></linearGradient><linearGradient id="s" x2="1" gradientUnits="userSpaceOnUse" gradientTransform="matrix(0 83.446 -98.0135 0 56.107 1.433)"><stop offset="0" stop-color="#6FCF97"/><stop offset=".994" stop-color="#219653" stop-opacity="0"/></linearGradient><linearGradient id="u" x2="1" gradientUnits="userSpaceOnUse" gradientTransform="matrix(0 72.7727 -96.6042 0 78.382 1.25)"><stop offset="0" stop-color="#1C8C4C"/><stop offset="1" stop-color="#219653" stop-opacity="0"/></linearGradient><linearGradient id="w" x2="1" gradientUnits="userSpaceOnUse" gradientTransform="matrix(0 72.7727 -96.6042 0 55.3 1.25)"><stop offset="0" stop-color="#6FCF97"/><stop offset=".994" stop-color="#219653" stop-opacity="0"/></linearGradient><linearGradient id="y" x2="1" gradientUnits="userSpaceOnUse" gradientTransform="matrix(0 55.8978 -64.958 0 52.705 .96)"><stop offset="0" stop-color="#1C8C4C"/><stop offset="1" stop-color="#219653" stop-opacity="0"/></linearGradient><linearGradient id="A" x2="1" gradientUnits="userSpaceOnUse" gradientTransform="matrix(0 55.8978 -64.958 0 37.184 .96)"><stop offset="0" stop-color="#6FCF97"/><stop offset=".994" stop-color="#219653" stop-opacity="0"/></linearGradient><linearGradient id="C" x2="1" gradientUnits="userSpaceOnUse" gradientTransform="matrix(0 72.7727 -84.9451 0 68.922 1.25)"><stop offset="0" stop-color="#1C8C4C"/><stop offset="1" stop-color="#219653" stop-opacity="0"/></linearGradient><linearGradient id="E" x2="1" gradientUnits="userSpaceOnUse" gradientTransform="matrix(0 72.7727 -84.9451 0 48.626 1.25)"><stop offset="0" stop-color="#6FCF97"/><stop offset=".994" stop-color="#219653" stop-opacity="0"/></linearGradient><linearGradient id="H" x2="1" gradientUnits="userSpaceOnUse" gradientTransform="matrix(-3.30199 17.6852 -13.6393 -2.97355 15.21 4.745)"><stop offset=".05" stop-color="#34E580"/><stop offset="1" stop-color="#2D6DA9" stop-opacity=".63"/></linearGradient><linearGradient id="J" x2="1" gradientUnits="userSpaceOnUse" gradientTransform="matrix(0 33.4363 -21.0157 0 20.817 0)"><stop offset=".331" stop-color="#88F8B7"/><stop offset=".983" stop-color="#143F8C"/></linearGradient><linearGradient id="L" x2="1" gradientUnits="userSpaceOnUse" gradientTransform="matrix(-8.93579 107.64 -31.9668 -3.09837 27.732 15.138)"><stop offset=".337" stop-color="#067556"/><stop offset=".95" stop-color="#1C215D"/></linearGradient><linearGradient id="O" x2="1" gradientUnits="userSpaceOnUse" gradientTransform="matrix(.29469 86.1485 -12.1029 .04834 11.678 -.024)"><stop offset="0" stop-color="#74E2A3"/><stop offset=".967" stop-color="#1C215D"/></linearGradient><linearGradient id="Q" x2="1" gradientUnits="userSpaceOnUse" gradientTransform="matrix(.20133 80.0087 -12.0303 .03535 11.559 -.018)"><stop offset=".398" stop-color="#7AE8A8"/><stop offset="1" stop-color="#1C215D"/></linearGradient><linearGradient id="T" x2="1" gradientUnits="userSpaceOnUse" gradientTransform="matrix(.08935 18.1174 -13.1047 .08578 10.298 -2.935)"><stop offset="0" stop-color="#34E580"/><stop offset="1" stop-color="#C4C4C4" stop-opacity="0"/></linearGradient><linearGradient id="V" x2="1" gradientUnits="userSpaceOnUse" gradientTransform="matrix(0 19.2497 -11.3475 0 11.348 -7.358)"><stop offset=".331" stop-color="#B6FFD4"/><stop offset="1" stop-color="#1B8A57"/></linearGradient><linearGradient id="X" x2="1" gradientUnits="userSpaceOnUse" gradientTransform="matrix(-4.82493 61.9697 -17.2607 -1.78377 14.974 5.823)"><stop offset=".309" stop-color="#067549"/><stop offset=".978" stop-color="#1C215D"/></linearGradient><linearGradient id="aa" x2="1" gradientUnits="userSpaceOnUse" gradientTransform="matrix(0 54.2492 -7.14804 0 6.612 0)"><stop offset="0" stop-color="#74E2A3"/><stop offset="1" stop-color="#222769"/></linearGradient><linearGradient id="ac" x2="1" gradientUnits="userSpaceOnUse" gradientTransform="matrix(0 44.9846 -6.34389 0 6.397 0)"><stop offset=".475" stop-color="#97FFC3"/><stop offset="1" stop-color="#22286A"/></linearGradient><path id="b" d="M0 437.863V72.405L117.92 0v380.418L0 437.863z"/><path id="c" d="M0 437.15V72.274L118.241 0v379.813L0 437.15z"/><path id="d" d="M0 440V72.8L118.617 0v382.232L0 440z"/><path id="e" d="M11 5.628c0 3.108-2.462 5.628-5.5 5.628S0 8.736 0 5.628 2.462 0 5.5 0 11 2.52 11 5.628z"/><path id="f" d="M146.5 117.674l-1.452-.377 1.452.377zm22.5-56.79l-.02 1.5h.101l.101-.011-.182-1.49zm118.5 75.721l.234 1.481-.234-1.481zM-.856 192.581c.636.44 1.384.89 2.16 1.302l1.408-2.649a17.868 17.868 0 0 1-1.856-1.117l-1.712 2.464zm4.817 2.561a58.136 58.136 0 0 0 4.516 1.682l.938-2.85a53.419 53.419 0 0 1-4.278-1.592l-1.176 2.76zm7.26 2.531a111.2 111.2 0 0 0 4.594 1.225l.714-2.913c-1.549-.38-3.035-.775-4.469-1.193l-.839 2.881zm7.369 1.874c1.519.339 3.078.661 4.64.961l.565-2.946c-1.54-.296-3.056-.609-4.553-.943l-.652 2.928zm7.433 1.474c1.556.274 3.125.529 4.67.761l.447-2.966c-1.529-.23-3.06-.479-4.597-.749l-.52 2.954zm7.48 1.163c1.593.216 3.171.41 4.697.579l.329-2.982a183.833 183.833 0 0 1-4.623-.57l-.404 2.973zm7.525.867c1.65.155 3.244.278 4.73.367l.18-2.994c-1.46-.088-3.004-.207-4.63-.36l-.28 2.987zm7.584.501c.837.027 1.643.041 2.388.041v-3c-.72 0-1.477-.013-2.291-.039l-.097 2.998zm2.388.041c.816 0 1.685-.017 2.574-.051l-.117-2.998c-.86.033-1.67.049-2.457.049v3zm5.65-.237a84.319 84.319 0 0 0 5.113-.572l-.423-2.97a80.35 80.35 0 0 1-4.931.552l.24 2.99zm8.154-1.059a94.545 94.545 0 0 0 5.03-1.035l-.683-2.921c-1.676.392-3.29.722-4.871 1.002l.524 2.954zm8.012-1.783a99.439 99.439 0 0 0 4.913-1.454l-.925-2.854c-1.621.526-3.198.991-4.764 1.41l.776 2.898zm7.828-2.451a99.35 99.35 0 0 0 4.772-1.855l-1.158-2.767a95.564 95.564 0 0 1-4.628 1.799l1.014 2.823zm7.592-3.087a99.377 99.377 0 0 0 4.608-2.247l-1.385-2.661c-1.5.78-2.98 1.5-4.467 2.178l1.244 2.73zm7.314-3.708c1.462-.82 2.943-1.7 4.405-2.623l-1.601-2.537a94.187 94.187 0 0 1-4.271 2.543l1.467 2.617zm6.98-4.306a98.008 98.008 0 0 0 4.17-2.981l-1.808-2.394a94.055 94.055 0 0 1-4.042 2.89l1.68 2.485zm6.598-4.875a98.942 98.942 0 0 0 3.904-3.316l-2-2.235a95.497 95.497 0 0 1-3.786 3.215l1.882 2.336zm6.174-5.411a101.365 101.365 0 0 0 3.617-3.624l-2.177-2.064a96.998 96.998 0 0 1-3.509 3.516l2.069 2.172zm5.693-5.879a105.964 105.964 0 0 0 3.318-3.903l-2.333-1.886a100.709 100.709 0 0 1-3.222 3.79l2.237 1.999zm5.213-6.317a109.18 109.18 0 0 0 3.004-4.144l-2.469-1.704a104.029 104.029 0 0 1-2.922 4.03l2.387 1.818zm4.719-6.704c.912-1.402 1.815-2.86 2.689-4.345l-2.585-1.522a111.144 111.144 0 0 1-2.619 4.232l2.515 1.635zm4.206-7.001a124.519 124.519 0 0 0 2.385-4.523l-2.683-1.344a117.05 117.05 0 0 1-2.326 4.413l2.624 1.454zm3.725-7.283c.712-1.51 1.41-3.07 2.083-4.654l-2.762-1.172a126.455 126.455 0 0 1-2.035 4.547l2.714 1.279zm3.252-7.498a142.225 142.225 0 0 0 1.804-4.781l-2.826-1.008a137.813 137.813 0 0 1-1.765 4.679l2.787 1.11zm2.795-7.651a154.12 154.12 0 0 0 1.537-4.872l-2.875-.856a152.573 152.573 0 0 1-1.507 4.778l2.845.95zm2.378-7.8c.227-.821.451-1.655.669-2.491l-2.904-.755a154.74 154.74 0 0 1-.656 2.445l2.891.801zm.669-2.491c.208-.802.415-1.591.621-2.371l-2.901-.765c-.206.782-.414 1.576-.624 2.381l2.904.755zm1.355-5.126a583.4 583.4 0 0 1 1.272-4.654l-2.891-.803c-.419 1.51-.846 3.07-1.278 4.678l2.897.779zm2.061-7.466c.454-1.599.899-3.137 1.337-4.622l-2.877-.849c-.44 1.493-.89 3.045-1.346 4.652l2.886.819zm2.163-7.386c.485-1.604.958-3.133 1.423-4.6l-2.86-.905a362.863 362.863 0 0 0-1.435 4.636l2.872.869zm2.304-7.34a271.289 271.289 0 0 1 1.531-4.552l-2.835-.982a277.568 277.568 0 0 0-1.547 4.603l2.851.932zm2.491-7.268a184.91 184.91 0 0 1 1.679-4.485l-2.794-1.09a190.162 190.162 0 0 0-1.708 4.557l2.823 1.018zm2.748-7.148a106.77 106.77 0 0 1 1.905-4.356l-2.719-1.267a110.727 110.727 0 0 0-1.959 4.477l2.773 1.145zm3.154-6.912c.88-1.714 1.64-3.002 2.321-4.024l-2.497-1.662c-.725 1.09-1.571 2.524-2.492 4.315l2.668 1.371zm3.939-6.13c.558-.6.911-.825 1.048-.898.059-.035.057-.025.036-.021a8.48 8.48 0 0 0-.101.018 3.006 3.006 0 0 0-.077.007 2.597 2.597 0 0 0-.068.002h-.012-.01c-.001 0-.003 0 .017-1.5s.018-1.5.017-1.5h-.049l-.056.002c-.022.001-.08.006-.123.011-.053.007-.18.029-.283.054a4.03 4.03 0 0 0-.691.274c-.507.268-1.12.729-1.845 1.507l2.197 2.044zm1.015-.903a16.601 16.601 0 0 1 2.341-.125l.043-3a20.901 20.901 0 0 0-2.748.147l.364 2.978zm5.147.135c1.543.258 3.016.687 4.573 1.308l1.108-2.788c-1.691-.67-3.468-1.186-5.18-1.478l-.501 2.958zm7.219 2.518a39.997 39.997 0 0 1 4.204 2.52l1.686-2.48a44.227 44.227 0 0 0-4.516-2.707l-1.374 2.667zm6.614 4.26c1.287.979 2.56 2.027 3.861 3.165l1.975-2.26a77.393 77.393 0 0 0-4.019-3.292l-1.817 2.386zm6.094 5.18a130.42 130.42 0 0 1 3.619 3.5l2.124-2.118a136.203 136.203 0 0 0-3.701-3.58l-2.042 2.197zm5.744 5.67a242.956 242.956 0 0 1 3.47 3.68l2.203-2.036a257.86 257.86 0 0 0-3.513-3.726L200 80.136zm5.532 5.93a591.611 591.611 0 0 1 3.4 3.775l2.237-2a628.883 628.883 0 0 0-3.417-3.793l-2.22 2.018zm5.425 6.046c1.119 1.258 2.247 2.529 3.385 3.806l2.241-1.995c-1.137-1.276-2.265-2.546-3.385-3.805l-2.241 1.994zm5.426 6.091a559.7 559.7 0 0 0 3.421 3.789l2.217-2.02a625.191 625.191 0 0 1-3.404-3.77l-2.234 2.001zm5.493 6.048a307.296 307.296 0 0 0 3.504 3.729l2.169-2.072a309.892 309.892 0 0 1-3.47-3.694l-2.203 2.037zm5.641 5.939a206.69 206.69 0 0 0 3.631 3.623l2.092-2.151a207.691 207.691 0 0 1-3.58-3.57l-2.143 2.098zm5.857 5.751a153.837 153.837 0 0 0 3.807 3.458l1.978-2.256a145.534 145.534 0 0 1-3.731-3.389l-2.054 2.187zm6.157 5.471a114.332 114.332 0 0 0 4.032 3.22l1.817-2.387a110.577 110.577 0 0 1-3.925-3.135l-1.924 2.302zm6.523 5.057a88.663 88.663 0 0 0 4.303 2.884l1.594-2.542a83.4 83.4 0 0 1-4.156-2.785l-1.741 2.443zm6.978 4.487a69.785 69.785 0 0 0 4.608 2.415l1.289-2.71a64.987 64.987 0 0 1-4.407-2.309l-1.49 2.604zm7.468 3.688a57.3 57.3 0 0 0 4.912 1.782l.89-2.865a53.139 53.139 0 0 1-4.652-1.688l-1.15 2.771zm7.94 2.624a50.28 50.28 0 0 0 5.151.984l.405-2.972a46.27 46.27 0 0 1-4.84-.925l-.716 2.913zm8.288 1.308c1.713.12 3.491.149 5.253.08l-.119-2.998a44.043 44.043 0 0 1-4.924-.075l-.21 2.993zm8.379-.145c.863-.09 1.752-.207 2.627-.345l-.468-2.963a46.97 46.97 0 0 1-2.47.324l.311 2.984zm2.627-.345c.87-.137 1.739-.288 2.584-.448l-.557-2.948a82.37 82.37 0 0 1-2.495.433l.468 2.963zm5.589-1.074a76.197 76.197 0 0 0 5.009-1.321l-.865-2.872c-1.561.47-3.147.889-4.811 1.268l.667 2.925zm7.958-2.279a67.436 67.436 0 0 0 4.812-1.892l-1.206-2.747c-1.487.653-3 1.249-4.596 1.807l.99 2.832zm7.636-3.216a61.905 61.905 0 0 0 4.54-2.512l-1.563-2.561a57.437 57.437 0 0 1-4.317 2.389l1.34 2.684zm7.154-4.202a60.4 60.4 0 0 0 4.153-3.115l-1.902-2.32a55.93 55.93 0 0 1-3.945 2.959l1.694 2.476zm6.509-5.15a63.15 63.15 0 0 0 3.688-3.647l-2.195-2.045a59.021 59.021 0 0 1-3.512 3.473l2.019 2.219zm5.753-5.971a70.962 70.962 0 0 0 3.194-4.068l-2.425-1.766a66.55 66.55 0 0 1-3.058 3.894l2.289 1.94zm4.968-6.612a84.412 84.412 0 0 0 2.728-4.376l-2.593-1.509a79.822 79.822 0 0 1-2.629 4.219l2.494 1.666zm4.235-7.071a102.793 102.793 0 0 0 2.319-4.587l-2.71-1.287a99.62 99.62 0 0 1-2.251 4.453l2.642 1.421zm3.602-7.385a131.411 131.411 0 0 0 1.98-4.726l-2.788-1.107a128.407 128.407 0 0 1-1.935 4.618l2.743 1.215zm3.084-7.595a171.962 171.962 0 0 0 1.712-4.813l-2.84-.965c-.543 1.597-1.1 3.168-1.683 4.73l2.811 1.048zm2.674-7.718a243.515 243.515 0 0 0 1.512-4.87l-2.875-.86a237.635 237.635 0 0 1-1.492 4.808l2.855.922zm2.372-7.804c.467-1.624.923-3.26 1.369-4.899l-2.894-.788c-.444 1.63-.895 3.246-1.358 4.858l2.883.829zm2.16-7.843c.433-1.633.86-3.274 1.282-4.914l-2.906-.747c-.42 1.636-.844 3.265-1.276 4.892l2.9.769zm2.035-7.863c.416-1.638.83-3.277 1.243-4.913l-2.908-.735c-.414 1.637-.827 3.273-1.242 4.909l2.907.739zm1.989-7.86c.416-1.638.833-3.271 1.254-4.9l-2.904-.752a1028.25 1028.25 0 0 0-1.258 4.915l2.908.737zm2.021-7.834c.431-1.635.868-3.258 1.314-4.876l-2.891-.798c-.45 1.627-.891 3.267-1.324 4.908l2.901.766zm2.133-7.79a269.15 269.15 0 0 1 1.426-4.83l-2.868-.878a274.43 274.43 0 0 0-1.443 4.884l2.885.824zm2.329-7.712c.516-1.61 1.045-3.193 1.597-4.766l-2.832-.993a195.11 195.11 0 0 0-1.622 4.843l2.857.916zm2.619-7.6a137.23 137.23 0 0 1 1.829-4.664l-2.772-1.147a142.004 142.004 0 0 0-1.869 4.766l2.812 1.046zm3.01-7.42c.683-1.54 1.387-3.035 2.13-4.516l-2.681-1.346a108.769 108.769 0 0 0-2.192 4.646l2.743 1.216zm3.517-7.17c.398-.733.799-1.448 1.215-2.163l-2.592-1.508a85.686 85.686 0 0 0-1.259 2.238l2.636 1.432z"/><path id="g" d="M0 0h35.769v-5H0v5z"/><path id="h" d="M32.15 0L0 49.053 69.427 84.88 32.149 0z"/><path id="j" d="M5.503 0L0 62.832 42.976 84.88 5.503 0z"/><path id="l" d="M21.618 0L0 37.678l46.683 27.519L21.618 0z"/><path id="n" d="M3.7 0L0 48.262l28.898 16.935L3.7 0z"/><path id="p" d="M28.27 0L0 49.053 61.048 84.88 28.269 0z"/><path id="r" d="M4.839 0L0 62.832 37.79 84.88 4.838 0z"/><path id="t" d="M27.863 0L0 42.779l60.17 31.243L27.863 0z"/><path id="v" d="M4.77 0L0 54.795l37.246 19.227L4.77 0z"/><path id="x" d="M18.735 0L0 32.86l40.459 23.998L18.735 0z"/><path id="z" d="M3.207 0L0 42.09l25.045 14.767L3.207 0z"/><path id="B" d="M24.5 0L0 42.779l52.908 31.243L24.5 0z"/><path id="D" d="M4.194 0L0 54.795l32.75 19.227L4.195 0z"/><path id="F" d="M10 5.116c0 2.826-2.239 5.117-5 5.117S0 7.942 0 5.116C0 2.291 2.239 0 5 0s5 2.29 5 5.116z"/><path id="G" d="M5.163 23.115L0 0l13.404 6.437-8.241 16.678z"/><path id="I" d="M0 16.678L8.24 0l12.577 22.172-10.425 11.264L0 16.678z"/><path id="K" d="M22.526 116.888l1.634-94.001L19.03 0 3.806 21.993 0 106.03l22.526 10.858z"/><path id="M" d="M0 21.993L15.224 0l5.13 23.066L0 21.993z"/><path id="N" d="M0 93.872L1.655 0l10.37 16.648-.938 74.005L0 93.872z"/><path id="P" d="M.938 11.284L11.418 0v77.78L0 85.29l.938-74.006z"/><path id="R" d="M0 7.793L.982 0l6.384 7.793H0z"/><path id="S" d="M2.83 10.368L0 0l7.275.856-4.446 9.512z"/><path id="U" d="M0 2.112L7.14 0l4.208 5.406L4.894 9.14 0 2.112z"/><path id="W" d="M12.123 64.393l.922-54.11L10.193 0 2.055 9.77 0 58.15l12.123 6.243z"/><path id="Y" d="M0 9.77L8.138 0l2.852 10.387L0 9.769z"/><path id="Z" d="M0 54.043L.894 0l4.86 6.904.232 45.286L0 54.043z"/><path id="ab" d="M0 3.816L6.397 0v44.779L.232 49.102 0 3.816z"/></defs></svg>