<svg width="44" height="33" viewBox="0 0 44 33" xmlns="http://www.w3.org/2000/svg" xmlns:xlink="http://www.w3.org/1999/xlink"><title>medium_icon</title><desc>Created using Figma</desc><use xlink:href="#a" fill="#FFF"/><defs><path id="a" d="M43.746 4.715h-2.413c-.629 0-2.274.687-2.274 1.271V27.22c0 .586 1.645 1.067 2.274 1.067h2.413V33H28.123v-4.714h3.125v-22h-.544L23.184 33H17.36L9.937 6.285h-.563v22h3.124V33H0v-4.714h1.733c.681 0 1.391-.48 1.391-1.067V5.986c0-.585-.71-1.271-1.39-1.271H0V0h16.198l5.288 18.857h.143L26.969 0h16.777v4.715z"/></defs></svg>