<svg xmlns="http://www.w3.org/2000/svg" width="1920" height="1396" viewBox="0 0 1920 1396"><linearGradient id="a" gradientUnits="userSpaceOnUse" x1="2269" y1="1396" x2="2269" gradientTransform="matrix(-1 0 0 1 3229 0)"><stop offset="0" stop-color="#3c4558" stop-opacity="0"/><stop offset="1" stop-color="#3c4558"/></linearGradient><path fill="url(#a)" d="M.006 767.539l.001-.001V767H0L790 0l371 370 183-178 576 575h.001l-.001 629H0l.007-628.461z"/><path opacity=".8" fill="#FFF" d="M790 0L513.988 267.977l167.971-86.113 108.634 59.996 116.355-49.975 124.954 49.425z"/><linearGradient id="b" gradientUnits="userSpaceOnUse" x1="2253.787" y1="728" x2="2253.787" gradientTransform="matrix(-1 0 0 1 3229 0)"><stop offset="0" stop-color="#3c4558" stop-opacity="0"/><stop offset="1" stop-color="#3c4558"/></linearGradient><path opacity=".6" fill="url(#b)" d="M790 0l370.426 369.672L790 728z"/><path opacity=".8" fill="#FFF" d="M1648.611 496.146l-213.69-75.794L1344.003 482l-93.82-76.647-218.281 88.957L1344 192z"/><linearGradient id="c" gradientUnits="userSpaceOnUse" x1="1597" y1="990" x2="1597" y2="192" gradientTransform="matrix(-1 0 0 1 3229 0)"><stop offset="0" stop-color="#3c4558" stop-opacity="0"/><stop offset="1" stop-color="#3c4558"/></linearGradient><path opacity=".6" fill="url(#c)" d="M1344 192v798h576V767z"/><linearGradient id="d" gradientUnits="userSpaceOnUse" x1="2637.776" y1="825" x2="2637.776" y2="641.479" gradientTransform="matrix(-1 0 0 1 3229 0)"><stop offset="0" stop-color="#54b27b" stop-opacity="0"/><stop offset=".021" stop-color="#54b27b" stop-opacity=".021"/><stop offset="1" stop-color="#54b27b"/></linearGradient><path fill="url(#d)" d="M648.429 825l-57.205-183.521L534.019 825z"/><linearGradient id="e" gradientUnits="userSpaceOnUse" x1="2782.775" y1="957.238" x2="2782.775" y2="802.404" gradientTransform="matrix(-1 0 0 1 3229 0)"><stop offset="0" stop-color="#54b27b" stop-opacity="0"/><stop offset=".021" stop-color="#54b27b" stop-opacity=".021"/><stop offset="1" stop-color="#54b27b"/></linearGradient><path fill="url(#e)" d="M494.487 957.238l-48.263-154.834-48.263 154.834z"/><linearGradient id="f" gradientUnits="userSpaceOnUse" x1="2845.776" y1="624.279" x2="2845.776" y2="477.266" gradientTransform="matrix(-1 0 0 1 3229 0)"><stop offset="0" stop-color="#54b27b" stop-opacity="0"/><stop offset=".021" stop-color="#54b27b" stop-opacity=".021"/><stop offset="1" stop-color="#54b27b"/></linearGradient><path fill="url(#f)" d="M429.049 624.279l-45.825-147.013-45.826 147.013z"/><linearGradient id="g" gradientUnits="userSpaceOnUse" x1="2352.776" y1="802.479" x2="2352.776" y2="674.266" gradientTransform="matrix(-1 0 0 1 3229 0)"><stop offset="0" stop-color="#54b27b" stop-opacity="0"/><stop offset=".021" stop-color="#54b27b" stop-opacity=".021"/><stop offset="1" stop-color="#54b27b"/></linearGradient><path fill="url(#g)" d="M916.188 802.479l-39.964-128.213-39.965 128.213z"/><linearGradient id="h" gradientUnits="userSpaceOnUse" x1="3095.775" y1="1034.308" x2="3095.775" y2="871.17" gradientTransform="matrix(-1 0 0 1 3229 0)"><stop offset="0" stop-color="#54b27b" stop-opacity="0"/><stop offset=".021" stop-color="#54b27b" stop-opacity=".021"/><stop offset="1" stop-color="#54b27b"/></linearGradient><path fill="url(#h)" d="M184.076 1034.308L133.224 871.17l-50.852 163.138z"/><linearGradient id="i" gradientUnits="userSpaceOnUse" x1="2975.776" y1="838.414" x2="2975.776" y2="721.084" gradientTransform="matrix(-1 0 0 1 3229 0)"><stop offset="0" stop-color="#54b27b" stop-opacity="0"/><stop offset=".021" stop-color="#54b27b" stop-opacity=".021"/><stop offset="1" stop-color="#54b27b"/></linearGradient><path fill="url(#i)" d="M289.797 838.414l-36.573-117.33-36.574 117.33z"/><linearGradient id="j" gradientUnits="userSpaceOnUse" x1="2067.776" y1="733.303" x2="2067.776" y2="598.147" gradientTransform="matrix(-1 0 0 1 3229 0)"><stop offset="0" stop-color="#54b27b" stop-opacity="0"/><stop offset=".021" stop-color="#54b27b" stop-opacity=".021"/><stop offset="1" stop-color="#54b27b"/></linearGradient><path fill="url(#j)" d="M1203.354 733.303l-42.13-135.157-42.13 135.157z"/><linearGradient id="k" gradientUnits="userSpaceOnUse" x1="2307.776" y1="570.242" x2="2307.776" y2="462.203" gradientTransform="matrix(-1 0 0 1 3229 0)"><stop offset="0" stop-color="#54b27b" stop-opacity="0"/><stop offset=".021" stop-color="#54b27b" stop-opacity=".021"/><stop offset="1" stop-color="#54b27b"/></linearGradient><path fill="url(#k)" d="M954.9 570.242l-33.676-108.039-33.677 108.039z"/><linearGradient id="l" gradientUnits="userSpaceOnUse" x1="2498.776" y1="624.239" x2="2498.776" y2="534.163" gradientTransform="matrix(-1 0 0 1 3229 0)"><stop offset="0" stop-color="#54b27b" stop-opacity="0"/><stop offset=".021" stop-color="#54b27b" stop-opacity=".021"/><stop offset="1" stop-color="#54b27b"/></linearGradient><path fill="url(#l)" d="M758.301 624.239l-28.077-90.076-28.078 90.076z"/><linearGradient id="m" gradientUnits="userSpaceOnUse" x1="1654.776" y1="825" x2="1654.776" y2="726.291" gradientTransform="matrix(-1 0 0 1 3229 0)"><stop offset="0" stop-color="#54b27b" stop-opacity="0"/><stop offset=".021" stop-color="#54b27b" stop-opacity=".021"/><stop offset="1" stop-color="#54b27b"/></linearGradient><path fill="url(#m)" d="M1604.992 825l-30.768-98.709L1543.455 825z"/><linearGradient id="n" gradientUnits="userSpaceOnUse" x1="1492.776" y1="970" x2="1492.776" y2="871.291" gradientTransform="matrix(-1 0 0 1 3229 0)"><stop offset="0" stop-color="#54b27b" stop-opacity="0"/><stop offset=".021" stop-color="#54b27b" stop-opacity=".021"/><stop offset="1" stop-color="#54b27b"/></linearGradient><path fill="url(#n)" d="M1766.992 970l-30.768-98.709L1705.455 970z"/><linearGradient id="o" gradientUnits="userSpaceOnUse" x1="2588.776" y1="394" x2="2588.776" y2="295.291" gradientTransform="matrix(-1 0 0 1 3229 0)"><stop offset="0" stop-color="#54b27b" stop-opacity="0"/><stop offset=".021" stop-color="#54b27b" stop-opacity=".021"/><stop offset="1" stop-color="#54b27b"/></linearGradient><path fill="url(#o)" d="M670.992 394l-30.768-98.709L609.455 394z"/><linearGradient id="p" gradientUnits="userSpaceOnUse" x1="1716.776" y1="726" x2="1716.776" y2="588.278" gradientTransform="matrix(-1 0 0 1 3229 0)"><stop offset="0" stop-color="#54b27b" stop-opacity="0"/><stop offset=".021" stop-color="#54b27b" stop-opacity=".021"/><stop offset="1" stop-color="#54b27b"/></linearGradient><path fill="url(#p)" d="M1555.153 726l-42.929-137.723L1469.294 726z"/><linearGradient id="q" gradientUnits="userSpaceOnUse" x1="1804.776" y1="894" x2="1804.776" y2="783" gradientTransform="matrix(-1 0 0 1 3229 0)"><stop offset="0" stop-color="#54b27b" stop-opacity="0"/><stop offset=".021" stop-color="#54b27b" stop-opacity=".021"/><stop offset="1" stop-color="#54b27b"/></linearGradient><path fill="url(#q)" d="M1458.823 894l-34.599-111-34.6 111z"/><linearGradient id="r" gradientUnits="userSpaceOnUse" x1="1966.776" y1="553" x2="1966.776" y2="447.31" gradientTransform="matrix(-1 0 0 1 3229 0)"><stop offset="0" stop-color="#54b27b" stop-opacity="0"/><stop offset=".021" stop-color="#54b27b" stop-opacity=".021"/><stop offset="1" stop-color="#54b27b"/></linearGradient><path fill="url(#r)" d="M1295.168 553l-32.944-105.69L1229.279 553z"/></svg>