<?xml version="1.0" encoding="utf-8"?>
<!-- Generator: Adobe Illustrator 15.0.0, SVG Export Plug-In . SVG Version: 6.00 Build 0)  -->
<!DOCTYPE svg PUBLIC "-//W3C//DTD SVG 1.1//EN" "http://www.w3.org/Graphics/SVG/1.1/DTD/svg11.dtd">
<svg version="1.1" id="Layer_1" xmlns="http://www.w3.org/2000/svg" xmlns:xlink="http://www.w3.org/1999/xlink" x="0px" y="0px"
	 width="1920px" height="1396px" viewBox="0 0 1920 1396" enable-background="new 0 0 1920 1396" xml:space="preserve">
<linearGradient id="SVGID_1_" gradientUnits="userSpaceOnUse" x1="2269" y1="1396" x2="2269" y2="4.882813e-004" gradientTransform="matrix(-1 0 0 1 3229 0)">
	<stop  offset="0" style="stop-color:#3C4558;stop-opacity:0"/>
	<stop  offset="1" style="stop-color:#3C4558"/>
</linearGradient>
<polygon fill="url(#SVGID_1_)" points="0.006,767.539 0.007,767.538 0.007,767 0,767 790,0 1161,370 1344,192 1920,767 
	1920.001,767 1920,1396 0,1396 0.007,767.539 "/>
<polygon opacity="0.8" fill="#FFFFFF" points="790,0 513.988,267.977 681.959,181.864 790.593,241.86 906.948,191.885 
	1031.902,241.31 "/>
<linearGradient id="SVGID_2_" gradientUnits="userSpaceOnUse" x1="2253.7871" y1="728" x2="2253.7871" y2="4.882813e-004" gradientTransform="matrix(-1 0 0 1 3229 0)">
	<stop  offset="0" style="stop-color:#3C4558;stop-opacity:0"/>
	<stop  offset="1" style="stop-color:#3C4558"/>
</linearGradient>
<polygon opacity="0.6" fill="url(#SVGID_2_)" points="790,0 1160.426,369.672 790,728 "/>
<polygon opacity="0.8" fill="#FFFFFF" points="1648.611,496.146 1434.921,420.352 1344.003,482 1250.183,405.353 1031.902,494.31 
	1344,192 "/>
<linearGradient id="SVGID_3_" gradientUnits="userSpaceOnUse" x1="1597" y1="990" x2="1597" y2="192.0005" gradientTransform="matrix(-1 0 0 1 3229 0)">
	<stop  offset="0" style="stop-color:#3C4558;stop-opacity:0"/>
	<stop  offset="1" style="stop-color:#3C4558"/>
</linearGradient>
<polygon opacity="0.6" fill="url(#SVGID_3_)" points="1344,192 1344,990 1920,990 1920,767 "/>
<linearGradient id="SVGID_4_" gradientUnits="userSpaceOnUse" x1="2637.7764" y1="825" x2="2637.7764" y2="641.479" gradientTransform="matrix(-1 0 0 1 3229 0)">
	<stop  offset="0" style="stop-color:#54B27B;stop-opacity:0"/>
	<stop  offset="0.0215" style="stop-color:#54B27B;stop-opacity:0.0215"/>
	<stop  offset="1" style="stop-color:#54B27B"/>
</linearGradient>
<polygon fill="url(#SVGID_4_)" points="648.429,825 591.224,641.479 534.019,825 "/>
<linearGradient id="SVGID_5_" gradientUnits="userSpaceOnUse" x1="2782.7754" y1="957.2383" x2="2782.7754" y2="802.4043" gradientTransform="matrix(-1 0 0 1 3229 0)">
	<stop  offset="0" style="stop-color:#54B27B;stop-opacity:0"/>
	<stop  offset="0.0215" style="stop-color:#54B27B;stop-opacity:0.0215"/>
	<stop  offset="1" style="stop-color:#54B27B"/>
</linearGradient>
<polygon fill="url(#SVGID_5_)" points="494.487,957.238 446.224,802.404 397.961,957.238 "/>
<linearGradient id="SVGID_6_" gradientUnits="userSpaceOnUse" x1="2845.7764" y1="624.2793" x2="2845.7764" y2="477.2656" gradientTransform="matrix(-1 0 0 1 3229 0)">
	<stop  offset="0" style="stop-color:#54B27B;stop-opacity:0"/>
	<stop  offset="0.0215" style="stop-color:#54B27B;stop-opacity:0.0215"/>
	<stop  offset="1" style="stop-color:#54B27B"/>
</linearGradient>
<polygon fill="url(#SVGID_6_)" points="429.049,624.279 383.224,477.266 337.398,624.279 "/>
<linearGradient id="SVGID_7_" gradientUnits="userSpaceOnUse" x1="2352.7764" y1="802.4785" x2="2352.7764" y2="674.2661" gradientTransform="matrix(-1 0 0 1 3229 0)">
	<stop  offset="0" style="stop-color:#54B27B;stop-opacity:0"/>
	<stop  offset="0.0215" style="stop-color:#54B27B;stop-opacity:0.0215"/>
	<stop  offset="1" style="stop-color:#54B27B"/>
</linearGradient>
<polygon fill="url(#SVGID_7_)" points="916.188,802.479 876.224,674.266 836.259,802.479 "/>
<linearGradient id="SVGID_8_" gradientUnits="userSpaceOnUse" x1="3095.7754" y1="1034.3076" x2="3095.7754" y2="871.1699" gradientTransform="matrix(-1 0 0 1 3229 0)">
	<stop  offset="0" style="stop-color:#54B27B;stop-opacity:0"/>
	<stop  offset="0.0215" style="stop-color:#54B27B;stop-opacity:0.0215"/>
	<stop  offset="1" style="stop-color:#54B27B"/>
</linearGradient>
<polygon fill="url(#SVGID_8_)" points="184.076,1034.308 133.224,871.17 82.372,1034.308 "/>
<linearGradient id="SVGID_9_" gradientUnits="userSpaceOnUse" x1="2975.7764" y1="838.4141" x2="2975.7764" y2="721.084" gradientTransform="matrix(-1 0 0 1 3229 0)">
	<stop  offset="0" style="stop-color:#54B27B;stop-opacity:0"/>
	<stop  offset="0.0215" style="stop-color:#54B27B;stop-opacity:0.0215"/>
	<stop  offset="1" style="stop-color:#54B27B"/>
</linearGradient>
<polygon fill="url(#SVGID_9_)" points="289.797,838.414 253.224,721.084 216.65,838.414 "/>
<linearGradient id="SVGID_10_" gradientUnits="userSpaceOnUse" x1="2067.7764" y1="733.3027" x2="2067.7764" y2="598.147" gradientTransform="matrix(-1 0 0 1 3229 0)">
	<stop  offset="0" style="stop-color:#54B27B;stop-opacity:0"/>
	<stop  offset="0.0215" style="stop-color:#54B27B;stop-opacity:0.0215"/>
	<stop  offset="1" style="stop-color:#54B27B"/>
</linearGradient>
<polygon fill="url(#SVGID_10_)" points="1203.354,733.303 1161.224,598.146 1119.094,733.303 "/>
<linearGradient id="SVGID_11_" gradientUnits="userSpaceOnUse" x1="2307.7764" y1="570.2422" x2="2307.7764" y2="462.2031" gradientTransform="matrix(-1 0 0 1 3229 0)">
	<stop  offset="0" style="stop-color:#54B27B;stop-opacity:0"/>
	<stop  offset="0.0215" style="stop-color:#54B27B;stop-opacity:0.0215"/>
	<stop  offset="1" style="stop-color:#54B27B"/>
</linearGradient>
<polygon fill="url(#SVGID_11_)" points="954.9,570.242 921.224,462.203 887.547,570.242 "/>
<linearGradient id="SVGID_12_" gradientUnits="userSpaceOnUse" x1="2498.7764" y1="624.2393" x2="2498.7764" y2="534.1631" gradientTransform="matrix(-1 0 0 1 3229 0)">
	<stop  offset="0" style="stop-color:#54B27B;stop-opacity:0"/>
	<stop  offset="0.0215" style="stop-color:#54B27B;stop-opacity:0.0215"/>
	<stop  offset="1" style="stop-color:#54B27B"/>
</linearGradient>
<polygon fill="url(#SVGID_12_)" points="758.301,624.239 730.224,534.163 702.146,624.239 "/>
<linearGradient id="SVGID_13_" gradientUnits="userSpaceOnUse" x1="1654.7764" y1="825" x2="1654.7764" y2="726.291" gradientTransform="matrix(-1 0 0 1 3229 0)">
	<stop  offset="0" style="stop-color:#54B27B;stop-opacity:0"/>
	<stop  offset="0.0215" style="stop-color:#54B27B;stop-opacity:0.0215"/>
	<stop  offset="1" style="stop-color:#54B27B"/>
</linearGradient>
<polygon fill="url(#SVGID_13_)" points="1604.992,825 1574.224,726.291 1543.455,825 "/>
<linearGradient id="SVGID_14_" gradientUnits="userSpaceOnUse" x1="1492.7764" y1="970" x2="1492.7764" y2="871.291" gradientTransform="matrix(-1 0 0 1 3229 0)">
	<stop  offset="0" style="stop-color:#54B27B;stop-opacity:0"/>
	<stop  offset="0.0215" style="stop-color:#54B27B;stop-opacity:0.0215"/>
	<stop  offset="1" style="stop-color:#54B27B"/>
</linearGradient>
<polygon fill="url(#SVGID_14_)" points="1766.992,970 1736.224,871.291 1705.455,970 "/>
<linearGradient id="SVGID_15_" gradientUnits="userSpaceOnUse" x1="2588.7764" y1="394" x2="2588.7764" y2="295.291" gradientTransform="matrix(-1 0 0 1 3229 0)">
	<stop  offset="0" style="stop-color:#54B27B;stop-opacity:0"/>
	<stop  offset="0.0215" style="stop-color:#54B27B;stop-opacity:0.0215"/>
	<stop  offset="1" style="stop-color:#54B27B"/>
</linearGradient>
<polygon fill="url(#SVGID_15_)" points="670.992,394 640.224,295.291 609.455,394 "/>
<linearGradient id="SVGID_16_" gradientUnits="userSpaceOnUse" x1="1716.7764" y1="726" x2="1716.7764" y2="588.2778" gradientTransform="matrix(-1 0 0 1 3229 0)">
	<stop  offset="0" style="stop-color:#54B27B;stop-opacity:0"/>
	<stop  offset="0.0215" style="stop-color:#54B27B;stop-opacity:0.0215"/>
	<stop  offset="1" style="stop-color:#54B27B"/>
</linearGradient>
<polygon fill="url(#SVGID_16_)" points="1555.153,726 1512.224,588.277 1469.294,726 "/>
<linearGradient id="SVGID_17_" gradientUnits="userSpaceOnUse" x1="1804.7764" y1="894" x2="1804.7764" y2="783" gradientTransform="matrix(-1 0 0 1 3229 0)">
	<stop  offset="0" style="stop-color:#54B27B;stop-opacity:0"/>
	<stop  offset="0.0215" style="stop-color:#54B27B;stop-opacity:0.0215"/>
	<stop  offset="1" style="stop-color:#54B27B"/>
</linearGradient>
<polygon fill="url(#SVGID_17_)" points="1458.823,894 1424.224,783 1389.624,894 "/>
<linearGradient id="SVGID_18_" gradientUnits="userSpaceOnUse" x1="1966.7764" y1="553" x2="1966.7764" y2="447.3096" gradientTransform="matrix(-1 0 0 1 3229 0)">
	<stop  offset="0" style="stop-color:#54B27B;stop-opacity:0"/>
	<stop  offset="0.0215" style="stop-color:#54B27B;stop-opacity:0.0215"/>
	<stop  offset="1" style="stop-color:#54B27B"/>
</linearGradient>
<polygon fill="url(#SVGID_18_)" points="1295.168,553 1262.224,447.31 1229.279,553 "/>
</svg>
