<?xml version="1.0" encoding="utf-8"?>
<!-- Generator: Adobe Illustrator 15.0.0, SVG Export Plug-In . SVG Version: 6.00 Build 0)  -->
<!DOCTYPE svg PUBLIC "-//W3C//DTD SVG 1.1//EN" "http://www.w3.org/Graphics/SVG/1.1/DTD/svg11.dtd">
<svg version="1.1" id="Layer_1" xmlns="http://www.w3.org/2000/svg" xmlns:xlink="http://www.w3.org/1999/xlink" x="0px" y="0px"
	 width="640px" height="640px" viewBox="0 0 640 640" enable-background="new 0 0 640 640" xml:space="preserve">
<circle fill="#4BAE74" cx="320" cy="320" r="320"/>
<g>
	<g>
		<path fill="#FFFFFF" d="M170,110.065V471.87l139.09-138.827l-30.22-30.575L213,368.284V213.649L471,471.87V110.065l-44,42.447
			v215.771L170,110.065z"/>
		<g>
			<path fill="#FFFFFF" d="M167.57,507.725h6.347l16.646,25.332v-25.332h7.126v37.452h-6.294l-16.749-25.021v25.021h-7.075V507.725z
				"/>
			<path fill="#FFFFFF" d="M212.675,507.725h7.334l6.658,28.141l6.398-28.141h6.555l6.502,28.141l6.45-28.141h7.386l-9.519,37.452
				h-7.646l-6.45-26.373l-6.347,26.373h-7.802L212.675,507.725z"/>
			<path fill="#FFFFFF" d="M275.727,507.725h3.121v16.333H299.5v-16.333h3.173v37.452H299.5v-18.31h-20.651v18.31h-3.121V507.725z"
				/>
			<path fill="#FFFFFF" d="M335.709,507.725l13.785,37.452h-3.33l-4.213-11.443h-15.658l-4.16,11.443h-3.381l13.733-37.452H335.709z
				 M341.014,530.924l-6.918-19.454l-6.918,19.454H341.014z"/>
			<path fill="#FFFFFF" d="M391.479,540.131c-3.121,3.434-7.439,5.67-12.85,5.67c-11.027,0-15.656-8.999-15.656-19.506
				c0-10.456,5.148-19.247,15.865-19.247c7.074,0,12.432,4.317,12.588,11.184h-3.068c-0.365-4.213-2.967-8.322-9.572-8.322
				c-8.01,0-12.484,6.658-12.484,16.229c0,10.924,4.994,16.802,12.484,16.802c4.994,0,8.115-2.081,10.82-4.89L391.479,540.131z"/>
			<path fill="#FFFFFF" d="M408.492,507.725h3.121v16.646h7.803l9.986-16.646h3.537l-10.768,17.842l12.797,19.61h-3.641
				l-11.912-18.154h-7.803v18.154h-3.121V507.725z"/>
			<path fill="#FFFFFF" d="M450.424,538.311c3.328,3.069,6.814,4.733,11.027,4.733c4.891,0,8.738-2.601,8.738-7.438
				c0-4.161-1.768-6.138-8.842-8.322c-8.219-2.497-11.549-4.942-11.549-10.404c0-6.138,4.994-9.831,11.705-9.831
				c4.732,0,8.686,1.717,11.703,5.41l-2.029,1.872c-2.756-3.329-6.396-4.577-9.674-4.577c-4.682,0-8.428,2.341-8.428,6.971
				c0,4.577,3.225,5.617,9.936,7.958c7.699,2.705,10.455,5.15,10.455,10.664c0,6.397-4.838,10.455-12.223,10.455
				c-5.203,0-9.729-2.289-12.693-5.409L450.424,538.311z"/>
		</g>
	</g>
</g>
</svg>
