<?xml version="1.0" encoding="UTF-8" standalone="no"?>
<!-- Generator: Adobe Illustrator 15.0.0, SVG Export Plug-In . SVG Version: 6.00 Build 0)  -->

<svg
   xmlns:dc="http://purl.org/dc/elements/1.1/"
   xmlns:cc="http://creativecommons.org/ns#"
   xmlns:rdf="http://www.w3.org/1999/02/22-rdf-syntax-ns#"
   xmlns:svg="http://www.w3.org/2000/svg"
   xmlns="http://www.w3.org/2000/svg"
   xmlns:sodipodi="http://sodipodi.sourceforge.net/DTD/sodipodi-0.dtd"
   xmlns:inkscape="http://www.inkscape.org/namespaces/inkscape"
   version="1.1"
   id="Layer_1"
   x="0px"
   y="0px"
   width="305.896"
   height="38.754002"
   viewBox="0 0 305.896 38.754002"
   enable-background="new 0 0 640 640"
   xml:space="preserve"
   inkscape:version="0.91 r13725"
   sodipodi:docname="nwhacks-text.svg"><metadata
     id="metadata31"><rdf:RDF><cc:Work
         rdf:about=""><dc:format>image/svg+xml</dc:format><dc:type
           rdf:resource="http://purl.org/dc/dcmitype/StillImage" /><dc:title></dc:title></cc:Work></rdf:RDF></metadata><defs
     id="defs29" /><sodipodi:namedview
     pagecolor="#000000"
     bordercolor="#666666"
     borderopacity="1"
     objecttolerance="10"
     gridtolerance="10"
     guidetolerance="10"
     inkscape:pageopacity="0"
     inkscape:pageshadow="2"
     inkscape:window-width="958"
     inkscape:window-height="523"
     id="namedview27"
     showgrid="false"
     fit-margin-top="0"
     fit-margin-left="0"
     fit-margin-right="0"
     fit-margin-bottom="0"
     inkscape:zoom="0.7375"
     inkscape:cx="113.92104"
     inkscape:cy="84.578628"
     inkscape:window-x="960"
     inkscape:window-y="30"
     inkscape:window-maximized="0"
     inkscape:current-layer="Layer_1" /><g
     id="g11"
     transform="translate(-167.57,-507.048)"><path
       d="m 167.57,507.725 6.347,0 16.646,25.332 0,-25.332 7.126,0 0,37.452 -6.294,0 -16.749,-25.021 0,25.021 -7.075,0 0,-37.452 z"
       id="path13"
       inkscape:connector-curvature="0"
       style="fill:#ffffff" /><path
       d="m 212.675,507.725 7.334,0 6.658,28.141 6.398,-28.141 6.555,0 6.502,28.141 6.45,-28.141 7.386,0 -9.519,37.452 -7.646,0 -6.45,-26.373 -6.347,26.373 -7.802,0 -9.519,-37.452 z"
       id="path15"
       inkscape:connector-curvature="0"
       style="fill:#ffffff" /><path
       d="m 275.727,507.725 3.121,0 0,16.333 20.652,0 0,-16.333 3.173,0 0,37.452 -3.173,0 0,-18.31 -20.651,0 0,18.31 -3.121,0 0,-37.452 z"
       id="path17"
       inkscape:connector-curvature="0"
       style="fill:#ffffff" /><path
       d="m 335.709,507.725 13.785,37.452 -3.33,0 -4.213,-11.443 -15.658,0 -4.16,11.443 -3.381,0 13.733,-37.452 3.224,0 z m 5.305,23.199 -6.918,-19.454 -6.918,19.454 13.836,0 z"
       id="path19"
       inkscape:connector-curvature="0"
       style="fill:#ffffff" /><path
       d="m 391.479,540.131 c -3.121,3.434 -7.439,5.67 -12.85,5.67 -11.027,0 -15.656,-8.999 -15.656,-19.506 0,-10.456 5.148,-19.247 15.865,-19.247 7.074,0 12.432,4.317 12.588,11.184 l -3.068,0 c -0.365,-4.213 -2.967,-8.322 -9.572,-8.322 -8.01,0 -12.484,6.658 -12.484,16.229 0,10.924 4.994,16.802 12.484,16.802 4.994,0 8.115,-2.081 10.82,-4.89 l 1.873,2.08 z"
       id="path21"
       inkscape:connector-curvature="0"
       style="fill:#ffffff" /><path
       d="m 408.492,507.725 3.121,0 0,16.646 7.803,0 9.986,-16.646 3.537,0 -10.768,17.842 12.797,19.61 -3.641,0 -11.912,-18.154 -7.803,0 0,18.154 -3.121,0 0,-37.452 z"
       id="path23"
       inkscape:connector-curvature="0"
       style="fill:#ffffff" /><path
       d="m 450.424,538.311 c 3.328,3.069 6.814,4.733 11.027,4.733 4.891,0 8.738,-2.601 8.738,-7.438 0,-4.161 -1.768,-6.138 -8.842,-8.322 -8.219,-2.497 -11.549,-4.942 -11.549,-10.404 0,-6.138 4.994,-9.831 11.705,-9.831 4.732,0 8.686,1.717 11.703,5.41 l -2.029,1.872 c -2.756,-3.329 -6.396,-4.577 -9.674,-4.577 -4.682,0 -8.428,2.341 -8.428,6.971 0,4.577 3.225,5.617 9.936,7.958 7.699,2.705 10.455,5.15 10.455,10.664 0,6.397 -4.838,10.455 -12.223,10.455 -5.203,0 -9.729,-2.289 -12.693,-5.409 l 1.874,-2.082 z"
       id="path25"
       inkscape:connector-curvature="0"
       style="fill:#ffffff" /></g></svg>