<svg xmlns="http://www.w3.org/2000/svg" width="305.896" height="38.754" viewBox="0 0 305.896 38.754002"><g fill="#fff"><path d="M0 .677h6.347l16.646 25.332V.677h7.126v37.452h-6.294L7.076 13.108v25.021H.001V.677zM45.105.677h7.334l6.658 28.141L65.495.677h6.555l6.502 28.141L85.002.677h7.386l-9.519 37.452h-7.646l-6.45-26.373-6.347 26.373h-7.802L45.105.677zM108.157.677h3.121V17.01h20.652V.677h3.173v37.452h-3.173v-18.31h-20.651v18.31h-3.121V.677zM168.139.677l13.785 37.452h-3.33l-4.213-11.443h-15.658l-4.16 11.443h-3.381L164.915.677h3.224zm5.305 23.199l-6.918-19.454-6.918 19.454h13.836zM223.909 33.083c-3.121 3.434-7.439 5.67-12.85 5.67-11.027 0-15.656-8.999-15.656-19.506C195.403 8.791 200.551 0 211.268 0c7.074 0 12.432 4.317 12.588 11.184h-3.068c-.365-4.213-2.967-8.322-9.572-8.322-8.01 0-12.484 6.658-12.484 16.229 0 10.924 4.994 16.802 12.484 16.802 4.994 0 8.115-2.081 10.82-4.89l1.873 2.08zM240.922.677h3.121v16.646h7.803L261.832.677h3.537l-10.768 17.842 12.797 19.61h-3.641l-11.912-18.154h-7.803v18.154h-3.121V.677zM282.854 31.263c3.328 3.069 6.814 4.733 11.027 4.733 4.891 0 8.738-2.601 8.738-7.438 0-4.161-1.768-6.138-8.842-8.322-8.219-2.497-11.549-4.942-11.549-10.404 0-6.138 4.994-9.831 11.705-9.831 4.732 0 8.686 1.717 11.703 5.41l-2.029 1.872c-2.756-3.329-6.396-4.577-9.674-4.577-4.682 0-8.428 2.341-8.428 6.971 0 4.577 3.225 5.617 9.936 7.958 7.699 2.705 10.455 5.15 10.455 10.664 0 6.397-4.838 10.455-12.223 10.455-5.203 0-9.729-2.289-12.693-5.409l1.874-2.082z"/></g></svg>