<?xml version="1.0" encoding="UTF-8" standalone="no"?>
<!-- Generator: Adobe Illustrator 15.0.0, SVG Export Plug-In . SVG Version: 6.00 Build 0)  -->

<svg
   xmlns:dc="http://purl.org/dc/elements/1.1/"
   xmlns:cc="http://creativecommons.org/ns#"
   xmlns:rdf="http://www.w3.org/1999/02/22-rdf-syntax-ns#"
   xmlns:svg="http://www.w3.org/2000/svg"
   xmlns="http://www.w3.org/2000/svg"
   xmlns:sodipodi="http://sodipodi.sourceforge.net/DTD/sodipodi-0.dtd"
   xmlns:inkscape="http://www.inkscape.org/namespaces/inkscape"
   version="1.1"
   id="Layer_1"
   x="0px"
   y="0px"
   width="1920"
   height="442.70312"
   viewBox="0 0 1920 442.70312"
   enable-background="new 0 0 1920 655"
   xml:space="preserve"
   inkscape:version="0.91 r13725"
   sodipodi:docname="Skyline-Footer-Cropped.svg"><metadata
     id="metadata97"><rdf:RDF><cc:Work
         rdf:about=""><dc:format>image/svg+xml</dc:format><dc:type
           rdf:resource="http://purl.org/dc/dcmitype/StillImage" /><dc:title></dc:title></cc:Work></rdf:RDF></metadata><defs
     id="defs95" /><sodipodi:namedview
     pagecolor="#ffffff"
     bordercolor="#666666"
     borderopacity="1"
     objecttolerance="10"
     gridtolerance="10"
     guidetolerance="10"
     inkscape:pageopacity="0"
     inkscape:pageshadow="2"
     inkscape:window-width="958"
     inkscape:window-height="1048"
     id="namedview93"
     showgrid="false"
     showguides="true"
     inkscape:guide-bbox="true"
     fit-margin-top="0"
     fit-margin-left="0"
     fit-margin-right="0"
     fit-margin-bottom="0"
     inkscape:zoom="1"
     inkscape:cx="617.36299"
     inkscape:cy="242.38959"
     inkscape:window-x="0"
     inkscape:window-y="30"
     inkscape:window-maximized="0"
     inkscape:current-layer="Layer_1"><sodipodi:guide
       position="557.84375,0.69920999"
       orientation="0,1"
       id="guide3425" /></sodipodi:namedview><path
     d="M 827.5,0 825,15.621094 825,56 l -17,0 0,10.597656 c -16,1.323 -28.12305,4.433485 -28.12305,7.896485 0,0.125 -0.0378,0.505859 -0.01,0.505859 l -0.0527,0 6.75391,16.050781 7.43164,4.367188 0,3.630859 13,6.712892 0,16.2539 -33,14.77735 0,168.20703 -22,0 0,-26.34766 0,-58.65234 -41,0 0,-18 -21,0 0,-8 -6.18555,0 -7.38476,8 -7.42969,0 0,18 -25,0 0,50 -10,0 0,9 -6,0 0,38 -21,0 0,18 -17,0 0,-79.99219 0,-33.98633 0,-55.02148 -68,0 0,55 -30,0 0,34 -37,0 0,90 -29.71484,0 11.88476,-85.10547 c -7.346,8.449 -15.83951,15.90817 -25.22851,22.07617 l 3.07421,-22.02148 c -6.92099,7.959 -14.85556,15.02075 -23.60156,20.96875 l 2.92578,-20.95508 c -6.921,7.96 -14.85556,15.01194 -23.60156,20.96094 l 2.92383,-20.95703 c -15.646,17.994 -36.47039,31.353 -60.15039,37.75 -20.492,-5.521 -38.85727,-16.23383 -53.57227,-30.67383 l 2.81836,18.86133 c -9.121,-5.215 -17.52165,-11.55133 -24.97265,-18.86133 l 2.68359,17.94531 c -8.503,-5.036 -16.34933,-11.06431 -23.36133,-17.94531 l 2.68555,17.94531 c -8.503,-5.036 -16.34933,-10.88953 -23.36133,-17.76953 L 211.17383,366 l -0.34375,0 c 0,0 -145.230221,-36.39134 -151.199221,-25.15234 C 53.661859,352.08366 62.031297,361 70.154297,370 L 0,370 0.73828125,397 1,397 l 0,45.70312 1919,0 0,-45.70312 0,-51.85352 0,-10.34375 0,-16.2539 0,-64.54883 -41,0 0,65 -92,0 0,-58 -69,0 0,58 -5,0 0,-145 -18,0 0,-19 -22,0 0,-25.5957 -4.5,-14.77735 -4.5,14.77735 0,25.5957 -22,0 0,19 -23,0 0,128 -15,0 0,-25 -19,0 0,-89.96484 0,-6.03516 -17,0 0,-19 -9.4141,0 c -0.598,-15 -11.7775,-26.88169 -26.1875,-28.80469 l -3.7832,-12.63476 -3.7578,12.5664 C 1510.1974,134.82395 1498.7583,147 1498.1543,162 l -26.1543,0 0,25 -13,0 0,58 -13,0 0,37 -9,0 0,-178 -31,0 0,-16 -34,0 0,16 -31,0 0,92 -12,0 0,-49 -46,0 0,-17.5957 -3,-14.77735 -3,14.77735 0,17.5957 -16,0 0,-56.015625 L 1261,75 l -41,0 0,-14 -15,0 0,14 -25,0 0,16 -25,0 0,164 -15,0 0,-183 -24,0 0,-47 -3,0 0,47 -9,0 0,-11 -12.5527,0 -6.6465,-20.318359 L 1077.0977,61 1070,61 l 0,11 -23,0 0,220 -22,0 0,-15 -12,0 0,-37 -3,0 0,-5.67969 0,-13.29883 -3,-14.77734 -3,14.77734 0,12.97852 -8,0 0,-26.27734 -2.5,-14.77735 -2.5,14.77735 0,26.27734 -14,0 0,6 -4,0 0,-7 -27,0 0,7 -22,0 0,53 -24,0 0,14 -19,0 0,-170.20703 -33,-14.77735 0,-16.2539 13,-6.712892 0,-3.630859 7.00781,-4.367188 L 874.33984,75 l -0.0527,0 c 0.029,0 0.41406,-0.380859 0.41406,-0.505859 0,-3.464 -11.70117,-6.573485 -27.70117,-7.896485 L 847,56 830,56 830,15.621094 827.5,0 Z"
     id="path3"
     style="fill:#414042;fill-opacity:1"
     inkscape:connector-curvature="0" /><linearGradient
     id="SVGID_1_"
     gradientUnits="userSpaceOnUse"
     x1="999"
     y1="192.9453"
     x2="999"
     y2="417.00049"><stop
       offset="0"
       style="stop-color:#58595B;stop-opacity:0.5"
       id="stop6" /><stop
       offset="1"
       style="stop-color:#58595B;stop-opacity:0"
       id="stop8" /></linearGradient><polygon
     points="991,234 991,207.723 993.5,192.945 996,207.723 996,234 1004,234 1004,221.021 1007,206.244 1010,221.021 1010,234.32 1010,240 1013,240 1013,277 1025,277 1025,291.986 1025,417 973,417 973,240 977,240 977,234 "
     id="polygon10"
     style="fill:url(#SVGID_1_)" /><g
     id="g12"><g
       id="g14"><linearGradient
         id="SVGID_2_"
         gradientUnits="userSpaceOnUse"
         x1="375.01221"
         y1="259.8887"
         x2="375.01221"
         y2="417.00049"><stop
           offset="0"
           style="stop-color:#6D6E71;stop-opacity:0.5"
           id="stop17" /><stop
           offset="1"
           style="stop-color:#6D6E71;stop-opacity:0"
           id="stop19" /></linearGradient><path
         d="m 313.185,297.974 c 23.68,-6.396 44.669,-19.885 60.313,-37.879 l -2.842,20.894 c 8.745,-5.949 16.721,-13.034 23.642,-20.994 l -2.903,20.938 c 8.745,-5.948 16.689,-13.018 23.61,-20.977 l -3.069,22.015 c 9.39,-6.168 17.743,-13.632 25.089,-22.081 L 425,344.986 425,417 l -112,0 0.185,-119.026 z"
         id="path21"
         inkscape:connector-curvature="0"
         style="fill:url(#SVGID_2_)" /><linearGradient
         id="SVGID_3_"
         gradientUnits="userSpaceOnUse"
         x1="556.5"
         y1="166"
         x2="556.5"
         y2="417.00049"><stop
           offset="0"
           style="stop-color:#6D6E71;stop-opacity:0.5"
           id="stop24" /><stop
           offset="1"
           style="stop-color:#6D6E71;stop-opacity:0"
           id="stop26" /></linearGradient><rect
         x="522"
         y="166"
         width="69"
         height="251"
         id="rect28"
         style="fill:url(#SVGID_3_)" /><linearGradient
         id="SVGID_4_"
         gradientUnits="userSpaceOnUse"
         x1="721"
         y1="202"
         x2="721"
         y2="417.00049"><stop
           offset="0"
           style="stop-color:#6D6E71;stop-opacity:0.5"
           id="stop31" /><stop
           offset="1"
           style="stop-color:#6D6E71;stop-opacity:0"
           id="stop33" /></linearGradient><polygon
         points="690,417 711,417 752,417 752,220 711,220 711,202 690,202 "
         id="polygon35"
         style="fill:url(#SVGID_4_)" /><linearGradient
         id="SVGID_5_"
         gradientUnits="userSpaceOnUse"
         x1="854"
         y1="0.0068000001"
         x2="854"
         y2="417.00049"><stop
           offset="0"
           style="stop-color:#6D6E71;stop-opacity:0.5"
           id="stop38" /><stop
           offset="1"
           style="stop-color:#6D6E71;stop-opacity:0"
           id="stop40" /></linearGradient><path
         d="M 827.25,0.007 830,15.622 830,56 l 17,0 0,10.597 c 16,1.323 27.701,4.435 27.701,7.898 0,0.125 -0.385,0.505 -0.414,0.505 l 0.052,0 -6.331,16.051 -7.008,4.367 0,3.631 -13,6.713 0,16.254 33,14.777 0,170.193 0,110.014 -54,0 0.25,-416.993 z"
         id="path42"
         inkscape:connector-curvature="0"
         style="fill:url(#SVGID_5_)" /><linearGradient
         id="SVGID_6_"
         gradientUnits="userSpaceOnUse"
         x1="1115.5"
         y1="61"
         x2="1115.5"
         y2="417.00049"><stop
           offset="0"
           style="stop-color:#6D6E71;stop-opacity:0.5"
           id="stop45" /><stop
           offset="1"
           style="stop-color:#6D6E71;stop-opacity:0"
           id="stop47" /></linearGradient><polygon
         points="1091,417 1104,417 1140,417 1140,72 1104,72 1104,61 1091,61 "
         id="polygon49"
         style="fill:url(#SVGID_6_)" /></g><linearGradient
       id="SVGID_7_"
       gradientUnits="userSpaceOnUse"
       x1="1412.5"
       y1="88"
       x2="1412.5"
       y2="417.00049"><stop
         offset="0"
         style="stop-color:#6D6E71;stop-opacity:0.5"
         id="stop52" /><stop
         offset="1"
         style="stop-color:#6D6E71;stop-opacity:0"
         id="stop54" /></linearGradient><polygon
       points="1388,417 1406,417 1437,417 1437,104 1406,104 1406,88 1388,88 "
       id="polygon56"
       style="fill:url(#SVGID_7_)" /><linearGradient
       id="SVGID_8_"
       gradientUnits="userSpaceOnUse"
       x1="1566.4043"
       y1="120.8076"
       x2="1566.4043"
       y2="442.00049"><stop
         offset="0"
         style="stop-color:#6D6E71;stop-opacity:0.5"
         id="stop59" /><stop
         offset="1"
         style="stop-color:#6D6E71;stop-opacity:0"
         id="stop61" /></linearGradient><path
       d="m 1528.809,120.808 3.686,12.513 c 14.409,1.923 25.493,13.679 26.091,28.679 l 9.414,0 0,19 17,0 0,6.035 0,89.965 19,0 0,24.986 0,140.014 -75,0 -0.191,-321.192 z"
       id="path63"
       inkscape:connector-curvature="0"
       style="fill:url(#SVGID_8_)" /><linearGradient
       id="SVGID_9_"
       gradientUnits="userSpaceOnUse"
       x1="1274.5"
       y1="75"
       x2="1274.5"
       y2="417.00049"><stop
         offset="0"
         style="stop-color:#6D6E71;stop-opacity:0.5"
         id="stop66" /><stop
         offset="1"
         style="stop-color:#6D6E71;stop-opacity:0"
         id="stop68" /></linearGradient><polygon
       points="1277,129.404 1277,147 1261,147 1261,75 1220,75 1220,417 1261,417 1329,417 1329,195.986 1329,147 1283,147 1283,129.404 1280,114.627 "
       id="polygon70"
       style="fill:url(#SVGID_9_)" /><linearGradient
       id="SVGID_10_"
       gradientUnits="userSpaceOnUse"
       x1="1768.5"
       y1="261"
       x2="1768.5"
       y2="442.00049"><stop
         offset="0"
         style="stop-color:#6D6E71;stop-opacity:0.5"
         id="stop73" /><stop
         offset="1"
         style="stop-color:#6D6E71;stop-opacity:0"
         id="stop75" /></linearGradient><rect
       x="1751"
       y="261"
       width="35"
       height="181"
       id="rect77"
       style="fill:url(#SVGID_10_)" /><linearGradient
       id="SVGID_11_"
       gradientUnits="userSpaceOnUse"
       x1="1911"
       y1="254"
       x2="1911"
       y2="442.00049"><stop
         offset="0"
         style="stop-color:#6D6E71;stop-opacity:0.5"
         id="stop80" /><stop
         offset="1"
         style="stop-color:#6D6E71;stop-opacity:0"
         id="stop82" /></linearGradient><rect
       x="1902"
       y="254"
       width="18"
       height="188"
       id="rect84"
       style="fill:url(#SVGID_11_)" /><linearGradient
       id="SVGID_12_"
       gradientUnits="userSpaceOnUse"
       x1="1690.5"
       y1="114.8779"
       x2="1690.5"
       y2="442.00049"><stop
         offset="0"
         style="stop-color:#6D6E71;stop-opacity:0.5"
         id="stop87" /><stop
         offset="1"
         style="stop-color:#6D6E71;stop-opacity:0"
         id="stop89" /></linearGradient><polygon
       points="1695,155 1695,174 1713,174 1713,318.986 1713,442 1668,442 1668.25,114.878 1673,129.404 1673,155 "
       id="polygon91"
       style="fill:url(#SVGID_12_)" /></g></svg>