<svg xmlns="http://www.w3.org/2000/svg" width="1920" height="655" viewBox="0 0 1920 655"><path fill="#414042" d="M1920 397V254h-41v65h-92v-58h-69v58h-5V174h-18v-19h-22v-25.596l-4.5-14.777-4.5 14.777V155h-22v19h-23v128h-15v-25h-19v-96h-17v-19h-9.415c-.598-15-11.777-26.882-26.187-28.805l-3.782-12.635-3.759 12.566c-14.66 1.697-26.099 13.874-26.703 28.874H1472v25h-13v58h-13v37h-9V104h-31V88h-34v16h-31v92h-12v-49h-46v-17.596l-3-14.777-3 14.777V147h-16V75h-41V61h-15v14h-25v16h-25v164h-15V72h-24V25h-3v47h-9V61h-12.552l-6.648-20.319L1077.098 61H1070v11h-23v220h-22v-15h-12v-37h-3v-18.979l-3-14.777-3 14.777V234h-8v-26.277l-2.5-14.777-2.5 14.777V234h-14v6h-4v-7h-27v7h-22v53h-24v14h-19V136.793l-33-14.777v-16.254l13-6.713v-3.631l7.008-4.367L874.339 75h-.052c.029 0 .414-.38.414-.505 0-3.464-11.701-6.575-27.701-7.898V56h-17V15.622L827.5 0 825 15.622V56h-17v10.597c-16 1.323-28.123 4.435-28.123 7.898 0 .125-.038.505-.01.505h-.052l6.753 16.051L794 95.418v3.631l13 6.713v16.254l-33 14.777V305h-22v-85h-41v-18h-21v-8h-6.185l-7.385 8H669v18h-25v50h-10v9h-6v38h-21v18h-17V166h-68v55h-30v34h-37v90h-29.714l11.884-85.106a122.92 122.92 0 0 1-25.229 22.076l3.075-22.02a122.852 122.852 0 0 1-23.601 20.968l2.924-20.955a122.816 122.816 0 0 1-23.601 20.961l2.924-20.958c-15.646 17.994-36.47 31.354-60.15 37.751-20.492-5.521-38.857-16.234-53.572-30.674l2.818 18.861a122.396 122.396 0 0 1-24.973-18.861l2.683 17.946a122.417 122.417 0 0 1-23.36-17.946l2.684 17.946c-8.503-5.036-16.348-10.891-23.36-17.771L211.173 366h-.342S65.6 329.609 59.631 340.848C53.662 352.084 62.031 361 70.154 370H0l.738 27H1v258h1919V397z"/><linearGradient id="a" gradientUnits="userSpaceOnUse" x1="999" y1="192.945" x2="999" y2="417"><stop offset="0" stop-color="#58595b" stop-opacity=".5"/><stop offset="1" stop-color="#58595b" stop-opacity="0"/></linearGradient><path fill="url(#a)" d="M973 240h4v-6h14v-26.277l2.5-14.778 2.5 14.778V234h8v-12.979l3-14.777 3 14.777V240h3v37h12v140h-52z"/><linearGradient id="b" gradientUnits="userSpaceOnUse" x1="375.012" y1="259.889" x2="375.012" y2="417"><stop offset="0" stop-color="#6d6e71" stop-opacity=".5"/><stop offset="1" stop-color="#6d6e71" stop-opacity="0"/></linearGradient><path fill="url(#b)" d="M313.185 297.974c23.68-6.396 44.669-19.885 60.313-37.879l-2.842 20.894a123.254 123.254 0 0 0 23.642-20.994l-2.903 20.938a122.98 122.98 0 0 0 23.61-20.977l-3.069 22.015c9.39-6.168 17.743-13.632 25.089-22.081L425 344.986V417H313l.185-119.026z"/><linearGradient id="c" gradientUnits="userSpaceOnUse" x1="556.5" y1="166" x2="556.5" y2="417"><stop offset="0" stop-color="#6d6e71" stop-opacity=".5"/><stop offset="1" stop-color="#6d6e71" stop-opacity="0"/></linearGradient><path fill="url(#c)" d="M522 166h69v251h-69z"/><linearGradient id="d" gradientUnits="userSpaceOnUse" x1="721" y1="202" x2="721" y2="417"><stop offset="0" stop-color="#6d6e71" stop-opacity=".5"/><stop offset="1" stop-color="#6d6e71" stop-opacity="0"/></linearGradient><path fill="url(#d)" d="M711 220v-18h-21v215h62V220z"/><linearGradient id="e" gradientUnits="userSpaceOnUse" x1="854" y1=".007" x2="854" y2="417"><stop offset="0" stop-color="#6d6e71" stop-opacity=".5"/><stop offset="1" stop-color="#6d6e71" stop-opacity="0"/></linearGradient><path fill="url(#e)" d="M827.25.007L830 15.622V56h17v10.597c16 1.323 27.701 4.435 27.701 7.898 0 .125-.385.505-.414.505h.052l-6.331 16.051L861 95.418v3.631l-13 6.713v16.254l33 14.777V417h-54L827.25.007z"/><linearGradient id="f" gradientUnits="userSpaceOnUse" x1="1115.5" y1="61" x2="1115.5" y2="417"><stop offset="0" stop-color="#6d6e71" stop-opacity=".5"/><stop offset="1" stop-color="#6d6e71" stop-opacity="0"/></linearGradient><path fill="url(#f)" d="M1104 72V61h-13v356h49V72z"/><linearGradient id="g" gradientUnits="userSpaceOnUse" x1="1412.5" y1="88" x2="1412.5" y2="417"><stop offset="0" stop-color="#6d6e71" stop-opacity=".5"/><stop offset="1" stop-color="#6d6e71" stop-opacity="0"/></linearGradient><path fill="url(#g)" d="M1406 104V88h-18v329h49V104z"/><linearGradient id="h" gradientUnits="userSpaceOnUse" x1="1566.404" y1="120.808" x2="1566.404" y2="442"><stop offset="0" stop-color="#6d6e71" stop-opacity=".5"/><stop offset="1" stop-color="#6d6e71" stop-opacity="0"/></linearGradient><path fill="url(#h)" d="M1528.809 120.808l3.686 12.513c14.409 1.923 25.493 13.679 26.091 28.679H1568v19h17v96h19v165h-75l-.191-321.192z"/><linearGradient id="i" gradientUnits="userSpaceOnUse" x1="1274.5" y1="75" x2="1274.5" y2="417"><stop offset="0" stop-color="#6d6e71" stop-opacity=".5"/><stop offset="1" stop-color="#6d6e71" stop-opacity="0"/></linearGradient><path fill="url(#i)" d="M1283 147v-17.596l-3-14.777-3 14.777V147h-16V75h-41v342h109V147z"/><linearGradient id="j" gradientUnits="userSpaceOnUse" x1="1768.5" y1="261" x2="1768.5" y2="442"><stop offset="0" stop-color="#6d6e71" stop-opacity=".5"/><stop offset="1" stop-color="#6d6e71" stop-opacity="0"/></linearGradient><path fill="url(#j)" d="M1751 261h35v181h-35z"/><linearGradient id="k" gradientUnits="userSpaceOnUse" x1="1911" y1="254" x2="1911" y2="442"><stop offset="0" stop-color="#6d6e71" stop-opacity=".5"/><stop offset="1" stop-color="#6d6e71" stop-opacity="0"/></linearGradient><path fill="url(#k)" d="M1902 254h18v188h-18z"/><linearGradient id="l" gradientUnits="userSpaceOnUse" x1="1690.5" y1="114.878" x2="1690.5" y2="442"><stop offset="0" stop-color="#6d6e71" stop-opacity=".5"/><stop offset="1" stop-color="#6d6e71" stop-opacity="0"/></linearGradient><path fill="url(#l)" d="M1668.25 114.878l4.75 14.526V155h22v19h18v268h-45z"/></svg>