<?xml version="1.0" encoding="utf-8"?>
<!-- Generator: Adobe Illustrator 15.0.0, SVG Export Plug-In . SVG Version: 6.00 Build 0)  -->
<!DOCTYPE svg PUBLIC "-//W3C//DTD SVG 1.1//EN" "http://www.w3.org/Graphics/SVG/1.1/DTD/svg11.dtd">
<svg version="1.1" id="Layer_1" xmlns="http://www.w3.org/2000/svg" xmlns:xlink="http://www.w3.org/1999/xlink" x="0px" y="0px"
	 width="1920px" height="1880px" viewBox="0 0 1920 1880" enable-background="new 0 0 1920 1880" xml:space="preserve">
<rect x="563.999" y="1354" transform="matrix(0.7071 0.7071 -0.7071 0.7071 1127.614 -4.3011)" opacity="0.7" fill="#FFF2B5" width="10" height="10"/>
<rect x="1133.999" y="1464" transform="matrix(0.7071 0.7071 -0.7071 0.7071 1372.345 -375.1338)" opacity="0.7" fill="#FFF2B5" width="10" height="10"/>
<rect x="1210.999" y="1590" transform="matrix(0.7071 0.7071 -0.7071 0.7071 1483.9932 -392.6764)" opacity="0.7" fill="#FFF2B5" width="10" height="10"/>
<rect x="279.999" y="1094" transform="matrix(0.7071 0.7071 -0.7071 0.7071 860.5846 120.3649)" opacity="0.7" fill="#FFF2B5" width="10" height="10"/>
<rect x="282.624" y="1362.625" transform="matrix(0.7071 0.7071 -0.7071 0.7071 1055.675 195.375)" opacity="0.7" fill="#FFF2B5" width="18.751" height="18.751"/>
<rect x="1758.624" y="1493.625" transform="matrix(0.7071 0.7071 -0.7071 0.7071 1580.6165 -809.9456)" opacity="0.7" fill="#FFF2B5" width="18.751" height="18.751"/>
<rect x="1582.624" y="1585.625" transform="matrix(0.7071 0.7071 -0.7071 0.7071 1594.1211 -658.5486)" opacity="0.7" fill="#FFF2B5" width="18.751" height="18.751"/>
<rect x="773.624" y="1320.625" transform="matrix(0.7071 0.7071 -0.7071 0.7071 1169.7871 -164.116)" opacity="0.7" fill="#FFF2B5" width="18.751" height="18.751"/>
<rect x="773.624" y="1605.625" transform="matrix(0.7071 0.7071 -0.7071 0.7071 1371.3125 -80.6414)" opacity="0.7" fill="#FFF2B5" width="18.751" height="18.751"/>
<rect x="1659.624" y="1069.625" transform="matrix(0.7071 0.7071 -0.7071 0.7071 1251.8068 -864.1287)" opacity="0.7" fill="#FFF2B5" width="18.751" height="18.751"/>
<rect x="715.624" y="623.625" transform="matrix(0.7071 0.7071 -0.7071 0.7071 659.9459 -327.2503)" opacity="0.7" fill="#FFF2B5" width="18.751" height="18.751"/>
<rect x="330.624" y="477.625" transform="matrix(0.7071 0.7071 -0.7071 0.7071 443.9444 -97.7766)" opacity="0.7" fill="#FFF2B5" width="18.751" height="18.751"/>
<rect x="1002.624" y="490.625" transform="matrix(0.7071 0.7071 -0.7071 0.7071 649.9611 -569.1448)" opacity="0.7" fill="#FFF2B5" width="18.751" height="18.751"/>
<rect x="642.624" y="235.625" transform="matrix(0.7071 0.7071 -0.7071 0.7071 364.2072 -389.2741)" opacity="0.7" fill="#FFF2B5" width="18.751" height="18.751"/>
<rect x="119.999" y="1190" transform="matrix(0.7071 0.7071 -0.7071 0.7071 881.6039 261.6198)" opacity="0.7" fill="#FFF2B5" width="10" height="10"/>
<rect x="415.999" y="1421" transform="matrix(0.7071 0.7071 -0.7071 0.7071 1131.6421 119.9745)" opacity="0.7" fill="#FFF2B5" width="10" height="10"/>
<rect x="563.999" y="1652" transform="matrix(0.7071 0.7071 -0.7071 0.7071 1338.3319 82.9811)" opacity="0.7" fill="#FFF2B5" width="10" height="10"/>
<rect x="169.999" y="1774" transform="matrix(0.7071 0.7071 -0.7071 0.7071 1309.199 397.3141)" opacity="0.7" fill="#FFF2B5" width="10" height="10"/>
<rect x="336.301" y="1541.302" transform="matrix(0.707 0.7073 -0.7073 0.707 1190.334 213.1062)" opacity="0.7" fill="#FFF2B5" width="3.397" height="3.396"/>
<rect x="102.301" y="902.302" transform="matrix(0.707 0.7073 -0.7073 0.707 669.8303 191.3522)" opacity="0.7" fill="#FFF2B5" width="3.397" height="3.396"/>
<rect x="323.301" y="956.302" transform="matrix(0.707 0.7073 -0.7073 0.707 772.7831 50.8739)" opacity="0.7" fill="#FFF2B5" width="3.397" height="3.396"/>
<rect x="130.301" y="1501.302" transform="matrix(0.707 0.7073 -0.7073 0.707 1101.6785 347.0784)" opacity="0.7" fill="#FFF2B5" width="3.397" height="3.396"/>
<rect x="323.301" y="716.302" transform="matrix(0.707 0.7073 -0.7073 0.707 603.043 -19.455)" opacity="0.7" fill="#FFF2B5" width="3.397" height="3.396"/>
<rect x="180.301" y="357.302" transform="matrix(0.707 0.7073 -0.7073 0.707 307.2357 -23.5185)" opacity="0.7" fill="#FFF2B5" width="3.397" height="3.396"/>
<rect x="243.301" y="94.302" transform="matrix(0.707 0.7073 -0.7073 0.707 139.6902 -145.144)" opacity="0.7" fill="#FFF2B5" width="3.397" height="3.396"/>
<rect x="460.301" y="919.302" transform="matrix(0.707 0.7073 -0.7073 0.707 786.7609 -56.8618)" opacity="0.7" fill="#FFF2B5" width="3.397" height="3.396"/>
<rect x="930.301" y="673.302" transform="matrix(0.707 0.7073 -0.7073 0.707 750.5046 -461.3567)" opacity="0.7" fill="#FFF2B5" width="3.397" height="3.396"/>
<rect x="551.301" y="472.302" transform="matrix(0.707 0.7073 -0.7073 0.707 497.2863 -252.2092)" opacity="0.7" fill="#FFF2B5" width="3.397" height="3.396"/>
<rect x="1329.301" y="417.302" transform="matrix(0.707 0.7073 -0.7073 0.707 686.3702 -818.567)" opacity="0.7" fill="#FFF2B5" width="3.397" height="3.396"/>
<rect x="1780.301" y="341.302" transform="matrix(0.707 0.7073 -0.7073 0.707 764.7789 -1159.8079)" opacity="0.7" fill="#FFF2B5" width="3.397" height="3.396"/>
<rect x="1494.301" y="230.302" transform="matrix(0.707 0.7073 -0.7073 0.707 602.4655 -990.0613)" opacity="0.7" fill="#FFF2B5" width="3.397" height="3.396"/>
<rect x="460.301" y="280.302" transform="matrix(0.707 0.7073 -0.7073 0.707 334.8278 -244.1124)" opacity="0.7" fill="#FFF2B5" width="3.397" height="3.396"/>
<rect x="1241.301" y="659.302" transform="matrix(0.707 0.7073 -0.7073 0.707 831.7376 -685.4141)" opacity="0.7" fill="#FFF2B5" width="3.397" height="3.396"/>
<rect x="1638.301" y="826.302" transform="matrix(0.707 0.7073 -0.7073 0.707 1066.1841 -917.2554)" opacity="0.7" fill="#FFF2B5" width="3.397" height="3.396"/>
<rect x="1813.301" y="938.302" transform="matrix(0.707 0.7073 -0.7073 0.707 1196.6777 -1008.204)" opacity="0.7" fill="#FFF2B5" width="3.397" height="3.396"/>
<rect x="1524.301" y="996.302" transform="matrix(0.707 0.7073 -0.7073 0.707 1153.0105 -786.8125)" opacity="0.7" fill="#FFF2B5" width="3.397" height="3.396"/>
<rect x="1683.301" y="1233.302" transform="matrix(0.707 0.7073 -0.7073 0.707 1367.2217 -829.8154)" opacity="0.7" fill="#FFF2B5" width="3.397" height="3.396"/>
<rect x="1753.301" y="1364.302" transform="matrix(0.707 0.7073 -0.7073 0.707 1480.3842 -840.9353)" opacity="0.7" fill="#FFF2B5" width="3.397" height="3.396"/>
<rect x="1766.301" y="1715.302" transform="matrix(0.707 0.7073 -0.7073 0.707 1732.4385 -747.2734)" opacity="0.7" fill="#FFF2B5" width="3.397" height="3.396"/>
<rect x="1492.301" y="1429.302" transform="matrix(0.707 0.7073 -0.7073 0.707 1449.8728 -637.2954)" opacity="0.7" fill="#FFF2B5" width="3.397" height="3.396"/>
<rect x="1331.301" y="1350.302" transform="matrix(0.707 0.7073 -0.7073 0.707 1346.821 -546.578)" opacity="0.7" fill="#FFF2B5" width="3.397" height="3.396"/>
<rect x="928.301" y="1431.302" transform="matrix(0.707 0.7073 -0.7073 0.707 1286.0144 -237.8201)" opacity="0.7" fill="#FFF2B5" width="3.397" height="3.396"/>
<rect x="679.301" y="1467.302" transform="matrix(0.707 0.7073 -0.7073 0.707 1238.5093 -51.1654)" opacity="0.7" fill="#FFF2B5" width="3.397" height="3.396"/>
<rect x="241.301" y="1646.302" transform="matrix(0.707 0.7073 -0.7073 0.707 1236.7568 311.064)" opacity="0.7" fill="#FFF2B5" width="3.397" height="3.396"/>
<rect x="1087.301" y="1317.302" transform="matrix(0.707 0.7073 -0.7073 0.707 1251.9807 -383.6791)" opacity="0.7" fill="#FFF2B5" width="3.397" height="3.396"/>
<rect x="1057.301" y="1662.302" transform="matrix(0.707 0.7073 -0.7073 0.707 1487.191 -261.3639)" opacity="0.7" fill="#FFF2B5" width="3.397" height="3.396"/>
<rect x="1408.301" y="1274.302" transform="matrix(0.707 0.7073 -0.7073 0.707 1315.6338 -623.3071)" opacity="0.7" fill="#FFF2B5" width="3.397" height="3.396"/>
<rect x="1243.301" y="1417.302" transform="matrix(0.707 0.7073 -0.7073 0.707 1368.4196 -464.7065)" opacity="0.7" fill="#FFF2B5" width="3.397" height="3.396"/>
<rect x="1347.301" y="1543.302" transform="matrix(0.707 0.7073 -0.7073 0.707 1488.0089 -501.3379)" opacity="0.7" fill="#FFF2B5" width="3.397" height="3.396"/>
<rect x="875.999" y="1529" transform="matrix(0.7071 0.7071 -0.7071 0.7071 1342.7405 -173.6621)" opacity="0.7" fill="#FFF2B5" width="10" height="10"/>
<rect x="1670.999" y="892" transform="matrix(0.7071 0.7071 -0.7071 0.7071 1125.1636 -922.385)" opacity="0.7" fill="#FFF2B5" width="10" height="10"/>
<rect x="1593.999" y="1340" transform="matrix(0.7071 0.7071 -0.7071 0.7071 1419.3945 -736.7217)" opacity="0.7" fill="#FFF2B5" width="10" height="10"/>
<rect x="1455.999" y="1661" transform="matrix(0.7071 0.7071 -0.7071 0.7071 1605.9565 -545.1221)" opacity="0.7" fill="#FFF2B5" width="10" height="10"/>
<rect x="1769.999" y="734" transform="matrix(0.7071 0.7071 -0.7071 0.7071 1042.437 -1038.6658)" opacity="0.7" fill="#FFF2B5" width="10" height="10"/>
<rect x="524.999" y="670" transform="matrix(0.7071 0.7071 -0.7071 0.7071 632.5302 -177.063)" opacity="0.7" fill="#FFF2B5" width="10" height="10"/>
<rect x="1092.999" y="663" transform="matrix(0.7071 0.7071 -0.7071 0.7071 793.9438 -580.7499)" opacity="0.7" fill="#FFF2B5" width="10" height="10"/>
<rect x="1724.999" y="495" transform="matrix(0.7071 0.7071 -0.7071 0.7071 860.2584 -1076.8474)" opacity="0.7" fill="#FFF2B5" width="10" height="10"/>
<rect x="1397.999" y="656" transform="matrix(0.7071 0.7071 -0.7071 0.7071 878.3265 -798.4677)" opacity="0.7" fill="#FFF2B5" width="10" height="10"/>
<rect x="1522.999" y="345" transform="matrix(0.7071 0.7071 -0.7071 0.7071 695.028 -977.9458)" opacity="0.7" fill="#FFF2B5" width="10" height="10"/>
<rect x="1697.999" y="139" transform="matrix(0.7071 0.7071 -0.7071 0.7071 600.6202 -1162.0255)" opacity="0.7" fill="#FFF2B5" width="10" height="10"/>
</svg>
