<svg xmlns="http://www.w3.org/2000/svg" width="1920" height="1880" viewBox="0 0 1920 1880"><path opacity=".7" fill="#FFF2B5" d="M569.004 1351.916l7.071 7.071-7.07 7.071-7.072-7.071zM1139.001 1461.911l7.071 7.071-7.07 7.071-7.072-7.07zM1216.002 1587.91l7.07 7.071-7.07 7.071-7.071-7.071zM285.004 1091.92l7.071 7.07-7.07 7.072-7.072-7.071zM292.006 1358.73l13.26 13.26-13.26 13.258-13.259-13.259zM1767.997 1489.72l13.26 13.258-13.26 13.26-13.259-13.26zM1592 1581.72l13.258 13.26-13.259 13.258-13.259-13.259zM783.003 1316.727l13.259 13.26-13.26 13.258-13.258-13.259zM783.005 1601.726l13.258 13.258-13.258 13.26-13.26-13.26zM1668.995 1065.723l13.259 13.26-13.259 13.258-13.259-13.259zM724.998 619.733l13.26 13.259-13.26 13.258-13.258-13.259zM340 473.736l13.259 13.26L340 500.253l-13.259-13.259zM1011.996 486.732l13.258 13.258-13.258 13.26-13.26-13.26zM651.996 231.736l13.259 13.259-13.259 13.258-13.259-13.258zM125.006 1187.92l7.071 7.071-7.07 7.071-7.072-7.07zM421.006 1418.916l7.07 7.071-7.07 7.071-7.071-7.07zM569.006 1649.914l7.071 7.071-7.07 7.071-7.072-7.071zM175.01 1771.916l7.07 7.07-7.07 7.072-7.071-7.071zM337.936 1540.672l2.402 2.403-2.402 2.401-2.402-2.403zM103.959 901.637l2.402 2.403-2.402 2.4-2.402-2.402zM324.965 955.65l2.401 2.403-2.402 2.4-2.401-2.402zM131.93 1500.66l2.402 2.404-2.402 2.4-2.402-2.402zM324.976 715.641l2.402 2.403-2.402 2.401-2.402-2.403zM181.989 356.62l2.401 2.404-2.402 2.4-2.401-2.402zM245.004 93.614l2.402 2.403-2.402 2.401-2.402-2.403zM461.971 918.656l2.402 2.402-2.402 2.401-2.402-2.402zM932 672.67l2.403 2.402-2.402 2.401-2.402-2.402zM552.997 471.644l2.402 2.402-2.402 2.401-2.402-2.403zM1331.028 416.68l2.402 2.403-2.402 2.4-2.402-2.402zM1782.049 340.7l2.401 2.402-2.402 2.401-2.401-2.403zM1496.044 229.681l2.401 2.403-2.402 2.401-2.401-2.403zM462.003 279.632l2.402 2.403-2.402 2.4-2.402-2.402zM1243.013 658.685l2.402 2.402-2.402 2.401-2.402-2.402zM1640.02 825.71l2.401 2.403-2.402 2.401-2.401-2.403zM1815.02 937.723l2.402 2.403-2.402 2.401-2.401-2.403zM1526.007 995.711l2.402 2.403-2.402 2.4-2.402-2.402zM1685.001 1232.728l2.402 2.403-2.402 2.4-2.402-2.402zM1754.997 1363.736l2.402 2.403-2.402 2.4-2.402-2.402zM1767.98 1714.75l2.402 2.403-2.402 2.4-2.402-2.402zM1493.984 1428.726l2.402 2.402-2.402 2.401-2.402-2.402zM1332.982 1349.715l2.402 2.402-2.402 2.401-2.402-2.402zM929.963 1430.698l2.402 2.402-2.402 2.401-2.402-2.402zM680.952 1466.687l2.402 2.402-2.402 2.401-2.402-2.402zM242.927 1645.672l2.402 2.402-2.402 2.401-2.402-2.402zM1088.975 1316.701l2.401 2.403-2.402 2.401-2.401-2.403zM1058.957 1661.713l2.401 2.402-2.402 2.401-2.401-2.402zM1409.989 1273.716l2.401 2.402-2.402 2.401-2.401-2.402zM1244.976 1416.713l2.401 2.403-2.402 2.4-2.401-2.402zM1348.973 1542.723l2.402 2.402-2.402 2.401-2.402-2.402zM881.003 1526.913l7.071 7.07-7.07 7.072-7.072-7.071zM1675.994 889.912l7.07 7.07-7.07 7.072-7.071-7.071zM1598.997 1337.909l7.071 7.071-7.07 7.071-7.072-7.071zM1461 1658.908l7.071 7.07-7.07 7.072-7.072-7.071zM1774.992 731.912l7.07 7.07-7.07 7.072-7.071-7.071zM530 667.92l7.071 7.072-7.071 7.07-7.071-7.07zM1097.996 660.917l7.071 7.071-7.07 7.071-7.072-7.071zM1729.99 492.914l7.072 7.07-7.071 7.072-7.071-7.071zM1402.994 653.915l7.071 7.071-7.071 7.071-7.071-7.071zM1527.991 342.916l7.071 7.071-7.07 7.071-7.072-7.07zM1702.988 136.916l7.071 7.071-7.07 7.071-7.072-7.07z"/></svg>