<svg width="259" height="355" viewBox="0 0 259 355" xmlns="http://www.w3.org/2000/svg" xmlns:xlink="http://www.w3.org/1999/xlink"><title>top_right_crystals</title><desc>Created using Figma</desc><use xlink:href="#a" transform="matrix(.89671 .44248 .42595 -.9049 29.8 203.59)" fill="#97FFC3"/><use xlink:href="#b" transform="matrix(.89671 .44248 .42595 -.9049 -7.87 185.18)" fill="#3ED38D"/><use xlink:href="#c" transform="matrix(.91748 .39696 .3268 -.94584 .15 156.58)" fill="url(#d)"/><use xlink:href="#e" transform="matrix(.91598 .40045 .3344 -.94313 40.28 161.71)" fill="url(#f)"/><use xlink:href="#g" transform="matrix(.89671 .44248 .42595 -.9049 78.07 179.38)" fill="url(#h)"/><use xlink:href="#i" transform="matrix(.89671 .44248 .42595 -.9049 2.26 190.18)" fill="url(#j)"/><use xlink:href="#k" transform="matrix(.91748 .39696 .3268 -.94584 -5.4 172.32)" fill="url(#l)"/><g><use xlink:href="#m" transform="matrix(.99804 .06265 .04937 -.99878 180.01 354.59)" fill="#97FFC3"/><use xlink:href="#n" transform="matrix(.99804 .06265 .04937 -.99878 135.48 352.16)" fill="#3ED38D"/><use xlink:href="#o" transform="matrix(.9987 -.01994 -.01574 -1.00074 133.02 300.9)" fill="url(#p)"/><use xlink:href="#q" transform="matrix(.9989 -.0137 -.01081 -1.00074 175 292.13)" fill="url(#r)"/><use xlink:href="#s" transform="matrix(.99804 .06265 .04937 -.99878 218.15 281.06)" fill="url(#t)"/><use xlink:href="#u" transform="matrix(.99804 .06265 .04937 -.99878 149.53 353.04)" fill="url(#v)"/><use xlink:href="#w" transform="matrix(.9987 -.01994 -.01574 -1.00074 133.23 328.89)" fill="url(#x)"/></g><defs><linearGradient id="d" x2="1" gradientUnits="userSpaceOnUse" gradientTransform="matrix(-1.95772 155.684 -64.4193 -1.01516 53.916 -1.715)"><stop offset="0" stop-color="#219653"/><stop offset=".702" stop-color="#3D7F9B"/><stop offset="1" stop-color="#1C215D"/></linearGradient><linearGradient id="f" x2="1" gradientUnits="userSpaceOnUse" gradientTransform="matrix(0 169.53 -62.5194 0 62.52 5.16)"><stop offset="0" stop-color="#249769"/><stop offset=".442" stop-color="#98FFC3"/><stop offset=".895" stop-color="#1C215D"/></linearGradient><linearGradient id="h" x2="1" gradientUnits="userSpaceOnUse" gradientTransform="matrix(0 163.32 -23.8011 0 26.134 2.985)"><stop offset="0" stop-color="#7AE9A8"/><stop offset="1" stop-color="#1C215D"/></linearGradient><linearGradient id="j" x2="1" gradientUnits="userSpaceOnUse" gradientTransform="matrix(-48.8548 -27.2911 42.8332 -35.5405 22.373 44.365)"><stop offset="0" stop-color="#265D93"/><stop offset=".812" stop-color="#B1E8C9" stop-opacity=".765"/><stop offset=".812" stop-color="#B1E8C9" stop-opacity=".759"/><stop offset=".895" stop-color="#B1E8C9" stop-opacity=".764"/><stop offset=".967" stop-color="#B1E8C9" stop-opacity=".367"/><stop offset=".967" stop-color="#B1E8C9" stop-opacity=".769"/><stop offset="1" stop-color="#B1E8C9" stop-opacity=".765"/><stop offset="1" stop-color="#B1E8C9" stop-opacity=".755"/><stop offset="1" stop-color="#B1E8C9" stop-opacity="0"/><stop offset="1" stop-color="#B1E8C9" stop-opacity=".771"/><stop offset="1" stop-color="#B1E8C9" stop-opacity=".771"/></linearGradient><linearGradient id="l" x2="1" gradientUnits="userSpaceOnUse" gradientTransform="matrix(0 127.218 -52.5027 0 -50.19 20.615)"><stop offset="0" stop-color="#2A9A5A"/><stop offset="1" stop-color="#219653" stop-opacity="0"/></linearGradient><linearGradient id="p" x2="1" gradientUnits="userSpaceOnUse" gradientTransform="matrix(2.6754 254.665 -64.0427 .85101 54.706 -3.437)"><stop offset="0" stop-color="#219653"/><stop offset=".414" stop-color="#218E54"/><stop offset="1" stop-color="#1C215D"/></linearGradient><linearGradient id="r" x2="1" gradientUnits="userSpaceOnUse" gradientTransform="matrix(0 292.622 -65.6912 0 65.11 21.223)"><stop offset="0" stop-color="#249769"/><stop offset=".326" stop-color="#73EFA7"/><stop offset=".816" stop-color="#1C215D"/></linearGradient><linearGradient id="t" x2="1" gradientUnits="userSpaceOnUse" gradientTransform="matrix(-1.3175 232.881 -20.518 -.1472 25.035 5.249)"><stop offset="0" stop-color="#7AE9A8"/><stop offset="1" stop-color="#1C215D"/></linearGradient><linearGradient id="v" x2="1" gradientUnits="userSpaceOnUse" gradientTransform="matrix(-51.2076 -47.3155 44.896 -61.6177 21.214 78.124)"><stop offset="0" stop-color="#265D93"/><stop offset=".812" stop-color="#B1E8C9" stop-opacity=".765"/><stop offset=".812" stop-color="#B1E8C9" stop-opacity=".759"/><stop offset=".895" stop-color="#B1E8C9" stop-opacity=".764"/><stop offset=".967" stop-color="#B1E8C9" stop-opacity=".769"/><stop offset=".967" stop-color="#B1E8C9" stop-opacity=".367"/><stop offset="1" stop-color="#B1E8C9" stop-opacity=".765"/><stop offset="1" stop-color="#B1E8C9" stop-opacity="0"/><stop offset="1" stop-color="#B1E8C9" stop-opacity=".755"/><stop offset="1" stop-color="#B1E8C9" stop-opacity=".771"/><stop offset="1" stop-color="#B1E8C9" stop-opacity=".771"/></linearGradient><linearGradient id="x" x2="1" gradientUnits="userSpaceOnUse" gradientTransform="matrix(0 219.449 -55.1863 0 -52.756 35.56)"><stop offset="0" stop-color="#2A9A5A"/><stop offset="1" stop-color="#219653" stop-opacity="0"/></linearGradient><path id="a" d="M0 0l49.659 43.033-14.584 14.96L0 0z"/><path id="b" d="M41.78 0l33.524 53.935L0 46.531 41.78 0z"/><path id="c" d="M0 0l39.793 16.305 15.843 163.651s-17.949-6.218-37.882-12.987L0 0z"/><path id="e" d="M0 5.16c11.22-7.35 34.48-7.685 42.707 4.503L61.313 174.76l-46.943-6.399L0 5.16z"/><path id="g" d="M0 10.71L16.112 0l10.022 166.305H2.333L0 10.709z"/><path id="i" d="M30.48 0L18.11 26.595 0 15.935 30.48 0z"/><path id="k" d="M0 16.79l39.894 16.204-4.878-17.967S27.245-11.238 11.45 5.68L0 16.79z"/><path id="m" d="M0 0l51.535 75.274-15.423 25.704L0 0z"/><path id="n" d="M44.607 0l34.138 86.129L0 81.878 44.607 0z"/><path id="o" d="M0 0l43.36 26.6L61.093 299.45s-18.587-2.168-42.047-8.008L0 0z"/><path id="q" d="M0 18.224c36.627-31.314 31.574-16.855 44.089 3L62.61 286.368l-46.438 5.158L0 18.224z"/><path id="s" d="M0 10.72L16.745 0l9.515 276.869H1.97L0 10.719z"/><path id="u" d="M30.532 0L16.745 47.315 0 26.985 30.532 0z"/><path id="w" d="M0 28.964L42.486 54.11l-5.68-28.19s-8.169-45.306-24.77-16.124L0 28.964z"/></defs></svg>