<svg width="35" height="30" viewBox="0 0 35 30" xmlns="http://www.w3.org/2000/svg" xmlns:xlink="http://www.w3.org/1999/xlink"><title>twitter_icon</title><desc>Created using Figma</desc><use xlink:href="#a" transform="translate(0 .65)" fill="#FFF"/><defs><path id="a" d="M34.932 3.416c-1.286.58-2.665.973-4.115 1.149a7.301 7.301 0 0 0 3.15-4.032 14.295 14.295 0 0 1-4.553 1.77A7.089 7.089 0 0 0 24.184 0c-3.958 0-7.167 3.265-7.167 7.29 0 .571.064 1.129.186 1.662-5.955-.304-11.235-3.208-14.77-7.62a7.335 7.335 0 0 0-.968 3.666 7.323 7.323 0 0 0 3.187 6.069 7.072 7.072 0 0 1-3.246-.916v.091c0 3.532 2.47 6.48 5.747 7.15a7.14 7.14 0 0 1-1.888.256c-.463 0-.91-.046-1.349-.135.912 2.899 3.558 5.007 6.693 5.064a14.22 14.22 0 0 1-8.9 3.117c-.578 0-1.148-.035-1.709-.1a20.002 20.002 0 0 0 10.984 3.281c13.182 0 20.388-11.111 20.388-20.747l-.024-.944a14.451 14.451 0 0 0 3.584-3.768z"/></defs></svg>