<svg width="1076" height="224" viewBox="0 0 1076 224" xmlns="http://www.w3.org/2000/svg" xmlns:xlink="http://www.w3.org/1999/xlink"><title>Stars</title><desc>Created using Figma</desc><use xlink:href="#a" transform="rotate(42.976 95.814 429.708) skewX(.001)" fill="#FFFFBD" fill-opacity=".6"/><use xlink:href="#b" transform="rotate(135.514 152.114 97.561) skewX(-.001)" fill="#FFFFBD" fill-opacity=".6"/><use xlink:href="#c" transform="matrix(.66427 .74749 -.61081 .79178 840.48 109)" fill="#FFFFBD" fill-opacity=".8"/><use xlink:href="#d" transform="matrix(-.64453 .76458 -.63095 -.77583 850.7 121.584)" fill="#FFFFBD" fill-opacity=".8"/><use xlink:href="#e" transform="matrix(.67581 .73708 -.62275 .78242 213.49 209)" fill="#FFFFBD" fill-opacity=".8"/><use xlink:href="#f" transform="matrix(-.65625 .75454 -.64278 -.76605 219.81 216.551)" fill="#FFFFBD" fill-opacity=".8"/><use xlink:href="#g" transform="matrix(.69618 .71787 -.64402 .765 1070.49 109)" fill="#FFFFBD" fill-opacity=".8"/><use xlink:href="#h" transform="matrix(-.67702 .73596 -.66378 -.74793 1075.84 115.04)" fill="#FFFFBD" fill-opacity=".8"/><g opacity=".4"><use xlink:href="#g" transform="matrix(.69618 .71787 -.64402 .765 904.49 20)" fill="#FFFFBD" fill-opacity=".8"/><use xlink:href="#h" transform="matrix(-.67702 .73596 -.66378 -.74793 909.84 26.04)" fill="#FFFFBD" fill-opacity=".8"/></g><g><use xlink:href="#i" transform="matrix(.78094 .6246 -.73543 .6776 414.49 0)" fill="#FFFFBD" fill-opacity=".6" opacity=".4"/><use xlink:href="#j" transform="matrix(-.76451 .64461 -.75296 -.65807 420.81 5.537)" fill="#FFFFBD" fill-opacity=".6" opacity=".4"/></g><g><use xlink:href="#i" transform="matrix(.78094 .6246 -.73543 .6776 442.49 15)" fill="#FFFFBD" fill-opacity=".6" opacity=".4"/><use xlink:href="#j" transform="matrix(-.76451 .64461 -.75296 -.65807 448.81 20.537)" fill="#FFFFBD" fill-opacity=".6" opacity=".4"/></g><g><use xlink:href="#i" transform="matrix(.78094 .6246 -.73543 .6776 6.49 50)" fill="#FFFFBD" fill-opacity=".6" opacity=".4"/><use xlink:href="#j" transform="matrix(-.76451 .64461 -.75296 -.65807 12.81 55.537)" fill="#FFFFBD" fill-opacity=".6" opacity=".4"/></g><defs><path id="a" d="M0 0l12.625 2.406 1.957 12.71L1.957 12.71 0 0z"/><path id="b" d="M0 0l12.884 2.358 1.996 12.459-12.883-2.358L0 0z"/><path id="c" d="M0 0l13.707 2.646 2.124 13.983-13.707-2.647L0 0z"/><path id="d" d="M0 0l14.057 2.581 2.178 13.64L2.18 13.639 0 0z"/><path id="e" d="M0 0l8.34 1.607 1.293 8.49-8.34-1.607L0 0z"/><path id="f" d="M0 0l8.547 1.569L9.87 9.856 1.325 8.288 0 0z"/><path id="g" d="M0 0l6.85 1.315L7.913 8.26l-6.85-1.315L0 0z"/><path id="h" d="M0 0l7.01 1.285 1.086 6.791-7.01-1.285L0 0z"/><path id="i" d="M0 0l7.218 1.36 1.118 7.19-7.217-1.361L0 0z"/><path id="j" d="M0 0l7.336 1.34 1.137 7.074-7.336-1.34L0 0z"/></defs></svg>