<svg xmlns="http://www.w3.org/2000/svg" viewBox="-209 176.6 251.3 208.5"><g fill="#58676D"><path d="M-205.7 351.8v-8.1h5.8v8.1h4.7v4.7h-4.7v13.8c0 1.3.6 1.7 2.1 1.7.9 0 1.8-.3 2.6-.5v4.8c-1.6.2-3 .4-4.6.4-4.3 0-5.9-2.2-5.9-5.6v-14.5h-3.3v-4.7l3.3-.1zM-186.6 364.9c.1 5 2.3 7 5 7s3.9-1.2 5.4-2.9l4.2 2.6c-2.2 3.5-5.5 5-10.1 5-6.3 0-10.2-4.9-10.2-12.6s3.9-12.6 10.5-12.6c6.3 0 9.9 5.3 9.9 11.2v2.4h-14.7v-.1zm9.3-3.9c-.1-3.4-1.9-5.3-4.6-5.3-2.8 0-4.5 2-4.6 5.3h9.2zM-153.3 359.7c-.9-2.1-1.9-3.7-4.8-3.7-3.2 0-4.7 2.5-4.7 8 0 5.4 1.5 7.9 4.9 7.9 2.5 0 3.9-1.7 5.1-3.9l4.4 2.5c-2.3 4.3-5.3 6.1-9.7 6.1-6.5 0-10.5-4.9-10.5-12.6 0-7.7 3.9-12.6 10.5-12.6 4.6 0 8.2 2.4 9.5 6.5l-4.7 1.8zM-144.1 376.1v-33.8h5.8v12.1c1.8-1.5 4.1-3.1 6.9-3.1 4.8 0 7.2 3.2 7.2 8.1v16.7h-5.8v-15.8c0-3.3-1-4.3-3-4.3-2.5 0-4.4 1.5-5.4 2.6v17.6h-5.7v-.1zM-118.3 376.1v-24.3h5.3v2.6c2.1-1.5 4.6-3.1 7.4-3.1 4.8 0 7.1 3.2 7.1 8.1v16.7h-5.7v-15.8c0-3.3-1-4.3-3-4.3-2.5 0-4.4 1.5-5.4 2.6v17.6h-5.7v-.1zM-83.9 351.3c6.6 0 10.5 4.9 10.5 12.6 0 7.7-3.9 12.6-10.5 12.6s-10.5-4.9-10.5-12.6c.1-7.7 4-12.6 10.5-12.6zm0 4.7c-3.2 0-4.7 2.5-4.7 8 0 5.4 1.5 7.9 4.7 7.9s4.7-2.5 4.7-7.9c.1-5.5-1.5-8-4.7-8zM-68.7 376.1v-33.8h5.7v33.8h-5.7zM-47.8 351.3c6.6 0 10.5 4.9 10.5 12.6 0 7.7-3.9 12.6-10.5 12.6s-10.5-4.9-10.5-12.6c.1-7.7 4-12.6 10.5-12.6zm0 4.7c-3.2 0-4.7 2.5-4.7 8 0 5.4 1.5 7.9 4.7 7.9s4.7-2.5 4.7-7.9c.1-5.5-1.4-8-4.7-8zM-13.5 355.3c-1.3 0-2.8 0-3.7.6.8 1 1.3 2.4 1.3 4.3 0 4.6-3.1 7.9-9.1 7.9-2.5 0-4.5.1-4.5 1.5 0 3.9 15.9-1.4 15.9 8.3 0 3.5-3.5 7.2-11.2 7.2-6.5 0-10.8-2-10.8-5.8 0-3 2.3-4.5 4.3-4.5v-.2c-1.1-.7-3.6-1.3-3.6-3.9 0-2.3 2.7-4.1 3.8-4.4-2-1.6-3.6-3.5-3.6-6.4 0-4.3 3.2-8.5 9.5-8.5 2 0 4.5.9 5.9 2.2 1.1-1.5 2.9-2.3 5.7-2.2v3.9h.1zm-16.8 23.2c0 1.8 1.6 2.7 6.4 2.7 3.7 0 5-1.9 5-2.7 0-1.1-1.7-2.8-7.3-2.8-3.2 0-4.1 1.7-4.1 2.8zm5.1-22.9c-2.5 0-4.2 1.8-4.2 4s1.7 4 4.2 4c2.2 0 3.9-1.8 3.9-4 .1-2.2-1.7-4-3.9-4zM-9.4 347.3v-5.4h5.7v5.4h-5.7zm5.8 21.7v7.2h-5.7v-24.3h5.7V369zM6.8 364.9c.1 5 2.3 7 5 7s3.9-1.2 5.4-2.9l4.2 2.6c-2.2 3.5-5.5 5-10.1 5-6.3 0-10.2-4.9-10.2-12.6s3.9-12.6 10.5-12.6c6.3 0 9.9 5.3 9.9 11.2v2.4H6.8v-.1zm9.3-3.9c-.1-3.4-1.9-5.3-4.7-5.3-2.8 0-4.6 2-4.6 5.3h9.3zM37.9 358.2c-1.2-1.3-2.7-2.6-4.5-2.6-2.2 0-3.2.9-3.2 2.4 0 4.2 12.1 2.4 12.1 11.3 0 5-3.8 7.3-8.9 7.3-3.8 0-7-1.7-9.1-4.9l3.9-2.9c1.3 1.9 3.1 3.5 5.6 3.5 2 0 3.4-1.1 3.4-2.8 0-4.1-12.1-2.6-12.1-11.1 0-4.5 3.8-7.1 8-7.1 3.2 0 6.4 1.2 8.5 3.7l-3.7 3.2zM-34.6 282.9c-4.6 7.1-12 11.5-20.2 11.5-11.2 0-20.5-5.1-20.5-17.2 0-17.9 26.1-24.2 46.1-25.4v5.3c.1 11.6-.1 17.8-5.4 25.8zm-37.2-64.3c3-8.1 11.1-11.6 22.1-11.6 15.7 0 20.2 11 20.4 20.1l.1 4.4c-43.4 2.1-84.2 10.2-83.4 49.9.6 27.8 25.7 39.2 43 39.1 20.1 0 31.3-5.4 42.4-19.1.2 5.8.9 11.9 1.9 16.4h38.9c-2.2-6.8-2.7-13.6-2.7-20.7V225c0-17.5-3.3-27.3-12.7-35.8-8.9-8.1-23.5-12.6-43.2-12.6-18 0-33.5 4.1-44.9 11.9 9.4 7.4 15.6 17.7 18.1 30.1z"/><path d="M-114.8 279.9v3.6c.6 14.2 7.5 23 13.9 28.3-10.8 6.2-23.6 8.8-35.1 8.8-42 0-66.8-29.7-66.8-70.6 0-42.6 25.6-73.4 69.3-73.4 31.7 0 57.7 16.8 60.5 49.7h-38.1c0-12.5-8.8-19.2-21.1-19.2-19.7 0-25.8 13.9-25.8 39.5 0 26 5.7 41.2 25.9 41.2 7.5.1 13.7-2.5 17.3-7.9z"/></g></svg>