<svg xmlns="http://www.w3.org/2000/svg" height="80" width="504.818"><path d="M129.621 64.995c-3.884 2.37-10.468 3.62-16.458 3.62-16.392 0-23.108-9.545-23.108-24.817 0-14.025 8.098-24.49 24.49-24.49 5.464 0 11.323 1.382 14.945 3.75v12.904l-7.242-.591-1.053-6.452c-.132-.659-.395-.988-1.054-1.185-1.448-.462-3.686-.79-5.859-.79-8.361 0-13.694 5.66-13.694 16.854 0 11.65 5.07 17.313 13.233 17.313 2.173 0 4.872-.33 6.583-.856.79-.197.987-.396 1.185-1.382l.988-6.122h7.044v12.244M157.601 50.513c0-7.77-2.37-10.535-6.648-10.535-4.345 0-7.243 2.7-7.243 10.599 0 7.966 2.568 11.127 6.98 11.127 4.28 0 6.911-2.964 6.911-11.191zm-24.292.393c0-10.928 5.728-18.038 17.776-18.038 12.179 0 16.919 7.243 16.919 17.315 0 11.192-5.662 18.433-17.775 18.433-12.048 0-16.92-7.374-16.92-17.71M201.514 65.39c-3.028 1.843-7.7 3.226-12.506 3.226-11.918 0-17.25-7.439-17.25-17.447 0-12.31 7.506-18.301 18.04-18.301 5.134 0 9.676 1.448 11.716 2.766V45.97l-7.042-.33-.79-4.346c-.066-.46-.198-.854-.79-1.052-.79-.264-2.042-.46-3.358-.46-3.95 0-7.308 2.698-7.308 10.4 0 8.558 3.82 10.995 8.492 10.995 3.292 0 6.255-1.055 8.23-1.91l2.566 6.124M230.156 67.826l-8.362-16.787-3.556 3.884v5.925c0 1.053.067 1.185 1.054 1.316l3.95.462v5.2h-19.289v-5.2l3.292-.462c.921-.13 1.053-.33 1.053-1.316v-34.76c0-.725-.197-1.185-.856-1.382l-3.62-1.251.723-5.333h13.693v28.11l12.048-12.705h9.086v5.202l-3.424.656c-.856.133-1.054.33-1.646.989l-4.674 4.936 8.426 15.735c.462.922.923 1.052 1.975 1.185l2.897.46v5.136h-12.77M245.957 67.826v-5.333l2.963-.396c.921-.13 1.053-.327 1.053-1.315V41.493c0-.725-.197-1.185-.856-1.382l-3.555-1.252.724-5.332h11.587l.79 5.266h.395c2.172-3.358 5.068-5.925 9.282-5.925 1.514 0 4.542.265 5.728.592v11.983l-7.9-.263-.658-3.49c-.132-.593-.329-.723-.856-.723-1.712 0-3.753 1.447-4.74 2.302v17.446c0 1.055.066 1.252 1.054 1.318l6.517.527v5.266h-21.528M301.324 50.513c0-7.77-2.37-10.535-6.648-10.535-4.346 0-7.243 2.7-7.243 10.599 0 7.966 2.568 11.127 6.98 11.127 4.279 0 6.91-2.964 6.91-11.191zm-24.292.393c0-10.928 5.728-18.038 17.776-18.038 12.178 0 16.918 7.243 16.918 17.315 0 11.192-5.66 18.433-17.774 18.433-12.048 0-16.92-7.374-16.92-17.71M334.374 53.67l-4.476.33c-3.885.264-5.268 1.252-5.268 3.884 0 2.634 1.582 3.62 3.754 3.62 2.238 0 4.477-1.249 5.99-2.368zm1.778 14.156l-.658-3.555-.33-.066c-2.502 2.436-5.792 4.41-11.059 4.41-8.296 0-9.612-5.661-9.612-9.742 0-6.584 4.081-9.612 12.31-10.139l7.571-.526v-3.62c0-3.095-.329-5.203-4.41-5.203-3.16 0-4.806.462-4.806 4.413l-9.282-.792c0-8.887 8.097-10.138 14.154-10.138 10.007 0 14.022 2.7 14.022 11.916v15.998c0 1.052.066 1.185 1.054 1.315l3.16.529v5.2h-12.114M379.472 65.39c-3.027 1.843-7.702 3.226-12.507 3.226-11.916 0-17.25-7.439-17.25-17.447 0-12.31 7.506-18.301 18.04-18.301 5.134 0 9.677 1.448 11.717 2.766V45.97l-7.043-.33-.79-4.346c-.066-.46-.198-.854-.79-1.052-.79-.264-2.041-.46-3.357-.46-3.95 0-7.308 2.698-7.308 10.4 0 8.558 3.818 10.995 8.492 10.995 3.292 0 6.254-1.055 8.23-1.91l2.566 6.124M408.39 67.826V46.364c0-1.975-.2-5.596-3.49-5.596-2.436 0-5.2 1.252-6.847 2.437v17.643c0 1.053.065 1.185 1.053 1.316l3.16.462v5.2h-18.169v-5.2l2.963-.462c.92-.13 1.052-.33 1.052-1.316v-34.76c0-.725-.198-1.185-.856-1.382l-3.62-1.251.724-5.333h13.561v18.632l.33.064c2.962-2.436 6.386-3.95 10.533-3.95 6.977 0 9.545 3.819 9.545 10.664v17.316c0 1.053.067 1.185 1.055 1.316l3.29.462v5.2H408.39M15.57 0C11.734 0 8.006.49 4.468 1.434A40.356 40.356 0 0 0 .111 2.826a.173.173 0 0 0-.096.233 43.622 43.622 0 0 0 2.051 3.908c.041.07.127.1.203.072A41.013 41.013 0 0 1 6.8 5.701c2.82-.657 5.76-.992 8.771-.992a38.984 38.984 0 0 1 20.197 5.629 43.818 43.818 0 0 0-9.441 11.197c-.49.813-.93 1.638-1.361 2.475a47.81 47.81 0 0 0-.838 1.732 44.81 44.81 0 0 0-1.112 2.713 43.54 43.54 0 0 0-2.736 15.227c0 12.369 5.175 23.554 13.469 31.513.646.634 1.314 1.23 2.02 1.817.549.478 1.1.92 1.673 1.351a34.223 34.223 0 0 0 2.235 1.608.172.172 0 0 0 .19 0c.757-.517 1.501-1.046 2.224-1.608a26.23 26.23 0 0 0 1.685-1.351 42.453 42.453 0 0 0 2.031-1.817c8.282-7.96 13.457-19.156 13.457-31.513a43.475 43.475 0 0 0-3.859-17.94 46.765 46.765 0 0 0-.814-1.732 50.152 50.152 0 0 0-1.373-2.475 44.06 44.06 0 0 0-9.442-11.197 38.982 38.982 0 0 1 20.197-5.629c3.012 0 5.952.335 8.772.992 1.543.36 3.065.809 4.531 1.338a.165.165 0 0 0 .2-.072 46.448 46.448 0 0 0 2.05-3.906c.042-.09 0-.2-.094-.235a42.098 42.098 0 0 0-4.357-1.392A43.024 43.024 0 0 0 63.972 0c-8.939 0-17.257 2.69-24.2 7.314A43.442 43.442 0 0 0 15.57 0zm24.213 13.143a39.28 39.28 0 0 1 8.77 9.783c-2.814.659-5.757 1-8.77 1-3.014 0-5.956-.341-8.781-1a39.113 39.113 0 0 1 8.781-9.783zM26.793 31.98a38.739 38.739 0 0 1 10.62 26.72c0 4.066-.62 8-1.788 11.704-6.596-6.982-10.639-16.385-10.639-26.72 0-4.075.639-8.007 1.807-11.704zm25.972 0a39.047 39.047 0 0 1 1.79 11.704c0 10.335-4.041 19.738-10.637 26.72a39.146 39.146 0 0 1-1.79-11.705A38.755 38.755 0 0 1 52.766 31.98z" fill="#1a2844"/><path d="M448.974 60.864h3.918c1.74 0 3.36-.177 4.858-.533 1.5-.353 2.796-.942 3.892-1.764 1.096-.821 1.96-1.902 2.588-3.24.627-1.336.942-2.972.942-4.907 0-1.676-.315-3.134-.942-4.376a8.778 8.778 0 0 0-2.538-3.07c-1.064-.806-2.315-1.41-3.748-1.813a16.614 16.614 0 0 0-4.52-.604h-4.45zm-7.542-27.27h11.314c2.74 0 5.343.307 7.808.92 2.466.612 4.618 1.603 6.455 2.973 1.837 1.37 3.296 3.15 4.376 5.342 1.08 2.192 1.62 4.852 1.62 7.977 0 2.773-.524 5.216-1.57 7.325-1.049 2.112-2.46 3.886-4.233 5.318-1.773 1.435-3.82 2.524-6.14 3.266-2.32.741-4.754 1.111-7.3 1.111h-12.33V33.595M485.478 61.445h6.77a8.21 8.21 0 0 0 1.764-.196 4.63 4.63 0 0 0 1.62-.677c.482-.32.878-.739 1.184-1.255.306-.516.46-1.146.46-1.887 0-.805-.202-1.457-.604-1.957a3.859 3.859 0 0 0-1.523-1.137 7.926 7.926 0 0 0-1.983-.532c-.71-.097-1.37-.145-1.982-.145h-5.706zm0-14.167h5.464a7.7 7.7 0 0 0 1.716-.193 4.759 4.759 0 0 0 1.523-.63c.45-.29.813-.676 1.088-1.16.273-.482.41-1.063.41-1.74 0-.71-.151-1.298-.458-1.764a3.207 3.207 0 0 0-1.184-1.09 5.718 5.718 0 0 0-1.645-.556 9.879 9.879 0 0 0-1.788-.169h-5.126zm-7.542-13.683H490.7c1.482 0 2.974.104 4.473.313 1.499.211 2.844.63 4.037 1.258a7.75 7.75 0 0 1 2.9 2.635c.742 1.128 1.112 2.627 1.112 4.496 0 1.935-.54 3.538-1.618 4.812-1.08 1.274-2.507 2.184-4.279 2.73v.097c1.127.162 2.15.476 3.07.944a8.186 8.186 0 0 1 2.369 1.788 7.637 7.637 0 0 1 1.522 2.538c.355.969.532 2 .532 3.094 0 1.806-.388 3.314-1.16 4.52a9.125 9.125 0 0 1-2.998 2.926c-1.224.741-2.603 1.274-4.134 1.596a22.065 22.065 0 0 1-4.569.484h-14.021V33.595" fill="#368e39"/></svg>