<svg xmlns="http://www.w3.org/2000/svg" height="80" width="504.819"><path d="M129.621 64.995c-3.884 2.37-10.468 3.62-16.458 3.62-16.392 0-23.108-9.545-23.108-24.817 0-14.025 8.098-24.49 24.49-24.49 5.464 0 11.323 1.382 14.945 3.75v12.904l-7.242-.591-1.053-6.452c-.132-.659-.395-.988-1.054-1.185-1.448-.462-3.686-.79-5.859-.79-8.361 0-13.694 5.66-13.694 16.854 0 11.65 5.07 17.313 13.233 17.313 2.173 0 4.872-.33 6.583-.856.79-.197.988-.396 1.185-1.382l.988-6.122h7.044v12.244M157.601 50.513c0-7.77-2.37-10.535-6.648-10.535-4.345 0-7.242 2.7-7.242 10.599 0 7.966 2.568 11.127 6.98 11.127 4.278 0 6.91-2.964 6.91-11.191zm-24.292.393c0-10.928 5.728-18.038 17.776-18.038 12.179 0 16.919 7.243 16.919 17.315 0 11.192-5.661 18.433-17.775 18.433-12.048 0-16.92-7.374-16.92-17.71M201.515 65.39c-3.028 1.843-7.702 3.226-12.507 3.226-11.917 0-17.25-7.439-17.25-17.447 0-12.31 7.506-18.301 18.04-18.301 5.134 0 9.677 1.448 11.717 2.766V45.97l-7.043-.33-.79-4.346c-.066-.46-.198-.854-.79-1.052-.79-.264-2.041-.46-3.357-.46-3.951 0-7.308 2.698-7.308 10.4 0 8.558 3.818 10.995 8.492 10.995 3.292 0 6.254-1.055 8.229-1.91l2.567 6.124M230.156 67.826l-8.361-16.787-3.556 3.884v5.925c0 1.053.066 1.185 1.053 1.316l3.95.462v5.2h-19.289v-5.2l3.292-.462c.922-.13 1.054-.33 1.054-1.316v-34.76c0-.725-.198-1.185-.856-1.382l-3.622-1.251.724-5.333h13.694v28.11l12.048-12.705h9.085v5.202l-3.424.656c-.856.133-1.053.33-1.645.989l-4.675 4.936 8.427 15.735c.46.922.922 1.052 1.974 1.185l2.898.46v5.136h-12.771M245.957 67.826v-5.333l2.963-.396c.921-.13 1.053-.327 1.053-1.315V41.493c0-.725-.197-1.185-.856-1.382l-3.554-1.252.724-5.332h11.586l.79 5.266h.396c2.172-3.358 5.068-5.925 9.28-5.925 1.516 0 4.544.265 5.729.592v11.983l-7.9-.263-.657-3.49c-.132-.593-.33-.723-.856-.723-1.712 0-3.754 1.447-4.742 2.302v17.446c0 1.055.067 1.252 1.055 1.318l6.517.527v5.266h-21.528M301.324 50.513c0-7.77-2.37-10.535-6.648-10.535-4.345 0-7.243 2.7-7.243 10.599 0 7.966 2.568 11.127 6.98 11.127 4.279 0 6.91-2.964 6.91-11.191zm-24.292.393c0-10.928 5.728-18.038 17.776-18.038 12.179 0 16.919 7.243 16.919 17.315 0 11.192-5.662 18.433-17.775 18.433-12.048 0-16.92-7.374-16.92-17.71M334.375 53.67l-4.476.33c-3.886.264-5.268 1.252-5.268 3.884 0 2.634 1.58 3.62 3.753 3.62 2.239 0 4.477-1.249 5.99-2.368zm1.777 14.156l-.657-3.555-.331-.066c-2.501 2.436-5.792 4.41-11.059 4.41-8.296 0-9.612-5.661-9.612-9.742 0-6.584 4.082-9.612 12.31-10.139l7.572-.526v-3.62c0-3.095-.33-5.203-4.411-5.203-3.16 0-4.805.462-4.805 4.413l-9.283-.792c0-8.887 8.097-10.138 14.155-10.138 10.006 0 14.02 2.7 14.02 11.916v15.998c0 1.052.068 1.185 1.056 1.315l3.158.529v5.2h-12.113M379.472 65.39c-3.027 1.843-7.701 3.226-12.507 3.226-11.916 0-17.25-7.439-17.25-17.447 0-12.31 7.506-18.301 18.04-18.301 5.134 0 9.677 1.448 11.717 2.766V45.97l-7.043-.33-.79-4.346c-.066-.46-.198-.854-.79-1.052-.79-.264-2.041-.46-3.357-.46-3.95 0-7.308 2.698-7.308 10.4 0 8.558 3.819 10.995 8.492 10.995 3.292 0 6.255-1.055 8.23-1.91l2.566 6.124M408.39 67.826V46.364c0-1.975-.2-5.596-3.49-5.596-2.436 0-5.2 1.252-6.847 2.437v17.643c0 1.053.066 1.185 1.054 1.316l3.16.462v5.2h-18.17v-5.2l2.963-.462c.92-.13 1.052-.33 1.052-1.316v-34.76c0-.725-.197-1.185-.856-1.382l-3.62-1.251.724-5.333h13.561v18.632l.33.064c2.962-2.436 6.386-3.95 10.533-3.95 6.977 0 9.545 3.819 9.545 10.664v17.316c0 1.053.067 1.185 1.055 1.316l3.29.462v5.2H408.39M48.552 22.925c-2.814.659-5.756 1-8.77 1-3.013 0-5.956-.341-8.781-1a39.111 39.111 0 0 1 8.782-9.782 39.275 39.275 0 0 1 8.769 9.782zm26.522-21.49A43.033 43.033 0 0 0 63.972 0a43.5 43.5 0 0 0-24.2 7.314C32.84 2.689 24.521 0 15.57 0 11.735 0 8.006.49 4.468 1.434A40.364 40.364 0 0 0 .11 2.827a.173.173 0 0 0-.094.232 43.623 43.623 0 0 0 2.051 3.908c.041.07.126.1.202.073 1.476-.53 2.986-.98 4.53-1.34 2.82-.657 5.76-.991 8.772-.991a38.985 38.985 0 0 1 20.197 5.628 43.823 43.823 0 0 0-9.442 11.198c-.49.813-.931 1.638-1.362 2.474a47.835 47.835 0 0 0-.837 1.733 44.817 44.817 0 0 0-1.111 2.713 43.534 43.534 0 0 0-2.736 15.226c0 12.369 5.174 23.555 13.468 31.514a32.86 32.86 0 0 0 2.02 1.817c.55.478 1.1.92 1.673 1.35a34.244 34.244 0 0 0 2.234 1.61.172.172 0 0 0 .192-.002c.756-.517 1.5-1.046 2.223-1.608.585-.43 1.135-.872 1.685-1.35a42.471 42.471 0 0 0 2.032-1.817c8.281-7.96 13.456-19.157 13.456-31.514a43.468 43.468 0 0 0-3.86-17.939 46.792 46.792 0 0 0-.812-1.733 50.157 50.157 0 0 0-1.375-2.474 44.063 44.063 0 0 0-9.441-11.198A38.98 38.98 0 0 1 63.972 4.71c3.012 0 5.952.334 8.772.992 1.543.36 3.065.81 4.53 1.339a.167.167 0 0 0 .201-.073 46.441 46.441 0 0 0 2.05-3.906.173.173 0 0 0-.094-.234 42.073 42.073 0 0 0-4.357-1.393" fill="#1a2844"/><path d="M448.975 60.864h3.917c1.74 0 3.36-.177 4.859-.533 1.498-.353 2.796-.942 3.892-1.764 1.096-.821 1.958-1.902 2.588-3.24.626-1.336.94-2.972.94-4.907 0-1.676-.314-3.134-.94-4.376a8.778 8.778 0 0 0-2.54-3.07c-1.063-.806-2.314-1.41-3.747-1.813a16.614 16.614 0 0 0-4.52-.604h-4.45zm-7.543-27.27h11.315c2.74 0 5.342.307 7.808.92 2.465.612 4.617 1.603 6.454 2.973 1.838 1.37 3.296 3.15 4.376 5.342 1.08 2.192 1.62 4.852 1.62 7.977 0 2.773-.524 5.216-1.57 7.325-1.048 2.112-2.46 3.886-4.232 5.318-1.774 1.435-3.82 2.524-6.14 3.266-2.322.741-4.755 1.111-7.3 1.111h-12.331V33.595M485.479 61.445h6.769a8.21 8.21 0 0 0 1.764-.196 4.63 4.63 0 0 0 1.62-.677c.483-.32.879-.739 1.184-1.255.307-.516.46-1.146.46-1.887 0-.805-.201-1.457-.604-1.957a3.859 3.859 0 0 0-1.523-1.137 7.927 7.927 0 0 0-1.982-.532c-.711-.097-1.371-.145-1.983-.145h-5.705zm0-14.167h5.464a7.7 7.7 0 0 0 1.716-.193 4.759 4.759 0 0 0 1.522-.63c.45-.29.814-.676 1.088-1.16.274-.482.41-1.063.41-1.74 0-.71-.151-1.298-.458-1.764a3.207 3.207 0 0 0-1.184-1.09 5.718 5.718 0 0 0-1.645-.556 9.879 9.879 0 0 0-1.788-.169h-5.125zm-7.543-13.683H490.7c1.483 0 2.975.104 4.473.313 1.499.211 2.844.63 4.038 1.258a7.75 7.75 0 0 1 2.9 2.635c.74 1.128 1.112 2.627 1.112 4.496 0 1.935-.54 3.538-1.62 4.812-1.08 1.274-2.506 2.184-4.278 2.73v.097c1.127.162 2.15.476 3.07.944a8.186 8.186 0 0 1 2.369 1.788 7.638 7.638 0 0 1 1.523 2.538c.354.969.532 2 .532 3.094 0 1.806-.388 3.314-1.162 4.52a9.125 9.125 0 0 1-2.997 2.926c-1.224.741-2.603 1.274-4.133 1.596a22.065 22.065 0 0 1-4.57.484h-14.021V33.595M54.555 43.684c0 10.335-4.042 19.738-10.637 26.72a39.144 39.144 0 0 1-1.79-11.705 38.758 38.758 0 0 1 10.637-26.72 39.057 39.057 0 0 1 1.79 11.705" fill="#368e39"/><path d="M37.414 58.7c0 4.066-.622 7.999-1.79 11.704-6.595-6.982-10.637-16.385-10.637-26.72 0-4.075.638-8.007 1.806-11.704a38.741 38.741 0 0 1 10.62 26.72" fill="#77c92b"/></svg>