<?xml version="1.0" encoding="UTF-8" standalone="no"?>
<svg
   xmlns:dc="http://purl.org/dc/elements/1.1/"
   xmlns:cc="http://creativecommons.org/ns#"
   xmlns:rdf="http://www.w3.org/1999/02/22-rdf-syntax-ns#"
   xmlns:svg="http://www.w3.org/2000/svg"
   xmlns="http://www.w3.org/2000/svg"
   xmlns:sodipodi="http://sodipodi.sourceforge.net/DTD/sodipodi-0.dtd"
   xmlns:inkscape="http://www.inkscape.org/namespaces/inkscape"
   viewBox="0 0 504.81332 80"
   height="80"
   width="504.81332"
   xml:space="preserve"
   id="svg2"
   version="1.1"
   sodipodi:docname="cockroachdb-transparent.svg"
   inkscape:version="0.92.0 r"><sodipodi:namedview
     pagecolor="#ffffff"
     bordercolor="#666666"
     borderopacity="1"
     objecttolerance="10"
     gridtolerance="10"
     guidetolerance="10"
     inkscape:pageopacity="0"
     inkscape:pageshadow="2"
     inkscape:window-width="958"
     inkscape:window-height="1057"
     id="namedview21"
     showgrid="false"
     inkscape:zoom="1.417538"
     inkscape:cx="251.38776"
     inkscape:cy="-51.701172"
     inkscape:window-x="960"
     inkscape:window-y="21"
     inkscape:window-maximized="0"
     inkscape:current-layer="svg2" /><metadata
     id="metadata8"><rdf:RDF><cc:Work
         rdf:about=""><dc:format>image/svg+xml</dc:format><dc:type
           rdf:resource="http://purl.org/dc/dcmitype/StillImage" /><dc:title></dc:title></cc:Work></rdf:RDF></metadata><defs
     id="defs6" /><path
     id="path14"
     style="fill:#1a2844;fill-opacity:1;fill-rule:nonzero;stroke:none;stroke-width:0.13333333"
     d="m 129.62133,64.9948 c -3.8844,2.370827 -10.46773,3.620827 -16.45827,3.620827 -16.392262,0 -23.107862,-9.545893 -23.107862,-24.817759 0,-14.0244 8.097866,-24.490533 24.490132,-24.490533 5.464,0 11.32293,1.3828 14.9448,3.751466 v 12.9032 l -7.24227,-0.5912 -1.05306,-6.451466 c -0.1312,-0.658934 -0.3948,-0.988667 -1.0536,-1.184934 -1.448,-0.462533 -3.686,-0.7896 -5.85894,-0.7896 -8.36146,0 -13.69373,5.659334 -13.69373,16.853067 0,11.651066 5.06933,17.313066 13.2328,17.313066 2.17293,0 4.87187,-0.3292 6.5828,-0.855734 0.79067,-0.196933 0.9876,-0.395866 1.18547,-1.382266 l 0.98746,-6.121867 h 7.04427 V 64.9948"
     inkscape:connector-curvature="0" /><path
     id="path16"
     style="fill:#1a2844;fill-opacity:1;fill-rule:nonzero;stroke:none;stroke-width:0.13333333"
     d="m 157.60133,50.512534 c 0,-7.769866 -2.36933,-10.5344 -6.648,-10.5344 -4.34533,0 -7.24267,2.700534 -7.24267,10.5984 0,7.966667 2.568,11.127066 6.98,11.127066 4.27867,0 6.91067,-2.963466 6.91067,-11.191066 z m -24.292,0.393733 c 0,-10.928133 5.728,-18.038532 17.776,-18.038532 12.17867,0 16.91867,7.243199 16.91867,17.315066 0,11.191733 -5.66134,18.432826 -17.77467,18.432826 -12.048,0 -16.92,-7.374027 -16.92,-17.70936"
     inkscape:connector-curvature="0" /><path
     id="path18"
     style="fill:#1a2844;fill-opacity:1;fill-rule:nonzero;stroke:none;stroke-width:0.13333333"
     d="m 201.51466,65.390667 c -3.028,1.842147 -7.70133,3.22496 -12.50666,3.22496 -11.91734,0 -17.24934,-7.43856 -17.24934,-17.446293 0,-12.310533 7.50534,-18.301599 18.03867,-18.301599 5.13467,0 9.67733,1.448399 11.71733,2.766666 v 10.335333 l -7.04266,-0.3296 -0.79067,-4.345866 c -0.0653,-0.459867 -0.19733,-0.854134 -0.78933,-1.052667 -0.79067,-0.263467 -2.04134,-0.4604 -3.35734,-0.4604 -3.95066,0 -7.308,2.698533 -7.308,10.4016 0,8.557333 3.81867,10.994266 8.492,10.994266 3.292,0 6.25467,-1.054667 8.22934,-1.9104 l 2.56666,6.124"
     inkscape:connector-curvature="0" /><path
     id="path20"
     style="fill:#1a2844;fill-opacity:1;fill-rule:nonzero;stroke:none;stroke-width:0.13333333"
     d="m 230.15599,67.82604 -8.36133,-16.786973 -3.556,3.883867 v 5.924933 c 0,1.052667 0.0667,1.185467 1.05333,1.316133 l 3.95067,0.462 v 5.20004 H 203.95333 V 62.626 l 3.292,-0.462 c 0.92133,-0.130666 1.05333,-0.3296 1.05333,-1.316133 V 26.088535 c 0,-0.725467 -0.19733,-1.185467 -0.856,-1.382267 l -3.62133,-1.2516 0.724,-5.3328 h 13.69333 v 28.110933 l 12.048,-12.706267 h 9.08533 v 5.202134 l -3.424,0.6568 c -0.856,0.1328 -1.05333,0.3296 -1.64533,0.988533 l -4.67467,4.9364 8.42667,15.734399 c 0.46133,0.9224 0.92267,1.052534 1.97467,1.185467 l 2.89733,0.459867 v 5.135906 h -12.77067"
     inkscape:connector-curvature="0" /><path
     id="path22"
     style="fill:#1a2844;fill-opacity:1;fill-rule:nonzero;stroke:none;stroke-width:0.13333333"
     d="M 245.95733,67.82604 V 62.4932 l 2.96266,-0.395866 c 0.92134,-0.130134 1.05334,-0.327067 1.05334,-1.3156 V 41.493201 c 0,-0.725467 -0.19734,-1.185333 -0.856,-1.382267 l -3.55467,-1.252133 0.724,-5.332267 h 11.58667 l 0.78933,5.266134 h 0.396 c 2.172,-3.3572 5.068,-5.924933 9.28133,-5.924933 1.51467,0 4.54267,0.265066 5.728,0.592666 v 11.9828 l -7.9,-0.262933 -0.65733,-3.490134 c -0.132,-0.5928 -0.32933,-0.723466 -0.856,-0.723466 -1.712,0 -3.75333,1.446933 -4.74133,2.302666 v 17.445733 c 0,1.0552 0.0667,1.252133 1.05466,1.318267 l 6.51734,0.526533 v 5.266173 h -21.528"
     inkscape:connector-curvature="0" /><path
     id="path24"
     style="fill:#1a2844;fill-opacity:1;fill-rule:nonzero;stroke:none;stroke-width:0.13333333"
     d="m 301.32399,50.512534 c 0,-7.769866 -2.36933,-10.5344 -6.648,-10.5344 -4.34533,0 -7.24266,2.700534 -7.24266,10.5984 0,7.966667 2.568,11.127066 6.98,11.127066 4.27866,0 6.91066,-2.963466 6.91066,-11.191066 z m -24.292,0.393733 c 0,-10.928133 5.728,-18.038532 17.776,-18.038532 12.17867,0 16.91867,7.243199 16.91867,17.315066 0,11.191733 -5.66133,18.432826 -17.77467,18.432826 -12.048,0 -16.92,-7.374027 -16.92,-17.70936"
     inkscape:connector-curvature="0" /><path
     id="path26"
     style="fill:#1a2844;fill-opacity:1;fill-rule:nonzero;stroke:none;stroke-width:0.13333333"
     d="m 334.37466,53.670801 -4.476,0.329733 c -3.88533,0.263067 -5.268,1.2516 -5.268,3.883867 0,2.633866 1.58133,3.620266 3.75333,3.620266 2.23867,0 4.47734,-1.249467 5.99067,-2.368666 z m 1.77733,14.155239 -0.65733,-3.554706 -0.33067,-0.06613 c -2.50133,2.435467 -5.792,4.410427 -11.05866,4.410427 -8.296,0 -9.612,-5.662027 -9.612,-9.742693 0,-6.5844 4.08133,-9.612 12.31066,-10.138533 l 7.57067,-0.526534 v -3.620399 c 0,-3.094267 -0.32934,-5.202 -4.41067,-5.202 -3.16,0 -4.80533,0.461866 -4.80533,4.4124 l -9.28267,-0.7916 c 0,-8.886934 8.09734,-10.138533 14.15467,-10.138533 10.00666,0 14.02133,2.700533 14.02133,11.916666 v 15.997333 c 0,1.052666 0.0667,1.185466 1.05467,1.3156 l 3.15866,0.528666 v 5.20004 h -12.11333"
     inkscape:connector-curvature="0" /><path
     id="path28"
     style="fill:#1a2844;fill-opacity:1;fill-rule:nonzero;stroke:none;stroke-width:0.13333333"
     d="m 379.47199,65.390667 c -3.02667,1.842147 -7.70133,3.22496 -12.50667,3.22496 -11.916,0 -17.24933,-7.43856 -17.24933,-17.446293 0,-12.310533 7.50533,-18.301599 18.03867,-18.301599 5.13466,0 9.67733,1.448399 11.71733,2.766666 v 10.335333 l -7.04267,-0.3296 -0.79066,-4.345866 c -0.0653,-0.459867 -0.19734,-0.854134 -0.78934,-1.052667 -0.78933,-0.263467 -2.04133,-0.4604 -3.35733,-0.4604 -3.95067,0 -7.308,2.698533 -7.308,10.4016 0,8.557333 3.81867,10.994266 8.492,10.994266 3.292,0 6.25467,-1.054667 8.22933,-1.9104 l 2.56667,6.124"
     inkscape:connector-curvature="0" /><path
     id="path30"
     style="fill:#1a2844;fill-opacity:1;fill-rule:nonzero;stroke:none;stroke-width:0.13333333"
     d="M 408.38932,67.82604 V 46.363601 c 0,-1.975067 -0.19866,-5.595867 -3.48933,-5.595867 -2.436,0 -5.2,1.252 -6.84667,2.436934 v 17.643199 c 0,1.052667 0.0653,1.185467 1.05334,1.316133 l 3.16,0.462 v 5.20004 H 384.09732 V 62.626 l 2.96267,-0.462 c 0.92,-0.130666 1.052,-0.3296 1.052,-1.316133 V 26.088535 c 0,-0.725467 -0.19733,-1.185467 -0.856,-1.382267 l -3.62,-1.2516 0.724,-5.3328 h 13.56133 v 18.631733 l 0.32934,0.06413 c 2.96266,-2.435466 6.38666,-3.949999 10.53333,-3.949999 6.97733,0 9.54533,3.819199 9.54533,10.664533 v 17.315599 c 0,1.052667 0.0667,1.185467 1.05467,1.316133 l 3.29067,0.462 v 5.20004 h -14.28534"
     inkscape:connector-curvature="0" /><path
     style="fill:#1a2844;fill-opacity:1;fill-rule:nonzero;stroke:none;stroke-width:0.13333333"
     d="M 15.570312 0 C 11.734405 0 8.0062565 0.48932707 4.46875 1.4335938 C 2.9755233 1.8122604 1.5269515 2.2907052 0.11132812 2.8261719 C 0.019140665 2.8611052 -0.02552087 2.9689937 0.015625 3.0585938 C 0.63385458 4.4028604 1.3236982 5.7058636 2.0664062 6.9667969 C 2.1075533 7.0365299 2.1934913 7.0666625 2.2695312 7.0390625 C 3.7460913 6.5098625 5.2550815 6.0610385 6.7988281 5.7011719 C 9.6191347 5.0438386 12.558886 4.7089844 15.570312 4.7089844 C 22.955778 4.7089844 29.863311 6.7764244 35.767578 10.337891 C 32.026378 13.505091 28.824172 17.29289 26.326172 21.535156 C 25.836572 22.348089 25.395644 23.173366 24.964844 24.009766 C 24.678444 24.571232 24.40202 25.144854 24.126953 25.742188 C 23.732687 26.638587 23.350558 27.534812 23.015625 28.455078 C 21.246825 33.199345 20.279297 38.339507 20.279297 43.681641 C 20.279297 56.050974 25.454314 67.23594 33.748047 75.195312 C 34.393913 75.828645 35.062378 76.425786 35.767578 77.011719 C 36.317044 77.489853 36.867939 77.932561 37.441406 78.363281 C 38.163806 78.936204 38.919647 79.464453 39.675781 79.970703 C 39.734181 80.009243 39.809855 80.009723 39.867188 79.970703 C 40.623455 79.453515 41.367444 78.924747 42.089844 78.363281 C 42.675178 77.932561 43.225791 77.489853 43.775391 77.011719 C 44.468591 76.425786 45.161308 75.816673 45.806641 75.195312 C 54.088374 67.23594 59.263672 56.038974 59.263672 43.681641 C 59.263672 38.339507 58.296144 33.211064 56.527344 28.466797 C 56.181077 27.546531 55.81003 26.638587 55.404297 25.742188 C 55.141363 25.144853 54.864778 24.571232 54.589844 24.009766 C 54.147578 23.173366 53.70693 22.348089 53.216797 21.535156 C 50.707464 17.29289 47.515924 13.505091 43.775391 10.337891 C 49.67899 6.7764244 56.58719 4.7089844 63.972656 4.7089844 C 66.984656 4.7089844 69.923874 5.0438386 72.744141 5.7011719 C 74.287341 6.0610385 75.809658 6.5098625 77.275391 7.0390625 C 77.351391 7.0666625 77.434075 7.0359969 77.474609 6.9667969 C 78.216875 5.7058636 78.897791 4.4037468 79.525391 3.0605469 C 79.567661 2.9704139 79.524441 2.8611052 79.431641 2.8261719 C 78.005641 2.2912385 76.555953 1.8122603 75.074219 1.4335938 C 71.53662 0.48932707 67.809189 -1.4802974e-16 63.972656 0 C 55.03359 0 46.715217 2.6895199 39.771484 7.3144531 C 32.840285 2.6895199 24.521379 1.1842379e-15 15.570312 0 z M 39.783203 13.142578 C 43.232136 15.885378 46.198468 19.194048 48.552734 22.925781 C 45.739134 23.584714 42.79627 23.925781 39.783203 23.925781 C 36.769736 23.925781 33.826886 23.584714 31.001953 22.925781 C 33.356086 19.194048 36.333736 15.873912 39.783203 13.142578 z M 26.792969 31.980469 C 33.389369 38.946068 37.414063 48.364286 37.414062 58.699219 C 37.414062 62.765886 36.7926 66.699097 35.625 70.404297 C 29.029134 63.422004 24.986328 54.018527 24.986328 43.683594 C 24.986328 39.608527 25.625236 35.677268 26.792969 31.980469 z M 52.765625 31.980469 C 53.925091 35.677268 54.554687 39.608527 54.554688 43.683594 C 54.554688 54.018527 50.513836 63.422004 43.917969 70.404297 C 42.758636 66.699097 42.128906 62.765886 42.128906 58.699219 C 42.128906 48.364286 46.169758 38.946068 52.765625 31.980469 z "
     id="path32" /><path
     id="path34"
     style="fill:#368e39;fill-opacity:1;fill-rule:nonzero;stroke:none;stroke-width:0.13333333"
     d="m 448.97466,60.864 h 3.91733 c 1.74,0 3.36,-0.177066 4.85867,-0.5328 1.49866,-0.353599 2.796,-0.942133 3.892,-1.763999 1.096,-0.821334 1.95866,-1.902667 2.588,-3.240667 0.62666,-1.335867 0.94133,-2.971867 0.94133,-4.9068 0,-1.675467 -0.31467,-3.133733 -0.94133,-4.376 -0.62934,-1.2396 -1.476,-2.264 -2.53867,-3.069733 -1.064,-0.805733 -2.31467,-1.4104 -3.748,-1.812533 -1.43467,-0.4036 -2.94133,-0.604667 -4.52,-0.604667 h -4.44933 z m -7.54267,-27.269199 h 11.31467 c 2.74,0 5.34266,0.305733 7.808,0.918267 2.46533,0.612933 4.61733,1.6036 6.45466,2.973866 1.83733,1.3704 3.296,3.15 4.376,5.342267 1.08,2.192133 1.62,4.852 1.62,7.976533 0,2.772933 -0.524,5.216133 -1.57067,7.325467 -1.048,2.111999 -2.45866,3.885999 -4.232,5.318266 -1.77333,1.434933 -3.81999,2.524 -6.13999,3.26512 -2.32134,0.741667 -4.75467,1.111453 -7.3,1.111453 H 441.43199 V 33.594801"
     inkscape:connector-curvature="0" /><path
     id="path36"
     style="fill:#368e39;fill-opacity:1;fill-rule:nonzero;stroke:none;stroke-width:0.13333333"
     d="m 485.47865,61.4448 h 6.76934 c 0.58,0 1.168,-0.06453 1.764,-0.195333 0.596,-0.128667 1.13733,-0.353067 1.62,-0.677067 0.48266,-0.321333 0.87866,-0.739066 1.184,-1.255733 0.30666,-0.516133 0.46,-1.145333 0.46,-1.8864 0,-0.805733 -0.20134,-1.4568 -0.604,-1.9568 -0.404,-0.500533 -0.912,-0.878133 -1.52267,-1.137466 -0.61333,-0.257334 -1.27467,-0.433867 -1.98267,-0.5324 -0.71066,-0.09627 -1.37066,-0.1448 -1.98266,-0.1448 h -5.70534 z m 0,-14.167199 h 5.464 c 0.58,0 1.15067,-0.064 1.716,-0.192667 0.56267,-0.128667 1.072,-0.3396 1.52267,-0.6292 0.45067,-0.2912 0.81333,-0.677066 1.088,-1.160933 0.27333,-0.482267 0.41067,-1.063067 0.41067,-1.740133 0,-0.709334 -0.152,-1.297867 -0.45867,-1.764 -0.30667,-0.468267 -0.70133,-0.830267 -1.184,-1.089067 -0.484,-0.257333 -1.032,-0.442267 -1.64533,-0.5568 -0.612,-0.112533 -1.208,-0.1688 -1.788,-0.1688 h -5.12534 z m -7.54266,-13.6828 h 12.764 c 1.48266,0 2.97466,0.104667 4.47333,0.313467 1.49867,0.211066 2.844,0.6292 4.03733,1.257866 1.19067,0.6292 2.15867,1.5068 2.9,2.6344 0.74134,1.128667 1.112,2.6276 1.112,4.4964 0,1.9348 -0.54,3.538 -1.61866,4.811867 -1.08,1.274 -2.50667,2.183866 -4.27867,2.7308 v 0.0964 c 1.12667,0.1624 2.15067,0.476 3.06933,0.944266 0.91867,0.466134 1.708,1.062934 2.36934,1.788 0.66,0.725467 1.168,1.571334 1.52266,2.538 0.35467,0.968267 0.532,1.998934 0.532,3.093734 0,1.806266 -0.388,3.313599 -1.16133,4.520799 -0.77333,1.209467 -1.77333,2.183867 -2.99733,2.9256 -1.224,0.741067 -2.60267,1.273907 -4.13334,1.595267 -1.532,0.32344 -3.05466,0.484373 -4.56933,0.484373 H 477.93599 V 33.594801"
     inkscape:connector-curvature="0" /></svg>