<?xml version="1.0" encoding="UTF-8" standalone="no"?>
<svg
   xmlns:dc="http://purl.org/dc/elements/1.1/"
   xmlns:cc="http://creativecommons.org/ns#"
   xmlns:rdf="http://www.w3.org/1999/02/22-rdf-syntax-ns#"
   xmlns:svg="http://www.w3.org/2000/svg"
   xmlns="http://www.w3.org/2000/svg"
   xmlns:sodipodi="http://sodipodi.sourceforge.net/DTD/sodipodi-0.dtd"
   xmlns:inkscape="http://www.inkscape.org/namespaces/inkscape"
   viewBox="0 0 504.81854 79.999939"
   height="79.999939"
   width="504.81854"
   xml:space="preserve"
   id="svg2"
   version="1.1"
   sodipodi:docname="cockroachdb.svg"
   inkscape:version="0.92.2 5c3e80d, 2017-08-06"><sodipodi:namedview
     pagecolor="#ffffff"
     bordercolor="#666666"
     borderopacity="1"
     objecttolerance="10"
     gridtolerance="10"
     guidetolerance="10"
     inkscape:pageopacity="0"
     inkscape:pageshadow="2"
     inkscape:window-width="1918"
     inkscape:window-height="2136"
     id="namedview21"
     showgrid="false"
     inkscape:zoom="0.71511583"
     inkscape:cx="256.60168"
     inkscape:cy="39.999938"
     inkscape:window-x="3840"
     inkscape:window-y="22"
     inkscape:window-maximized="0"
     inkscape:current-layer="svg2" /><metadata
     id="metadata8"><rdf:RDF><cc:Work
         rdf:about=""><dc:format>image/svg+xml</dc:format><dc:type
           rdf:resource="http://purl.org/dc/dcmitype/StillImage" /></cc:Work></rdf:RDF></metadata><defs
     id="defs6" /><g
     transform="matrix(1.3333333,0,0,-1.3333333,-1.0453056e-4,79.999998)"
     id="g10"><g
       transform="scale(0.1)"
       id="g12"><path
         id="path14"
         style="fill:#1a2844;fill-opacity:1;fill-rule:nonzero;stroke:none"
         d="M 972.16,112.539 C 943.027,94.7578 893.652,85.3828 848.723,85.3828 c -122.942,0 -173.309,71.5942 -173.309,186.1332 0,105.183 60.734,183.679 183.676,183.679 40.98,0 84.922,-10.371 112.086,-28.136 v -96.774 l -54.317,4.434 -7.898,48.386 c -0.984,4.942 -2.961,7.415 -7.902,8.887 -10.86,3.469 -27.645,5.922 -43.942,5.922 -62.711,0 -102.703,-42.445 -102.703,-126.398 0,-87.383 38.02,-129.848 99.246,-129.848 16.297,0 36.539,2.469 49.371,6.418 5.93,1.477 7.407,2.969 8.891,10.367 l 7.406,45.914 h 52.832 v -91.828"
         inkscape:connector-curvature="0" /><path
         id="path16"
         style="fill:#1a2844;fill-opacity:1;fill-rule:nonzero;stroke:none"
         d="m 1182.01,221.156 c 0,58.274 -17.77,79.008 -49.86,79.008 -32.59,0 -54.32,-20.254 -54.32,-79.488 0,-59.75 19.26,-83.453 52.35,-83.453 32.09,0 51.83,22.226 51.83,83.933 z m -182.19,-2.953 c 0,81.961 42.96,135.289 133.32,135.289 91.34,0 126.89,-54.324 126.89,-129.863 0,-83.938 -42.46,-138.2462 -133.31,-138.2462 -90.36,0 -126.9,55.3052 -126.9,132.8202"
         inkscape:connector-curvature="0" /><path
         id="path18"
         style="fill:#1a2844;fill-opacity:1;fill-rule:nonzero;stroke:none"
         d="m 1511.36,109.57 c -22.71,-13.8161 -57.76,-24.1872 -93.8,-24.1872 -89.38,0 -129.37,55.7892 -129.37,130.8472 0,92.329 56.29,137.262 135.29,137.262 38.51,0 72.58,-10.863 87.88,-20.75 v -77.515 l -52.82,2.472 -5.93,32.594 c -0.49,3.449 -1.48,6.406 -5.92,7.895 -5.93,1.976 -15.31,3.453 -25.18,3.453 -29.63,0 -54.81,-20.239 -54.81,-78.012 0,-64.18 28.64,-82.457 63.69,-82.457 24.69,0 46.91,7.91 61.72,14.328 l 19.25,-45.93"
         inkscape:connector-curvature="0" /><path
         id="path20"
         style="fill:#1a2844;fill-opacity:1;fill-rule:nonzero;stroke:none"
         d="m 1726.17,91.3047 -62.71,125.9023 -26.67,-29.129 v -44.437 c 0,-7.895 0.5,-8.891 7.9,-9.871 l 29.63,-3.465 V 91.3047 h -144.67 v 39.0003 l 24.69,3.465 c 6.91,0.98 7.9,2.472 7.9,9.871 v 260.695 c 0,5.441 -1.48,8.891 -6.42,10.367 l -27.16,9.387 5.43,39.996 h 102.7 V 253.254 l 90.36,95.297 h 68.14 v -39.016 l -25.68,-4.926 c -6.42,-0.996 -7.9,-2.472 -12.34,-7.414 l -35.06,-37.023 63.2,-118.008 c 3.46,-6.918 6.92,-7.894 14.81,-8.891 l 21.73,-3.449 V 91.3047 h -95.78"
         inkscape:connector-curvature="0" /><path
         id="path22"
         style="fill:#1a2844;fill-opacity:1;fill-rule:nonzero;stroke:none"
         d="m 1844.68,91.3047 v 39.9963 l 22.22,2.969 c 6.91,0.976 7.9,2.453 7.9,9.867 v 144.664 c 0,5.441 -1.48,8.89 -6.42,10.367 l -26.66,9.391 5.43,39.992 h 86.9 l 5.92,-39.496 h 2.97 c 16.29,25.179 38.01,44.437 69.61,44.437 11.36,0 34.07,-1.988 42.96,-4.445 v -89.871 l -59.25,1.972 -4.93,26.176 c -0.99,4.446 -2.47,5.426 -6.42,5.426 -12.84,0 -28.15,-10.852 -35.56,-17.27 V 144.637 c 0,-7.914 0.5,-9.391 7.91,-9.887 l 48.88,-3.949 V 91.3047 h -161.46"
         inkscape:connector-curvature="0" /><path
         id="path24"
         style="fill:#1a2844;fill-opacity:1;fill-rule:nonzero;stroke:none"
         d="m 2259.93,221.156 c 0,58.274 -17.77,79.008 -49.86,79.008 -32.59,0 -54.32,-20.254 -54.32,-79.488 0,-59.75 19.26,-83.453 52.35,-83.453 32.09,0 51.83,22.226 51.83,83.933 z m -182.19,-2.953 c 0,81.961 42.96,135.289 133.32,135.289 91.34,0 126.89,-54.324 126.89,-129.863 0,-83.938 -42.46,-138.2462 -133.31,-138.2462 -90.36,0 -126.9,55.3052 -126.9,132.8202"
         inkscape:connector-curvature="0" /><path
         id="path26"
         style="fill:#1a2844;fill-opacity:1;fill-rule:nonzero;stroke:none"
         d="m 2507.81,197.469 -33.57,-2.473 c -29.14,-1.973 -39.51,-9.387 -39.51,-29.129 0,-19.754 11.86,-27.152 28.15,-27.152 16.79,0 33.58,9.371 44.93,17.765 z m 13.33,-106.1643 -4.93,26.6603 -2.48,0.496 c -18.76,-18.266 -43.44,-33.0782 -82.94,-33.0782 -62.22,0 -72.09,42.4652 -72.09,73.0702 0,49.383 30.61,72.09 92.33,76.039 l 56.78,3.949 v 27.153 c 0,23.207 -2.47,39.015 -33.08,39.015 -23.7,0 -36.04,-3.464 -36.04,-33.093 l -69.62,5.937 c 0,66.652 60.73,76.039 106.16,76.039 75.05,0 105.16,-20.254 105.16,-89.375 v -119.98 c 0,-7.895 0.5,-8.891 7.91,-9.867 l 23.69,-3.965 V 91.3047 h -90.85"
         inkscape:connector-curvature="0" /><path
         id="path28"
         style="fill:#1a2844;fill-opacity:1;fill-rule:nonzero;stroke:none"
         d="m 2846.04,109.57 c -22.7,-13.8161 -57.76,-24.1872 -93.8,-24.1872 -89.37,0 -129.37,55.7892 -129.37,130.8472 0,92.329 56.29,137.262 135.29,137.262 38.51,0 72.58,-10.863 87.88,-20.75 v -77.515 l -52.82,2.472 -5.93,32.594 c -0.49,3.449 -1.48,6.406 -5.92,7.895 -5.92,1.976 -15.31,3.453 -25.18,3.453 -29.63,0 -54.81,-20.239 -54.81,-78.012 0,-64.18 28.64,-82.457 63.69,-82.457 24.69,0 46.91,7.91 61.72,14.328 l 19.25,-45.93"
         inkscape:connector-curvature="0" /><path
         id="path30"
         style="fill:#1a2844;fill-opacity:1;fill-rule:nonzero;stroke:none"
         d="M 3062.92,91.3047 V 252.273 c 0,14.813 -1.49,41.969 -26.17,41.969 -18.27,0 -39,-9.39 -51.35,-18.277 V 143.641 c 0,-7.895 0.49,-8.891 7.9,-9.871 l 23.7,-3.465 V 91.3047 h -136.27 v 39.0003 l 22.22,3.465 c 6.9,0.98 7.89,2.472 7.89,9.871 v 260.695 c 0,5.441 -1.48,8.891 -6.42,10.367 l -27.15,9.387 5.43,39.996 h 101.71 V 324.348 l 2.47,-0.481 c 22.22,18.266 47.9,29.625 79,29.625 52.33,0 71.59,-28.644 71.59,-79.984 V 143.641 c 0,-7.895 0.5,-8.891 7.91,-9.871 l 24.68,-3.465 V 91.3047 h -107.14"
         inkscape:connector-curvature="0" /><path
         id="path32"
         style="fill:#1a2844;fill-opacity:1;fill-rule:nonzero;stroke:none"
         d="m 364.141,428.063 c -21.102,-4.942 -43.172,-7.504 -65.77,-7.504 -22.601,0 -44.676,2.562 -65.863,7.504 17.656,27.988 39.992,52.882 65.863,73.367 25.867,-20.571 48.113,-45.379 65.77,-73.367 z M 563.059,589.242 C 536.527,596.324 508.563,600 479.789,600 412.746,600 350.363,579.832 298.285,545.145 246.301,579.832 183.914,600 116.781,600 88.0117,600 60.043,596.324 33.5117,589.242 22.3125,586.402 11.4453,582.813 0.828125,578.797 0.136719,578.535 -0.191406,577.727 0.117188,577.055 4.75391,566.973 9.93359,557.203 15.5039,547.746 c 0.3086,-0.523 0.9414,-0.75 1.5117,-0.543 11.0742,3.969 22.3985,7.344 33.9766,10.043 21.1523,4.93 43.2031,7.438 65.7888,7.438 55.391,0 107.199,-15.504 151.481,-42.215 -28.059,-23.754 -52.078,-52.168 -70.813,-83.985 -3.672,-6.097 -6.988,-12.281 -10.219,-18.554 -2.148,-4.211 -4.21,-8.516 -6.273,-12.996 -2.957,-6.723 -5.824,-13.446 -8.336,-20.348 -13.266,-35.582 -20.523,-74.125 -20.523,-114.191 0,-92.77 38.808,-176.6645 101.011,-236.3598 4.844,-4.75 9.864,-9.2305 15.153,-13.625 4.121,-3.586 8.246,-6.8985 12.547,-10.1289 5.418,-4.29692 11.086,-8.26958 16.757,-12.066456 0.438,-0.2890628 1.008,-0.2851565 1.438,0.007812 5.672,3.878904 11.254,7.847654 16.672,12.058644 4.39,3.2304 8.515,6.5429 12.637,10.1289 5.199,4.3945 10.398,8.9648 15.238,13.625 62.113,59.6953 100.926,143.6798 100.926,236.3598 0,40.066 -7.262,78.519 -20.528,114.101 -2.597,6.902 -5.379,13.715 -8.422,20.438 -1.972,4.48 -4.035,8.785 -6.097,12.996 -3.317,6.273 -6.633,12.457 -10.309,18.554 -18.82,31.817 -42.754,60.231 -70.808,83.985 44.277,26.711 96.085,42.215 151.476,42.215 22.59,0 44.641,-2.508 65.793,-7.438 11.574,-2.699 22.984,-6.074 33.977,-10.043 0.57,-0.207 1.203,0.024 1.507,0.543 5.567,9.457 10.668,19.223 15.375,29.297 0.317,0.676 -0.015,1.496 -0.711,1.758 -10.695,4.012 -21.558,7.601 -32.671,10.441"
         inkscape:connector-curvature="0" /><path
         id="path34"
         style="fill:#368e39;fill-opacity:1;fill-rule:nonzero;stroke:none"
         d="m 3367.31,143.52 h 29.38 c 13.05,0 25.2,1.328 36.44,3.996 11.24,2.652 20.97,7.066 29.19,13.23 8.22,6.16 14.69,14.27 19.41,24.305 4.7,10.019 7.06,22.289 7.06,36.801 0,12.566 -2.36,23.503 -7.06,32.82 -4.72,9.297 -11.07,16.98 -19.04,23.023 -7.98,6.043 -17.36,10.578 -28.11,13.594 -10.76,3.027 -22.06,4.535 -33.9,4.535 h -33.37 z m -56.57,204.519 h 84.86 c 20.55,0 40.07,-2.293 58.56,-6.887 18.49,-4.597 34.63,-12.027 48.41,-22.304 13.78,-10.278 24.72,-23.625 32.82,-40.067 8.1,-16.441 12.15,-36.39 12.15,-59.824 0,-20.797 -3.93,-39.121 -11.78,-54.941 -7.86,-15.84 -18.44,-29.145 -31.74,-39.887 -13.3,-10.762 -28.65,-18.93 -46.05,-24.4884 -17.41,-5.5625 -35.66,-8.3359 -54.75,-8.3359 h -92.48 V 348.039"
         inkscape:connector-curvature="0" /><path
         id="path36"
         style="fill:#368e39;fill-opacity:1;fill-rule:nonzero;stroke:none"
         d="m 3641.09,139.164 h 50.77 c 4.35,0 8.76,0.484 13.23,1.465 4.47,0.965 8.53,2.648 12.15,5.078 3.62,2.41 6.59,5.543 8.88,9.418 2.3,3.871 3.45,8.59 3.45,14.148 0,6.043 -1.51,10.926 -4.53,14.676 -3.03,3.754 -6.84,6.586 -11.42,8.531 -4.6,1.93 -9.56,3.254 -14.87,3.993 -5.33,0.722 -10.28,1.086 -14.87,1.086 h -42.79 z m 0,106.254 h 40.98 c 4.35,0 8.63,0.48 12.87,1.445 4.22,0.965 8.04,2.547 11.42,4.719 3.38,2.184 6.1,5.078 8.16,8.707 2.05,3.617 3.08,7.973 3.08,13.051 0,5.32 -1.14,9.734 -3.44,13.23 -2.3,3.512 -5.26,6.227 -8.88,8.168 -3.63,1.93 -7.74,3.317 -12.34,4.176 -4.59,0.844 -9.06,1.266 -13.41,1.266 h -38.44 z m -56.57,102.621 h 95.73 c 11.12,0 22.31,-0.785 33.55,-2.351 11.24,-1.583 21.33,-4.719 30.28,-9.434 8.93,-4.719 16.19,-11.301 21.75,-19.758 5.56,-8.465 8.34,-19.707 8.34,-33.723 0,-14.511 -4.05,-26.535 -12.14,-36.089 -8.1,-9.555 -18.8,-16.379 -32.09,-20.481 v -0.723 c 8.45,-1.218 16.13,-3.57 23.02,-7.082 6.89,-3.496 12.81,-7.972 17.77,-13.41 4.95,-5.441 8.76,-11.785 11.42,-19.035 2.66,-7.262 3.99,-14.992 3.99,-23.203 0,-13.547 -2.91,-24.852 -8.71,-33.906 -5.8,-9.071 -13.3,-16.379 -22.48,-21.942 -9.18,-5.558 -19.52,-9.5543 -31,-11.9645 -11.49,-2.4258 -22.91,-3.6328 -34.27,-3.6328 H 3584.52 V 348.039"
         inkscape:connector-curvature="0" /><path
         id="path38"
         style="fill:#368e39;fill-opacity:1;fill-rule:nonzero;stroke:none"
         d="m 409.164,272.367 c 0,-77.512 -30.312,-148.031 -79.781,-200.3982 -8.695,27.789 -13.422,57.2852 -13.422,87.7852 0,77.512 30.312,148.156 79.781,200.398 8.696,-27.726 13.422,-57.222 13.422,-87.785"
         inkscape:connector-curvature="0" /><path
         id="path40"
         style="fill:#77c92b;fill-opacity:1;fill-rule:nonzero;stroke:none"
         d="m 280.605,159.754 c 0,-30.5 -4.664,-59.9962 -13.421,-87.7852 -49.469,52.3672 -79.782,122.8862 -79.782,200.3982 0,30.563 4.789,60.059 13.547,87.785 49.473,-52.242 79.656,-122.886 79.656,-200.398"
         inkscape:connector-curvature="0" /></g></g></svg>