<?xml version="1.0" encoding="UTF-8" standalone="no"?>
<svg
   xmlns:dc="http://purl.org/dc/elements/1.1/"
   xmlns:cc="http://creativecommons.org/ns#"
   xmlns:rdf="http://www.w3.org/1999/02/22-rdf-syntax-ns#"
   xmlns:svg="http://www.w3.org/2000/svg"
   xmlns="http://www.w3.org/2000/svg"
   xmlns:sodipodi="http://sodipodi.sourceforge.net/DTD/sodipodi-0.dtd"
   xmlns:inkscape="http://www.inkscape.org/namespaces/inkscape"
   viewBox="0 0 504.81839 79.999786"
   height="79.999786"
   width="504.81839"
   xml:space="preserve"
   id="svg2"
   version="1.1"
   sodipodi:docname="cockroachdb-transparent.svg"
   inkscape:version="0.92.2 5c3e80d, 2017-08-06"><sodipodi:namedview
     pagecolor="#ffffff"
     bordercolor="#666666"
     borderopacity="1"
     objecttolerance="10"
     gridtolerance="10"
     guidetolerance="10"
     inkscape:pageopacity="0"
     inkscape:pageshadow="2"
     inkscape:window-width="1918"
     inkscape:window-height="2136"
     id="namedview21"
     showgrid="false"
     inkscape:zoom="1.417538"
     inkscape:cx="253.50385"
     inkscape:cy="-51.701384"
     inkscape:window-x="3840"
     inkscape:window-y="22"
     inkscape:window-maximized="0"
     inkscape:current-layer="svg2" /><metadata
     id="metadata8"><rdf:RDF><cc:Work
         rdf:about=""><dc:format>image/svg+xml</dc:format><dc:type
           rdf:resource="http://purl.org/dc/dcmitype/StillImage" /><dc:title /></cc:Work></rdf:RDF></metadata><defs
     id="defs6" /><path
     id="path14"
     style="fill:#1a2844;fill-opacity:1;fill-rule:nonzero;stroke:none;stroke-width:0.13333333"
     d="m 129.62108,64.9948 c -3.8844,2.370827 -10.46773,3.620827 -16.45827,3.620827 -16.392264,0 -23.107864,-9.545893 -23.107864,-24.817759 0,-14.0244 8.097866,-24.490533 24.490134,-24.490533 5.464,0 11.32293,1.3828 14.9448,3.751466 v 12.9032 l -7.24227,-0.5912 -1.05306,-6.451466 c -0.1312,-0.658934 -0.3948,-0.988667 -1.0536,-1.184934 -1.448,-0.462533 -3.686,-0.7896 -5.85894,-0.7896 -8.36146,0 -13.69373,5.659334 -13.69373,16.853067 0,11.651066 5.06933,17.313066 13.2328,17.313066 2.17293,0 4.87187,-0.3292 6.5828,-0.855734 0.79067,-0.196933 0.9876,-0.395866 1.18547,-1.382266 l 0.98746,-6.121867 h 7.04427 V 64.9948"
     inkscape:connector-curvature="0" /><path
     id="path16"
     style="fill:#1a2844;fill-opacity:1;fill-rule:nonzero;stroke:none;stroke-width:0.13333333"
     d="m 157.60108,50.512534 c 0,-7.769866 -2.36933,-10.5344 -6.648,-10.5344 -4.34533,0 -7.24267,2.700534 -7.24267,10.5984 0,7.966667 2.568,11.127066 6.98,11.127066 4.27867,0 6.91067,-2.963466 6.91067,-11.191066 z m -24.292,0.393733 c 0,-10.928133 5.728,-18.038532 17.776,-18.038532 12.17867,0 16.91867,7.243199 16.91867,17.315066 0,11.191733 -5.66134,18.432826 -17.77467,18.432826 -12.048,0 -16.92,-7.374027 -16.92,-17.70936"
     inkscape:connector-curvature="0" /><path
     id="path18"
     style="fill:#1a2844;fill-opacity:1;fill-rule:nonzero;stroke:none;stroke-width:0.13333333"
     d="m 201.51441,65.390667 c -3.028,1.842147 -7.70133,3.22496 -12.50666,3.22496 -11.91734,0 -17.24934,-7.43856 -17.24934,-17.446293 0,-12.310533 7.50534,-18.301599 18.03867,-18.301599 5.13467,0 9.67733,1.448399 11.71733,2.766666 v 10.335333 l -7.04266,-0.3296 -0.79067,-4.345866 c -0.0653,-0.459867 -0.19733,-0.854134 -0.78933,-1.052667 -0.79067,-0.263467 -2.04134,-0.4604 -3.35734,-0.4604 -3.95066,0 -7.308,2.698533 -7.308,10.4016 0,8.557333 3.81867,10.994266 8.492,10.994266 3.292,0 6.25467,-1.054667 8.22934,-1.9104 l 2.56666,6.124"
     inkscape:connector-curvature="0" /><path
     id="path20"
     style="fill:#1a2844;fill-opacity:1;fill-rule:nonzero;stroke:none;stroke-width:0.13333333"
     d="m 230.15574,67.82604 -8.36133,-16.786973 -3.556,3.883867 v 5.924933 c 0,1.052667 0.0667,1.185467 1.05333,1.316133 l 3.95067,0.462 v 5.20004 H 203.95308 V 62.626 l 3.292,-0.462 c 0.92133,-0.130666 1.05333,-0.3296 1.05333,-1.316133 V 26.088535 c 0,-0.725467 -0.19733,-1.185467 -0.856,-1.382267 l -3.62133,-1.2516 0.724,-5.3328 h 13.69333 v 28.110933 l 12.048,-12.706267 h 9.08533 v 5.202134 l -3.424,0.6568 c -0.856,0.1328 -1.05333,0.3296 -1.64533,0.988533 l -4.67467,4.9364 8.42667,15.734399 c 0.46133,0.9224 0.92267,1.052534 1.97467,1.185467 l 2.89733,0.459867 v 5.135906 h -12.77067"
     inkscape:connector-curvature="0" /><path
     id="path22"
     style="fill:#1a2844;fill-opacity:1;fill-rule:nonzero;stroke:none;stroke-width:0.13333333"
     d="M 245.95708,67.82604 V 62.4932 l 2.96266,-0.395866 c 0.92134,-0.130134 1.05334,-0.327067 1.05334,-1.3156 V 41.493201 c 0,-0.725467 -0.19734,-1.185333 -0.856,-1.382267 l -3.55467,-1.252133 0.724,-5.332267 h 11.58667 l 0.78933,5.266134 h 0.396 c 2.172,-3.3572 5.068,-5.924933 9.28133,-5.924933 1.51467,0 4.54267,0.265066 5.728,0.592666 v 11.9828 l -7.9,-0.262933 -0.65733,-3.490134 c -0.132,-0.5928 -0.32933,-0.723466 -0.856,-0.723466 -1.712,0 -3.75333,1.446933 -4.74133,2.302666 v 17.445733 c 0,1.0552 0.0667,1.252133 1.05466,1.318267 l 6.51734,0.526533 v 5.266173 h -21.528"
     inkscape:connector-curvature="0" /><path
     id="path24"
     style="fill:#1a2844;fill-opacity:1;fill-rule:nonzero;stroke:none;stroke-width:0.13333333"
     d="m 301.32374,50.512534 c 0,-7.769866 -2.36933,-10.5344 -6.648,-10.5344 -4.34533,0 -7.24266,2.700534 -7.24266,10.5984 0,7.966667 2.568,11.127066 6.98,11.127066 4.27866,0 6.91066,-2.963466 6.91066,-11.191066 z m -24.292,0.393733 c 0,-10.928133 5.728,-18.038532 17.776,-18.038532 12.17867,0 16.91867,7.243199 16.91867,17.315066 0,11.191733 -5.66133,18.432826 -17.77467,18.432826 -12.048,0 -16.92,-7.374027 -16.92,-17.70936"
     inkscape:connector-curvature="0" /><path
     id="path26"
     style="fill:#1a2844;fill-opacity:1;fill-rule:nonzero;stroke:none;stroke-width:0.13333333"
     d="m 334.37441,53.670801 -4.476,0.329733 c -3.88533,0.263067 -5.268,1.2516 -5.268,3.883867 0,2.633866 1.58133,3.620266 3.75333,3.620266 2.23867,0 4.47734,-1.249467 5.99067,-2.368666 z m 1.77733,14.155239 -0.65733,-3.554706 -0.33067,-0.06613 c -2.50133,2.435467 -5.792,4.410427 -11.05866,4.410427 -8.296,0 -9.612,-5.662027 -9.612,-9.742693 0,-6.5844 4.08133,-9.612 12.31066,-10.138533 l 7.57067,-0.526534 v -3.620399 c 0,-3.094267 -0.32934,-5.202 -4.41067,-5.202 -3.16,0 -4.80533,0.461866 -4.80533,4.4124 l -9.28267,-0.7916 c 0,-8.886934 8.09734,-10.138533 14.15467,-10.138533 10.00666,0 14.02133,2.700533 14.02133,11.916666 v 15.997333 c 0,1.052666 0.0667,1.185466 1.05467,1.3156 l 3.15866,0.528666 v 5.20004 h -12.11333"
     inkscape:connector-curvature="0" /><path
     id="path28"
     style="fill:#1a2844;fill-opacity:1;fill-rule:nonzero;stroke:none;stroke-width:0.13333333"
     d="m 379.47174,65.390667 c -3.02667,1.842147 -7.70133,3.22496 -12.50667,3.22496 -11.916,0 -17.24933,-7.43856 -17.24933,-17.446293 0,-12.310533 7.50533,-18.301599 18.03867,-18.301599 5.13466,0 9.67733,1.448399 11.71733,2.766666 v 10.335333 l -7.04267,-0.3296 -0.79066,-4.345866 c -0.0653,-0.459867 -0.19734,-0.854134 -0.78934,-1.052667 -0.78933,-0.263467 -2.04133,-0.4604 -3.35733,-0.4604 -3.95067,0 -7.308,2.698533 -7.308,10.4016 0,8.557333 3.81867,10.994266 8.492,10.994266 3.292,0 6.25467,-1.054667 8.22933,-1.9104 l 2.56667,6.124"
     inkscape:connector-curvature="0" /><path
     id="path30"
     style="fill:#1a2844;fill-opacity:1;fill-rule:nonzero;stroke:none;stroke-width:0.13333333"
     d="M 408.38907,67.82604 V 46.363601 c 0,-1.975067 -0.19866,-5.595867 -3.48933,-5.595867 -2.436,0 -5.2,1.252 -6.84667,2.436934 v 17.643199 c 0,1.052667 0.0653,1.185467 1.05334,1.316133 l 3.16,0.462 v 5.20004 H 384.09707 V 62.626 l 2.96267,-0.462 c 0.92,-0.130666 1.052,-0.3296 1.052,-1.316133 V 26.088535 c 0,-0.725467 -0.19733,-1.185467 -0.856,-1.382267 l -3.62,-1.2516 0.724,-5.3328 h 13.56133 v 18.631733 l 0.32934,0.06413 c 2.96266,-2.435466 6.38666,-3.949999 10.53333,-3.949999 6.97733,0 9.54533,3.819199 9.54533,10.664533 v 17.315599 c 0,1.052667 0.0667,1.185467 1.05467,1.316133 l 3.29067,0.462 v 5.20004 h -14.28534"
     inkscape:connector-curvature="0" /><path
     style="fill:#1a2844;fill-opacity:1;fill-rule:nonzero;stroke:none;stroke-width:0.13333333"
     d="M 15.57006,0 C 11.734153,0 8.0060041,0.48932707 4.4684976,1.4335938 2.9752709,1.8122604 1.5266991,2.2907052 0.11107575,2.8261719 0.0188883,2.8611052 -0.02577324,2.9689937 0.01537263,3.0585938 0.63360221,4.4028604 1.3234458,5.7058636 2.0661538,6.9667969 c 0.041147,0.069733 0.1270851,0.099866 0.203125,0.072266 1.4765601,-0.5292 2.9855503,-0.978024 4.5292969,-1.3378906 C 9.6188823,5.043839 12.558634,4.7089848 15.57006,4.7089848 c 7.385466,0 14.292999,2.06744 20.197266,5.6289062 -3.7412,3.1672 -6.943406,6.954999 -9.441406,11.197265 -0.4896,0.812933 -0.930528,1.63821 -1.361328,2.47461 -0.2864,0.561466 -0.562824,1.135088 -0.837891,1.732422 -0.394266,0.896399 -0.776395,1.792624 -1.111328,2.71289 -1.7688,4.744267 -2.736328,9.884429 -2.736328,15.226563 0,12.369333 5.175017,23.554299 13.46875,31.513671 0.645866,0.633333 1.314331,1.230474 2.019531,1.816407 0.549466,0.478134 1.100361,0.920842 1.673828,1.351562 0.7224,0.572923 1.478241,1.101172 2.234375,1.607422 0.0584,0.03854 0.134074,0.03902 0.191407,0 0.756267,-0.517188 1.500256,-1.045956 2.222656,-1.607422 0.585334,-0.43072 1.135947,-0.873428 1.685547,-1.351562 0.6932,-0.585933 1.385917,-1.195046 2.03125,-1.816407 8.281733,-7.959372 13.457031,-19.156338 13.457031,-31.513671 0,-5.342134 -0.967528,-10.470577 -2.736328,-15.214844 -0.346267,-0.920266 -0.717314,-1.82821 -1.123047,-2.724609 -0.262934,-0.597335 -0.539519,-1.170956 -0.814453,-1.732422 -0.442266,-0.8364 -0.882914,-1.661677 -1.373047,-2.47461 -2.509333,-4.242266 -5.700873,-8.030065 -9.441406,-11.197265 5.903599,-3.5614666 12.811799,-5.6289066 20.197265,-5.6289066 3.012,0 5.951218,0.3348542 8.771485,0.9921875 1.5432,0.3598666 3.065517,0.8086906 4.53125,1.3378906 0.076,0.0276 0.158684,-0.00307 0.199218,-0.072266 0.742266,-1.2609333 1.423182,-2.5630501 2.050782,-3.90625 0.04227,-0.090133 -9.5e-4,-0.1994417 -0.09375,-0.234375 -1.426,-0.534933 -2.875688,-1.0139112 -4.357422,-1.3925777 C 71.536368,0.48932707 67.808937,0 63.972404,0 55.033338,0 46.714965,2.6895199 39.771232,7.3144531 32.840033,2.6895199 24.521127,0 15.57006,0 Z m 24.212891,13.142578 c 3.448933,2.7428 6.415265,6.05147 8.769531,9.783203 -2.8136,0.658933 -5.756464,1 -8.769531,1 -3.013467,0 -5.956317,-0.341067 -8.78125,-1 2.354133,-3.731733 5.331783,-7.051869 8.78125,-9.783203 z M 26.792717,31.980469 c 6.5964,6.965599 10.621094,16.383817 10.621093,26.71875 0,4.066667 -0.621462,7.999878 -1.789062,11.705078 -6.595866,-6.982293 -10.638672,-16.38577 -10.638672,-26.720703 0,-4.075067 0.638908,-8.006326 1.806641,-11.703125 z m 25.972656,0 c 1.159466,3.696799 1.789062,7.628058 1.789063,11.703125 0,10.334933 -4.040852,19.73841 -10.636719,26.720703 -1.159333,-3.7052 -1.789063,-7.638411 -1.789063,-11.705078 0,-10.334933 4.040852,-19.753151 10.636719,-26.71875 z"
     id="path32"
     inkscape:connector-curvature="0" /><path
     id="path34"
     style="fill:#368e39;fill-opacity:1;fill-rule:nonzero;stroke:none;stroke-width:0.13333333"
     d="m 448.97441,60.864 h 3.91733 c 1.74,0 3.36,-0.177066 4.85867,-0.5328 1.49866,-0.353599 2.796,-0.942133 3.892,-1.763999 1.096,-0.821334 1.95866,-1.902667 2.588,-3.240667 0.62666,-1.335867 0.94133,-2.971867 0.94133,-4.9068 0,-1.675467 -0.31467,-3.133733 -0.94133,-4.376 -0.62934,-1.2396 -1.476,-2.264 -2.53867,-3.069733 -1.064,-0.805733 -2.31467,-1.4104 -3.748,-1.812533 -1.43467,-0.4036 -2.94133,-0.604667 -4.52,-0.604667 h -4.44933 z m -7.54267,-27.269199 h 11.31467 c 2.74,0 5.34266,0.305733 7.808,0.918267 2.46533,0.612933 4.61733,1.6036 6.45466,2.973866 1.83733,1.3704 3.296,3.15 4.376,5.342267 1.08,2.192133 1.62,4.852 1.62,7.976533 0,2.772933 -0.524,5.216133 -1.57067,7.325467 -1.048,2.111999 -2.45866,3.885999 -4.232,5.318266 -1.77333,1.434933 -3.81999,2.524 -6.13999,3.26512 -2.32134,0.741667 -4.75467,1.111453 -7.3,1.111453 H 441.43174 V 33.594801"
     inkscape:connector-curvature="0" /><path
     id="path36"
     style="fill:#368e39;fill-opacity:1;fill-rule:nonzero;stroke:none;stroke-width:0.13333333"
     d="m 485.4784,61.4448 h 6.76934 c 0.58,0 1.168,-0.06453 1.764,-0.195333 0.596,-0.128667 1.13733,-0.353067 1.62,-0.677067 0.48266,-0.321333 0.87866,-0.739066 1.184,-1.255733 0.30666,-0.516133 0.46,-1.145333 0.46,-1.8864 0,-0.805733 -0.20134,-1.4568 -0.604,-1.9568 -0.404,-0.500533 -0.912,-0.878133 -1.52267,-1.137466 -0.61333,-0.257334 -1.27467,-0.433867 -1.98267,-0.5324 -0.71066,-0.09627 -1.37066,-0.1448 -1.98266,-0.1448 h -5.70534 z m 0,-14.167199 h 5.464 c 0.58,0 1.15067,-0.064 1.716,-0.192667 0.56267,-0.128667 1.072,-0.3396 1.52267,-0.6292 0.45067,-0.2912 0.81333,-0.677066 1.088,-1.160933 0.27333,-0.482267 0.41067,-1.063067 0.41067,-1.740133 0,-0.709334 -0.152,-1.297867 -0.45867,-1.764 -0.30667,-0.468267 -0.70133,-0.830267 -1.184,-1.089067 -0.484,-0.257333 -1.032,-0.442267 -1.64533,-0.5568 -0.612,-0.112533 -1.208,-0.1688 -1.788,-0.1688 h -5.12534 z m -7.54266,-13.6828 h 12.764 c 1.48266,0 2.97466,0.104667 4.47333,0.313467 1.49867,0.211066 2.844,0.6292 4.03733,1.257866 1.19067,0.6292 2.15867,1.5068 2.9,2.6344 0.74134,1.128667 1.112,2.6276 1.112,4.4964 0,1.9348 -0.54,3.538 -1.61866,4.811867 -1.08,1.274 -2.50667,2.183866 -4.27867,2.7308 v 0.0964 c 1.12667,0.1624 2.15067,0.476 3.06933,0.944266 0.91867,0.466134 1.708,1.062934 2.36934,1.788 0.66,0.725467 1.168,1.571334 1.52266,2.538 0.35467,0.968267 0.532,1.998934 0.532,3.093734 0,1.806266 -0.388,3.313599 -1.16133,4.520799 -0.77333,1.209467 -1.77333,2.183867 -2.99733,2.9256 -1.224,0.741067 -2.60267,1.273907 -4.13334,1.595267 -1.532,0.32344 -3.05466,0.484373 -4.56933,0.484373 H 477.93574 V 33.594801"
     inkscape:connector-curvature="0" /></svg>