<?xml version="1.0" encoding="UTF-8" standalone="no"?>
<!-- Generator: Adobe Illustrator 14.0.0, SVG Export Plug-In . SVG Version: 6.00 Build 43363)  -->

<svg
   xmlns:dc="http://purl.org/dc/elements/1.1/"
   xmlns:cc="http://creativecommons.org/ns#"
   xmlns:rdf="http://www.w3.org/1999/02/22-rdf-syntax-ns#"
   xmlns:svg="http://www.w3.org/2000/svg"
   xmlns="http://www.w3.org/2000/svg"
   xmlns:sodipodi="http://sodipodi.sourceforge.net/DTD/sodipodi-0.dtd"
   xmlns:inkscape="http://www.inkscape.org/namespaces/inkscape"
   version="1.1"
   id="Layer_1"
   x="0px"
   y="0px"
   width="182.49713"
   height="50.497002"
   viewBox="208.5 290.5 182.49713 50.497002"
   enable-background="new 208.5 290.5 201 72"
   xml:space="preserve"
   inkscape:version="0.92.2 5c3e80d, 2017-08-06"
   sodipodi:docname="Costco_Wholesale.svg"><metadata
     id="metadata51"><rdf:RDF><cc:Work
         rdf:about=""><dc:format>image/svg+xml</dc:format><dc:type
           rdf:resource="http://purl.org/dc/dcmitype/StillImage" /><dc:title /></cc:Work></rdf:RDF></metadata><defs
     id="defs49" /><sodipodi:namedview
     pagecolor="#000000"
     bordercolor="#666666"
     borderopacity="1"
     objecttolerance="10"
     gridtolerance="10"
     guidetolerance="10"
     inkscape:pageopacity="0"
     inkscape:pageshadow="2"
     inkscape:window-width="1918"
     inkscape:window-height="2136"
     id="namedview47"
     showgrid="false"
     fit-margin-top="0"
     fit-margin-left="0"
     fit-margin-right="0"
     fit-margin-bottom="0"
     inkscape:zoom="6.3880597"
     inkscape:cx="104.02827"
     inkscape:cy="50.461715"
     inkscape:window-x="3840"
     inkscape:window-y="22"
     inkscape:window-maximized="0"
     inkscape:current-layer="Layer_1" /><path
     style="fill:#005daa"
     inkscape:connector-curvature="0"
     id="path7"
     d="m 270.6219,328.454 0.466,7.369 h 0.118 c 0.241,-0.753 0.509,-1.539 0.885,-2.276 l 2.54,-5.093 h 4.127 l 0.624,7.369 h 0.118 c 0.215,-0.721 0.457,-1.475 0.787,-2.178 l 2.48,-5.191 h 5.601 l -7.574,12.347 h -4.697 l -0.414,-6.714 h -0.177 c -0.18,0.64 -0.338,1.261 -0.63,1.867 l -2.415,4.847 h -4.58 l -2.841,-12.347 z" /><path
     style="fill:#005daa"
     inkscape:connector-curvature="0"
     id="path9"
     d="m 287.9749,328.454 h 5.188 l -0.79,4.159 h 3.301 l 0.791,-4.159 h 5.188 l -2.346,12.347 h -5.188 l 0.815,-4.29 h -3.302 l -0.815,4.29 h -5.188 z" /><path
     style="fill:#005daa"
     inkscape:connector-curvature="0"
     id="path11"
     d="m 316.8479,334.66 c -0.753,3.963 -4.88,6.337 -9.398,6.337 -4.521,0 -7.746,-2.375 -6.992,-6.337 0.737,-3.881 4.912,-6.403 9.412,-6.403 4.5,0 7.714,2.522 6.978,6.403 z m -10.978,0.065 c -0.269,1.408 0.688,2.375 2.319,2.375 1.632,0 2.955,-0.967 3.224,-2.375 0.248,-1.311 -0.604,-2.407 -2.314,-2.407 -1.712,0.001 -2.981,1.097 -3.229,2.407 z" /><path
     style="fill:#005daa"
     inkscape:connector-curvature="0"
     id="path13"
     d="m 318.0279,328.454 h 5.385 l -1.594,8.384 h 4.521 l -0.754,3.962 h -9.905 z" /><path
     style="fill:#005daa"
     inkscape:connector-curvature="0"
     id="path15"
     d="m 339.0789,336.379 0.24,0.181 c 0.844,0.622 1.907,1.13 3.146,1.13 0.531,0 1.41,-0.181 1.516,-0.737 0.106,-0.556 -0.592,-0.605 -1.066,-0.688 l -1.051,-0.163 c -2.045,-0.312 -3.615,-1.344 -3.25,-3.275 0.559,-2.931 4.072,-4.569 7.295,-4.569 1.69,0 3.179,0.345 4.492,1.081 l -2.055,3.161 c -0.824,-0.524 -1.788,-0.934 -2.948,-0.934 -0.471,0 -1.188,0.146 -1.282,0.654 -0.088,0.458 0.567,0.524 0.965,0.606 l 1.176,0.229 c 2.197,0.427 3.656,1.441 3.259,3.537 -0.562,2.948 -4.062,4.405 -7.265,4.405 -1.866,0 -3.948,-0.426 -5.484,-1.13 z" /><path
     style="fill:#005daa"
     inkscape:connector-curvature="0"
     id="path17"
     d="m 357.5789,336.33 -0.215,-2.178 c -0.058,-0.524 -0.054,-1.064 -0.051,-1.589 h -0.197 l -1.697,3.767 z m -4.688,4.471 h -5.699 l 7.496,-12.347 h 5.954 l 2.94,12.347 h -5.699 l -0.198,-1.539 h -4.067 z" /><path
     style="fill:#005daa"
     inkscape:connector-curvature="0"
     id="path19"
     d="m 365.4789,328.454 h 5.385 l -1.594,8.384 h 4.521 l -0.754,3.962 h -9.904 z" /><path
     style="fill:#005daa"
     inkscape:connector-curvature="0"
     id="path21"
     d="m 376.3839,328.454 h 9.965 l -0.642,3.374 h -4.541 l -0.224,1.179 h 4.146 l -0.609,3.21 h -4.147 l -0.229,1.211 h 4.698 l -0.643,3.373 h -10.121 z" /><path
     d="m 303.3229,306.264 6.799,-0.255 -5.705,18.799 h 12.199 l 5.703,-18.799 6.646,0.255 2.708,-8.926 h -25.644 z"
     id="path25"
     inkscape:connector-curvature="0"
     style="fill:#e31837" /><path
     d="m 278.0639,311.145 c -1.706,8.815 -11.052,14.099 -21.292,14.099 -10.239,0 -17.542,-5.283 -15.836,-14.099 1.67,-8.635 11.125,-14.244 21.32,-14.244 10.194,0 17.478,5.61 15.808,14.244 z m -24.87,0.146 c -0.605,3.133 1.562,5.283 5.255,5.283 3.695,0 6.693,-2.149 7.299,-5.283 0.564,-2.914 -1.368,-5.354 -5.241,-5.354 -3.873,-0.002 -6.749,2.44 -7.313,5.354 z"
     id="path27"
     inkscape:connector-curvature="0"
     style="fill:#e31837" /><path
     d="m 274.2729,322.73 c 3.481,1.565 8.195,2.514 12.424,2.514 7.257,0 15.185,-3.242 16.453,-9.8 0.902,-4.663 -2.399,-6.922 -7.381,-7.869 l -2.662,-0.51 c -0.9,-0.183 -2.385,-0.328 -2.188,-1.349 0.218,-1.129 1.84,-1.458 2.909,-1.458 2.625,0 4.81,0.911 6.676,2.077 l 4.654,-7.031 c -2.978,-1.639 -6.346,-2.403 -10.175,-2.403 -7.301,0 -15.263,3.643 -16.524,10.164 -0.832,4.299 2.731,6.594 7.36,7.287 l 2.378,0.363 c 1.078,0.184 2.66,0.292 2.42,1.53 -0.24,1.238 -2.231,1.639 -3.434,1.639 -2.805,0 -5.213,-1.129 -7.126,-2.513 l -0.545,-0.401 z"
     id="path29"
     inkscape:connector-curvature="0"
     style="fill:#e31837" /><path
     d="m 355.4179,298.03 c -2.44,-0.729 -5.213,-1.129 -7.974,-1.129 -9.838,0 -18.78,6.412 -20.331,14.427 -1.516,7.833 4.787,13.917 14.359,13.917 2.18,0 6.784,-0.328 8.893,-1.093 l 2.344,-10.273 c -2.264,1.566 -4.678,2.55 -7.483,2.55 -3.649,0 -6.36,-2.332 -5.774,-5.354 0.578,-2.988 4.02,-5.355 7.67,-5.355 2.76,0 4.961,1.275 6.633,2.77 z"
     id="path31"
     inkscape:connector-curvature="0"
     style="fill:#e31837" /><path
     d="m 374.9499,296.901 c -10.194,0 -19.649,5.609 -21.32,14.244 -1.705,8.815 5.598,14.099 15.838,14.099 10.238,0 19.586,-5.283 21.291,-14.099 1.668,-8.634 -5.616,-14.244 -15.809,-14.244 z m -1.748,9.034 c 3.873,0 5.806,2.44 5.24,5.354 -0.605,3.133 -3.604,5.283 -7.299,5.283 -3.695,0 -5.861,-2.149 -5.255,-5.283 0.564,-2.912 3.441,-5.354 7.314,-5.354 z"
     id="path33"
     inkscape:connector-curvature="0"
     style="fill:#e31837" /><path
     d="m 244.0809,291.865 c -3.045,-0.881 -6.501,-1.365 -9.944,-1.365 -12.271,0 -23.424,7.75 -25.357,17.438 -1.889,9.468 5.971,16.821 17.908,16.821 2.721,0 8.464,-0.396 11.091,-1.32 l 2.923,-12.419 c -2.821,1.894 -5.834,3.083 -9.333,3.083 -4.553,0 -7.932,-2.819 -7.203,-6.475 0.721,-3.61 5.013,-6.474 9.565,-6.474 3.442,0 6.188,1.542 8.271,3.347 z"
     id="path35"
     inkscape:connector-curvature="0"
     style="fill:#e31837" /><path
     d="m 383.2519,323.472 c 0.183,-0.959 1.252,-1.732 2.416,-1.732 1.155,0 1.938,0.773 1.756,1.732 -0.185,0.965 -1.259,1.738 -2.416,1.738 -1.163,0 -1.938,-0.774 -1.756,-1.738 z m 3.628,0 c 0.146,-0.772 -0.408,-1.279 -1.3,-1.279 -0.906,0 -1.638,0.507 -1.783,1.279 -0.147,0.773 0.391,1.285 1.298,1.285 0.891,0 1.638,-0.511 1.785,-1.285 z m -0.743,0.907 h -0.539 l -0.339,-0.769 h -0.353 l -0.146,0.769 h -0.458 l 0.345,-1.816 h 1.057 c 0.466,0 0.718,0.129 0.638,0.556 -0.061,0.311 -0.304,0.471 -0.585,0.493 z m -0.668,-1.116 c 0.229,0 0.426,0 0.464,-0.194 0.03,-0.16 -0.168,-0.16 -0.397,-0.16 h -0.496 l -0.065,0.354 z"
     id="path37"
     inkscape:connector-curvature="0"
     style="fill:#e31837" /><polygon
     style="fill:#005daa"
     id="polygon39"
     points="277.751,351.367 277.747,351.347 277.7,351.347 276.978,348.207 220.658,348.207 220.658,351.367 "
     transform="translate(-11.025094,-10.546)" /><polygon
     style="fill:#005daa"
     id="polygon41"
     points="220.658,343.72 220.658,346.879 276.672,346.879 275.944,343.72 "
     transform="translate(-11.025094,-10.546)" /><polygon
     style="fill:#005daa"
     id="polygon43"
     points="275.369,341.221 274.864,339.024 220.658,339.024 220.658,342.372 275.616,342.372 "
     transform="translate(-11.025094,-10.546)" /><path
     style="fill:#005daa"
     inkscape:connector-curvature="0"
     id="path45"
     d="m 328.9339,328.454 h 9.964 l -0.641,3.374 h -4.54 l -0.225,1.179 h 4.146 l -0.609,3.21 h -4.146 l -0.23,1.211 h 4.697 l -0.641,3.373 h -10.123 z" /></svg>