<?xml version="1.0" encoding="utf-8"?>
<!-- Generator: Adobe Illustrator 22.0.1, SVG Export Plug-In . SVG Version: 6.00 Build 0)  -->
<svg version="1.1" id="Layer_1" xmlns="http://www.w3.org/2000/svg" xmlns:xlink="http://www.w3.org/1999/xlink" x="0px" y="0px"
	 viewBox="65 65 460 230" style="enable-background:new 0 0 593 357.8;" xml:space="preserve">
<style type="text/css">
	.st0{fill:#86BC25;}
	.st1{fill:#FFFFFF;}
</style>
<g>
	<g>
		<path class="st0" d="M490.1,148.4c0-6.3,5.1-11.4,11.4-11.4s11.4,5.1,11.4,11.4c0,6.3-5.1,11.4-11.4,11.4
			C495.2,159.9,490.1,154.7,490.1,148.4"/>
		<g>
			<path class="st1" d="M146.6,117.3c0,13.2-3.6,23.4-10.7,30.5c-7.1,7.2-17.1,10.7-30,10.7H81V79.4h26.8c12.4,0,22,3.3,28.7,9.7
				C143.2,95.7,146.6,105.1,146.6,117.3 M124.9,118.1c0-7.3-1.4-12.6-4.2-16.1c-2.8-3.5-7.1-5.3-12.8-5.3h-6.1V141h4.7
				c6.3,0,11-1.9,14-5.7C123.5,131.6,124.9,125.8,124.9,118.1"/>
			<rect x="215.9" y="79.1" class="st1" width="19.9" height="79.5"/>
			<path class="st1" d="M301.1,128.9c0,9.7-2.5,17.2-7.6,22.6c-5.1,5.4-12.2,8.1-21.3,8.1c-8.8,0-15.7-2.8-20.9-8.3
				c-5.2-5.5-7.8-13-7.8-22.4c0-9.6,2.5-17.1,7.6-22.4c5.1-5.3,12.2-8,21.4-8c5.7,0,10.7,1.2,15,3.7s7.7,6,10.1,10.6
				C299.9,117.4,301.1,122.8,301.1,128.9 M263.8,128.9c0,5.1,0.7,8.9,2,11.6c1.3,2.7,3.5,4,6.7,4c3.1,0,5.3-1.3,6.5-4
				c1.3-2.7,1.9-6.5,1.9-11.6c0-5-0.6-8.8-1.9-11.4s-3.5-3.9-6.6-3.9s-5.2,1.3-6.6,3.8C264.4,120.1,263.8,123.9,263.8,128.9"/>
			<rect x="309" y="99.5" class="st1" width="19.9" height="59.1"/>
			<rect x="309" y="79.1" class="st1" width="19.9" height="13.3"/>
			<path class="st1" d="M369.3,143.5c2.7,0,5.9-0.7,9.6-2v14.9c-2.7,1.2-5.2,2-7.7,2.5c-2.4,0.5-5.3,0.8-8.5,0.8
				c-6.7,0-11.5-1.7-14.5-5c-2.9-3.4-4.4-8.5-4.4-15.4V115h-7V99.5h7v-15l20.1-3.5v18.6h12.7v15.3h-12.7v23
				C363.9,141.6,365.7,143.5,369.3,143.5"/>
			<path class="st1" d="M415.3,143.5c2.7,0,5.9-0.7,9.6-2v14.9c-2.7,1.2-5.2,2-7.7,2.5c-2.4,0.5-5.3,0.8-8.5,0.8
				c-6.7,0-11.5-1.7-14.5-5c-3-3.4-4.4-8.5-4.4-15.4V115h-7V99.5h7V84.2l20.1-3.3v18.6h12.7v15.3h-12.7v23
				C409.9,141.6,411.7,143.5,415.3,143.5"/>
			<path class="st1" d="M478.1,105.5c-4.7-4.6-11.4-7-20.1-7c-9.1,0-16.2,2.7-21.1,8s-7.4,13-7.4,23c0,9.7,2.7,17.1,8,22.3
				s12.8,7.8,22.4,7.8c4.6,0,8.6-0.3,11.9-0.9c3.3-0.6,6.5-1.7,9.6-3.4l-3.1-13.3c-2.3,0.9-4.4,1.6-6.4,2.1c-2.9,0.7-6.1,1-9.6,1
				c-3.8,0-6.9-0.9-9.1-2.8c-2.2-1.9-3.4-4.5-3.5-7.8h35.6v-9.1C485.2,116.8,482.9,110.1,478.1,105.5 M450.1,121.7
				c0.3-3.2,1.2-5.6,2.8-7.1c1.6-1.5,3.5-2.3,5.9-2.3c2.5,0,4.6,0.9,6.1,2.6s2.3,4,2.4,6.8H450.1z"/>
			<path class="st1" d="M201.1,105.5c-4.7-4.6-11.4-7-20.1-7c-9.1,0-16.2,2.7-21.1,8c-4.9,5.3-7.4,13-7.4,23c0,9.7,2.7,17.1,8,22.3
				s12.8,7.8,22.4,7.8c4.6,0,8.6-0.3,11.9-0.9c3.3-0.6,6.5-1.7,9.6-3.4l-3.1-13.3c-2.3,0.9-4.4,1.6-6.4,2.1c-2.9,0.7-6.1,1-9.6,1
				c-3.8,0-6.9-0.9-9.1-2.8c-2.2-1.9-3.4-4.5-3.5-7.8h35.6v-9.1C208.2,116.8,205.8,110.1,201.1,105.5 M173,121.7
				c0.3-3.2,1.2-5.6,2.8-7.1s3.5-2.3,5.9-2.3c2.5,0,4.6,0.9,6.1,2.6s2.3,4,2.4,6.8H173z"/>
		</g>
	</g>
	<g>
		<path class="st1" d="M137.8,215c0,12.5-3.3,22-9.9,28.5c-6.6,6.4-16.2,9.6-29,9.6H81v-74.8h20.2c11.9,0,21,3.1,27.2,9.4
			C134.7,193.9,137.8,203,137.8,215z M132.1,215.2c0-10.7-2.7-18.8-8.2-24.2c-5.4-5.4-13.4-8.1-24-8.1H86.2v65.6h12.4
			C120.9,248.5,132.1,237.4,132.1,215.2z"/>
		<path class="st1" d="M152.8,253.1h-5.1v-55.6h5.1V253.1z"/>
		<path class="st1" d="M152.8,191h-5.1v-7h5.1V191z"/>
		<path class="st1" d="M222.7,253.1h-5.1v-55.6h5.1V253.1z"/>
		<path class="st1" d="M222.7,191h-5.1v-7h5.1V191z"/>
		<path class="st1" d="M208.7,197.5v3.5l-11.5,0.7c3.1,3.8,4.6,8,4.6,12.6c0,5.4-1.8,9.7-5.3,13c-3.6,3.3-8.3,5-14.3,5
			c-2.5,0-4.3-0.1-5.3-0.3c-2,1.1-3.5,2.3-4.6,3.7s-1.6,2.9-1.6,4.6c0,1.8,0.7,3.1,2,3.9c1.3,0.8,3.6,1.2,6.8,1.2h9.7
			c6,0,10.7,1.2,13.9,3.7c3.2,2.4,4.8,6,4.8,10.8c0,5.9-2.4,10.4-7.1,13.6c-4.8,3.2-11.5,4.8-20.3,4.8c-7,0-12.4-1.3-16.2-4
			s-5.8-6.4-5.8-11.3c0-3.8,1.2-7,3.6-9.5c2.4-2.5,5.6-4.2,9.6-5.2c-1.7-0.7-3-1.7-4-3s-1.5-2.8-1.5-4.5c0-3.7,2.4-7,7.1-9.8
			c-3.2-1.3-5.8-3.4-7.6-6.3c-1.8-2.8-2.7-6.1-2.7-9.8c0-5.6,1.8-10,5.3-13.4s8.3-5,14.3-5c3.6,0,6.5,0.4,8.5,1.1h17.6V197.5z
			 M163.7,262.5c0,7.6,5.7,11.5,17,11.5c14.6,0,21.9-4.7,21.9-14c0-3.3-1.1-5.8-3.4-7.3c-2.3-1.5-6-2.3-11.1-2.3H179
			C168.8,250.5,163.7,254.5,163.7,262.5z M168,214.8c0,4.3,1.3,7.6,3.9,10c2.6,2.4,6.1,3.6,10.5,3.6c4.6,0,8.2-1.2,10.7-3.5
			c2.5-2.4,3.7-5.8,3.7-10.2c0-4.7-1.3-8.3-3.8-10.7s-6.1-3.6-10.7-3.6c-4.4,0-7.9,1.3-10.5,3.8C169.2,206.8,168,210.3,168,214.8z"
			/>
		<path class="st1" d="M304.3,253.1l-1.3-8.8h-0.4c-2.8,3.6-5.7,6.1-8.6,7.6s-6.4,2.2-10.5,2.2c-5.5,0-9.7-1.4-12.7-4.2
			s-4.6-6.7-4.6-11.6c0-5.4,2.3-9.6,6.8-12.6s11.1-4.6,19.6-4.8l10.6-0.3v-3.7c0-5.3-1.1-9.3-3.2-12s-5.6-4-10.4-4
			c-5.1,0-10.5,1.4-16,4.3l-1.9-4.4c6.1-2.9,12.1-4.3,18.1-4.3c6.1,0,10.7,1.6,13.7,4.8s4.5,8.1,4.5,14.8v37H304.3z M283.8,249.5
			c5.9,0,10.6-1.7,14-5.1c3.4-3.4,5.1-8.1,5.1-14.1v-5.5l-9.7,0.4c-7.8,0.4-13.4,1.6-16.7,3.7c-3.3,2.1-5,5.3-5,9.6
			c0,3.5,1.1,6.2,3.2,8.1C276.9,248.5,279.9,249.5,283.8,249.5z"/>
		<path class="st1" d="M327.3,253.1h-5.1v-79.6h5.1V253.1z"/>
		<path class="st1" d="M252.8,249.6c3.2,0,6-0.3,8.4-0.8v4.1c-2.5,0.8-5.3,1.2-8.5,1.2c-4.9,0-8.5-1.3-10.9-3.9
			c-2.3-2.6-3.5-6.8-3.5-12.4v-35.9h-8.2v-4.4h8.2V185l5.2-1v13.5h16.3v4.4h-16.3v35.2c0,4.3,0.7,7.4,2.3,9.5
			C247.3,248.6,249.6,249.6,252.8,249.6z"/>
	</g>
</g>
</svg>
