<svg version="1.1" id="Layer_1" xmlns="http://www.w3.org/2000/svg" x="0" y="0" viewBox="65 65 460 230" xml:space="preserve"><style>.st1{fill:#fff}</style><path d="M490.1 148.4c0-6.3 5.1-11.4 11.4-11.4s11.4 5.1 11.4 11.4c0 6.3-5.1 11.4-11.4 11.4-6.3.1-11.4-5.1-11.4-11.4" fill="#86bc25"/><path class="st1" d="M146.6 117.3c0 13.2-3.6 23.4-10.7 30.5-7.1 7.2-17.1 10.7-30 10.7H81V79.4h26.8c12.4 0 22 3.3 28.7 9.7 6.7 6.6 10.1 16 10.1 28.2m-21.7.8c0-7.3-1.4-12.6-4.2-16.1-2.8-3.5-7.1-5.3-12.8-5.3h-6.1V141h4.7c6.3 0 11-1.9 14-5.7 3-3.7 4.4-9.5 4.4-17.2M215.9 79.1h19.9v79.5h-19.9zM301.1 128.9c0 9.7-2.5 17.2-7.6 22.6-5.1 5.4-12.2 8.1-21.3 8.1-8.8 0-15.7-2.8-20.9-8.3-5.2-5.5-7.8-13-7.8-22.4 0-9.6 2.5-17.1 7.6-22.4 5.1-5.3 12.2-8 21.4-8 5.7 0 10.7 1.2 15 3.7s7.7 6 10.1 10.6c2.3 4.6 3.5 10 3.5 16.1m-37.3 0c0 5.1.7 8.9 2 11.6 1.3 2.7 3.5 4 6.7 4 3.1 0 5.3-1.3 6.5-4 1.3-2.7 1.9-6.5 1.9-11.6 0-5-.6-8.8-1.9-11.4s-3.5-3.9-6.6-3.9-5.2 1.3-6.6 3.8c-1.4 2.7-2 6.5-2 11.5M309 99.5h19.9v59.1H309zM309 79.1h19.9v13.3H309zM369.3 143.5c2.7 0 5.9-.7 9.6-2v14.9c-2.7 1.2-5.2 2-7.7 2.5-2.4.5-5.3.8-8.5.8-6.7 0-11.5-1.7-14.5-5-2.9-3.4-4.4-8.5-4.4-15.4V115h-7V99.5h7v-15l20.1-3.5v18.6h12.7v15.3h-12.7v23c0 3.7 1.8 5.6 5.4 5.6M415.3 143.5c2.7 0 5.9-.7 9.6-2v14.9c-2.7 1.2-5.2 2-7.7 2.5-2.4.5-5.3.8-8.5.8-6.7 0-11.5-1.7-14.5-5-3-3.4-4.4-8.5-4.4-15.4V115h-7V99.5h7V84.2l20.1-3.3v18.6h12.7v15.3h-12.7v23c0 3.8 1.8 5.7 5.4 5.7M478.1 105.5c-4.7-4.6-11.4-7-20.1-7-9.1 0-16.2 2.7-21.1 8s-7.4 13-7.4 23c0 9.7 2.7 17.1 8 22.3s12.8 7.8 22.4 7.8c4.6 0 8.6-.3 11.9-.9 3.3-.6 6.5-1.7 9.6-3.4l-3.1-13.3c-2.3.9-4.4 1.6-6.4 2.1-2.9.7-6.1 1-9.6 1-3.8 0-6.9-.9-9.1-2.8-2.2-1.9-3.4-4.5-3.5-7.8h35.6v-9.1c-.1-8.6-2.4-15.3-7.2-19.9m-28 16.2c.3-3.2 1.2-5.6 2.8-7.1 1.6-1.5 3.5-2.3 5.9-2.3 2.5 0 4.6.9 6.1 2.6s2.3 4 2.4 6.8h-17.2zM201.1 105.5c-4.7-4.6-11.4-7-20.1-7-9.1 0-16.2 2.7-21.1 8-4.9 5.3-7.4 13-7.4 23 0 9.7 2.7 17.1 8 22.3s12.8 7.8 22.4 7.8c4.6 0 8.6-.3 11.9-.9 3.3-.6 6.5-1.7 9.6-3.4l-3.1-13.3c-2.3.9-4.4 1.6-6.4 2.1-2.9.7-6.1 1-9.6 1-3.8 0-6.9-.9-9.1-2.8-2.2-1.9-3.4-4.5-3.5-7.8h35.6v-9.1c-.1-8.6-2.5-15.3-7.2-19.9M173 121.7c.3-3.2 1.2-5.6 2.8-7.1s3.5-2.3 5.9-2.3c2.5 0 4.6.9 6.1 2.6s2.3 4 2.4 6.8H173z"/><g><path class="st1" d="M137.8 215c0 12.5-3.3 22-9.9 28.5-6.6 6.4-16.2 9.6-29 9.6H81v-74.8h20.2c11.9 0 21 3.1 27.2 9.4 6.3 6.2 9.4 15.3 9.4 27.3zm-5.7.2c0-10.7-2.7-18.8-8.2-24.2-5.4-5.4-13.4-8.1-24-8.1H86.2v65.6h12.4c22.3 0 33.5-11.1 33.5-33.3zM152.8 253.1h-5.1v-55.6h5.1v55.6zM152.8 191h-5.1v-7h5.1v7zM222.7 253.1h-5.1v-55.6h5.1v55.6zM222.7 191h-5.1v-7h5.1v7zM208.7 197.5v3.5l-11.5.7c3.1 3.8 4.6 8 4.6 12.6 0 5.4-1.8 9.7-5.3 13-3.6 3.3-8.3 5-14.3 5-2.5 0-4.3-.1-5.3-.3-2 1.1-3.5 2.3-4.6 3.7s-1.6 2.9-1.6 4.6c0 1.8.7 3.1 2 3.9 1.3.8 3.6 1.2 6.8 1.2h9.7c6 0 10.7 1.2 13.9 3.7 3.2 2.4 4.8 6 4.8 10.8 0 5.9-2.4 10.4-7.1 13.6-4.8 3.2-11.5 4.8-20.3 4.8-7 0-12.4-1.3-16.2-4s-5.8-6.4-5.8-11.3c0-3.8 1.2-7 3.6-9.5 2.4-2.5 5.6-4.2 9.6-5.2-1.7-.7-3-1.7-4-3s-1.5-2.8-1.5-4.5c0-3.7 2.4-7 7.1-9.8-3.2-1.3-5.8-3.4-7.6-6.3-1.8-2.8-2.7-6.1-2.7-9.8 0-5.6 1.8-10 5.3-13.4s8.3-5 14.3-5c3.6 0 6.5.4 8.5 1.1h17.6v-.1zm-45 65c0 7.6 5.7 11.5 17 11.5 14.6 0 21.9-4.7 21.9-14 0-3.3-1.1-5.8-3.4-7.3s-6-2.3-11.1-2.3H179c-10.2.1-15.3 4.1-15.3 12.1zm4.3-47.7c0 4.3 1.3 7.6 3.9 10 2.6 2.4 6.1 3.6 10.5 3.6 4.6 0 8.2-1.2 10.7-3.5 2.5-2.4 3.7-5.8 3.7-10.2 0-4.7-1.3-8.3-3.8-10.7s-6.1-3.6-10.7-3.6c-4.4 0-7.9 1.3-10.5 3.8-2.6 2.6-3.8 6.1-3.8 10.6zM304.3 253.1l-1.3-8.8h-.4c-2.8 3.6-5.7 6.1-8.6 7.6s-6.4 2.2-10.5 2.2c-5.5 0-9.7-1.4-12.7-4.2s-4.6-6.7-4.6-11.6c0-5.4 2.3-9.6 6.8-12.6s11.1-4.6 19.6-4.8l10.6-.3v-3.7c0-5.3-1.1-9.3-3.2-12s-5.6-4-10.4-4c-5.1 0-10.5 1.4-16 4.3l-1.9-4.4c6.1-2.9 12.1-4.3 18.1-4.3 6.1 0 10.7 1.6 13.7 4.8s4.5 8.1 4.5 14.8v37h-3.7zm-20.5-3.6c5.9 0 10.6-1.7 14-5.1 3.4-3.4 5.1-8.1 5.1-14.1v-5.5l-9.7.4c-7.8.4-13.4 1.6-16.7 3.7-3.3 2.1-5 5.3-5 9.6 0 3.5 1.1 6.2 3.2 8.1 2.2 1.9 5.2 2.9 9.1 2.9zM327.3 253.1h-5.1v-79.6h5.1v79.6zM252.8 249.6c3.2 0 6-.3 8.4-.8v4.1c-2.5.8-5.3 1.2-8.5 1.2-4.9 0-8.5-1.3-10.9-3.9-2.3-2.6-3.5-6.8-3.5-12.4v-35.9h-8.2v-4.4h8.2V185l5.2-1v13.5h16.3v4.4h-16.3v35.2c0 4.3.7 7.4 2.3 9.5 1.5 2 3.8 3 7 3z"/></g></svg>