<svg xmlns="http://www.w3.org/2000/svg" width="352.56" height="65.685"><path d="M100.061 51.823c-1.631.553-3.332 1.054-5.033 1.401a31.006 31.006 0 0 1-6.163.627c-6.787 0-12.1-2.258-12.968-7.637h28.952c.213-1.032.593-3.532.593-6.161 0-12.223-6.08-23.444-21.596-23.444-15.072 0-23.096 11.82-23.096 25.062 0 15.266 10.673 24 25.575 24 3.795 0 6.57-.341 8.86-.806 2.376-.485 4.995-1.267 7.21-2.26zm-16.479-24.25c5.738 0 7.472 5.243 7.472 8.121H75.587c0-4.077 2.835-8.12 7.995-8.12M324.82 51.823c-1.631.553-3.332 1.054-5.034 1.401a31.003 31.003 0 0 1-6.162.627c-6.785 0-12.098-2.258-12.966-7.637h28.95c.215-1.032.593-3.532.593-6.161 0-12.223-6.081-23.444-21.595-23.444-15.072 0-23.095 11.82-23.095 25.062 0 15.266 10.671 24 25.574 24 3.794 0 6.568-.341 8.86-.806 2.375-.485 4.995-1.267 7.209-2.26zm-16.477-24.25c5.737 0 7.47 5.243 7.47 8.121h-15.465c0-4.077 2.835-8.12 7.995-8.12M112.534 64.664h15.7V1.046h-15.7zM159.551 65.67c12.252 0 24.65-7.715 24.65-24.944 0-10.258-6.077-24.038-23.881-24.038-18.327 0-25.012 13.353-25.012 24.82 0 14.389 9.992 24.162 24.243 24.162zm.212-11.644c-5.1 0-8.45-5.042-8.45-12.838 0-6.212 2.245-12.841 8.503-12.841 6.039 0 8.183 6.872 8.183 12.773 0 7.833-3.258 12.906-8.236 12.906M191.027 64.664h15.698V17.719h-15.698zM191.027 13.255h15.698V1.065h-15.698zM219.16 4.946v12.767h-6.032v11.634h6.032v19.232c0 10.578 4.836 17.05 15.876 17.05 2.07 0 4.408-.212 6.561-.535 1.993-.3 3.76-.661 4.534-.914.013-.013-.115-12.263-.115-12.308-.505.175-4.065.774-5.366.774-1.263 0-3.139-.16-4.479-1.533-.956-.977-1.642-2.57-1.642-5.16V29.348h10.147V17.713H234.53v-14.5L219.16 4.946M255.481 4.946v12.767h-6.032v11.634h6.032v19.232c0 10.578 4.838 17.05 15.878 17.05 2.07 0 4.406-.212 6.557-.535 1.994-.3 3.762-.661 4.537-.914.01-.013-.115-12.263-.115-12.308-.507.175-4.063.774-5.367.774-1.262 0-3.137-.16-4.477-1.533-.958-.977-1.641-2.57-1.641-5.16V29.348h10.143V17.713h-10.143v-14.5L255.48 4.946" fill="#1e4695"/><path d="M335.19 57a8.683 8.683 0 0 1 8.684-8.682c4.795 0 8.686 3.887 8.686 8.682a8.686 8.686 0 0 1-17.37 0" fill="#8cd133"/><path d="M22.711 52.059c-.653.054-1.634.078-2.262.078H15.47c.007-.005 0-39.097 0-39.097a68.122 68.122 0 0 1 5.37-.256c9.127 0 18.852 5.922 18.852 19.599 0 14.269-9.14 19.029-16.982 19.676zM0 64.734h17.766c1.203 0 2.657-.03 3.797-.088 24.315-1.256 34.433-15.647 34.433-32.263 0-20.757-14-32.383-38.16-32.383C11.636 0 6.123.21 0 .728v64.006" fill="#1e4695"/></svg>