<svg xmlns="http://www.w3.org/2000/svg" width="944.892" height="196.212" viewBox="0 0 708.669 147.159"><path d="M9.156 7.136c4.34-5.14 11.39-6.73 17.84-6.82 10.05 0 20.1-.03 30.15.01 1.62-.24 3.37.89 3.06 2.7-.27 3.66-.63 7.33-1.45 10.91-.42 2.15-2.96 2.33-4.73 2.37-9.35.06-18.71-.04-28.06.02-1.53-.13-3.27.56-3.62 2.21-.74 3.05-.93 6.2-1.37 9.3 9.35-.06 18.69.01 28.03-.04 1.98.02 4.04-.12 5.93.62 1.51 2.67.13 5.83.05 8.68-.44 2.35-.19 5.93-3.16 6.63-10.98.24-21.99-.01-32.98.12-.67 4.41-1.08 8.86-1.85 13.26-.14 2.44-2.95 3.12-4.96 2.97-3.99-.15-8.15.56-12-.82.46-11.51 2.81-22.86 4.08-34.3.97-6.06.86-12.86 5.04-17.82zM73.396.466c4.41-.26 8.86-.29 13.27.01 2.07.4 1.62 2.93 1.52 4.46-2.19 17.01-4.51 34-6.77 51-.18 1.81-1.11 4.04-3.27 4.01-4.04.19-8.12.31-12.15-.1-1.75-.25-2.23-2.39-1.79-3.86 2.18-17 4.54-33.98 6.75-50.98.2-1.72.5-3.92 2.44-4.54zM100.816 4.136c.04-1.78 1.23-3.84 3.23-3.78 11.65-.11 23.31-.01 34.96-.04 5.9.09 12.46 1.41 16.31 6.29 3.54 4.25 3.58 10.15 2.94 15.37-1.55 11.42-3.04 22.84-4.59 34.26-.1 1.88-1.49 3.86-3.55 3.75-4.04.08-8.14.37-12.14-.22-1.71-.28-1.61-2.39-1.46-3.68 1.39-12.04 3.33-24.02 4.66-36.07.51-1.99-1.17-3.88-3.18-3.68-7.2-.09-14.41.05-21.61-.05-1.79 13.26-3.5 26.53-5.29 39.79.06 2.14-1.63 4.16-3.88 3.95-4.42-.12-9.03.7-13.3-.79-.09-1.93 0-3.87.28-5.78 2.25-16.43 4.35-32.89 6.62-49.32zM173.116 3.986c.01-2.03 1.64-4 3.8-3.66 11.72-.02 23.44-.03 35.15 0 5.84.2 12.35 1.75 15.92 6.79 3.26 4.32 3.18 10.03 2.52 15.14-1.44 10.97-2.94 21.92-4.36 32.89-.26 1.76-.51 4.25-2.67 4.64-3.8.58-7.7.23-11.54.25-1.59.17-3.65-1.04-3.18-2.89 1.25-12.4 3.4-24.72 4.71-37.12.39-1.66-.66-3.65-2.49-3.65-7.44-.16-14.89-.02-22.33-.05a17405.4 17405.4 0 0 1-5.26 39.92c-.11 1.79-1.33 3.76-3.33 3.71-4.02.17-8.09.31-12.1-.11-1.68-.28-2.15-2.3-1.77-3.73 2.26-17.38 4.61-34.75 6.93-52.13zM247.386.586c4.42-.56 8.96-.26 13.42-.19 2.48.63 1.63 3.68 1.58 5.54-2.24 16.76-4.46 33.52-6.71 50.28-.05 1.89-1.47 3.83-3.5 3.76-4.04.1-8.14.36-12.16-.2-2.08-.46-1.62-3.04-1.42-4.62 2.21-16.76 4.45-33.52 6.67-50.28.24-1.56.45-3.59 2.12-4.29zM274.966 5.036c.17-1.87.73-4.61 3.1-4.66 11.99-.14 24-.05 35.99-.04 6.32.12 13.47 2.1 16.76 7.99 4.07 7.06 1.22 15.37.54 22.91-1.5 9.32-1.96 18.84-4.18 28.03-3.26 1.19-6.77.74-10.16.82-1.7-.11-3.55.29-5.1-.59-1.76-.71-1.02-2.97-.98-4.39 1.46-11.04 2.99-22.08 4.4-33.14.21-1.91.68-4.7-1.67-5.49-7.63-.39-15.3-.03-22.94-.17-1.84 13.27-3.5 26.57-5.31 39.84-.13 1.78-1.25 3.8-3.25 3.8-4.06.18-8.17.32-12.21-.11-1.72-.28-2.18-2.36-1.75-3.82 2.21-17 4.54-33.98 6.76-50.98zM352.056 4.046c5.55-3.77 12.52-3.8 18.97-3.98 9.67.01 19.34-.03 29.01.02 1.5.11 3.66-.01 4.21 1.8.11 3.77-.53 7.53-1.17 11.24-.17 1.48-1.35 2.99-2.96 2.89-11.41.18-22.83-.09-34.24.11-1.85-.05-4.01.92-4.17 2.99-1.01 6.97-2.02 13.96-2.73 20.97-.59 1.94.88 4.08 2.98 3.93 6.67.15 13.36-.01 20.04.05.28-2.16.55-4.33.82-6.5-3.91-.29-8.05.72-11.78-.73-1.56-1.82-.46-4.47-.4-6.62.51-2.32.16-6.25 3.39-6.56 8.31-.19 16.64-.11 24.95-.04 1.92-.24 3 1.78 2.52 3.44-1.17 9.97-2.54 19.93-3.95 29.88-.13 2.26-2.41 3.33-4.45 3.11-10.34.05-20.69 0-31.04.02-5.53-.1-11.56-.68-15.97-4.39-4.17-3.54-5.38-9.43-4.59-14.64 1.03-8.16 2.13-16.3 3.26-24.45.64-4.92 3-9.82 7.3-12.54zM445.266.436c6.61-.21 13.25-.25 19.85.06 6.15.25 12.61 3.52 14.92 9.51 2.92 7.64.67 15.84-.22 23.65-1.1 8.23-3.39 17.43-10.75 22.31-8.21 5.78-18.7 3.7-28.08 4.12-2.67.29-6.91-.24-6.21-3.94 2.14-17.01 4.67-33.99 6.94-50.99.07-2.15 1.04-4.63 3.55-4.72m5.76 7.63c-.39.34-1.17 1-1.56 1.33-1.93 14.28-4.11 28.53-5.8 42.84 6.95-.3 14.79 1.61 20.88-2.72 4.71-3.27 5.81-9.35 6.74-14.62.83-6.29 2.3-12.64 1.54-19.02-.6-3.93-4.07-6.82-7.87-7.47-4.6-.72-9.29-.19-13.93-.34zM494.996 3.056c.96-3.39 5.15-3.12 7.63-1.65.31 1.89.39 3.82.06 5.72-2.39 16.65-4.54 33.33-6.98 49.96-.66 3.61-5.19 3.38-7.72 1.95-.25-1.63-.47-3.27-.15-4.9 2.45-17.02 4.59-34.09 7.16-51.08zM514.476 12.156c4.2-7.57 12.8-12.56 21.5-12.13 6.25-.25 12.74 2.76 15.81 8.36 1.51 2.87 3.11 6.48 1.34 9.6-1.17 1.51-3.4 1.5-5.11 1.25-2.88-1.19-2.23-5.03-3.99-7.18-4.21-6.17-13.76-5.55-18.83-.78-4.09 3.33-5 8.8-5.78 13.7-.85 6-2 12.01-1.9 18.09-.14 4.33 3.16 8.24 7.27 9.31 6.02 1.67 12.77-1.24 16.07-6.46 2.11-3.12 2.51-6.97 2.97-10.6-4.39-.26-9.02.77-13.19-.99-.53-2.36-.71-5.8 2.36-6.42 5.69-.17 11.4-.18 17.08.02 2.03.14 2.74 2.45 2.49 4.17-.81 6.51-1.4 13.57-5.68 18.88-6.48 8.34-18.78 12.16-28.51 7.51-4.19-2.11-7.81-5.86-8.82-10.54-1.26-5.63.04-11.38.67-17 1.02-6.33 1.39-12.95 4.25-18.79zM568.426 1.476c1.75-1.91 4.53-.97 6.64-.29.4 1.9.56 3.86.18 5.79-2.43 16.76-4.51 33.57-7.06 50.31-.83 3.56-5.28 3.17-7.73 1.58-.59-3.32.24-6.63.66-9.92 2.02-14.66 4.07-29.33 6.06-44 .24-1.19.2-2.63 1.25-3.47zM585.276 1.366c1.92-1.46 4.48-.95 6.72-1.07 10.26.14 20.53-.19 30.77.16 3.85.32 3.83 6.49.32 7.45-4.35.38-8.73.07-13.09.15-.4.33-1.2.99-1.59 1.32-2.34 15.88-4.34 31.8-6.67 47.67-.64 3.65-5.16 3.45-7.7 2.01-.27-1.29-.37-2.59-.29-3.89 2.04-15.67 4.48-31.29 6.34-46.98-4.41-.3-8.83.1-13.22-.25-3.1-.32-3.46-4.68-1.59-6.57zM641.876 2.996c1.23-3.54 7.82-3.94 8.62.03 3.9 17.05 7.79 34.1 11.69 51.15.49 1.64-.21 3.29-.4 4.92-2 .8-4.3 1.53-6.35.5-1.09-.9-1.28-2.39-1.59-3.67-2.4-11.58-4.9-23.14-7.32-34.72-.47-2.36-.9-4.77-1.87-6.99-6.53 13.01-12.91 26.1-19.35 39.15-1.43 2.7-2.38 7.1-6.31 6.73-2.91.62-5.14-2.7-3.41-5.13 8.75-17.33 17.51-34.65 26.29-51.97zM678.476 3.096c.88-3.39 4.98-3.06 7.53-1.91.27 1.57.62 3.17.31 4.76-2.09 15.41-4.36 30.8-6.3 46.22 9.33.75 18.85-.83 28.07.87 1.23 2.64.64 6.93-2.98 6.95-10.4.11-20.82.2-31.22-.05-2.48-.21-3.18-2.87-2.65-4.94 2.45-17.3 4.66-34.63 7.24-51.9zM401.756 57.626c-2.23-3.5 1.02-8.49 5.09-7.86 3.9-.02 5.05 4.35 5.39 7.45-.66-.29-1.3-.58-1.95-.86 1.36-3.95-3.12-6.33-6.4-4.92 1.75.31 3.47.74 5.17 1.28-.71 1.77-1.04 3.67-1.84 5.4l-.77-3.42c-.59 1.63-1.38 3.14-2.36 4.56 2.68.04 5.16-.88 7.59-1.9-2.14 3.45-7.97 4.26-9.92.27m2.02.06c.26-1.68.3-3.57-.02-5.24-1.85.62-1.75 4.61.02 5.24m1.63-4.45c.01 3.3 2.99-1.52 0 0zM6.406 100.716c4.02-1 8.91-1.34 12.33 1.4 2.49 2.26 2.47 5.84 2.62 8.94-1.65.01-3.3.01-4.95.01-.41-1.91-.02-4.34-1.7-5.71-2.97-2.21-8.26-1.12-9.25 2.74-.96 4.24-.63 8.64-.7 12.96.02 3.36-.08 6.86 1.14 10.04 1.34 3.39 6.18 3.92 8.76 1.72 1.69-1.62 1.83-4.11 2.33-6.25 1.64 0 3.28 0 4.92.02-.29 3.24-.54 6.92-3.08 9.29-3.32 2.89-8.18 2.81-12.23 1.85-4.5-1.27-6.3-6.32-6.53-10.55-.12-5.38-.04-10.76-.04-16.14.01-4.2 2.01-9.08 6.38-10.32zM239.266 100.836c1.05-.02 3.16-.04 4.21-.05.09 12.26.03 24.53.03 36.79-1.06 0-3.2-.02-4.27-.02l.08-2.47c-2.1 2.21-5.15 3.69-8.23 2.69-3.95-.74-5.43-5.06-5.74-8.58-.42-4.67-.65-9.65 1.12-14.09 2.27-4.81 9.63-5.15 12.85-1.12-.09-4.38-.04-8.77-.05-13.15m-6.95 14.55c-2.29 1.26-2.4 4.31-2.55 6.62.09 3.36-.52 6.98.99 10.11 1.4 3.09 6.8 2.98 7.61-.54 1.08-4.42 1.28-9.2.1-13.63-.61-2.61-3.88-4.02-6.15-2.56zM324.016 100.816h5v36.75h-5v-36.75zM425.016 100.816c1.58 0 3.16 0 4.74-.01 0 1.59 0 3.17.02 4.76h-4.76c-.01-1.58 0-3.17 0-4.75zM158.016 106.816c1.41-.66 2.82-1.3 4.24-1.95.01 2.32.01 4.63.01 6.95 1.83 0 3.65-.01 5.48 0l.04 3.24-5.53.03c.11 5.61-.16 11.23.1 16.84.46 2.66 3.68 2.02 5.63 2.33a53.89 53.89 0 0 1-.47 3.1c-3.09.66-7.98 1.21-9.35-2.44-.37-6.6-.04-13.23-.15-19.85h-4.25v-3.27c1.4.02 2.8.04 4.2.07.03-1.69.04-3.37.05-5.05zM185.006 106.806c1.42-.65 2.83-1.29 4.25-1.93.01 2.31.01 4.63.02 6.94h5.48c.01.81.02 2.43.02 3.24l-5.52.03c.11 5.61-.15 11.24.1 16.84.47 2.65 3.67 2.03 5.63 2.33-.13 1.03-.28 2.07-.47 3.1-3.08.66-7.91 1.21-9.35-2.39-.37-6.62-.04-13.27-.15-19.9h-4.25v-3.26l4.23.03c.01-1.68.01-3.36.01-5.03zM500.506 106.896c1.49-.68 2.98-1.37 4.5-2.03 0 2.32.01 4.64.03 6.97 1.82-.02 3.64-.02 5.48-.03v3.26h-5.5c.08 5.68-.17 11.38.1 17.06.53 2.44 3.59 1.83 5.42 2.03l-.04 3.24c-2.7.24-5.71 1-8.17-.52-1.66-.95-1.81-3.06-1.83-4.75 0-5.69.03-11.37.02-17.06h-4v-3.24c1.33-.01 2.67-.03 4.02-.04-.02-1.63-.03-3.26-.03-4.89zM34.516 111.666c4.22-.98 9.96-.65 12.07 3.83 1.79 4.65 1.64 9.85.97 14.73-.42 3.17-2.21 6.61-5.58 7.36-3.9.83-9.14.88-11.53-2.92-2.36-4.05-2.01-8.97-1.87-13.48.15-3.85 1.66-8.58 5.94-9.52m1.67 3.55c-2.66 1.04-2.93 4.35-3.15 6.79-.05 3.3-.14 6.77 1.1 9.89 1.27 3.46 7.2 3.27 8.25-.24 1.35-4.03 1-8.45.61-12.62-.3-3.21-3.9-5.21-6.81-3.82zM59.196 114.786c2.22-3.66 7.11-4.43 10.82-2.78 2.58 1.26 2.96 4.46 3 7-.01 6.22.06 12.44-.07 18.65-1.4-.06-2.81-.12-4.21-.17.02-5.81.08-11.62.01-17.42-.04-1.95-.55-4.57-2.82-4.98-2.88-1.13-6.09 1.11-6.31 4.13-.77 6.04-.17 12.18-.32 18.27-1.4.05-2.8.11-4.2.18-.31-8.61.26-17.25-.35-25.85h4.54c-.02.74-.07 2.23-.09 2.97zM85.166 114.316c3.28-4.52 12.71-4.46 13.47 2.02.34 7.05 0 14.13.16 21.19-1.43.01-2.85.04-4.27.08-.12-6.5.18-13-.13-19.49-.37-2.82-3.87-4.07-6.24-2.88-2.21.95-2.86 3.58-2.87 5.77-.06 5.5-.01 11.01.01 16.51-1.52.03-3.03.04-4.55.03-.05-8.58.2-17.17-.14-25.74 1.56.01 3.12.01 4.68.01l-.12 2.5zM106.576 118.166c.46-3.36 3.1-6.3 6.51-6.75 3.41-.34 7.77-.48 9.94 2.71 2.17 3.57 1.85 7.93 2.04 11.94-4.81.01-9.61-.02-14.42.02.16 3.08.3 8.01 4.41 8.24 3 .56 4.58-2.35 5.2-4.77 1.57.01 3.15.03 4.73.05-.38 3.06-1.51 6.49-4.71 7.61-4.28 1.56-10.73 1.29-12.81-3.5-1.91-4.92-1.7-10.42-.89-15.55m6.64-3.13c-2.32 1.75-2.22 4.92-2.61 7.51 3.27.03 6.53.02 9.8 0-.32-2.37-.11-5.13-1.87-7.01-1.45-1.22-3.63-1.17-5.32-.5zM136.016 111.946c3.22-1 7.18-1.22 10.01.9 2.22 1.67 2.38 4.66 2.64 7.19-1.48.02-2.95.03-4.43.03-.46-1.95-.7-4.9-3.22-5.22-2.59-.45-4.84 1.79-5.17 4.23-.6 3.94-.55 8.05.36 11.95.53 2.4 3.46 4.27 5.72 2.85 1.95-.96 1.76-3.44 2.82-5.01l4.2-.08c-.43 2.12-.45 4.57-2 6.24-2.93 3.63-8.69 3.87-12.41 1.43-3.96-3.19-3.52-8.85-3.55-13.41-.04-4.09.69-9.37 5.03-11.1zM205.446 111.626c4.4-1.05 10.45-.37 12.19 4.54 1.58 5.42 1.65 11.43-.04 16.83-.8 2.84-3.54 4.67-6.41 4.87-3.67.53-8.48.06-10.28-3.73-2.17-4.72-1.84-10.18-1.28-15.22.36-3.28 2.4-6.57 5.82-7.29m.9 3.89c-2.22 1.42-2.33 4.31-2.55 6.66-.06 3.32-.05 6.8 1.2 9.93 1.53 3.39 7.48 2.89 8.31-.81 1.1-4.31 1.38-9.03.13-13.34-.71-3.03-4.65-3.98-7.09-2.44zM255.046 112.146c3.1-1.25 6.82-1.25 9.92-.01 2.67 1.1 3.59 4.24 3.55 6.9.17 6.18-.4 12.4.46 18.54-1.59 0-3.19-.01-4.78-.02.06-.8.19-2.4.26-3.2-2.22 3.45-6.85 4.8-10.49 2.81-3.67-2.45-3.73-7.9-2.3-11.64 2.53-4.33 8.19-3.99 12.52-4.3-.15-2.44.02-6.16-3.23-6.56-2.8-.81-4.97 1.77-4.99 4.39-1.55 0-3.09.01-4.63.02.35-2.62.94-5.83 3.71-6.93m1.4 14.33c-2.85 2.62-.69 9.06 3.63 7.76 4.06-1.1 3.98-6.12 4.19-9.48-2.62.21-5.77-.3-7.82 1.72zM341.966 113.936c3.01-3.65 8.97-3.55 12.14-.16 3.25-3.93 11.95-3.67 12.8 2.17.25 7.23.1 14.48.04 21.71-1.41-.07-2.81-.12-4.2-.17.02-5.81.04-11.62.02-17.43.02-1.97-.45-4.68-2.78-5.08-2.25-.79-5.12.67-5.26 3.19-.5 6.43-.07 12.91-.21 19.36-1.04.03-3.13.09-4.17.11-.44-6.83.53-13.75-.58-20.52-1.21-3.64-6.94-2.52-7.58.97-.42 6.47-.05 12.99-.17 19.48-1.5 0-3 0-4.5.01-.1-8.6.19-17.21-.16-25.8l4.67.06zM378.886 111.896c4.32-1.29 11.14-1.28 12.58 4.08.89 7.15-.36 14.44.84 21.59-1.63-.01-3.25-.01-4.87 0l.28-3.28c-2.51 5.1-11.51 5.14-13.06-.66-.61-3.15-1.05-7.07 1.43-9.57 3.07-2.93 7.67-2.48 11.57-2.84-.23-2.52-.25-6.42-3.64-6.6-2.78-.64-4.63 1.84-4.64 4.36-1.6.06-3.21.09-4.79.12.43-2.81 1.16-6.27 4.3-7.2m.25 15.39c-2.08 3.15.86 8.53 4.87 6.81 3.53-1.66 3.32-6.06 3.62-9.35-2.85.26-6.8-.39-8.49 2.54zM401.686 113.806c2.68-3.61 8.68-3.38 11.26.24.03-.56.1-1.67.13-2.22 1.46-.02 2.92-.03 4.39-.04.09 9.38.07 18.76.03 28.14.05 2.69-1.16 5.66-3.96 6.47-3.76.95-8.49 1.48-11.62-1.31-1.5-1.18-1.56-3.19-1.93-4.89 1.57-.07 3.14-.12 4.72-.15.62 2.61 3.13 4.59 5.83 3.39 3.55-1.27 2.24-5.64 2.52-8.51-2.29 2.36-5.88 3.4-8.95 1.95-3.46-1.36-4.41-5.47-4.76-8.78-.17-4.8-.67-10.19 2.34-14.29m4.65 1.64c-2.69 1.94-2.54 5.68-2.61 8.65.18 3.1-.1 6.9 2.54 9.1 2.32 1.58 5.6.12 6.27-2.52 1.03-4.1 1-8.5.04-12.6-.59-2.64-3.93-4.1-6.24-2.63zM441.936 113.946c3.53-3.88 12.22-4.1 13.2 2.13.86 7.12.16 14.34.37 21.5-1.5-.01-3-.01-4.49-.01-.08-6.52.15-13.04-.1-19.55-.71-4.5-7.81-4-8.67.21-1.02 6.34-.27 12.84-.43 19.25-1.44.07-2.86.11-4.29.13-.08-8.6.17-17.2-.31-25.79h4.38c.08.53.25 1.6.34 2.13zM466.206 112.206c3.63-1.41 8.33-1.56 11.55.92 3.23 3.43 2.66 8.59 2.78 12.94-4.82.02-9.64-.07-14.45.08.4 3.12.53 8.34 4.9 8.23 2.88.26 4.19-2.52 4.81-4.82 1.55.01 3.12.02 4.68.04-.43 2.01-.47 4.31-2.04 5.84-2.93 3.05-7.85 3.09-11.63 1.86-4.44-1.65-5.07-7.14-5.07-11.23-.01-4.78-.47-11.22 4.47-13.86m2 3.25c-1.62 1.99-1.7 4.67-2.06 7.09 3.25.02 6.5 0 9.75.09-.27-2.34.07-5.06-1.61-6.95-1.72-1.43-4.25-1.5-6.08-.23zM521.376 111.576c3.79-.65 8.75-.66 11.12 2.96 2.19 3.75 1.97 8.35 1.89 12.54-.22 3.8-1.02 8.75-5.12 10.22-3.44 1.12-7.59 1.18-10.71-.81-4.11-3.53-3.55-9.53-3.54-14.42-.06-4.23 1.52-9.7 6.36-10.49m.95 3.8c-2.37 1.25-2.67 4.28-2.81 6.67-.02 3.41-.18 7.06 1.29 10.22 1.69 3.35 7.54 2.58 8.25-1.17 1.06-4.04.97-8.41.29-12.51-.43-3.24-4.3-4.72-7.02-3.21zM545.656 113.956c3.07-3.58 9.19-3.71 12.28-.08 3.35-4.47 12.95-3.44 12.94 3.03.35 6.88.03 13.77.14 20.66-1.5 0-3 .01-4.49.01-.11-6.47.14-12.95-.1-19.42-.04-3.58-5.48-4.57-7.22-1.77-1.1 2.04-.94 4.42-.96 6.66.04 4.81 0 9.63.04 14.44-1.4.05-2.8.11-4.19.18-.32-6.6.27-13.23-.32-19.81-.57-4.16-7.06-3.76-7.75.14-.67 6.53.04 13.14-.37 19.7-1.48-.1-2.96-.17-4.43-.22.05-8.56.08-17.13-.02-25.7l4.6.06c-.04.53-.11 1.59-.15 2.12zM583.556 111.726c3.66-.81 8.1-.9 11.05 1.8 3.14 3.73 2.67 8.98 2.65 13.54-.16 3.78-1.04 8.56-4.97 10.2-3.82 1.19-8.73 1.36-11.78-1.62-3.1-4.09-2.83-9.65-2.56-14.52.14-3.75 1.6-8.23 5.61-9.4m1.75 3.53c-3.65 2.27-2.68 7.23-2.8 10.87.05 3.1.41 8.01 4.49 8.19 2.62.59 4.84-1.56 5.19-4.04.72-4 1.03-8.26-.11-12.21-.68-2.9-4.26-3.95-6.77-2.81zM608.636 114.916c1.68-2.89 4.85-4.01 8.09-3.71.03 1.49.06 2.97.11 4.45-2.96-.5-6.86.09-7.59 3.57-1.03 6-.26 12.18-.43 18.26-1.44.05-2.87.09-4.29.12 0-8.61-.06-17.21.03-25.82 1.06.01 3.19.04 4.25.05-.04.77-.13 2.31-.17 3.08zM626.966 114.736c1.62-2.81 4.67-3.72 7.75-3.55.03 1.49.07 2.98.13 4.46-3.24-.67-7.18.61-7.69 4.28-.36 5.87-.03 11.76-.14 17.64-1.51 0-3 0-4.49.01 0-8.6-.07-17.2.04-25.79 1.48.01 2.97.03 4.47.05-.02.72-.05 2.17-.07 2.9zM645.456 111.706c3.83-.79 8.75-.92 11.46 2.44 2.56 3.75 2.08 8.57 2.1 12.89-.07 3.96-1.14 9.05-5.45 10.42-4.04 1.06-9.62 1.08-12.08-2.92-2.32-4.36-1.95-9.57-1.65-14.34.13-3.55 1.9-7.51 5.62-8.49m1.72 3.52c-2.19.96-2.68 3.63-2.87 5.75-.08 3.61-.38 7.4.95 10.85 1.34 3.44 7.11 3.42 8.3-.15 1.26-4.36 1.37-9.15.33-13.57-.71-2.83-4.2-4.02-6.71-2.88zM273.646 111.816c1.69 0 3.38.01 5.07.03 1.94 6.76 3.87 13.53 5.95 20.26 2.01-6.77 3.9-13.57 5.97-20.32 1.58.02 3.16.03 4.74.05-3.83 11.74-7.7 23.47-11.46 35.23h-4.62c.87-3.3 2.21-6.49 2.71-9.88-2.59-8.51-5.63-16.9-8.36-25.37zM425.236 111.896c1.4-.06 2.81-.11 4.23-.15.1 8.62.04 17.24.04 25.86-1.44-.03-2.86-.07-4.28-.12.07-8.53.05-17.06.01-25.59zM663.266 111.806c1.62.01 3.24.01 4.87.02 1.53 7.14 2.96 14.31 4.46 21.46 1.91-7.14 3.66-14.33 5.53-21.49l6.1.03c1.73 7.12 3.14 14.32 5.17 21.36 1.45-7.16 3.18-14.26 4.77-21.38 1.54 0 3.09.01 4.65.01-2.24 8.59-4.54 17.16-6.79 25.74-1.93.01-3.84 0-5.75-.02-1.79-6.92-3.16-13.97-5.4-20.76-2.01 6.88-3.67 13.86-5.52 20.79-1.92 0-3.83 0-5.73.01-2.06-8.61-4.22-17.19-6.36-25.77zM298.516 132.066h5v5.5h-5c-.01-1.83-.01-3.67 0-5.5zM700.766 132.066h4.75c-.01 1.83-.01 3.66 0 5.5h-4.75c-.01-1.83-.01-3.67 0-5.5z"/></svg>