<svg xmlns="http://www.w3.org/2000/svg" width="452.251" height="83.334"><path d="M39.932 30.353H7.772l.001-26.39H0v61.53h7.773V37.65h32.159v27.842h7.776V3.963h-7.776v26.39M81.64 51.674a7.667 7.667 0 0 1-.612 3.05c-.396.989-1.088 1.884-1.997 2.695-.937.817-2.162 1.46-3.7 1.945-1.513.466-3.38.707-5.6.717-2.215-.01-4.108-.251-5.624-.717-1.516-.485-2.754-1.128-3.69-1.945-.9-.811-1.571-1.706-2-2.695-.404-1.002-.616-2.021-.597-3.05-.019-1.045.193-2.074.597-3.077.429-.98 1.1-1.882 2-2.69.936-.814 2.174-1.449 3.69-1.945 1.516-.465 3.41-.704 5.623-.716 2.22.012 4.088.25 5.601.716 1.538.496 2.763 1.13 3.7 1.945.909.808 1.601 1.71 1.997 2.69a7.743 7.743 0 0 1 .612 3.077m-.254-10.057c-1.954-1.73-4.067-2.964-6.303-3.7a21.136 21.136 0 0 0-6.734-1.075c-2.95 0-5.543.402-7.822 1.182-2.257.766-4.177 1.833-5.72 3.172-1.578 1.36-2.757 2.892-3.56 4.628a13.001 13.001 0 0 0-1.193 5.509c0 2.344.47 4.463 1.414 6.331a14.194 14.194 0 0 0 3.902 4.768c1.688 1.309 3.62 2.31 5.843 3.01 2.217.693 4.63 1.039 7.222 1.039 2.762.022 5.242-.416 7.414-1.299 2.186-.869 4.18-2.278 6.023-4.192v4.505h6.818V36.68c-.03-2.006-.368-3.798-1.066-5.354a12.44 12.44 0 0 0-2.9-4.033c-1.237-1.135-2.677-2.059-4.324-2.802-1.639-.735-3.403-1.262-5.326-1.626a34.163 34.163 0 0 0-10.125-.276c-1.546.169-3.25.494-5.09.968-1.8.469-3.794 1.152-5.928 2.024l3.163 5.994c1.966-.944 3.92-1.676 5.825-2.144a24.837 24.837 0 0 1 5.84-.683 26.91 26.91 0 0 1 4.367.33 15.2 15.2 0 0 1 4.086 1.275c1.24.63 2.229 1.5 3.01 2.603.744 1.118 1.148 2.547 1.164 4.288v4.373M93.596 83.334h7.307V59.03h.157c1.029 1.473 2.314 2.768 3.824 3.874 1.522 1.12 3.274 1.99 5.265 2.627 1.99.604 4.196.94 6.615.95 2.37-.01 4.664-.361 6.844-1.057a22.133 22.133 0 0 0 6.088-3.047 21.952 21.952 0 0 0 4.898-4.753c1.402-1.846 2.486-3.917 3.274-6.216.765-2.298 1.168-4.785 1.175-7.446-.024-3.038-.6-5.87-1.745-8.498a21.658 21.658 0 0 0-4.753-6.869 21.893 21.893 0 0 0-6.995-4.576c-2.624-1.096-5.45-1.662-8.449-1.681-2.095 0-4.15.288-6.159.879-2.012.542-3.852 1.402-5.564 2.533a16.045 16.045 0 0 0-4.318 4.195h-.157V23.31h-7.307zm37.684-39.27c-.021 2.416-.45 4.606-1.308 6.528-.85 1.918-1.972 3.562-3.43 4.912-1.433 1.342-3.053 2.393-4.876 3.1a15.102 15.102 0 0 1-5.622 1.091c-2.085-.016-4.07-.426-5.883-1.207a15.576 15.576 0 0 1-4.827-3.262c-1.38-1.38-2.462-3.016-3.245-4.848-.791-1.838-1.18-3.803-1.186-5.92.006-2.15.407-4.134 1.213-5.984a15.523 15.523 0 0 1 3.255-4.863 15.506 15.506 0 0 1 4.753-3.264c1.79-.791 3.68-1.183 5.672-1.203 1.987.02 3.782.287 5.397.884 1.64.563 3.08 1.35 4.32 2.32a15.136 15.136 0 0 1 3.17 3.41 15.188 15.188 0 0 1 1.926 4.036c.445 1.412.671 2.827.671 4.27M142.59 83.334h7.301V59.03h.159c1.031 1.473 2.319 2.768 3.822 3.874 1.53 1.12 3.277 1.99 5.265 2.627 1.99.604 4.214.94 6.642.95a22.662 22.662 0 0 0 6.817-1.057 22.175 22.175 0 0 0 6.091-3.047 21.582 21.582 0 0 0 4.897-4.753 21.815 21.815 0 0 0 3.267-6.216c.779-2.298 1.184-4.785 1.184-7.446-.026-3.038-.605-5.87-1.75-8.498a21.868 21.868 0 0 0-4.747-6.869 22.053 22.053 0 0 0-6.988-4.576c-2.638-1.096-5.466-1.662-8.449-1.681-2.101 0-4.152.288-6.175.879a19.013 19.013 0 0 0-5.552 2.533c-1.699 1.136-3.15 2.51-4.324 4.195h-.159V23.31h-7.301zm37.663-39.27c-.004 2.416-.43 4.606-1.28 6.528-.846 1.918-1.992 3.562-3.433 4.912-1.438 1.342-3.069 2.393-4.867 3.1a15.22 15.22 0 0 1-5.63 1.091c-2.088-.016-4.07-.426-5.882-1.207a15.252 15.252 0 0 1-4.817-3.262 15.157 15.157 0 0 1-3.263-4.848c-.783-1.838-1.171-3.803-1.19-5.92.019-2.15.417-4.134 1.225-5.984a15.686 15.686 0 0 1 3.245-4.863 15.602 15.602 0 0 1 4.739-3.264 14.424 14.424 0 0 1 5.696-1.203c1.982.02 3.779.287 5.405.884a15.264 15.264 0 0 1 4.324 2.32 16.075 16.075 0 0 1 3.155 3.41 15.322 15.322 0 0 1 1.92 4.036c.454 1.412.652 2.827.652 4.27M195.08 83.334h7.617l25.92-60.025h-7.783l-13.677 32.563-13.53-32.563h-8.26l17.567 41.554-7.854 18.471" fill="#f3da07"/><path d="M288.756 50.854h-.171l-14.02-46.9h-7.289l-14.015 46.743h-.159L239.338 3.954h-8.272l18.965 61.54h5.996l14.814-48.739H271l14.825 48.74h5.987l18.97-61.54h-8.278l-13.748 46.899M335.462 51.674a7.333 7.333 0 0 1-.6 3.05c-.407.989-1.085 1.884-2 2.695-.937.817-2.156 1.46-3.696 1.945-1.51.466-3.384.707-5.61.717-2.209-.01-4.095-.251-5.609-.717-1.527-.485-2.762-1.128-3.698-1.945-.903-.811-1.58-1.706-1.983-2.695a7.444 7.444 0 0 1-.609-3.05 7.52 7.52 0 0 1 .61-3.077c.402-.98 1.08-1.882 1.982-2.69.936-.814 2.171-1.449 3.698-1.945 1.514-.465 3.4-.704 5.61-.716 2.225.012 4.1.25 5.61.716 1.54.496 2.758 1.13 3.695 1.945.915.808 1.593 1.71 2 2.69a7.41 7.41 0 0 1 .6 3.077m-.238-10.057c-1.958-1.73-4.07-2.964-6.311-3.7a21.136 21.136 0 0 0-6.74-1.075c-2.932 0-5.535.402-7.8 1.182-2.27.766-4.185 1.833-5.75 3.172-1.553 1.36-2.738 2.892-3.544 4.628a12.925 12.925 0 0 0-1.199 5.509c.011 2.344.486 4.463 1.433 6.331.92 1.871 2.235 3.46 3.895 4.768 1.662 1.309 3.62 2.31 5.837 3.01 2.221.693 4.621 1.039 7.221 1.039 2.769.022 5.244-.416 7.418-1.299 2.173-.869 4.196-2.278 6.023-4.192v4.505h6.803V36.68c-.016-2.006-.361-3.798-1.06-5.354a12.274 12.274 0 0 0-2.891-4.033c-1.249-1.135-2.677-2.059-4.327-2.802-1.64-.735-3.412-1.262-5.33-1.626a33.969 33.969 0 0 0-5.91-.527c-1.258-.006-2.67.07-4.208.251-1.565.169-3.245.494-5.08.968-1.813.469-3.804 1.152-5.942 2.024l3.16 5.994c1.968-.944 3.92-1.676 5.838-2.144a24.66 24.66 0 0 1 5.819-.683 27.005 27.005 0 0 1 4.378.33c1.49.242 2.83.678 4.09 1.275a8.17 8.17 0 0 1 3.007 2.603c.757 1.118 1.151 2.547 1.17 4.288v4.373M348.739 29.706v26.728c-.004 2.143.275 3.903.864 5.242.596 1.316 1.61 2.306 3.022 2.913 1.417.615 3.359.924 5.837.906.864 0 1.693 0 2.465-.009.787 0 1.443-.025 1.984-.062v-6.719h-3.325c-.919 0-1.647-.107-2.177-.306-.514-.205-.868-.526-1.09-.964-.199-.476-.303-1.054-.292-1.811V29.706h6.722V23.31h-6.722V13.092h-7.288v16.614M417.293 65.495h7.292V41.537c.013-2.56.425-4.729 1.268-6.492.833-1.76 2.02-3.106 3.54-4.037 1.513-.919 3.28-1.371 5.317-1.371.569 0 1.133.03 1.67.097.565.08 1.116.165 1.64.309v-7.705a42.787 42.787 0 0 0-4.144.168c-1.248.138-2.397.417-3.442.865-1.03.43-2.026 1.129-2.944 2.076-.921.946-1.845 2.229-2.74 3.873h-.165v-6.018h-7.293v42.193" fill="#7e7e83"/><path d="M402.413 52.914c-.634 1.421-1.557 2.71-2.68 3.896-1.124 1.132-2.545 2.094-4.212 2.796-1.145.496-2.456.814-3.889.976-.643.043-5.34.313-8.308-.976-1.651-.729-3.073-1.664-4.199-2.796-1.149-1.186-2.042-2.475-2.69-3.896-.134-.278-.225-.564-.333-.849h-7.773c.185.64.394 1.26.622 1.869a21.092 21.092 0 0 0 4.421 7.038c1.89 2.026 4.178 3.63 6.88 4.782 2.683 1.171 5.674 1.738 9.003 1.77 1.373 0 2.696-.134 3.973-.345v.031c1.907-.258 3.708-.729 5.38-1.456 2.69-1.153 4.977-2.756 6.873-4.782a21.31 21.31 0 0 0 4.413-7.038c.239-.61.439-1.228.621-1.869h-7.772c-.108.285-.21.57-.33.85" fill="#f3da07"/><path d="M367.756 46.256h17.213s.011-5.914.024-6h-9.807c.019-.072.038-.144.038-.216.146-.902.281-1.443.281-1.443l.021.01c.229-.895.509-1.792.909-2.684.648-1.423 1.541-2.704 2.69-3.885 1.126-1.15 2.535-2.105 4.199-2.797 1.157-.496 2.452-.814 3.897-.983.209-.018.859-.055 1.747-.055 1.81 0 4.575.161 6.56 1.038 1.656.72 3.08 1.648 4.205 2.797 1.123 1.181 2.036 2.462 2.68 3.885.397.892.68 1.789.908 2.684l.023-.01s.121.541.269 1.443c.006.072.03.144.042.217h-9.722s-.004 5.91-.023 6h17.181c.133-.433.22-1.17.279-1.837.049-.506.07-.979.07-1.23-.049-2.936-.529-5.684-1.546-8.286a21.342 21.342 0 0 0-4.413-7.031c-1.896-2.028-4.19-3.633-6.872-4.79-2.696-1.162-5.69-1.74-9.01-1.77a23.636 23.636 0 0 0-3.975.36v-.058c-1.912.279-3.707.742-5.373 1.468-2.701 1.157-4.989 2.762-6.879 4.79a21.124 21.124 0 0 0-4.42 7.03c-1.017 2.603-1.498 5.35-1.55 8.288 0 .25.035.723.072 1.229.062.667.162 1.404.282 1.836M447.575 22.883c.44 0 .704-.113.704-.588 0-.484-.264-.603-.704-.603h-1.001v1.191zm-1.001 2.53c0 .371-.133.637-.599.637-.468 0-.596-.211-.596-.637v-4.117c0-.308.098-.56.606-.56h1.51c1.074 0 1.985.32 1.985 1.559 0 .946-.481 1.425-1.335 1.464l.948 1.546a.65.65 0 0 1 .077.282c0 .291-.181.463-.621.463-.433 0-.564-.319-.735-.637l-.843-1.575h-.397zm.773 1.595a3.695 3.695 0 0 0 3.707-3.702 3.699 3.699 0 0 0-3.706-3.703 3.698 3.698 0 0 0-3.706 3.703 3.694 3.694 0 0 0 3.705 3.702zm0-8.602a4.906 4.906 0 0 1 4.904 4.9 4.909 4.909 0 0 1-4.904 4.903 4.908 4.908 0 0 1-4.902-4.903c0-2.704 2.199-4.9 4.902-4.9M64.26 15.864l-7.316-9.439v9.439h-1.529V4.058h1.56l7.123 9.188V4.058h1.529v11.806zm6.628 0V4.058h8.59v1.33h-7.029V9.24h6.233v1.332h-6.233v3.96h7.12v1.332zm29.786-5.644h3.506c1.74 0 2.866-.944 2.866-2.407 0-1.52-1.05-2.386-2.884-2.386h-3.488zm6.262 5.644l-3.057-4.334h-3.205v4.334H99.11V4.058h5.229c2.694 0 4.305 1.357 4.305 3.629 0 1.76-.974 2.998-2.738 3.482l-.429.12 3.265 4.575zm38.354 0V4.058h8.594v1.33h-7.029V9.24h6.23v1.332h-6.23v3.96h7.121v1.332zm22.183 0l-7.317-9.439v9.439h-1.529V4.058h1.565l7.122 9.188V4.058h1.521v11.806zm6.63 0V4.058h8.587v1.33h-7.029V9.24h6.233v1.332h-6.233v3.96h7.121v1.332zm26.27 0V4.058h1.56v11.806zm-8.893.18a7.365 7.365 0 0 1-4.75-1.714l.917-1.094c1.26 1.03 2.473 1.49 3.882 1.49 1.531 0 2.516-.743 2.516-1.888 0-1.151-.74-1.687-3.049-2.22-2.58-.625-3.892-1.326-3.892-3.427 0-1.948 1.62-3.308 3.931-3.308 1.575 0 2.88.417 4.082 1.314L194.3 6.35c-1.115-.775-2.199-1.152-3.298-1.152-1.376 0-2.333.738-2.333 1.801 0 1.293.976 1.746 3.181 2.272 2.701.659 3.757 1.596 3.757 3.354 0 2.107-1.582 3.42-4.127 3.42zm19.872 0a7.368 7.368 0 0 1-4.747-1.714l.916-1.094c1.264 1.03 2.471 1.49 3.886 1.49 1.53 0 2.512-.743 2.512-1.888 0-1.151-.739-1.687-3.045-2.22-2.584-.625-3.895-1.326-3.895-3.427 0-1.948 1.617-3.308 3.932-3.308 1.576 0 2.875.417 4.083 1.314l-.818 1.152c-1.119-.775-2.202-1.152-3.302-1.152-1.374 0-2.33.738-2.33 1.801 0 1.293.98 1.746 3.178 2.272 2.708.659 3.762 1.596 3.762 3.354 0 2.107-1.582 3.42-4.132 3.42zm-122.34.013c-3.21 0-4.977-1.831-4.977-5.154V4.058h1.562v6.756c0 2.417 1.29 3.858 3.448 3.858 2.184 0 3.437-1.371 3.437-3.77V4.059h1.564v6.735c0 3.399-1.789 5.264-5.035 5.264zM119.008 5.23c-2.564 0-4.496 2.027-4.496 4.713 0 2.662 1.99 4.747 4.535 4.747 2.563 0 4.496-2.027 4.496-4.713 0-2.664-1.994-4.747-4.535-4.747zm0 10.844c-3.513 0-6.168-2.621-6.168-6.097 0-3.495 2.67-6.134 6.207-6.134 3.513 0 6.166 2.62 6.166 6.1 0 3.495-2.67 6.131-6.205 6.131zm16.506 0c-3.614 0-6.136-2.508-6.136-6.097 0-3.439 2.679-6.134 6.097-6.134 1.785 0 3.065.416 4.334 1.417l-.981 1.177c-.919-.732-1.893-1.207-3.445-1.207-2.429 0-4.34 2.07-4.34 4.713 0 2.805 1.865 4.762 4.539 4.762 1.185 0 2.315-.351 3.186-.998l.124-.095V10.82h-3.18V9.543h4.672v4.765c-1.005.827-2.638 1.767-4.87 1.767M223.097 4.496c.44 0 .707-.114.707-.59 0-.485-.266-.608-.706-.608h-1.01v1.198zm-1.008 2.54c0 .373-.129.639-.6.639-.469 0-.598-.214-.598-.64V2.904c0-.31.099-.564.607-.564h1.516c1.081 0 1.997.318 1.997 1.565 0 .95-.487 1.43-1.341 1.47l.951 1.553a.66.66 0 0 1 .078.282c0 .29-.185.465-.625.465-.435 0-.564-.319-.738-.64l-.846-1.58h-.401zm.781 1.604a3.711 3.711 0 0 0 3.719-3.719 3.713 3.713 0 0 0-3.719-3.717 3.714 3.714 0 0 0-3.725 3.717 3.713 3.713 0 0 0 3.725 3.719zm0-8.64a4.922 4.922 0 0 1 0 9.843 4.929 4.929 0 0 1-4.925-4.922A4.927 4.927 0 0 1 222.87 0" fill="#7e7e83"/></svg>