<svg xmlns="http://www.w3.org/2000/svg" width="452.25" height="83.338"><path d="M39.932 30.357H7.772V3.967H0v61.529h7.773V37.654h32.159v27.842h7.775V3.966h-7.775v26.39M81.64 51.677a7.667 7.667 0 0 1-.612 3.05c-.396.99-1.088 1.884-1.997 2.695-.937.818-2.162 1.46-3.7 1.946-1.513.465-3.38.706-5.6.717-2.215-.01-4.108-.252-5.624-.717-1.516-.485-2.754-1.128-3.69-1.946-.9-.81-1.571-1.706-2-2.694-.404-1.002-.616-2.022-.597-3.05-.019-1.046.193-2.074.597-3.078.429-.98 1.1-1.881 2-2.69.936-.814 2.174-1.448 3.69-1.944 1.516-.466 3.41-.704 5.623-.716 2.22.012 4.088.25 5.601.716 1.538.495 2.763 1.13 3.7 1.945.909.808 1.601 1.709 1.997 2.69a7.743 7.743 0 0 1 .612 3.076m-.254-10.057c-1.954-1.73-4.067-2.964-6.303-3.7a21.136 21.136 0 0 0-6.734-1.074c-2.95 0-5.543.401-7.822 1.182-2.257.765-4.177 1.832-5.72 3.172-1.578 1.36-2.757 2.892-3.56 4.628a13.001 13.001 0 0 0-1.193 5.509c0 2.343.47 4.462 1.414 6.33a14.194 14.194 0 0 0 3.902 4.768c1.688 1.31 3.62 2.31 5.843 3.01 2.217.694 4.63 1.04 7.222 1.04 2.762.022 5.242-.416 7.414-1.3 2.186-.868 4.18-2.277 6.023-4.191v4.504h6.818V36.684c-.03-2.006-.368-3.798-1.066-5.355a12.44 12.44 0 0 0-2.9-4.032c-1.237-1.136-2.677-2.06-4.324-2.802-1.639-.735-3.403-1.262-5.326-1.626a34.163 34.163 0 0 0-10.125-.276c-1.546.168-3.25.493-5.09.968-1.8.468-3.794 1.151-5.928 2.024l3.163 5.994c1.966-.944 3.92-1.676 5.825-2.144a24.837 24.837 0 0 1 5.84-.684 26.91 26.91 0 0 1 4.367.331 15.2 15.2 0 0 1 4.086 1.275c1.24.63 2.229 1.5 3.01 2.602.744 1.118 1.148 2.548 1.164 4.288v4.373M93.596 83.338h7.307V59.033h.157c1.029 1.474 2.314 2.769 3.824 3.875 1.522 1.12 3.274 1.99 5.265 2.627 1.99.604 4.196.94 6.615.95 2.37-.01 4.664-.362 6.844-1.058a22.133 22.133 0 0 0 6.088-3.047 21.952 21.952 0 0 0 4.898-4.752c1.402-1.847 2.486-3.917 3.274-6.217.765-2.297 1.168-4.784 1.175-7.445-.024-3.038-.6-5.871-1.745-8.499a21.658 21.658 0 0 0-4.753-6.868 21.893 21.893 0 0 0-6.995-4.577c-2.624-1.096-5.45-1.662-8.449-1.68-2.095 0-4.15.288-6.159.878-2.012.542-3.852 1.403-5.564 2.533a16.045 16.045 0 0 0-4.318 4.196h-.157v-6.637h-7.307v60.026zm37.684-39.27c-.021 2.415-.45 4.605-1.308 6.528-.85 1.917-1.972 3.562-3.43 4.912-1.433 1.342-3.053 2.392-4.876 3.099a15.102 15.102 0 0 1-5.622 1.092c-2.085-.016-4.07-.426-5.883-1.208a15.576 15.576 0 0 1-4.827-3.261c-1.38-1.38-2.462-3.016-3.245-4.848-.791-1.838-1.18-3.803-1.186-5.92.006-2.15.407-4.135 1.213-5.984a15.523 15.523 0 0 1 3.255-4.863 15.506 15.506 0 0 1 4.753-3.265c1.79-.79 3.68-1.182 5.672-1.203 1.987.02 3.782.288 5.397.885 1.64.563 3.08 1.35 4.32 2.32a15.136 15.136 0 0 1 3.17 3.41 15.188 15.188 0 0 1 1.926 4.036c.445 1.412.671 2.827.671 4.27M142.59 83.338h7.301V59.033h.159c1.031 1.474 2.319 2.769 3.822 3.875 1.53 1.12 3.277 1.99 5.265 2.627 1.99.604 4.214.94 6.642.95a22.662 22.662 0 0 0 6.817-1.058 22.175 22.175 0 0 0 6.091-3.047 21.582 21.582 0 0 0 4.897-4.752 21.815 21.815 0 0 0 3.267-6.217c.779-2.297 1.184-4.784 1.184-7.445-.026-3.038-.605-5.871-1.75-8.499a21.868 21.868 0 0 0-4.747-6.868 22.053 22.053 0 0 0-6.988-4.577c-2.638-1.096-5.466-1.662-8.449-1.68-2.101 0-4.152.288-6.175.878a19.013 19.013 0 0 0-5.552 2.533c-1.699 1.137-3.15 2.511-4.324 4.196h-.159v-6.637h-7.301v60.026zm37.663-39.27c-.004 2.415-.43 4.605-1.28 6.528-.846 1.917-1.992 3.562-3.433 4.912-1.438 1.342-3.069 2.392-4.867 3.099a15.22 15.22 0 0 1-5.63 1.092c-2.088-.016-4.07-.426-5.882-1.208a15.252 15.252 0 0 1-4.817-3.261 15.157 15.157 0 0 1-3.263-4.848c-.783-1.838-1.171-3.803-1.19-5.92.019-2.15.417-4.135 1.225-5.984a15.686 15.686 0 0 1 3.245-4.863 15.602 15.602 0 0 1 4.739-3.265 14.424 14.424 0 0 1 5.696-1.203c1.982.02 3.779.288 5.405.885a15.264 15.264 0 0 1 4.324 2.32 16.075 16.075 0 0 1 3.155 3.41 15.322 15.322 0 0 1 1.92 4.036c.454 1.412.652 2.827.652 4.27M195.08 83.338h7.617l25.92-60.026h-7.783l-13.676 32.564-13.532-32.564h-8.26l17.568 41.555-7.854 18.47" fill="#f3da07"/><path d="M288.756 50.857h-.171l-14.02-46.9h-7.289l-14.015 46.744h-.158L239.338 3.958h-8.272l18.965 61.54h5.997l14.813-48.74H271l14.825 48.74h5.988l18.97-61.54h-8.28l-13.747 46.899M335.462 51.677a7.333 7.333 0 0 1-.6 3.05c-.407.99-1.085 1.884-2 2.695-.937.818-2.156 1.46-3.696 1.946-1.51.465-3.384.706-5.61.717-2.209-.01-4.095-.252-5.609-.717-1.527-.485-2.762-1.128-3.698-1.946-.903-.81-1.58-1.706-1.983-2.694a7.444 7.444 0 0 1-.609-3.05 7.52 7.52 0 0 1 .61-3.078c.402-.98 1.08-1.881 1.982-2.69.936-.814 2.171-1.448 3.698-1.944 1.514-.466 3.4-.704 5.61-.716 2.225.012 4.1.25 5.61.716 1.54.495 2.758 1.13 3.695 1.945.915.808 1.593 1.709 2 2.69a7.41 7.41 0 0 1 .6 3.076m-.238-10.057c-1.958-1.73-4.07-2.964-6.311-3.7a21.136 21.136 0 0 0-6.74-1.074c-2.932 0-5.535.401-7.8 1.182-2.27.765-4.185 1.832-5.75 3.172-1.553 1.36-2.738 2.892-3.544 4.628a12.925 12.925 0 0 0-1.199 5.509c.011 2.343.486 4.462 1.433 6.33.92 1.872 2.235 3.461 3.895 4.768 1.662 1.31 3.62 2.31 5.837 3.01 2.221.694 4.621 1.04 7.221 1.04 2.769.022 5.244-.416 7.418-1.3 2.173-.868 4.196-2.277 6.023-4.191v4.504h6.803V36.684c-.016-2.006-.361-3.798-1.06-5.355a12.274 12.274 0 0 0-2.891-4.032c-1.249-1.136-2.677-2.06-4.327-2.802-1.64-.735-3.412-1.262-5.33-1.626a33.969 33.969 0 0 0-5.91-.528c-1.258-.006-2.67.071-4.208.252-1.565.168-3.245.493-5.08.968-1.813.468-3.804 1.151-5.942 2.024l3.16 5.994c1.968-.944 3.92-1.676 5.838-2.144a24.66 24.66 0 0 1 5.819-.684 27.005 27.005 0 0 1 4.378.331c1.49.242 2.83.678 4.09 1.275a8.17 8.17 0 0 1 3.007 2.602c.757 1.118 1.151 2.548 1.17 4.288v4.373M348.739 29.71v26.727c-.004 2.143.275 3.903.864 5.243.596 1.316 1.61 2.305 3.022 2.912 1.417.616 3.359.925 5.837.906.864 0 1.693 0 2.465-.008.787 0 1.443-.025 1.984-.063V58.71h-3.325c-.919 0-1.647-.108-2.177-.307-.514-.205-.868-.526-1.09-.964-.199-.475-.303-1.054-.292-1.81V29.71h6.722v-6.398h-6.722V13.096h-7.288V29.71M417.293 65.498h7.292V41.541c.013-2.56.425-4.73 1.268-6.493.833-1.76 2.02-3.106 3.54-4.036 1.513-.92 3.28-1.372 5.317-1.372.569 0 1.133.03 1.67.097.565.08 1.116.166 1.64.31V22.34a42.787 42.787 0 0 0-4.144.169c-1.248.138-2.397.416-3.442.864-1.03.43-2.026 1.129-2.944 2.076-.921.947-1.845 2.23-2.74 3.874h-.165v-6.018h-7.293v42.192" fill="#7e7e83"/><path d="M402.413 52.918c-.634 1.42-1.557 2.71-2.68 3.895-1.124 1.132-2.545 2.094-4.212 2.796-1.145.496-2.456.814-3.889.977-.643.043-5.34.313-8.308-.977-1.651-.728-3.073-1.664-4.199-2.796-1.149-1.186-2.042-2.475-2.69-3.895-.134-.279-.225-.564-.333-.849h-7.773c.185.64.394 1.259.622 1.868a21.092 21.092 0 0 0 4.421 7.038c1.89 2.027 4.178 3.63 6.88 4.783 2.683 1.17 5.674 1.737 9.003 1.77 1.373 0 2.696-.134 3.973-.345v.03c1.907-.257 3.708-.728 5.38-1.455 2.69-1.153 4.977-2.756 6.873-4.783a21.31 21.31 0 0 0 4.413-7.038c.239-.61.439-1.228.621-1.868h-7.772c-.108.285-.21.57-.33.849" fill="#f3da07"/><path d="M367.756 46.26h17.213s.011-5.915.024-6h-9.807c.019-.073.038-.144.038-.217.146-.901.281-1.443.281-1.443l.021.01c.229-.895.509-1.792.909-2.683.648-1.424 1.541-2.704 2.69-3.886 1.126-1.149 2.535-2.104 4.199-2.796 1.157-.496 2.452-.815 3.897-.983.209-.019.859-.055 1.747-.055 1.81 0 4.575.16 6.56 1.038 1.656.72 3.08 1.647 4.205 2.796 1.123 1.182 2.036 2.462 2.68 3.886.397.891.68 1.788.908 2.683l.023-.01s.121.542.269 1.443c.006.073.03.144.042.217h-9.722s-.004 5.91-.023 6h17.181c.133-.432.22-1.17.279-1.837.049-.505.07-.978.07-1.229-.049-2.937-.529-5.684-1.546-8.287a21.342 21.342 0 0 0-4.413-7.03c-1.896-2.028-4.19-3.634-6.872-4.791-2.696-1.161-5.69-1.74-9.01-1.77a23.636 23.636 0 0 0-3.975.361v-.058c-1.912.278-3.707.741-5.373 1.467-2.701 1.157-4.989 2.763-6.879 4.79a21.124 21.124 0 0 0-4.42 7.031c-1.017 2.603-1.498 5.35-1.55 8.287 0 .25.035.724.072 1.229.062.667.162 1.405.282 1.837M447.575 22.887c.44 0 .704-.113.704-.589 0-.483-.264-.603-.704-.603h-1.001v1.192h1.001zm-1.001 2.53c0 .37-.133.636-.599.636-.468 0-.596-.21-.596-.636V21.3c0-.309.098-.56.606-.56h1.51c1.074 0 1.985.319 1.985 1.558 0 .947-.481 1.425-1.335 1.464l.948 1.547a.65.65 0 0 1 .077.282c0 .29-.181.462-.621.462-.433 0-.564-.318-.735-.636l-.843-1.576h-.397v1.576zm.773 1.595a3.695 3.695 0 0 0 3.707-3.703 3.699 3.699 0 0 0-3.706-3.702 3.698 3.698 0 0 0-3.706 3.702 3.694 3.694 0 0 0 3.705 3.703zm0-8.603a4.906 4.906 0 0 1 4.904 4.9 4.909 4.909 0 0 1-4.904 4.904 4.908 4.908 0 0 1-4.902-4.904c0-2.703 2.199-4.9 4.902-4.9M64.26 15.867L56.944 6.43v9.438h-1.529V4.061h1.56l7.123 9.188V4.061h1.529v11.806H64.26zm6.628 0V4.061h8.59v1.33h-7.029v3.852h6.233v1.333h-6.233v3.959h7.12v1.332h-8.681zm29.786-5.644h3.506c1.74 0 2.866-.943 2.866-2.407 0-1.519-1.05-2.386-2.884-2.386h-3.488v4.793zm6.262 5.644l-3.057-4.333h-3.205v4.333H99.11V4.061h5.229c2.694 0 4.305 1.357 4.305 3.63 0 1.76-.974 2.998-2.738 3.482l-.429.12 3.265 4.574h-1.807zm38.354 0V4.061h8.594v1.33h-7.029v3.852h6.23v1.333h-6.23v3.959h7.121v1.332h-8.686zm22.183 0l-7.317-9.438v9.438h-1.529V4.061h1.565l7.122 9.188V4.061h1.521v11.806h-1.363zm6.63 0V4.061h8.587v1.33h-7.029v3.852h6.233v1.333h-6.233v3.959h7.121v1.332h-8.68zm26.27 0V4.061h1.56v11.806h-1.56zm-8.893.181a7.365 7.365 0 0 1-4.75-1.715l.917-1.093c1.26 1.029 2.473 1.489 3.882 1.489 1.531 0 2.516-.742 2.516-1.887 0-1.152-.74-1.688-3.049-2.22-2.58-.626-3.892-1.326-3.892-3.428 0-1.947 1.62-3.307 3.931-3.307 1.575 0 2.88.417 4.082 1.314l-.817 1.152c-1.115-.776-2.199-1.152-3.298-1.152-1.376 0-2.333.738-2.333 1.8 0 1.293.976 1.746 3.181 2.273 2.701.658 3.757 1.595 3.757 3.354 0 2.107-1.582 3.42-4.127 3.42zm19.872 0a7.368 7.368 0 0 1-4.747-1.715l.916-1.093c1.264 1.029 2.471 1.489 3.886 1.489 1.53 0 2.512-.742 2.512-1.887 0-1.152-.739-1.688-3.045-2.22-2.584-.626-3.895-1.326-3.895-3.428 0-1.947 1.617-3.307 3.932-3.307 1.576 0 2.875.417 4.083 1.314l-.818 1.152c-1.119-.776-2.202-1.152-3.302-1.152-1.374 0-2.33.738-2.33 1.8 0 1.293.98 1.746 3.178 2.273 2.708.658 3.762 1.595 3.762 3.354 0 2.107-1.582 3.42-4.132 3.42zm-122.34.012c-3.21 0-4.977-1.83-4.977-5.154V4.061h1.562v6.757c0 2.416 1.29 3.858 3.448 3.858 2.184 0 3.437-1.372 3.437-3.77V4.061h1.564v6.735c0 3.4-1.789 5.264-5.035 5.264zm29.997-10.825c-2.564 0-4.496 2.027-4.496 4.712 0 2.662 1.99 4.748 4.535 4.748 2.563 0 4.496-2.027 4.496-4.714 0-2.664-1.994-4.746-4.535-4.746zm0 10.844c-3.513 0-6.168-2.622-6.168-6.098 0-3.494 2.67-6.134 6.207-6.134 3.513 0 6.166 2.621 6.166 6.1 0 3.495-2.67 6.132-6.205 6.132zm16.506 0c-3.614 0-6.136-2.509-6.136-6.098 0-3.438 2.679-6.134 6.097-6.134 1.785 0 3.065.417 4.334 1.418l-.981 1.176c-.919-.732-1.893-1.206-3.445-1.206-2.429 0-4.34 2.07-4.34 4.712 0 2.806 1.865 4.763 4.539 4.763 1.185 0 2.315-.352 3.186-.998l.124-.096v-2.793h-3.18V9.547h4.672v4.765c-1.005.827-2.638 1.767-4.87 1.767M223.097 4.5c.44 0 .707-.114.707-.591 0-.484-.266-.607-.706-.607h-1.01V4.5h1.01zm-1.008 2.539c0 .373-.129.64-.6.64-.469 0-.598-.215-.598-.64V2.907c0-.31.099-.563.607-.563h1.516c1.081 0 1.997.318 1.997 1.565 0 .949-.487 1.43-1.341 1.47l.951 1.552a.66.66 0 0 1 .078.282c0 .29-.185.465-.625.465-.435 0-.564-.318-.738-.64l-.846-1.58h-.401v1.58zm.781 1.604a3.711 3.711 0 0 0 3.719-3.718 3.713 3.713 0 0 0-3.719-3.718 3.714 3.714 0 0 0-3.725 3.718 3.713 3.713 0 0 0 3.725 3.718zm0-8.64a4.922 4.922 0 0 1 0 9.844 4.929 4.929 0 0 1-4.925-4.922A4.927 4.927 0 0 1 222.87.004" fill="#7e7e83"/></svg>