<?xml version="1.0" encoding="UTF-8" standalone="no"?>
<!-- Created with Inkscape (http://www.inkscape.org/) -->

<svg
   xmlns:dc="http://purl.org/dc/elements/1.1/"
   xmlns:cc="http://creativecommons.org/ns#"
   xmlns:rdf="http://www.w3.org/1999/02/22-rdf-syntax-ns#"
   xmlns:svg="http://www.w3.org/2000/svg"
   xmlns="http://www.w3.org/2000/svg"
   xmlns:sodipodi="http://sodipodi.sourceforge.net/DTD/sodipodi-0.dtd"
   xmlns:inkscape="http://www.inkscape.org/namespaces/inkscape"
   id="svg4155"
   version="1.1"
   inkscape:version="0.92.2 5c3e80d, 2017-08-06"
   xml:space="preserve"
   width="452.25125"
   height="83.334"
   viewBox="0 0 452.25125 83.334"
   sodipodi:docname="happy_water.svg"><metadata
     id="metadata4161"><rdf:RDF><cc:Work
         rdf:about=""><dc:format>image/svg+xml</dc:format><dc:type
           rdf:resource="http://purl.org/dc/dcmitype/StillImage" /><dc:title /></cc:Work></rdf:RDF></metadata><defs
     id="defs4159" /><sodipodi:namedview
     pagecolor="#ffffff"
     bordercolor="#666666"
     borderopacity="1"
     objecttolerance="10"
     gridtolerance="10"
     guidetolerance="10"
     inkscape:pageopacity="0"
     inkscape:pageshadow="2"
     inkscape:window-width="1918"
     inkscape:window-height="2136"
     id="namedview4157"
     showgrid="false"
     inkscape:zoom="2.2827549"
     inkscape:cx="232.02712"
     inkscape:cy="41.607078"
     inkscape:window-x="3840"
     inkscape:window-y="22"
     inkscape:window-maximized="0"
     inkscape:current-layer="g4163" /><g
     id="g4163"
     inkscape:groupmode="layer"
     inkscape:label="ink_ext_XXXXXX"
     transform="matrix(1.25,0,0,-1.25,0,83.334)"><g
       id="g4165"
       transform="scale(0.1)"><path
         d="M 319.453,423.848 H 62.1836 V 634.965 H 0 V 142.734 H 62.1836 V 365.469 H 319.453 V 142.734 H 381.66 V 634.965 H 319.453 V 423.848"
         style="fill:#f3da07;fill-opacity:1;fill-rule:nonzero;stroke:none"
         id="path4167"
         inkscape:connector-curvature="0" /><path
         d="m 653.121,253.281 c 0.047,-8.23 -1.519,-16.386 -4.898,-24.402 -3.164,-7.91 -8.703,-15.07 -15.977,-21.555 -7.496,-6.543 -17.297,-11.687 -29.594,-15.566 -12.105,-3.723 -27.05,-5.653 -44.808,-5.735 -17.715,0.082 -32.86,2.012 -44.989,5.735 -12.125,3.879 -22.027,9.023 -29.519,15.566 -7.203,6.485 -12.57,13.645 -15.996,21.555 -3.238,8.016 -4.93,16.172 -4.781,24.402 -0.149,8.36 1.543,16.59 4.781,24.617 3.426,7.844 8.793,15.051 15.996,21.516 7.492,6.516 17.394,11.594 29.519,15.559 12.129,3.726 27.274,5.632 44.989,5.73 17.758,-0.098 32.703,-2.004 44.808,-5.73 12.297,-3.965 22.098,-9.043 29.594,-15.559 7.274,-6.465 12.813,-13.672 15.977,-21.516 3.379,-8.027 4.945,-16.257 4.898,-24.617 m -2.035,80.457 c -15.633,13.84 -32.535,23.711 -50.422,29.602 -17.859,5.851 -35.816,8.691 -53.871,8.594 -23.594,0 -44.348,-3.211 -62.574,-9.454 -18.059,-6.125 -33.418,-14.66 -45.766,-25.378 -12.617,-10.879 -22.051,-23.137 -28.473,-37.024 -6.367,-13.816 -9.55,-28.496 -9.55,-44.07 0,-18.75 3.769,-35.703 11.316,-50.649 7.547,-14.968 18.035,-27.683 31.215,-38.14 13.5,-10.473 28.957,-18.481 46.746,-24.082 17.734,-5.547 37.039,-8.313 57.77,-8.313 22.097,-0.176 41.941,3.328 59.316,10.391 17.488,6.953 33.441,18.223 48.187,33.535 v -36.035 h 54.54 V 373.23 c -0.247,16.047 -2.942,30.383 -8.528,42.836 -5.683,12.489 -13.324,23.094 -23.199,32.262 -9.898,9.082 -21.414,16.469 -34.594,22.414 -13.109,5.879 -27.222,10.098 -42.609,13.008 -15.285,2.676 -31.016,4.219 -47.262,4.219 -10.308,0.051 -21.433,-0.567 -33.734,-2.012 -12.371,-1.348 -25.996,-3.945 -40.715,-7.742 -14.406,-3.75 -30.359,-9.211 -47.434,-16.192 l 25.309,-47.953 c 15.726,7.551 31.359,13.41 46.598,17.153 15.359,3.699 30.921,5.468 46.722,5.468 11.512,0.067 23.153,-0.785 34.938,-2.648 11.836,-1.934 22.586,-5.422 32.683,-10.195 9.922,-5.047 17.832,-12 24.082,-20.821 5.953,-8.945 9.184,-20.379 9.309,-34.304 v -34.985"
         style="fill:#f3da07;fill-opacity:1;fill-rule:nonzero;stroke:none"
         id="path4169"
         inkscape:connector-curvature="0" /><path
         d="m 748.77,0 h 58.457 v 194.434 h 1.25 c 8.234,-11.786 18.515,-22.149 30.593,-30.996 12.18,-8.965 26.196,-15.918 42.121,-21.016 15.926,-4.832 33.567,-7.52 52.918,-7.598 18.965,0.078 37.317,2.891 54.758,8.457 17.443,5.559 33.713,13.762 48.703,24.375 14.82,10.41 28.04,23.25 39.18,38.02 11.22,14.773 19.89,31.336 26.19,49.734 6.12,18.379 9.35,38.274 9.4,59.563 -0.19,24.304 -4.79,46.968 -13.96,67.988 -9.18,20.926 -21.81,39.102 -38.02,54.949 -16.15,15.684 -34.79,27.91 -55.96,36.613 -20.994,8.766 -43.607,13.297 -67.591,13.446 -16.758,0 -33.204,-2.305 -49.27,-7.031 -16.101,-4.336 -30.82,-11.219 -44.519,-20.262 -13.645,-9.094 -25.11,-20.09 -34.543,-33.567 h -1.25 v 53.094 H 748.77 Z m 301.47,314.16 c -0.17,-19.324 -3.6,-36.844 -10.46,-52.226 -6.81,-15.34 -15.78,-28.496 -27.45,-39.297 -11.46,-10.735 -24.42,-19.141 -39.002,-24.793 -14.305,-5.715 -29.441,-8.735 -44.976,-8.735 -16.68,0.129 -32.559,3.411 -47.063,9.661 -14.531,6.218 -27.394,15.039 -38.613,26.093 -11.043,11.043 -19.696,24.129 -25.965,38.782 -6.328,14.707 -9.438,30.425 -9.484,47.363 0.046,17.195 3.253,33.074 9.699,47.871 6.277,14.742 15.047,27.781 26.043,38.902 11.152,11.172 23.789,19.824 38.027,26.117 14.309,6.329 29.442,9.461 45.371,9.625 15.899,-0.164 30.254,-2.3 43.176,-7.078 13.125,-4.504 24.637,-10.8 34.567,-18.562 10.07,-7.988 18.47,-17.082 25.35,-27.278 6.84,-10.214 11.99,-21.042 15.41,-32.285 3.56,-11.297 5.37,-22.617 5.37,-34.16"
         style="fill:#f3da07;fill-opacity:1;fill-rule:nonzero;stroke:none"
         id="path4171"
         inkscape:connector-curvature="0" /><path
         d="m 1140.72,0 h 58.41 v 194.434 h 1.27 c 8.25,-11.786 18.55,-22.149 30.58,-30.996 12.24,-8.965 26.21,-15.918 42.12,-21.016 15.91,-4.832 33.71,-7.52 53.13,-7.598 18.84,0.078 37.07,2.891 54.54,8.457 17.49,5.559 33.68,13.762 48.73,24.375 14.94,10.41 28.05,23.25 39.17,38.02 11.12,14.773 19.97,31.336 26.14,49.734 6.23,18.379 9.47,38.274 9.47,59.563 -0.21,24.304 -4.84,46.968 -14,67.988 -9.21,20.926 -21.85,39.102 -37.98,54.949 -16.21,15.684 -34.81,27.91 -55.9,36.613 -21.1,8.766 -43.73,13.297 -67.59,13.446 -16.81,0 -33.22,-2.305 -49.4,-7.031 -15.92,-4.336 -30.85,-11.219 -44.42,-20.262 -13.59,-9.094 -25.2,-20.09 -34.59,-33.567 h -1.27 v 53.094 h -58.41 z m 301.3,314.16 c -0.03,-19.324 -3.44,-36.844 -10.24,-52.226 -6.76,-15.34 -15.93,-28.496 -27.46,-39.297 -11.5,-10.735 -24.55,-19.141 -38.94,-24.793 -14.45,-5.715 -29.52,-8.735 -45.03,-8.735 -16.71,0.129 -32.56,3.411 -47.06,9.661 -14.58,6.218 -27.47,15.039 -38.54,26.093 -11.08,11.043 -19.9,24.129 -26.1,38.782 -6.27,14.707 -9.37,30.425 -9.52,47.363 0.15,17.195 3.33,33.074 9.8,47.871 6.31,14.742 15.02,27.781 25.96,38.902 11.11,11.172 23.82,19.824 37.91,26.117 14.5,6.329 29.62,9.461 45.57,9.625 15.85,-0.164 30.23,-2.3 43.24,-7.078 13.06,-4.504 24.41,-10.8 34.59,-18.562 9.85,-7.988 18.25,-17.082 25.24,-27.278 6.83,-10.214 11.91,-21.042 15.36,-32.285 3.63,-11.297 5.22,-22.617 5.22,-34.16"
         style="fill:#f3da07;fill-opacity:1;fill-rule:nonzero;stroke:none"
         id="path4173"
         inkscape:connector-curvature="0" /><path
         d="m 1560.64,0 h 60.94 l 207.35,480.203 h -62.26 L 1657.26,219.695 1549.01,480.203 h -66.08 L 1623.47,147.766 1560.64,0"
         style="fill:#f3da07;fill-opacity:1;fill-rule:nonzero;stroke:none"
         id="path4175"
         inkscape:connector-curvature="0" /><path
         d="m 2310.05,259.844 h -1.37 l -112.16,375.195 h -58.31 L 2026.09,261.094 h -1.27 L 1914.7,635.039 h -66.17 l 151.72,-492.324 h 47.97 l 118.51,389.914 h 1.27 l 118.6,-389.914 h 47.9 l 151.76,492.324 h -66.23 L 2310.05,259.844"
         style="fill:#7e7e83;fill-opacity:1;fill-rule:nonzero;stroke:none"
         id="path4177"
         inkscape:connector-curvature="0" /><path
         d="m 2683.7,253.281 c 0.13,-8.23 -1.35,-16.386 -4.8,-24.402 -3.26,-7.91 -8.68,-15.07 -16,-21.555 -7.5,-6.543 -17.25,-11.687 -29.57,-15.566 -12.08,-3.723 -27.07,-5.653 -44.88,-5.735 -17.67,0.082 -32.76,2.012 -44.87,5.735 -12.22,3.879 -22.1,9.023 -29.59,15.566 -7.22,6.485 -12.64,13.645 -15.86,21.555 -3.39,8.016 -5.01,16.172 -4.87,24.402 -0.14,8.36 1.48,16.59 4.87,24.617 3.22,7.844 8.64,15.051 15.86,21.516 7.49,6.516 17.37,11.594 29.59,15.559 12.11,3.726 27.2,5.632 44.87,5.73 17.81,-0.098 32.8,-2.004 44.88,-5.73 12.32,-3.965 22.07,-9.043 29.57,-15.559 7.32,-6.465 12.74,-13.672 16,-21.516 3.45,-8.027 4.93,-16.257 4.8,-24.617 m -1.91,80.457 c -15.66,13.84 -32.56,23.711 -50.49,29.602 -17.84,5.851 -35.82,8.691 -53.91,8.594 -23.46,0 -44.29,-3.211 -62.4,-9.454 -18.17,-6.125 -33.49,-14.66 -46.01,-25.378 -12.42,-10.879 -21.9,-23.137 -28.35,-37.024 -6.41,-13.816 -9.59,-28.496 -9.59,-44.07 0.09,-18.75 3.89,-35.703 11.46,-50.649 7.37,-14.968 17.88,-27.683 31.16,-38.14 13.3,-10.473 28.97,-18.481 46.7,-24.082 17.77,-5.547 36.97,-8.313 57.77,-8.313 22.15,-0.176 41.95,3.328 59.34,10.391 17.39,6.953 33.57,18.223 48.19,33.535 v -36.035 h 54.42 V 373.23 c -0.13,16.047 -2.89,30.383 -8.48,42.836 -5.58,12.489 -13.28,23.094 -23.13,32.262 -9.99,9.082 -21.41,16.469 -34.61,22.414 -13.12,5.879 -27.3,10.098 -42.64,13.008 -15.18,2.676 -30.94,4.219 -47.28,4.219 -10.07,0.051 -21.36,-0.567 -33.67,-2.012 -12.52,-1.348 -25.96,-3.945 -40.64,-7.742 -14.5,-3.75 -30.43,-9.211 -47.53,-16.192 l 25.28,-47.953 c 15.74,7.551 31.36,13.41 46.7,17.153 15.24,3.699 30.87,5.468 46.55,5.468 11.62,0.067 23.18,-0.785 35.03,-2.648 11.91,-1.934 22.64,-5.422 32.71,-10.195 9.85,-5.047 17.86,-12 24.06,-20.821 6.06,-8.945 9.21,-20.379 9.36,-34.304 v -34.985"
         style="fill:#7e7e83;fill-opacity:1;fill-rule:nonzero;stroke:none"
         id="path4179"
         inkscape:connector-curvature="0" /><path
         d="m 2789.91,429.023 v -213.82 c -0.03,-17.144 2.2,-31.226 6.91,-41.941 4.77,-10.528 12.89,-18.446 24.18,-23.301 11.34,-4.922 26.87,-7.395 46.7,-7.246 6.91,0 13.54,0 19.72,0.066 6.29,0 11.54,0.199 15.87,0.5 v 53.75 h -26.6 c -7.35,0 -13.18,0.86 -17.42,2.449 -4.11,1.641 -6.94,4.211 -8.72,7.715 -1.59,3.801 -2.42,8.43 -2.33,14.485 v 207.343 h 53.77 v 51.18 h -53.77 v 81.731 h -58.31 V 429.023"
         style="fill:#7e7e83;fill-opacity:1;fill-rule:nonzero;stroke:none"
         id="path4181"
         inkscape:connector-curvature="0" /><path
         d="m 3338.34,142.715 h 58.34 v 191.66 c 0.1,20.48 3.4,37.832 10.14,51.941 6.67,14.082 16.17,24.844 28.32,32.289 12.11,7.352 26.24,10.973 42.54,10.973 4.55,0 9.06,-0.242 13.36,-0.777 4.52,-0.637 8.93,-1.321 13.12,-2.473 v 61.641 c -12.18,0.051 -23.18,-0.418 -33.15,-1.348 -9.99,-1.101 -19.18,-3.332 -27.54,-6.914 -8.24,-3.445 -16.21,-9.031 -23.55,-16.609 -7.37,-7.571 -14.76,-17.832 -21.92,-30.989 h -1.32 v 48.145 h -58.34 V 142.715"
         style="fill:#7e7e83;fill-opacity:1;fill-rule:nonzero;stroke:none"
         id="path4183"
         inkscape:connector-curvature="0" /><path
         d="m 3219.3,243.359 c -5.07,-11.367 -12.45,-21.679 -21.44,-31.164 -8.99,-9.058 -20.36,-16.754 -33.69,-22.371 -9.16,-3.965 -19.65,-6.511 -31.11,-7.812 -5.15,-0.34 -42.73,-2.5 -66.47,7.812 -13.21,5.828 -24.58,13.313 -33.59,22.371 -9.19,9.485 -16.34,19.797 -21.52,31.164 -1.07,2.227 -1.8,4.512 -2.66,6.789 h -62.19 c 1.48,-5.121 3.15,-10.07 4.98,-14.945 8.14,-21.265 19.86,-39.89 35.37,-56.305 15.12,-16.21 33.42,-29.035 55.03,-38.261 21.47,-9.367 45.4,-13.899 72.03,-14.16 10.98,0 21.57,1.074 31.78,2.761 v -0.246 c 15.26,2.063 29.67,5.832 43.05,11.645 21.51,9.226 39.81,22.051 54.98,38.261 15.43,16.415 27.12,35.04 35.3,56.305 1.91,4.875 3.51,9.824 4.97,14.945 h -62.18 c -0.86,-2.277 -1.67,-4.562 -2.64,-6.789"
         style="fill:#f3da07;fill-opacity:1;fill-rule:nonzero;stroke:none"
         id="path4185"
         inkscape:connector-curvature="0" /><path
         d="m 2942.05,296.621 h 137.7 c 0,0 0.09,47.317 0.19,47.996 h -78.45 c 0.15,0.586 0.3,1.156 0.3,1.738 1.17,7.211 2.25,11.543 2.25,11.543 l 0.17,-0.078 c 1.83,7.16 4.07,14.336 7.27,21.465 5.18,11.391 12.33,21.633 21.52,31.086 9.01,9.192 20.28,16.836 33.59,22.371 9.26,3.969 19.62,6.516 31.18,7.863 1.67,0.149 6.87,0.442 13.97,0.442 14.48,0 36.6,-1.289 52.48,-8.305 13.25,-5.762 24.65,-13.179 33.64,-22.371 8.99,-9.453 16.29,-19.695 21.44,-31.086 3.18,-7.129 5.44,-14.305 7.27,-21.465 l 0.18,0.078 c 0,0 0.97,-4.332 2.15,-11.543 0.05,-0.582 0.24,-1.152 0.34,-1.738 h -77.78 c 0,0 -0.03,-47.281 -0.18,-47.996 h 137.45 c 1.06,3.457 1.76,9.356 2.23,14.695 0.39,4.043 0.56,7.825 0.56,9.829 -0.39,23.496 -4.23,45.476 -12.37,66.296 -8.18,21.219 -19.87,39.832 -35.3,56.25 -15.17,16.219 -33.52,29.063 -54.98,38.321 -21.57,9.289 -45.52,13.918 -72.08,14.16 -11.03,-0.051 -21.58,-1.106 -31.8,-2.891 v 0.469 c -15.29,-2.227 -29.65,-5.93 -42.98,-11.738 -21.61,-9.258 -39.91,-22.102 -55.03,-38.321 -15.51,-16.418 -27.23,-35.031 -35.37,-56.25 -8.13,-20.82 -11.98,-42.8 -12.4,-66.296 0,-2.004 0.29,-5.786 0.58,-9.829 0.5,-5.339 1.3,-11.238 2.26,-14.695"
         style="fill:#7e7e83;fill-opacity:1;fill-rule:nonzero;stroke:none"
         id="path4187"
         inkscape:connector-curvature="0" /><path
         d="m 3580.6,483.605 c 3.52,0 5.63,0.907 5.63,4.708 0,3.867 -2.11,4.824 -5.63,4.824 h -8.01 v -9.532 z m -8.01,-20.238 c 0,-2.969 -1.06,-5.094 -4.79,-5.094 -3.74,0 -4.77,1.688 -4.77,5.094 v 32.934 c 0,2.469 0.79,4.48 4.85,4.48 h 12.08 c 8.59,0 15.88,-2.551 15.88,-12.468 0,-7.571 -3.85,-11.399 -10.68,-11.711 l 7.58,-12.372 c 0.42,-0.863 0.62,-1.593 0.62,-2.257 0,-2.325 -1.45,-3.7 -4.97,-3.7 -3.46,0 -4.51,2.547 -5.88,5.094 l -6.74,12.602 h -3.18 z m 6.19,-12.762 c 16.42,0 29.65,13.184 29.65,29.622 0,16.382 -13.23,29.617 -29.65,29.617 -16.41,0 -29.64,-13.235 -29.64,-29.617 0,-16.438 13.23,-29.622 29.64,-29.622 z m 0,68.821 c 21.64,0 39.23,-17.571 39.23,-39.199 0,-21.633 -17.59,-39.231 -39.23,-39.231 -21.63,0 -39.22,17.598 -39.22,39.231 0,21.628 17.59,39.199 39.22,39.199"
         style="fill:#7e7e83;fill-opacity:1;fill-rule:nonzero;stroke:none"
         id="path4189"
         inkscape:connector-curvature="0" /><path
         d="m 514.082,539.762 -58.531,75.508 v -75.508 h -12.227 v 94.449 h 12.473 l 56.984,-73.504 v 73.504 h 12.231 v -94.449 z m 53.02,0 v 94.449 h 68.718 v -10.637 h -56.226 v -30.82 h 49.859 v -10.66 h -49.859 v -31.672 h 56.965 v -10.66 z m 238.289,45.152 h 28.047 c 13.917,0 22.929,7.547 22.929,19.258 0,12.152 -8.398,19.086 -23.074,19.086 h -27.902 z m 50.097,-45.152 -24.453,34.668 h -25.644 v -34.668 h -12.5 v 94.449 h 41.828 c 21.551,0 34.441,-10.856 34.441,-29.035 0,-14.086 -7.793,-23.985 -21.902,-27.856 l -3.43,-0.957 26.113,-36.601 z m 306.832,0 v 94.449 h 68.75 v -10.637 h -56.23 v -30.82 h 49.84 v -10.66 h -49.84 v -31.672 h 56.97 v -10.66 z m 177.46,0 -58.53,75.508 v -75.508 h -12.23 v 94.449 h 12.52 l 56.97,-73.504 v 73.504 h 12.17 v -94.449 z m 53.04,0 v 94.449 h 68.7 v -10.637 h -56.23 v -30.82 h 49.86 v -10.66 h -49.86 v -31.672 h 56.97 v -10.66 z m 210.16,0 v 94.449 h 12.48 v -94.449 z m -71.14,-1.446 c -14.05,0 -27.15,4.75 -38,13.719 l 7.34,8.746 c 10.08,-8.23 19.78,-11.91 31.05,-11.91 12.25,0 20.13,5.934 20.13,15.094 0,9.215 -5.92,13.5 -24.39,17.765 -20.64,5 -31.14,10.606 -31.14,27.415 0,15.582 12.96,26.46 31.45,26.46 12.6,0 23.04,-3.335 32.66,-10.511 l -6.54,-9.215 c -8.92,6.203 -17.59,9.215 -26.38,9.215 -11.01,0 -18.67,-5.903 -18.67,-14.406 0,-10.34 7.81,-13.965 25.45,-18.176 21.61,-5.27 30.06,-12.766 30.06,-26.832 0,-16.856 -12.66,-27.364 -33.02,-27.364 z m 158.98,0 c -14.01,0 -27.13,4.75 -37.98,13.719 l 7.33,8.746 c 10.11,-8.23 19.77,-11.91 31.09,-11.91 12.23,0 20.09,5.934 20.09,15.094 0,9.215 -5.91,13.5 -24.36,17.765 -20.67,5 -31.16,10.606 -31.16,27.415 0,15.582 12.94,26.46 31.46,26.46 12.61,0 23,-3.335 32.66,-10.511 l -6.54,-9.215 c -8.95,6.203 -17.62,9.215 -26.42,9.215 -10.99,0 -18.64,-5.903 -18.64,-14.406 0,-10.34 7.84,-13.965 25.43,-18.176 21.66,-5.27 30.09,-12.766 30.09,-26.832 0,-16.856 -12.65,-27.364 -33.05,-27.364 z m -978.73,-0.097 c -25.672,0 -39.809,14.648 -39.809,41.23 v 54.762 h 12.492 V 580.16 c 0,-19.332 10.317,-30.867 27.59,-30.867 17.473,0 27.492,10.973 27.492,30.156 v 54.762 h 12.516 v -53.879 c 0,-27.195 -14.312,-42.113 -40.281,-42.113 z m 239.98,86.605 c -20.507,0 -35.965,-16.219 -35.965,-37.703 0,-21.293 15.926,-37.98 36.278,-37.98 20.508,0 35.969,16.218 35.969,37.711 0,21.312 -15.95,37.972 -36.282,37.972 z m 0,-86.754 c -28.105,0 -49.343,20.973 -49.343,48.782 0,27.953 21.367,49.07 49.656,49.07 28.105,0 49.327,-20.969 49.327,-48.801 0,-27.957 -21.351,-49.051 -49.64,-49.051 z m 132.05,0 c -28.91,0 -49.09,20.067 -49.09,48.782 0,27.507 21.43,49.07 48.78,49.07 14.28,0 24.52,-3.332 34.67,-11.34 l -7.85,-9.41 c -7.35,5.855 -15.14,9.652 -27.56,9.652 -19.43,0 -34.72,-16.562 -34.72,-37.703 0,-22.441 14.92,-38.098 36.31,-38.098 9.48,0 18.52,2.813 25.49,7.985 l 0.99,0.762 v 22.343 h -25.43 v 10.215 h 37.37 v -38.121 c -8.04,-6.617 -21.1,-14.137 -38.96,-14.137"
         style="fill:#7e7e83;fill-opacity:1;fill-rule:nonzero;stroke:none"
         id="path4191"
         inkscape:connector-curvature="0" /><path
         d="m 1784.78,630.703 c 3.52,0 5.65,0.91 5.65,4.727 0,3.871 -2.13,4.855 -5.65,4.855 h -8.07 v -9.582 z m -8.07,-20.312 c 0,-2.989 -1.03,-5.118 -4.8,-5.118 -3.75,0 -4.78,1.715 -4.78,5.118 v 33.05 c 0,2.477 0.79,4.508 4.85,4.508 h 12.13 c 8.65,0 15.98,-2.543 15.98,-12.519 0,-7.594 -3.9,-11.442 -10.73,-11.758 l 7.61,-12.422 c 0.42,-0.859 0.62,-1.617 0.62,-2.254 0,-2.324 -1.48,-3.723 -5,-3.723 -3.48,0 -4.51,2.551 -5.9,5.118 l -6.77,12.648 h -3.21 z m 6.25,-12.836 c 16.46,0 29.75,13.258 29.75,29.746 0,16.461 -13.29,29.742 -29.75,29.742 -16.51,0 -29.8,-13.281 -29.8,-29.742 0,-16.488 13.29,-29.746 29.8,-29.746 z m 0,69.117 c 21.71,0 39.34,-17.645 39.34,-39.371 0,-21.711 -17.63,-39.375 -39.34,-39.375 -21.73,0 -39.4,17.664 -39.4,39.375 0,21.726 17.67,39.371 39.4,39.371"
         style="fill:#7e7e83;fill-opacity:1;fill-rule:nonzero;stroke:none"
         id="path4193"
         inkscape:connector-curvature="0" /></g></g></svg>