<svg width="350" height="77" xmlns="http://www.w3.org/2000/svg" xmlns:xlink="http://www.w3.org/1999/xlink"><defs><path id="a" d="M0 .264h349.051V77H0z"/></defs><g fill="none" fill-rule="evenodd"><path fill="#FFFFFE" d="M83.806 14.114v16.09h15.999v-16.09h9.69v41.712h-9.69V38.432h-16v17.394h-9.688V14.114h9.689M129.142 56.502c-9.116 0-16.128-5.815-16.128-15.59 0-9.778 6.63-16.028 16.7-16.028 9.499 0 15.873 6.371 15.873 15.532 0 11.011-8.094 16.086-16.383 16.086h-.062zm.19-6.74c3.827 0 6.185-3.654 6.185-9.1 0-4.459-1.79-9.035-6.186-9.035-4.59 0-6.372 4.576-6.372 9.1 0 5.133 2.23 9.034 6.309 9.034h.063zM164.963 56.502c-9.116 0-16.125-5.815-16.125-15.59 0-9.778 6.63-16.028 16.701-16.028 9.499 0 15.874 6.371 15.874 15.532 0 11.011-8.099 16.086-16.386 16.086h-.064zm.191-6.74c3.828 0 6.186-3.654 6.186-9.1 0-4.459-1.79-9.035-6.186-9.035-4.59 0-6.372 4.576-6.372 9.1 0 5.133 2.229 9.034 6.31 9.034h.062zM184.953 32.493v12.438c0 4.271.895 7.18 2.68 8.97 1.591 1.55 4.205 2.6 7.329 2.6 2.677 0 5.033-.37 6.246-.804l-.065-7.117c-.89.189-1.528.25-2.867.25-2.866 0-3.825-1.672-3.825-5.324V32.493h6.952v-6.93h-6.952V19.71l-.036.02v-3.338c-5.22 0-9.455 4.098-9.455 9.17h-.007v6.931M284.198 32.493v12.438c0 4.271.894 7.18 2.677 8.97 1.593 1.55 4.205 2.6 7.328 2.6 2.678 0 5.037-.37 6.25-.804l-.066-7.117c-.89.189-1.53.25-2.868.25-2.867 0-3.823-1.672-3.823-5.324V32.493h6.948v-6.93h-6.948V19.71l-.036.02v-3.338c-5.221 0-9.456 4.098-9.456 9.17h-.006v6.931M206.5 47.652c1.785 1.052 5.48 2.229 8.353 2.229 2.93 0 4.14-.93 4.14-2.474 0-1.611-.955-2.353-4.525-3.53-6.503-2.037-8.99-5.507-8.925-9.033 0-5.693 4.97-9.962 12.686-9.962 3.634 0 6.819.866 8.732 1.795l-1.655 6.435c-1.405-.68-4.147-1.671-6.76-1.671-2.357 0-3.693.927-3.693 2.412 0 1.485 1.209 2.23 5.034 3.531 5.926 1.914 8.35 4.882 8.415 9.279 0 5.693-4.526 9.839-13.449 9.839-4.083 0-7.715-.928-10.074-2.166l1.721-6.684M261.33 46.108c0 3.96.132 7.176.257 9.715h-8.414l-.447-4.27h-.19c-1.212 1.857-4.142 4.949-9.752 4.949-6.377 0-10.967-3.835-10.967-13.182V25.562h9.689V41.84c0 4.39 1.47 7.048 4.909 7.048 2.675 0 4.27-1.793 4.842-3.28.258-.554.383-1.233.383-2.04V25.563h9.69v20.546M267.96 55.826h9.692V25.565h-9.692zM272.743 21.602c-3.25 0-5.355-2.228-5.355-5.012 0-2.85 2.169-5.014 5.48-5.014 3.316 0 5.357 2.164 5.419 5.014 0 2.784-2.103 5.012-5.482 5.012h-.062M312.852 43.63c.319 3.963 4.269 5.817 8.798 5.817 3.315 0 5.992-.43 8.605-1.297l1.277 6.374c-3.191 1.3-7.08 1.916-11.287 1.916-10.58 0-16.636-5.939-16.636-15.47 0-7.674 4.97-16.153 15.748-16.153 10.07 0 13.893 7.616 13.893 15.103 0 1.604-.192 3.032-.318 3.772l-20.08-.062zm11.412-6.436c0-2.225-1.02-6.126-5.422-6.126-4.141 0-5.798 3.65-6.053 6.126h11.475zM38.085 27.988c-3.955-.01-7.151-3.13-7.14-6.97a6.736 6.736 0 0 1 .326-2.053 3.581 3.581 0 0 0 3.256 2.063c1.976.006 3.583-1.545 3.587-3.463.005-1.412-.862-2.624-2.108-3.172.67-.2 1.383-.306 2.12-.304 3.952.012 7.15 3.131 7.14 6.97-.014 3.839-3.228 6.941-7.181 6.929zm-21.478-.058c-3.952-.012-7.151-3.131-7.138-6.969.01-3.84 3.23-6.943 7.181-6.932a7.405 7.405 0 0 1 2.115.315c-1.247.54-2.12 1.747-2.124 3.16-.006 1.918 1.59 3.48 3.567 3.485a3.584 3.584 0 0 0 3.268-2.046c.204.65.314 1.34.312 2.057-.013 3.837-3.226 6.941-7.181 6.93zm21.528-17.316c-5.605-.016-10.217 4.149-10.717 9.469l-.048-.065-.047.065c-.47-5.324-5.056-9.513-10.664-9.53-5.931-.017-10.75 4.64-10.767 10.396-.017 5.76 4.775 10.44 10.706 10.454a10.884 10.884 0 0 0 5.735-1.603l4.993 4.875 5.022-4.846a10.921 10.921 0 0 0 5.726 1.634c5.933.018 10.752-4.638 10.77-10.394.017-5.758-4.776-10.44-10.709-10.455z"/><mask id="b" fill="#fff"><use xlink:href="#a"/></mask><path d="M342.354 30.628h.82c.406 0 .731-.102.977-.306a.968.968 0 0 0 .369-.779c0-.369-.108-.633-.326-.793-.218-.16-.563-.24-1.034-.24h-.806v2.118zm3.3-1.115c0 .394-.109.742-.324 1.044a1.904 1.904 0 0 1-.908.676l1.81 2.916h-1.279l-1.573-2.614h-1.026v2.614h-1.126v-6.576h1.985c.841 0 1.458.16 1.851.48.393.319.59.807.59 1.46zm-7.239 1.344c0 .85.221 1.647.662 2.387a4.767 4.767 0 0 0 1.806 1.75c.763.425 1.58.638 2.451.638.883 0 1.7-.214 2.456-.642a4.887 4.887 0 0 0 1.798-1.739 4.53 4.53 0 0 0 .665-2.394c0-.857-.22-1.65-.661-2.384a4.878 4.878 0 0 0-1.791-1.745 4.874 4.874 0 0 0-2.467-.646c-.881 0-1.7.213-2.455.642a4.888 4.888 0 0 0-1.798 1.737 4.536 4.536 0 0 0-.666 2.396zm-.798 0c0-.985.254-1.907.76-2.768a5.502 5.502 0 0 1 2.092-2.037 5.766 5.766 0 0 1 2.865-.745c1.014 0 1.964.246 2.852.737a5.51 5.51 0 0 1 2.098 2.03c.511.862.767 1.789.767 2.783a5.38 5.38 0 0 1-.737 2.73 5.535 5.535 0 0 1-2.068 2.045 5.73 5.73 0 0 1-2.912.767 5.74 5.74 0 0 1-2.904-.763 5.522 5.522 0 0 1-2.071-2.042 5.365 5.365 0 0 1-.742-2.737zM27.046.264a27.711 27.711 0 0 0-12.492 2.968A27.609 27.609 0 0 0 2.233.33L2.152.33 0 .336v26.247c-.04 13.45 5.352 26.103 15.182 35.624 9.805 9.498 22.851 14.75 36.734 14.787l2.163.006V.336L51.928.33h-.081c-4.286 0-8.52 1-12.322 2.902A27.697 27.697 0 0 0 27.12.264h-.074zm0 2.094h.068A25.331 25.331 0 0 1 39.519 5.62a25.23 25.23 0 0 1 12.328-3.195h.075V74.9c-27.48-.074-49.844-21.62-49.764-48.317V2.423h.075c4.486 0 8.691 1.168 12.327 3.196a25.339 25.339 0 0 1 12.485-3.26z" fill="#FFFFFE" mask="url(#b)"/><path d="M37.706 28.426c-3.93-.011-7.107-3.11-7.094-6.925a6.673 6.673 0 0 1 .322-2.043 3.555 3.555 0 0 0 3.235 2.051c1.965.006 3.562-1.535 3.568-3.442.003-1.404-.858-2.608-2.095-3.152a7.298 7.298 0 0 1 2.104-.301c3.93.01 7.109 3.112 7.096 6.924-.011 3.816-3.209 6.9-7.136 6.888zM16.36 28.37c-3.929-.01-7.106-3.114-7.095-6.928.011-3.814 3.207-6.898 7.136-6.888a7.306 7.306 0 0 1 2.102.316c-1.237.536-2.105 1.736-2.11 3.138-.005 1.908 1.579 3.459 3.544 3.463a3.56 3.56 0 0 0 3.25-2.034c.203.647.31 1.335.309 2.044-.01 3.815-3.207 6.9-7.136 6.889zm21.395-17.21c-5.57-.014-10.153 4.123-10.65 9.41l-.048-.062-.049.062c-.466-5.29-5.023-9.453-10.597-9.468-5.893-.017-10.684 4.609-10.701 10.33-.018 5.722 4.746 10.373 10.639 10.39 2.098.005 4.05-.585 5.701-1.596l4.963 4.848 4.992-4.818a10.833 10.833 0 0 0 5.688 1.625c5.896.016 10.687-4.609 10.704-10.333.017-5.719-4.746-10.37-10.642-10.388z" fill="#FFFFFE"/></g></svg>