<?xml version="1.0" encoding="UTF-8" standalone="no"?>
<svg
   xmlns:dc="http://purl.org/dc/elements/1.1/"
   xmlns:cc="http://creativecommons.org/ns#"
   xmlns:rdf="http://www.w3.org/1999/02/22-rdf-syntax-ns#"
   xmlns:svg="http://www.w3.org/2000/svg"
   xmlns="http://www.w3.org/2000/svg"
   xmlns:sodipodi="http://sodipodi.sourceforge.net/DTD/sodipodi-0.dtd"
   xmlns:inkscape="http://www.inkscape.org/namespaces/inkscape"
   width="54.292103pt"
   height="54.276031pt"
   viewBox="0 0 54.292103 54.276031"
   version="1.1"
   id="svg43"
   sodipodi:docname="jumpstart.svg"
   inkscape:version="0.92.2 5c3e80d, 2017-08-06">
  <metadata
     id="metadata49">
    <rdf:RDF>
      <cc:Work
         rdf:about="">
        <dc:format>image/svg+xml</dc:format>
        <dc:type
           rdf:resource="http://purl.org/dc/dcmitype/StillImage" />
      </cc:Work>
    </rdf:RDF>
  </metadata>
  <defs
     id="defs47" />
  <sodipodi:namedview
     pagecolor="#ffffff"
     bordercolor="#666666"
     borderopacity="1"
     objecttolerance="10"
     gridtolerance="10"
     guidetolerance="10"
     inkscape:pageopacity="0"
     inkscape:pageshadow="2"
     inkscape:window-width="1918"
     inkscape:window-height="2136"
     id="namedview45"
     showgrid="false"
     inkscape:zoom="2.765625"
     inkscape:cx="37.298079"
     inkscape:cy="36.176599"
     inkscape:window-x="3840"
     inkscape:window-y="22"
     inkscape:window-maximized="0"
     inkscape:current-layer="svg43" />
  <g
     id="#ffffffff"
     transform="translate(-4.84,-4.8564192)" />
  <g
     id="#4c76b0ff"
     transform="translate(-4.84,-4.8564192)">
    <path
       d="m 27.6,5.29 c 2.93,-0.66 5.97,-0.49 8.92,0 C 35.71,6.46 34.91,7.62 34.08,8.77 30.14,8.53 26.17,9.2 22.53,10.71 24.36,9.04 25.8,6.99 27.6,5.29 Z"
       id="path3"
       inkscape:connector-curvature="0"
       style="opacity:1;fill:#4c76b0" />
    <path
       d="m 6.34,23.5 c 2.1,-1.31 4.2,-2.63 6.13,-4.18 -1.85,2.94 -3.02,6.25 -3.59,9.67 -1.31,1.26 -2.66,2.49 -4.04,3.7 0,-3.07 0.53,-6.09 1.28,-9.05 z"
       id="path5"
       inkscape:connector-curvature="0"
       style="opacity:1;fill:#4c76b0" />
  </g>
  <g
     id="#2996c9ff"
     transform="translate(-4.84,-4.8564192)">
    <path
       d="M 6.34,23.5 C 9.26,14.1 17.88,6.78 27.6,5.29 c -1.8,1.7 -3.24,3.75 -5.07,5.42 -4.05,1.93 -7.57,4.87 -10.06,8.61 -1.93,1.55 -4.03,2.87 -6.13,4.18 z"
       id="path8"
       inkscape:connector-curvature="0"
       style="opacity:1;fill:#2996c9" />
  </g>
  <g
     id="#853f87ff"
     transform="translate(-4.84,-4.8564192)">
    <path
       d="m 36.52,5.29 c 2.32,0.42 4.59,1.1 6.76,2.05 -0.61,1.14 -1.21,2.28 -1.82,3.42 -2.35,-1 -4.85,-1.61 -7.38,-1.99 0.83,-1.15 1.63,-2.31 2.44,-3.48 z"
       id="path11"
       inkscape:connector-curvature="0"
       style="opacity:1;fill:#853f87" />
    <path
       d="m 4.84,32.69 c 1.38,-1.21 2.73,-2.44 4.04,-3.7 -0.33,2.76 -0.09,5.55 0.45,8.27 -1.08,0.83 -2.15,1.64 -3.24,2.46 L 5.95,39.83 C 5.41,37.48 5.1,35.08 4.84,32.69 Z"
       id="path13"
       inkscape:connector-curvature="0"
       style="opacity:1;fill:#853f87" />
  </g>
  <g
     id="#b9196dff"
     transform="translate(-4.84,-4.8564192)">
    <path
       d="m 43.28,7.34 c 3.59,1.68 6.73,4.16 9.35,7.12 -0.59,1.31 -1.18,2.61 -1.76,3.92 -2.4,-3.32 -5.71,-5.91 -9.41,-7.62 0.61,-1.14 1.21,-2.28 1.82,-3.42 z"
       id="path16"
       inkscape:connector-curvature="0"
       style="opacity:1;fill:#b9196d" />
    <path
       d="m 27.87,23.83 c 0.84,-3.8 5.31,-3.69 8.35,-3.17 -0.07,2.44 -0.07,4.89 -0.06,7.34 -2.54,2.48 -5.38,4.61 -8.33,6.56 0.03,-3.58 -0.1,-7.16 0.04,-10.73 z"
       id="path18"
       inkscape:connector-curvature="0"
       style="opacity:1;fill:#b9196d" />
    <path
       d="m 6.09,39.72 c 1.09,-0.82 2.16,-1.63 3.24,-2.46 1.12,4.64 3.65,8.89 7.16,12.12 -1.62,0.53 -3.32,0.5 -5,0.33 -2.38,-2.96 -4.44,-6.27 -5.4,-9.99 z"
       id="path20"
       inkscape:connector-curvature="0"
       style="opacity:1;fill:#b9196d" />
  </g>
  <g
     id="#db1a75ff"
     transform="translate(-4.84,-4.8564192)">
    <path
       d="m 52.63,14.46 c 2.93,3.38 4.78,7.52 5.9,11.81 l -0.38,1 c -0.51,1.33 -1.01,2.65 -1.5,3.99 -0.52,-0.89 -1.02,-1.78 -1.51,-2.67 -0.79,-3.63 -2.11,-7.17 -4.27,-10.21 0.58,-1.31 1.17,-2.61 1.76,-3.92 z"
       id="path23"
       inkscape:connector-curvature="0"
       style="opacity:1;fill:#db1a75" />
    <path
       d="m 27.83,34.56 c 2.95,-1.95 5.79,-4.08 8.33,-6.56 -0.05,4.01 0.09,8.04 -0.07,12.05 -0.73,3.92 -5.22,3.62 -8.27,3.42 0,-2.97 -0.02,-5.94 0.01,-8.91 z"
       id="path25"
       inkscape:connector-curvature="0"
       style="opacity:1;fill:#db1a75" />
    <path
       d="m 11.49,49.71 c 1.68,0.17 3.38,0.2 5,-0.33 2.51,2.02 5.27,3.76 8.35,4.77 -1.23,0.88 -2.46,1.77 -3.68,2.66 -3.7,-1.63 -6.96,-4.11 -9.67,-7.1 z"
       id="path27"
       inkscape:connector-curvature="0"
       style="opacity:1;fill:#db1a75" />
  </g>
  <g
     id="#ca1971ff"
     transform="translate(-4.84,-4.8564192)">
    <path
       d="m 40.48,21.49 c 2.54,-2.6 7.38,0.06 6.82,3.56 -0.21,2.94 -3.98,4.83 -6.38,3.02 -2.28,-1.33 -2.51,-4.95 -0.44,-6.58 z"
       id="path30"
       inkscape:connector-curvature="0"
       style="opacity:1;fill:#ca1971" />
    <path
       d="m 19.41,35.44 c 2.75,-1.13 6.06,1.54 5.46,4.48 -0.2,2.99 -4.2,4.76 -6.49,2.75 -2.73,-1.72 -2.03,-6.32 1.03,-7.23 z"
       id="path32"
       inkscape:connector-curvature="0"
       style="opacity:1;fill:#ca1971" />
  </g>
  <g
     id="#ee5e55ff"
     transform="translate(-4.84,-4.8564192)">
    <path
       d="m 58.15,27.27 0.35,-0.85 c 0.5,2.51 0.72,5.06 0.6,7.62 -1.33,1.75 -2.94,3.25 -4.73,4.5 0.9,-3.24 1.01,-6.62 0.77,-9.95 0.49,0.89 0.99,1.78 1.51,2.67 0.49,-1.34 0.99,-2.66 1.5,-3.99 z"
       id="path35"
       inkscape:connector-curvature="0"
       style="opacity:1;fill:#ee5e55" />
    <path
       d="m 24.84,54.15 c 3.48,1 7.13,1.39 10.74,0.94 -2.24,1.75 -4.39,4.16 -7.55,3.66 -2.38,-0.26 -4.68,-1 -6.87,-1.94 1.22,-0.89 2.45,-1.78 3.68,-2.66 z"
       id="path37"
       inkscape:connector-curvature="0"
       style="opacity:1;fill:#ee5e55" />
  </g>
  <g
     id="#f3a53cff"
     transform="translate(-4.84,-4.8564192)">
    <path
       d="m 54.37,38.54 c 1.79,-1.25 3.4,-2.75 4.73,-4.5 -0.96,15.08 -16.08,27.45 -31.07,24.71 3.16,0.5 5.31,-1.91 7.55,-3.66 8.71,-1.56 16.26,-8.02 18.79,-16.55 z"
       id="path40"
       inkscape:connector-curvature="0"
       style="opacity:1;fill:#f3a53c" />
  </g>
</svg>
