<svg xmlns="http://www.w3.org/2000/svg" width="72.389" height="72.368" viewBox="0 0 54.292 54.276"><g fill="#4c76b0"><path d="M22.76.434c2.93-.66 5.97-.49 8.92 0-.81 1.17-1.61 2.33-2.44 3.48-3.94-.24-7.91.43-11.55 1.94 1.83-1.67 3.27-3.72 5.07-5.42zM1.5 18.644c2.1-1.31 4.2-2.63 6.13-4.18-1.85 2.94-3.02 6.25-3.59 9.67-1.31 1.26-2.66 2.49-4.04 3.7 0-3.07.53-6.09 1.28-9.05z"/></g><path d="M1.5 18.644c2.92-9.4 11.54-16.72 21.26-18.21-1.8 1.7-3.24 3.75-5.07 5.42-4.05 1.93-7.57 4.87-10.06 8.61-1.93 1.55-4.03 2.87-6.13 4.18z" fill="#2996c9"/><g fill="#853f87"><path d="M31.68.434c2.32.42 4.59 1.1 6.76 2.05-.61 1.14-1.21 2.28-1.82 3.42-2.35-1-4.85-1.61-7.38-1.99.83-1.15 1.63-2.31 2.44-3.48zM0 27.834c1.38-1.21 2.73-2.44 4.04-3.7-.33 2.76-.09 5.55.45 8.27-1.08.83-2.15 1.64-3.24 2.46l-.14.11c-.54-2.35-.85-4.75-1.11-7.14z"/></g><g fill="#b9196d"><path d="M38.44 2.484c3.59 1.68 6.73 4.16 9.35 7.12-.59 1.31-1.18 2.61-1.76 3.92-2.4-3.32-5.71-5.91-9.41-7.62.61-1.14 1.21-2.28 1.82-3.42zM23.03 18.974c.84-3.8 5.31-3.69 8.35-3.17-.07 2.44-.07 4.89-.06 7.34-2.54 2.48-5.38 4.61-8.33 6.56.03-3.58-.1-7.16.04-10.73zM1.25 34.864c1.09-.82 2.16-1.63 3.24-2.46 1.12 4.64 3.65 8.89 7.16 12.12-1.62.53-3.32.5-5 .33-2.38-2.96-4.44-6.27-5.4-9.99z"/></g><g fill="#db1a75"><path d="M47.79 9.604c2.93 3.38 4.78 7.52 5.9 11.81l-.38 1c-.51 1.33-1.01 2.65-1.5 3.99-.52-.89-1.02-1.78-1.51-2.67-.79-3.63-2.11-7.17-4.27-10.21.58-1.31 1.17-2.61 1.76-3.92zM22.99 29.704c2.95-1.95 5.79-4.08 8.33-6.56-.05 4.01.09 8.04-.07 12.05-.73 3.92-5.22 3.62-8.27 3.42 0-2.97-.02-5.94.01-8.91zM6.65 44.854c1.68.17 3.38.2 5-.33 2.51 2.02 5.27 3.76 8.35 4.77-1.23.88-2.46 1.77-3.68 2.66-3.7-1.63-6.96-4.11-9.67-7.1z"/></g><g fill="#ca1971"><path d="M35.64 16.634c2.54-2.6 7.38.06 6.82 3.56-.21 2.94-3.98 4.83-6.38 3.02-2.28-1.33-2.51-4.95-.44-6.58zM14.57 30.584c2.75-1.13 6.06 1.54 5.46 4.48-.2 2.99-4.2 4.76-6.49 2.75-2.73-1.72-2.03-6.32 1.03-7.23z"/></g><g fill="#ee5e55"><path d="M53.31 22.414l.35-.85c.5 2.51.72 5.06.6 7.62-1.33 1.75-2.94 3.25-4.73 4.5.9-3.24 1.01-6.62.77-9.95.49.89.99 1.78 1.51 2.67.49-1.34.99-2.66 1.5-3.99zM20 49.294c3.48 1 7.13 1.39 10.74.94-2.24 1.75-4.39 4.16-7.55 3.66-2.38-.26-4.68-1-6.87-1.94 1.22-.89 2.45-1.78 3.68-2.66z"/></g><path d="M49.53 33.684c1.79-1.25 3.4-2.75 4.73-4.5-.96 15.08-16.08 27.45-31.07 24.71 3.16.5 5.31-1.91 7.55-3.66 8.71-1.56 16.26-8.02 18.79-16.55z" fill="#f3a53c"/></svg>