<svg xmlns="http://www.w3.org/2000/svg" width="496.97" height="209.443"><path d="M252.78 182.647v-31.521h48.856V126.69H252.78V99.11h51.808V74.48H222.63v15.944c3.219 4.563 5.187 10.12 5.187 16.566 0 5.824-1.693 11.448-5.187 16.328v21.6c6.013 5.773 9.72 13.713 9.72 23.545 0 9.89-3.78 18.016-9.72 24.331v14.481h69.987l7.525-24.629H252.78" fill="#c1c0c1"/><path d="M467.019 150.927c0 23.447-8.663 34.479-24.426 34.479-15.375 0-24.042-11.624-24.042-34.479v-76.45h-30.14v50.941l23.956 77.259c7.99 4.545 17.785 6.766 29.237 6.766 34.678 0 55.366-19.505 55.366-60.484V74.477h-29.951v76.45" fill="#d3d2d2"/><path d="M133.836 182.647H94.798v-31.521h39.038V126.69H94.798V99.11h39.038V76.255c3.151-.632 7.62-1.196 12.775-1.643v-.131H64.653v107.58H82.95v25.215h55.555c-1.72-.194-3.305-.393-4.668-.591v-24.038M337.539 150.73l7.886-28.173c2.166-7.683 4.135-17.731 6.107-25.613h.388c1.978 7.882 4.334 17.732 6.704 25.613l8.27 28.173h-29.355m50.869-2.167v-23.144l-15.795-50.941h-39.408l-33.061 108.17h7.209v24.625h16.395l9.457-34.081h38.022l10.252 34.081h32.316l-1.427-4.595c-15.379-8.744-23.96-26.24-23.96-54.115" fill="#e5e4e4"/><path d="M307.355 207.274h-14.739l7.525-24.629h7.214z" fill="#cdcccc"/><path d="M300.143 182.647l-7.525 24.63h14.739v-24.63z" fill="#d7d7d7"/><path d="M412.369 202.676c-15.38-8.743-23.96-26.235-23.96-54.114v-23.144l23.96 77.258" fill="#dbdada"/><path d="M388.41 148.562c0 27.875 8.577 45.371 23.96 54.115l-23.96-77.258z" fill="#d7d7d7"/><path d="M175.208 186.393c-5.12 0-8.667 0-11.624-.398v-37.43h10.247c14.973 0 26.994 5.317 26.994 18.715 0 13.79-12.02 19.113-25.617 19.113m-11.624-90.237c2.56-.397 6.306-.79 12.806-.79 13.597 0 21.28 5.322 21.28 15.37 0 9.85-8.469 16.35-24.232 16.35h-9.854v-30.93m42.365 39.598v-.393c7.592-2.794 13.09-7.02 16.684-12.044V90.423c-2.781-3.945-6.483-7.154-10.775-9.439-9.656-5.714-20.887-7.484-39.21-7.484-8.987 0-18.3.429-26.032 1.11v24.498h-12.78v27.581h9.823v24.435h-9.823v31.522h15.538v24.629h-10.87c6.717.75 16.07 1.381 27.843 1.381 26.393 0 42.55-4.333 52.21-12.02 1.462-1.184 2.798-2.484 4.076-3.842v-47.877c-4.47-4.293-10.216-7.398-16.684-9.163" fill="#b9b7b8"/><path d="M222.632 192.795V144.92c6.013 5.774 9.714 13.714 9.714 23.546 0 9.89-3.773 18.015-9.714 24.33" fill="#cdcccc"/><path d="M222.632 144.92v47.875c5.936-6.315 9.714-14.44 9.714-24.33 0-9.832-3.701-17.772-9.714-23.546" fill="#a7a5a6"/><path d="M222.632 123.318V90.424c3.214 4.564 5.182 10.12 5.182 16.567 0 5.823-1.692 11.448-5.182 16.327" fill="#aeacad"/><path d="M149.375 207.274h-10.874c-1.716-.19-3.305-.388-4.663-.591v-24.038h15.537v24.629" fill="#e9e9e9"/><path d="M149.375 182.647h-15.537v24.038c1.358.198 2.947.397 4.663.591h10.874z" fill="#b0aeaf"/><path d="M146.613 99.11h-12.775V76.255c3.147-.632 7.62-1.196 12.775-1.647V99.11" fill="#e9e9e9"/><path d="M133.836 99.11h12.78V74.609c-5.16.452-9.629 1.016-12.78 1.648z" fill="#b0aeaf"/><path d="M143.659 151.126h-9.823V126.69h9.823z" fill="#e9e9e9"/><path d="M143.659 126.69h-9.823v24.436h9.823z" fill="#b0aeaf"/><path d="M30.145 182.06V74.48H0v132.795h64.655v-25.216z" fill="#d3d2d2"/><path d="M82.949 207.276H64.653v-25.215H82.95z" fill="#e9e9e9"/><path d="M64.653 207.276H82.95v-25.215H64.653z" fill="#cac9c9"/><path d="M37.953 10.595c4.316 0 7.841.19 10.572.568 2.736.375 4.83 1.088 6.284 2.122 1.458 1.038 2.19 2.47 2.19 4.288 0 1.318-.48 2.957-1.432 4.92-.952 1.96-2.487 3.914-4.604 5.864-2.113 1.95-4.974 3.58-8.577 4.898-3.597 1.318-7.854 1.977-12.756 1.977-.56 0-1.255-.027-2.081-.085-.827-.055-1.775-.113-2.84-.167l2.397-4.036 6.392-1.219c.727-.14 1.092-.393 1.092-.758 0-.42-.225-.632-.672-.632l-5.507.632 7.313-11.48c1.543-2.378 2.315-4.297 2.315-5.76 0-.446-.031-.825-.086-1.132m-29.932 7.61c.785-.307 2.08-.835 3.886-1.58 1.81-.74 3.864-1.525 6.162-2.351 2.298-.827 5.056-1.607 8.283-2.334 3.223-.727 6.288-1.151 9.205-1.26l-12.82 19.126c-3.896.872-6.84 2.045-8.83 3.535-1.99 1.485-2.984 3.097-2.984 4.83 0 .786.361 1.585 1.093 2.397.726.813 1.751 1.472 3.07 1.977-2.47 4.429-4.312 7.981-5.53 10.658-1.22 2.677-1.829 4.631-1.829 5.864 0 .866.113 1.548.334 2.036.226.492.745.74 1.558.74l1.196-.506a6.056 6.056 0 0 0 1.092-1.178c.325-.447.948-1.359 1.874-2.73.925-1.378 1.665-2.484 2.23-3.323.392-.587.586-1.318.586-2.185 0-.366-.194-.84-.586-1.431l3.782-6.893c2.858.334 4.75.501 5.675.501 5.24 0 10.061-.664 14.463-1.995 4.396-1.327 8.224-3.26 11.474-5.778 3.25-2.524 5.751-5.503 7.507-8.934 1.747-3.435 2.628-7.254 2.628-11.456 0-1.851-.334-3.72-.989-5.616-.66-1.887-1.594-3.48-2.799-4.767C54.39 1.851 48.363 0 39.678 0c-7.512 0-16.174 1.756-25.983 5.254a134.074 134.074 0 0 0-4.605 8.117c-1.3 2.519-1.954 3.895-1.954 4.117l.298.505zM66.982 37.88c3.097-2.33 8.288-5.16 15.578-8.492-3.421 4.79-6.351 8.582-8.789 11.371-2.437 2.79-5.128 5.052-8.07 6.79-.786.392-1.332.586-1.64.586-.532 0-.952-.288-1.263-.862-.307-.573-.46-1.309-.46-2.207 0-2.465 1.548-4.862 4.644-7.187m-8.048-.212c-.732.926-1.22 1.828-1.472 2.713-.253.885-.38 1.982-.38 3.3 0 1.82.357 3.58 1.07 5.277.718 1.697 1.535 3.074 2.46 4.14.926 1.065 1.698 1.597 2.317 1.597 1.286 0 2.925-.961 4.915-2.88 1.991-1.918 5.03-5.15 9.123-9.691-1.598 4.207-2.397 7.416-2.397 9.628 0 1.404.23 2.46.696 3.174.46.717 1.236 1.074 2.333 1.074 3.052 0 8.126-3.936 15.217-11.813v-.127l-.803.713v-2.491c-3.747 3.187-6.577 4.848-8.405 4.848-1.905 0-2.858-1.038-2.858-3.115 0-1.26.275-2.325.817-3.191.55-.872 1.503-2.221 2.862-4.059 1.359-1.832 2.036-3.092 2.036-3.764 0-.334-.081-.718-.248-1.151a39.937 39.937 0 0 0-.714-1.707c-.311-.7-.564-1.273-.758-1.724.98-.334 1.666-.623 2.059-.862.392-.235.586-.605.586-1.11 0-.312-.144-.786-.438-1.432a5.594 5.594 0 0 0-1.2-1.701c-.506-.488-1.052-.736-1.639-.736-2.185 0-5.281.939-9.29 2.817-4.008 1.877-8.143 4.748-12.4 8.617-1.598 1.517-2.763 2.735-3.49 3.656" fill="#a7a5a6"/><path d="M92.815 44.058l.208-.19.948-.84.966-.88 1.115-.993c-1.12 2.89-1.9 5.047-2.334 6.478-.434 1.426-.65 2.663-.65 3.697 0 1.544.383 2.803 1.155 3.787.768.98 1.788 1.467 3.047 1.467 3.562 0 9.056-3.999 16.45-11.97l-.095-.93c0-.728.126-1.396.226-2.077-2.79 2.266-5.043 3.972-6.722 5.078-1.724 1.133-3.12 1.702-4.184 1.702-1.54 0-2.312-.966-2.312-2.898 0-1.431.271-2.943.822-4.541.546-1.598 1.327-3.359 2.352-5.277 1.024-1.919 2.293-4.1 3.805-6.537.786.059 1.454.104 1.995.15.547.04 1.088.08 1.62.121.534.045 1.193.095 1.978.15 2.41-3.111 4.415-6.154 6.013-9.124a97.375 97.375 0 0 0-1.747-.207 788.74 788.74 0 0 1-2.546-.298c.618-1.007 1.53-2.253 2.735-3.738 1.206-1.485 1.806-2.397 1.806-2.736 0-.7-.772-1.051-2.311-1.051-1.54 0-2.916.555-4.122 1.66-1.205 1.111-2.545 2.994-4.035 5.657h-1.806c-2.157 0-3.832.135-5.024.397-1.192.267-2.203.781-3.029 1.535-.826.758-1.702 1.923-2.627 3.494-1.147 1.846-1.72 3.232-1.72 4.157l.167.253.61-.149.943-.27c.817-.222 2.045-.335 3.701-.335.506 0 .94.005 1.305.018.361.014.754.036 1.174.064-4.176 6.193-7.733 10.526-10.676 12.991v.406l.799-.659z" fill="#a7a5a6"/><path d="M92.815 44.058V41.62l-.8.66v2.496zM131.198 22.744c1.318 0 2.55-.727 3.701-2.185 1.147-1.458 1.725-2.79 1.725-3.995 0-.98-.285-1.729-.845-2.248-.56-.52-1.259-.781-2.103-.781-1.26 0-2.478.758-3.656 2.27-1.174 1.517-1.765 2.89-1.765 4.122 0 .812.315 1.49.947 2.018.628.532 1.296.799 1.996.799M114.045 44.27l-.325.342c.113 2.487.591 4.83 1.589 6.97 1.12 2.41 2.83 3.616 5.128 3.616 1.652 0 3.656-.89 6.013-2.668 2.22-1.68 4.618-4.162 7.164-7.38a30.212 30.212 0 0 1-.104-2.438v-.736c-2.253 1.873-4.153 3.318-5.611 4.207-1.585.966-3.038 1.45-4.352 1.45-1.205 0-2.185-.34-2.943-1.012-.758-.668-1.133-1.512-1.133-2.523 0-1.174.37-2.226 1.11-3.151.745-.926 2.334-2.564 4.772-4.92.871-.809 1.86-2.172 2.966-4.077 1.106-1.905 1.66-3.304 1.66-4.202 0-1.319-.857-1.978-2.563-1.978-3.309 0-6.952 3.097-10.929 9.29-.844 1.377-1.417 2.384-1.724 3.03-.312.645-.578 1.466-.804 2.46l-.108 1.056.194-.154z" fill="#a7a5a6"/><path d="M113.721 44.61l.325-.342V41.45l-.199.153c-.099.682-.22 1.355-.22 2.077zM148.434 30.143l.754 6.139.067.673.018.753c0 2.357-.51 4.212-1.534 5.575-1.02 1.354-2.488 2.429-4.393 3.214-1.12-1.765-1.99-2.956-2.609-3.575-.614-.614-1.765-1.106-3.444-1.471 5.688-5.575 9.403-9.345 11.14-11.308m-14.377 14.463l-.442.542c.077.984.194 1.864.38 2.568.32 1.232 1.141 2.523 2.46 3.869 2.238 2.243 4.676 3.363 7.312 3.363 2.045 0 4.483-.908 7.313-2.713 2.763-1.765 5.89-4.347 9.371-7.72-.036-.582-.076-1.132-.076-1.8v-.994c-1.702 1.409-3.224 2.587-4.519 3.494-1.39.966-2.75 1.738-4.08 2.311-1.332.578-2.574.863-3.72.863-.587 0-1.386-.086-2.397-.253 2.523-1.625 4.581-3.219 6.18-4.771 1.597-1.558 2.816-3.178 3.656-4.876a11.788 11.788 0 0 0 1.264-5.322c0-1.232-.113-2.338-.334-3.318a81.156 81.156 0 0 0-.948-3.638c-.406-1.44-.61-2.429-.61-2.961 0-.619.055-1.097.167-1.431l-.252-.8c-.673-.333-1.3-.5-1.892-.5-2.356 0-3.841 1.724-4.455 5.168-2.722 3.056-7.697 8.397-14.924 16.016v.271l.546-.438z" fill="#a7a5a6"/><path d="M133.613 45.149l.443-.546v-3.065l-.547.438v.735c0 .908.045 1.693.104 2.438M175.296 30.143l.754 6.139.067.673.018.753c0 2.357-.51 4.212-1.534 5.575-1.02 1.354-2.488 2.429-4.393 3.214-1.12-1.765-1.99-2.956-2.609-3.575-.614-.614-1.765-1.106-3.444-1.471 5.688-5.575 9.403-9.345 11.14-11.308m-14.584 14.124l-.262.249c.072 1.241.185 2.36.406 3.2.32 1.232 1.142 2.523 2.46 3.869 2.24 2.243 4.677 3.363 7.313 3.363 2.045 0 4.483-.908 7.313-2.713 2.704-1.725 5.755-4.244 9.146-7.512.022-1.097.153-2.157.365-3.178-1.796 1.494-3.38 2.722-4.735 3.67-1.39.966-2.75 1.738-4.08 2.311-1.332.578-2.574.863-3.72.863-.587 0-1.386-.086-2.397-.253 2.523-1.625 4.581-3.219 6.18-4.771 1.597-1.558 2.816-3.178 3.656-4.876a11.788 11.788 0 0 0 1.264-5.322c0-1.232-.113-2.338-.334-3.318a81.156 81.156 0 0 0-.948-3.638c-.407-1.44-.61-2.429-.61-2.961 0-.619.054-1.097.167-1.431l-.252-.8c-.673-.333-1.3-.5-1.892-.5-2.356 0-3.841 1.724-4.455 5.168-2.722 3.056-7.697 8.397-14.924 16.016v.018l.339-.27z" fill="#a7a5a6"/><path d="M160.449 44.514l.262-.244v-2.817l-.339.271v.989c0 .672.045 1.223.077 1.8M196.358 35.735c.926-1.404 1.969-2.623 3.133-3.657 1.16-1.038 2.311-1.877 3.449-2.523 1.133-.645 1.955-.966 2.456-.966.586 0 .884.32.884.966 0 .618-.428 1.589-1.282 2.92-.857 1.332-2.18 2.727-3.972 4.185-1.797 1.458-3.954 2.677-6.473 3.657a11.82 11.82 0 0 1 1.805-4.582m-8.788 8.536l-.483.451-.019.343c0 3.368.727 6.013 2.185 7.95 1.458 1.932 3.435 2.898 5.927 2.898 2.862 0 5.679-1.016 8.45-3.047 2.65-1.941 5.485-4.717 8.492-8.284v-2.541l.374-.465c-2.08 1.774-3.846 3.191-5.29 4.248-1.458 1.065-2.925 1.923-4.397 2.564-1.467.645-2.893.97-4.266.97-1.318 0-2.379-.465-3.196-1.39-.812-.925-1.219-2.212-1.219-3.869v-1.047c3.955-1.598 7.282-3.264 9.986-4.983 2.704-1.725 4.717-3.463 6.035-5.214 1.314-1.752 1.973-3.512 1.973-5.277 0-1.205-.384-2.108-1.156-2.709-.772-.604-1.815-.902-3.133-.902-1.652 0-3.53.46-5.633 1.385-2.1.926-4.216 2.298-6.347 4.117-3.11 2.664-5.354 5.196-6.726 7.588-.804 1.404-1.34 2.908-1.675 4.492l.118-.095z" fill="#a7a5a6"/><path d="M187.57 44.27v-2.818l-.116.095a16.91 16.91 0 0 0-.366 3.178zM212.544 44.1l-.42.482v.19c3.309-2.83 5.828-5.981 7.565-9.457a332.8 332.8 0 0 1 2.524-.465 487.98 487.98 0 0 0 3.11-.564c.98-.185 1.864-.357 2.65-.528a61.4 61.4 0 0 0-4.018 5.403c-1.187 1.81-2.094 3.48-2.708 5.024-.619 1.54-.926 2.916-.926 4.122 0 2.044.393 3.606 1.179 4.685.785 1.079 1.765 1.62 2.943 1.62 1.006 0 2.158-.415 3.444-1.24 1.291-.827 2.69-1.942 4.207-3.346 1.418-1.313 3.223-3.119 5.354-5.344l-.1-1.002c0-.7.122-1.346.213-2.005-4.067 3.31-6.956 4.988-8.622 4.988-1.625 0-2.438-.659-2.438-1.977 0-.952.506-2.365 1.512-4.243a25.143 25.143 0 0 1 3.743-5.214c1.264-1.313 2.148-2.32 2.672-3.006.515-.686.776-1.323.776-1.91a8.78 8.78 0 0 0-.465-2.776c-.307-.925-.7-1.512-1.173-1.765-.226-.113-.632-.171-1.22-.171-1.516 0-5.159.451-10.932 1.35.871-1.459 1.304-2.425 1.304-2.903 0-.533-.28-.8-.844-.8l-1.133.294c-1.006.393-2.13 1.264-3.363 2.605a22.155 22.155 0 0 0-3.11 4.333c-.84 1.54-1.26 2.817-1.26 3.824 0 .898.2 1.57.61 2.018.406.451 1.056.826 1.95 1.137-.709 1.142-1.76 2.537-3.074 4.117l.05-.04z" fill="#a7a5a6"/><path d="M212.123 44.585l.42-.483v-2.564l-.046.036-.374.47zM254.918 22.744c1.318 0 2.55-.727 3.702-2.185 1.146-1.458 1.724-2.79 1.724-3.995 0-.98-.284-1.729-.844-2.248-.56-.52-1.26-.781-2.104-.781-1.259 0-2.478.758-3.656 2.27-1.174 1.517-1.765 2.89-1.765 4.122 0 .812.316 1.49.948 2.018.627.532 1.296.799 1.995.799M237.851 44.27l-.401.414c.117 2.46.591 4.78 1.58 6.898 1.12 2.41 2.83 3.616 5.123 3.616 1.657 0 3.661-.89 6.017-2.668 2.149-1.625 4.46-4.009 6.916-7.078l-.023-.384c0-1.12.136-2.185.33-3.223-2.33 1.95-4.28 3.426-5.774 4.338-1.584.966-3.038 1.45-4.351 1.45-1.205 0-2.185-.34-2.943-1.012-.759-.668-1.133-1.512-1.133-2.523 0-1.174.37-2.226 1.11-3.151.745-.926 2.334-2.564 4.771-4.92.872-.809 1.856-2.172 2.966-4.077 1.106-1.905 1.661-3.304 1.661-4.202 0-1.319-.857-1.978-2.564-1.978-3.308 0-6.951 3.097-10.933 9.29-.84 1.377-1.413 2.384-1.72 3.03-.311.645-.577 1.466-.803 2.46l-.117 1.128.288-.226z" fill="#a7a5a6"/><path d="M237.448 44.684l.402-.416v-2.817l-.289.226c-.09.66-.212 1.305-.212 2.004zM266.356 35.735c.925-1.404 1.968-2.623 3.132-3.657 1.16-1.038 2.312-1.877 3.45-2.523 1.132-.645 1.954-.966 2.455-.966.587 0 .885.32.885.966 0 .618-.43 1.589-1.282 2.92-.858 1.332-2.18 2.727-3.973 4.185-1.796 1.458-3.954 2.677-6.473 3.657a11.82 11.82 0 0 1 1.806-4.582m-8.577 8.87l-.69.849c.053 3.169.762 5.705 2.161 7.56 1.458 1.933 3.436 2.899 5.927 2.899 2.862 0 5.68-1.016 8.45-3.047 2.777-2.032 5.747-4.952 8.912-8.767v-2.564c-2.1 1.797-3.878 3.223-5.336 4.289-1.458 1.065-2.925 1.923-4.397 2.564-1.467.645-2.893.97-4.266.97-1.318 0-2.379-.465-3.196-1.39-.812-.925-1.218-2.212-1.218-3.869v-1.047c3.954-1.598 7.28-3.264 9.985-4.983 2.704-1.725 4.717-3.463 6.035-5.214 1.314-1.752 1.973-3.512 1.973-5.277 0-1.205-.384-2.108-1.156-2.709-.772-.604-1.815-.902-3.133-.902-1.652 0-3.53.46-5.633 1.385-2.1.926-4.216 2.298-6.347 4.117-3.11 2.664-5.354 5.196-6.726 7.588-.853 1.49-1.408 3.093-1.729 4.79l.384-.312z" fill="#a7a5a6"/><path d="M257.087 45.453l.69-.849v-3.07l-.383.312a17.032 17.032 0 0 0-.33 3.223zM74.642 16.442c1.318 0 3.236-1.413 5.76-4.243.392-.424.79-.84 1.2-1.264.402-.42.736-.632.984-.632.366 0 .646.298.845.885.92 1.625 1.86 2.893 2.812 3.805.952.912 1.796 1.363 2.523 1.363.452 0 .822-.194 1.115-.587.294-.392.443-.799.443-1.218 0-.587-.28-1.964-.84-4.122-.56-2.157-1.178-3.922-1.85-5.295-.76-1.598-1.78-2.397-3.07-2.397-1.291 0-2.84.835-4.645 2.501a37.914 37.914 0 0 0-4.939 5.57c-1.485 2.05-2.23 3.377-2.23 3.995 0 1.093.632 1.64 1.892 1.64" fill="#a7a5a6"/></svg>