<?xml version="1.0" encoding="UTF-8" standalone="no"?>
<!-- Generator: Adobe Illustrator 18.1.1, SVG Export Plug-In . SVG Version: 6.00 Build 0)  -->

<svg
   xmlns:dc="http://purl.org/dc/elements/1.1/"
   xmlns:cc="http://creativecommons.org/ns#"
   xmlns:rdf="http://www.w3.org/1999/02/22-rdf-syntax-ns#"
   xmlns:svg="http://www.w3.org/2000/svg"
   xmlns="http://www.w3.org/2000/svg"
   xmlns:sodipodi="http://sodipodi.sourceforge.net/DTD/sodipodi-0.dtd"
   xmlns:inkscape="http://www.inkscape.org/namespaces/inkscape"
   version="1.1"
   x="0px"
   y="0px"
   viewBox="0 0 514.09998 301.70001"
   enable-background="new 0 0 550 326"
   xml:space="preserve"
   id="svg131"
   sodipodi:docname="mlh-logo.svg"
   width="514.09998"
   height="301.70001"
   inkscape:version="0.92.2 5c3e80d, 2017-08-06"><metadata
     id="metadata137"><rdf:RDF><cc:Work
         rdf:about=""><dc:format>image/svg+xml</dc:format><dc:type
           rdf:resource="http://purl.org/dc/dcmitype/StillImage" /></cc:Work></rdf:RDF></metadata><defs
     id="defs135" /><sodipodi:namedview
     pagecolor="#ffffff"
     bordercolor="#666666"
     borderopacity="1"
     objecttolerance="10"
     gridtolerance="10"
     guidetolerance="10"
     inkscape:pageopacity="0"
     inkscape:pageshadow="2"
     inkscape:window-width="1918"
     inkscape:window-height="2136"
     id="namedview133"
     showgrid="false"
     inkscape:zoom="0.65636364"
     inkscape:cx="261.57064"
     inkscape:cy="153.6"
     inkscape:window-x="3840"
     inkscape:window-y="22"
     inkscape:window-maximized="0"
     inkscape:current-layer="svg131" /><g
     id="Layer_1"
     transform="translate(-18,-14.9)"><g
       display="none"
       id="g8"
       style="display:none"><path
         display="inline"
         d="m 185.9,18.1 c 3.6,1.6 6.7,3.7 9.2,6.2 2.6,2.6 4.7,5.7 6.2,9.2 1.6,3.6 2.4,7.4 2.4,11.4 v 141 c 0,1.3 -0.5,2.5 -1.4,3.4 -0.9,0.9 -2,1.4 -3.4,1.4 h -34.8 c -1.3,0 -2.4,-0.5 -3.2,-1.4 -0.8,-0.9 -1.2,-2 -1.2,-3.4 V 58.3 h -28 V 186 c 0,1.3 -0.4,2.5 -1.2,3.4 -0.8,0.9 -1.9,1.4 -3.2,1.4 H 95.8 c -1.3,0 -2.5,-0.5 -3.4,-1.4 -0.9,-0.9 -1.4,-2 -1.4,-3.4 V 58.3 H 63 V 186 c 0,3.2 -1.6,4.8 -4.8,4.8 H 23.8 C 20.6,190.8 19,189.2 19,186 V 20.5 c 0,-3.2 1.6,-4.7 4.8,-4.7 h 150.8 c 3.9,0 7.7,0.8 11.3,2.3 z"
         id="path2"
         inkscape:connector-curvature="0"
         style="display:inline" /><path
         display="inline"
         d="m 356,148.3 c 1.3,0 2.4,0.5 3.2,1.4 0.8,0.9 1.2,2 1.2,3.4 v 33 c 0,1.3 -0.4,2.5 -1.2,3.4 -0.8,0.9 -1.9,1.4 -3.2,1.4 H 248 c -3.2,0 -4.8,-1.6 -4.8,-4.8 V 20.5 c 0,-3.2 1.6,-4.7 4.8,-4.7 h 34.5 c 3.2,0 4.8,1.6 4.8,4.7 v 123.3 c 0,1.3 0.5,2.4 1.4,3.2 0.9,0.8 2,1.2 3.4,1.2 H 356 Z"
         id="path4"
         inkscape:connector-curvature="0"
         style="display:inline" /><path
         display="inline"
         d="m 526.5,15.8 c 1.3,0 2.5,0.5 3.4,1.4 0.9,0.9 1.4,2 1.4,3.4 V 186 c 0,1.3 -0.5,2.5 -1.4,3.4 -0.9,0.9 -2,1.4 -3.4,1.4 h -34.8 c -1.3,0 -2.5,-0.5 -3.4,-1.4 -0.9,-0.9 -1.4,-2 -1.4,-3.4 v -57.8 c 0,-1.3 -0.4,-2.4 -1.2,-3.3 -0.8,-0.8 -1.9,-1.2 -3.2,-1.2 h -48.7 c -1.3,0 -2.5,0.4 -3.4,1.2 -0.9,0.8 -1.4,1.9 -1.4,3.3 V 186 c 0,3.2 -1.6,4.8 -4.8,4.8 h -34.5 c -3.2,0 -4.8,-1.6 -4.8,-4.8 V 20.5 c 0,-3.2 1.6,-4.7 4.8,-4.7 h 34.5 c 3.2,0 4.8,1.6 4.8,4.7 v 56 c 0,3.2 1.6,4.8 4.8,4.8 h 48.7 c 1.3,0 2.4,-0.5 3.2,-1.4 0.8,-0.9 1.2,-2 1.2,-3.4 v -56 c 0,-1.3 0.5,-2.5 1.4,-3.4 0.9,-0.9 2,-1.4 3.4,-1.4 h 34.8 z"
         id="path6"
         inkscape:connector-curvature="0"
         style="display:inline" /></g><g
       id="H"><g
         id="Layer_9" /><g
         id="Layer_10" /><g
         id="Layer_11" /></g><g
       id="L"><g
         id="Layer_6" /><g
         id="Layer_7" /></g><g
       id="M"><g
         id="Layer_2" /><g
         id="Layer_4" /></g><g
       id="Major_League_Hacking"><g
         id="g72"><path
           d="m 526.5,15.3 c 1.3,0 2.5,0.5 3.4,1.4 0.9,0.9 1.4,2 1.4,3.4 v 165.5 c 0,1.3 -0.5,2.5 -1.4,3.4 -0.9,0.9 -2,1.4 -3.4,1.4 h -34.8 c -1.3,0 -2.5,-0.5 -3.4,-1.4 -0.9,-0.9 -1.4,-2 -1.4,-3.4 v -57.8 c 0,-1.3 -0.4,-2.4 -1.2,-3.2 -0.8,-0.8 -1.9,-1.2 -3.2,-1.2 h -48.7 c -1.3,0 -2.5,0.4 -3.4,1.2 -0.9,0.8 -1.4,1.9 -1.4,3.2 v 57.8 c 0,3.2 -1.6,4.8 -4.8,4.8 h -34.5 c -3.2,0 -4.8,-1.6 -4.8,-4.8 V 20 c 0,-3.2 1.6,-4.8 4.8,-4.8 h 34.5 c 3.2,0 4.8,1.6 4.8,4.8 v 56 c 0,3.2 1.6,4.8 4.8,4.8 h 48.7 c 1.3,0 2.4,-0.5 3.2,-1.4 0.8,-0.9 1.2,-2 1.2,-3.4 V 20 c 0,-1.3 0.5,-2.5 1.4,-3.4 0.9,-0.9 2,-1.4 3.4,-1.4 h 34.8 z"
           id="path20"
           inkscape:connector-curvature="0"
           style="fill:#fdee00" /><path
           d="m 429,127.8 v 57.7 c 0,3.2 -1.6,4.8 -4.8,4.8 h -34.5 c -3.2,0 -4.8,-1.6 -4.8,-4.8 V 20 c 0,-3.2 1.6,-4.8 4.8,-4.8 h 34.5 c 3.2,0 4.8,1.6 4.8,4.8 v 56 c 0,3.2 0,50.4 0,51.8 z"
           id="path22"
           inkscape:connector-curvature="0"
           style="fill:#ecc700" /><path
           d="m 526.5,15.3 c 1.3,0 2.5,0.5 3.4,1.4 0.9,0.9 1.4,2 1.4,3.4 v 165.5 c 0,1.3 -0.5,2.5 -1.4,3.4 -0.9,0.9 -2,1.4 -3.4,1.4 h -34.8 c -1.3,0 -2.5,-0.5 -3.4,-1.4 -0.9,-0.9 -1.4,-2 -1.4,-3.4 v -57.7 c 0,-1.3 0,-50.4 0,-51.7 V 20 c 0,-1.3 0.5,-2.5 1.4,-3.4 0.9,-0.9 2,-1.4 3.4,-1.4 h 34.8 z"
           id="path24"
           inkscape:connector-curvature="0"
           style="fill:#ecc700" /><path
           d="m 356,147.5 c 1.3,0 2.4,0.5 3.2,1.4 0.8,0.9 1.2,2 1.2,3.4 v 33 c 0,1.3 -0.4,2.5 -1.2,3.4 -0.8,0.9 -1.9,1.4 -3.2,1.4 H 248 c -3.2,0 -4.8,-1.6 -4.8,-4.8 V 19.7 c 0,-3.2 1.6,-4.8 4.8,-4.8 h 34.5 c 3.2,0 4.8,1.6 4.8,4.8 V 143 c 0,1.3 0.5,2.4 1.4,3.2 0.9,0.8 2,1.2 3.4,1.2 H 356 Z"
           id="path26"
           inkscape:connector-curvature="0"
           style="fill:#265a8f" /><path
           d="m 287,190 h -39 c -3.2,0 -4.8,-1.6 -4.8,-4.8 V 19.7 c 0,-3.2 1.6,-4.8 4.8,-4.8 h 34.5 c 3.2,0 4.8,1.6 4.8,4.8 V 143 c 0,1.3 -0.3,47 -0.3,47 z"
           id="path28"
           inkscape:connector-curvature="0"
           style="fill:#162f51" /><path
           d="m 185.9,17.6 c 3.6,1.6 6.7,3.7 9.2,6.2 2.6,2.6 4.7,5.7 6.2,9.2 1.6,3.6 2.4,7.4 2.4,11.4 v 141 c 0,1.3 -0.5,2.5 -1.4,3.4 -0.9,0.9 -2,1.4 -3.4,1.4 h -34.8 c -1.3,0 -2.4,-0.5 -3.2,-1.4 -0.8,-0.9 -1.2,-2 -1.2,-3.4 V 57.8 h -28 v 127.8 c 0,1.3 -0.4,2.5 -1.2,3.4 -0.8,0.9 -1.9,1.4 -3.2,1.4 H 95.8 c -1.3,0 -2.5,-0.5 -3.4,-1.4 -0.9,-0.9 -1.4,-2 -1.4,-3.4 V 57.8 H 63 v 127.8 c 0,3.2 -1.6,4.8 -4.8,4.8 H 23.8 c -3.2,0 -4.8,-1.6 -4.8,-4.8 V 20 c 0,-3.2 1.6,-4.8 4.8,-4.8 h 150.8 c 3.9,0.1 7.7,0.9 11.3,2.4 z"
           id="path30"
           inkscape:connector-curvature="0"
           style="fill:#c53c02" /><path
           d="m 185.9,17.6 c 3.6,1.6 6.7,3.7 9.2,6.2 2.6,2.6 4.7,5.7 6.2,9.2 1.6,3.6 2.4,7.4 2.4,11.4 v 13 l -44,0.3 H 131.7 91 63 L 19,57.4 V 20 c 0,-3.2 1.6,-4.8 4.8,-4.8 h 150.8 c 3.9,0.1 7.7,0.9 11.3,2.4 z"
           id="path32"
           inkscape:connector-curvature="0"
           style="fill:#751b00" /><g
           id="g70"><path
             d="m 43.9,208.2 c 0.6,0.2 1,0.6 1.4,1 0.4,0.4 0.7,0.9 1,1.4 0.2,0.6 0.4,1.1 0.4,1.8 v 21.9 c 0,0.2 -0.1,0.4 -0.2,0.5 -0.1,0.1 -0.3,0.2 -0.5,0.2 h -5.4 c -0.2,0 -0.4,-0.1 -0.5,-0.2 -0.1,-0.1 -0.2,-0.3 -0.2,-0.5 v -19.8 h -4.4 v 19.8 c 0,0.2 -0.1,0.4 -0.2,0.5 -0.1,0.1 -0.3,0.2 -0.5,0.2 h -4.9 c -0.2,0 -0.4,-0.1 -0.5,-0.2 -0.1,-0.1 -0.2,-0.3 -0.2,-0.5 v -19.8 h -4.4 v 19.8 c 0,0.5 -0.2,0.7 -0.7,0.7 h -5.4 c -0.5,0 -0.7,-0.2 -0.7,-0.7 v -25.7 c 0,-0.5 0.2,-0.7 0.7,-0.7 h 23.4 c 0.6,-0.1 1.2,0 1.8,0.3 z"
             id="path34"
             inkscape:connector-curvature="0"
             style="fill:#353535" /><path
             d="m 71,207.8 c 0.6,0 1.2,0.1 1.8,0.4 0.6,0.2 1,0.6 1.4,1 0.4,0.4 0.7,0.9 1,1.4 0.2,0.6 0.4,1.1 0.4,1.8 v 21.9 c 0,0.2 -0.1,0.4 -0.2,0.5 -0.1,0.1 -0.3,0.2 -0.5,0.2 h -5.4 c -0.2,0 -0.4,-0.1 -0.5,-0.2 -0.1,-0.1 -0.2,-0.3 -0.2,-0.5 v -7 c 0,-0.2 -0.1,-0.4 -0.2,-0.5 -0.1,-0.1 -0.3,-0.2 -0.5,-0.2 h -7.7 c -0.2,0 -0.4,0.1 -0.5,0.2 -0.1,0.1 -0.2,0.3 -0.2,0.5 v 7 c 0,0.5 -0.2,0.7 -0.7,0.7 h -5.4 c -0.5,0 -0.7,-0.2 -0.7,-0.7 v -21.9 c 0,-0.6 0.1,-1.2 0.3,-1.8 0.2,-0.6 0.6,-1 1,-1.4 0.4,-0.4 0.9,-0.7 1.5,-1 0.6,-0.2 1.1,-0.4 1.8,-0.4 z m -2.3,13 V 214 h -9.1 v 6.8 z"
             id="path36"
             inkscape:connector-curvature="0"
             style="fill:#353535" /><path
             d="m 100,208 c 0.1,0.1 0.2,0.3 0.2,0.5 v 21.9 c 0,0.6 -0.1,1.2 -0.4,1.8 -0.2,0.6 -0.6,1 -1,1.5 -0.4,0.4 -0.9,0.7 -1.4,1 -0.6,0.2 -1.1,0.4 -1.8,0.4 H 84 c -0.6,0 -1.2,-0.1 -1.8,-0.4 -0.6,-0.2 -1,-0.6 -1.5,-1 -0.4,-0.4 -0.7,-0.9 -1,-1.5 -0.2,-0.6 -0.4,-1.1 -0.4,-1.8 v -8.3 c 0,-0.5 0.2,-0.7 0.7,-0.7 h 5.4 c 0.5,0 0.7,0.2 0.7,0.7 v 5.6 c 0,0.2 0.1,0.4 0.2,0.5 0.1,0.1 0.3,0.2 0.5,0.2 h 5.6 c 0.2,0 0.4,-0.1 0.5,-0.2 0.1,-0.1 0.2,-0.3 0.2,-0.5 v -19.2 c 0,-0.2 0.1,-0.4 0.2,-0.5 0.1,-0.1 0.3,-0.2 0.5,-0.2 h 5.4 c 0.5,0 0.7,0.1 0.8,0.2 z"
             id="path38"
             inkscape:connector-curvature="0"
             style="fill:#353535" /><path
             d="m 124.6,207.8 c 0.6,0 1.2,0.1 1.8,0.4 0.6,0.2 1,0.6 1.4,1 0.4,0.4 0.7,0.9 1,1.4 0.2,0.6 0.4,1.1 0.4,1.8 v 18.1 c 0,0.6 -0.1,1.2 -0.4,1.8 -0.2,0.6 -0.6,1 -1,1.5 -0.4,0.4 -0.9,0.7 -1.4,1 -0.6,0.2 -1.1,0.4 -1.8,0.4 h -13.8 c -0.6,0 -1.2,-0.1 -1.8,-0.4 -0.6,-0.2 -1,-0.6 -1.5,-1 -0.4,-0.4 -0.7,-0.9 -1,-1.5 -0.2,-0.6 -0.3,-1.1 -0.3,-1.8 v -18.1 c 0,-0.6 0.1,-1.2 0.3,-1.8 0.2,-0.6 0.6,-1 1,-1.4 0.4,-0.4 0.9,-0.7 1.5,-1 0.6,-0.2 1.1,-0.4 1.8,-0.4 z m -2.3,6.6 h -9.1 v 14 h 9.1 z"
             id="path40"
             inkscape:connector-curvature="0"
             style="fill:#353535" /><path
             d="m 158.5,234.4 c 0.1,0.2 0.1,0.3 0,0.4 -0.1,0.1 -0.2,0.2 -0.4,0.2 H 152 c -0.2,0 -0.4,-0.1 -0.6,-0.2 -0.2,-0.1 -0.4,-0.3 -0.5,-0.4 l -4.1,-7.4 c -0.1,-0.1 -0.1,-0.2 -0.3,-0.2 h -4.6 c -0.1,0 -0.2,0.1 -0.2,0.2 v 7.2 c 0,0.5 -0.2,0.7 -0.7,0.7 h -5.4 c -0.5,0 -0.7,-0.2 -0.7,-0.7 v -25.7 c 0,-0.5 0.2,-0.7 0.7,-0.7 h 17.6 c 0.6,0 1.2,0.1 1.8,0.4 0.6,0.2 1,0.6 1.4,1 0.4,0.4 0.7,0.9 1,1.4 0.2,0.6 0.4,1.1 0.4,1.8 v 10.2 c 0,1 -0.3,1.9 -0.9,2.7 -0.6,0.8 -1.3,1.3 -2.2,1.6 h -0.1 c -0.2,0.1 -0.2,0.1 -0.1,0.2 v 0.1 z m -7.7,-20.2 h -9.4 v 6.6 h 9.4 z"
             id="path42"
             inkscape:connector-curvature="0"
             style="fill:#353535" /><path
             d="m 195.2,228.4 c 0.2,0 0.4,0.1 0.5,0.2 0.1,0.1 0.2,0.3 0.2,0.5 v 5.1 c 0,0.2 -0.1,0.4 -0.2,0.5 -0.1,0.1 -0.3,0.2 -0.5,0.2 h -16.8 c -0.5,0 -0.7,-0.2 -0.7,-0.7 v -25.7 c 0,-0.5 0.2,-0.7 0.7,-0.7 h 5.4 c 0.5,0 0.7,0.2 0.7,0.7 v 19.2 c 0,0.2 0.1,0.4 0.2,0.5 0.1,0.1 0.3,0.2 0.5,0.2 z"
             id="path44"
             inkscape:connector-curvature="0"
             style="fill:#353535" /><path
             d="m 206.4,214.3 v 4.2 c 0,0.1 0.1,0.2 0.2,0.2 h 11.1 c 0.2,0 0.4,0.1 0.5,0.2 0.1,0.1 0.2,0.3 0.2,0.5 v 3.9 c 0,0.5 -0.2,0.7 -0.7,0.7 h -11.1 c -0.1,0 -0.2,0.1 -0.2,0.2 v 4.2 c 0,0.1 0.1,0.2 0.2,0.2 h 13 c 0.2,0 0.4,0.1 0.5,0.2 0.1,0.1 0.2,0.3 0.2,0.5 v 4.9 c 0,0.2 -0.1,0.4 -0.2,0.5 -0.1,0.1 -0.3,0.2 -0.5,0.2 h -15.5 c -0.6,0 -1.2,-0.1 -1.8,-0.4 -0.6,-0.2 -1,-0.6 -1.5,-1 -0.4,-0.4 -0.7,-0.9 -1,-1.5 -0.2,-0.6 -0.3,-1.1 -0.3,-1.8 v -18.1 c 0,-0.6 0.1,-1.2 0.3,-1.8 0.2,-0.6 0.6,-1 1,-1.4 0.4,-0.4 0.9,-0.7 1.5,-1 0.6,-0.2 1.1,-0.4 1.8,-0.4 h 15.5 c 0.2,0 0.4,0.1 0.5,0.2 0.1,0.1 0.2,0.3 0.2,0.5 v 4.9 c 0,0.2 -0.1,0.4 -0.2,0.5 -0.1,0.1 -0.3,0.2 -0.5,0.2 h -13 c -0.1,0.4 -0.2,0.4 -0.2,0.5 z"
             id="path46"
             inkscape:connector-curvature="0"
             style="fill:#353535" /><path
             d="m 244.8,207.8 c 0.6,0 1.2,0.1 1.8,0.4 0.6,0.2 1,0.6 1.4,1 0.4,0.4 0.7,0.9 1,1.4 0.2,0.6 0.4,1.1 0.4,1.8 v 21.9 c 0,0.2 -0.1,0.4 -0.2,0.5 -0.1,0.1 -0.3,0.2 -0.5,0.2 h -5.4 c -0.2,0 -0.4,-0.1 -0.5,-0.2 -0.1,-0.1 -0.2,-0.3 -0.2,-0.5 v -7 c 0,-0.2 -0.1,-0.4 -0.2,-0.5 -0.1,-0.1 -0.3,-0.2 -0.5,-0.2 H 234 c -0.2,0 -0.4,0.1 -0.5,0.2 -0.1,0.1 -0.2,0.3 -0.2,0.5 v 7 c 0,0.5 -0.2,0.7 -0.7,0.7 h -5.4 c -0.5,0 -0.7,-0.2 -0.7,-0.7 v -21.9 c 0,-0.6 0.1,-1.2 0.3,-1.8 0.2,-0.6 0.6,-1 1,-1.4 0.4,-0.4 0.9,-0.7 1.5,-1 0.6,-0.2 1.1,-0.4 1.8,-0.4 z m -2.4,13 V 214 h -9.1 v 6.8 z"
             id="path48"
             inkscape:connector-curvature="0"
             style="fill:#353535" /><path
             d="m 278,220.4 c 0.1,0.1 0.2,0.3 0.2,0.5 v 9.6 c 0,0.6 -0.1,1.2 -0.4,1.8 -0.2,0.6 -0.6,1 -1,1.5 -0.4,0.4 -0.9,0.7 -1.4,1 -0.6,0.2 -1.1,0.4 -1.8,0.4 h -13.7 c -0.6,0 -1.2,-0.1 -1.8,-0.4 -0.6,-0.2 -1,-0.6 -1.5,-1 -0.4,-0.4 -0.7,-0.9 -1,-1.5 -0.2,-0.6 -0.4,-1.1 -0.4,-1.8 v -18.1 c 0,-0.6 0.1,-1.2 0.4,-1.8 0.2,-0.6 0.6,-1 1,-1.4 0.4,-0.4 0.9,-0.7 1.5,-1 0.6,-0.2 1.1,-0.4 1.8,-0.4 h 16 c 0.2,0 0.4,0.1 0.5,0.2 0.1,0.1 0.2,0.3 0.2,0.5 v 5.1 c 0,0.2 -0.1,0.4 -0.2,0.5 -0.1,0.1 -0.3,0.2 -0.5,0.2 h -13 c -0.2,0 -0.4,0.1 -0.5,0.2 -0.1,0.1 -0.2,0.3 -0.2,0.5 v 12.6 c 0,0.2 0.1,0.4 0.2,0.5 0.1,0.1 0.3,0.2 0.5,0.2 h 7.7 c 0.2,0 0.4,-0.1 0.5,-0.2 0.1,-0.1 0.2,-0.3 0.2,-0.5 v -6.8 c 0,-0.2 0.1,-0.4 0.2,-0.5 0.1,-0.1 0.3,-0.2 0.5,-0.2 h 5.4 c 0.3,0.1 0.4,0.1 0.6,0.3 z"
             id="path50"
             inkscape:connector-curvature="0"
             style="fill:#353535" /><path
             d="m 306.7,208 c 0.1,0.1 0.2,0.3 0.2,0.5 v 21.9 c 0,0.6 -0.1,1.2 -0.4,1.8 -0.2,0.6 -0.6,1 -1,1.5 -0.4,0.4 -0.9,0.7 -1.4,1 -0.6,0.2 -1.1,0.4 -1.8,0.4 h -13.8 c -0.6,0 -1.2,-0.1 -1.8,-0.4 -0.6,-0.2 -1,-0.6 -1.5,-1 -0.4,-0.4 -0.7,-0.9 -1,-1.5 -0.2,-0.6 -0.3,-1.1 -0.3,-1.8 v -21.9 c 0,-0.5 0.2,-0.7 0.7,-0.7 h 5.4 c 0.5,0 0.7,0.2 0.7,0.7 v 19.2 c 0,0.2 0.1,0.4 0.2,0.5 0.1,0.1 0.3,0.2 0.5,0.2 h 7.7 c 0.2,0 0.4,-0.1 0.5,-0.2 0.1,-0.1 0.2,-0.3 0.2,-0.5 v -19.2 c 0,-0.2 0.1,-0.4 0.2,-0.5 0.1,-0.1 0.3,-0.2 0.5,-0.2 h 5.4 c 0.4,0 0.6,0.1 0.8,0.2 z"
             id="path52"
             inkscape:connector-curvature="0"
             style="fill:#353535" /><path
             d="m 319.7,214.3 v 4.2 c 0,0.1 0.1,0.2 0.2,0.2 H 331 c 0.2,0 0.4,0.1 0.5,0.2 0.1,0.1 0.2,0.3 0.2,0.5 v 3.9 c 0,0.5 -0.2,0.7 -0.7,0.7 h -11.1 c -0.1,0 -0.2,0.1 -0.2,0.2 v 4.2 c 0,0.1 0.1,0.2 0.2,0.2 h 13 c 0.2,0 0.4,0.1 0.5,0.2 0.1,0.1 0.2,0.3 0.2,0.5 v 4.9 c 0,0.2 -0.1,0.4 -0.2,0.5 -0.1,0.1 -0.3,0.2 -0.5,0.2 h -15.5 c -0.6,0 -1.2,-0.1 -1.8,-0.4 -0.6,-0.2 -1,-0.6 -1.5,-1 -0.4,-0.4 -0.7,-0.9 -1,-1.5 -0.2,-0.6 -0.3,-1.1 -0.3,-1.8 v -18.1 c 0,-0.6 0.1,-1.2 0.3,-1.8 0.2,-0.6 0.6,-1 1,-1.4 0.4,-0.4 0.9,-0.7 1.5,-1 0.6,-0.2 1.1,-0.4 1.8,-0.4 h 15.5 c 0.2,0 0.4,0.1 0.5,0.2 0.1,0.1 0.2,0.3 0.2,0.5 v 4.9 c 0,0.2 -0.1,0.4 -0.2,0.5 -0.1,0.1 -0.3,0.2 -0.5,0.2 h -13 c -0.1,0.4 -0.2,0.4 -0.2,0.5 z"
             id="path54"
             inkscape:connector-curvature="0"
             style="fill:#353535" /><path
             d="m 375.2,207.8 c 0.2,0 0.4,0.1 0.5,0.2 0.1,0.1 0.2,0.3 0.2,0.5 v 25.7 c 0,0.2 -0.1,0.4 -0.2,0.5 -0.1,0.1 -0.3,0.2 -0.5,0.2 h -5.4 c -0.2,0 -0.4,-0.1 -0.5,-0.2 -0.1,-0.1 -0.2,-0.3 -0.2,-0.5 v -9 c 0,-0.2 -0.1,-0.4 -0.2,-0.5 -0.1,-0.1 -0.3,-0.2 -0.5,-0.2 h -7.7 c -0.2,0 -0.4,0.1 -0.5,0.2 -0.1,0.1 -0.2,0.3 -0.2,0.5 v 9 c 0,0.5 -0.2,0.7 -0.7,0.7 h -5.4 c -0.5,0 -0.7,-0.2 -0.7,-0.7 v -25.7 c 0,-0.5 0.2,-0.7 0.7,-0.7 h 5.4 c 0.5,0 0.7,0.2 0.7,0.7 v 8.7 c 0,0.5 0.2,0.7 0.7,0.7 h 7.7 c 0.2,0 0.4,-0.1 0.5,-0.2 0.1,-0.1 0.2,-0.3 0.2,-0.5 v -8.7 c 0,-0.2 0.1,-0.4 0.2,-0.5 0.1,-0.1 0.3,-0.2 0.5,-0.2 z"
             id="path56"
             inkscape:connector-curvature="0"
             style="fill:#353535" /><path
             d="m 400.3,207.8 c 0.6,0 1.2,0.1 1.8,0.4 0.6,0.2 1,0.6 1.4,1 0.4,0.4 0.7,0.9 1,1.4 0.2,0.6 0.4,1.1 0.4,1.8 v 21.9 c 0,0.2 -0.1,0.4 -0.2,0.5 -0.1,0.1 -0.3,0.2 -0.5,0.2 h -5.4 c -0.2,0 -0.4,-0.1 -0.5,-0.2 -0.1,-0.1 -0.2,-0.3 -0.2,-0.5 v -7 c 0,-0.2 -0.1,-0.4 -0.2,-0.5 -0.1,-0.1 -0.3,-0.2 -0.5,-0.2 h -7.7 c -0.2,0 -0.4,0.1 -0.5,0.2 -0.1,0.1 -0.2,0.3 -0.2,0.5 v 7 c 0,0.5 -0.2,0.7 -0.7,0.7 h -5.4 c -0.5,0 -0.7,-0.2 -0.7,-0.7 v -21.9 c 0,-0.6 0.1,-1.2 0.3,-1.8 0.2,-0.6 0.6,-1 1,-1.4 0.4,-0.4 0.9,-0.7 1.5,-1 0.6,-0.2 1.1,-0.4 1.8,-0.4 z m -2.3,13 V 214 h -9.1 v 6.8 z"
             id="path58"
             inkscape:connector-curvature="0"
             style="fill:#353535" /><path
             d="m 417.9,214.6 c -0.1,0.1 -0.2,0.3 -0.2,0.5 v 12.6 c 0,0.2 0.1,0.4 0.2,0.5 0.1,0.1 0.3,0.2 0.5,0.2 h 12.5 c 0.2,0 0.4,0.1 0.5,0.2 0.1,0.1 0.2,0.3 0.2,0.5 v 5.1 c 0,0.2 -0.1,0.4 -0.2,0.5 -0.1,0.1 -0.3,0.2 -0.5,0.2 h -8.1 -6.7 -0.7 c -0.6,0 -1.2,-0.1 -1.8,-0.4 -0.6,-0.2 -1,-0.6 -1.5,-1 -0.4,-0.4 -0.7,-0.9 -1,-1.5 -0.2,-0.6 -0.3,-1.1 -0.3,-1.8 v -0.7 -2.8 -9 -2.5 -3 c 0,-0.6 0.1,-1.2 0.3,-1.8 0.2,-0.6 0.6,-1 1,-1.4 0.4,-0.4 0.9,-0.7 1.5,-1 0.6,-0.2 1.1,-0.4 1.8,-0.4 h 0.7 14.8 c 0.2,0 0.4,0.1 0.5,0.2 0.1,0.1 0.2,0.3 0.2,0.5 v 5.1 c 0,0.2 -0.1,0.4 -0.2,0.5 -0.1,0.1 -0.3,0.2 -0.5,0.2 h -12.5 c -0.1,0.3 -0.3,0.4 -0.5,0.5 z"
             id="path60"
             inkscape:connector-curvature="0"
             style="fill:#353535" /><path
             d="m 453.3,219.3 c -0.1,0.1 -0.1,0.2 0,0.3 l 9.1,14.8 c 0.1,0.2 0.1,0.3 0,0.4 -0.1,0.1 -0.2,0.2 -0.4,0.2 h -6.4 c -0.2,0 -0.4,-0.1 -0.6,-0.2 -0.2,-0.1 -0.4,-0.3 -0.5,-0.4 l -5.9,-10.6 c -0.1,-0.1 -0.1,-0.1 -0.2,0 l -3.2,3.5 c -0.1,0.1 -0.2,0.3 -0.3,0.6 -0.1,0.2 -0.1,0.5 -0.1,0.7 v 5.7 c 0,0.5 -0.2,0.7 -0.7,0.7 h -5.4 c -0.5,0 -0.7,-0.2 -0.7,-0.7 v -25.7 c 0,-0.5 0.2,-0.7 0.7,-0.7 h 5.4 c 0.5,0 0.7,0.2 0.7,0.7 v 11.5 l 10,-11.7 c 0.1,-0.2 0.3,-0.3 0.5,-0.4 0.2,-0.1 0.5,-0.2 0.7,-0.2 h 6.4 c 0.2,0 0.3,0.1 0.4,0.2 0,0.1 0,0.2 -0.1,0.4 z"
             id="path62"
             inkscape:connector-curvature="0"
             style="fill:#353535" /><path
             d="m 474.2,234.3 c 0,0.5 -0.2,0.7 -0.7,0.7 h -5.4 c -0.5,0 -0.7,-0.2 -0.7,-0.7 v -25.7 c 0,-0.5 0.2,-0.7 0.7,-0.7 h 5.4 c 0.5,0 0.7,0.2 0.7,0.7 z"
             id="path64"
             inkscape:connector-curvature="0"
             style="fill:#353535" /><path
             d="m 500.4,208.2 c 0.6,0.2 1,0.6 1.4,1 0.4,0.4 0.7,0.9 1,1.4 0.2,0.6 0.4,1.1 0.4,1.8 v 21.9 c 0,0.2 -0.1,0.4 -0.2,0.5 -0.1,0.1 -0.3,0.2 -0.5,0.2 H 497 c -0.2,0 -0.4,-0.1 -0.5,-0.2 -0.1,-0.1 -0.2,-0.3 -0.2,-0.5 v -19.1 c 0,-0.2 -0.1,-0.4 -0.2,-0.5 -0.1,-0.1 -0.3,-0.2 -0.5,-0.2 h -7.7 c -0.2,0 -0.4,0.1 -0.5,0.2 -0.1,0.1 -0.2,0.3 -0.2,0.5 v 19.1 c 0,0.5 -0.2,0.7 -0.7,0.7 h -5.4 c -0.5,0 -0.7,-0.2 -0.7,-0.7 v -25.7 c 0,-0.5 0.2,-0.7 0.7,-0.7 h 17.6 c 0.5,-0.1 1.1,0 1.7,0.3 z"
             id="path66"
             inkscape:connector-curvature="0"
             style="fill:#353535" /><path
             d="m 531.9,220.4 c 0.1,0.1 0.2,0.3 0.2,0.5 v 9.6 c 0,0.6 -0.1,1.2 -0.4,1.8 -0.2,0.6 -0.6,1 -1,1.5 -0.4,0.4 -0.9,0.7 -1.4,1 -0.6,0.2 -1.1,0.4 -1.8,0.4 h -13.8 c -0.6,0 -1.2,-0.1 -1.8,-0.4 -0.6,-0.2 -1,-0.6 -1.5,-1 -0.4,-0.4 -0.7,-0.9 -1,-1.5 -0.2,-0.6 -0.3,-1.1 -0.3,-1.8 v -18.1 c 0,-0.6 0.1,-1.2 0.3,-1.8 0.2,-0.6 0.6,-1 1,-1.4 0.4,-0.4 0.9,-0.7 1.5,-1 0.6,-0.2 1.1,-0.4 1.8,-0.4 h 16 c 0.2,0 0.4,0.1 0.5,0.2 0.1,0.1 0.2,0.3 0.2,0.5 v 5.1 c 0,0.2 -0.1,0.4 -0.2,0.5 -0.1,0.1 -0.3,0.2 -0.5,0.2 h -13 c -0.2,0 -0.4,0.1 -0.5,0.2 -0.1,0.1 -0.2,0.3 -0.2,0.5 v 12.6 c 0,0.2 0.1,0.4 0.2,0.5 0.1,0.1 0.3,0.2 0.5,0.2 h 7.7 c 0.2,0 0.4,-0.1 0.5,-0.2 0.1,-0.1 0.2,-0.3 0.2,-0.5 v -6.8 c 0,-0.2 0.1,-0.4 0.2,-0.5 0.1,-0.1 0.3,-0.2 0.5,-0.2 h 5.4 c 0.3,0.1 0.5,0.1 0.7,0.3 z"
             id="path68"
             inkscape:connector-curvature="0"
             style="fill:#353535" /></g></g></g></g><g
     id="Layer_14"
     transform="translate(-18,-14.9)"><g
       id="g128"><g
         id="g94"><path
           d="m 99.7,285.6 c 0,2.5 -0.9,4.4 -2.6,5.8 -1.7,1.3 -4.1,2 -7.3,2 h -4 v 10.8 H 84 v -26 h 6.4 c 6.2,-0.1 9.3,2.4 9.3,7.4 z m -13.8,6.2 h 3.6 c 2.9,0 5.1,-0.5 6.4,-1.5 1.3,-1 2,-2.5 2,-4.7 0,-2 -0.6,-3.5 -1.9,-4.5 -1.2,-1 -3.1,-1.5 -5.7,-1.5 H 86 v 12.2 z"
           id="path76"
           inkscape:connector-curvature="0"
           style="fill:#353535" /><path
           d="m 127.3,291.1 c 0,4.1 -1,7.4 -3.1,9.8 -2.1,2.4 -4.9,3.6 -8.5,3.6 -3.6,0 -6.5,-1.2 -8.5,-3.6 -2,-2.4 -3.1,-5.7 -3.1,-9.8 0,-4.1 1,-7.4 3.1,-9.8 2.1,-2.4 4.9,-3.6 8.5,-3.6 3.6,0 6.5,1.2 8.5,3.6 2,2.4 3.1,5.6 3.1,9.8 z m -21.3,0 c 0,3.7 0.8,6.6 2.5,8.6 1.7,2 4,3.1 7.2,3.1 3.1,0 5.5,-1 7.2,-3 1.7,-2 2.5,-4.9 2.5,-8.7 0,-3.8 -0.8,-6.6 -2.5,-8.6 -1.7,-2 -4,-3 -7.2,-3 -3.1,0 -5.5,1 -7.2,3 -1.7,2 -2.5,4.9 -2.5,8.6 z"
           id="path78"
           inkscape:connector-curvature="0"
           style="fill:#353535" /><path
           d="m 154,304.1 h -1.5 L 146.8,284 c -0.5,-1.6 -0.8,-3 -1.1,-4.1 -0.2,1 -0.5,2.2 -0.8,3.6 -0.4,1.3 -2.3,8.2 -5.7,20.6 h -1.5 l -7.2,-26 h 1.9 l 4.6,16.8 c 0.2,0.7 0.3,1.3 0.5,1.9 0.2,0.6 0.3,1.1 0.4,1.6 0.1,0.5 0.2,1 0.3,1.5 0.1,0.5 0.2,0.9 0.3,1.4 0.3,-1.6 0.9,-4.1 1.8,-7.4 l 4.5,-15.8 h 2 l 5.2,18.1 c 0.6,2.1 1,3.8 1.3,5.1 0.2,-0.9 0.4,-1.8 0.6,-2.7 0.2,-1 2.1,-7.8 5.5,-20.5 h 1.8 z"
           id="path80"
           inkscape:connector-curvature="0"
           style="fill:#353535" /><path
           d="m 180.1,304.1 h -14.2 v -26 h 14.2 v 1.7 h -12.4 v 9.8 h 11.7 v 1.7 h -11.7 v 11.2 h 12.4 z"
           id="path82"
           inkscape:connector-curvature="0"
           style="fill:#353535" /><path
           d="m 187.8,292.8 v 11.3 H 186 v -26 h 6.2 c 3.2,0 5.6,0.6 7.2,1.8 1.6,1.2 2.3,3 2.3,5.4 0,1.7 -0.5,3.2 -1.4,4.4 -0.9,1.2 -2.3,2.1 -4.2,2.6 l 7.1,11.9 H 201 l -6.7,-11.3 h -6.5 z m 0,-1.6 h 5 c 2.2,0 3.9,-0.5 5.1,-1.5 1.2,-1 1.8,-2.4 1.8,-4.3 0,-2 -0.6,-3.4 -1.8,-4.3 -1.2,-0.9 -3.1,-1.4 -5.8,-1.4 h -4.3 z"
           id="path84"
           inkscape:connector-curvature="0"
           style="fill:#353535" /><path
           d="m 221.8,304.1 h -14.2 v -26 h 14.2 v 1.7 h -12.4 v 9.8 h 11.7 v 1.7 h -11.7 v 11.2 h 12.4 z"
           id="path86"
           inkscape:connector-curvature="0"
           style="fill:#353535" /><path
           d="m 247.5,290.9 c 0,4.4 -1.1,7.7 -3.4,9.9 -2.3,2.2 -5.7,3.4 -10.1,3.4 h -6.2 v -26 h 7 c 4.2,0 7.3,1.1 9.5,3.3 2.2,2.2 3.2,5.2 3.2,9.4 z m -2,0 c 0,-3.7 -0.9,-6.5 -2.8,-8.4 -1.9,-1.9 -4.7,-2.8 -8.3,-2.8 h -4.8 v 22.8 h 4.3 c 7.7,0 11.6,-3.8 11.6,-11.6 z"
           id="path88"
           inkscape:connector-curvature="0"
           style="fill:#353535" /><path
           d="m 263,278.1 h 7.1 c 3.2,0 5.6,0.5 7.1,1.6 1.5,1.1 2.3,2.7 2.3,5 0,1.5 -0.5,2.8 -1.4,3.8 -0.9,1 -2.3,1.6 -4,1.9 v 0.1 c 2.1,0.3 3.6,1 4.6,2 1,1 1.5,2.4 1.5,4.2 0,2.4 -0.8,4.2 -2.4,5.5 -1.6,1.3 -3.8,1.9 -6.8,1.9 h -8 z m 1.8,11.6 h 5.7 c 2.4,0 4.2,-0.4 5.3,-1.2 1.1,-0.8 1.7,-2.1 1.7,-3.8 0,-1.7 -0.6,-3 -1.9,-3.8 -1.3,-0.8 -3.1,-1.2 -5.6,-1.2 h -5.3 v 10 z m 0,1.6 v 11.2 h 6.1 c 4.8,0 7.2,-2 7.2,-5.9 0,-3.6 -2.5,-5.4 -7.6,-5.4 h -5.7 z"
           id="path90"
           inkscape:connector-curvature="0"
           style="fill:#353535" /><path
           d="m 291.8,292.3 7.6,-14.2 h 2 l -8.7,16 v 10.1 h -1.9 v -9.9 l -8.7,-16.1 h 2.1 z"
           id="path92"
           inkscape:connector-curvature="0"
           style="fill:#353535" /></g><g
         id="g126"><g
           id="g104"><polygon
             points="397.9,268.8 399.2,268.8 399.2,316.5 397.9,316.5 "
             id="polygon96"
             style="fill:#adb2b7" /><g
             id="g102"><path
               d="m 358.7,271.4 c -5.9,0 -11.2,2.4 -15,6.2 v 0 c -3.8,3.9 -6.2,9.2 -6.2,15 v 0 c 0,5.9 2.4,11.2 6.2,15 v 0 c 3.9,3.8 9.2,6.2 15,6.2 v 0 c 5.9,0 11.2,-2.4 15,-6.2 v 0 c 3.8,-3.9 6.2,-9.2 6.2,-15 v 0 c 0,-5.9 -2.4,-11.2 -6.2,-15 v 0 c -3.9,-3.8 -9.2,-6.2 -15,-6.2 v 0 m 16.7,4.5 v 0 m -16.7,-7.1 c 13.2,0 23.9,10.7 23.9,23.9 v 0 c 0,13.2 -10.7,23.9 -23.9,23.9 v 0 c -13.2,0 -23.9,-10.7 -23.9,-23.9 v 0 c 0,-13.2 10.7,-23.9 23.9,-23.9 v 0 m -16.8,7.1 v 0"
               id="path98"
               inkscape:connector-curvature="0"
               style="fill:#0086cb" /><path
               d="m 347.4,292.5 c 0,-1.4 -0.9,-2.2 -2.2,-2.2 h -0.8 v 4.4 h 0.8 c 1.1,-0.1 2.2,-0.7 2.2,-2.2 z m 14.2,1.5 -5.9,4.6 -5.4,-4.2 c -0.8,1.9 -2.6,3.2 -4.8,3.2 h -4.6 v -10.3 h 4.6 c 2.4,0 4.2,1.5 4.8,3.2 l 5.4,-4.2 2,1.6 -4.9,3.9 0.9,0.7 4.9,-3.9 2,1.6 -4.9,3.9 0.9,0.7 4.9,-3.9 v -3.6 h 3.6 v 7.3 h 3.6 v 3 h -7.1 z m 11.7,0.6 h 3.6 v 3 h -7.1 v -10.3 h 3.6 v 7.3 z"
               id="path100"
               inkscape:connector-curvature="0"
               style="fill:#0086cb" /></g></g><g
           id="g124"><path
             d="m 440.7,306.8 c -10.9,1 -22.2,-0.6 -23.8,-9.1 -0.8,-4.2 1.1,-8.6 3.7,-11.4 v -1.5 c -4.6,4 -7,9.1 -5.6,15 1.8,7.7 11.5,12 26.4,10.6 5.9,-0.6 13.6,-2.5 18.9,-5.4 v -4.2 c -4.9,3 -12.9,5.4 -19.6,6 z m 28.7,-22 c -2.6,-12.6 -27,-13.4 -42.8,-3.8 v 1.1 c 15.7,-8.1 38.1,-8 40.1,3.6 0.7,3.8 -1.5,7.8 -5.3,10.1 v 3 c 4.6,-1.7 9.4,-7.2 8,-14 z"
             id="path106"
             inkscape:connector-curvature="0"
             style="fill:#007dc2" /><path
             d="m 459.4,283 h -2.9 v 12.7 c 0,1.5 0.7,2.8 2.9,3 z"
             id="path108"
             inkscape:connector-curvature="0"
             style="fill:#007dc2" /><path
             d="m 425.5,287.6 h -2.9 v 8.3 c 0,1.5 0.7,2.8 2.9,3 z"
             id="path110"
             inkscape:connector-curvature="0"
             style="fill:#007dc2" /><rect
             x="422.60001"
             y="283.39999"
             width="2.8"
             height="2.7"
             id="rect112"
             style="fill:#007dc2" /><path
             d="m 442.5,298.8 c -2.3,0 -3.3,-1.6 -3.3,-3.2 v -11 h 2.8 v 3 h 2.1 v 2.3 H 442 v 5.5 c 0,0.6 0.3,1 1,1 h 1.2 v 2.4 h -1.7"
             id="path114"
             inkscape:connector-curvature="0"
             style="fill:#007dc2" /><path
             d="m 447.7,294.1 c 0,1.4 0.9,2.5 2.5,2.5 1.3,0 1.9,-0.3 2.6,-1.1 l 1.7,1.7 c -1.1,1.1 -2.3,1.8 -4.4,1.8 -2.7,0 -5.3,-1.5 -5.3,-5.8 0,-3.7 2.3,-5.8 5.2,-5.8 3,0 4.8,2.4 4.8,5.6 v 1 h -7.1 m 2.3,-4.2 c -1,0 -1.7,0.5 -2,1.2 -0.2,0.4 -0.3,0.7 -0.3,1.2 h 4.4 c -0.1,-1.3 -0.6,-2.4 -2.1,-2.4 z"
             id="path116"
             inkscape:connector-curvature="0"
             style="fill:#007dc2" /><path
             d="m 433.2,289.9 c 0.8,0 1.2,0.4 1.2,1.1 v 7.8 h 2.8 V 291 c 0,-1.6 -0.8,-3.3 -3.3,-3.3 h -5.8 v 11.2 h 2.8 V 290 h 2.3 z"
             id="path118"
             inkscape:connector-curvature="0"
             style="fill:#007dc2" /><g
             id="g122"><path
               d="m 462.5,285.2 c -0.6,0 -1.1,-0.5 -1.1,-1.1 0,-0.6 0.5,-1.1 1.1,-1.1 0.6,0 1.1,0.5 1.1,1.1 0,0.6 -0.5,1.1 -1.1,1.1 z m 0,-2 c -0.5,0 -0.9,0.4 -0.9,0.9 0,0.5 0.4,0.9 0.9,0.9 0.5,0 0.9,-0.4 0.9,-0.9 0,-0.5 -0.4,-0.9 -0.9,-0.9 z m 0.5,1.6 h -0.2 c 0,0 0,0 0,0 l -0.3,-0.5 c 0,0 0,0 0,0 0,0 0,0 -0.1,0 0,0 0,0 0,0 v 0.5 c 0,0 0,0.1 0,0.1 H 462 c 0,0 0,0 0,-0.1 v -1.2 c 0,-0.1 0,-0.1 0.1,-0.1 0.1,0 0.2,0 0.3,0 0.4,0 0.6,0.1 0.6,0.4 v 0 c 0,0.2 -0.1,0.3 -0.3,0.4 l 0.3,0.5 c 0,-0.1 0,-0.1 0,0 0,0 0,0 0,0 z m -0.3,-1 c 0,-0.1 -0.1,-0.2 -0.3,-0.2 0,0 -0.1,0 -0.1,0 0,0 0,0 0,0 v 0.4 c 0,0 0.2,0 0.2,0 0.1,0 0.2,0 0.2,-0.2 z"
               id="path120"
               inkscape:connector-curvature="0"
               style="fill:#007dc2" /></g></g></g></g></g></svg>