<svg xmlns="http://www.w3.org/2000/svg" width="514.1" height="301.7"><g><path d="M508.5.4c1.3 0 2.5.5 3.4 1.4.9.9 1.4 2 1.4 3.4v165.5c0 1.3-.5 2.5-1.4 3.4-.9.9-2 1.4-3.4 1.4h-34.8c-1.3 0-2.5-.5-3.4-1.4-.9-.9-1.4-2-1.4-3.4v-57.8c0-1.3-.4-2.4-1.2-3.2-.8-.8-1.9-1.2-3.2-1.2h-48.7c-1.3 0-2.5.4-3.4 1.2-.9.8-1.4 1.9-1.4 3.2v57.8c0 3.2-1.6 4.8-4.8 4.8h-34.5c-3.2 0-4.8-1.6-4.8-4.8V5.1c0-3.2 1.6-4.8 4.8-4.8h34.5c3.2 0 4.8 1.6 4.8 4.8v56c0 3.2 1.6 4.8 4.8 4.8h48.7c1.3 0 2.4-.5 3.2-1.4.8-.9 1.2-2 1.2-3.4v-56c0-1.3.5-2.5 1.4-3.4.9-.9 2-1.4 3.4-1.4h34.8z" fill="#fdee00"/><path d="M411 112.9v57.7c0 3.2-1.6 4.8-4.8 4.8h-34.5c-3.2 0-4.8-1.6-4.8-4.8V5.1c0-3.2 1.6-4.8 4.8-4.8h34.5c3.2 0 4.8 1.6 4.8 4.8v107.8zM508.5.4c1.3 0 2.5.5 3.4 1.4.9.9 1.4 2 1.4 3.4v165.5c0 1.3-.5 2.5-1.4 3.4-.9.9-2 1.4-3.4 1.4h-34.8c-1.3 0-2.5-.5-3.4-1.4-.9-.9-1.4-2-1.4-3.4V113 5.1c0-1.3.5-2.5 1.4-3.4.9-.9 2-1.4 3.4-1.4h34.8z" fill="#ecc700"/><path d="M338 132.6c1.3 0 2.4.5 3.2 1.4.8.9 1.2 2 1.2 3.4v33c0 1.3-.4 2.5-1.2 3.4-.8.9-1.9 1.4-3.2 1.4H230c-3.2 0-4.8-1.6-4.8-4.8V4.8c0-3.2 1.6-4.8 4.8-4.8h34.5c3.2 0 4.8 1.6 4.8 4.8v123.3c0 1.3.5 2.4 1.4 3.2.9.8 2 1.2 3.4 1.2H338z" fill="#265a8f"/><path d="M269 175.1h-39c-3.2 0-4.8-1.6-4.8-4.8V4.8c0-3.2 1.6-4.8 4.8-4.8h34.5c3.2 0 4.8 1.6 4.8 4.8v123.3c0 1.3-.3 47-.3 47z" fill="#162f51"/><path d="M167.9 2.7c3.6 1.6 6.7 3.7 9.2 6.2 2.6 2.6 4.7 5.7 6.2 9.2 1.6 3.6 2.4 7.4 2.4 11.4v141c0 1.3-.5 2.5-1.4 3.4-.9.9-2 1.4-3.4 1.4h-34.8c-1.3 0-2.4-.5-3.2-1.4-.8-.9-1.2-2-1.2-3.4V42.9h-28v127.8c0 1.3-.4 2.5-1.2 3.4-.8.9-1.9 1.4-3.2 1.4H77.8c-1.3 0-2.5-.5-3.4-1.4-.9-.9-1.4-2-1.4-3.4V42.9H45v127.8c0 3.2-1.6 4.8-4.8 4.8H5.8c-3.2 0-4.8-1.6-4.8-4.8V5.1C1 1.9 2.6.3 5.8.3h150.8c3.9.1 7.7.9 11.3 2.4z" fill="#c53c02"/><path d="M167.9 2.7c3.6 1.6 6.7 3.7 9.2 6.2 2.6 2.6 4.7 5.7 6.2 9.2 1.6 3.6 2.4 7.4 2.4 11.4v13l-44 .3H45l-44-.3V5.1C1 1.9 2.6.3 5.8.3h150.8c3.9.1 7.7.9 11.3 2.4z" fill="#751b00"/><g fill="#353535"><path d="M25.9 193.3c.6.2 1 .6 1.4 1 .4.4.7.9 1 1.4.2.6.4 1.1.4 1.8v21.9c0 .2-.1.4-.2.5-.1.1-.3.2-.5.2h-5.4c-.2 0-.4-.1-.5-.2-.1-.1-.2-.3-.2-.5v-19.8h-4.4v19.8c0 .2-.1.4-.2.5-.1.1-.3.2-.5.2h-4.9c-.2 0-.4-.1-.5-.2-.1-.1-.2-.3-.2-.5v-19.8H6.8v19.8c0 .5-.2.7-.7.7H.7c-.5 0-.7-.2-.7-.7v-25.7c0-.5.2-.7.7-.7h23.4c.6-.1 1.2 0 1.8.3zM53 192.9c.6 0 1.2.1 1.8.4.6.2 1 .6 1.4 1 .4.4.7.9 1 1.4.2.6.4 1.1.4 1.8v21.9c0 .2-.1.4-.2.5-.1.1-.3.2-.5.2h-5.4c-.2 0-.4-.1-.5-.2-.1-.1-.2-.3-.2-.5v-7c0-.2-.1-.4-.2-.5-.1-.1-.3-.2-.5-.2h-7.7c-.2 0-.4.1-.5.2-.1.1-.2.3-.2.5v7c0 .5-.2.7-.7.7h-5.4c-.5 0-.7-.2-.7-.7v-21.9c0-.6.1-1.2.3-1.8.2-.6.6-1 1-1.4.4-.4.9-.7 1.5-1 .6-.2 1.1-.4 1.8-.4zm-2.3 13v-6.8h-9.1v6.8zM82 193.1c.1.1.2.3.2.5v21.9c0 .6-.1 1.2-.4 1.8-.2.6-.6 1-1 1.5-.4.4-.9.7-1.4 1-.6.2-1.1.4-1.8.4H66c-.6 0-1.2-.1-1.8-.4-.6-.2-1-.6-1.5-1-.4-.4-.7-.9-1-1.5-.2-.6-.4-1.1-.4-1.8v-8.3c0-.5.2-.7.7-.7h5.4c.5 0 .7.2.7.7v5.6c0 .2.1.4.2.5.1.1.3.2.5.2h5.6c.2 0 .4-.1.5-.2.1-.1.2-.3.2-.5v-19.2c0-.2.1-.4.2-.5.1-.1.3-.2.5-.2h5.4c.5 0 .7.1.8.2zM106.6 192.9c.6 0 1.2.1 1.8.4.6.2 1 .6 1.4 1 .4.4.7.9 1 1.4.2.6.4 1.1.4 1.8v18.1c0 .6-.1 1.2-.4 1.8-.2.6-.6 1-1 1.5-.4.4-.9.7-1.4 1-.6.2-1.1.4-1.8.4H92.8c-.6 0-1.2-.1-1.8-.4-.6-.2-1-.6-1.5-1-.4-.4-.7-.9-1-1.5-.2-.6-.3-1.1-.3-1.8v-18.1c0-.6.1-1.2.3-1.8.2-.6.6-1 1-1.4.4-.4.9-.7 1.5-1 .6-.2 1.1-.4 1.8-.4zm-2.3 6.6h-9.1v14h9.1zM140.5 219.5c.1.2.1.3 0 .4-.1.1-.2.2-.4.2H134c-.2 0-.4-.1-.6-.2-.2-.1-.4-.3-.5-.4l-4.1-7.4c-.1-.1-.1-.2-.3-.2h-4.6c-.1 0-.2.1-.2.2v7.2c0 .5-.2.7-.7.7h-5.4c-.5 0-.7-.2-.7-.7v-25.7c0-.5.2-.7.7-.7h17.6c.6 0 1.2.1 1.8.4.6.2 1 .6 1.4 1 .4.4.7.9 1 1.4.2.6.4 1.1.4 1.8v10.2c0 1-.3 1.9-.9 2.7-.6.8-1.3 1.3-2.2 1.6h-.1c-.2.1-.2.1-.1.2v.1zm-7.7-20.2h-9.4v6.6h9.4zM177.2 213.5c.2 0 .4.1.5.2.1.1.2.3.2.5v5.1c0 .2-.1.4-.2.5-.1.1-.3.2-.5.2h-16.8c-.5 0-.7-.2-.7-.7v-25.7c0-.5.2-.7.7-.7h5.4c.5 0 .7.2.7.7v19.2c0 .2.1.4.2.5.1.1.3.2.5.2zM188.4 199.4v4.2c0 .1.1.2.2.2h11.1c.2 0 .4.1.5.2.1.1.2.3.2.5v3.9c0 .5-.2.7-.7.7h-11.1c-.1 0-.2.1-.2.2v4.2c0 .1.1.2.2.2h13c.2 0 .4.1.5.2.1.1.2.3.2.5v4.9c0 .2-.1.4-.2.5-.1.1-.3.2-.5.2h-15.5c-.6 0-1.2-.1-1.8-.4-.6-.2-1-.6-1.5-1-.4-.4-.7-.9-1-1.5-.2-.6-.3-1.1-.3-1.8v-18.1c0-.6.1-1.2.3-1.8.2-.6.6-1 1-1.4.4-.4.9-.7 1.5-1 .6-.2 1.1-.4 1.8-.4h15.5c.2 0 .4.1.5.2.1.1.2.3.2.5v4.9c0 .2-.1.4-.2.5-.1.1-.3.2-.5.2h-13c-.1.4-.2.4-.2.5zM226.8 192.9c.6 0 1.2.1 1.8.4.6.2 1 .6 1.4 1 .4.4.7.9 1 1.4.2.6.4 1.1.4 1.8v21.9c0 .2-.1.4-.2.5-.1.1-.3.2-.5.2h-5.4c-.2 0-.4-.1-.5-.2-.1-.1-.2-.3-.2-.5v-7c0-.2-.1-.4-.2-.5-.1-.1-.3-.2-.5-.2H216c-.2 0-.4.1-.5.2-.1.1-.2.3-.2.5v7c0 .5-.2.7-.7.7h-5.4c-.5 0-.7-.2-.7-.7v-21.9c0-.6.1-1.2.3-1.8.2-.6.6-1 1-1.4.4-.4.9-.7 1.5-1 .6-.2 1.1-.4 1.8-.4zm-2.4 13v-6.8h-9.1v6.8zM260 205.5c.1.1.2.3.2.5v9.6c0 .6-.1 1.2-.4 1.8-.2.6-.6 1-1 1.5-.4.4-.9.7-1.4 1-.6.2-1.1.4-1.8.4h-13.7c-.6 0-1.2-.1-1.8-.4-.6-.2-1-.6-1.5-1-.4-.4-.7-.9-1-1.5-.2-.6-.4-1.1-.4-1.8v-18.1c0-.6.1-1.2.4-1.8.2-.6.6-1 1-1.4.4-.4.9-.7 1.5-1 .6-.2 1.1-.4 1.8-.4h16c.2 0 .4.1.5.2.1.1.2.3.2.5v5.1c0 .2-.1.4-.2.5-.1.1-.3.2-.5.2h-13c-.2 0-.4.1-.5.2-.1.1-.2.3-.2.5v12.6c0 .2.1.4.2.5.1.1.3.2.5.2h7.7c.2 0 .4-.1.5-.2.1-.1.2-.3.2-.5v-6.8c0-.2.1-.4.2-.5.1-.1.3-.2.5-.2h5.4c.3.1.4.1.6.3zM288.7 193.1c.1.1.2.3.2.5v21.9c0 .6-.1 1.2-.4 1.8-.2.6-.6 1-1 1.5-.4.4-.9.7-1.4 1-.6.2-1.1.4-1.8.4h-13.8c-.6 0-1.2-.1-1.8-.4-.6-.2-1-.6-1.5-1-.4-.4-.7-.9-1-1.5-.2-.6-.3-1.1-.3-1.8v-21.9c0-.5.2-.7.7-.7h5.4c.5 0 .7.2.7.7v19.2c0 .2.1.4.2.5.1.1.3.2.5.2h7.7c.2 0 .4-.1.5-.2.1-.1.2-.3.2-.5v-19.2c0-.2.1-.4.2-.5.1-.1.3-.2.5-.2h5.4c.4 0 .6.1.8.2zM301.7 199.4v4.2c0 .1.1.2.2.2H313c.2 0 .4.1.5.2.1.1.2.3.2.5v3.9c0 .5-.2.7-.7.7h-11.1c-.1 0-.2.1-.2.2v4.2c0 .1.1.2.2.2h13c.2 0 .4.1.5.2.1.1.2.3.2.5v4.9c0 .2-.1.4-.2.5-.1.1-.3.2-.5.2h-15.5c-.6 0-1.2-.1-1.8-.4-.6-.2-1-.6-1.5-1-.4-.4-.7-.9-1-1.5-.2-.6-.3-1.1-.3-1.8v-18.1c0-.6.1-1.2.3-1.8.2-.6.6-1 1-1.4.4-.4.9-.7 1.5-1 .6-.2 1.1-.4 1.8-.4h15.5c.2 0 .4.1.5.2.1.1.2.3.2.5v4.9c0 .2-.1.4-.2.5-.1.1-.3.2-.5.2h-13c-.1.4-.2.4-.2.5zM357.2 192.9c.2 0 .4.1.5.2.1.1.2.3.2.5v25.7c0 .2-.1.4-.2.5-.1.1-.3.2-.5.2h-5.4c-.2 0-.4-.1-.5-.2-.1-.1-.2-.3-.2-.5v-9c0-.2-.1-.4-.2-.5-.1-.1-.3-.2-.5-.2h-7.7c-.2 0-.4.1-.5.2-.1.1-.2.3-.2.5v9c0 .5-.2.7-.7.7h-5.4c-.5 0-.7-.2-.7-.7v-25.7c0-.5.2-.7.7-.7h5.4c.5 0 .7.2.7.7v8.7c0 .5.2.7.7.7h7.7c.2 0 .4-.1.5-.2.1-.1.2-.3.2-.5v-8.7c0-.2.1-.4.2-.5.1-.1.3-.2.5-.2zM382.3 192.9c.6 0 1.2.1 1.8.4.6.2 1 .6 1.4 1 .4.4.7.9 1 1.4.2.6.4 1.1.4 1.8v21.9c0 .2-.1.4-.2.5-.1.1-.3.2-.5.2h-5.4c-.2 0-.4-.1-.5-.2-.1-.1-.2-.3-.2-.5v-7c0-.2-.1-.4-.2-.5-.1-.1-.3-.2-.5-.2h-7.7c-.2 0-.4.1-.5.2-.1.1-.2.3-.2.5v7c0 .5-.2.7-.7.7h-5.4c-.5 0-.7-.2-.7-.7v-21.9c0-.6.1-1.2.3-1.8.2-.6.6-1 1-1.4.4-.4.9-.7 1.5-1 .6-.2 1.1-.4 1.8-.4zm-2.3 13v-6.8h-9.1v6.8zM399.9 199.7c-.1.1-.2.3-.2.5v12.6c0 .2.1.4.2.5.1.1.3.2.5.2h12.5c.2 0 .4.1.5.2.1.1.2.3.2.5v5.1c0 .2-.1.4-.2.5-.1.1-.3.2-.5.2h-15.5c-.6 0-1.2-.1-1.8-.4-.6-.2-1-.6-1.5-1-.4-.4-.7-.9-1-1.5-.2-.6-.3-1.1-.3-1.8v-18c0-.6.1-1.2.3-1.8.2-.6.6-1 1-1.4.4-.4.9-.7 1.5-1 .6-.2 1.1-.4 1.8-.4h15.5c.2 0 .4.1.5.2.1.1.2.3.2.5v5.1c0 .2-.1.4-.2.5-.1.1-.3.2-.5.2h-12.5c-.1.3-.3.4-.5.5zM435.3 204.4c-.1.1-.1.2 0 .3l9.1 14.8c.1.2.1.3 0 .4-.1.1-.2.2-.4.2h-6.4c-.2 0-.4-.1-.6-.2-.2-.1-.4-.3-.5-.4l-5.9-10.6c-.1-.1-.1-.1-.2 0l-3.2 3.5c-.1.1-.2.3-.3.6-.1.2-.1.5-.1.7v5.7c0 .5-.2.7-.7.7h-5.4c-.5 0-.7-.2-.7-.7v-25.7c0-.5.2-.7.7-.7h5.4c.5 0 .7.2.7.7v11.5l10-11.7c.1-.2.3-.3.5-.4.2-.1.5-.2.7-.2h6.4c.2 0 .3.1.4.2 0 .1 0 .2-.1.4zM456.2 219.4c0 .5-.2.7-.7.7h-5.4c-.5 0-.7-.2-.7-.7v-25.7c0-.5.2-.7.7-.7h5.4c.5 0 .7.2.7.7zM482.4 193.3c.6.2 1 .6 1.4 1 .4.4.7.9 1 1.4.2.6.4 1.1.4 1.8v21.9c0 .2-.1.4-.2.5-.1.1-.3.2-.5.2H479c-.2 0-.4-.1-.5-.2-.1-.1-.2-.3-.2-.5v-19.1c0-.2-.1-.4-.2-.5-.1-.1-.3-.2-.5-.2h-7.7c-.2 0-.4.1-.5.2-.1.1-.2.3-.2.5v19.1c0 .5-.2.7-.7.7h-5.4c-.5 0-.7-.2-.7-.7v-25.7c0-.5.2-.7.7-.7h17.6c.5-.1 1.1 0 1.7.3zM513.9 205.5c.1.1.2.3.2.5v9.6c0 .6-.1 1.2-.4 1.8-.2.6-.6 1-1 1.5-.4.4-.9.7-1.4 1-.6.2-1.1.4-1.8.4h-13.8c-.6 0-1.2-.1-1.8-.4-.6-.2-1-.6-1.5-1-.4-.4-.7-.9-1-1.5-.2-.6-.3-1.1-.3-1.8v-18.1c0-.6.1-1.2.3-1.8.2-.6.6-1 1-1.4.4-.4.9-.7 1.5-1 .6-.2 1.1-.4 1.8-.4h16c.2 0 .4.1.5.2.1.1.2.3.2.5v5.1c0 .2-.1.4-.2.5-.1.1-.3.2-.5.2h-13c-.2 0-.4.1-.5.2-.1.1-.2.3-.2.5v12.6c0 .2.1.4.2.5.1.1.3.2.5.2h7.7c.2 0 .4-.1.5-.2.1-.1.2-.3.2-.5v-6.8c0-.2.1-.4.2-.5.1-.1.3-.2.5-.2h5.4c.3.1.5.1.7.3z"/></g></g><g><g fill="#353535"><path d="M81.7 270.7c0 2.5-.9 4.4-2.6 5.8-1.7 1.3-4.1 2-7.3 2h-4v10.8H66v-26h6.4c6.2-.1 9.3 2.4 9.3 7.4zm-13.8 6.2h3.6c2.9 0 5.1-.5 6.4-1.5 1.3-1 2-2.5 2-4.7 0-2-.6-3.5-1.9-4.5-1.2-1-3.1-1.5-5.7-1.5H68v12.2zM109.3 276.2c0 4.1-1 7.4-3.1 9.8-2.1 2.4-4.9 3.6-8.5 3.6-3.6 0-6.5-1.2-8.5-3.6-2-2.4-3.1-5.7-3.1-9.8 0-4.1 1-7.4 3.1-9.8 2.1-2.4 4.9-3.6 8.5-3.6 3.6 0 6.5 1.2 8.5 3.6 2 2.4 3.1 5.6 3.1 9.8zm-21.3 0c0 3.7.8 6.6 2.5 8.6s4 3.1 7.2 3.1c3.1 0 5.5-1 7.2-3 1.7-2 2.5-4.9 2.5-8.7 0-3.8-.8-6.6-2.5-8.6s-4-3-7.2-3c-3.1 0-5.5 1-7.2 3-1.7 2-2.5 4.9-2.5 8.6zM136 289.2h-1.5l-5.7-20.1c-.5-1.6-.8-3-1.1-4.1-.2 1-.5 2.2-.8 3.6-.4 1.3-2.3 8.2-5.7 20.6h-1.5l-7.2-26h1.9L119 280c.2.7.3 1.3.5 1.9.2.6.3 1.1.4 1.6l.3 1.5c.1.5.2.9.3 1.4.3-1.6.9-4.1 1.8-7.4l4.5-15.8h2l5.2 18.1c.6 2.1 1 3.8 1.3 5.1l.6-2.7c.2-1 2.1-7.8 5.5-20.5h1.8zM162.1 289.2h-14.2v-26h14.2v1.7h-12.4v9.8h11.7v1.7h-11.7v11.2h12.4zM169.8 277.9v11.3H168v-26h6.2c3.2 0 5.6.6 7.2 1.8 1.6 1.2 2.3 3 2.3 5.4 0 1.7-.5 3.2-1.4 4.4-.9 1.2-2.3 2.1-4.2 2.6l7.1 11.9H183l-6.7-11.3h-6.5zm0-1.6h5c2.2 0 3.9-.5 5.1-1.5 1.2-1 1.8-2.4 1.8-4.3 0-2-.6-3.4-1.8-4.3-1.2-.9-3.1-1.4-5.8-1.4h-4.3zM203.8 289.2h-14.2v-26h14.2v1.7h-12.4v9.8h11.7v1.7h-11.7v11.2h12.4zM229.5 276c0 4.4-1.1 7.7-3.4 9.9s-5.7 3.4-10.1 3.4h-6.2v-26h7c4.2 0 7.3 1.1 9.5 3.3 2.2 2.2 3.2 5.2 3.2 9.4zm-2 0c0-3.7-.9-6.5-2.8-8.4-1.9-1.9-4.7-2.8-8.3-2.8h-4.8v22.8h4.3c7.7 0 11.6-3.8 11.6-11.6zM245 263.2h7.1c3.2 0 5.6.5 7.1 1.6s2.3 2.7 2.3 5c0 1.5-.5 2.8-1.4 3.8-.9 1-2.3 1.6-4 1.9v.1c2.1.3 3.6 1 4.6 2 1 1 1.5 2.4 1.5 4.2 0 2.4-.8 4.2-2.4 5.5-1.6 1.3-3.8 1.9-6.8 1.9h-8zm1.8 11.6h5.7c2.4 0 4.2-.4 5.3-1.2 1.1-.8 1.7-2.1 1.7-3.8 0-1.7-.6-3-1.9-3.8-1.3-.8-3.1-1.2-5.6-1.2h-5.3v10zm0 1.6v11.2h6.1c4.8 0 7.2-2 7.2-5.9 0-3.6-2.5-5.4-7.6-5.4h-5.7zM273.8 277.4l7.6-14.2h2l-8.7 16v10.1h-1.9v-9.9l-8.7-16.1h2.1z"/></g><path fill="#adb2b7" d="M379.9 253.9h1.3v47.7h-1.3z"/><g fill="#0086cb"><path d="M340.7 256.5c-5.9 0-11.2 2.4-15 6.2-3.8 3.9-6.2 9.2-6.2 15 0 5.9 2.4 11.2 6.2 15 3.9 3.8 9.2 6.2 15 6.2 5.9 0 11.2-2.4 15-6.2 3.8-3.9 6.2-9.2 6.2-15 0-5.9-2.4-11.2-6.2-15-3.9-3.8-9.2-6.2-15-6.2M340.7 253.9c13.2 0 23.9 10.7 23.9 23.9s-10.7 23.9-23.9 23.9-23.9-10.7-23.9-23.9 10.7-23.9 23.9-23.9m-16.8 7.1"/><path d="M329.4 277.6c0-1.4-.9-2.2-2.2-2.2h-.8v4.4h.8c1.1-.1 2.2-.7 2.2-2.2zm14.2 1.5l-5.9 4.6-5.4-4.2c-.8 1.9-2.6 3.2-4.8 3.2h-4.6v-10.3h4.6c2.4 0 4.2 1.5 4.8 3.2l5.4-4.2 2 1.6-4.9 3.9.9.7 4.9-3.9 2 1.6-4.9 3.9.9.7 4.9-3.9v-3.6h3.6v7.3h3.6v3h-7.1zm11.7.6h3.6v3h-7.1v-10.3h3.6v7.3z"/></g><g><path d="M422.7 291.9c-10.9 1-22.2-.6-23.8-9.1-.8-4.2 1.1-8.6 3.7-11.4v-1.5c-4.6 4-7 9.1-5.6 15 1.8 7.7 11.5 12 26.4 10.6 5.9-.6 13.6-2.5 18.9-5.4v-4.2c-4.9 3-12.9 5.4-19.6 6zm28.7-22c-2.6-12.6-27-13.4-42.8-3.8v1.1c15.7-8.1 38.1-8 40.1 3.6.7 3.8-1.5 7.8-5.3 10.1v3c4.6-1.7 9.4-7.2 8-14z" fill="#007dc2"/><path d="M441.4 268.1h-2.9v12.7c0 1.5.7 2.8 2.9 3zM407.5 272.7h-2.9v8.3c0 1.5.7 2.8 2.9 3zM404.6 268.5h2.8v2.7h-2.8zM424.5 283.9c-2.3 0-3.3-1.6-3.3-3.2v-11h2.8v3h2.1v2.3H424v5.5c0 .6.3 1 1 1h1.2v2.4h-1.7M429.7 279.2c0 1.4.9 2.5 2.5 2.5 1.3 0 1.9-.3 2.6-1.1l1.7 1.7c-1.1 1.1-2.3 1.8-4.4 1.8-2.7 0-5.3-1.5-5.3-5.8 0-3.7 2.3-5.8 5.2-5.8 3 0 4.8 2.4 4.8 5.6v1h-7.1m2.3-4.2c-1 0-1.7.5-2 1.2-.2.4-.3.7-.3 1.2h4.4c-.1-1.3-.6-2.4-2.1-2.4zM415.2 275c.8 0 1.2.4 1.2 1.1v7.8h2.8v-7.8c0-1.6-.8-3.3-3.3-3.3h-5.8V284h2.8v-8.9h2.3zM444.5 270.3c-.6 0-1.1-.5-1.1-1.1 0-.6.5-1.1 1.1-1.1.6 0 1.1.5 1.1 1.1 0 .6-.5 1.1-1.1 1.1zm0-2c-.5 0-.9.4-.9.9s.4.9.9.9.9-.4.9-.9-.4-.9-.9-.9zm.5 1.6h-.2l-.3-.5h-.1v.6h-.4v-1.3c0-.1 0-.1.1-.1h.3c.4 0 .6.1.6.4 0 .2-.1.3-.3.4l.3.5c0-.1 0-.1 0 0zm-.3-1c0-.1-.1-.2-.3-.2h-.1v.4h.2c.1 0 .2 0 .2-.2z" fill="#007dc2"/></g></g></svg>