<svg xmlns="http://www.w3.org/2000/svg" viewBox="0 0 550 326"><g><path fill="#FDEE00" d="M526.5 15.3c1.3 0 2.5.5 3.4 1.4.9.9 1.4 2 1.4 3.4v165.5c0 1.3-.5 2.5-1.4 3.4-.9.9-2 1.4-3.4 1.4h-34.8c-1.3 0-2.5-.5-3.4-1.4-.9-.9-1.4-2-1.4-3.4v-57.8c0-1.3-.4-2.4-1.2-3.2-.8-.8-1.9-1.2-3.2-1.2h-48.7c-1.3 0-2.5.4-3.4 1.2-.9.8-1.4 1.9-1.4 3.2v57.8c0 3.2-1.6 4.8-4.8 4.8h-34.5c-3.2 0-4.8-1.6-4.8-4.8V20c0-3.2 1.6-4.8 4.8-4.8h34.5c3.2 0 4.8 1.6 4.8 4.8v56c0 3.2 1.6 4.8 4.8 4.8h48.7c1.3 0 2.4-.5 3.2-1.4.8-.9 1.2-2 1.2-3.4V20c0-1.3.5-2.5 1.4-3.4.9-.9 2-1.4 3.4-1.4h34.8z"/><path fill="#ECC700" d="M429 127.8v57.7c0 3.2-1.6 4.8-4.8 4.8h-34.5c-3.2 0-4.8-1.6-4.8-4.8V20c0-3.2 1.6-4.8 4.8-4.8h34.5c3.2 0 4.8 1.6 4.8 4.8v107.8zM526.5 15.3c1.3 0 2.5.5 3.4 1.4.9.9 1.4 2 1.4 3.4v165.5c0 1.3-.5 2.5-1.4 3.4-.9.9-2 1.4-3.4 1.4h-34.8c-1.3 0-2.5-.5-3.4-1.4-.9-.9-1.4-2-1.4-3.4v-57.7V20c0-1.3.5-2.5 1.4-3.4.9-.9 2-1.4 3.4-1.4h34.8z"/><path fill="#265A8F" d="M356 147.5c1.3 0 2.4.5 3.2 1.4.8.9 1.2 2 1.2 3.4v33c0 1.3-.4 2.5-1.2 3.4-.8.9-1.9 1.4-3.2 1.4H248c-3.2 0-4.8-1.6-4.8-4.8V19.7c0-3.2 1.6-4.8 4.8-4.8h34.5c3.2 0 4.8 1.6 4.8 4.8V143c0 1.3.5 2.4 1.4 3.2.9.8 2 1.2 3.4 1.2H356z"/><path fill="#162F51" d="M287 190h-39c-3.2 0-4.8-1.6-4.8-4.8V19.7c0-3.2 1.6-4.8 4.8-4.8h34.5c3.2 0 4.8 1.6 4.8 4.8V143c0 1.3-.3 47-.3 47z"/><path fill="#C53C02" d="M185.9 17.6c3.6 1.6 6.7 3.7 9.2 6.2 2.6 2.6 4.7 5.7 6.2 9.2 1.6 3.6 2.4 7.4 2.4 11.4v141c0 1.3-.5 2.5-1.4 3.4-.9.9-2 1.4-3.4 1.4h-34.8c-1.3 0-2.4-.5-3.2-1.4-.8-.9-1.2-2-1.2-3.4V57.8h-28v127.8c0 1.3-.4 2.5-1.2 3.4-.8.9-1.9 1.4-3.2 1.4H95.8c-1.3 0-2.5-.5-3.4-1.4-.9-.9-1.4-2-1.4-3.4V57.8H63v127.8c0 3.2-1.6 4.8-4.8 4.8H23.8c-3.2 0-4.8-1.6-4.8-4.8V20c0-3.2 1.6-4.8 4.8-4.8h150.8c3.9.1 7.7.9 11.3 2.4z"/><path fill="#751B00" d="M185.9 17.6c3.6 1.6 6.7 3.7 9.2 6.2 2.6 2.6 4.7 5.7 6.2 9.2 1.6 3.6 2.4 7.4 2.4 11.4v13l-44 .3H63l-44-.3V20c0-3.2 1.6-4.8 4.8-4.8h150.8c3.9.1 7.7.9 11.3 2.4z"/><g fill="#353535"><path d="M43.9 208.2c.6.2 1 .6 1.4 1 .4.4.7.9 1 1.4.2.6.4 1.1.4 1.8v21.9c0 .2-.1.4-.2.5-.1.1-.3.2-.5.2h-5.4c-.2 0-.4-.1-.5-.2-.1-.1-.2-.3-.2-.5v-19.8h-4.4v19.8c0 .2-.1.4-.2.5-.1.1-.3.2-.5.2h-4.9c-.2 0-.4-.1-.5-.2-.1-.1-.2-.3-.2-.5v-19.8h-4.4v19.8c0 .5-.2.7-.7.7h-5.4c-.5 0-.7-.2-.7-.7v-25.7c0-.5.2-.7.7-.7h23.4c.6-.1 1.2 0 1.8.3zM71 207.8c.6 0 1.2.1 1.8.4.6.2 1 .6 1.4 1 .4.4.7.9 1 1.4.2.6.4 1.1.4 1.8v21.9c0 .2-.1.4-.2.5-.1.1-.3.2-.5.2h-5.4c-.2 0-.4-.1-.5-.2-.1-.1-.2-.3-.2-.5v-7c0-.2-.1-.4-.2-.5-.1-.1-.3-.2-.5-.2h-7.7c-.2 0-.4.1-.5.2-.1.1-.2.3-.2.5v7c0 .5-.2.7-.7.7h-5.4c-.5 0-.7-.2-.7-.7v-21.9c0-.6.1-1.2.3-1.8.2-.6.6-1 1-1.4.4-.4.9-.7 1.5-1 .6-.2 1.1-.4 1.8-.4H71zm-2.3 13V214h-9.1v6.8h9.1zM100 208c.1.1.2.3.2.5v21.9c0 .6-.1 1.2-.4 1.8-.2.6-.6 1-1 1.5-.4.4-.9.7-1.4 1-.6.2-1.1.4-1.8.4H84c-.6 0-1.2-.1-1.8-.4-.6-.2-1-.6-1.5-1-.4-.4-.7-.9-1-1.5-.2-.6-.4-1.1-.4-1.8v-8.3c0-.5.2-.7.7-.7h5.4c.5 0 .7.2.7.7v5.6c0 .2.1.4.2.5.1.1.3.2.5.2h5.6c.2 0 .4-.1.5-.2.1-.1.2-.3.2-.5v-19.2c0-.2.1-.4.2-.5.1-.1.3-.2.5-.2h5.4c.5 0 .7.1.8.2zM124.6 207.8c.6 0 1.2.1 1.8.4.6.2 1 .6 1.4 1 .4.4.7.9 1 1.4.2.6.4 1.1.4 1.8v18.1c0 .6-.1 1.2-.4 1.8-.2.6-.6 1-1 1.5-.4.4-.9.7-1.4 1-.6.2-1.1.4-1.8.4h-13.8c-.6 0-1.2-.1-1.8-.4-.6-.2-1-.6-1.5-1-.4-.4-.7-.9-1-1.5-.2-.6-.3-1.1-.3-1.8v-18.1c0-.6.1-1.2.3-1.8.2-.6.6-1 1-1.4.4-.4.9-.7 1.5-1 .6-.2 1.1-.4 1.8-.4h13.8zm-2.3 6.6h-9.1v14h9.1v-14zM158.5 234.4c.1.2.1.3 0 .4-.1.1-.2.2-.4.2H152c-.2 0-.4-.1-.6-.2-.2-.1-.4-.3-.5-.4l-4.1-7.4c-.1-.1-.1-.2-.3-.2h-4.6c-.1 0-.2.1-.2.2v7.2c0 .5-.2.7-.7.7h-5.4c-.5 0-.7-.2-.7-.7v-25.7c0-.5.2-.7.7-.7h17.6c.6 0 1.2.1 1.8.4.6.2 1 .6 1.4 1 .4.4.7.9 1 1.4.2.6.4 1.1.4 1.8v10.2c0 1-.3 1.9-.9 2.7-.6.8-1.3 1.3-2.2 1.6h-.1c-.2.1-.2.1-.1.2v.1l4 7.2zm-7.7-20.2h-9.4v6.6h9.4v-6.6zM195.2 228.4c.2 0 .4.1.5.2.1.1.2.3.2.5v5.1c0 .2-.1.4-.2.5-.1.1-.3.2-.5.2h-16.8c-.5 0-.7-.2-.7-.7v-25.7c0-.5.2-.7.7-.7h5.4c.5 0 .7.2.7.7v19.2c0 .2.1.4.2.5.1.1.3.2.5.2h10zM206.4 214.3v4.2c0 .1.1.2.2.2h11.1c.2 0 .4.1.5.2.1.1.2.3.2.5v3.9c0 .5-.2.7-.7.7h-11.1c-.1 0-.2.1-.2.2v4.2c0 .1.1.2.2.2h13c.2 0 .4.1.5.2.1.1.2.3.2.5v4.9c0 .2-.1.4-.2.5-.1.1-.3.2-.5.2h-15.5c-.6 0-1.2-.1-1.8-.4-.6-.2-1-.6-1.5-1-.4-.4-.7-.9-1-1.5-.2-.6-.3-1.1-.3-1.8v-18.1c0-.6.1-1.2.3-1.8.2-.6.6-1 1-1.4.4-.4.9-.7 1.5-1 .6-.2 1.1-.4 1.8-.4h15.5c.2 0 .4.1.5.2.1.1.2.3.2.5v4.9c0 .2-.1.4-.2.5-.1.1-.3.2-.5.2h-13c-.1.4-.2.4-.2.5zM244.8 207.8c.6 0 1.2.1 1.8.4.6.2 1 .6 1.4 1 .4.4.7.9 1 1.4.2.6.4 1.1.4 1.8v21.9c0 .2-.1.4-.2.5-.1.1-.3.2-.5.2h-5.4c-.2 0-.4-.1-.5-.2-.1-.1-.2-.3-.2-.5v-7c0-.2-.1-.4-.2-.5-.1-.1-.3-.2-.5-.2H234c-.2 0-.4.1-.5.2-.1.1-.2.3-.2.5v7c0 .5-.2.7-.7.7h-5.4c-.5 0-.7-.2-.7-.7v-21.9c0-.6.1-1.2.3-1.8.2-.6.6-1 1-1.4.4-.4.9-.7 1.5-1 .6-.2 1.1-.4 1.8-.4h13.7zm-2.4 13V214h-9.1v6.8h9.1zM278 220.4c.1.1.2.3.2.5v9.6c0 .6-.1 1.2-.4 1.8-.2.6-.6 1-1 1.5-.4.4-.9.7-1.4 1-.6.2-1.1.4-1.8.4h-13.7c-.6 0-1.2-.1-1.8-.4-.6-.2-1-.6-1.5-1-.4-.4-.7-.9-1-1.5-.2-.6-.4-1.1-.4-1.8v-18.1c0-.6.1-1.2.4-1.8.2-.6.6-1 1-1.4.4-.4.9-.7 1.5-1 .6-.2 1.1-.4 1.8-.4h16c.2 0 .4.1.5.2.1.1.2.3.2.5v5.1c0 .2-.1.4-.2.5-.1.1-.3.2-.5.2h-13c-.2 0-.4.1-.5.2-.1.1-.2.3-.2.5v12.6c0 .2.1.4.2.5.1.1.3.2.5.2h7.7c.2 0 .4-.1.5-.2.1-.1.2-.3.2-.5v-6.8c0-.2.1-.4.2-.5.1-.1.3-.2.5-.2h5.4c.3.1.4.1.6.3zM306.7 208c.1.1.2.3.2.5v21.9c0 .6-.1 1.2-.4 1.8-.2.6-.6 1-1 1.5-.4.4-.9.7-1.4 1-.6.2-1.1.4-1.8.4h-13.8c-.6 0-1.2-.1-1.8-.4-.6-.2-1-.6-1.5-1-.4-.4-.7-.9-1-1.5-.2-.6-.3-1.1-.3-1.8v-21.9c0-.5.2-.7.7-.7h5.4c.5 0 .7.2.7.7v19.2c0 .2.1.4.2.5.1.1.3.2.5.2h7.7c.2 0 .4-.1.5-.2.1-.1.2-.3.2-.5v-19.2c0-.2.1-.4.2-.5.1-.1.3-.2.5-.2h5.4c.4 0 .6.1.8.2zM319.7 214.3v4.2c0 .1.1.2.2.2H331c.2 0 .4.1.5.2.1.1.2.3.2.5v3.9c0 .5-.2.7-.7.7h-11.1c-.1 0-.2.1-.2.2v4.2c0 .1.1.2.2.2h13c.2 0 .4.1.5.2.1.1.2.3.2.5v4.9c0 .2-.1.4-.2.5-.1.1-.3.2-.5.2h-15.5c-.6 0-1.2-.1-1.8-.4-.6-.2-1-.6-1.5-1-.4-.4-.7-.9-1-1.5-.2-.6-.3-1.1-.3-1.8v-18.1c0-.6.1-1.2.3-1.8.2-.6.6-1 1-1.4.4-.4.9-.7 1.5-1 .6-.2 1.1-.4 1.8-.4h15.5c.2 0 .4.1.5.2.1.1.2.3.2.5v4.9c0 .2-.1.4-.2.5-.1.1-.3.2-.5.2h-13c-.1.4-.2.4-.2.5zM375.2 207.8c.2 0 .4.1.5.2.1.1.2.3.2.5v25.7c0 .2-.1.4-.2.5-.1.1-.3.2-.5.2h-5.4c-.2 0-.4-.1-.5-.2-.1-.1-.2-.3-.2-.5v-9c0-.2-.1-.4-.2-.5-.1-.1-.3-.2-.5-.2h-7.7c-.2 0-.4.1-.5.2-.1.1-.2.3-.2.5v9c0 .5-.2.7-.7.7h-5.4c-.5 0-.7-.2-.7-.7v-25.7c0-.5.2-.7.7-.7h5.4c.5 0 .7.2.7.7v8.7c0 .5.2.7.7.7h7.7c.2 0 .4-.1.5-.2.1-.1.2-.3.2-.5v-8.7c0-.2.1-.4.2-.5.1-.1.3-.2.5-.2h5.4zM400.3 207.8c.6 0 1.2.1 1.8.4.6.2 1 .6 1.4 1 .4.4.7.9 1 1.4.2.6.4 1.1.4 1.8v21.9c0 .2-.1.4-.2.5-.1.1-.3.2-.5.2h-5.4c-.2 0-.4-.1-.5-.2-.1-.1-.2-.3-.2-.5v-7c0-.2-.1-.4-.2-.5-.1-.1-.3-.2-.5-.2h-7.7c-.2 0-.4.1-.5.2-.1.1-.2.3-.2.5v7c0 .5-.2.7-.7.7h-5.4c-.5 0-.7-.2-.7-.7v-21.9c0-.6.1-1.2.3-1.8.2-.6.6-1 1-1.4.4-.4.9-.7 1.5-1 .6-.2 1.1-.4 1.8-.4h13.5zm-2.3 13V214h-9.1v6.8h9.1zM417.9 214.6c-.1.1-.2.3-.2.5v12.6c0 .2.1.4.2.5.1.1.3.2.5.2h12.5c.2 0 .4.1.5.2.1.1.2.3.2.5v5.1c0 .2-.1.4-.2.5-.1.1-.3.2-.5.2h-15.5c-.6 0-1.2-.1-1.8-.4-.6-.2-1-.6-1.5-1-.4-.4-.7-.9-1-1.5-.2-.6-.3-1.1-.3-1.8v-18c0-.6.1-1.2.3-1.8.2-.6.6-1 1-1.4.4-.4.9-.7 1.5-1 .6-.2 1.1-.4 1.8-.4h15.5c.2 0 .4.1.5.2.1.1.2.3.2.5v5.1c0 .2-.1.4-.2.5-.1.1-.3.2-.5.2h-12.5c-.1.3-.3.4-.5.5zM453.3 219.3c-.1.1-.1.2 0 .3l9.1 14.8c.1.2.1.3 0 .4-.1.1-.2.2-.4.2h-6.4c-.2 0-.4-.1-.6-.2-.2-.1-.4-.3-.5-.4l-5.9-10.6c-.1-.1-.1-.1-.2 0l-3.2 3.5c-.1.1-.2.3-.3.6-.1.2-.1.5-.1.7v5.7c0 .5-.2.7-.7.7h-5.4c-.5 0-.7-.2-.7-.7v-25.7c0-.5.2-.7.7-.7h5.4c.5 0 .7.2.7.7v11.5l10-11.7c.1-.2.3-.3.5-.4.2-.1.5-.2.7-.2h6.4c.2 0 .3.1.4.2 0 .1 0 .2-.1.4l-9.4 10.9zM474.2 234.3c0 .5-.2.7-.7.7h-5.4c-.5 0-.7-.2-.7-.7v-25.7c0-.5.2-.7.7-.7h5.4c.5 0 .7.2.7.7v25.7zM500.4 208.2c.6.2 1 .6 1.4 1 .4.4.7.9 1 1.4.2.6.4 1.1.4 1.8v21.9c0 .2-.1.4-.2.5-.1.1-.3.2-.5.2H497c-.2 0-.4-.1-.5-.2-.1-.1-.2-.3-.2-.5v-19.1c0-.2-.1-.4-.2-.5-.1-.1-.3-.2-.5-.2h-7.7c-.2 0-.4.1-.5.2-.1.1-.2.3-.2.5v19.1c0 .5-.2.7-.7.7h-5.4c-.5 0-.7-.2-.7-.7v-25.7c0-.5.2-.7.7-.7h17.6c.5-.1 1.1 0 1.7.3zM531.9 220.4c.1.1.2.3.2.5v9.6c0 .6-.1 1.2-.4 1.8-.2.6-.6 1-1 1.5-.4.4-.9.7-1.4 1-.6.2-1.1.4-1.8.4h-13.8c-.6 0-1.2-.1-1.8-.4-.6-.2-1-.6-1.5-1-.4-.4-.7-.9-1-1.5-.2-.6-.3-1.1-.3-1.8v-18.1c0-.6.1-1.2.3-1.8.2-.6.6-1 1-1.4.4-.4.9-.7 1.5-1 .6-.2 1.1-.4 1.8-.4h16c.2 0 .4.1.5.2.1.1.2.3.2.5v5.1c0 .2-.1.4-.2.5-.1.1-.3.2-.5.2h-13c-.2 0-.4.1-.5.2-.1.1-.2.3-.2.5v12.6c0 .2.1.4.2.5.1.1.3.2.5.2h7.7c.2 0 .4-.1.5-.2.1-.1.2-.3.2-.5v-6.8c0-.2.1-.4.2-.5.1-.1.3-.2.5-.2h5.4c.3.1.5.1.7.3z"/></g></g><g><g fill="#353535"><path d="M99.7 285.6c0 2.5-.9 4.4-2.6 5.8-1.7 1.3-4.1 2-7.3 2h-4v10.8H84v-26h6.4c6.2-.1 9.3 2.4 9.3 7.4zm-13.8 6.2h3.6c2.9 0 5.1-.5 6.4-1.5s2-2.5 2-4.7c0-2-.6-3.5-1.9-4.5-1.2-1-3.1-1.5-5.7-1.5H86v12.2zM127.3 291.1c0 4.1-1 7.4-3.1 9.8s-4.9 3.6-8.5 3.6c-3.6 0-6.5-1.2-8.5-3.6s-3.1-5.7-3.1-9.8c0-4.1 1-7.4 3.1-9.8 2.1-2.4 4.9-3.6 8.5-3.6 3.6 0 6.5 1.2 8.5 3.6s3.1 5.6 3.1 9.8zm-21.3 0c0 3.7.8 6.6 2.5 8.6s4 3.1 7.2 3.1c3.1 0 5.5-1 7.2-3 1.7-2 2.5-4.9 2.5-8.7 0-3.8-.8-6.6-2.5-8.6s-4-3-7.2-3c-3.1 0-5.5 1-7.2 3s-2.5 4.9-2.5 8.6zM154 304.1h-1.5l-5.7-20.1c-.5-1.6-.8-3-1.1-4.1-.2 1-.5 2.2-.8 3.6-.4 1.3-2.3 8.2-5.7 20.6h-1.5l-7.2-26h1.9l4.6 16.8c.2.7.3 1.3.5 1.9.2.6.3 1.1.4 1.6l.3 1.5c.1.5.2.9.3 1.4.3-1.6.9-4.1 1.8-7.4l4.5-15.8h2l5.2 18.1c.6 2.1 1 3.8 1.3 5.1l.6-2.7c.2-1 2.1-7.8 5.5-20.5h1.8l-7.2 26zM180.1 304.1h-14.2v-26h14.2v1.7h-12.4v9.8h11.7v1.7h-11.7v11.2h12.4v1.6zM187.8 292.8v11.3H186v-26h6.2c3.2 0 5.6.6 7.2 1.8s2.3 3 2.3 5.4c0 1.7-.5 3.2-1.4 4.4-.9 1.2-2.3 2.1-4.2 2.6l7.1 11.9H201l-6.7-11.3h-6.5zm0-1.6h5c2.2 0 3.9-.5 5.1-1.5s1.8-2.4 1.8-4.3c0-2-.6-3.4-1.8-4.3-1.2-.9-3.1-1.4-5.8-1.4h-4.3v11.5zM221.8 304.1h-14.2v-26h14.2v1.7h-12.4v9.8h11.7v1.7h-11.7v11.2h12.4v1.6zM247.5 290.9c0 4.4-1.1 7.7-3.4 9.9s-5.7 3.4-10.1 3.4h-6.2v-26h7c4.2 0 7.3 1.1 9.5 3.3s3.2 5.2 3.2 9.4zm-2 0c0-3.7-.9-6.5-2.8-8.4-1.9-1.9-4.7-2.8-8.3-2.8h-4.8v22.8h4.3c7.7 0 11.6-3.8 11.6-11.6zM263 278.1h7.1c3.2 0 5.6.5 7.1 1.6s2.3 2.7 2.3 5c0 1.5-.5 2.8-1.4 3.8-.9 1-2.3 1.6-4 1.9v.1c2.1.3 3.6 1 4.6 2 1 1 1.5 2.4 1.5 4.2 0 2.4-.8 4.2-2.4 5.5-1.6 1.3-3.8 1.9-6.8 1.9h-8v-26zm1.8 11.6h5.7c2.4 0 4.2-.4 5.3-1.2 1.1-.8 1.7-2.1 1.7-3.8 0-1.7-.6-3-1.9-3.8-1.3-.8-3.1-1.2-5.6-1.2h-5.3v10zm0 1.6v11.2h6.1c4.8 0 7.2-2 7.2-5.9 0-3.6-2.5-5.4-7.6-5.4h-5.7zM291.8 292.3l7.6-14.2h2l-8.7 16v10.1h-1.9v-9.9l-8.7-16.1h2.1l7.6 14.1z"/></g><path fill="#ADB2B7" d="M399.2 316.5h-1.3v-47.7h1.3v47.7z"/><g fill="#0086CB"><path d="M358.7 271.4c-5.9 0-11.2 2.4-15 6.2-3.8 3.9-6.2 9.2-6.2 15 0 5.9 2.4 11.2 6.2 15 3.9 3.8 9.2 6.2 15 6.2 5.9 0 11.2-2.4 15-6.2 3.8-3.9 6.2-9.2 6.2-15 0-5.9-2.4-11.2-6.2-15-3.9-3.8-9.2-6.2-15-6.2M358.7 268.8c13.2 0 23.9 10.7 23.9 23.9s-10.7 23.9-23.9 23.9-23.9-10.7-23.9-23.9 10.7-23.9 23.9-23.9m-16.8 7.1"/><path d="M347.4 292.5c0-1.4-.9-2.2-2.2-2.2h-.8v4.4h.8c1.1-.1 2.2-.7 2.2-2.2zm14.2 1.5l-5.9 4.6-5.4-4.2c-.8 1.9-2.6 3.2-4.8 3.2h-4.6v-10.3h4.6c2.4 0 4.2 1.5 4.8 3.2l5.4-4.2 2 1.6-4.9 3.9.9.7 4.9-3.9 2 1.6-4.9 3.9.9.7 4.9-3.9v-3.6h3.6v7.3h3.6v3h-7.1V294zm11.7.6h3.6v3h-7.1v-10.3h3.6v7.3h-.1z"/></g><g><path fill="#007DC2" d="M440.7 306.8c-10.9 1-22.2-.6-23.8-9.1-.8-4.2 1.1-8.6 3.7-11.4v-1.5c-4.6 4-7 9.1-5.6 15 1.8 7.7 11.5 12 26.4 10.6 5.9-.6 13.6-2.5 18.9-5.4v-4.2c-4.9 3-12.9 5.4-19.6 6zm28.7-22c-2.6-12.6-27-13.4-42.8-3.8v1.1c15.7-8.1 38.1-8 40.1 3.6.7 3.8-1.5 7.8-5.3 10.1v3c4.6-1.7 9.4-7.2 8-14z"/><path fill="#007DC2" d="M459.4 283h-2.9v12.7c0 1.5.7 2.8 2.9 3V283zM425.5 287.6h-2.9v8.3c0 1.5.7 2.8 2.9 3v-11.3zM422.6 283.4h2.8v2.7h-2.8zM442.5 298.8c-2.3 0-3.3-1.6-3.3-3.2v-11h2.8v3h2.1v2.3H442v5.5c0 .6.3 1 1 1h1.2v2.4h-1.7M447.7 294.1c0 1.4.9 2.5 2.5 2.5 1.3 0 1.9-.3 2.6-1.1l1.7 1.7c-1.1 1.1-2.3 1.8-4.4 1.8-2.7 0-5.3-1.5-5.3-5.8 0-3.7 2.3-5.8 5.2-5.8 3 0 4.8 2.4 4.8 5.6v1h-7.1m2.3-4.2c-1 0-1.7.5-2 1.2-.2.4-.3.7-.3 1.2h4.4c-.1-1.3-.6-2.4-2.1-2.4zM433.2 289.9c.8 0 1.2.4 1.2 1.1v7.8h2.8V291c0-1.6-.8-3.3-3.3-3.3h-5.8v11.2h2.8V290h2.3zM462.5 285.2c-.6 0-1.1-.5-1.1-1.1 0-.6.5-1.1 1.1-1.1.6 0 1.1.5 1.1 1.1 0 .6-.5 1.1-1.1 1.1zm0-2c-.5 0-.9.4-.9.9s.4.9.9.9.9-.4.9-.9-.4-.9-.9-.9zm.5 1.6h-.2l-.3-.5h-.1v.6h-.4v-1.3c0-.1 0-.1.1-.1h.3c.4 0 .6.1.6.4 0 .2-.1.3-.3.4l.3.5c0-.1 0-.1 0 0zm-.3-1c0-.1-.1-.2-.3-.2h-.1v.4h.2c.1 0 .2 0 .2-.2z"/></g></g></svg>