<svg xmlns="http://www.w3.org/2000/svg" width="610.824" height="466.802"><path d="M426.37 223.86c-11.41 0-20.96 9.288-20.96 20.96 0 11.673 9.55 20.96 20.96 20.96 11.674 0 20.96-9.287 20.96-20.96 0-11.672-9.286-20.96-20.96-20.96M270.828 282.865c-33.203 0-63.805 24.483-63.805 59.368 0 37.335 26.777 63.652 63.805 63.652 37.03 0 63.807-26.317 63.807-63.652 0-34.885-30.603-59.368-63.807-59.368m0 93.948c-17.901 0-32.59-14.535-32.59-34.426 0-15.914 14.689-30.45 32.59-30.45 17.903 0 32.592 14.536 32.592 30.45 0 19.891-14.69 34.426-32.592 34.426" fill="#545454" stroke-width=".1"/><path d="M270.828 282.865c-33.203 0-63.805 24.483-63.805 59.368 0 37.335 26.777 63.652 63.805 63.652 37.03 0 63.807-26.317 63.807-63.652 0-34.885-30.603-59.368-63.807-59.368m0 93.948c-17.901 0-32.59-14.535-32.59-34.426 0-15.914 14.689-30.45 32.59-30.45 17.903 0 32.592 14.536 32.592 30.45 0 19.891-14.69 34.426-32.592 34.426" fill="none" stroke="#545454" stroke-miterlimit="10" stroke-width="1.33333"/><path d="M526.73 282.865c-33.203 0-63.806 24.483-63.806 59.368 0 37.335 26.777 63.652 63.805 63.652 37.03 0 63.807-26.317 63.807-63.652 0-34.885-30.603-59.368-63.807-59.368m0 93.948c-17.901 0-32.59-14.535-32.59-34.426 0-15.914 14.689-30.45 32.59-30.45 17.903 0 32.592 14.536 32.592 30.45 0 19.891-14.689 34.426-32.592 34.426" fill="#545454" stroke-width=".1"/><path d="M526.73 282.865c-33.203 0-63.806 24.483-63.806 59.368 0 37.335 26.777 63.652 63.805 63.652 37.03 0 63.807-26.317 63.807-63.652 0-34.885-30.603-59.368-63.807-59.368m0 93.948c-17.901 0-32.59-14.535-32.59-34.426 0-15.914 14.689-30.45 32.59-30.45 17.903 0 32.592 14.536 32.592 30.45 0 19.891-14.689 34.426-32.592 34.426" fill="none" stroke="#545454" stroke-miterlimit="10" stroke-width="1.33333"/><path d="M384.375 284.055h-29.718c-1.856 0-3.448 1.328-3.448 3.184v128.124c0 13.53-2.918 18.837-11.674 24.144-2.387 1.593-1.858 3.183 0 5.305l20.165 20.43c1.856 1.857 3.979 2.387 7.693-.266 11.143-7.959 20.166-18.57 20.166-42.45V287.238c0-1.856-1.328-3.184-3.184-3.184M442 284.055h-29.715c-1.858 0-3.449 1.328-3.449 3.184v115.388c0 1.858 1.59 3.449 3.45 3.449H442c1.859 0 3.184-1.59 3.184-3.45V287.24c0-1.856-1.325-3.184-3.184-3.184M133.668 283.145c-15.912 0-28.93 2.84-38.466 9.23-9.574-6.39-22.658-9.23-38.688-9.23C21.227 283.145 0 296.941 0 333.024v68.453c0 1.856 1.326 3.184 3.184 3.184h29.718c1.857 0 3.446-1.328 3.446-3.184v-63.941c0-16.452 7.166-23.613 20.166-23.613 13.265 0 20.43 7.161 20.43 23.613v63.941c0 1.856 1.327 3.184 3.181 3.184h29.931c1.858 0 3.448-1.328 3.448-3.184v-63.941c0-16.452 7.164-23.613 20.164-23.613 13.265 0 20.43 7.161 20.43 23.613v63.941c0 1.856 1.329 3.184 3.18 3.184h29.718c1.86 0 3.45-1.328 3.45-3.184v-68.453c0-36.083-21.226-49.879-56.778-49.879M448.444 111.143l-15.88-15.759 44.984-44.59zm-17.55 36.312a22.079 22.079 0 0 0-4.715-.52c-1.762 0-3.472.213-5.114.605l-13.194-27.677 18.276-18.118 18.145 18.007zm-4.715 34.402c-7.138 0-12.944-5.806-12.944-12.942 0-7.138 5.806-12.944 12.944-12.944 7.137 0 12.942 5.806 12.942 12.944 0 7.136-5.805 12.942-12.942 12.942zm65.508-171.712c7.137 0 12.944 5.807 12.944 12.944 0 7.138-5.807 12.944-12.944 12.944-7.138 0-12.944-5.806-12.944-12.944 0-7.137 5.806-12.944 12.944-12.944zM295.68 238.264c-7.137 0-12.943-5.805-12.943-12.943 0-7.137 5.806-12.944 12.943-12.944s12.944 5.807 12.944 12.944c0 7.138-5.807 12.943-12.944 12.943zm28.193-106.419a7.723 7.723 0 1 1 0 15.446 7.723 7.723 0 0 1 0-15.446zm203.678 0a7.724 7.724 0 1 1-.002 15.444 7.724 7.724 0 0 1 .002-15.444zm3.404 61.18l-75.727-75.149 35.133-72.85c.439.025.88.042 1.326.042.148 0 .294-.008.442-.01l26.611 80.814c-.297.19-.584.393-.868.603-.459.337-.897.698-1.317 1.082a16.26 16.26 0 0 0-3.34 4.235 16.118 16.118 0 0 0-1.958 7.728c0 2.799.71 5.43 1.958 7.728a16.297 16.297 0 0 0 7.945 7.212 16.166 16.166 0 0 0 6.312 1.273c.365 0 .723-.03 1.083-.054l10.757 32.673a31.051 31.051 0 0 1 8.896-1.875l-11.16-33.894c.247-.182.501-.356.737-.552a16.18 16.18 0 0 0 5.9-12.511c0-4.744-2.049-8.999-5.297-11.963-2.883-2.632-6.705-4.25-10.916-4.25l-.063.002-26.44-80.297c7.499-3.5 12.696-11.103 12.696-19.923 0-12.138-9.84-21.978-21.978-21.978-12.139 0-21.979 9.84-21.979 21.978 0 6.282 2.639 11.943 6.864 15.95L426.151 89.02l-39.984-39.68a31.112 31.112 0 0 1-6.427 6.353l39.993 39.688-15.981 15.843-25.872-54.267a30.64 30.64 0 0 1-8.276 3.638l27.35 57.368-89.551 88.77a21.761 21.761 0 0 0-1.05-.625l16.603-50.423c.321.019.637.048.963.048 3.918 0 7.51-1.389 10.313-3.702a16.228 16.228 0 0 0 2.199-2.198 16.152 16.152 0 0 0 3.701-10.313 16.152 16.152 0 0 0-4.748-11.465 16.363 16.363 0 0 0-1.865-1.58c-.252-.186-.504-.37-.767-.54L354.2 60.799a30.657 30.657 0 0 1-8.387-3.424l-21.712 65.941c-.061-.001-.121-.01-.182-.01-8.955 0-16.214 7.26-16.214 16.214 0 5.41 2.662 10.19 6.735 13.136l-16.721 50.784c-.671-.063-1.351-.099-2.039-.099-12.139 0-21.979 9.842-21.979 21.98 0 12.139 9.84 21.979 21.979 21.979s21.98-9.84 21.98-21.979c0-4.558-1.388-8.792-3.764-12.302l87.177-86.418 11.824 24.803c-5.284 4.015-8.698 10.363-8.698 17.51 0 12.14 9.841 21.98 21.98 21.98 12.138 0 21.978-9.84 21.978-21.98 0-7.285-3.56-13.723-9.017-17.722l11.936-24.708 73.624 73.064a31.542 31.542 0 0 1 6.255-6.523" fill="#545454" stroke-width=".1"/><path d="M550.159 238.307c-11.367 0-20.616-9.247-20.616-20.614 0-11.368 9.249-20.616 20.616-20.616 11.366 0 20.614 9.248 20.614 20.616 0 11.367-9.248 20.614-20.614 20.614zm0-51.896c-.656 0-1.306.026-1.951.066a31.051 31.051 0 0 0-8.896 1.875 31.23 31.23 0 0 0-8.357 4.673 31.542 31.542 0 0 0-6.255 6.523 31.102 31.102 0 0 0-5.824 18.145c0 17.248 14.033 31.28 31.283 31.28 17.248 0 31.281-14.032 31.281-31.28 0-17.249-14.033-31.282-31.281-31.282" fill="#ff7f00" stroke-width=".1"/><path d="M341.333 30.84c0-11.124 9.051-20.173 20.175-20.173 11.123 0 20.173 9.049 20.173 20.173 0 11.124-9.05 20.175-20.173 20.175-11.124 0-20.175-9.051-20.175-20.175zm20.175 30.841c2.801 0 5.515-.382 8.096-1.086a30.64 30.64 0 0 0 8.276-3.638 31.112 31.112 0 0 0 8.287-7.617 30.683 30.683 0 0 0 6.181-18.5c0-17.005-13.835-30.84-30.84-30.84-17.007 0-30.841 13.835-30.841 30.84 0 11.277 6.088 21.156 15.146 26.535a30.782 30.782 0 0 0 15.695 4.307" fill="#00baf2" stroke-width=".1"/><path d="M602.343 291.997c.642 0 1.166-.14 1.57-.421.404-.279.606-.683.606-1.21v-.05c0-.479-.186-.863-.556-1.15-.372-.29-.887-.433-1.546-.433h-2.696v3.264zm-3.982-4.501h4.106a4.5 4.5 0 0 1 1.569.26c.47.173.855.408 1.15.705.231.214.413.47.545.767.132.296.197.633.197 1.013v.05c0 .742-.223 1.334-.668 1.78-.445.445-1.013.75-1.705.914l2.844 3.686h-1.682l-2.646-3.463H599.72v3.463h-1.36zm3.487 13.033c1.17 0 2.25-.218 3.239-.656a8.32 8.32 0 0 0 2.585-1.768 8.14 8.14 0 0 0 2.337-5.763v-.049c0-1.12-.206-2.176-.618-3.164a8.022 8.022 0 0 0-1.707-2.585 8.11 8.11 0 0 0-2.57-1.743 7.998 7.998 0 0 0-3.215-.644c-1.155 0-2.231.219-3.228.656a8.266 8.266 0 0 0-2.598 1.768 8.062 8.062 0 0 0-1.718 2.598 8.138 8.138 0 0 0-.619 3.164v.05c0 1.12.207 2.176.619 3.164.412.991.981 1.851 1.706 2.586a8.11 8.11 0 0 0 2.571 1.742c.99.43 2.063.644 3.216.644zm0 .766c-1.253 0-2.423-.234-3.512-.704a8.923 8.923 0 0 1-2.832-1.916 9.013 9.013 0 0 1-1.89-2.832 8.687 8.687 0 0 1-.693-3.45v-.05c0-1.219.231-2.37.692-3.45a9.074 9.074 0 0 1 1.904-2.844 9.098 9.098 0 0 1 2.856-1.941 8.713 8.713 0 0 1 3.526-.716c1.25 0 2.422.233 3.51.704a8.923 8.923 0 0 1 2.832 1.916 9.05 9.05 0 0 1 1.891 2.832c.463 1.08.692 2.23.692 3.45v.049c0 1.22-.23 2.37-.692 3.45a9.053 9.053 0 0 1-1.904 2.843 9.08 9.08 0 0 1-2.856 1.943 8.733 8.733 0 0 1-3.524.716" fill="#545454" stroke-width=".1"/></svg>