<?xml version="1.0" encoding="UTF-8" standalone="no"?>
<!-- Created with Inkscape (http://www.inkscape.org/) -->

<svg
   xmlns:dc="http://purl.org/dc/elements/1.1/"
   xmlns:cc="http://creativecommons.org/ns#"
   xmlns:rdf="http://www.w3.org/1999/02/22-rdf-syntax-ns#"
   xmlns:svg="http://www.w3.org/2000/svg"
   xmlns="http://www.w3.org/2000/svg"
   xmlns:sodipodi="http://sodipodi.sourceforge.net/DTD/sodipodi-0.dtd"
   xmlns:inkscape="http://www.inkscape.org/namespaces/inkscape"
   version="1.1"
   id="svg2"
   xml:space="preserve"
   width="610.82397"
   height="466.80179"
   viewBox="0 0 610.82397 466.80179"
   sodipodi:docname="mojio.svg"
   inkscape:version="0.92.2 5c3e80d, 2017-08-06"><metadata
     id="metadata8"><rdf:RDF><cc:Work
         rdf:about=""><dc:format>image/svg+xml</dc:format><dc:type
           rdf:resource="http://purl.org/dc/dcmitype/StillImage" /><dc:title /></cc:Work></rdf:RDF></metadata><defs
     id="defs6" /><sodipodi:namedview
     pagecolor="#ffffff"
     bordercolor="#666666"
     borderopacity="1"
     objecttolerance="10"
     gridtolerance="10"
     guidetolerance="10"
     inkscape:pageopacity="0"
     inkscape:pageshadow="2"
     inkscape:window-width="1918"
     inkscape:window-height="2136"
     id="namedview4"
     showgrid="false"
     inkscape:zoom="1.4299675"
     inkscape:cx="259.09078"
     inkscape:cy="173.49258"
     inkscape:window-x="3840"
     inkscape:window-y="22"
     inkscape:window-maximized="0"
     inkscape:current-layer="g10" /><g
     id="g10"
     inkscape:groupmode="layer"
     inkscape:label="ink_ext_XXXXXX"
     transform="matrix(1.3333333,0,0,-1.3333333,0,466.80132)"><path
       inkscape:connector-curvature="0"
       id="path14"
       style="fill:#545454;fill-opacity:1;fill-rule:nonzero;stroke:none;stroke-width:0.1"
       d="m 319.777,182.206 c -8.557,0 -15.719,-6.966 -15.719,-15.72 0,-8.755 7.162,-15.72 15.719,-15.72 8.756,0 15.721,6.965 15.721,15.72 0,8.754 -6.965,15.72 -15.721,15.72" /><path
       inkscape:connector-curvature="0"
       id="path16"
       style="fill:#545454;fill-opacity:1;fill-rule:nonzero;stroke:none;stroke-width:0.1"
       d="m 203.121,137.952 c -24.902,0 -47.854,-18.362 -47.854,-44.5258 0,-28.0012 20.083,-47.7391 47.854,-47.7391 27.772,0 47.855,19.7379 47.855,47.7391 0,26.1638 -22.952,44.5258 -47.855,44.5258 m 0,-70.461 c -13.426,0 -24.443,10.9012 -24.443,25.8199 0,11.9351 11.017,22.8371 24.443,22.8371 13.427,0 24.444,-10.902 24.444,-22.8371 0,-14.9187 -11.017,-25.8199 -24.444,-25.8199" /><path
       inkscape:connector-curvature="0"
       id="path18"
       style="fill:none;stroke:#545454;stroke-width:1;stroke-linecap:butt;stroke-linejoin:miter;stroke-miterlimit:10;stroke-dasharray:none;stroke-opacity:1"
       d="m 203.121,137.952 c -24.902,0 -47.854,-18.362 -47.854,-44.5258 0,-28.0012 20.083,-47.7391 47.854,-47.7391 27.772,0 47.855,19.7379 47.855,47.7391 0,26.1638 -22.952,44.5258 -47.855,44.5258 m 0,-70.461 c -13.426,0 -24.443,10.9012 -24.443,25.8199 0,11.9351 11.017,22.8371 24.443,22.8371 13.427,0 24.444,-10.902 24.444,-22.8371 0,-14.9187 -11.017,-25.8199 -24.444,-25.8199" /><path
       inkscape:connector-curvature="0"
       id="path20"
       style="fill:#545454;fill-opacity:1;fill-rule:nonzero;stroke:none;stroke-width:0.1"
       d="m 395.047,137.952 c -24.902,0 -47.854,-18.362 -47.854,-44.5258 0,-28.0012 20.083,-47.7391 47.854,-47.7391 27.772,0 47.855,19.7379 47.855,47.7391 0,26.1638 -22.952,44.5258 -47.855,44.5258 m 0,-70.461 c -13.426,0 -24.443,10.9012 -24.443,25.8199 0,11.9351 11.017,22.8371 24.443,22.8371 13.427,0 24.444,-10.902 24.444,-22.8371 0,-14.9187 -11.017,-25.8199 -24.444,-25.8199" /><path
       inkscape:connector-curvature="0"
       id="path22"
       style="fill:none;stroke:#545454;stroke-width:1;stroke-linecap:butt;stroke-linejoin:miter;stroke-miterlimit:10;stroke-dasharray:none;stroke-opacity:1"
       d="m 395.047,137.952 c -24.902,0 -47.854,-18.362 -47.854,-44.5258 0,-28.0012 20.083,-47.7391 47.854,-47.7391 27.772,0 47.855,19.7379 47.855,47.7391 0,26.1638 -22.952,44.5258 -47.855,44.5258 m 0,-70.461 c -13.426,0 -24.443,10.9012 -24.443,25.8199 0,11.9351 11.017,22.8371 24.443,22.8371 13.427,0 24.444,-10.902 24.444,-22.8371 0,-14.9187 -11.017,-25.8199 -24.444,-25.8199" /><path
       inkscape:connector-curvature="0"
       id="path24"
       style="fill:#545454;fill-opacity:1;fill-rule:nonzero;stroke:none;stroke-width:0.1"
       d="m 288.281,137.06 h -22.288 c -1.392,0 -2.586,-0.996 -2.586,-2.388 V 38.5789 c 0,-10.148 -2.189,-14.1277 -8.756,-18.1078 -1.79,-1.1949 -1.393,-2.3879 0,-3.9789 L 269.775,1.16914 c 1.392,-1.392187 2.984,-1.790234 5.77,0.2 8.357,5.96875 15.124,13.92776 15.124,31.83786 v 101.465 c 0,1.392 -0.996,2.388 -2.388,2.388" /><path
       inkscape:connector-curvature="0"
       id="path26"
       style="fill:#545454;fill-opacity:1;fill-rule:nonzero;stroke:none;stroke-width:0.1"
       d="m 331.5,137.06 h -22.286 c -1.394,0 -2.587,-0.996 -2.587,-2.388 V 48.1309 c 0,-1.3938 1.193,-2.5868 2.587,-2.5868 H 331.5 c 1.394,0 2.388,1.193 2.388,2.5868 v 86.5411 c 0,1.392 -0.994,2.388 -2.388,2.388" /><path
       inkscape:connector-curvature="0"
       id="path28"
       style="fill:#545454;fill-opacity:1;fill-rule:nonzero;stroke:none;stroke-width:0.1"
       d="m 100.251,137.742 c -11.9338,0 -21.6971,-2.13 -28.8498,-6.922 -7.1801,4.792 -16.9934,6.922 -29.016,6.922 C 15.9199,137.742 0,127.395 0,100.333 V 48.993 C 0,47.6012 0.994141,46.6051 2.38789,46.6051 H 24.6762 c 1.3929,0 2.5847,0.9961 2.5847,2.3879 v 47.9562 c 0,12.3388 5.3743,17.7098 15.1243,17.7098 9.9488,0 15.3226,-5.371 15.3226,-17.7098 V 48.993 c 0,-1.3918 0.9953,-2.3879 2.3863,-2.3879 h 0.161 22.1258 0.1613 c 1.393,0 2.5859,0.9961 2.5859,2.3879 v 47.9562 c 0,12.3388 5.3731,17.7098 15.1229,17.7098 9.949,0 15.323,-5.371 15.323,-17.7098 V 48.993 c 0,-1.3918 0.996,-2.3879 2.385,-2.3879 h 22.288 c 1.395,0 2.588,0.9961 2.588,2.3879 v 51.34 c 0,27.062 -15.92,37.409 -42.584,37.409" /><path
       inkscape:connector-curvature="0"
       id="path30"
       style="fill:#545454;fill-opacity:1;fill-rule:nonzero;stroke:none;stroke-width:0.1"
       d="m 336.333,266.744 -11.91,11.819 33.738,33.443 z M 323.171,239.51 c -1.141,0.249 -2.322,0.39 -3.537,0.39 -1.321,0 -2.604,-0.16 -3.835,-0.454 l -9.896,20.758 13.707,13.588 13.609,-13.505 z m -3.537,-25.802 c -5.353,0 -9.708,4.355 -9.708,9.707 0,5.353 4.355,9.708 9.708,9.708 5.353,0 9.707,-4.355 9.707,-9.708 0,-5.352 -4.354,-9.707 -9.707,-9.707 z m 49.131,128.784 c 5.353,0 9.708,-4.355 9.708,-9.708 0,-5.353 -4.355,-9.708 -9.708,-9.708 -5.353,0 -9.708,4.355 -9.708,9.708 0,5.353 4.355,9.708 9.708,9.708 z M 221.76,171.403 c -5.353,0 -9.707,4.354 -9.707,9.707 0,5.353 4.354,9.708 9.707,9.708 5.353,0 9.708,-4.355 9.708,-9.708 0,-5.353 -4.355,-9.707 -9.708,-9.707 z m 21.145,79.814 c 3.198,0 5.792,-2.593 5.792,-5.791 0,-3.199 -2.594,-5.793 -5.792,-5.793 -3.199,0 -5.792,2.594 -5.792,5.793 0,3.198 2.593,5.791 5.792,5.791 z m 152.758,0 c 3.199,0 5.792,-2.593 5.792,-5.791 0,-3.199 -2.593,-5.793 -5.792,-5.793 -3.199,0 -5.792,2.594 -5.792,5.793 0,3.198 2.593,5.791 5.792,5.791 z m 2.553,-45.885 -56.795,56.362 26.35,54.638 c 0.329,-0.019 0.66,-0.032 0.994,-0.032 0.111,0 0.221,0.006 0.332,0.008 l 19.958,-60.611 c -0.223,-0.143 -0.438,-0.295 -0.651,-0.452 -0.344,-0.253 -0.673,-0.524 -0.988,-0.812 -0.999,-0.912 -1.854,-1.978 -2.505,-3.176 -0.187,-0.344 -0.358,-0.699 -0.512,-1.063 -0.308,-0.727 -0.547,-1.491 -0.709,-2.282 -0.162,-0.792 -0.247,-1.612 -0.247,-2.451 0,-2.099 0.532,-4.073 1.468,-5.796 1.123,-2.068 2.829,-3.773 4.896,-4.897 0.345,-0.187 0.699,-0.358 1.063,-0.512 0.728,-0.307 1.491,-0.546 2.283,-0.708 0.791,-0.162 1.611,-0.247 2.451,-0.247 0.274,0 0.542,0.023 0.812,0.041 l 8.068,-24.505 c 2.1,0.779 4.341,1.262 6.672,1.406 l -8.37,25.421 c 0.185,0.136 0.376,0.267 0.553,0.414 2.702,2.23 4.425,5.605 4.425,9.383 0,3.558 -1.537,6.749 -3.973,8.972 -2.162,1.974 -5.029,3.188 -8.187,3.188 -0.016,0 -0.032,-0.002 -0.047,-0.002 l -19.83,60.223 c 5.624,2.625 9.522,8.327 9.522,14.942 0,9.104 -7.38,16.484 -16.484,16.484 -9.104,0 -16.484,-7.38 -16.484,-16.484 0,-4.711 1.979,-8.957 5.148,-11.962 l -37.816,-37.486 -29.988,29.76 c -1.364,-1.814 -2.991,-3.419 -4.82,-4.765 l 29.995,-29.766 -11.986,-11.882 -19.404,40.7 c -1.902,-1.197 -3.988,-2.124 -6.207,-2.728 l 20.513,-43.026 -67.164,-66.578 c -0.258,0.163 -0.519,0.32 -0.787,0.469 l 12.452,37.817 c 0.241,-0.014 0.478,-0.036 0.722,-0.036 2.939,0 5.633,1.042 7.735,2.777 0.601,0.495 1.153,1.047 1.649,1.648 1.734,2.102 2.776,4.797 2.776,7.735 0,2.938 -1.042,5.633 -2.776,7.735 -0.248,0.301 -0.51,0.589 -0.785,0.864 -0.433,0.432 -0.906,0.822 -1.399,1.185 -0.189,0.139 -0.378,0.277 -0.575,0.405 l 16.086,48.852 c -2.242,0.547 -4.356,1.42 -6.29,2.568 l -16.284,-49.456 c -0.046,0.001 -0.091,0.007 -0.137,0.007 -6.716,0 -12.16,-5.444 -12.16,-12.16 0,-4.058 1.996,-7.643 5.051,-9.852 l -12.541,-38.088 c -0.503,0.047 -1.013,0.074 -1.529,0.074 -9.104,0 -16.484,-7.381 -16.484,-16.485 0,-9.104 7.38,-16.484 16.484,-16.484 9.104,0 16.485,7.38 16.485,16.484 0,3.419 -1.041,6.594 -2.823,9.227 l 65.383,64.813 8.868,-18.602 c -3.963,-3.011 -6.524,-7.772 -6.524,-13.133 0,-9.104 7.381,-16.484 16.485,-16.484 9.104,0 16.484,7.38 16.484,16.484 0,5.464 -2.67,10.293 -6.763,13.292 l 8.952,18.531 55.218,-54.798 c 1.321,1.848 2.902,3.496 4.691,4.892" /><path
       inkscape:connector-curvature="0"
       id="path32"
       style="fill:#ff7f00;fill-opacity:1;fill-rule:nonzero;stroke:none;stroke-width:0.1"
       d="m 412.619,171.371 c -8.525,0 -15.462,6.935 -15.462,15.46 0,8.526 6.937,15.462 15.462,15.462 8.525,0 15.461,-6.936 15.461,-15.462 0,-8.525 -6.936,-15.46 -15.461,-15.46 z m 0,38.922 c -0.492,0 -0.979,-0.02 -1.463,-0.05 -2.331,-0.144 -4.572,-0.627 -6.672,-1.406 -2.277,-0.844 -4.386,-2.036 -6.268,-3.505 -1.789,-1.396 -3.37,-3.044 -4.691,-4.892 -2.746,-3.842 -4.368,-8.538 -4.368,-13.609 0,-12.936 10.525,-23.46 23.462,-23.46 12.936,0 23.461,10.524 23.461,23.46 0,12.937 -10.525,23.462 -23.461,23.462" /><path
       inkscape:connector-curvature="0"
       id="path34"
       style="fill:#00baf2;fill-opacity:1;fill-rule:nonzero;stroke:none;stroke-width:0.1"
       d="m 256,326.971 c 0,8.343 6.788,15.13 15.131,15.13 8.342,0 15.13,-6.787 15.13,-15.13 0,-8.343 -6.788,-15.131 -15.13,-15.131 -8.343,0 -15.131,6.788 -15.131,15.131 z m 15.131,-23.131 c 2.101,0 4.136,0.287 6.072,0.815 2.219,0.604 4.305,1.531 6.207,2.728 0.477,0.3 0.943,0.615 1.395,0.948 1.829,1.346 3.456,2.951 4.82,4.765 2.909,3.868 4.636,8.674 4.636,13.875 0,12.754 -10.376,23.13 -23.13,23.13 -12.755,0 -23.131,-10.376 -23.131,-23.13 0,-8.458 4.566,-15.867 11.36,-19.901 1.934,-1.148 4.048,-2.021 6.29,-2.568 1.758,-0.429 3.592,-0.662 5.481,-0.662" /><path
       inkscape:connector-curvature="0"
       id="path36"
       style="fill:#545454;fill-opacity:1;fill-rule:nonzero;stroke:none;stroke-width:0.1"
       d="m 451.757,131.103 c 0.482,0 0.875,0.105 1.178,0.316 0.303,0.209 0.454,0.512 0.454,0.908 v 0.037 c 0,0.359 -0.139,0.647 -0.417,0.863 -0.279,0.217 -0.665,0.324 -1.159,0.324 h -2.022 v -2.448 z m -2.986,3.376 h 3.079 c 0.433,0 0.825,-0.065 1.177,-0.195 0.352,-0.13 0.641,-0.306 0.863,-0.529 0.173,-0.16 0.309,-0.352 0.408,-0.575 0.099,-0.222 0.148,-0.475 0.148,-0.76 v -0.037 c 0,-0.557 -0.167,-1.001 -0.501,-1.335 -0.334,-0.334 -0.76,-0.563 -1.279,-0.686 l 2.133,-2.764 h -1.261 l -1.985,2.597 h -0.037 -1.725 v -2.597 h -1.02 z m 2.615,-9.775 c 0.878,0 1.688,0.164 2.429,0.492 0.743,0.328 1.388,0.769 1.939,1.326 0.55,0.557 0.98,1.206 1.289,1.948 0.309,0.741 0.464,1.532 0.464,2.374 v 0.037 c 0,0.84 -0.155,1.632 -0.464,2.373 -0.309,0.743 -0.736,1.388 -1.28,1.939 -0.544,0.55 -1.187,0.986 -1.928,1.307 -0.743,0.322 -1.547,0.483 -2.411,0.483 -0.866,0 -1.673,-0.164 -2.421,-0.492 -0.749,-0.328 -1.398,-0.769 -1.948,-1.326 -0.55,-0.557 -0.98,-1.205 -1.289,-1.948 -0.309,-0.741 -0.464,-1.532 -0.464,-2.373 v -0.038 c 0,-0.84 0.155,-1.632 0.464,-2.373 0.309,-0.743 0.736,-1.388 1.28,-1.939 0.544,-0.55 1.187,-0.986 1.928,-1.307 0.743,-0.322 1.547,-0.483 2.412,-0.483 z m 0,-0.574 c -0.94,0 -1.817,0.175 -2.634,0.528 -0.816,0.352 -1.524,0.832 -2.124,1.437 -0.6,0.606 -1.072,1.314 -1.418,2.124 -0.346,0.81 -0.519,1.672 -0.519,2.587 v 0.038 c 0,0.914 0.173,1.777 0.519,2.587 0.346,0.809 0.822,1.521 1.428,2.133 0.606,0.612 1.32,1.097 2.142,1.456 0.823,0.359 1.703,0.537 2.644,0.537 0.938,0 1.817,-0.175 2.633,-0.528 0.816,-0.352 1.524,-0.832 2.124,-1.437 0.599,-0.606 1.072,-1.315 1.418,-2.124 0.347,-0.81 0.519,-1.673 0.519,-2.587 v -0.037 c 0,-0.915 -0.172,-1.778 -0.519,-2.588 -0.346,-0.809 -0.822,-1.521 -1.428,-2.132 -0.606,-0.613 -1.32,-1.098 -2.142,-1.457 -0.822,-0.358 -1.704,-0.537 -2.643,-0.537" /></g></svg>