<svg xmlns="http://www.w3.org/2000/svg" width="610.827" height="466.8"><path d="M426.37 223.859c-11.41 0-20.96 9.288-20.96 20.96 0 11.673 9.55 20.96 20.96 20.96 11.674 0 20.96-9.287 20.96-20.96 0-11.672-9.286-20.96-20.96-20.96M270.828 282.864c-33.203 0-63.805 24.483-63.805 59.368 0 37.335 26.777 63.652 63.805 63.652 37.03 0 63.807-26.317 63.807-63.652 0-34.885-30.603-59.368-63.807-59.368m0 93.948c-17.901 0-32.59-14.535-32.59-34.427 0-15.913 14.689-30.449 32.59-30.449 17.903 0 32.592 14.536 32.592 30.45 0 19.891-14.69 34.426-32.592 34.426" fill="#545454"/><path d="M270.828 282.864c-33.203 0-63.805 24.483-63.805 59.368 0 37.335 26.777 63.652 63.805 63.652 37.03 0 63.807-26.317 63.807-63.652 0-34.885-30.603-59.368-63.807-59.368m0 93.948c-17.901 0-32.59-14.535-32.59-34.427 0-15.913 14.689-30.449 32.59-30.449 17.903 0 32.592 14.536 32.592 30.45 0 19.891-14.69 34.426-32.592 34.426" fill="none" stroke="#545454" stroke-miterlimit="10" stroke-width="1.33333"/><path d="M526.73 282.864c-33.203 0-63.806 24.483-63.806 59.368 0 37.335 26.777 63.652 63.805 63.652 37.03 0 63.807-26.317 63.807-63.652 0-34.885-30.603-59.368-63.807-59.368m0 93.948c-17.901 0-32.59-14.535-32.59-34.427 0-15.913 14.689-30.449 32.59-30.449 17.903 0 32.592 14.536 32.592 30.45 0 19.891-14.689 34.426-32.592 34.426" fill="#545454"/><path d="M526.73 282.864c-33.203 0-63.806 24.483-63.806 59.368 0 37.335 26.777 63.652 63.805 63.652 37.03 0 63.807-26.317 63.807-63.652 0-34.885-30.603-59.368-63.807-59.368m0 93.948c-17.901 0-32.59-14.535-32.59-34.427 0-15.913 14.689-30.449 32.59-30.449 17.903 0 32.592 14.536 32.592 30.45 0 19.891-14.689 34.426-32.592 34.426" fill="none" stroke="#545454" stroke-miterlimit="10" stroke-width="1.33333"/><path d="M384.375 284.053h-29.718c-1.856 0-3.448 1.328-3.448 3.184v128.124c0 13.531-2.918 18.837-11.674 24.144-2.387 1.593-1.858 3.184 0 5.305l20.165 20.431c1.856 1.856 3.979 2.387 7.693-.267 11.143-7.958 20.166-18.57 20.166-42.45V287.237c0-1.856-1.328-3.184-3.184-3.184M442 284.053h-29.715c-1.858 0-3.449 1.328-3.449 3.184v115.388c0 1.859 1.59 3.45 3.45 3.45H442c1.859 0 3.184-1.591 3.184-3.45V287.237c0-1.856-1.325-3.184-3.184-3.184M133.668 283.144c-15.912 0-28.93 2.84-38.466 9.23-9.574-6.39-22.658-9.23-38.688-9.23C21.227 283.144 0 296.94 0 333.023v68.453c0 1.856 1.326 3.184 3.184 3.184h29.718c1.857 0 3.446-1.328 3.446-3.184v-63.942c0-16.451 7.166-23.613 20.166-23.613 13.265 0 20.43 7.162 20.43 23.613v63.942c0 1.856 1.327 3.184 3.181 3.184h29.931c1.858 0 3.448-1.328 3.448-3.184v-63.942c0-16.451 7.164-23.613 20.164-23.613 13.265 0 20.43 7.162 20.43 23.613v63.942c0 1.856 1.329 3.184 3.18 3.184h29.718c1.86 0 3.45-1.328 3.45-3.184v-68.453c0-36.083-21.226-49.879-56.778-49.879M448.444 111.141l-15.88-15.758 44.984-44.591zm-17.55 36.312a22.079 22.079 0 0 0-4.715-.52c-1.762 0-3.472.214-5.114.606l-13.194-27.678 18.276-18.117 18.145 18.007zm-4.715 34.403c-7.138 0-12.944-5.807-12.944-12.943 0-7.137 5.806-12.944 12.944-12.944 7.137 0 12.942 5.807 12.942 12.944 0 7.136-5.805 12.943-12.942 12.943zm65.508-171.712c7.137 0 12.944 5.807 12.944 12.944 0 7.137-5.807 12.944-12.944 12.944-7.138 0-12.944-5.807-12.944-12.944 0-7.137 5.806-12.944 12.944-12.944zM295.68 238.263c-7.137 0-12.943-5.806-12.943-12.943s5.806-12.944 12.943-12.944 12.944 5.807 12.944 12.944c0 7.137-5.807 12.943-12.944 12.943zm28.193-106.419a7.723 7.723 0 1 1 0 15.446 7.723 7.723 0 0 1 0-15.446zm203.678 0a7.724 7.724 0 1 1-.002 15.444 7.724 7.724 0 0 1 .002-15.444zm3.404 61.18l-75.727-75.15 35.133-72.85c.439.025.88.043 1.326.043.148 0 .294-.008.442-.011l26.611 80.815c-.297.19-.584.393-.868.602-.459.338-.897.699-1.317 1.083a16.26 16.26 0 0 0-3.34 4.235 16.118 16.118 0 0 0-1.958 7.728c0 2.798.71 5.43 1.958 7.728a16.297 16.297 0 0 0 7.945 7.212 16.166 16.166 0 0 0 6.312 1.273c.365 0 .723-.03 1.083-.055l10.757 32.674a31.051 31.051 0 0 1 8.896-1.875l-11.16-33.895c.247-.181.501-.356.737-.552a16.18 16.18 0 0 0 5.9-12.51c0-4.744-2.049-8.999-5.297-11.963-2.883-2.632-6.705-4.25-10.916-4.25l-.063.002-26.44-80.297c7.499-3.5 12.696-11.103 12.696-19.923 0-12.139-9.84-21.979-21.978-21.979-12.139 0-21.979 9.84-21.979 21.979 0 6.281 2.639 11.943 6.864 15.95l-50.421 49.98-39.984-39.68a31.112 31.112 0 0 1-6.427 6.354l39.993 39.688-15.981 15.843-25.872-54.267a30.64 30.64 0 0 1-8.276 3.637l27.35 57.368-89.551 88.771a21.761 21.761 0 0 0-1.05-.625l16.603-50.423c.321.019.637.048.963.048 3.918 0 7.51-1.39 10.313-3.703a16.228 16.228 0 0 0 2.199-2.197 16.152 16.152 0 0 0 3.701-10.313 16.152 16.152 0 0 0-4.748-11.466 16.363 16.363 0 0 0-1.865-1.58c-.252-.185-.504-.369-.767-.54L354.2 60.797a30.657 30.657 0 0 1-8.387-3.424l-21.712 65.942c-.061-.002-.121-.01-.182-.01-8.955 0-16.214 7.259-16.214 16.214 0 5.41 2.662 10.19 6.735 13.136l-16.721 50.784c-.671-.063-1.351-.099-2.039-.099-12.139 0-21.979 9.841-21.979 21.98 0 12.139 9.84 21.979 21.979 21.979s21.98-9.84 21.98-21.979c0-4.559-1.388-8.792-3.764-12.303l87.177-86.417 11.824 24.803c-5.284 4.014-8.698 10.362-8.698 17.51 0 12.139 9.841 21.979 21.98 21.979 12.138 0 21.978-9.84 21.978-21.979 0-7.285-3.56-13.724-9.017-17.722l11.936-24.708 73.624 73.064a31.542 31.542 0 0 1 6.255-6.523" fill="#545454"/><path d="M550.159 238.305c-11.367 0-20.616-9.246-20.616-20.613 0-11.368 9.249-20.616 20.616-20.616 11.366 0 20.614 9.248 20.614 20.616 0 11.367-9.248 20.613-20.614 20.613zm0-51.896c-.656 0-1.306.027-1.951.067a31.051 31.051 0 0 0-8.896 1.875 31.23 31.23 0 0 0-8.357 4.673 31.542 31.542 0 0 0-6.255 6.523 31.102 31.102 0 0 0-5.824 18.145c0 17.248 14.033 31.28 31.283 31.28 17.248 0 31.281-14.032 31.281-31.28 0-17.25-14.033-31.283-31.281-31.283" fill="#ff7f00"/><path d="M341.333 30.839c0-11.124 9.051-20.174 20.175-20.174 11.123 0 20.173 9.05 20.173 20.174 0 11.124-9.05 20.174-20.173 20.174-11.124 0-20.175-9.05-20.175-20.174zm20.175 30.841c2.801 0 5.515-.383 8.096-1.087a30.64 30.64 0 0 0 8.276-3.637 31.112 31.112 0 0 0 8.287-7.617 30.683 30.683 0 0 0 6.181-18.5c0-17.006-13.835-30.84-30.84-30.84-17.007 0-30.841 13.834-30.841 30.84 0 11.277 6.088 21.156 15.146 26.534a30.782 30.782 0 0 0 15.695 4.307" fill="#00baf2"/><path d="M602.343 291.996c.642 0 1.166-.14 1.57-.421.404-.279.606-.683.606-1.211v-.05c0-.478-.186-.862-.556-1.15-.372-.29-.887-.432-1.546-.432h-2.696v3.264zm-3.982-4.501h4.106a4.5 4.5 0 0 1 1.569.26c.47.173.855.408 1.15.705.231.213.413.47.545.767.132.296.197.633.197 1.013v.05c0 .742-.223 1.334-.668 1.78-.445.445-1.013.75-1.705.914l2.844 3.685h-1.682l-2.646-3.462H599.72v3.462h-1.36zm3.487 13.033c1.17 0 2.25-.219 3.239-.656a8.32 8.32 0 0 0 2.585-1.768 8.14 8.14 0 0 0 2.337-5.763v-.049c0-1.12-.206-2.176-.618-3.164a8.022 8.022 0 0 0-1.707-2.585 8.11 8.11 0 0 0-2.57-1.743 7.998 7.998 0 0 0-3.215-.644c-1.155 0-2.231.219-3.228.656a8.266 8.266 0 0 0-2.598 1.768 8.062 8.062 0 0 0-1.718 2.597 8.138 8.138 0 0 0-.619 3.164v.051c0 1.12.207 2.176.619 3.164.412.99.981 1.85 1.706 2.585a8.11 8.11 0 0 0 2.571 1.743c.99.43 2.063.644 3.216.644zm0 .765c-1.253 0-2.423-.233-3.512-.704a8.923 8.923 0 0 1-2.832-1.916 9.013 9.013 0 0 1-1.89-2.832 8.687 8.687 0 0 1-.693-3.449v-.05c0-1.22.231-2.37.692-3.45a9.074 9.074 0 0 1 1.904-2.844 9.098 9.098 0 0 1 2.856-1.941 8.713 8.713 0 0 1 3.526-.716c1.25 0 2.422.233 3.51.704a8.923 8.923 0 0 1 2.832 1.916 9.05 9.05 0 0 1 1.891 2.832c.463 1.08.692 2.23.692 3.449v.05c0 1.22-.23 2.37-.692 3.45a9.053 9.053 0 0 1-1.904 2.843 9.08 9.08 0 0 1-2.856 1.942 8.733 8.733 0 0 1-3.524.716" fill="#545454"/></svg>