<?xml version="1.0" encoding="UTF-8" standalone="no"?>
<!-- Created with Inkscape (http://www.inkscape.org/) -->

<svg
   xmlns:dc="http://purl.org/dc/elements/1.1/"
   xmlns:cc="http://creativecommons.org/ns#"
   xmlns:rdf="http://www.w3.org/1999/02/22-rdf-syntax-ns#"
   xmlns:svg="http://www.w3.org/2000/svg"
   xmlns="http://www.w3.org/2000/svg"
   xmlns:sodipodi="http://sodipodi.sourceforge.net/DTD/sodipodi-0.dtd"
   xmlns:inkscape="http://www.inkscape.org/namespaces/inkscape"
   id="svg4155"
   version="1.1"
   inkscape:version="0.92.2 5c3e80d, 2017-08-06"
   xml:space="preserve"
   width="692.58185"
   height="293.05011"
   viewBox="0 0 692.58183 293.05011"
   sodipodi:docname="pia-logo-orig.svg"><metadata
     id="metadata4161"><rdf:RDF><cc:Work
         rdf:about=""><dc:format>image/svg+xml</dc:format><dc:type
           rdf:resource="http://purl.org/dc/dcmitype/StillImage" /><dc:title /></cc:Work></rdf:RDF></metadata><defs
     id="defs4159"><clipPath
       clipPathUnits="userSpaceOnUse"
       id="clipPath4171"><path
         d="M 0,733.271 H 1013.12 V 0 H 0 Z"
         id="path4173"
         inkscape:connector-curvature="0" /></clipPath><radialGradient
       fx="0"
       fy="0"
       cx="0"
       cy="0"
       r="1"
       gradientUnits="userSpaceOnUse"
       gradientTransform="matrix(-33.195633,22.088865,-22.088865,-33.195633,587.2915,429.95871)"
       spreadMethod="pad"
       id="radialGradient4283"><stop
         style="stop-opacity:1;stop-color:#23ff16"
         offset="0"
         id="stop4285" /><stop
         style="stop-opacity:1;stop-color:#23ff16"
         offset="0.67307655"
         id="stop4287" /><stop
         style="stop-opacity:1;stop-color:#1ac50f"
         offset="1"
         id="stop4289" /></radialGradient><clipPath
       clipPathUnits="userSpaceOnUse"
       id="clipPath4297"><path
         d="M 0,733.271 H 1013.12 V 0 H 0 Z"
         id="path4299"
         inkscape:connector-curvature="0" /></clipPath><linearGradient
       x1="0"
       y1="0"
       x2="1"
       y2="0"
       gradientUnits="userSpaceOnUse"
       gradientTransform="matrix(3.5147278,5.2820101,-5.2820101,3.5147278,590.70184,425.25067)"
       spreadMethod="pad"
       id="linearGradient4321"><stop
         style="stop-opacity:1;stop-color:#23ff16"
         offset="0"
         id="stop4323" /><stop
         style="stop-opacity:1;stop-color:#91ff8a"
         offset="1"
         id="stop4325" /></linearGradient><clipPath
       clipPathUnits="userSpaceOnUse"
       id="clipPath4333"><path
         d="M 0,733.271 H 1013.12 V 0 H 0 Z"
         id="path4335"
         inkscape:connector-curvature="0" /></clipPath><linearGradient
       x1="0"
       y1="0"
       x2="1"
       y2="0"
       gradientUnits="userSpaceOnUse"
       gradientTransform="matrix(2.3369191,-15.839518,15.839518,2.3369191,596.15643,400.54987)"
       spreadMethod="pad"
       id="linearGradient4373"><stop
         style="stop-opacity:1;stop-color:#23ff16"
         offset="0"
         id="stop4375" /><stop
         style="stop-opacity:1;stop-color:#189a33"
         offset="1"
         id="stop4377" /></linearGradient><clipPath
       clipPathUnits="userSpaceOnUse"
       id="clipPath4385"><path
         d="M 0,733.271 H 1013.12 V 0 H 0 Z"
         id="path4387"
         inkscape:connector-curvature="0" /></clipPath><clipPath
       clipPathUnits="userSpaceOnUse"
       id="clipPath4407"><path
         d="M 242.202,493.805 H 379.181 V 356.827 H 242.202 Z"
         id="path4409"
         inkscape:connector-curvature="0" /></clipPath><linearGradient
       x1="0"
       y1="0"
       x2="1"
       y2="0"
       gradientUnits="userSpaceOnUse"
       gradientTransform="matrix(0,-136.97835,-136.97835,0,305.24005,500.34647)"
       spreadMethod="pad"
       id="linearGradient4431"><stop
         style="stop-opacity:1;stop-color:#96ef75"
         offset="0"
         id="stop4433" /><stop
         style="stop-opacity:1;stop-color:#52f752"
         offset="0.182737"
         id="stop4435" /><stop
         style="stop-opacity:1;stop-color:#1bc91b"
         offset="0.516901"
         id="stop4437" /><stop
         style="stop-opacity:1;stop-color:#047204"
         offset="1"
         id="stop4439" /></linearGradient><clipPath
       clipPathUnits="userSpaceOnUse"
       id="clipPath4447"><path
         d="M 0,733.271 H 1013.12 V 0 H 0 Z"
         id="path4449"
         inkscape:connector-curvature="0" /></clipPath></defs><sodipodi:namedview
     pagecolor="#a2a2a2"
     bordercolor="#666666"
     borderopacity="1"
     objecttolerance="10"
     gridtolerance="10"
     guidetolerance="10"
     inkscape:pageopacity="1"
     inkscape:pageshadow="2"
     inkscape:window-width="1918"
     inkscape:window-height="2136"
     id="namedview4157"
     showgrid="false"
     fit-margin-top="0"
     fit-margin-left="0"
     fit-margin-right="0"
     fit-margin-bottom="0"
     inkscape:zoom="1.8874332"
     inkscape:cx="332.66144"
     inkscape:cy="163.34813"
     inkscape:window-x="3840"
     inkscape:window-y="22"
     inkscape:window-maximized="0"
     inkscape:current-layer="g4163" /><g
     id="g4163"
     inkscape:groupmode="layer"
     inkscape:label="PIA_logo_white"
     transform="matrix(1.25,0,0,-1.25,-292.885,628.486)"><g
       id="g4167"><g
         id="g4169"
         clip-path="url(#clipPath4171)"><g
           id="g4175"
           transform="translate(445.4546,275.7906)"><path
             d="m 0,0 v 2.297 c -0.724,0.974 -1.998,1.474 -3.296,1.474 -1.773,0 -2.997,-1.099 -2.997,-2.622 0,-1.549 1.224,-2.647 2.997,-2.647 1.298,0 2.572,0.499 3.296,1.498 m 0,-2.547 v 1.373 c -0.974,-1.099 -2.372,-1.673 -3.996,-1.673 -2.022,0 -4.195,1.374 -4.195,3.996 0,2.722 2.148,3.97 4.195,3.97 1.649,0 3.022,-0.524 3.996,-1.623 v 2.173 c 0,1.598 -1.299,2.522 -3.047,2.522 -1.448,0 -2.622,-0.5 -3.696,-1.673 l -0.874,1.298 c 1.299,1.349 2.847,1.998 4.82,1.998 2.572,0 4.67,-1.149 4.67,-4.07 v -8.291 z"
             style="fill:#999999;fill-opacity:1;fill-rule:nonzero;stroke:none"
             id="path4177"
             inkscape:connector-curvature="0" /></g><path
           d="m 457.566,289.9 h 1.873 v -16.657 h -1.873 z"
           style="fill:#999999;fill-opacity:1;fill-rule:nonzero;stroke:none"
           id="path4179"
           inkscape:connector-curvature="0" /><g
           id="g4181"
           transform="translate(472.4489,279.2867)"><path
             d="m 0,0 c 0,2.447 -1.423,4.645 -3.996,4.645 -2.572,0 -3.995,-2.198 -3.995,-4.645 0,-2.472 1.423,-4.67 3.995,-4.67 C -1.423,-4.67 0,-2.472 0,0 m -9.964,0 c 0,3.496 2.297,6.318 5.968,6.318 3.671,0 5.969,-2.822 5.969,-6.318 0,-3.496 -2.298,-6.343 -5.969,-6.343 -3.671,0 -5.968,2.847 -5.968,6.343"
             style="fill:#999999;fill-opacity:1;fill-rule:nonzero;stroke:none"
             id="path4183"
             inkscape:connector-curvature="0" /></g><g
           id="g4185"
           transform="translate(485.6339,273.2434)"><path
             d="m 0,0 v 7.891 c 0,2.148 -1.099,2.797 -2.722,2.797 -1.473,0 -2.847,-0.899 -3.571,-1.873 V 0 h -1.873 v 12.062 h 1.873 v -1.748 c 0.849,1.024 2.497,2.047 4.32,2.047 2.497,0 3.821,-1.273 3.821,-3.895 L 1.848,0 Z"
             style="fill:#999999;fill-opacity:1;fill-rule:nonzero;stroke:none"
             id="path4187"
             inkscape:connector-curvature="0" /></g><g
           id="g4189"
           transform="translate(499.9925,276.5397)"><path
             d="m 0,0 v 5.444 c -0.649,1.049 -2.123,1.948 -3.596,1.948 -2.447,0 -3.896,-1.998 -3.896,-4.67 0,-2.672 1.449,-4.645 3.896,-4.645 1.473,0 2.947,0.874 3.596,1.923 m 0,-3.296 v 1.798 c -0.899,-1.224 -2.372,-2.098 -4.071,-2.098 -3.146,0 -5.369,2.397 -5.369,6.318 0,3.871 2.223,6.343 5.369,6.343 1.624,0 3.097,-0.799 4.071,-2.123 V 13.36 H 1.873 V -3.296 Z"
             style="fill:#999999;fill-opacity:1;fill-rule:nonzero;stroke:none"
             id="path4191"
             inkscape:connector-curvature="0" /></g><g
           id="g4193"
           transform="translate(514.8758,279.2867)"><path
             d="m 0,0 c 0,2.447 -1.424,4.645 -3.996,4.645 -2.572,0 -3.995,-2.198 -3.995,-4.645 0,-2.472 1.423,-4.67 3.995,-4.67 C -1.424,-4.67 0,-2.472 0,0 m -9.964,0 c 0,3.496 2.297,6.318 5.968,6.318 3.671,0 5.969,-2.822 5.969,-6.318 0,-3.496 -2.298,-6.343 -5.969,-6.343 -3.671,0 -5.968,2.847 -5.968,6.343"
             style="fill:#999999;fill-opacity:1;fill-rule:nonzero;stroke:none"
             id="path4195"
             inkscape:connector-curvature="0" /></g><g
           id="g4197"
           transform="translate(528.0607,273.2434)"><path
             d="m 0,0 v 7.891 c 0,2.148 -1.099,2.797 -2.722,2.797 -1.473,0 -2.847,-0.899 -3.571,-1.873 V 0 h -1.873 v 12.062 h 1.873 v -1.748 c 0.849,1.024 2.497,2.047 4.32,2.047 2.497,0 3.821,-1.273 3.821,-3.895 L 1.848,0 Z"
             style="fill:#999999;fill-opacity:1;fill-rule:nonzero;stroke:none"
             id="path4199"
             inkscape:connector-curvature="0" /></g><g
           id="g4201"
           transform="translate(534.0035,276.4898)"><path
             d="M 0,0 V 5.494 H -1.998 V 8.815 H 0 v 3.297 H 3.846 V 8.815 H 6.293 V 5.494 H 3.846 v -4.42 c 0,-0.699 0.399,-1.224 1.049,-1.224 0.424,0 0.849,0.15 0.974,0.3 L 6.618,-2.747 C 6.143,-3.196 5.194,-3.546 3.771,-3.546 1.324,-3.546 0,-2.322 0,0"
             style="fill:#999999;fill-opacity:1;fill-rule:nonzero;stroke:none"
             id="path4203"
             inkscape:connector-curvature="0" /></g><g
           id="g4205"
           transform="translate(542.194,273.2434)"><path
             d="m 0,0 v 12.062 h 3.846 v -1.474 c 0.799,0.974 2.347,1.798 3.771,1.798 V 8.69 C 7.392,8.765 7.067,8.79 6.668,8.79 5.669,8.79 4.345,8.366 3.846,7.692 V 0 Z"
             style="fill:#999999;fill-opacity:1;fill-rule:nonzero;stroke:none"
             id="path4207"
             inkscape:connector-curvature="0" /></g><g
           id="g4209"
           transform="translate(559.6996,273.2434)"><path
             d="M 0,0 V 1.448 C -0.749,0.599 -2.123,-0.3 -4.17,-0.3 c -2.722,0 -3.971,1.574 -3.971,3.771 v 8.591 h 3.846 V 5.069 c 0,-1.473 0.749,-1.972 1.998,-1.972 1.098,0 1.847,0.599 2.297,1.173 v 7.792 H 3.846 V 0 Z"
             style="fill:#999999;fill-opacity:1;fill-rule:nonzero;stroke:none"
             id="path4211"
             inkscape:connector-curvature="0" /></g><g
           id="g4213"
           transform="translate(565.3179,274.8167)"><path
             d="M 0,0 1.598,2.747 C 2.497,1.948 4.42,1.124 5.844,1.124 c 1.148,0 1.623,0.324 1.623,0.849 0,1.498 -7.017,-0.05 -7.017,4.845 0,2.122 1.848,3.97 5.169,3.97 2.048,0 3.746,-0.649 5.044,-1.598 L 9.19,6.468 C 8.466,7.167 7.092,7.791 5.644,7.791 4.745,7.791 4.146,7.442 4.146,6.967 c 0,-1.323 6.992,0.05 6.992,-4.894 0,-2.298 -2.023,-3.946 -5.469,-3.946 C 3.496,-1.873 1.274,-1.149 0,0"
             style="fill:#999999;fill-opacity:1;fill-rule:nonzero;stroke:none"
             id="path4215"
             inkscape:connector-curvature="0" /></g><g
           id="g4217"
           transform="translate(579.2273,276.4898)"><path
             d="M 0,0 V 5.494 H -1.998 V 8.815 H 0 v 3.297 H 3.846 V 8.815 H 6.293 V 5.494 H 3.846 v -4.42 c 0,-0.699 0.399,-1.224 1.049,-1.224 0.424,0 0.849,0.15 0.973,0.3 l 0.75,-2.897 C 6.143,-3.196 5.194,-3.546 3.771,-3.546 1.323,-3.546 0,-2.322 0,0"
             style="fill:#999999;fill-opacity:1;fill-rule:nonzero;stroke:none"
             id="path4219"
             inkscape:connector-curvature="0" /></g><g
           id="g4221"
           transform="translate(602.4512,273.2434)"><path
             d="m 0,0 v 8.191 c 0,1.523 -0.649,2.497 -2.223,2.497 -1.248,0 -2.572,-0.874 -3.196,-1.848 V 0 h -1.873 v 8.191 c 0,1.523 -0.624,2.497 -2.223,2.497 -1.223,0 -2.522,-0.899 -3.171,-1.873 V 0 h -1.873 v 12.062 h 1.873 v -1.748 c 0.524,0.774 2.123,2.047 3.921,2.047 1.823,0 2.871,-0.998 3.221,-2.247 0.674,1.099 2.297,2.247 4.046,2.247 2.197,0 3.371,-1.223 3.371,-3.646 L 1.873,0 Z"
             style="fill:#999999;fill-opacity:1;fill-rule:nonzero;stroke:none"
             id="path4223"
             inkscape:connector-curvature="0" /></g><g
           id="g4225"
           transform="translate(613.2888,284.0565)"><path
             d="M 0,0 C -2.572,0 -3.846,-2.173 -3.946,-3.996 H 3.971 C 3.946,-2.223 2.747,0 0,0 m -5.919,-4.77 c 0,3.496 2.498,6.318 5.944,6.318 3.646,0 5.794,-2.847 5.794,-6.468 v -0.474 h -9.74 c 0.15,-2.273 1.723,-4.17 4.321,-4.17 1.398,0 2.772,0.549 3.745,1.548 L 5.044,-9.24 c -1.223,-1.199 -2.846,-1.873 -4.794,-1.873 -3.596,0 -6.169,2.572 -6.169,6.343"
             style="fill:#999999;fill-opacity:1;fill-rule:nonzero;stroke:none"
             id="path4227"
             inkscape:connector-curvature="0" /></g><g
           id="g4229"
           transform="translate(630.8688,276.5397)"><path
             d="m 0,0 v 5.444 c -0.649,1.049 -2.123,1.948 -3.596,1.948 -2.447,0 -3.896,-1.998 -3.896,-4.67 0,-2.672 1.449,-4.645 3.896,-4.645 1.473,0 2.947,0.874 3.596,1.923 m 0,-3.296 v 1.798 c -0.899,-1.224 -2.372,-2.098 -4.07,-2.098 -3.147,0 -5.37,2.397 -5.37,6.318 0,3.871 2.223,6.343 5.37,6.343 1.623,0 3.096,-0.799 4.07,-2.123 V 13.36 H 1.873 V -3.296 Z"
             style="fill:#999999;fill-opacity:1;fill-rule:nonzero;stroke:none"
             id="path4231"
             inkscape:connector-curvature="0" /></g><path
           d="m 636.487,285.305 h 1.873 v -12.062 h -1.873 z m -0.324,2.972 c 0,0.699 0.574,1.273 1.273,1.273 0.699,0 1.249,-0.574 1.249,-1.273 0,-0.699 -0.55,-1.249 -1.249,-1.249 -0.699,0 -1.273,0.55 -1.273,1.249"
           style="fill:#999999;fill-opacity:1;fill-rule:nonzero;stroke:none"
           id="path4233"
           inkscape:connector-curvature="0" /><g
           id="g4235"
           transform="translate(649.6475,275.7906)"><path
             d="m 0,0 v 2.297 c -0.724,0.974 -1.998,1.474 -3.296,1.474 -1.773,0 -2.997,-1.099 -2.997,-2.622 0,-1.549 1.224,-2.647 2.997,-2.647 1.298,0 2.572,0.499 3.296,1.498 m 0,-2.547 v 1.373 c -0.974,-1.099 -2.372,-1.673 -3.996,-1.673 -2.022,0 -4.195,1.374 -4.195,3.996 0,2.722 2.148,3.97 4.195,3.97 1.649,0 3.022,-0.524 3.996,-1.623 v 2.173 c 0,1.598 -1.299,2.522 -3.047,2.522 -1.448,0 -2.622,-0.5 -3.695,-1.673 l -0.875,1.298 c 1.299,1.349 2.847,1.998 4.82,1.998 2.572,0 4.67,-1.149 4.67,-4.07 v -8.291 z"
             style="fill:#999999;fill-opacity:1;fill-rule:nonzero;stroke:none"
             id="path4237"
             inkscape:connector-curvature="0" /></g><g
           id="g4239"
           transform="translate(661.0592,279.2867)"><path
             d="m 0,0 c 0,3.571 2.422,6.318 6.018,6.318 2.198,0 3.497,-0.899 4.42,-2.098 L 9.19,3.097 C 8.391,4.195 7.367,4.645 6.118,4.645 3.571,4.645 1.948,2.672 1.948,0 c 0,-2.672 1.623,-4.67 4.17,-4.67 1.249,0 2.273,0.5 3.072,1.573 l 1.248,-1.148 C 9.515,-5.444 8.216,-6.343 6.018,-6.343 2.422,-6.343 0,-3.571 0,0"
             style="fill:#999999;fill-opacity:1;fill-rule:nonzero;stroke:none"
             id="path4241"
             inkscape:connector-curvature="0" /></g><g
           id="g4243"
           transform="translate(683.4091,279.2867)"><path
             d="m 0,0 c 0,2.447 -1.423,4.645 -3.996,4.645 -2.572,0 -3.995,-2.198 -3.995,-4.645 0,-2.472 1.423,-4.67 3.995,-4.67 C -1.423,-4.67 0,-2.472 0,0 m -9.964,0 c 0,3.496 2.297,6.318 5.968,6.318 3.671,0 5.969,-2.822 5.969,-6.318 0,-3.496 -2.298,-6.343 -5.969,-6.343 -3.671,0 -5.968,2.847 -5.968,6.343"
             style="fill:#999999;fill-opacity:1;fill-rule:nonzero;stroke:none"
             id="path4245"
             inkscape:connector-curvature="0" /></g><g
           id="g4247"
           transform="translate(702.987,273.2434)"><path
             d="m 0,0 v 8.191 c 0,1.523 -0.649,2.497 -2.223,2.497 -1.248,0 -2.572,-0.874 -3.196,-1.848 V 0 h -1.873 v 8.191 c 0,1.523 -0.624,2.497 -2.223,2.497 -1.223,0 -2.522,-0.899 -3.171,-1.873 V 0 h -1.873 v 12.062 h 1.873 v -1.748 c 0.524,0.774 2.123,2.047 3.921,2.047 1.823,0 2.872,-0.998 3.221,-2.247 0.674,1.099 2.298,2.247 4.046,2.247 2.197,0 3.371,-1.223 3.371,-3.646 L 1.873,0 Z"
             style="fill:#999999;fill-opacity:1;fill-rule:nonzero;stroke:none"
             id="path4249"
             inkscape:connector-curvature="0" /></g><g
           id="g4251"
           transform="translate(717.9452,279.2867)"><path
             d="m 0,0 c 0,2.672 -1.448,4.645 -3.871,4.645 -1.473,0 -2.947,-0.874 -3.596,-1.923 V -2.722 C -6.818,-3.771 -5.344,-4.67 -3.871,-4.67 -1.448,-4.67 0,-2.672 0,0 m -7.467,-4.22 v -6.418 H -9.34 V 6.018 h 1.873 V 4.22 c 0.874,1.224 2.373,2.098 4.071,2.098 3.171,0 5.369,-2.397 5.369,-6.318 0,-3.896 -2.198,-6.343 -5.369,-6.343 -1.648,0 -3.072,0.799 -4.071,2.123"
             style="fill:#999999;fill-opacity:1;fill-rule:nonzero;stroke:none"
             id="path4253"
             inkscape:connector-curvature="0" /></g><g
           id="g4255"
           transform="translate(730.4308,275.7906)"><path
             d="m 0,0 v 2.297 c -0.724,0.974 -1.998,1.474 -3.296,1.474 -1.773,0 -2.997,-1.099 -2.997,-2.622 0,-1.549 1.224,-2.647 2.997,-2.647 1.298,0 2.572,0.499 3.296,1.498 m 0,-2.547 v 1.373 c -0.974,-1.099 -2.372,-1.673 -3.996,-1.673 -2.022,0 -4.195,1.374 -4.195,3.996 0,2.722 2.148,3.97 4.195,3.97 1.649,0 3.022,-0.524 3.996,-1.623 v 2.173 c 0,1.598 -1.299,2.522 -3.047,2.522 -1.448,0 -2.622,-0.5 -3.695,-1.673 l -0.875,1.298 c 1.299,1.349 2.847,1.998 4.82,1.998 2.572,0 4.67,-1.149 4.67,-4.07 v -8.291 z"
             style="fill:#999999;fill-opacity:1;fill-rule:nonzero;stroke:none"
             id="path4257"
             inkscape:connector-curvature="0" /></g><g
           id="g4259"
           transform="translate(744.2404,273.2434)"><path
             d="m 0,0 v 7.891 c 0,2.148 -1.099,2.797 -2.722,2.797 -1.473,0 -2.847,-0.899 -3.571,-1.873 V 0 h -1.873 v 12.062 h 1.873 v -1.748 c 0.849,1.024 2.497,2.047 4.32,2.047 2.497,0 3.821,-1.273 3.821,-3.895 L 1.848,0 Z"
             style="fill:#999999;fill-opacity:1;fill-rule:nonzero;stroke:none"
             id="path4261"
             inkscape:connector-curvature="0" /></g><g
           id="g4263"
           transform="translate(749.484,270.2217)"><path
             d="m 0,0 c 0.275,-0.125 0.724,-0.2 1.024,-0.2 0.824,0 1.373,0.275 1.798,1.274 L 3.621,2.897 -1.423,15.083 H 0.624 L 4.62,5.194 8.641,15.083 h 2.022 L 4.62,0.574 C 3.896,-1.174 2.672,-1.848 1.074,-1.873 c -0.4,0 -1.024,0.075 -1.349,0.175 z"
             style="fill:#999999;fill-opacity:1;fill-rule:nonzero;stroke:none"
             id="path4265"
             inkscape:connector-curvature="0" /></g><g
           id="g4267"
           transform="translate(582.8248,467.5508)"><path
             d="m 0,0 c 8.741,4.379 19.55,4.064 28.308,-1.764 12.971,-8.631 16.529,-26.088 7.945,-38.988 l -1.731,-2.6 2.905,-1.933 c 3.05,-2.03 3.886,-6.128 1.868,-9.163 L 25.026,-75.891 c -0.956,-1.425 -1.732,-2.405 -2.794,-2.79 -1.084,-0.374 -2.238,0.005 -3.69,0.974 l -4.671,3.11 -8.226,-10.818 C 5.626,-85.442 5.6,-85.487 5.562,-85.544 5.361,-85.843 4.869,-86.507 4.053,-86.914 3.238,-87.331 2.057,-87.402 0.798,-86.549 L 0,-86.018 Z"
             style="fill:#359335;fill-opacity:1;fill-rule:nonzero;stroke:none"
             id="path4269"
             inkscape:connector-curvature="0" /></g></g></g><g
       id="g4271"><g
         id="g4273"><g
           id="g4279"><g
             id="g4281"><path
               d="M 582.825,466.546 V 382.59 l 1.286,-0.855 c 1.059,-0.691 1.776,-0.585 2.374,-0.308 v 0 c 0.587,0.288 1.017,0.839 1.166,1.069 v 0 c 0.047,0.072 0.063,0.102 0.063,0.102 v 0 l 0.018,0.03 8.762,11.513 5.359,-3.565 c 1.397,-0.926 2.235,-1.115 2.906,-0.875 v 0 c 0.695,0.229 1.429,1.043 2.358,2.447 v 0 l 14.268,21.444 c 1.745,2.633 1.02,6.18 -1.619,7.943 v 0 l -3.642,2.423 2.216,3.331 c 8.293,12.511 4.857,29.383 -7.694,37.766 v 0 c -4.68,3.102 -9.955,4.587 -15.165,4.587 v 0 c -4.398,0 -8.75,-1.058 -12.656,-3.096"
               style="fill:url(#radialGradient4283);stroke:none"
               id="path4291"
               inkscape:connector-curvature="0" /></g></g></g></g><g
       id="g4293"><g
         id="g4295"
         clip-path="url(#clipPath4297)"><g
           id="g4301"
           transform="translate(582.8248,404.0902)"><path
             d="M 0,0 13.215,-8.793 12.254,-10.236 0,-2.082 Z"
             style="fill:#ffffff;fill-opacity:1;fill-rule:nonzero;stroke:none"
             id="path4303"
             inkscape:connector-curvature="0" /></g><g
           id="g4305"
           transform="translate(596.4304,394.2875)"><path
             d="M 0,0 18.422,27.684 17.685,28.174 -0.737,0.49 Z"
             style="fill:#118011;fill-opacity:1;fill-rule:nonzero;stroke:none"
             id="path4307"
             inkscape:connector-curvature="0" /></g></g></g><g
       id="g4309"><g
         id="g4311"><g
           id="g4317"><g
             id="g4319"><path
               d="m 582.825,430.59 c 1.126,-0.821 2.317,-1.652 3.559,-2.478 v 0 c 8.744,-5.818 16.694,-9.236 17.76,-7.635 v 0 c 1.065,1.6 -5.159,7.615 -13.902,13.432 v 0 c -2.595,1.727 -5.121,3.243 -7.417,4.478 v 0 z"
               style="fill:url(#linearGradient4321);stroke:none"
               id="path4327"
               inkscape:connector-curvature="0" /></g></g></g></g><g
       id="g4329"><g
         id="g4331"
         clip-path="url(#clipPath4333)"><g
           id="g4337"
           transform="translate(582.8248,454.2862)"><path
             d="m 0,0 c 5.644,6.422 15.306,7.84 22.62,2.973 7.974,-5.306 10.138,-16.072 4.832,-24.046 L 24.635,-25.307 0,-8.914 Z"
             style="fill:#ffffff;fill-opacity:1;fill-rule:nonzero;stroke:none"
             id="path4339"
             inkscape:connector-curvature="0" /></g><g
           id="g4341"
           transform="translate(602.3433,447.946)"><path
             d="M 0,0 C -0.98,-1.473 -0.581,-3.462 0.893,-4.443 2.367,-5.424 4.355,-5.024 5.335,-3.55 6.316,-2.076 5.917,-0.089 4.443,0.892 2.969,1.873 0.981,1.474 0,0"
             style="fill:#000000;fill-opacity:1;fill-rule:nonzero;stroke:none"
             id="path4343"
             inkscape:connector-curvature="0" /></g><g
           id="g4345"
           transform="translate(592.8324,454.2747)"><path
             d="M 0,0 C -0.98,-1.473 -0.579,-3.464 0.894,-4.444 2.367,-5.424 4.355,-5.023 5.335,-3.55 6.316,-2.076 5.917,-0.089 4.444,0.891 2.971,1.871 0.981,1.474 0,0"
             style="fill:#000000;fill-opacity:1;fill-rule:nonzero;stroke:none"
             id="path4347"
             inkscape:connector-curvature="0" /></g><g
           id="g4349"
           transform="translate(582.8248,422.1601)"><path
             d="M 0,0 4.676,-3.112 0,-10.14 Z"
             style="fill:#ffffff;fill-opacity:1;fill-rule:nonzero;stroke:none"
             id="path4351"
             inkscape:connector-curvature="0" /></g><g
           id="g4353"
           transform="translate(582.8248,427.6687)"><path
             d="m 0,0 c 0.966,-0.041 1.93,-0.334 2.792,-0.907 2.229,-1.485 3,-4.319 2.045,-6.758 l -1.15,0.766 c 0.58,1.817 -0.035,3.822 -1.63,4.888 C 1.425,-1.592 0.716,-1.372 0,-1.334 Z"
             style="fill:#ffffff;fill-opacity:1;fill-rule:nonzero;stroke:none"
             id="path4355"
             inkscape:connector-curvature="0" /></g><g
           id="g4357"
           transform="translate(596.6956,392.9537)"><path
             d="m 0,0 4.671,-3.109 c 0.722,-0.483 1.368,-0.816 1.971,-0.987 l -0.626,-0.94 c -0.318,0.161 -0.65,0.359 -1,0.593 l -4.673,3.111 -3.565,-4.686 -0.9,0.599 z"
             style="fill:#3cce33;fill-opacity:1;fill-rule:nonzero;stroke:none"
             id="path4359"
             inkscape:connector-curvature="0" /></g></g></g><g
       id="g4361"><g
         id="g4363"><g
           id="g4369"><g
             id="g4371"><path
               d="m 593.474,386.936 1.47,-0.978 c 2.474,-1.647 5.831,-0.951 7.498,1.553 v 0 l 0.27,0.406 c -0.318,0.162 -0.65,0.359 -1.001,0.594 v 0 l -4.673,3.111 z"
               style="fill:url(#linearGradient4373);stroke:none"
               id="path4379"
               inkscape:connector-curvature="0" /></g></g></g></g><g
       id="g4381"><g
         id="g4383"
         clip-path="url(#clipPath4385)"><g
           id="g4389"
           transform="translate(602.0885,438.4724)"><path
             d="m 0,0 c -5.749,0.156 -10.922,3.524 -13.391,8.714 0.502,0.239 1.003,0.477 1.505,0.716 C -9.686,4.806 -5.077,1.805 0.046,1.666 0.03,1.111 0.015,0.555 0,0"
             style="fill:#000000;fill-opacity:1;fill-rule:nonzero;stroke:none"
             id="path4391"
             inkscape:connector-curvature="0" /></g><g
           id="g4393"
           transform="translate(496.8201,451.5654)"><path
             d="m 0,0 c 0,6.789 -5.092,9.995 -11.505,9.995 h -24.14 V -9.807 h 24.14 C -5.092,-9.807 0,-6.601 0,0 M -73.74,-82.604 V 43.188 H -6.601 C 22.82,43.188 38.661,23.574 38.661,0 c 0,-23.386 -15.841,-42.999 -45.262,-42.999 h -29.044 v -39.605 z"
             style="fill:#ffffff;fill-opacity:1;fill-rule:nonzero;stroke:none"
             id="path4395"
             inkscape:connector-curvature="0" /></g><path
           d="m 551.197,494.753 h 38.095 V 368.961 h -38.095 z"
           style="fill:#ffffff;fill-opacity:1;fill-rule:nonzero;stroke:none"
           id="path4397"
           inkscape:connector-curvature="0" /><g
           id="g4399"
           transform="translate(685.3986,457.4118)"><path
             d="m 0,0 -12.447,-40.548 h 24.894 z m 27.157,-88.45 -4.526,14.71 h -45.262 l -4.526,-14.71 H -70.346 L -23.952,37.341 H 23.951 L 70.345,-88.45 Z"
             style="fill:#ffffff;fill-opacity:1;fill-rule:nonzero;stroke:none"
             id="path4401"
             inkscape:connector-curvature="0" /></g><g
           id="g4403"><g
             id="g4405" /><g
             id="g4411"><g
               clip-path="url(#clipPath4407)"
               id="g4413"
               style="opacity:0.10000598"><g
                 transform="translate(379.1806,425.3157)"
                 id="g4415"><path
                   d="m 0,0 c 0,-37.826 -30.664,-68.489 -68.489,-68.489 -37.826,0 -68.489,30.663 -68.489,68.489 0,37.826 30.663,68.489 68.489,68.489 C -30.664,68.489 0,37.826 0,0"
                   style="fill:#000000;fill-opacity:1;fill-rule:nonzero;stroke:none"
                   id="path4417"
                   inkscape:connector-curvature="0" /></g></g></g></g></g></g><g
       id="g4419"><g
         id="g4421"><g
           id="g4427"><g
             id="g4429"><path
               d="m 236.751,431.857 c 0,-37.825 30.663,-68.489 68.489,-68.489 v 0 c 37.826,0 68.489,30.664 68.489,68.489 v 0 c 0,37.826 -30.663,68.49 -68.489,68.49 v 0 c -37.826,0 -68.489,-30.664 -68.489,-68.49"
               style="fill:url(#linearGradient4431);stroke:none"
               id="path4441"
               inkscape:connector-curvature="0" /></g></g></g></g><g
       id="g4443"><g
         id="g4445"
         clip-path="url(#clipPath4447)"><g
           id="g4451"
           transform="translate(305.24,497.9038)"><path
             d="m 0,0 c -8.917,0 -17.567,-1.746 -25.707,-5.189 -7.865,-3.327 -14.929,-8.089 -20.995,-14.156 -6.066,-6.066 -10.829,-13.13 -14.155,-20.994 -3.444,-8.141 -5.189,-16.79 -5.189,-25.708 0,-8.917 1.745,-17.566 5.189,-25.707 3.326,-7.865 8.089,-14.928 14.155,-20.994 6.066,-6.067 13.13,-10.829 20.995,-14.156 8.14,-3.443 16.79,-5.189 25.707,-5.189 8.917,0 17.567,1.746 25.708,5.189 7.864,3.327 14.928,8.089 20.994,14.156 6.066,6.066 10.829,13.129 14.155,20.994 3.444,8.141 5.19,16.79 5.19,25.707 0,8.918 -1.746,17.567 -5.19,25.708 -3.326,7.864 -8.089,14.928 -14.155,20.994 -6.066,6.067 -13.13,10.829 -20.994,14.156 C 17.567,-1.746 8.917,0 0,0 m 0,-136.978 c -9.575,0 -18.864,1.875 -27.611,5.575 -8.446,3.573 -16.032,8.687 -22.545,15.2 -6.514,6.514 -11.628,14.099 -15.201,22.546 -3.699,8.746 -5.575,18.036 -5.575,27.61 0,9.575 1.876,18.865 5.575,27.611 3.573,8.447 8.687,16.032 15.201,22.546 6.513,6.513 14.099,11.627 22.545,15.2 8.747,3.7 18.036,5.575 27.611,5.575 9.575,0 18.864,-1.875 27.611,-5.575 8.446,-3.573 16.032,-8.687 22.545,-15.2 6.514,-6.514 11.628,-14.099 15.201,-22.546 3.699,-8.746 5.575,-18.036 5.575,-27.611 0,-9.574 -1.876,-18.864 -5.575,-27.61 -3.573,-8.447 -8.687,-16.032 -15.201,-22.546 -6.513,-6.513 -14.099,-11.627 -22.545,-15.2 -8.747,-3.7 -18.036,-5.575 -27.611,-5.575"
             style="fill:#ffffff;fill-opacity:1;fill-rule:nonzero;stroke:none"
             id="path4453"
             inkscape:connector-curvature="0" /></g><g
           id="g4455"
           transform="translate(314.4487,443.4235)"><path
             d="m 0,0 h -17.88 v 6.86 c 0,4.892 4.048,8.873 8.94,8.873 C -4.048,15.733 0,11.752 0,6.86 Z M 16.122,0 H 11.92 v 6.86 c 0,11.354 -9.506,20.59 -20.86,20.59 -11.353,0 -20.86,-9.236 -20.86,-20.59 V 0 h -4.632 c -0.924,0 -2.073,-1.579 -2.073,-2.503 V -40 c 0,-0.924 1.149,-1.72 2.073,-1.72 h 50.554 c 0.924,0 2.503,0.796 2.503,1.72 V -2.503 C 18.625,-1.579 17.046,0 16.122,0"
             style="fill:#ffffff;fill-opacity:1;fill-rule:nonzero;stroke:none"
             id="path4457"
             inkscape:connector-curvature="0" /></g><g
           id="g4459"
           transform="translate(258.0541,319.4866)"><path
             d="m 0,0 c 0,6.559 -3.42,11.549 -9.474,11.549 -3.756,0 -7.344,-2.243 -8.914,-4.822 V -6.671 c 1.57,-2.579 5.158,-4.934 8.914,-4.934 C -3.42,-11.605 0,-6.559 0,0 m -18.388,-9.194 v -14.688 h -2.915 v 37.393 h 2.915 V 9.25 c 1.906,2.747 5.382,4.933 9.418,4.933 7.232,0 12.109,-5.494 12.109,-14.183 0,-8.633 -4.877,-14.24 -12.109,-14.24 -3.812,0 -7.232,1.963 -9.418,5.046"
             style="fill:#ffffff;fill-opacity:1;fill-rule:nonzero;stroke:none"
             id="path4461"
             inkscape:connector-curvature="0" /></g><g
           id="g4463"
           transform="translate(268.5363,305.9199)"><path
             d="m 0,0 v 27.077 h 2.915 v -4.653 c 2.299,3.028 5.382,5.214 9.138,5.214 v -3.195 c -0.504,0.112 -0.897,0.112 -1.457,0.112 -2.747,0 -6.447,-2.467 -7.681,-4.822 V 0 Z"
             style="fill:#ffffff;fill-opacity:1;fill-rule:nonzero;stroke:none"
             id="path4465"
             inkscape:connector-curvature="0" /></g><path
           d="m 286.307,332.997 h 2.915 V 305.92 h -2.915 z m -0.785,6.503 c 0,1.234 1.065,2.187 2.242,2.187 1.234,0 2.243,-0.953 2.243,-2.187 0,-1.233 -1.009,-2.242 -2.243,-2.242 -1.177,0 -2.242,1.009 -2.242,2.242"
           style="fill:#ffffff;fill-opacity:1;fill-rule:nonzero;stroke:none"
           id="path4467"
           inkscape:connector-curvature="0" /><g
           id="g4469"
           transform="translate(305.5908,305.9199)"><path
             d="m 0,0 -11.436,27.077 h 3.251 L 1.682,3.42 11.436,27.077 h 3.308 L 3.308,0 Z"
             style="fill:#ffffff;fill-opacity:1;fill-rule:nonzero;stroke:none"
             id="path4471"
             inkscape:connector-curvature="0" /></g><g
           id="g4473"
           transform="translate(342.478,311.2456)"><path
             d="m 0,0 v 5.943 c -1.906,2.522 -4.933,3.756 -8.185,3.756 -4.429,0 -7.4,-2.86 -7.4,-6.728 0,-3.812 2.971,-6.671 7.4,-6.671 3.252,0 6.279,1.233 8.185,3.7 m 0,-5.326 v 3.196 c -2.411,-2.635 -5.438,-3.869 -9.194,-3.869 -4.653,0 -9.474,3.196 -9.474,9.026 0,5.887 4.765,8.97 9.474,8.97 3.756,0 6.839,-1.233 9.194,-3.868 v 5.494 c 0,4.036 -3.252,6.223 -7.232,6.223 -3.42,0 -6.054,-1.178 -8.521,-3.981 l -1.626,2.019 c 2.803,3.027 5.943,4.54 10.427,4.54 5.494,0 9.867,-2.634 9.867,-8.689 V -5.326 Z"
             style="fill:#ffffff;fill-opacity:1;fill-rule:nonzero;stroke:none"
             id="path4475"
             inkscape:connector-curvature="0" /></g><g
           id="g4477"
           transform="translate(355.035,311.1335)"><path
             d="m 0,0 v 19.285 h -4.485 v 2.579 H 0 v 7.4 h 2.971 v -7.4 H 8.465 V 19.285 H 2.971 V 0.448 c 0,-2.186 0.897,-3.7 2.803,-3.7 1.29,0 2.411,0.617 3.028,1.29 L 9.923,-4.205 C 8.858,-5.214 7.568,-5.886 5.326,-5.886 1.738,-5.886 0,-3.7 0,0"
             style="fill:#ffffff;fill-opacity:1;fill-rule:nonzero;stroke:none"
             id="path4479"
             inkscape:connector-curvature="0" /></g><g
           id="g4481"
           transform="translate(381.3271,331.1473)"><path
             d="M 0,0 C -6.391,0 -9.586,-5.606 -9.811,-10.315 H 9.867 C 9.811,-5.718 6.783,0 0,0 m -12.95,-11.661 c 0,7.849 5.494,14.184 13.006,14.184 8.241,0 12.782,-6.503 12.782,-14.352 v -0.785 H -9.811 c 0.281,-5.886 4.205,-10.763 10.596,-10.763 3.42,0 6.559,1.289 8.857,3.756 l 1.514,-1.906 C 8.465,-24.331 5.046,-25.9 0.561,-25.9 c -7.905,0 -13.511,5.886 -13.511,14.239"
             style="fill:#ffffff;fill-opacity:1;fill-rule:nonzero;stroke:none"
             id="path4483"
             inkscape:connector-curvature="0" /></g><path
           d="m 400.667,332.997 h 7.12 V 305.92 h -7.12 z m -0.673,7.176 c 0,2.355 1.906,4.205 4.205,4.205 2.354,0 4.26,-1.85 4.26,-4.205 0,-2.354 -1.906,-4.26 -4.26,-4.26 -2.299,0 -4.205,1.906 -4.205,4.26"
           style="fill:#ffffff;fill-opacity:1;fill-rule:nonzero;stroke:none"
           id="path4485"
           inkscape:connector-curvature="0" /><g
           id="g4487"
           transform="translate(433.1255,305.9199)"><path
             d="m 0,0 v 16.37 c 0,3.756 -1.962,5.045 -4.989,5.045 -2.803,0 -4.934,-1.569 -6.167,-3.139 V 0 h -7.12 v 27.077 h 7.12 v -3.475 c 1.738,2.018 5.101,4.148 9.474,4.148 5.999,0 8.858,-3.363 8.858,-8.633 L 7.176,0 Z"
             style="fill:#ffffff;fill-opacity:1;fill-rule:nonzero;stroke:none"
             id="path4489"
             inkscape:connector-curvature="0" /></g><g
           id="g4491"
           transform="translate(448.7659,312.7032)"><path
             d="m 0,0 v 14.071 h -4.485 v 6.223 H 0 v 7.4 h 7.12 v -7.4 h 5.494 V 14.071 H 7.12 V 1.906 c 0,-1.738 0.897,-3.027 2.466,-3.027 1.066,0 2.075,0.392 2.467,0.841 l 1.514,-5.438 C 12.502,-6.671 10.596,-7.456 7.624,-7.456 2.635,-7.456 0,-4.877 0,0"
             style="fill:#ffffff;fill-opacity:1;fill-rule:nonzero;stroke:none"
             id="path4493"
             inkscape:connector-curvature="0" /></g><g
           id="g4495"
           transform="translate(478.5339,327.8398)"><path
             d="M 0,0 C -4.429,0 -6.335,-3.083 -6.615,-5.774 H 6.727 C 6.503,-3.195 4.709,0 0,0 m -14.015,-8.353 c 0,7.848 5.83,14.183 14.015,14.183 8.129,0 13.567,-6.054 13.567,-14.856 v -1.682 H -6.559 c 0.504,-3.307 3.195,-6.054 7.792,-6.054 2.299,0 5.438,0.953 7.176,2.635 l 3.196,-4.71 c -2.691,-2.466 -6.952,-3.756 -11.157,-3.756 -8.241,0 -14.463,5.55 -14.463,14.24"
             style="fill:#ffffff;fill-opacity:1;fill-rule:nonzero;stroke:none"
             id="path4497"
             inkscape:connector-curvature="0" /></g><g
           id="g4499"
           transform="translate(497.2575,305.9199)"><path
             d="m 0,0 v 27.077 h 7.12 v -3.643 c 1.962,2.354 5.27,4.316 8.633,4.316 v -6.951 c -0.504,0.112 -1.121,0.168 -1.962,0.168 -2.355,0 -5.494,-1.346 -6.671,-3.084 V 0 Z"
             style="fill:#ffffff;fill-opacity:1;fill-rule:nonzero;stroke:none"
             id="path4501"
             inkscape:connector-curvature="0" /></g><g
           id="g4503"
           transform="translate(535.7143,305.9199)"><path
             d="m 0,0 v 16.37 c 0,3.756 -1.962,5.045 -4.989,5.045 -2.803,0 -4.934,-1.569 -6.167,-3.139 V 0 h -7.12 v 27.077 h 7.12 v -3.475 c 1.738,2.018 5.101,4.148 9.474,4.148 5.999,0 8.858,-3.363 8.858,-8.633 L 7.176,0 Z"
             style="fill:#ffffff;fill-opacity:1;fill-rule:nonzero;stroke:none"
             id="path4505"
             inkscape:connector-curvature="0" /></g><g
           id="g4507"
           transform="translate(562.1744,327.8398)"><path
             d="M 0,0 C -4.429,0 -6.335,-3.083 -6.615,-5.774 H 6.727 C 6.503,-3.195 4.709,0 0,0 m -14.015,-8.353 c 0,7.848 5.83,14.183 14.015,14.183 8.129,0 13.567,-6.054 13.567,-14.856 v -1.682 H -6.559 c 0.504,-3.307 3.195,-6.054 7.792,-6.054 2.299,0 5.438,0.953 7.176,2.635 l 3.196,-4.71 c -2.691,-2.466 -6.952,-3.756 -11.156,-3.756 -8.241,0 -14.464,5.55 -14.464,14.24"
             style="fill:#ffffff;fill-opacity:1;fill-rule:nonzero;stroke:none"
             id="path4509"
             inkscape:connector-curvature="0" /></g><g
           id="g4511"
           transform="translate(582.3556,312.7032)"><path
             d="m 0,0 v 14.071 h -4.485 v 6.223 H 0 v 7.4 h 7.12 v -7.4 h 5.494 V 14.071 H 7.12 V 1.906 c 0,-1.738 0.897,-3.027 2.466,-3.027 1.066,0 2.075,0.392 2.467,0.841 l 1.514,-5.438 C 12.502,-6.671 10.596,-7.456 7.624,-7.456 2.635,-7.456 0,-4.877 0,0"
             style="fill:#ffffff;fill-opacity:1;fill-rule:nonzero;stroke:none"
             id="path4513"
             inkscape:connector-curvature="0" /></g><g
           id="g4515"
           transform="translate(618.066,311.2456)"><path
             d="m 0,0 v 5.943 c -1.906,2.522 -4.933,3.756 -8.185,3.756 -4.429,0 -7.4,-2.86 -7.4,-6.728 0,-3.812 2.971,-6.671 7.4,-6.671 3.252,0 6.279,1.233 8.185,3.7 m 0,-5.326 v 3.196 c -2.411,-2.635 -5.438,-3.869 -9.194,-3.869 -4.653,0 -9.474,3.196 -9.474,9.026 0,5.887 4.765,8.97 9.474,8.97 3.756,0 6.84,-1.233 9.194,-3.868 v 5.494 c 0,4.036 -3.252,6.223 -7.232,6.223 -3.42,0 -6.054,-1.178 -8.521,-3.981 l -1.626,2.019 c 2.803,3.027 5.943,4.54 10.428,4.54 5.493,0 9.866,-2.634 9.866,-8.689 V -5.326 Z"
             style="fill:#ffffff;fill-opacity:1;fill-rule:nonzero;stroke:none"
             id="path4517"
             inkscape:connector-curvature="0" /></g><g
           id="g4519"
           transform="translate(628.549,319.4866)"><path
             d="m 0,0 c 0,7.905 5.158,14.183 13.118,14.183 4.709,0 7.4,-1.85 9.587,-4.597 L 20.686,7.793 c -1.962,2.69 -4.428,3.756 -7.4,3.756 C 6.951,11.549 3.083,6.503 3.083,0 c 0,-6.503 3.868,-11.605 10.203,-11.605 2.972,0 5.438,1.122 7.4,3.813 l 2.019,-1.794 C 20.518,-12.389 17.827,-14.24 13.118,-14.24 5.158,-14.24 0,-7.905 0,0"
             style="fill:#ffffff;fill-opacity:1;fill-rule:nonzero;stroke:none"
             id="path4521"
             inkscape:connector-curvature="0" /></g><g
           id="g4523"
           transform="translate(656.2421,319.4866)"><path
             d="m 0,0 c 0,7.905 5.158,14.183 13.118,14.183 4.709,0 7.4,-1.85 9.587,-4.597 L 20.686,7.793 c -1.962,2.69 -4.428,3.756 -7.4,3.756 C 6.951,11.549 3.083,6.503 3.083,0 c 0,-6.503 3.868,-11.605 10.203,-11.605 2.972,0 5.438,1.122 7.4,3.813 l 2.019,-1.794 C 20.518,-12.389 17.827,-14.24 13.118,-14.24 5.158,-14.24 0,-7.905 0,0"
             style="fill:#ffffff;fill-opacity:1;fill-rule:nonzero;stroke:none"
             id="path4525"
             inkscape:connector-curvature="0" /></g><g
           id="g4527"
           transform="translate(696.8851,331.1473)"><path
             d="M 0,0 C -6.391,0 -9.586,-5.606 -9.811,-10.315 H 9.867 C 9.811,-5.718 6.784,0 0,0 m -12.95,-11.661 c 0,7.849 5.494,14.184 13.006,14.184 8.241,0 12.782,-6.503 12.782,-14.352 v -0.785 H -9.811 c 0.281,-5.886 4.205,-10.763 10.596,-10.763 3.42,0 6.559,1.289 8.858,3.756 l 1.513,-1.906 C 8.465,-24.331 5.046,-25.9 0.561,-25.9 c -7.905,0 -13.511,5.886 -13.511,14.239"
             style="fill:#ffffff;fill-opacity:1;fill-rule:nonzero;stroke:none"
             id="path4529"
             inkscape:connector-curvature="0" /></g><g
           id="g4531"
           transform="translate(714.8796,309.5638)"><path
             d="m 0,0 1.738,2.13 c 1.738,-2.186 4.933,-3.98 8.745,-3.98 4.541,0 7.232,2.355 7.232,5.494 0,7.4 -17.098,3.195 -17.098,12.95 0,4.149 3.531,7.512 9.642,7.512 4.653,0 7.737,-1.794 9.699,-3.98 l -1.626,-2.074 c -1.57,2.13 -4.485,3.588 -8.073,3.588 -4.204,0 -6.727,-2.131 -6.727,-4.934 0,-6.783 17.042,-2.635 17.042,-13.062 0,-4.373 -3.363,-7.961 -10.147,-7.961 C 6.055,-4.317 2.691,-3.027 0,0"
             style="fill:#ffffff;fill-opacity:1;fill-rule:nonzero;stroke:none"
             id="path4533"
             inkscape:connector-curvature="0" /></g><g
           id="g4535"
           transform="translate(740.6112,309.5638)"><path
             d="m 0,0 1.738,2.13 c 1.738,-2.186 4.933,-3.98 8.745,-3.98 4.541,0 7.232,2.355 7.232,5.494 0,7.4 -17.098,3.195 -17.098,12.95 0,4.149 3.531,7.512 9.642,7.512 4.653,0 7.737,-1.794 9.699,-3.98 l -1.626,-2.074 c -1.57,2.13 -4.485,3.588 -8.073,3.588 -4.204,0 -6.727,-2.131 -6.727,-4.934 0,-6.783 17.042,-2.635 17.042,-13.062 0,-4.373 -3.363,-7.961 -10.147,-7.961 C 6.055,-4.317 2.691,-3.027 0,0"
             style="fill:#ffffff;fill-opacity:1;fill-rule:nonzero;stroke:none"
             id="path4537"
             inkscape:connector-curvature="0" /></g><g
           id="g4539"
           transform="translate(786.8195,326.4726)"><path
             d="M 0,0 V 10.102 L -4.163,0 H -4.607 L -8.77,10.102 V 0 h -1.554 v 12.211 h 2.387 l 3.552,-8.881 3.552,8.881 H 1.554 V 0 Z M -15.763,10.768 V 0 h -1.554 v 10.768 h -3.442 v 1.443 h 8.437 v -1.443 z"
             style="fill:#ffffff;fill-opacity:1;fill-rule:nonzero;stroke:none"
             id="path4541"
             inkscape:connector-curvature="0" /></g></g></g></g></svg>