<svg xmlns="http://www.w3.org/2000/svg" viewBox="0 0 248 38"><switch><path d="M27.019 14.656v.001h-1.302v-1.164c0-5.775-4.708-10.456-10.515-10.456-5.806 0-10.514 4.682-10.514 10.456v1.164h-1.3a2.463 2.463 0 0 0-2.471 2.457v9.599c.003.64.041 1.104.291 1.442.259.34.695.461 1.346.46h2.091l.319 5.055-.001.057c.001.134.016.442.185.737.167.298.518.564 1.085.559h5.315l2.76-2.928h2.062l2.669 3.019h4.766c.411-.002.786.008 1.112-.199.325-.212.52-.614.614-1.315.137-1.019.169-3.807.232-4.984h2.089c.643-.002 1.063-.063 1.336-.357.263-.298.298-.724.301-1.363v-9.781a2.465 2.465 0 0 0-2.47-2.459z" fill="#349334"/><path d="M29.16 26.896c.003.629-.06.981-.216 1.143-.145.169-.461.251-1.091.249h-2.402l-.008.155c-.058 1.109-.097 4.075-.237 5.113-.09.67-.265.954-.468 1.084-.204.137-.516.147-.932.145h-4.618l-2.669-3.02h-2.353l-2.76 2.928H6.233c-.471-.005-.672-.185-.8-.395a1.194 1.194 0 0 1-.141-.572l.001-.045.001-.013-.341-5.381H2.554c-.625-.001-.923-.116-1.082-.329-.168-.214-.228-.619-.226-1.246v-9.599a2.138 2.138 0 0 1 2.142-2.13h1.63v-1.491c.01-5.593 4.559-10.118 10.185-10.128 5.625.01 10.175 4.535 10.185 10.129v1.491h1.631a2.136 2.136 0 0 1 2.14 2.13v9.782z" fill="#4cb649"/><path fill="#118011" d="M5.332 28.023H25.12v.646H5.332zM5.003 28.256V15.863h.329v12.393h-.329zM25.121 28.256V15.863h.33v12.393h-.33z"/><linearGradient id="a" gradientUnits="userSpaceOnUse" x1="15.054" y1="19.831" x2="15.054" y2="17.467"><stop offset="0" stop-color="#4cb649"/><stop offset="1" stop-color="#78b280"/></linearGradient><ellipse cx="15.054" cy="18.537" rx="7.086" ry="1.298" fill="url(#a)"/><path d="M21.67 15.215V13.32a6.463 6.463 0 1 0-12.927 0v1.895H21.67z" fill="#fff"/><radialGradient id="b" cx="15.428" cy="13.615" r="2.702" gradientUnits="userSpaceOnUse"><stop offset="0"/><stop offset=".19" stop-color="#030303"/><stop offset=".324" stop-color="#0c0c0c"/><stop offset=".44" stop-color="#1c1c1c"/><stop offset=".546" stop-color="#323232"/><stop offset=".646" stop-color="#4e4e4e"/><stop offset=".74" stop-color="#717171"/><stop offset=".831" stop-color="#9a9a9a"/><stop offset=".916" stop-color="#c9c9c9"/><stop offset=".999" stop-color="#fefefe"/><stop offset="1" stop-color="#fff"/></radialGradient><path fill="url(#b)" d="M12.481 13.242h5.762v.675h-5.762z"/><circle cx="13.052" cy="10.387" r="1.194"/><circle cx="17.309" cy="10.387" r="1.194"/><path fill="#fff" d="M12.885 22.417h4.337v3.24h-4.337zM13.547 22.087c.195-.683.8-1.179 1.515-1.18.715.001 1.32.497 1.516 1.18h.515c-.208-.954-1.032-1.674-2.031-1.675-.998.001-1.823.721-2.03 1.675h.515z"/><path d="M28.182 28.946c.116-.001.222-.004.324-.009v-.362a4.34 4.34 0 0 1-.654.04h-2.089c-.032.585-.055 1.567-.088 2.532h.34c.028-.854.05-1.684.077-2.201h2.09z" fill="#118011"/><linearGradient id="c" gradientUnits="userSpaceOnUse" x1="24.802" y1="27.466" x2="27.424" y2="30.213"><stop offset="0" stop-color="#23ff16"/><stop offset="1" stop-color="#189a33"/></linearGradient><path d="M28.507 29.117v-.18a8.027 8.027 0 0 1-.324.009h-2.089c-.028.518-.05 1.348-.077 2.201h.483a2.018 2.018 0 0 0 2.007-2.03z" fill="url(#c)"/><path d="M4.645 28.615H2.554c-.324.001-.593-.029-.815-.101v.421c.132.015.276.023.433.022l2.092-.001.139 2.19h.403l-.161-2.531z" fill="#118011"/><linearGradient id="d" gradientUnits="userSpaceOnUse" x1="6.38" y1="26.369" x2="2.385" y2="30.801"><stop offset="0" stop-color="#23ff16"/><stop offset="1" stop-color="#189a33"/></linearGradient><path d="M2.172 28.958c-.157 0-.301-.007-.433-.022v.182c0 1.121.898 2.03 2.005 2.03h.658l-.139-2.19H2.172z" fill="url(#d)"/><g><path d="M44.056 13.117c0 1.697-.385 3.056-1.156 4.078-.77 1.022-1.811 1.532-3.12 1.532-1.113 0-2.013-.387-2.698-1.161v5.193H34.14V7.507h2.729l.102 1.079c.713-.855 1.643-1.283 2.79-1.283 1.357 0 2.413.503 3.166 1.507.753 1.005 1.13 2.389 1.13 4.154v.153zm-2.942-.224c0-1.028-.182-1.821-.545-2.38-.363-.558-.891-.838-1.583-.838-.923 0-1.558.354-1.904 1.062v4.524c.36.728 1.001 1.093 1.924 1.093 1.406.001 2.108-1.153 2.108-3.461zM52.382 10.267a8.039 8.039 0 0 0-1.059-.081c-1.113 0-1.843.377-2.189 1.13v7.208h-2.942V7.507h2.78l.081 1.313c.591-1.011 1.408-1.517 2.454-1.517.326 0 .631.044.916.132l-.041 2.832zM54.09 4.657c0-.441.147-.804.443-1.089.295-.285.697-.428 1.206-.428.502 0 .903.143 1.201.428.299.285.448.648.448 1.089 0 .448-.151.815-.453 1.1-.302.285-.701.428-1.196.428-.496 0-.894-.143-1.196-.428-.302-.286-.453-.652-.453-1.1zm3.126 13.867h-2.953V7.507h2.953v11.017zM64.075 14.93l2.046-7.422h3.075L65.48 18.524h-2.81L58.954 7.507h3.075l2.046 7.423zM77.033 18.524a3.26 3.26 0 0 1-.295-.988c-.713.794-1.639 1.191-2.78 1.191-1.079 0-1.974-.312-2.683-.937-.709-.624-1.064-1.412-1.064-2.362 0-1.167.433-2.063 1.298-2.688.866-.624 2.116-.94 3.752-.947h1.354v-.631c0-.509-.131-.916-.392-1.222-.261-.305-.674-.458-1.237-.458-.496 0-.884.119-1.166.356-.282.238-.423.564-.423.977h-2.942c0-.638.197-1.228.591-1.772.393-.543.95-.969 1.67-1.278.719-.309 1.527-.463 2.423-.463 1.357 0 2.435.341 3.232 1.023.798.682 1.196 1.641 1.196 2.876v4.775c.007 1.045.153 1.836.438 2.372v.173h-2.972zM74.6 16.477c.434 0 .835-.097 1.201-.29a1.91 1.91 0 0 0 .815-.779v-1.894h-1.1c-1.473 0-2.257.509-2.352 1.527l-.01.173c0 .367.129.669.387.906.258.239.611.357 1.059.357zM85.664 4.799v2.708h1.884v2.158h-1.884v5.498c0 .407.078.699.234.876.156.177.455.265.896.265.326 0 .614-.024.865-.071v2.23a6.075 6.075 0 0 1-1.782.265c-2.064 0-3.116-1.042-3.156-3.126V9.666h-1.609V7.507h1.609V4.799h2.943zM94.57 18.727c-1.616 0-2.931-.495-3.945-1.486-1.015-.991-1.522-2.311-1.522-3.961v-.285c0-1.106.214-2.096.641-2.968.428-.872 1.034-1.544 1.817-2.016.784-.472 1.678-.707 2.683-.707 1.507 0 2.693.475 3.559 1.425.865.95 1.298 2.298 1.298 4.042v1.201h-7.015c.095.72.382 1.297.86 1.731.479.435 1.084.652 1.818.652 1.133 0 2.019-.411 2.657-1.232l1.446 1.619c-.441.625-1.039 1.111-1.792 1.461-.754.35-1.589.524-2.505.524zm-.336-9.051c-.584 0-1.057.198-1.42.593-.363.395-.596.961-.698 1.698h4.093v-.235c-.014-.655-.19-1.161-.529-1.519-.34-.358-.822-.537-1.446-.537zM101.47 4.326a.82.82 0 0 1 .224-.582c.149-.158.353-.238.611-.238s.463.079.616.238a.806.806 0 0 1 .229.582c0 .23-.076.422-.229.577-.152.155-.358.233-.616.233s-.462-.078-.611-.233a.803.803 0 0 1-.224-.577zm1.436 14.198h-1.222V7.507h1.222v11.017zM107.688 7.507l.041 1.884c.414-.679.93-1.196 1.548-1.553a4.014 4.014 0 0 1 2.046-.535c1.181 0 2.06.333 2.637.998s.869 1.663.876 2.993v7.229h-1.212v-7.239c-.007-.984-.215-1.717-.626-2.199-.411-.482-1.067-.723-1.97-.723-.753 0-1.42.236-2.001.707-.58.472-1.01 1.108-1.288 1.909v7.544h-1.212V7.507h1.161zM120.188 4.687v2.82h2.281v.998h-2.281v7.349c0 .612.11 1.067.331 1.366.22.299.589.448 1.105.448.204 0 .533-.034.988-.102l.051.989c-.319.114-.753.171-1.303.171-.835 0-1.442-.243-1.822-.728-.38-.485-.57-1.2-.57-2.143v-7.35h-2.026v-.998h2.026v-2.82h1.22zM129.573 18.727c-.937 0-1.783-.231-2.54-.692a4.71 4.71 0 0 1-1.766-1.929c-.421-.825-.631-1.75-.631-2.775v-.438c0-1.059.205-2.012.616-2.861.411-.848.982-1.515 1.715-2.001a4.234 4.234 0 0 1 2.382-.728c1.337 0 2.398.457 3.182 1.37.784.913 1.176 2.16 1.176 3.742v.682h-7.86v.234c0 1.249.358 2.289 1.074 3.121.716.831 1.617 1.247 2.703 1.247.652 0 1.227-.119 1.726-.356.499-.237.952-.617 1.359-1.14l.764.58c-.897 1.296-2.197 1.944-3.9 1.944zm-.224-10.385c-.916 0-1.688.336-2.316 1.008-.628.672-1.01 1.575-1.145 2.708h6.608v-.132c-.034-1.059-.336-1.921-.906-2.586-.572-.665-1.319-.998-2.241-.998zM141.482 8.546a4.6 4.6 0 0 0-.825-.071c-.76 0-1.403.212-1.93.636-.526.424-.901 1.04-1.125 1.848v7.565h-1.212V7.507h1.191l.02 1.751c.645-1.303 1.68-1.955 3.105-1.955.339 0 .607.044.804.132l-.028 1.111zM144.88 7.507l.041 1.884c.414-.679.93-1.196 1.548-1.553a4.014 4.014 0 0 1 2.046-.535c1.181 0 2.06.333 2.637.998s.869 1.663.876 2.993v7.229h-1.212v-7.239c-.007-.984-.215-1.717-.626-2.199-.411-.482-1.067-.723-1.97-.723-.753 0-1.42.236-2.001.707-.58.472-1.01 1.108-1.288 1.909v7.544h-1.212V7.507h1.161zM159.752 18.727c-.937 0-1.783-.231-2.54-.692a4.71 4.71 0 0 1-1.766-1.929c-.421-.825-.631-1.75-.631-2.775v-.438c0-1.059.205-2.012.616-2.861.411-.848.982-1.515 1.715-2.001a4.234 4.234 0 0 1 2.382-.728c1.337 0 2.398.457 3.182 1.37.784.913 1.176 2.16 1.176 3.742v.682h-7.86v.234c0 1.249.358 2.289 1.074 3.121.716.831 1.617 1.247 2.703 1.247.652 0 1.227-.119 1.726-.356.499-.237.952-.617 1.359-1.14l.764.58c-.896 1.296-2.196 1.944-3.9 1.944zm-.224-10.385c-.916 0-1.688.336-2.316 1.008-.628.672-1.01 1.575-1.145 2.708h6.608v-.132c-.034-1.059-.336-1.921-.906-2.586-.571-.665-1.318-.998-2.241-.998zM168.465 4.687v2.82h2.281v.998h-2.281v7.349c0 .612.11 1.067.331 1.366.22.299.589.448 1.105.448.204 0 .533-.034.988-.102l.051.989c-.319.114-.753.171-1.303.171-.835 0-1.442-.243-1.822-.728-.38-.485-.57-1.2-.57-2.143v-7.35h-2.026v-.998h2.026v-2.82h1.22zM180.537 18.524c-.122-.346-.2-.859-.234-1.537a4.245 4.245 0 0 1-1.634 1.288 5.004 5.004 0 0 1-2.102.453c-1.059 0-1.916-.295-2.571-.886-.655-.591-.983-1.337-.983-2.24 0-1.072.446-1.921 1.339-2.545.893-.624 2.136-.937 3.732-.937h2.209v-1.252c0-.787-.243-1.407-.728-1.858-.485-.451-1.193-.677-2.123-.677-.849 0-1.551.217-2.108.652-.557.435-.835.957-.835 1.568l-1.222-.01c0-.876.407-1.634 1.222-2.275.815-.642 1.816-.962 3.004-.962 1.228 0 2.198.307 2.907.922.709.614 1.074 1.471 1.094 2.571v5.213c0 1.066.112 1.863.336 2.393v.122h-1.303zm-3.828-.876c.815 0 1.543-.197 2.184-.591a3.47 3.47 0 0 0 1.4-1.578v-2.423h-2.179c-1.215.014-2.165.236-2.851.667-.686.431-1.028 1.023-1.028 1.777 0 .618.229 1.13.687 1.537.458.408 1.054.611 1.787.611zM189.137 17.699c.848 0 1.559-.239 2.133-.718.574-.479.884-1.098.932-1.858h1.171a3.45 3.45 0 0 1-.631 1.838 3.956 3.956 0 0 1-1.542 1.298 4.655 4.655 0 0 1-2.062.468c-1.446 0-2.591-.502-3.436-1.507-.845-1.004-1.268-2.355-1.268-4.052v-.367c0-1.086.19-2.046.57-2.881.38-.835.925-1.48 1.634-1.934.709-.455 1.539-.682 2.489-.682 1.208 0 2.204.36 2.988 1.079.784.72 1.203 1.666 1.257 2.841h-1.171c-.055-.862-.365-1.558-.932-2.087-.567-.529-1.281-.794-2.143-.794-1.1 0-1.953.397-2.561 1.191-.607.794-.911 1.908-.911 3.34v.356c0 1.405.304 2.501.911 3.289.609.787 1.466 1.18 2.572 1.18zM200.191 17.699c.848 0 1.559-.239 2.133-.718.574-.479.884-1.098.932-1.858h1.171a3.45 3.45 0 0 1-.631 1.838 3.956 3.956 0 0 1-1.542 1.298 4.655 4.655 0 0 1-2.062.468c-1.446 0-2.591-.502-3.436-1.507-.845-1.004-1.268-2.355-1.268-4.052v-.367c0-1.086.19-2.046.57-2.881.38-.835.925-1.48 1.634-1.934.709-.455 1.539-.682 2.489-.682 1.208 0 2.204.36 2.988 1.079.784.72 1.203 1.666 1.257 2.841h-1.171c-.055-.862-.365-1.558-.932-2.087-.567-.529-1.281-.794-2.143-.794-1.1 0-1.953.397-2.561 1.191-.607.794-.911 1.908-.911 3.34v.356c0 1.405.304 2.501.911 3.289.609.787 1.466 1.18 2.572 1.18zM211.439 18.727c-.937 0-1.783-.231-2.54-.692a4.71 4.71 0 0 1-1.766-1.929c-.421-.825-.631-1.75-.631-2.775v-.438c0-1.059.205-2.012.616-2.861.411-.848.982-1.515 1.715-2.001a4.234 4.234 0 0 1 2.382-.728c1.337 0 2.398.457 3.182 1.37.784.913 1.176 2.16 1.176 3.742v.682h-7.86v.234c0 1.249.358 2.289 1.074 3.121.716.831 1.617 1.247 2.703 1.247.652 0 1.227-.119 1.726-.356.499-.237.952-.617 1.359-1.14l.764.58c-.896 1.296-2.196 1.944-3.9 1.944zm-.224-10.385c-.916 0-1.688.336-2.316 1.008-.628.672-1.01 1.575-1.145 2.708h6.608v-.132c-.034-1.059-.336-1.921-.906-2.586-.571-.665-1.318-.998-2.241-.998zM224.856 15.724c0-.604-.243-1.089-.728-1.456s-1.217-.653-2.194-.86c-.977-.207-1.736-.444-2.276-.713-.539-.268-.94-.595-1.201-.982-.261-.387-.392-.855-.392-1.405 0-.869.363-1.587 1.089-2.154s1.656-.85 2.79-.85c1.228 0 2.214.304 2.958.911.743.608 1.115 1.4 1.115 2.378h-1.222c0-.645-.27-1.181-.809-1.609-.54-.428-1.22-.641-2.042-.641-.801 0-1.444.178-1.929.535-.485.356-.728.819-.728 1.39 0 .55.202.976.606 1.278.404.302 1.14.579 2.209.83 1.069.251 1.87.519 2.403.804.533.285.928.628 1.186 1.028.258.401.387.886.387 1.456 0 .93-.375 1.673-1.125 2.23-.75.557-1.729.835-2.937.835-1.283 0-2.323-.311-3.12-.931-.798-.621-1.196-1.407-1.196-2.357h1.222c.047.713.348 1.267.901 1.665.553.397 1.285.595 2.194.595.848 0 1.534-.187 2.057-.56.52-.375.782-.847.782-1.417zM235.726 15.724c0-.604-.243-1.089-.728-1.456s-1.217-.653-2.194-.86c-.977-.207-1.736-.444-2.276-.713-.539-.268-.94-.595-1.201-.982-.261-.387-.392-.855-.392-1.405 0-.869.363-1.587 1.089-2.154s1.656-.85 2.79-.85c1.228 0 2.214.304 2.958.911.743.608 1.115 1.4 1.115 2.378h-1.222c0-.645-.27-1.181-.809-1.609-.54-.428-1.22-.641-2.042-.641-.801 0-1.444.178-1.929.535-.485.356-.728.819-.728 1.39 0 .55.202.976.606 1.278.404.302 1.14.579 2.209.83 1.069.251 1.87.519 2.403.804.533.285.928.628 1.186 1.028.258.401.387.886.387 1.456 0 .93-.375 1.673-1.125 2.23-.75.557-1.729.835-2.937.835-1.283 0-2.323-.311-3.12-.931-.798-.621-1.196-1.407-1.196-2.357h1.222c.047.713.348 1.267.901 1.665.553.397 1.285.595 2.194.595.848 0 1.534-.187 2.057-.56.521-.375.782-.847.782-1.417z"/></g><g fill="#4e4e4f"><path d="M122.579 32.474c-.062-.123-.112-.343-.15-.659-.497.516-1.091.775-1.781.775-.617 0-1.122-.174-1.517-.523a1.692 1.692 0 0 1-.593-1.327c0-.651.248-1.157.743-1.517.495-.361 1.192-.541 2.09-.541h1.04v-.492c0-.374-.112-.671-.335-.893-.224-.222-.553-.332-.988-.332-.382 0-.701.096-.96.289-.258.193-.387.425-.387.699h-1.075c0-.312.111-.613.332-.905.221-.291.522-.521.902-.69a3.03 3.03 0 0 1 1.252-.255c.72 0 1.285.18 1.694.541.408.36.62.856.636 1.488v2.879c0 .575.073 1.031.22 1.37v.093h-1.123zm-1.775-.815c.335 0 .653-.087.954-.26.301-.174.518-.399.653-.677v-1.283h-.838c-1.311 0-1.966.384-1.966 1.15 0 .336.112.597.336.786.223.189.51.284.861.284zM126.499 32.474h-1.069v-8.879h1.069v8.879zM133.966 30.999l1.202-4.78h1.069l-1.821 6.255h-.867l-1.52-4.74-1.48 4.74h-.867l-1.815-6.255h1.064l1.231 4.682 1.457-4.682h.861l1.486 4.78zM141.267 32.474c-.062-.123-.112-.343-.15-.659-.497.516-1.091.775-1.781.775-.617 0-1.122-.174-1.517-.523a1.692 1.692 0 0 1-.593-1.327c0-.651.248-1.157.743-1.517.495-.361 1.192-.541 2.09-.541h1.04v-.492c0-.374-.112-.671-.335-.893-.224-.222-.553-.332-.988-.332-.382 0-.701.096-.96.289-.258.193-.387.425-.387.699h-1.075c0-.312.111-.613.332-.905.221-.291.522-.521.902-.69a3.03 3.03 0 0 1 1.252-.255c.72 0 1.285.18 1.694.541.408.36.62.856.636 1.488v2.879c0 .575.073 1.031.22 1.37v.093h-1.123zm-1.775-.815c.335 0 .653-.087.954-.26.301-.174.518-.399.653-.677v-1.283h-.838c-1.311 0-1.966.384-1.966 1.15 0 .336.112.597.336.786.223.189.511.284.861.284zM145.95 30.907l1.457-4.688h1.144l-2.514 7.22c-.39 1.041-1.008 1.561-1.856 1.561l-.202-.017-.398-.075v-.868l.289.023c.362 0 .645-.073.847-.219.202-.147.369-.414.5-.804l.237-.636-2.231-6.185h1.168l1.559 4.688zM153.271 30.815a.79.79 0 0 0-.327-.674c-.218-.16-.597-.298-1.139-.413s-.971-.254-1.289-.416c-.318-.162-.553-.354-.705-.578a1.382 1.382 0 0 1-.228-.798c0-.512.217-.946.65-1.3.434-.354.988-.532 1.662-.532.709 0 1.284.183 1.726.549s.662.834.662 1.405h-1.075c0-.293-.124-.545-.373-.758-.249-.211-.562-.318-.94-.318-.389 0-.694.085-.913.255a.798.798 0 0 0-.329.664c0 .259.102.453.306.584.204.131.573.256 1.107.376.534.119.966.263 1.298.428.332.166.577.365.737.599.16.233.24.517.24.852 0 .559-.224 1.007-.67 1.344-.447.337-1.027.506-1.74.506-.501 0-.944-.089-1.33-.266a2.167 2.167 0 0 1-.905-.744 1.789 1.789 0 0 1-.327-1.031h1.07c.019.358.163.642.43.852.268.211.622.315 1.061.315.404 0 .729-.082.974-.245.245-.164.367-.383.367-.656zM163.189 31.855c-.416.49-1.027.734-1.833.734-.667 0-1.174-.194-1.523-.581-.349-.387-.525-.96-.529-1.72v-4.07h1.07v4.041c0 .948.385 1.422 1.156 1.422.817 0 1.361-.304 1.63-.913v-4.549h1.07v6.255h-1.017l-.024-.619zM169.699 30.815a.79.79 0 0 0-.327-.674c-.218-.16-.597-.298-1.139-.413-.542-.116-.971-.254-1.289-.416-.318-.162-.553-.354-.705-.578a1.382 1.382 0 0 1-.228-.798c0-.512.217-.946.65-1.3.434-.354.988-.532 1.662-.532.709 0 1.284.183 1.726.549s.662.834.662 1.405h-1.075c0-.293-.124-.545-.373-.758-.249-.211-.562-.318-.94-.318-.389 0-.694.085-.913.255a.798.798 0 0 0-.329.664c0 .259.102.453.306.584.204.131.573.256 1.107.376.534.119.966.263 1.298.428.332.166.577.365.737.599.16.233.24.517.24.852 0 .559-.224 1.007-.67 1.344-.447.337-1.027.506-1.74.506-.501 0-.944-.089-1.33-.266a2.167 2.167 0 0 1-.905-.744 1.789 1.789 0 0 1-.327-1.031h1.07c.019.358.163.642.43.852.268.211.622.315 1.061.315.404 0 .729-.082.974-.245.245-.164.367-.383.367-.656zM174.947 32.589c-.848 0-1.538-.278-2.069-.835-.532-.556-.798-1.302-.798-2.234v-.196c0-.621.118-1.175.356-1.662a2.77 2.77 0 0 1 .994-1.144 2.495 2.495 0 0 1 1.384-.413c.813 0 1.445.268 1.896.803.451.536.676 1.303.676 2.301v.446h-4.237c.015.616.196 1.115.54 1.494.345.38.784.569 1.315.569.378 0 .698-.077.959-.231.262-.154.492-.358.688-.612l.653.509c-.523.803-1.309 1.205-2.357 1.205zm-.133-5.607c-.432 0-.794.157-1.087.471-.293.314-.474.755-.544 1.321h3.133v-.081c-.031-.543-.177-.964-.439-1.263-.262-.298-.616-.448-1.063-.448zM187.5 29.416c0 .952-.218 1.719-.653 2.301-.435.582-1.025.873-1.769.873-.759 0-1.357-.241-1.792-.722v3.011h-1.069V26.22h.977l.052.694c.435-.54 1.04-.81 1.815-.81.751 0 1.346.283 1.783.85.437.567.656 1.355.656 2.364v.098zm-1.069-.121c0-.706-.15-1.262-.451-1.671-.301-.408-.713-.612-1.237-.612-.647 0-1.133.287-1.457.861v2.988c.32.571.81.855 1.469.855.512 0 .92-.203 1.223-.61.301-.406.453-1.01.453-1.811zM192.165 27.179a3.2 3.2 0 0 0-.526-.041c-.701 0-1.177.299-1.428.896v4.44h-1.069v-6.255h1.041l.017.722c.351-.558.848-.838 1.491-.838.208 0 .366.027.474.081v.995zM193.055 29.288c0-.612.12-1.163.361-1.653s.576-.867 1.006-1.133c.43-.266.92-.398 1.471-.398.852 0 1.541.295 2.066.884.526.589.789 1.374.789 2.353v.075c0 .609-.117 1.155-.35 1.639a2.645 2.645 0 0 1-1 1.13c-.433.27-.931.405-1.494.405-.848 0-1.535-.295-2.061-.884-.526-.59-.789-1.37-.789-2.341v-.077zm1.075.128c0 .694.161 1.25.483 1.671.321.42.752.63 1.292.63.544 0 .975-.213 1.295-.638.32-.426.48-1.023.48-1.79 0-.685-.163-1.242-.488-1.667a1.553 1.553 0 0 0-1.298-.639c-.528 0-.954.21-1.278.63-.324.419-.486 1.021-.486 1.803zM201.756 24.704v1.515h1.168v.827h-1.168v3.884c0 .251.052.439.156.564.104.125.281.188.532.188.123 0 .293-.023.509-.069v.862a3.142 3.142 0 0 1-.821.115c-.478 0-.838-.145-1.081-.434-.243-.288-.364-.7-.364-1.231v-3.879h-1.139v-.827h1.139v-1.515h1.069zM206.818 32.589c-.848 0-1.538-.278-2.069-.835-.532-.556-.798-1.302-.798-2.234v-.196c0-.621.118-1.175.356-1.662a2.77 2.77 0 0 1 .994-1.144 2.495 2.495 0 0 1 1.384-.413c.813 0 1.445.268 1.896.803.451.536.676 1.303.676 2.301v.446h-4.237c.015.616.196 1.115.54 1.494.345.38.784.569 1.315.569.378 0 .698-.077.959-.231.262-.154.492-.358.688-.612l.653.509c-.523.803-1.309 1.205-2.357 1.205zm-.134-5.607c-.432 0-.794.157-1.087.471-.293.314-.474.755-.544 1.321h3.133v-.081c-.031-.543-.177-.964-.439-1.263-.261-.298-.615-.448-1.063-.448zM213.319 31.716a1.54 1.54 0 0 0 1-.347 1.22 1.22 0 0 0 .474-.867h1.012c-.019.358-.143.7-.37 1.023a2.439 2.439 0 0 1-.911.774c-.38.193-.781.289-1.205.289-.852 0-1.529-.285-2.032-.853-.503-.568-.755-1.346-.755-2.333v-.179c0-.608.112-1.15.335-1.624.224-.474.544-.842.962-1.104.418-.262.913-.393 1.483-.393.701 0 1.284.21 1.749.63.464.42.712.965.743 1.636h-1.012a1.475 1.475 0 0 0-.459-.997 1.432 1.432 0 0 0-1.021-.39c-.543 0-.964.196-1.263.586-.299.391-.448.957-.448 1.697v.202c0 .721.149 1.276.445 1.665.298.391.722.585 1.273.585zM218.879 24.704v1.515h1.168v.827h-1.168v3.884c0 .251.052.439.156.564.104.125.281.188.532.188.123 0 .293-.023.509-.069v.862a3.142 3.142 0 0 1-.821.115c-.478 0-.838-.145-1.081-.434-.243-.288-.364-.7-.364-1.231v-3.879h-1.139v-.827h1.139v-1.515h1.069zM221.429 24.56c0-.173.053-.32.159-.439.106-.119.263-.179.471-.179.208 0 .366.06.474.179a.63.63 0 0 1 .162.439.611.611 0 0 1-.162.434c-.108.116-.266.174-.474.174-.208 0-.365-.058-.471-.174a.618.618 0 0 1-.159-.434zm1.156 7.914h-1.069v-6.255h1.069v6.255zM224.216 29.288c0-.612.12-1.163.361-1.653s.576-.867 1.006-1.133c.43-.266.92-.398 1.471-.398.852 0 1.541.295 2.066.884.526.589.789 1.374.789 2.353v.075c0 .609-.117 1.155-.35 1.639a2.645 2.645 0 0 1-1 1.13c-.433.27-.931.405-1.494.405-.848 0-1.535-.295-2.061-.884-.526-.59-.789-1.37-.789-2.341v-.077zm1.074.128c0 .694.161 1.25.483 1.671.321.42.752.63 1.292.63.544 0 .975-.213 1.295-.638.32-.426.48-1.023.48-1.79 0-.685-.163-1.242-.488-1.667a1.553 1.553 0 0 0-1.298-.639c-.528 0-.954.21-1.278.63-.324.419-.486 1.021-.486 1.803zM232.517 26.219l.035.786c.477-.601 1.102-.902 1.873-.902 1.322 0 1.989.746 2 2.237v4.133h-1.069v-4.139c-.004-.451-.107-.784-.309-1-.202-.216-.518-.324-.945-.324a1.54 1.54 0 0 0-.913.277 1.893 1.893 0 0 0-.613.728v4.457h-1.069v-6.255h1.01z"/></g><g><path d="M242.751 4.675h-.759v1.307h-.428v-3.23h1.07c.363 0 .644.083.839.248.196.166.294.407.294.723a.87.87 0 0 1-.163.526.976.976 0 0 1-.454.335l.759 1.371v.026h-.457l-.701-1.306zm-.758-.348h.655c.211 0 .38-.054.504-.164a.556.556 0 0 0 .187-.44c0-.2-.059-.353-.178-.46s-.291-.161-.516-.163h-.652v1.227z"/></g><g><path d="M242.59 7.829c-1.883 0-3.414-1.531-3.414-3.414S240.708 1 242.59 1c1.883 0 3.414 1.531 3.414 3.414s-1.531 3.415-3.414 3.415zm0-6.323c-1.604 0-2.909 1.305-2.909 2.909s1.305 2.909 2.909 2.909c1.604 0 2.909-1.305 2.909-2.909s-1.305-2.909-2.909-2.909z"/></g><g><path d="M240.698 23.54h-.638v1.099h-.36v-2.715h.899c.305 0 .541.069.706.209.164.139.247.342.247.607a.726.726 0 0 1-.137.442.81.81 0 0 1-.381.281l.637 1.152v.022h-.383l-.59-1.097zm-.638-.292h.551a.617.617 0 0 0 .424-.139.47.47 0 0 0 .157-.37c0-.168-.05-.297-.15-.386-.1-.09-.244-.135-.433-.136h-.548v1.031z" fill="#4e4e4f"/></g><g><path d="M240.562 26.191c-1.583 0-2.87-1.287-2.87-2.87s1.287-2.87 2.87-2.87 2.87 1.287 2.87 2.87-1.287 2.87-2.87 2.87zm0-5.316a2.448 2.448 0 0 0-2.445 2.445 2.448 2.448 0 0 0 2.445 2.445 2.448 2.448 0 0 0 2.445-2.445 2.447 2.447 0 0 0-2.445-2.445z" fill="#4e4e4f"/></g></switch></svg>