<svg xmlns="http://www.w3.org/2000/svg" width="692.582" height="293.05"><defs><clipPath clipPathUnits="userSpaceOnUse" id="a"><path d="M0 733.271h1013.12V0H0z"/></clipPath><radialGradient fx="0" fy="0" cx="0" cy="0" r="1" gradientUnits="userSpaceOnUse" gradientTransform="rotate(146.36 228.657 303.75) scale(39.87315)" spreadMethod="pad" id="b"><stop offset="0" stop-color="#23ff16"/><stop offset=".673" stop-color="#23ff16"/><stop offset="1" stop-color="#1ac50f"/></radialGradient><clipPath clipPathUnits="userSpaceOnUse" id="c"><path d="M0 733.271h1013.12V0H0z"/></clipPath><linearGradient x1="0" y1="0" x2="1" y2="0" gradientUnits="userSpaceOnUse" gradientTransform="rotate(56.36 -101.53 763.919) scale(6.34452)" spreadMethod="pad" id="d"><stop offset="0" stop-color="#23ff16"/><stop offset="1" stop-color="#91ff8a"/></linearGradient><clipPath clipPathUnits="userSpaceOnUse" id="e"><path d="M0 733.271h1013.12V0H0z"/></clipPath><linearGradient x1="0" y1="0" x2="1" y2="0" gradientUnits="userSpaceOnUse" gradientTransform="rotate(-81.607 530.07 -145.008) scale(16.01098)" spreadMethod="pad" id="f"><stop offset="0" stop-color="#23ff16"/><stop offset="1" stop-color="#189a33"/></linearGradient><clipPath clipPathUnits="userSpaceOnUse" id="g"><path d="M0 733.271h1013.12V0H0z"/></clipPath><clipPath clipPathUnits="userSpaceOnUse" id="h"><path d="M242.202 493.805h136.979V356.827H242.202z"/></clipPath><linearGradient x1="0" y1="0" x2="1" y2="0" gradientUnits="userSpaceOnUse" gradientTransform="scale(136.97835) rotate(-90 2.94 .712)" spreadMethod="pad" id="i"><stop offset="0" stop-color="#96ef75"/><stop offset=".183" stop-color="#52f752"/><stop offset=".517" stop-color="#1bc91b"/><stop offset="1" stop-color="#047204"/></linearGradient><clipPath clipPathUnits="userSpaceOnUse" id="j"><path d="M0 733.271h1013.12V0H0z"/></clipPath></defs><g clip-path="url(#a)" transform="matrix(1.25 0 0 -1.25 -292.885 628.486)"><path d="M445.455 275.79v2.298c-.724.974-1.998 1.474-3.296 1.474-1.773 0-2.997-1.1-2.997-2.622 0-1.55 1.224-2.647 2.997-2.647 1.298 0 2.572.499 3.296 1.498m0-2.547v1.373c-.974-1.1-2.372-1.673-3.996-1.673-2.022 0-4.195 1.374-4.195 3.996 0 2.722 2.148 3.97 4.195 3.97 1.649 0 3.022-.524 3.996-1.623v2.173c0 1.598-1.3 2.522-3.047 2.522-1.448 0-2.622-.5-3.696-1.673l-.874 1.298c1.299 1.349 2.847 1.998 4.82 1.998 2.572 0 4.67-1.15 4.67-4.07v-8.291zM457.566 289.9h1.873v-16.657h-1.873zM472.449 279.287c0 2.447-1.423 4.645-3.996 4.645-2.572 0-3.995-2.198-3.995-4.645 0-2.472 1.423-4.67 3.995-4.67 2.573 0 3.996 2.198 3.996 4.67m-9.964 0c0 3.496 2.297 6.318 5.968 6.318 3.67 0 5.969-2.822 5.969-6.318 0-3.496-2.298-6.343-5.97-6.343-3.67 0-5.967 2.847-5.967 6.343M485.634 273.243v7.891c0 2.148-1.1 2.797-2.722 2.797-1.473 0-2.847-.899-3.571-1.873v-8.815h-1.873v12.062h1.873v-1.748c.849 1.024 2.497 2.047 4.32 2.047 2.497 0 3.82-1.273 3.82-3.895v-8.466zM499.993 276.54v5.444c-.65 1.049-2.123 1.948-3.596 1.948-2.447 0-3.896-1.998-3.896-4.67 0-2.672 1.449-4.645 3.896-4.645 1.473 0 2.947.874 3.596 1.923m0-3.296v1.798c-.9-1.224-2.372-2.098-4.071-2.098-3.147 0-5.37 2.397-5.37 6.318 0 3.87 2.223 6.343 5.37 6.343 1.624 0 3.097-.8 4.07-2.123v6.418h1.874v-16.656zM514.876 279.287c0 2.447-1.424 4.645-3.996 4.645s-3.995-2.198-3.995-4.645c0-2.472 1.423-4.67 3.995-4.67s3.996 2.198 3.996 4.67m-9.964 0c0 3.496 2.297 6.318 5.968 6.318 3.67 0 5.969-2.822 5.969-6.318 0-3.496-2.298-6.343-5.97-6.343-3.67 0-5.967 2.847-5.967 6.343M528.06 273.243v7.891c0 2.148-1.098 2.797-2.721 2.797-1.473 0-2.847-.899-3.571-1.873v-8.815h-1.873v12.062h1.873v-1.748c.849 1.024 2.497 2.047 4.32 2.047 2.497 0 3.82-1.273 3.82-3.895v-8.466zM534.004 276.49v5.494h-1.998v3.32h1.998v3.298h3.846v-3.297h2.447v-3.321h-2.447v-4.42c0-.7.399-1.224 1.049-1.224.424 0 .849.15.974.3l.749-2.897c-.475-.45-1.424-.8-2.847-.8-2.447 0-3.771 1.225-3.771 3.547M542.194 273.243v12.062h3.846v-1.474c.799.974 2.347 1.798 3.771 1.798v-3.696c-.225.075-.55.1-.949.1-.999 0-2.323-.424-2.822-1.098v-7.692zM559.7 273.243v1.448c-.75-.849-2.123-1.748-4.17-1.748-2.722 0-3.971 1.574-3.971 3.771v8.591h3.846v-6.993c0-1.473.749-1.972 1.998-1.972 1.098 0 1.847.6 2.297 1.173v7.792h3.846v-12.062zM565.318 274.817l1.598 2.747c.899-.8 2.822-1.623 4.246-1.623 1.148 0 1.623.324 1.623.849 0 1.498-7.017-.05-7.017 4.845 0 2.122 1.848 3.97 5.169 3.97 2.048 0 3.746-.65 5.044-1.598l-1.473-2.722c-.724.699-2.098 1.323-3.546 1.323-.9 0-1.498-.35-1.498-.824 0-1.323 6.992.05 6.992-4.894 0-2.298-2.023-3.946-5.47-3.946-2.172 0-4.394.724-5.668 1.873M579.227 276.49v5.494h-1.998v3.32h1.998v3.298h3.846v-3.297h2.447v-3.321h-2.447v-4.42c0-.7.4-1.224 1.05-1.224.423 0 .848.15.972.3l.75-2.897c-.475-.45-1.424-.8-2.847-.8-2.448 0-3.77 1.225-3.77 3.547M602.451 273.243v8.191c0 1.523-.649 2.497-2.223 2.497-1.248 0-2.572-.874-3.196-1.848v-8.84h-1.873v8.191c0 1.523-.624 2.497-2.223 2.497-1.223 0-2.522-.899-3.17-1.873v-8.815h-1.874v12.062h1.873v-1.748c.524.774 2.123 2.047 3.921 2.047 1.823 0 2.871-.998 3.221-2.247.674 1.1 2.297 2.247 4.046 2.247 2.197 0 3.371-1.223 3.371-3.646v-8.715zM613.289 284.057c-2.572 0-3.846-2.173-3.946-3.996h7.917c-.025 1.773-1.224 3.996-3.971 3.996m-5.92-4.77c0 3.496 2.499 6.318 5.945 6.318 3.646 0 5.794-2.847 5.794-6.468v-.474h-9.74c.15-2.273 1.723-4.17 4.32-4.17 1.399 0 2.773.549 3.746 1.548l.899-1.224c-1.223-1.2-2.846-1.873-4.794-1.873-3.596 0-6.17 2.572-6.17 6.343M630.869 276.54v5.444c-.65 1.049-2.123 1.948-3.596 1.948-2.447 0-3.896-1.998-3.896-4.67 0-2.672 1.449-4.645 3.896-4.645 1.473 0 2.947.874 3.596 1.923m0-3.296v1.798c-.9-1.224-2.372-2.098-4.07-2.098-3.147 0-5.37 2.397-5.37 6.318 0 3.87 2.223 6.343 5.37 6.343 1.623 0 3.096-.8 4.07-2.123v6.418h1.873v-16.656zM636.487 285.305h1.873v-12.062h-1.873zm-.324 2.972c0 .699.574 1.273 1.273 1.273s1.249-.574 1.249-1.273-.55-1.249-1.249-1.249c-.699 0-1.273.55-1.273 1.249M649.648 275.79v2.298c-.724.974-1.998 1.474-3.296 1.474-1.773 0-2.997-1.1-2.997-2.622 0-1.55 1.224-2.647 2.997-2.647 1.298 0 2.572.499 3.296 1.498m0-2.547v1.373c-.974-1.1-2.372-1.673-3.996-1.673-2.022 0-4.195 1.374-4.195 3.996 0 2.722 2.148 3.97 4.195 3.97 1.649 0 3.022-.524 3.996-1.623v2.173c0 1.598-1.3 2.522-3.047 2.522-1.448 0-2.622-.5-3.695-1.673l-.875 1.298c1.299 1.349 2.847 1.998 4.82 1.998 2.572 0 4.67-1.15 4.67-4.07v-8.291zM661.06 279.287c0 3.57 2.421 6.318 6.017 6.318 2.198 0 3.497-.9 4.42-2.098l-1.248-1.123c-.799 1.098-1.823 1.548-3.072 1.548-2.547 0-4.17-1.973-4.17-4.645 0-2.672 1.623-4.67 4.17-4.67 1.25 0 2.273.5 3.072 1.573l1.248-1.148c-.923-1.2-2.222-2.098-4.42-2.098-3.596 0-6.018 2.772-6.018 6.343M683.41 279.287c0 2.447-1.424 4.645-3.997 4.645-2.572 0-3.995-2.198-3.995-4.645 0-2.472 1.423-4.67 3.995-4.67 2.573 0 3.996 2.198 3.996 4.67m-9.964 0c0 3.496 2.297 6.318 5.968 6.318s5.97-2.822 5.97-6.318c0-3.496-2.299-6.343-5.97-6.343-3.67 0-5.968 2.847-5.968 6.343M702.987 273.243v8.191c0 1.523-.649 2.497-2.223 2.497-1.248 0-2.572-.874-3.196-1.848v-8.84h-1.873v8.191c0 1.523-.624 2.497-2.223 2.497-1.223 0-2.522-.899-3.171-1.873v-8.815h-1.873v12.062h1.873v-1.748c.524.774 2.123 2.047 3.921 2.047 1.823 0 2.872-.998 3.221-2.247.674 1.1 2.298 2.247 4.046 2.247 2.197 0 3.371-1.223 3.371-3.646v-8.715zM717.945 279.287c0 2.672-1.448 4.645-3.87 4.645-1.474 0-2.948-.874-3.597-1.923v-5.444c.65-1.05 2.123-1.948 3.596-1.948 2.423 0 3.871 1.998 3.871 4.67m-7.467-4.22v-6.418h-1.873v16.656h1.873v-1.798a5.042 5.042 0 0 0 4.071 2.098c3.171 0 5.37-2.397 5.37-6.318 0-3.896-2.199-6.343-5.37-6.343-1.648 0-3.072.799-4.07 2.123M730.43 275.79v2.298c-.723.974-1.997 1.474-3.295 1.474-1.773 0-2.997-1.1-2.997-2.622 0-1.55 1.224-2.647 2.997-2.647 1.298 0 2.572.499 3.296 1.498m0-2.547v1.373c-.974-1.1-2.372-1.673-3.996-1.673-2.022 0-4.195 1.374-4.195 3.996 0 2.722 2.148 3.97 4.195 3.97 1.649 0 3.022-.524 3.996-1.623v2.173c0 1.598-1.3 2.522-3.047 2.522-1.448 0-2.622-.5-3.695-1.673l-.875 1.298c1.299 1.349 2.847 1.998 4.82 1.998 2.572 0 4.67-1.15 4.67-4.07v-8.291zM744.24 273.243v7.891c0 2.148-1.099 2.797-2.722 2.797-1.473 0-2.847-.899-3.57-1.873v-8.815h-1.874v12.062h1.873v-1.748c.85 1.024 2.497 2.047 4.32 2.047 2.497 0 3.821-1.273 3.821-3.895v-8.466zM749.484 270.222c.275-.125.724-.2 1.024-.2.824 0 1.373.275 1.798 1.274l.799 1.823-5.044 12.186h2.047l3.996-9.89 4.021 9.89h2.022l-6.043-14.51c-.724-1.747-1.948-2.421-3.546-2.446-.4 0-1.024.075-1.349.175z" fill="#999"/><path d="M582.825 467.55a28.228 28.228 0 0 0 28.308-1.763c12.97-8.631 16.529-26.088 7.945-38.988l-1.731-2.6 2.905-1.933c3.05-2.03 3.886-6.128 1.868-9.163l-14.27-21.443c-.955-1.425-1.731-2.405-2.793-2.79-1.084-.374-2.238.005-3.69.974l-4.671 3.11-8.226-10.818c-.02-.027-.045-.072-.083-.13-.201-.298-.693-.962-1.51-1.37-.814-.416-1.995-.487-3.254.366l-.798.53z" fill="#359335"/></g><path d="M582.825 466.546V382.59l1.286-.855c1.059-.691 1.776-.585 2.374-.308.587.288 1.017.839 1.166 1.069.047.072.063.102.063.102l.018.03 8.762 11.513 5.359-3.565c1.397-.926 2.235-1.115 2.906-.875.695.229 1.429 1.043 2.358 2.447l14.268 21.444c1.745 2.633 1.02 6.18-1.619 7.943l-3.642 2.423 2.216 3.331c8.293 12.511 4.857 29.383-7.694 37.766a27.384 27.384 0 0 1-27.821 1.491" fill="url(#b)" transform="matrix(1.25 0 0 -1.25 -292.885 628.486)"/><g clip-path="url(#c)" transform="matrix(1.25 0 0 -1.25 -292.885 628.486)"><path d="M582.825 404.09l13.215-8.793-.961-1.443-12.254 8.154z" fill="#fff"/><path d="M596.43 394.288l18.422 27.684-.737.49-18.422-27.684z" fill="#118011"/></g><path d="M582.825 430.59a100.804 100.804 0 0 1 3.559-2.478c8.744-5.818 16.694-9.236 17.76-7.635 1.065 1.6-5.159 7.615-13.902 13.432a93.704 93.704 0 0 1-7.417 4.478z" fill="url(#d)" transform="matrix(1.25 0 0 -1.25 -292.885 628.486)"/><g clip-path="url(#e)" transform="matrix(1.25 0 0 -1.25 -292.885 628.486)"><path d="M582.825 454.286c5.644 6.422 15.306 7.84 22.62 2.973 7.974-5.306 10.138-16.072 4.832-24.046l-2.817-4.234-24.635 16.393z" fill="#fff"/><path d="M602.343 447.946a3.205 3.205 0 1 1 5.336-3.55 3.205 3.205 0 0 1-5.336 3.55M592.832 454.275a3.203 3.203 0 1 1 5.335-3.55 3.205 3.205 0 0 1-5.335 3.55"/><path d="M582.825 422.16l4.676-3.112-4.676-7.028zM582.825 427.669a5.438 5.438 0 0 0 2.792-.907c2.229-1.485 3-4.32 2.045-6.758l-1.15.766c.58 1.817-.035 3.822-1.63 4.888a4.1 4.1 0 0 1-2.057.677z" fill="#fff"/><path d="M596.696 392.954l4.67-3.11c.723-.482 1.369-.815 1.972-.986l-.626-.94c-.318.16-.65.359-1 .593l-4.673 3.11-3.565-4.685-.9.599z" fill="#3cce33"/></g><path d="M593.474 386.936l1.47-.978c2.474-1.647 5.831-.951 7.498 1.553l.27.406c-.318.162-.65.359-1.001.594l-4.673 3.111z" fill="url(#f)" transform="matrix(1.25 0 0 -1.25 -292.885 628.486)"/><g clip-path="url(#g)" transform="matrix(1.25 0 0 -1.25 -292.885 628.486)"><path d="M602.088 438.472a15.288 15.288 0 0 0-13.39 8.714c.502.24 1.003.477 1.505.716a13.622 13.622 0 0 1 11.932-7.764l-.046-1.666"/><path d="M496.82 451.565c0 6.79-5.092 9.995-11.505 9.995h-24.14v-19.802h24.14c6.413 0 11.505 3.206 11.505 9.807m-73.74-82.604v125.792h67.14c29.42 0 45.261-19.614 45.261-43.188 0-23.386-15.84-42.999-45.262-42.999h-29.044v-39.605zM551.197 494.753h38.095V368.961h-38.095zM685.399 457.412l-12.447-40.548h24.894zm27.157-88.45l-4.526 14.71h-45.262l-4.526-14.71h-43.19l46.395 125.79h47.903l46.394-125.79z" fill="#fff"/><g clip-path="url(#h)" opacity=".1"><path d="M379.18 425.316c0-37.826-30.663-68.49-68.488-68.49-37.826 0-68.49 30.664-68.49 68.49 0 37.826 30.664 68.489 68.49 68.489 37.825 0 68.489-30.663 68.489-68.49"/></g></g><path d="M236.751 431.857c0-37.825 30.663-68.489 68.489-68.489 37.826 0 68.489 30.664 68.489 68.489 0 37.826-30.663 68.49-68.489 68.49-37.826 0-68.489-30.664-68.489-68.49" fill="url(#i)" transform="matrix(1.25 0 0 -1.25 -292.885 628.486)"/><g clip-path="url(#j)" transform="matrix(1.25 0 0 -1.25 -292.885 628.486)"><path d="M305.24 497.904c-8.917 0-17.567-1.746-25.707-5.19a65.824 65.824 0 0 1-20.995-14.155 65.828 65.828 0 0 1-14.155-20.994c-3.444-8.141-5.189-16.79-5.189-25.708 0-8.917 1.745-17.566 5.189-25.707a65.817 65.817 0 0 1 14.155-20.994A65.824 65.824 0 0 1 279.533 371c8.14-3.443 16.79-5.19 25.707-5.19 8.917 0 17.567 1.747 25.708 5.19a65.83 65.83 0 0 1 20.994 14.156 65.817 65.817 0 0 1 14.155 20.994c3.444 8.14 5.19 16.79 5.19 25.707 0 8.918-1.746 17.567-5.19 25.708a65.828 65.828 0 0 1-14.155 20.994 65.83 65.83 0 0 1-20.994 14.156c-8.141 3.443-16.791 5.189-25.708 5.189m0-136.978c-9.575 0-18.864 1.875-27.611 5.575a70.705 70.705 0 0 0-22.545 15.2 70.695 70.695 0 0 0-15.201 22.546c-3.699 8.746-5.575 18.036-5.575 27.61 0 9.575 1.876 18.865 5.575 27.61a70.695 70.695 0 0 0 15.201 22.547 70.705 70.705 0 0 0 22.545 15.2c8.747 3.7 18.036 5.575 27.611 5.575s18.864-1.875 27.611-5.575a70.705 70.705 0 0 0 22.545-15.2 70.695 70.695 0 0 0 15.201-22.546c3.699-8.746 5.575-18.036 5.575-27.611 0-9.574-1.876-18.864-5.575-27.61a70.695 70.695 0 0 0-15.201-22.546 70.705 70.705 0 0 0-22.545-15.2c-8.747-3.7-18.036-5.575-27.611-5.575" fill="#fff"/><path d="M314.449 443.423h-17.88v6.86c0 4.892 4.048 8.873 8.94 8.873 4.892 0 8.94-3.98 8.94-8.873zm16.122 0h-4.202v6.86c0 11.354-9.506 20.59-20.86 20.59-11.353 0-20.86-9.236-20.86-20.59v-6.86h-4.632c-.924 0-2.073-1.579-2.073-2.503v-37.497c0-.924 1.149-1.72 2.073-1.72h50.554c.924 0 2.503.796 2.503 1.72v37.497c0 .924-1.58 2.503-2.503 2.503M258.054 319.487c0 6.559-3.42 11.549-9.474 11.549-3.756 0-7.344-2.243-8.914-4.822v-13.398c1.57-2.58 5.158-4.934 8.914-4.934 6.054 0 9.474 5.046 9.474 11.605m-18.388-9.194v-14.688h-2.915v37.393h2.915v-4.261c1.906 2.747 5.382 4.933 9.418 4.933 7.232 0 12.11-5.494 12.11-14.183 0-8.633-4.878-14.24-12.11-14.24-3.812 0-7.232 1.963-9.418 5.046M268.536 305.92v27.077h2.915v-4.653c2.3 3.028 5.382 5.214 9.138 5.214v-3.195c-.504.112-.897.112-1.457.112-2.747 0-6.447-2.467-7.68-4.822V305.92zM286.307 332.997h2.915V305.92h-2.915zm-.785 6.503c0 1.234 1.065 2.187 2.242 2.187 1.234 0 2.243-.953 2.243-2.187a2.249 2.249 0 0 0-2.243-2.242c-1.177 0-2.242 1.009-2.242 2.242M305.59 305.92l-11.435 27.077h3.25l9.868-23.657 9.754 23.657h3.308l-11.436-27.077zM342.478 311.246v5.943c-1.906 2.522-4.933 3.756-8.185 3.756-4.429 0-7.4-2.86-7.4-6.728 0-3.812 2.971-6.671 7.4-6.671 3.252 0 6.279 1.233 8.185 3.7m0-5.326v3.196c-2.411-2.635-5.438-3.87-9.194-3.87-4.653 0-9.474 3.197-9.474 9.027 0 5.887 4.765 8.97 9.474 8.97 3.756 0 6.839-1.233 9.194-3.868v5.494c0 4.036-3.252 6.223-7.232 6.223-3.42 0-6.054-1.178-8.521-3.981l-1.626 2.019c2.803 3.027 5.943 4.54 10.427 4.54 5.494 0 9.867-2.634 9.867-8.69v-19.06zM355.035 311.134v19.285h-4.485v2.579h4.485v7.4h2.971v-7.4h5.494v-2.58h-5.494v-18.836c0-2.186.897-3.7 2.803-3.7 1.29 0 2.411.617 3.028 1.29l1.121-2.243c-1.065-1.01-2.355-1.681-4.597-1.681-3.588 0-5.326 2.186-5.326 5.886M381.327 331.147c-6.39 0-9.586-5.606-9.81-10.315h19.677c-.056 4.597-3.084 10.315-9.867 10.315m-12.95-11.66c0 7.848 5.494 14.183 13.006 14.183 8.241 0 12.782-6.503 12.782-14.352v-.785h-22.649c.281-5.886 4.205-10.763 10.596-10.763 3.42 0 6.56 1.29 8.857 3.756l1.514-1.906c-2.69-2.804-6.11-4.373-10.595-4.373-7.905 0-13.51 5.886-13.51 14.24M400.667 332.997h7.12V305.92h-7.12zm-.673 7.176a4.199 4.199 0 0 0 4.205 4.205c2.354 0 4.26-1.85 4.26-4.205a4.258 4.258 0 0 0-4.26-4.26c-2.299 0-4.205 1.906-4.205 4.26M433.125 305.92v16.37c0 3.756-1.962 5.045-4.989 5.045-2.803 0-4.934-1.57-6.167-3.14V305.92h-7.12v27.077h7.12v-3.475c1.739 2.018 5.102 4.148 9.475 4.148 5.999 0 8.858-3.363 8.858-8.633V305.92zM448.766 312.703v14.071h-4.485v6.223h4.485v7.4h7.12v-7.4h5.494v-6.223h-5.494V314.61c0-1.738.897-3.027 2.466-3.027 1.066 0 2.075.392 2.467.841l1.514-5.438c-1.065-.953-2.971-1.738-5.943-1.738-4.99 0-7.624 2.58-7.624 7.456M478.534 327.84c-4.43 0-6.335-3.083-6.615-5.774h13.342c-.224 2.579-2.018 5.774-6.727 5.774m-14.015-8.353c0 7.848 5.83 14.183 14.015 14.183 8.129 0 13.567-6.054 13.567-14.856v-1.682h-20.126c.504-3.307 3.195-6.054 7.792-6.054 2.299 0 5.438.953 7.176 2.635l3.196-4.71c-2.691-2.466-6.952-3.756-11.157-3.756-8.241 0-14.463 5.55-14.463 14.24M497.257 305.92v27.077h7.12v-3.643c1.962 2.354 5.27 4.316 8.633 4.316v-6.951c-.504.112-1.12.168-1.962.168-2.355 0-5.494-1.346-6.67-3.084V305.92zM535.714 305.92v16.37c0 3.756-1.962 5.045-4.989 5.045-2.803 0-4.934-1.57-6.167-3.14V305.92h-7.12v27.077h7.12v-3.475c1.738 2.018 5.101 4.148 9.474 4.148 6 0 8.858-3.363 8.858-8.633V305.92zM562.174 327.84c-4.429 0-6.335-3.083-6.615-5.774h13.342c-.224 2.579-2.018 5.774-6.727 5.774m-14.015-8.353c0 7.848 5.83 14.183 14.015 14.183 8.13 0 13.567-6.054 13.567-14.856v-1.682h-20.126c.504-3.307 3.195-6.054 7.792-6.054 2.3 0 5.438.953 7.176 2.635l3.196-4.71c-2.69-2.466-6.952-3.756-11.156-3.756-8.24 0-14.464 5.55-14.464 14.24M582.356 312.703v14.071h-4.485v6.223h4.485v7.4h7.12v-7.4h5.494v-6.223h-5.494V314.61c0-1.738.897-3.027 2.466-3.027 1.066 0 2.075.392 2.467.841l1.514-5.438c-1.065-.953-2.971-1.738-5.943-1.738-4.99 0-7.624 2.58-7.624 7.456M618.066 311.246v5.943c-1.906 2.522-4.933 3.756-8.185 3.756-4.429 0-7.4-2.86-7.4-6.728 0-3.812 2.971-6.671 7.4-6.671 3.252 0 6.279 1.233 8.185 3.7m0-5.326v3.196c-2.411-2.635-5.438-3.87-9.194-3.87-4.653 0-9.474 3.197-9.474 9.027 0 5.887 4.765 8.97 9.474 8.97 3.756 0 6.84-1.233 9.194-3.868v5.494c0 4.036-3.252 6.223-7.232 6.223-3.42 0-6.054-1.178-8.521-3.981l-1.626 2.019c2.803 3.027 5.943 4.54 10.428 4.54 5.493 0 9.866-2.634 9.866-8.69v-19.06zM628.549 319.487c0 7.905 5.158 14.183 13.118 14.183 4.709 0 7.4-1.85 9.587-4.597l-2.019-1.793c-1.962 2.69-4.428 3.756-7.4 3.756-6.335 0-10.203-5.046-10.203-11.55 0-6.502 3.868-11.604 10.203-11.604 2.972 0 5.438 1.122 7.4 3.813l2.019-1.794c-2.187-2.803-4.878-4.654-9.587-4.654-7.96 0-13.118 6.335-13.118 14.24M656.242 319.487c0 7.905 5.158 14.183 13.118 14.183 4.71 0 7.4-1.85 9.587-4.597l-2.019-1.793c-1.962 2.69-4.428 3.756-7.4 3.756-6.335 0-10.203-5.046-10.203-11.55 0-6.502 3.868-11.604 10.203-11.604 2.972 0 5.438 1.122 7.4 3.813l2.02-1.794c-2.188-2.803-4.879-4.654-9.588-4.654-7.96 0-13.118 6.335-13.118 14.24M696.885 331.147c-6.39 0-9.586-5.606-9.81-10.315h19.677c-.056 4.597-3.083 10.315-9.867 10.315m-12.95-11.66c0 7.848 5.494 14.183 13.006 14.183 8.241 0 12.782-6.503 12.782-14.352v-.785h-22.649c.281-5.886 4.205-10.763 10.596-10.763 3.42 0 6.56 1.29 8.858 3.756l1.513-1.906c-2.69-2.804-6.11-4.373-10.595-4.373-7.905 0-13.51 5.886-13.51 14.24M714.88 309.564l1.738 2.13c1.738-2.186 4.933-3.98 8.745-3.98 4.54 0 7.232 2.355 7.232 5.494 0 7.4-17.098 3.195-17.098 12.95 0 4.149 3.53 7.512 9.642 7.512 4.653 0 7.737-1.794 9.699-3.98l-1.626-2.074c-1.57 2.13-4.485 3.588-8.073 3.588-4.204 0-6.727-2.131-6.727-4.934 0-6.783 17.042-2.635 17.042-13.062 0-4.373-3.363-7.961-10.147-7.961-4.372 0-7.736 1.29-10.427 4.317M740.611 309.564l1.738 2.13c1.738-2.186 4.933-3.98 8.745-3.98 4.541 0 7.232 2.355 7.232 5.494 0 7.4-17.098 3.195-17.098 12.95 0 4.149 3.531 7.512 9.642 7.512 4.653 0 7.737-1.794 9.7-3.98l-1.627-2.074c-1.57 2.13-4.485 3.588-8.073 3.588-4.204 0-6.727-2.131-6.727-4.934 0-6.783 17.042-2.635 17.042-13.062 0-4.373-3.363-7.961-10.147-7.961-4.372 0-7.736 1.29-10.427 4.317M786.82 326.473v10.102l-4.164-10.102h-.444l-4.163 10.102v-10.102h-1.554v12.21h2.387l3.552-8.88 3.552 8.88h2.387v-12.21zm-15.764 10.768v-10.768h-1.554v10.768h-3.442v1.443h8.437v-1.443z" fill="#fff"/></g></svg>