<svg xmlns="http://www.w3.org/2000/svg" width="692.582" height="293.05"><g fill="#fff"><path d="M263.933 283.748v-2.871c-.905-1.218-2.497-1.843-4.12-1.843-2.216 0-3.746 1.374-3.746 3.278 0 1.936 1.53 3.308 3.746 3.308 1.623 0 3.215-.624 4.12-1.872m0 3.184v-1.717c-1.217 1.374-2.965 2.091-4.995 2.091-2.527 0-5.243-1.717-5.243-4.995 0-3.402 2.685-4.962 5.243-4.962 2.062 0 3.778.655 4.995 2.029v-2.716c0-1.998-1.623-3.153-3.808-3.153-1.81 0-3.278.625-4.62 2.091l-1.093-1.622c1.624-1.686 3.559-2.498 6.025-2.498 3.215 0 5.838 1.436 5.838 5.088v10.364zM279.072 266.111h2.342v20.821h-2.341zM297.676 279.378c0-3.06-1.779-5.807-4.995-5.807-3.215 0-4.994 2.748-4.994 5.807 0 3.09 1.78 5.837 4.994 5.837 3.216 0 4.995-2.747 4.995-5.837m-12.455 0c0-4.37 2.871-7.898 7.46-7.898s7.461 3.528 7.461 7.898c0 4.37-2.872 7.928-7.46 7.928-4.59 0-7.46-3.558-7.46-7.928M314.157 286.932v-9.864c0-2.685-1.373-3.496-3.402-3.496-1.841 0-3.559 1.124-4.464 2.341v11.019h-2.341v-15.078h2.341v2.185c1.061-1.28 3.121-2.558 5.4-2.558 3.121 0 4.776 1.59 4.776 4.868v10.583zM332.106 282.811v-6.805c-.812-1.31-2.654-2.435-4.495-2.435-3.06 0-4.87 2.498-4.87 5.838s1.81 5.806 4.87 5.806c1.84 0 3.683-1.092 4.495-2.404m0 4.12v-2.247c-1.124 1.53-2.965 2.622-5.09 2.622-3.932 0-6.71-2.996-6.71-7.897 0-4.839 2.778-7.929 6.71-7.929 2.03 0 3.872.999 5.09 2.654v-8.023h2.34v20.82zM350.71 279.378c0-3.06-1.78-5.807-4.995-5.807s-4.994 2.748-4.994 5.807c0 3.09 1.779 5.837 4.994 5.837s4.995-2.747 4.995-5.837m-12.455 0c0-4.37 2.871-7.898 7.46-7.898s7.461 3.528 7.461 7.898c0 4.37-2.873 7.928-7.461 7.928-4.589 0-7.46-3.558-7.46-7.928M367.19 286.932v-9.864c0-2.685-1.373-3.496-3.402-3.496-1.84 0-3.558 1.124-4.463 2.341v11.019h-2.342v-15.078h2.342v2.185c1.06-1.28 3.12-2.558 5.4-2.558 3.12 0 4.776 1.59 4.776 4.868v10.583zM374.62 282.874v-6.868h-2.498v-4.151h2.497v-4.121h4.808v4.121h3.059v4.151h-3.06v5.525c0 .874.5 1.53 1.312 1.53.53 0 1.061-.187 1.218-.375l.936 3.621c-.594.562-1.78 1-3.559 1-3.059 0-4.714-1.53-4.714-4.433M384.857 286.932v-15.078h4.808v1.843c.999-1.218 2.934-2.248 4.714-2.248v4.62c-.282-.094-.688-.125-1.187-.125-1.248 0-2.903.53-3.527 1.373v9.615zM406.74 286.932v-1.81c-.937 1.061-2.654 2.185-5.213 2.185-3.402 0-4.964-1.968-4.964-4.714v-10.739h4.808v8.741c0 1.842.936 2.465 2.497 2.465 1.373 0 2.309-.748 2.872-1.466v-9.74h4.807v15.078zM413.762 284.965l1.998-3.434c1.124 1 3.527 2.03 5.307 2.03 1.435 0 2.03-.406 2.03-1.062 0-1.873-8.772.062-8.772-6.056 0-2.653 2.31-4.963 6.461-4.963 2.56 0 4.683.811 6.305 1.998l-1.841 3.402c-.905-.874-2.623-1.654-4.433-1.654-1.123 0-1.872.437-1.872 1.03 0 1.654 8.74-.062 8.74 6.118 0 2.872-2.529 4.932-6.836 4.932-2.717 0-5.494-.905-7.087-2.34M431.15 282.874v-6.868h-2.498v-4.151h2.497v-4.121h4.808v4.121h3.058v4.151h-3.058v5.525c0 .874.498 1.53 1.31 1.53.53 0 1.062-.187 1.217-.375l.938 3.621c-.594.562-1.78 1-3.56 1-3.06 0-4.713-1.53-4.713-4.433M460.179 286.932v-10.239c0-1.904-.811-3.121-2.779-3.121-1.56 0-3.215 1.092-3.995 2.31v11.05h-2.341v-10.239c0-1.904-.78-3.121-2.779-3.121-1.529 0-3.152 1.124-3.964 2.341v11.019h-2.34v-15.078h2.34v2.185c.655-.967 2.654-2.558 4.902-2.558 2.278 0 3.588 1.247 4.026 2.808.842-1.373 2.871-2.808 5.057-2.808 2.747 0 4.214 1.528 4.214 4.557v10.894zM473.726 273.415c-3.215 0-4.807 2.717-4.932 4.995h9.896c-.031-2.216-1.53-4.995-4.964-4.995m-7.399 5.963c0-4.37 3.123-7.898 7.43-7.898 4.558 0 7.243 3.56 7.243 8.085v.593h-12.175c.187 2.841 2.154 5.212 5.401 5.212 1.748 0 3.465-.686 4.681-1.935l1.124 1.53c-1.529 1.5-3.557 2.342-5.992 2.342-4.495 0-7.712-3.215-7.712-7.93M495.701 282.811v-6.805c-.811-1.31-2.654-2.435-4.495-2.435-3.059 0-4.87 2.498-4.87 5.838s1.811 5.806 4.87 5.806c1.841 0 3.684-1.092 4.495-2.404m0 4.12v-2.247c-1.124 1.53-2.965 2.622-5.088 2.622-3.933 0-6.712-2.996-6.712-7.897 0-4.839 2.779-7.929 6.713-7.929 2.028 0 3.87.999 5.087 2.654v-8.023h2.341v20.82zM502.724 271.855h2.341v15.077h-2.341zm-.405-3.715c0-.874.717-1.591 1.591-1.591s1.561.717 1.561 1.59c0 .874-.687 1.562-1.561 1.562-.874 0-1.591-.688-1.591-1.561M519.174 283.748v-2.871c-.905-1.218-2.497-1.843-4.12-1.843-2.216 0-3.746 1.374-3.746 3.278 0 1.936 1.53 3.308 3.746 3.308 1.623 0 3.215-.624 4.12-1.872m0 3.184v-1.717c-1.217 1.374-2.965 2.091-4.995 2.091-2.527 0-5.243-1.717-5.243-4.995 0-3.402 2.685-4.962 5.243-4.962 2.062 0 3.778.655 4.995 2.029v-2.716c0-1.998-1.623-3.153-3.808-3.153-1.81 0-3.278.625-4.62 2.091l-1.093-1.622c1.624-1.686 3.559-2.498 6.025-2.498 3.215 0 5.838 1.436 5.838 5.088v10.364zM533.439 279.378c0-4.464 3.028-7.898 7.523-7.898 2.747 0 4.37 1.124 5.525 2.623l-1.56 1.403c-1-1.372-2.28-1.935-3.84-1.935-3.184 0-5.213 2.467-5.213 5.807 0 3.34 2.029 5.837 5.213 5.837 1.56 0 2.84-.625 3.84-1.966l1.56 1.435c-1.154 1.499-2.778 2.622-5.525 2.622-4.495 0-7.523-3.465-7.523-7.928M561.376 279.378c0-3.06-1.778-5.807-4.995-5.807-3.215 0-4.993 2.748-4.993 5.807 0 3.09 1.778 5.837 4.993 5.837 3.217 0 4.995-2.747 4.995-5.837m-12.455 0c0-4.37 2.872-7.898 7.46-7.898 4.59 0 7.462 3.528 7.462 7.898 0 4.37-2.873 7.928-7.462 7.928-4.588 0-7.46-3.558-7.46-7.928M585.849 286.932v-10.239c0-1.904-.812-3.121-2.779-3.121-1.56 0-3.215 1.092-3.995 2.31v11.05h-2.341v-10.239c0-1.904-.78-3.121-2.779-3.121-1.529 0-3.152 1.124-3.964 2.341v11.019h-2.341v-15.078h2.341v2.185c.655-.967 2.654-2.558 4.902-2.558 2.278 0 3.59 1.247 4.026 2.808.842-1.373 2.872-2.808 5.057-2.808 2.747 0 4.214 1.528 4.214 4.557v10.894zM604.547 279.378c0-3.34-1.81-5.807-4.84-5.807-1.84 0-3.683 1.093-4.494 2.404v6.805c.811 1.311 2.654 2.435 4.495 2.435 3.029 0 4.839-2.497 4.839-5.837m-9.334 5.275v8.022h-2.341v-20.82h2.34v2.248c1.093-1.53 2.967-2.623 5.09-2.623 3.963 0 6.71 2.996 6.71 7.898 0 4.87-2.747 7.928-6.71 7.928-2.06 0-3.84-.998-5.09-2.653M620.154 283.748v-2.871c-.905-1.218-2.498-1.843-4.12-1.843-2.217 0-3.747 1.374-3.747 3.278 0 1.936 1.53 3.308 3.746 3.308 1.623 0 3.215-.624 4.12-1.872m0 3.184v-1.717c-1.217 1.374-2.965 2.091-4.995 2.091-2.527 0-5.243-1.717-5.243-4.995 0-3.402 2.685-4.962 5.244-4.962 2.06 0 3.777.655 4.995 2.029v-2.716c0-1.998-1.624-3.153-3.81-3.153-1.81 0-3.277.625-4.618 2.091l-1.094-1.622c1.624-1.686 3.559-2.498 6.025-2.498 3.215 0 5.838 1.436 5.838 5.088v10.364zM637.416 286.932v-9.864c0-2.685-1.374-3.496-3.403-3.496-1.841 0-3.559 1.124-4.464 2.341v11.019h-2.341v-15.078h2.341v2.185c1.062-1.28 3.122-2.558 5.4-2.558 3.122 0 4.777 1.59 4.777 4.868v10.583zM643.97 290.709c.344.156.905.25 1.28.25 1.03 0 1.716-.344 2.248-1.593l.998-2.278-6.305-15.233h2.559l4.995 12.361 5.026-12.36h2.528l-7.554 18.135c-.905 2.185-2.435 3.028-4.433 3.06-.5 0-1.28-.095-1.686-.22zM451.467 41.434a34.23 34.23 0 0 0-15.82 3.869v15.326c7.054-8.028 19.132-9.8 28.275-3.717 9.967 6.633 12.671 20.09 6.039 30.057l-3.522 5.293-30.793-20.49v78.476l1.608 1.068c1.324.864 2.22.733 2.967.387.733-.36 1.272-1.05 1.459-1.338.058-.09.078-.127.078-.127l.021-.037 10.953-14.39 6.7 4.455c1.746 1.157 2.794 1.393 3.632 1.093.87-.286 1.786-1.303 2.948-3.058l17.834-26.805c2.18-3.291 1.275-7.726-2.024-9.93l-4.552-3.027 2.769-4.164c10.366-15.639 6.072-36.728-9.617-47.207-5.85-3.878-12.443-5.734-18.955-5.734z"/><path d="M435.646 123.373l16.519 10.991-1.202 1.804-15.317-10.192zM460.044 68.553a4.006 4.006 0 1 0 6.67 4.438 4.006 4.006 0 0 0-6.67-4.438M448.156 60.643a4.004 4.004 0 1 0 6.669 4.438 4.002 4.002 0 0 0-1.114-5.552 4.007 4.007 0 0 0-5.555 1.114M435.646 100.786l5.845 3.89-5.845 8.785zM435.646 93.9a6.797 6.797 0 0 1 3.49 1.134c2.786 1.856 3.75 5.399 2.556 8.447l-1.437-.957c.725-2.271-.044-4.778-2.038-6.11a5.124 5.124 0 0 0-2.571-.846zM448.958 144.816l1.837 1.223c3.093 2.058 7.289 1.188 9.373-1.942l.337-.507a12.277 12.277 0 0 1-1.251-.743l-5.841-3.888zM459.726 80.395a19.11 19.11 0 0 1-16.74-10.892l1.882-.895a17.028 17.028 0 0 0 14.915 9.705l-.057 2.082M316.14 64.03c0-8.487-6.365-12.495-14.381-12.495h-30.175v24.753h30.175c8.016 0 14.381-4.008 14.381-12.259m-92.175 103.255V10.044h83.924c36.776 0 56.577 24.518 56.577 53.985 0 29.233-19.8 53.749-56.577 53.749h-36.305v49.506zM563.863 56.721l-15.559 50.685h31.118zm33.946 110.563l-5.657-18.388h-56.578l-5.657 18.388h-53.986l57.992-157.239h59.879l57.992 157.239zM88.665 6.106c-11.146 0-21.959 2.183-32.134 6.487C46.7 16.75 37.87 22.703 30.288 30.288 22.705 37.87 16.75 46.7 12.594 56.53 8.289 66.706 6.108 77.518 6.108 88.665c0 11.146 2.18 21.958 6.486 32.134 4.157 9.831 10.111 18.66 17.694 26.242 7.582 7.584 16.412 13.537 26.243 17.695 10.175 4.304 20.988 6.487 32.134 6.487s21.959-2.183 32.135-6.487c9.83-4.158 18.66-10.111 26.243-17.695 7.582-7.582 13.536-16.411 17.693-26.242 4.305-10.176 6.488-20.988 6.488-32.134 0-11.147-2.183-21.959-6.488-32.135-4.157-9.83-10.111-18.66-17.693-26.242-7.583-7.584-16.413-13.537-26.243-17.695-10.176-4.304-20.989-6.487-32.135-6.487m0 171.223c-11.969 0-23.58-2.344-34.514-6.969-10.557-4.466-20.04-10.859-28.181-19-8.142-8.142-14.535-17.624-19.001-28.182C2.345 112.245 0 100.633 0 88.665c0-11.969 2.345-23.581 6.969-34.514 4.466-10.558 10.859-20.04 19.001-28.182 8.141-8.141 17.624-14.534 28.181-19C65.085 2.344 76.696 0 88.665 0c11.969 0 23.58 2.344 34.514 6.969 10.557 4.466 20.04 10.859 28.181 19 8.143 8.142 14.535 17.624 19.001 28.182 4.624 10.933 6.969 22.545 6.969 34.514 0 11.968-2.345 23.58-6.969 34.513-4.466 10.558-10.858 20.04-19.001 28.182-8.141 8.141-17.624 14.534-28.181 19-10.934 4.625-22.545 6.969-34.514 6.969"/><path d="M100.176 74.207h-22.35v-8.575c0-6.115 5.06-11.092 11.175-11.092 6.115 0 11.175 4.977 11.175 11.092zm20.152 0h-5.252v-8.575c0-14.193-11.883-25.738-26.075-25.738-14.191 0-26.075 11.545-26.075 25.738v8.575h-5.79c-1.155 0-2.591 1.973-2.591 3.128v46.872c0 1.155 1.436 2.15 2.59 2.15h63.193c1.155 0 3.13-.995 3.13-2.15V77.335c0-1.155-1.975-3.128-3.13-3.128M29.683 229.128c0-8.199-4.275-14.436-11.843-14.436-4.695 0-9.18 2.803-11.142 6.027v16.747c1.962 3.224 6.447 6.168 11.142 6.168 7.568 0 11.843-6.308 11.843-14.506M6.698 240.62v18.36H3.054V212.24h3.644v5.326c2.382-3.434 6.727-6.166 11.772-6.166 9.04 0 15.136 6.867 15.136 17.729 0 10.791-6.096 17.8-15.136 17.8-4.765 0-9.04-2.454-11.772-6.308M42.785 246.086V212.24h3.644v5.816c2.874-3.785 6.728-6.517 11.423-6.517v3.993c-.63-.14-1.122-.14-1.822-.14-3.433 0-8.058 3.084-9.6 6.028v24.666zM64.999 212.24h3.644v33.846h-3.644zm-.981-8.129c0-1.543 1.33-2.734 2.802-2.734 1.543 0 2.804 1.191 2.804 2.734a2.811 2.811 0 0 1-2.804 2.802c-1.471 0-2.802-1.26-2.802-2.802M89.103 246.086L74.81 212.24h4.063l12.334 29.571 12.192-29.571h4.135l-14.295 33.846zM135.213 239.429V232c-2.383-3.152-6.167-4.695-10.232-4.695-5.536 0-9.25 3.575-9.25 8.41 0 4.765 3.714 8.339 9.25 8.339 4.065 0 7.849-1.541 10.232-4.625m0 6.657v-3.995c-3.014 3.294-6.798 4.837-11.493 4.837-5.816 0-11.842-3.995-11.842-11.283 0-7.359 5.956-11.212 11.842-11.212 4.695 0 8.549 1.541 11.493 4.835V222.4c0-5.045-4.065-7.779-9.04-7.779-4.275 0-7.568 1.473-10.652 4.977l-2.032-2.524c3.504-3.784 7.429-5.675 13.034-5.675 6.867 0 12.333 3.292 12.333 10.861v23.826zM150.909 239.57v-24.107h-5.606v-3.224h5.606v-9.25h3.714v9.25h6.867v3.224h-6.867v23.546c0 2.733 1.12 4.625 3.503 4.625 1.613 0 3.014-.771 3.785-1.612l1.402 2.803c-1.332 1.262-2.944 2.102-5.747 2.102-4.485 0-6.657-2.733-6.657-7.358M183.774 214.552c-7.989 0-11.983 7.007-12.264 12.894h24.598c-.07-5.747-3.855-12.894-12.334-12.894m-16.188 14.576c0-9.811 6.868-17.73 16.258-17.73 10.301 0 15.977 8.129 15.977 17.94v.981h-28.31c.35 7.358 5.255 13.454 13.244 13.454 4.275 0 8.199-1.611 11.071-4.695l1.893 2.383c-3.364 3.505-7.638 5.466-13.244 5.466-9.881 0-16.889-7.358-16.889-17.799M207.949 212.24h8.9v33.846h-8.9zm-.842-8.97a5.249 5.249 0 0 1 5.257-5.257c2.942 0 5.325 2.313 5.325 5.257a5.323 5.323 0 0 1-5.325 5.325c-2.874 0-5.257-2.383-5.257-5.325M248.522 246.086v-20.462c0-4.695-2.453-6.307-6.236-6.307-3.504 0-6.168 1.962-7.71 3.924v22.845h-8.9V212.24h8.9v4.344c2.173-2.523 6.377-5.185 11.843-5.185 7.5 0 11.073 4.203 11.073 10.79v23.897zM268.072 237.607v-17.589h-5.606v-7.778h5.606v-9.25h8.9v9.25h6.868v7.778h-6.868v15.207c0 2.172 1.122 3.783 3.083 3.783 1.332 0 2.594-.49 3.084-1.051l1.892 6.798c-1.331 1.19-3.714 2.172-7.429 2.172-6.236 0-9.53-3.224-9.53-9.32M305.282 218.686c-5.536 0-7.918 3.854-8.268 7.218h16.677c-.28-3.224-2.522-7.218-8.409-7.218m-17.518 10.441c0-9.81 7.287-17.728 17.518-17.728 10.162 0 16.96 7.567 16.96 18.57v2.102h-25.158c.63 4.134 3.993 7.568 9.74 7.568 2.873 0 6.797-1.192 8.97-3.294l3.995 5.887c-3.364 3.083-8.69 4.695-13.947 4.695-10.3 0-18.078-6.937-18.078-17.8M328.687 246.086V212.24h8.9v4.554c2.452-2.943 6.587-5.395 10.791-5.395v8.688c-.63-.14-1.401-.21-2.452-.21-2.944 0-6.868 1.683-8.34 3.855v22.354zM376.758 246.086v-20.462c0-4.695-2.453-6.307-6.236-6.307-3.504 0-6.168 1.962-7.71 3.924v22.845h-8.9V212.24h8.9v4.344c2.173-2.523 6.377-5.185 11.843-5.185 7.5 0 11.073 4.203 11.073 10.79v23.897zM409.833 218.686c-5.536 0-7.919 3.854-8.269 7.218h16.678c-.28-3.224-2.523-7.218-8.409-7.218m-17.519 10.441c0-9.81 7.288-17.728 17.519-17.728 10.161 0 16.959 7.567 16.959 18.57v2.102h-25.158c.63 4.134 3.994 7.568 9.74 7.568 2.874 0 6.798-1.192 8.97-3.294l3.995 5.887c-3.364 3.083-8.69 4.695-13.945 4.695-10.301 0-18.08-6.937-18.08-17.8M435.06 237.607v-17.589h-5.607v-7.778h5.606v-9.25h8.9v9.25h6.868v7.778h-6.868v15.207c0 2.172 1.122 3.783 3.083 3.783 1.332 0 2.594-.49 3.084-1.051l1.892 6.798c-1.331 1.19-3.714 2.172-7.429 2.172-6.236 0-9.53-3.224-9.53-9.32M479.697 239.429V232c-2.382-3.152-6.166-4.695-10.23-4.695-5.537 0-9.25 3.575-9.25 8.41 0 4.765 3.713 8.339 9.25 8.339 4.064 0 7.848-1.541 10.23-4.625m0 6.657v-3.995c-3.013 3.294-6.797 4.837-11.492 4.837-5.816 0-11.843-3.995-11.843-11.283 0-7.359 5.957-11.212 11.843-11.212 4.695 0 8.55 1.541 11.492 4.835V222.4c0-5.045-4.065-7.779-9.04-7.779-4.275 0-7.567 1.473-10.65 4.977l-2.033-2.524c3.503-3.784 7.428-5.675 13.035-5.675 6.866 0 12.332 3.292 12.332 10.861v23.826zM492.801 229.128c0-9.881 6.448-17.729 16.398-17.729 5.886 0 9.25 2.313 11.983 5.746l-2.523 2.241c-2.453-3.362-5.535-4.694-9.25-4.694-7.919 0-12.754 6.307-12.754 14.436s4.835 14.506 12.754 14.506c3.715 0 6.797-1.402 9.25-4.766l2.524 2.242c-2.734 3.504-6.098 5.818-11.984 5.818-9.95 0-16.398-7.919-16.398-17.8M527.418 229.128c0-9.881 6.447-17.729 16.397-17.729 5.886 0 9.25 2.313 11.984 5.746l-2.524 2.241c-2.452-3.362-5.535-4.694-9.25-4.694-7.919 0-12.754 6.307-12.754 14.436s4.835 14.506 12.754 14.506c3.715 0 6.798-1.402 9.25-4.766l2.524 2.242c-2.734 3.504-6.098 5.818-11.984 5.818-9.95 0-16.397-7.919-16.397-17.8M578.221 214.552c-7.988 0-11.982 7.007-12.263 12.894h24.597c-.07-5.747-3.854-12.894-12.334-12.894m-16.187 14.576c0-9.811 6.867-17.73 16.257-17.73 10.302 0 15.978 8.129 15.978 17.94v.981h-28.311c.35 7.358 5.256 13.454 13.245 13.454 4.275 0 8.198-1.611 11.072-4.695l1.891 2.383c-3.363 3.505-7.637 5.466-13.243 5.466-9.882 0-16.89-7.358-16.89-17.799M600.715 241.531l2.172-2.662c2.173 2.732 6.166 4.975 10.931 4.975 5.677 0 9.04-2.944 9.04-6.868 0-9.25-21.372-3.994-21.372-16.187 0-5.186 4.414-9.39 12.052-9.39 5.817 0 9.672 2.242 12.124 4.975l-2.032 2.592c-1.963-2.662-5.607-4.485-10.092-4.485-5.255 0-8.408 2.664-8.408 6.168 0 8.478 21.302 3.293 21.302 16.327 0 5.466-4.204 9.951-12.684 9.951-5.465 0-9.67-1.612-13.034-5.396M632.879 241.531l2.173-2.662c2.172 2.732 6.166 4.975 10.93 4.975 5.677 0 9.04-2.944 9.04-6.868 0-9.25-21.372-3.994-21.372-16.187 0-5.186 4.414-9.39 12.053-9.39 5.816 0 9.671 2.242 12.124 4.975l-2.033 2.592c-1.962-2.662-5.606-4.485-10.091-4.485-5.255 0-8.409 2.664-8.409 6.168 0 8.478 21.303 3.293 21.303 16.327 0 5.466-4.204 9.951-12.684 9.951-5.465 0-9.67-1.612-13.034-5.396M690.64 220.395v-12.627l-5.204 12.627h-.555l-5.204-12.627v12.627h-1.943v-15.264h2.984l4.44 11.102 4.44-11.102h2.984v15.264zm-19.704-13.46v13.46h-1.943v-13.46h-4.302v-1.804h10.546v1.804zM384.111 10.045h47.619v157.24h-47.619z"/></g></svg>