<?xml version="1.0" encoding="UTF-8" standalone="no"?>
<!-- Generator: Adobe Illustrator 14.0.0, SVG Export Plug-In . SVG Version: 6.00 Build 43363)  -->

<svg
   xmlns:dc="http://purl.org/dc/elements/1.1/"
   xmlns:cc="http://creativecommons.org/ns#"
   xmlns:rdf="http://www.w3.org/1999/02/22-rdf-syntax-ns#"
   xmlns:svg="http://www.w3.org/2000/svg"
   xmlns="http://www.w3.org/2000/svg"
   xmlns:sodipodi="http://sodipodi.sourceforge.net/DTD/sodipodi-0.dtd"
   xmlns:inkscape="http://www.inkscape.org/namespaces/inkscape"
   version="1.1"
   id="Layer_1"
   x="0px"
   y="0px"
   width="3953.8999"
   height="5197.6001"
   viewBox="0 0 39.538999 51.976001"
   enable-background="new 0 0 39.5 52"
   xml:space="preserve"
   sodipodi:docname="rbc.svg"
   inkscape:version="0.92.2 5c3e80d, 2017-08-06"><metadata
     id="metadata19"><rdf:RDF><cc:Work
         rdf:about=""><dc:format>image/svg+xml</dc:format><dc:type
           rdf:resource="http://purl.org/dc/dcmitype/StillImage" /></cc:Work></rdf:RDF></metadata><defs
     id="defs17" /><sodipodi:namedview
     pagecolor="#ffffff"
     bordercolor="#666666"
     borderopacity="1"
     objecttolerance="10"
     gridtolerance="10"
     guidetolerance="10"
     inkscape:pageopacity="0"
     inkscape:pageshadow="2"
     inkscape:window-width="1918"
     inkscape:window-height="2136"
     id="namedview15"
     showgrid="false"
     inkscape:zoom="0.045384615"
     inkscape:cx="2041.1017"
     inkscape:cy="2598.8"
     inkscape:window-x="3840"
     inkscape:window-y="22"
     inkscape:window-maximized="0"
     inkscape:current-layer="Layer_1" /><path
     d="m 39.539,45.611 c 0,1.717 -0.703,2.715 -2.078,3.246 -5.344,2.059 -11.672,3.119 -17.69,3.119 C 13.75,51.976 7.422,50.915 2.079,48.857 0.704,48.326 0,47.328 0,45.611 V 0 h 39.539 z"
     id="path2"
     inkscape:connector-curvature="0"
     style="fill:#005daa" /><path
     d="M 10.604,27.796 C 5.129,24.378 3.323,22.865 3.167,20.623 3.141,20.169 3.245,19.4 3.436,18.852 L 2.92,18.51 c -0.412,0.658 -0.675,1.523 -0.675,2.316 0,1.296 0.413,2.276 0.922,3.059 0.769,1.184 1.578,1.929 3.572,3.425 2.148,1.611 3.614,3.492 4.458,5.462 h 0.305 v -2.235 c 2.901,1.648 5.461,3.196 6.72,5.966 h 0.304 c -0.493,-2.87 -2.117,-5.083 -7.922,-8.707"
     id="path4"
     inkscape:connector-curvature="0"
     style="fill:#ffd200" /><path
     d="m 35.822,36.507 h -0.374 c 0,-2.042 -1.873,-2.601 -3.834,-2.601 h -6.132 c 0.198,1.008 0.289,2.187 0.138,3.301 h -0.306 c -0.567,-4.592 -3.161,-6.864 -6.789,-9.301 v 2.092 H 18.22 c -0.965,-2.158 -3.082,-4.18 -5.086,-5.616 -0.533,-0.38 -1.088,-0.774 -1.635,-1.163 V 25.47 H 11.194 C 10.344,23.236 8.801,21.569 6.6,19.582 4.221,17.442 3.264,16.161 2.706,14.688 2.368,13.796 2.274,13.075 2.261,12.096 2.24,10.345 3.127,8.763 4.229,8.173 V 9.021 C 3.683,9.744 3.4,10.663 3.398,11.594 c -0.003,0.861 0.203,1.817 0.631,2.631 1.339,2.548 5.849,5.676 8.711,7.599 8.905,5.972 10.683,7.014 12.161,10.183 0.165,0.353 0.329,0.827 0.466,1.38 1.286,-0.199 5.953,-0.911 6.812,-1.047 0.167,-0.027 0.51,-0.068 0.688,-0.08 0.805,-0.508 1.431,-1.156 1.98,-1.964 l -3.41,-0.265 c -0.177,0.391 -0.35,0.721 -0.503,0.984 h -0.28 C 30.748,30.669 30.829,30.327 30.9,29.99 L 30.026,29.928 V 29.74 l 0.945,-0.117 c 0.18,-0.965 0.267,-1.879 0.284,-2.732 l -4.301,-0.245 c -0.021,0.442 -0.025,0.857 -0.01,1.244 H 26.67 c -0.094,-0.43 -0.166,-0.856 -0.22,-1.271 l -0.942,-0.056 v -0.286 l 0.896,-0.049 c -0.126,-1.139 -0.134,-2.2 -0.089,-3.113 l -2.513,-0.113 c 0.117,0.222 0.24,0.443 0.326,0.688 0.544,1.517 0.414,3.293 0.236,4.112 H 24.059 C 24.014,26.856 23.697,25.695 23.394,24.989 22.699,23.35 21.14,21.9 18.524,20.22 v 2.094 H 18.219 C 17.35,19.564 15.184,18.033 11.965,16.38 9.309,15.017 8.484,13.374 8.634,10.832 l 0.898,0.532 c 0.229,2.376 2.055,3.75 3.968,3.736 1.126,-0.01 2.181,-0.16 3.199,-0.362 1.472,-0.299 2.834,-0.55 3.971,-0.149 v -1.403 h -0.894 c -0.32,0.275 -0.968,0.594 -1.921,0.611 -1.047,0.018 -3.029,-0.585 -3.029,-2.8 0,-1.924 1.627,-2.232 2.952,-2.232 0.712,0 1.892,-0.025 2.292,-0.046 0.295,-0.02 0.517,-0.064 0.662,-0.208 0.15,-0.147 0.195,-0.299 0.229,-0.496 0.042,-0.239 0.042,-0.482 0.042,-0.895 V 5.714 H 14.86 V 8.149 L 12.535,7.264 V 6.681 h 1.112 V 5.714 H 9.504 V 3.694 H 8.092 c -0.754,0 -1.625,0.53 -1.688,1.555 -0.057,0.983 0.385,1.812 1.398,1.812 H 7.983 V 8.238 H 7.802 C 6.027,8.238 4.691,6.906 4.691,5.138 4.691,3.294 6.26,1.89 8.159,1.89 h 2.996 V 3.911 H 22.81 v 2.987 c 0,0.504 -0.029,1.179 -0.077,1.605 -0.036,0.312 -0.145,0.871 -0.733,1.321 -0.357,0.27 -0.893,0.379 -1.761,0.383 -0.285,10e-4 -1.111,-0.012 -2.101,-0.074 -1.328,-0.085 -1.706,0.429 -1.76,0.905 -0.011,0.1 -0.011,0.197 0.002,0.29 0.622,-0.48 1.502,-0.821 2.5,-0.505 1.758,0.553 2.261,0.601 3.177,-0.118 l 0.093,0.205 c -0.1,0.153 -0.275,0.373 -0.532,0.568 h 0.849 v 4.602 l 2.644,-1.586 h 7.424 c 0,0 3.136,1.639 3.651,1.909 0.456,0.24 0.635,0.53 0.705,0.955 0.061,0.355 -0.033,0.805 -0.206,1.093 -0.109,0.18 -0.962,1.577 -1.411,2.323 1.261,1.365 2.112,3.275 2.112,5.402 0,1.928 -0.713,4.414 -3.03,6.262 1.02,0.334 1.673,0.89 2.186,1.621 z M 19.271,11.726 c -1.043,-0.229 -1.625,-0.1 -2.224,0.471 0.294,0.14 0.661,0.216 1.066,0.189 0.587,-0.042 0.949,-0.392 1.158,-0.66 m -0.601,6.631 2.938,-1.761 c -0.578,-0.285 -1.216,-0.468 -1.972,-0.477 -1.013,-0.018 -2.722,0.446 -3.547,0.575 0.369,0.251 1.679,1.089 2.581,1.663 m 13.113,0.187 0.407,-0.574 -0.63,-0.839 0.105,-0.187 1.771,0.955 -0.387,1.172 c 0.287,0.138 0.55,0.31 0.899,0.542 l 1.146,-1.882 -2.967,-1.55 h -6.553 l -5.32,3.2 c 0.998,0.694 1.92,1.444 2.573,2.2 1.424,-2.075 3.929,-3.396 6.41,-3.396 0.811,0.001 1.755,0.088 2.546,0.359 m -0.533,7.428 c -0.036,-0.979 -0.157,-1.865 -0.322,-2.646 l -3.473,-0.157 c -0.237,1.057 -0.395,2.088 -0.467,3.03 z m 1.168,-2.577 c 0.111,0.897 0.125,1.736 0.066,2.511 l 3.441,-0.18 c -0.088,-0.782 -0.311,-1.521 -0.643,-2.199 z m -1.752,-1.126 c -0.36,-1.243 -0.789,-2.106 -1.015,-2.512 -0.144,-0.009 -0.291,-0.012 -0.436,-0.012 -0.243,0 -0.486,0.031 -0.721,0.056 -0.347,0.869 -0.63,1.746 -0.86,2.636 z m 0.954,-2.086 c 0.257,0.691 0.45,1.357 0.591,2 l 2.102,-0.115 C 33.591,21.236 32.668,20.583 31.62,20.183 m 3.869,8.875 c 0.246,-0.599 0.403,-1.174 0.45,-1.902 l -3.576,-0.203 c -0.163,1.002 -0.429,1.873 -0.715,2.586 z M 26.67,20.324 c -1.197,0.536 -2.023,1.265 -2.761,2.311 l 2.448,-0.128 c 0.088,-1.087 0.231,-1.81 0.313,-2.183"
     id="path6"
     inkscape:connector-curvature="0"
     style="fill:#ffd200" /><path
     d="m 22.129,41.789 c 0.998,-0.162 1.95,-0.938 1.95,-2.111 0,-1.057 -0.45,-2.218 -3.562,-2.218 h -5.254 v 0.085 c 0.159,0.049 0.412,0.178 0.577,0.338 0.356,0.351 0.475,0.87 0.489,1.562 v 7.863 h 4.353 c 2.394,0 4.127,-0.911 4.127,-3.006 10e-4,-1.701 -1.324,-2.424 -2.68,-2.513 m -2.24,-3.392 c 1.114,0 1.869,0.243 1.869,1.431 0,1.268 -1.011,1.617 -2.166,1.617 h -0.995 v -3.048 z m 0.113,7.981 h -1.405 v -4.022 h 1.341 c 1.842,0 2.548,0.551 2.548,1.93 -0.001,1.491 -0.924,2.092 -2.484,2.092"
     id="path8"
     inkscape:connector-curvature="0"
     style="fill:#ffffff" /><path
     d="m 11.389,47.306 h 2.837 l -3.622,-4.629 c 1.451,-0.389 2.538,-1.184 2.538,-2.627 0,-1.693 -1.015,-2.591 -3.665,-2.591 H 3.995 v 0.085 c 0.203,0.07 0.428,0.201 0.577,0.346 0.383,0.379 0.498,0.957 0.498,1.737 v 7.679 h 2.275 v -4.363 h 0.83 z M 7.346,38.397 h 1.531 c 1.277,0 1.943,0.374 1.943,1.728 0,1.21 -0.87,1.928 -2.269,1.928 H 7.346 Z"
     id="path10"
     inkscape:connector-curvature="0"
     style="fill:#ffffff" /><path
     d="m 34.01,38.81 c 0.607,0.342 0.793,0.795 0.798,0.799 0.028,0.033 0.094,0.022 0.094,0.022 l 0.495,-1.685 c 0,0 -0.889,-0.639 -3.005,-0.639 -3.202,0 -5.599,1.613 -5.599,5.143 0,3.977 2.855,5.01 5.374,5.01 2.341,0 3.263,-0.746 3.263,-0.746 V 45.56 c 0,0 -0.829,0.772 -2.604,0.772 -1.463,0 -3.617,-0.67 -3.66,-3.938 -0.044,-3.021 1.273,-4.004 3.035,-4.004 0.984,0 1.475,0.231 1.809,0.42"
     id="path12"
     inkscape:connector-curvature="0"
     style="fill:#ffffff" /></svg>