<?xml version="1.0" encoding="utf-8"?>
<!-- Generator: Adobe Illustrator 14.0.0, SVG Export Plug-In . SVG Version: 6.00 Build 43363)  -->
<!DOCTYPE svg PUBLIC "-//W3C//DTD SVG 1.1//EN" "http://www.w3.org/Graphics/SVG/1.1/DTD/svg11.dtd">
<svg version="1.1" id="Layer_1" xmlns="http://www.w3.org/2000/svg" xmlns:xlink="http://www.w3.org/1999/xlink" x="0px" y="0px"
	 width="3950px" height="5200px" viewBox="0 0 39.5 52" enable-background="new 0 0 39.5 52" xml:space="preserve">
<path fill="#005DAA" d="M39.539,45.623c0,1.717-0.703,2.715-2.078,3.246c-5.344,2.059-11.672,3.119-17.69,3.119
	c-6.021,0-12.349-1.061-17.692-3.119C0.704,48.338,0,47.34,0,45.623V0.012h39.539V45.623z"/>
<path fill="#FFD200" d="M10.604,27.808c-5.475-3.418-7.281-4.931-7.437-7.173c-0.026-0.454,0.078-1.223,0.269-1.771L2.92,18.522
	c-0.412,0.658-0.675,1.523-0.675,2.316c0,1.296,0.413,2.276,0.922,3.059c0.769,1.184,1.578,1.929,3.572,3.425
	c2.148,1.611,3.614,3.492,4.458,5.462h0.305v-2.235c2.901,1.648,5.461,3.196,6.72,5.966h0.304
	C18.033,33.645,16.409,31.432,10.604,27.808"/>
<path fill="#FFD200" d="M35.822,36.519h-0.374c0-2.042-1.873-2.601-3.834-2.601h-6.132c0.198,1.008,0.289,2.187,0.138,3.301h-0.306
	c-0.567-4.592-3.161-6.864-6.789-9.301v2.092H18.22c-0.965-2.158-3.082-4.18-5.086-5.616c-0.533-0.38-1.088-0.774-1.635-1.163v2.251
	h-0.305c-0.85-2.234-2.393-3.901-4.594-5.888c-2.379-2.14-3.336-3.421-3.894-4.894c-0.338-0.892-0.432-1.613-0.445-2.592
	C2.24,10.357,3.127,8.775,4.229,8.185v0.848C3.683,9.756,3.4,10.675,3.398,11.606c-0.003,0.861,0.203,1.817,0.631,2.631
	c1.339,2.548,5.849,5.676,8.711,7.599c8.905,5.972,10.683,7.014,12.161,10.183c0.165,0.353,0.329,0.827,0.466,1.38
	c1.286-0.199,5.953-0.911,6.812-1.047c0.167-0.027,0.51-0.068,0.688-0.08c0.805-0.508,1.431-1.156,1.98-1.964l-3.41-0.265
	c-0.177,0.391-0.35,0.721-0.503,0.984h-0.28c0.094-0.346,0.175-0.688,0.246-1.025l-0.874-0.062v-0.188l0.945-0.117
	c0.18-0.965,0.267-1.879,0.284-2.732l-4.301-0.245c-0.021,0.442-0.025,0.857-0.01,1.244H26.67c-0.094-0.43-0.166-0.856-0.22-1.271
	l-0.942-0.056v-0.286l0.896-0.049c-0.126-1.139-0.134-2.2-0.089-3.113l-2.513-0.113c0.117,0.222,0.24,0.443,0.326,0.688
	c0.544,1.517,0.414,3.293,0.236,4.112h-0.305c-0.045-0.946-0.362-2.107-0.665-2.813c-0.695-1.639-2.254-3.089-4.87-4.769v2.094
	h-0.305c-0.869-2.75-3.035-4.281-6.254-5.934c-2.656-1.363-3.481-3.006-3.331-5.548l0.898,0.532c0.229,2.376,2.055,3.75,3.968,3.736
	c1.126-0.01,2.181-0.16,3.199-0.362c1.472-0.299,2.834-0.55,3.971-0.149v-1.403h-0.894c-0.32,0.275-0.968,0.594-1.921,0.611
	c-1.047,0.018-3.029-0.585-3.029-2.8c0-1.924,1.627-2.232,2.952-2.232c0.712,0,1.892-0.025,2.292-0.046
	c0.295-0.02,0.517-0.064,0.662-0.208c0.15-0.147,0.195-0.299,0.229-0.496c0.042-0.239,0.042-0.482,0.042-0.895V5.726H14.86v2.435
	l-2.325-0.885V6.693h1.112V5.726H9.504v-2.02H8.092c-0.754,0-1.625,0.53-1.688,1.555C6.347,6.244,6.789,7.073,7.802,7.073h0.181
	V8.25H7.802c-1.775,0-3.111-1.332-3.111-3.1c0-1.844,1.569-3.248,3.468-3.248h2.996v2.021H22.81V6.91
	c0,0.504-0.029,1.179-0.077,1.605C22.697,8.827,22.588,9.386,22,9.836c-0.357,0.27-0.893,0.379-1.761,0.383
	c-0.285,0.001-1.111-0.012-2.101-0.074c-1.328-0.085-1.706,0.429-1.76,0.905c-0.011,0.1-0.011,0.197,0.002,0.29
	c0.622-0.48,1.502-0.821,2.5-0.505c1.758,0.553,2.261,0.601,3.177-0.118l0.093,0.205c-0.1,0.153-0.275,0.373-0.532,0.568h0.849
	v4.602l2.644-1.586h7.424c0,0,3.136,1.639,3.651,1.909c0.456,0.24,0.635,0.53,0.705,0.955c0.061,0.355-0.033,0.805-0.206,1.093
	c-0.109,0.18-0.962,1.577-1.411,2.323c1.261,1.365,2.112,3.275,2.112,5.402c0,1.928-0.713,4.414-3.03,6.262
	c1.02,0.334,1.673,0.89,2.186,1.621L35.822,36.519z M19.271,11.738c-1.043-0.229-1.625-0.1-2.224,0.471
	c0.294,0.14,0.661,0.216,1.066,0.189C18.7,12.356,19.062,12.006,19.271,11.738 M18.67,18.369l2.938-1.761
	c-0.578-0.285-1.216-0.468-1.972-0.477c-1.013-0.018-2.722,0.446-3.547,0.575C16.458,16.957,17.768,17.795,18.67,18.369
	 M31.783,18.556l0.407-0.574l-0.63-0.839l0.105-0.187l1.771,0.955l-0.387,1.172c0.287,0.138,0.55,0.31,0.899,0.542l1.146-1.882
	l-2.967-1.55h-6.553l-5.32,3.2c0.998,0.694,1.92,1.444,2.573,2.2c1.424-2.075,3.929-3.396,6.41-3.396
	C30.048,18.198,30.992,18.285,31.783,18.556 M31.25,25.984c-0.036-0.979-0.157-1.865-0.322-2.646l-3.473-0.157
	c-0.237,1.057-0.395,2.088-0.467,3.03L31.25,25.984z M32.418,23.407c0.111,0.897,0.125,1.736,0.066,2.511l3.441-0.18
	c-0.088-0.782-0.311-1.521-0.643-2.199L32.418,23.407z M30.666,22.281c-0.36-1.243-0.789-2.106-1.015-2.512
	c-0.144-0.009-0.291-0.012-0.436-0.012c-0.243,0-0.486,0.031-0.721,0.056c-0.347,0.869-0.63,1.746-0.86,2.636L30.666,22.281z
	 M31.62,20.195c0.257,0.691,0.45,1.357,0.591,2l2.102-0.115C33.591,21.248,32.668,20.595,31.62,20.195 M35.489,29.07
	c0.246-0.599,0.403-1.174,0.45-1.902l-3.576-0.203c-0.163,1.002-0.429,1.873-0.715,2.586L35.489,29.07z M26.67,20.336
	c-1.197,0.536-2.023,1.265-2.761,2.311l2.448-0.128C26.445,21.432,26.588,20.709,26.67,20.336"/>
<path fill="#FFFFFF" d="M22.129,41.801c0.998-0.162,1.95-0.938,1.95-2.111c0-1.057-0.45-2.218-3.562-2.218h-5.254v0.085
	c0.159,0.049,0.412,0.178,0.577,0.338c0.356,0.351,0.475,0.87,0.489,1.562v7.863h4.353c2.394,0,4.127-0.911,4.127-3.006
	C24.81,42.613,23.485,41.89,22.129,41.801 M19.889,38.409c1.114,0,1.869,0.243,1.869,1.431c0,1.268-1.011,1.617-2.166,1.617h-0.995
	v-3.048H19.889z M20.002,46.39h-1.405v-4.022h1.341c1.842,0,2.548,0.551,2.548,1.93C22.485,45.789,21.562,46.39,20.002,46.39"/>
<path fill="#FFFFFF" d="M11.389,47.318h2.837l-3.622-4.629c1.451-0.389,2.538-1.184,2.538-2.627c0-1.693-1.015-2.591-3.665-2.591
	H3.995v0.085c0.203,0.07,0.428,0.201,0.577,0.346c0.383,0.379,0.498,0.957,0.498,1.737v7.679h2.275v-4.363h0.83L11.389,47.318z
	 M7.346,38.409h1.531c1.277,0,1.943,0.374,1.943,1.728c0,1.21-0.87,1.928-2.269,1.928H7.346V38.409z"/>
<path fill="#FFFFFF" d="M34.01,38.822c0.607,0.342,0.793,0.795,0.798,0.799c0.028,0.033,0.094,0.022,0.094,0.022l0.495-1.685
	c0,0-0.889-0.639-3.005-0.639c-3.202,0-5.599,1.613-5.599,5.143c0,3.977,2.855,5.01,5.374,5.01c2.341,0,3.263-0.746,3.263-0.746
	v-1.154c0,0-0.829,0.772-2.604,0.772c-1.463,0-3.617-0.67-3.66-3.938c-0.044-3.021,1.273-4.004,3.035-4.004
	C33.185,38.402,33.676,38.633,34.01,38.822"/>
</svg>
