<svg xmlns="http://www.w3.org/2000/svg" width="3953.906" height="5197.656" viewBox="0 0 39.539 51.977"><path d="M0 0v45.611c0 1.717.703 2.715 2.078 3.246 5.343 2.058 11.672 3.12 17.693 3.12 6.018 0 12.346-1.06 17.69-3.12 1.375-.53 2.078-1.529 2.078-3.246V0zm8.158 1.89h2.996v2.022h11.657v2.986c0 .504-.03 1.18-.079 1.606-.036.312-.144.87-.732 1.32-.357.27-.894.379-1.762.383a36.21 36.21 0 0 1-2.1-.074c-1.327-.085-1.705.43-1.76.906-.01.1-.01.196.003.29.622-.48 1.502-.82 2.5-.505 1.758.553 2.26.6 3.176-.119l.093.205c-.1.153-.276.374-.533.569h.85v4.601l2.644-1.586h7.424s3.136 1.638 3.65 1.908c.457.24.636.53.706.955.06.355-.032.806-.205 1.094-.11.18-.964 1.576-1.413 2.322a7.99 7.99 0 0 1 2.114 5.403c0 1.928-.714 4.413-3.031 6.261 1.02.334 1.674.89 2.187 1.622l-.72 2.449h-.376c0-2.042-1.873-2.602-3.834-2.602h-6.13c.197 1.008.287 2.187.136 3.301h-.305c-.567-4.592-3.16-6.864-6.789-9.3v2.091h-.304c-.965-2.158-3.082-4.18-5.086-5.615l-1.637-1.164v2.252h-.305c-.85-2.234-2.392-3.902-4.593-5.889-2.38-2.14-3.337-3.422-3.895-4.895-.338-.892-.43-1.612-.443-2.591-.021-1.751.865-3.332 1.967-3.922v.847c-.546.723-.829 1.642-.83 2.573a5.752 5.752 0 0 0 .63 2.63c1.34 2.549 5.85 5.677 8.711 7.6 8.905 5.972 10.682 7.015 12.16 10.184.165.353.33.826.467 1.379 1.286-.2 5.954-.911 6.813-1.047.167-.027.51-.068.687-.08.805-.508 1.432-1.155 1.98-1.963l-3.41-.266c-.177.391-.35.722-.503.985h-.28c.094-.346.175-.689.246-1.026l-.875-.062v-.188l.946-.117c.18-.965.268-1.88.285-2.732l-4.303-.245c-.02.442-.025.858-.01 1.245h-.273c-.094-.43-.167-.857-.22-1.272l-.942-.056v-.286l.896-.048a19.637 19.637 0 0 1-.09-3.114l-2.511-.113c.117.222.24.442.326.687.544 1.517.412 3.295.234 4.114h-.304c-.045-.946-.361-2.107-.664-2.813-.695-1.639-2.256-3.09-4.872-4.77v2.094h-.304c-.87-2.75-3.035-4.28-6.254-5.933-2.656-1.363-3.48-3.007-3.33-5.549l.896.533c.23 2.376 2.056 3.749 3.969 3.735 1.126-.01 2.181-.16 3.2-.362 1.471-.299 2.833-.55 3.97-.148v-1.404h-.895c-.32.275-.967.594-1.92.61-1.047.019-3.029-.583-3.029-2.798 0-1.924 1.626-2.232 2.951-2.232.712 0 1.893-.026 2.293-.047.295-.02.517-.063.662-.207.15-.147.195-.3.229-.496.042-.24.043-.482.043-.895V5.715h-6.145v2.433l-2.324-.884v-.582h1.111v-.967H9.504V3.693H8.092c-.754 0-1.625.532-1.688 1.557-.057.983.386 1.81 1.399 1.81h.18v1.178h-.18c-1.775 0-3.112-1.331-3.112-3.1 0-1.843 1.568-3.247 3.467-3.247zm10.41 9.733c-.631-.034-1.072.146-1.521.574.294.14.661.217 1.066.19.587-.042.95-.392 1.158-.66a4.391 4.391 0 0 0-.703-.104zm1.069 4.496c-1.013-.018-2.722.445-3.547.574.369.251 1.678 1.09 2.58 1.664l2.937-1.761a4.47 4.47 0 0 0-1.97-.477zm5.937.063l-5.32 3.199c.998.694 1.92 1.445 2.572 2.201 1.424-2.075 3.93-3.396 6.41-3.396.811 0 1.756.088 2.547.359l.406-.574-.628-.84.103-.188 1.772.955-.387 1.172c.287.138.55.311.898.543l1.147-1.883-2.967-1.548zM2.92 18.51l.516.342c-.191.548-.294 1.317-.268 1.771.156 2.242 1.96 3.756 7.436 7.174 5.805 3.624 7.428 5.837 7.921 8.707h-.302c-1.26-2.77-3.82-4.319-6.721-5.967v2.234h-.305c-.844-1.97-2.31-3.85-4.459-5.46-1.994-1.496-2.801-2.242-3.57-3.426-.509-.783-.924-1.763-.924-3.059 0-.793.264-1.658.676-2.316zm26.295 1.236c-.243 0-.486.03-.72.055-.348.869-.63 1.747-.86 2.637l3.031-.168c-.36-1.243-.79-2.106-1.016-2.512a7.014 7.014 0 0 0-.435-.012zm2.404.438c.257.69.45 1.357.592 2l2.102-.116a6.761 6.761 0 0 0-2.694-1.884zm-4.95.14c-1.196.536-2.023 1.265-2.76 2.31l2.448-.126c.088-1.087.23-1.81.313-2.184zm.786 2.846a21.516 21.516 0 0 0-.467 3.03l4.262-.227a15.577 15.577 0 0 0-.322-2.647zm4.963.225c.111.897.125 1.736.066 2.511l3.442-.18a6.695 6.695 0 0 0-.645-2.199zm-.055 3.558a12.249 12.249 0 0 1-.715 2.586l3.84-.48a5.74 5.74 0 0 0 .451-1.903zm.03 10.354c2.116 0 3.003.638 3.003.638l-.494 1.686s-.065.011-.093-.022c-.005-.004-.192-.456-.8-.798-.333-.19-.824-.42-1.808-.42-1.762 0-3.079.983-3.035 4.004.043 3.268 2.197 3.937 3.66 3.937 1.775 0 2.604-.771 2.604-.771v1.154s-.921.746-3.262.746c-2.519 0-5.375-1.033-5.375-5.01 0-3.53 2.398-5.144 5.6-5.144zm-28.399.152h5.483c2.65 0 3.666.899 3.666 2.592 0 1.443-1.088 2.238-2.54 2.627l3.624 4.629h-2.838l-3.213-4.364h-.83v4.364H5.07v-7.68c0-.78-.115-1.357-.498-1.736a1.66 1.66 0 0 0-.578-.346zm11.27.002h5.254c3.112 0 3.56 1.16 3.56 2.217 0 1.173-.951 1.95-1.95 2.111 1.357.09 2.682.813 2.68 2.514 0 2.095-1.732 3.006-4.126 3.006h-4.354v-7.864c-.014-.692-.132-1.211-.488-1.562a1.614 1.614 0 0 0-.576-.338zm-7.918.936v3.656H8.55c1.399 0 2.27-.718 2.27-1.928 0-1.354-.667-1.728-1.944-1.728zm11.252 0v3.048h.994c1.155 0 2.166-.349 2.166-1.617 0-1.188-.755-1.431-1.87-1.431zm0 3.959v4.023h1.404c1.56 0 2.483-.6 2.484-2.092 0-1.379-.707-1.931-2.549-1.931z"/></svg>