<svg xmlns="http://www.w3.org/2000/svg" width="3950" height="5200" viewBox="0 0 39.5 52"><path d="M0 .012v45.611c0 1.717.703 2.715 2.078 3.246 5.343 2.058 11.672 3.12 17.693 3.12 6.018 0 12.346-1.06 17.69-3.12 1.375-.53 2.078-1.529 2.078-3.246V.012H0zm8.158 1.89h2.996v2.022h11.657V6.91c0 .504-.03 1.18-.079 1.606-.036.312-.144.87-.732 1.32-.357.27-.894.379-1.762.383-.285 0-1.11-.012-2.1-.074-1.327-.085-1.705.43-1.76.906-.01.1-.01.196.003.289.622-.48 1.502-.82 2.5-.504 1.758.553 2.26.6 3.176-.12l.093.206c-.1.153-.276.373-.533.568h.85v4.602l2.644-1.586h7.424s3.136 1.638 3.65 1.908c.457.24.636.53.706.955.06.355-.032.806-.205 1.094-.11.18-.964 1.576-1.413 2.322a7.99 7.99 0 0 1 2.114 5.402c0 1.928-.715 4.414-3.032 6.262 1.02.334 1.675.89 2.188 1.621l-.72 2.45h-.376c0-2.042-1.873-2.602-3.834-2.602h-6.13c.197 1.008.287 2.187.136 3.3h-.305c-.567-4.591-3.16-6.863-6.789-9.3v2.092h-.304c-.965-2.158-3.082-4.18-5.086-5.615l-1.637-1.165v2.252h-.305c-.85-2.234-2.392-3.901-4.593-5.888-2.38-2.14-3.337-3.422-3.895-4.895-.338-.892-.43-1.613-.443-2.592-.021-1.75.865-3.331 1.967-3.921v.847c-.546.723-.829 1.641-.83 2.572a5.752 5.752 0 0 0 .63 2.631c1.34 2.548 5.85 5.677 8.711 7.6 8.905 5.972 10.682 7.015 12.16 10.184.165.353.33.825.467 1.378 1.286-.199 5.954-.91 6.813-1.046.167-.027.51-.069.687-.08.805-.509 1.432-1.155 1.98-1.963l-3.41-.266c-.177.391-.35.721-.503.984h-.28c.094-.346.175-.688.246-1.025l-.875-.063v-.187l.946-.117c.18-.965.268-1.88.285-2.733l-4.303-.244c-.02.442-.025.857-.01 1.244h-.273c-.094-.43-.167-.856-.22-1.271l-.942-.057v-.285l.896-.049a19.638 19.638 0 0 1-.09-3.113l-2.511-.113c.117.222.24.442.326.687.544 1.517.412 3.294.234 4.113h-.304c-.045-.946-.361-2.106-.664-2.812-.695-1.639-2.256-3.09-4.872-4.77v2.094h-.304c-.87-2.75-3.035-4.28-6.254-5.933-2.656-1.363-3.48-3.007-3.33-5.55l.896.534c.23 2.376 2.056 3.748 3.969 3.734 1.126-.01 2.181-.159 3.2-.361 1.471-.299 2.833-.55 3.97-.148v-1.405h-.895c-.32.275-.967.595-1.92.612-1.047.018-3.029-.584-3.029-2.8 0-1.923 1.626-2.232 2.951-2.232.712 0 1.893-.026 2.293-.047.295-.02.517-.063.662-.207.15-.147.195-.299.229-.496.042-.239.043-.481.043-.894V5.727h-6.145V8.16l-2.324-.885v-.582h1.111v-.966H9.504V3.705H8.092c-.754 0-1.625.532-1.688 1.557-.057.983.386 1.81 1.399 1.81h.18V8.25h-.18c-1.775 0-3.112-1.332-3.112-3.1 0-1.844 1.568-3.248 3.467-3.248zm10.41 9.733c-.631-.034-1.072.146-1.521.574.294.14.661.216 1.066.19.587-.043.95-.393 1.158-.66a4.392 4.392 0 0 0-.703-.104zm1.069 4.496c-1.013-.018-2.722.445-3.547.574.369.251 1.678 1.09 2.58 1.664l2.937-1.762a4.47 4.47 0 0 0-1.97-.476zm5.937.062l-5.32 3.2c.998.694 1.92 1.445 2.572 2.2 1.424-2.074 3.93-3.396 6.41-3.396.811.001 1.756.089 2.547.36l.406-.575-.628-.84.103-.187 1.772.955-.387 1.172c.287.138.55.311.898.543l1.147-1.883-2.967-1.549h-6.553zM2.92 18.521l.516.342c-.191.548-.294 1.318-.268 1.772.156 2.242 1.96 3.756 7.436 7.174 5.805 3.624 7.428 5.837 7.921 8.707h-.302c-1.26-2.77-3.82-4.32-6.721-5.967v2.234h-.305c-.844-1.97-2.31-3.85-4.459-5.46-1.994-1.497-2.801-2.243-3.57-3.427-.509-.783-.924-1.762-.924-3.058 0-.793.264-1.659.676-2.317zm26.295 1.237c-.243 0-.486.03-.72.055-.348.869-.63 1.746-.86 2.636l3.031-.168c-.36-1.243-.79-2.105-1.016-2.511a7.014 7.014 0 0 0-.435-.012zm2.404.437c.257.691.45 1.357.592 2l2.102-.115a6.761 6.761 0 0 0-2.694-1.885zm-4.95.14c-1.196.537-2.023 1.265-2.76 2.311l2.448-.126c.088-1.087.23-1.811.313-2.184zm.786 2.847a21.516 21.516 0 0 0-.467 3.029l4.262-.227a15.577 15.577 0 0 0-.322-2.646l-3.473-.156zm4.963.224c.111.897.125 1.737.066 2.512l3.442-.18a6.695 6.695 0 0 0-.645-2.199l-2.863-.133zm-.055 3.559a12.249 12.249 0 0 1-.715 2.586l3.84-.48a5.74 5.74 0 0 0 .451-1.903l-3.576-.203zm.03 10.353c2.116 0 3.003.639 3.003.639l-.494 1.686s-.065.011-.093-.022c-.005-.004-.192-.457-.8-.799-.333-.189-.824-.42-1.808-.42-1.762 0-3.079.983-3.035 4.004.043 3.268 2.197 3.938 3.66 3.938 1.775 0 2.604-.772 2.604-.772v1.155s-.921.746-3.262.746c-2.519 0-5.375-1.033-5.375-5.01 0-3.53 2.398-5.145 5.6-5.145zm-28.399.153h5.483c2.65 0 3.666.899 3.666 2.592 0 1.442-1.088 2.237-2.54 2.626l3.624 4.63h-2.838l-3.213-4.364h-.83v4.363H5.07v-7.68c0-.78-.115-1.357-.498-1.736a1.66 1.66 0 0 0-.578-.345v-.086zm11.27.002h5.254c3.112 0 3.56 1.16 3.56 2.216 0 1.173-.951 1.95-1.95 2.112 1.357.089 2.682.812 2.68 2.513 0 2.095-1.732 3.006-4.126 3.006h-4.354v-7.863c-.014-.692-.132-1.211-.488-1.562a1.614 1.614 0 0 0-.576-.338v-.084zm-7.918.935v3.656H8.55c1.399 0 2.27-.717 2.27-1.927 0-1.354-.667-1.729-1.944-1.729H7.346zm11.252 0v3.049h.994c1.155 0 2.166-.35 2.166-1.617 0-1.188-.755-1.432-1.87-1.432h-1.29zm0 3.96v4.023h1.404c1.56 0 2.483-.601 2.484-2.092 0-1.38-.707-1.932-2.549-1.932h-1.34z"/></svg>