<svg xmlns="http://www.w3.org/2000/svg" width="864.999" height="145.438" viewBox="-0.154 168.199 864.999 145.438"><path d="M-.154 168.199v145.438H287.95V168.199zm36.014 36.014h33.242c9.003 0 16.622 2.77 21.469 7.617 4.156 4.155 6.232 9.695 6.232 16.62 0 11.774-6.233 19.393-15.236 22.856l18.006 26.317H80.875L65.64 254.078H51.787v23.547H35.86zm77.566 0h54.711v14.543h-38.783V233.3h33.933v14.544h-33.933v15.235h39.474v14.545h-55.404zm72.024 0h28.394c22.854 0 38.783 15.93 38.783 36.013 0 20.778-15.929 36.705-38.783 36.705H185.45zM51.787 218.756v20.777h15.928c7.618 0 12.467-4.155 12.467-10.389 0-6.925-4.849-10.388-12.467-10.388zm149.592 0v43.632h12.465c13.16 0 22.162-9.003 22.162-21.47 0-13.16-9.003-22.162-22.162-22.162z" fill="#e2231a"/><g fill="#808184"><path d="M355.817 204.213h11.775l31.858 72.719h-13.159l-7.617-17.315h-33.937l-7.618 17.315h-13.158zm18.008 44.324l-12.464-29.087-12.466 29.087zM403.605 241.61c0-20.775 15.236-37.396 37.398-37.396 13.157 0 21.469 4.849 28.393 11.08l-8.31 9.696c-5.54-5.541-11.774-9.003-20.083-9.003-13.853 0-23.547 11.08-23.547 25.624 0 13.853 9.696 25.625 23.547 25.625 9.003 0 14.543-3.461 20.775-9.004l8.311 8.312c-7.618 7.617-15.929 12.465-29.087 12.465-21.468-.692-37.397-16.62-37.397-37.398zM508.182 204.213h11.773l31.857 72.719h-13.158l-7.618-17.315H497.1l-7.618 17.315h-13.158zm18.005 44.324l-12.466-29.087-12.466 29.087zM563.584 204.907h27.012c22.854 0 38.088 15.235 38.088 36.013 0 20.085-15.928 36.013-38.088 36.013h-27.012zm13.16 11.772v49.173h13.852c15.235 0 24.932-10.39 24.932-24.241 0-13.851-9.696-24.238-24.932-24.238h-13.852zM643.921 204.907h53.327v11.772h-40.859v18.699H692.4v11.082h-36.012v19.392h41.553v11.08H643.92v-72.025zM713.177 204.907h13.158l22.162 33.935 22.161-33.935h13.158v72.025h-12.465v-51.25l-22.854 33.937h-.692l-22.855-33.937v51.249h-11.772v-72.024zM823.293 248.537l-28.395-43.631h15.235l20.083 31.857 20.085-31.857h14.544l-28.394 43.63v29.089h-12.467v-29.088z"/></g></svg>