<svg xmlns="http://www.w3.org/2000/svg" width="864.999" height="145.436" viewBox="-0.154 168.199 864.999 145.436"><path fill="#e2231a" d="M-.154 168.199h288.103v145.436H-.154z"/><g fill="#fff"><path d="M35.859 204.212h33.242c9.003 0 16.622 2.771 21.469 7.618 4.156 4.155 6.233 9.695 6.233 16.621 0 11.773-6.233 19.392-15.236 22.855l18.006 26.317H80.875l-15.237-23.545h-13.85v23.546H35.859zm31.857 35.321c7.618 0 12.466-4.156 12.466-10.39 0-6.925-4.848-10.389-12.466-10.389H51.788v20.778h15.928zM113.426 204.212h54.711v14.543h-38.784v14.544h33.935v14.545h-33.935v15.236h39.476v14.544h-55.405zM185.45 204.212h28.395c22.854 0 38.783 15.929 38.783 36.013 0 20.778-15.929 36.706-38.783 36.706H185.45zm15.93 14.543v43.633h12.465c13.159 0 22.162-9.004 22.162-21.471 0-13.159-9.003-22.162-22.162-22.162z"/></g><g fill="#808184"><path d="M355.817 204.212h11.775l31.858 72.719h-13.159l-7.617-17.315h-33.937l-7.618 17.315h-13.158zm18.008 44.324l-12.464-29.087-12.466 29.087zM403.605 241.61c0-20.776 15.236-37.397 37.398-37.397 13.157 0 21.469 4.849 28.393 11.08l-8.31 9.696c-5.54-5.541-11.774-9.003-20.083-9.003-13.853 0-23.547 11.08-23.547 25.624 0 13.853 9.696 25.625 23.547 25.625 9.003 0 14.543-3.461 20.775-9.004l8.311 8.312c-7.618 7.617-15.929 12.465-29.087 12.465-21.468-.692-37.397-16.62-37.397-37.398zM508.182 204.212h11.773l31.857 72.719h-13.158l-7.618-17.315H497.1l-7.618 17.315h-13.158zm18.005 44.324l-12.466-29.087-12.466 29.087zM563.584 204.906h27.012c22.854 0 38.088 15.235 38.088 36.013 0 20.085-15.928 36.013-38.088 36.013h-27.012zm13.16 11.772v49.173h13.852c15.235 0 24.932-10.389 24.932-24.241 0-13.851-9.696-24.238-24.932-24.238h-13.852zM643.921 204.906h53.327v11.772h-40.859v18.699H692.4v11.082h-36.012v19.392h41.553v11.08H643.92v-72.025zM713.177 204.906h13.158l22.162 33.935 22.161-33.935h13.158v72.025h-12.465v-51.249l-22.854 33.936h-.692l-22.855-33.937v51.249h-11.772v-72.024zM823.293 248.536l-28.395-43.631h15.235l20.083 31.857 20.085-31.857h14.544l-28.394 43.631v29.088h-12.467v-29.088z"/></g></svg>