<svg xmlns="http://www.w3.org/2000/svg" version="1.1" id="svg78" width="316.6" height="72.1"><defs id="defs4"><style id="style2">.cls-1{fill:#d3d3d3}.cls-2{fill:#01434f}.cls-3{fill:#00aa81}</style></defs><g id="Layer_2" data-name="Layer 2"><g id="Layer_1-2" data-name="Layer 1"><path class="cls-1" d="M61 19.9l-27.6-16h-.5l-27.6 16a.5.5 0 0 0-.3.4v31.9a.5.5 0 0 0 .3.4l27.6 16h.4l-15.9-9 1-.6L6 51.9V36.6h.1l12.7-6.9v14.2a.5.5 0 0 0 .2.4l11.8 7.1 1-.6-12-7.2V29.5l12.8 7.3v13.5l1-.6V36.8l11.2-6.4V30l-.6-.4-11.1 6.3H33l-12.7-7.3h.2L33.1 21h.1l.8.5-.8-1.5h-.3l-12.7 7.5v-15h.1l13-7.5 1.7.4.3.8 11.4 6.6v14.5l1 1v-15l12.7 7.3v14.6h-.2l-12.7-6.9h.1v1.2l12.5 6.8v15.6l-13.4 7.9-10.1-6.1-1 .6 1 .6 9.1 5.5-11.9 6.8-.5 1.4 27.7-16a.5.5 0 0 0 .3-.4V20.3a.5.5 0 0 0-.3-.4zm-41.9 8.3l-.2.2h-.1L6 35.4l.2-14.7h.1L19 13.3v14.8zm16.5 26l1-.6-2.2-1.5-1.2.7z" id="path8" fill="#d3d3d3"/><path class="cls-1" transform="matrix(.86 -.52 .52 .86 -22.91 13.4)" id="rect10" fill="#d3d3d3" d="M4.6 47.5h16.1v.95H4.6z"/><path class="cls-1" transform="rotate(-59 53.605 47.945)" id="rect12" fill="#d3d3d3" d="M53.1 39.9h1v16.11h-1z"/><path class="cls-2" id="polygon14" fill="#01434f" d="M19.8 59.8l26.8-16.2v-15h-.5l-12.8-7.7v-.3h-.4V4.2h.9V20l13.8 8.4.1 15.3-.6.8-26.3 15.8 12.5 7.3v1.1l-14.5-8.3z"/><circle class="cls-2" cx="33.2" cy="66.9" r="5.2" id="circle16" fill="#01434f"/><circle class="cls-3" cx="5.2" cy="35.2" r="5.2" id="circle18" fill="#00aa81"/><circle class="cls-2" cx="46" cy="28.3" r="5.2" id="circle20" fill="#01434f"/><circle class="cls-2" cx="33.2" cy="3.9" r="3.9" id="circle22" fill="#01434f"/><circle class="cls-2" cx="19.5" cy="59.7" r="3.9" id="circle24" fill="#01434f"/><circle class="cls-3" cx="33.2" cy="35.7" r="3.9" id="circle26" fill="#00aa81"/><circle class="cls-3" cx="60.3" cy="51.5" r="3.9" id="circle28" fill="#00aa81"/><circle class="cls-3" cx="5.2" cy="19.8" r="3.9" id="circle30" fill="#00aa81"/><circle class="cls-3" cx="60.3" cy="20.2" r="3.9" id="circle32" fill="#00aa81"/><circle class="cls-3" cx="5.2" cy="51.5" r="2.7" id="circle34" fill="#00aa81"/><circle class="cls-3" cx="19.1" cy="28.3" r="2.7" id="circle36" fill="#00aa81"/><circle class="cls-3" cx="19.1" cy="12.2" r="2.7" id="circle38" fill="#00aa81"/><circle class="cls-3" cx="19.1" cy="43.4" r="2.7" id="circle40" fill="#00aa81"/><circle class="cls-2" cx="33.2" cy="52.2" r="2.7" id="circle42" fill="#01434f"/><circle class="cls-2" cx="46.4" cy="43.4" r="2.7" id="circle44" fill="#01434f"/><circle class="cls-3" cx="46" cy="59.7" r="2.7" id="circle46" fill="#00aa81"/><circle class="cls-3" cx="60.3" cy="35.2" r="2.7" id="circle48" fill="#00aa81"/><circle class="cls-2" cx="33.2" cy="19.9" r="2.7" id="circle50" fill="#01434f"/><circle class="cls-3" cx="46.4" cy="11.6" r="2.7" id="circle52" fill="#00aa81"/><path class="cls-3" d="M74.8 18.6a2.3 2.3 0 0 1 2.3-2.3h10.7c9.1 0 14 3.8 14 11.2 0 7.4-4.6 11.2-12.9 11.3l12.4 14.7c.2.3-.8 1.9-2.5 1.9a3.3 3.3 0 0 1-2.5-1.4L83.7 38.8h-4.9v14.8a1.7 1.7 0 0 1-1.8 1.8h-.5c-1.1 0-1.7-.6-1.7-1.9zm13.4 16.8c6.4 0 9.4-3.1 9.4-7.7S94.4 20 87.9 20h-9.1v15.4z" id="path54" fill="#00aa81"/><path class="cls-3" d="M105.6 28.2c0-1.4.7-1.9 1.7-1.9h.4c1 0 1.7.4 1.7 1.9v25.4c0 1.4-.7 1.9-1.7 1.9h-.4c-1 0-1.7-.4-1.7-1.9z" id="path56" fill="#00aa81"/><path class="cls-3" d="M120.1 51.8a3.4 3.4 0 0 1-1.3-2.8 4.4 4.4 0 0 1 1.3-2.8 10.1 10.1 0 0 1-7.2-9.6c0-6 4.9-10.8 11.6-10.8a12.7 12.7 0 0 1 7.2 2.2l2-3.2c.8-1.2 1.5-1.8 2.8-1.8a2.3 2.3 0 0 1 2.2 1.7l-4.7 5.4a10 10 0 0 1 2.3 6.3c0 5.9-5.1 10.5-11.8 10.5H123a2.3 2.3 0 0 0-.4 1.4c0 2 2.7 2.2 7.9 3.5 5.2 1.3 8.4 2.9 8.4 7.5s-5.4 8.5-14.6 8.5-13.5-2.5-13.5-7.8 4.1-7.1 9.3-8.2zm4.3 12.9c6.6 0 10.6-1.9 10.6-5.2 0-3.3-5.4-4.2-10-5.4-4.6-1.2-10.4 2.3-10.4 6s3.4 4.6 9.9 4.6zm7.9-28.1c0-4.3-3.1-7.5-7.8-7.5a7.2 7.2 0 0 0-7.6 7.5c0 4.3 3.2 7.3 7.7 7.3s7.8-3 7.8-7.3z" id="path58" fill="#00aa81"/><path class="cls-3" d="M140.2 14.7c0-.1.6-.4 1.3-.4.7 0 2.6.7 2.6 3.8v13a11.1 11.1 0 0 1 9.7-5.3c7.6 0 11.4 5.1 11.4 12.6v15.2c0 1.4-.7 1.9-1.7 1.9h-.5c-1 0-1.7-.4-1.7-1.9V38.7c0-5.8-2.9-9.2-7.7-9.2-4.8 0-9.4 3.8-9.4 9.8v14.3c0 1.4-.7 1.9-1.7 1.9h-.4c-1 0-1.7-.4-1.7-1.9z" id="path60" fill="#00aa81"/><path class="cls-3" d="M171.1 30.1h-2.6c-1.4 0-1.9-.5-1.9-1.6v-.4c0-1 .4-1.6 1.9-1.6h2.6v-5c0-1.4.7-1.9 1.7-1.9h.4c1 0 1.7.4 1.7 1.9v5h7.6c1.4 0 1.9.5 1.9 1.6v.4c0 1-.4 1.6-1.9 1.6H175v16.3c0 4.2 1.1 6.2 4.3 6.2a5.5 5.5 0 0 0 4.5-2.1c.1-.1 1.3.4 1.3 1.9s-2.1 3.5-5.9 3.5c-5.6 0-8-3.2-8-9.1z" id="path62" fill="#00aa81"/><path class="cls-2" d="M187.7 18.6a2.7 2.7 0 0 1 2.9-2.6h1c2.1 0 2.6 1 3.5 3.1l10.2 22.7 10.3-22.7c.9-2.1 1.4-3.1 3.5-3.1h.8a2.7 2.7 0 0 1 2.9 2.6v35c0 1.3-.5 1.9-1.7 1.9h-.5c-1.1 0-1.7-.6-1.7-1.9V20.7l-10 22.2c-.7 1.6-1.6 2.6-3.5 2.6s-2.8-1-3.5-2.6l-10.3-22.2v32.9c0 1.3-.5 1.9-1.7 1.9h-.6c-1.1 0-1.6-.6-1.6-1.9z" id="path64" fill="#01434f"/><path class="cls-2" d="M241.2 25.9c8.1 0 13.4 5.7 13.4 14.4v.4c0 1.1-.4 1.3-1.6 1.3h-22.3a10.6 10.6 0 0 0 10.9 10.5c5.6 0 8.1-2.4 9.8-5.1a2.3 2.3 0 0 1 2.3 2.2c0 2-4.3 6.4-12.1 6.4s-14.8-6.2-14.8-15 6.1-15.1 14.4-15.1zm9.2 12.7c-.4-5.7-3.8-9.3-9.2-9.3-5.4 0-9.6 3.8-10.4 9.3z" id="path66" fill="#01434f"/><path class="cls-2" d="M257.6 48c1.9 2.6 5.1 4.6 9.8 4.6 4.7 0 7.4-1.9 7.4-4.8s-3-4.1-8.4-5.3c-5.4-1.2-10-2.2-10-8s4.3-8.7 10.9-8.7c6.6 0 10.6 3.3 10.6 5.5s-2 2.2-2.2 2a9.7 9.7 0 0 0-8.4-4.2c-4.7 0-7.2 2-7.2 4.8s2.7 3.9 8 5.1c5.3 1.2 10.5 2.3 10.5 8.2 0 5.9-4.3 8.7-11.3 8.7-7 0-11.8-3.7-11.8-5.8a2.3 2.3 0 0 1 2.1-2.1z" id="path68" fill="#01434f"/><path class="cls-2" d="M281.9 14.7c0-.1.6-.4 1.3-.4.7 0 2.6.7 2.6 3.8v13a11.1 11.1 0 0 1 9.7-5.3c7.6 0 11.4 5.1 11.4 12.6v15.2c0 1.4-.7 1.9-1.7 1.9h-.4c-1 0-1.7-.4-1.7-1.9V38.7c0-5.8-2.9-9.2-7.7-9.2-4.8 0-9.4 3.8-9.4 9.8v14.3c0 1.4-.7 1.9-1.7 1.9h-.4c-1 0-1.7-.4-1.7-1.9z" id="path70" fill="#01434f"/><path class="cls-2" d="M308.8 14.7v4.9h-.5v-4.9h-1.5v-.5h3.4v.5z" id="path72" fill="#01434f"/><path class="cls-2" d="M311 19.6l.4-5.3h.7l.7 2 .9 2.7 1-2.7.7-2h.7l.5 5.3h-.5l-.2-2.1-.2-2.6-.9 2.6-.7 2h-.6l-.7-2-.9-2.5s-.1 1.2-.2 2.5l-.2 2.1z" id="path74" fill="#01434f"/></g></g></svg>