<?xml version="1.0" encoding="UTF-8" standalone="no"?>
<!-- Created with Inkscape (http://www.inkscape.org/) -->
<svg xmlns:svg="http://www.w3.org/2000/svg" xmlns="http://www.w3.org/2000/svg" version="1.0" width="220" height="45" id="svg2">
  <defs id="defs4"/>
  <g transform="translate(-402.051, -487.003)" id="layer1">
    <g transform="matrix(0.910916, 0, 0, 0.910916, 386.124, 484.338)" id="g2408">
      <polyline id="polyline2384" points="160.391,17.903 160.391,13.057 143.104,13.057 143.104,37.99 160.391,37.99 160.391,32.933 150.103,32.933 150.103,27.406 158.66,27.406 158.66,22.566 150.103,22.566 150.103,17.903 160.391,17.903" style="fill: rgb(73, 38, 108);"/>
      <polyline id="polyline2386" points="190.875,33.07 180.075,33.07 180.075,13.057 172.99,13.057 172.99,37.99 190.875,37.99 190.875,33.07" style="fill: rgb(73, 38, 108);"/>
      <path d="M 247.939,22.559 C 243.158,21.482 241.484,21.357 241.484,19.455 C 241.484,17.69 243.853,17.141 245.216,17.141 C 247.42,17.141 250.023,17.655 252.676,19.015 L 254.605,14.427 C 251.886,12.945 248.398,12.328 245.043,12.328 C 238.45,12.328 234.026,15.003 233.84,20.218 C 233.652,24.974 237.519,26.753 241.073,27.487 C 244.499,28.195 247.975,28.801 248.045,30.836 C 248.108,32.713 246.42,33.517 243.235,33.517 C 240.285,33.517 237.542,32.569 234.74,31.395 L 233.102,36.382 C 236.324,37.752 239.594,38.507 242.965,38.507 C 247.649,38.507 251.067,37.776 253.583,35.414 C 255.327,33.792 255.898,31.834 255.898,29.965 C 255.902,26.024 253.445,23.804 247.939,22.559" id="path2388" style="fill: rgb(73, 38, 108);"/>
      <polyline id="polyline2390" points="133.053,17.979 133.053,13.057 111.309,13.057 111.309,17.979 118.655,17.979 118.655,37.99 125.698,37.99 125.698,17.979 133.053,17.979" style="fill: rgb(73, 38, 108);"/>
      <path d="M 215.047,13.057 L 215.047,28.898 C 215.047,30.139 215.047,30.482 214.973,30.965 C 214.745,32.475 213.283,33.351 210.949,33.382 C 209.221,33.354 207.955,32.843 207.366,31.94 C 207.069,31.476 206.925,30.642 206.925,29.31 L 206.925,13.057 L 199.577,13.057 L 199.577,30.24 C 199.577,32.621 199.895,33.696 200.97,35.055 C 202.744,37.272 206.202,38.438 210.963,38.438 C 211.017,38.438 211.064,38.438 211.12,38.438 C 211.145,38.438 211.188,38.438 211.224,38.438 C 217.599,38.438 220.892,35.952 221.843,33.626 C 222.318,32.498 222.353,31.964 222.353,29.688 L 222.353,13.057 L 215.047,13.057" id="path2392" style="fill: rgb(73, 38, 108);"/>
      <path d="M 114.628,6.23 L 73.421,14.434 L 73.421,17.308 L 73.552,17.274 C 100.774,10.657 114.627,6.677 114.739,6.649 C 114.893,6.609 114.947,6.489 114.926,6.388 C 114.903,6.282 114.792,6.194 114.628,6.23" id="path2394" style="fill: rgb(73, 38, 108);"/>
      <path d="M 79.716,8.01 L 79.716,8.006 L 79.716,8.01 M 81.125,5.446 C 79.122,5.56 75.413,8.527 73.377,10.289 C 65.27,17.303 59.242,23.75 54.859,30.502 C 45.722,35.396 34.071,40.429 22.505,44.357 L 22.226,44.451 L 20,50.445 L 21.271,49.954 C 28.629,47.15 40.91,41.884 52.043,36.03 C 51.416,37.702 51.1,39.239 51.1,40.64 C 51.1,41.685 51.275,42.657 51.624,43.54 C 52.324,45.304 53.704,46.64 55.617,47.399 C 58.466,48.536 62.353,48.557 66.788,47.214 C 78.118,43.78 91.557,33.236 94.483,31.139 L 94.595,31.06 C 94.71,30.977 94.718,30.852 94.67,30.767 C 94.606,30.67 94.471,30.644 94.36,30.712 L 94.359,30.712 L 94.36,30.712 L 94.216,30.799 C 91.076,32.684 75.818,41.743 65.9,44.403 C 60.848,45.758 56.998,45.018 55.546,42.987 C 55.042,42.293 54.799,41.415 54.799,40.391 C 54.799,38.392 55.74,35.847 57.552,33.018 C 59.22,32.069 60.778,31.141 62.182,30.259 C 71.858,24.821 83.006,14.248 83.482,7.794 C 83.484,7.75 83.484,7.699 83.484,7.651 C 83.484,7.094 83.243,6.521 82.82,6.098 C 82.366,5.635 81.768,5.404 81.125,5.446 z M 80.046,8.522 C 80.681,8.111 80.864,8.368 80.677,8.832 C 80.375,9.573 78.978,14.031 68.605,22.547 C 65.898,24.764 63.973,26.009 60.075,28.317 C 66.458,19.372 75.777,11.294 80.046,8.522 z" id="path2396" style="fill: rgb(110, 190, 68);"/>
      <polyline id="polyline2398" points="73.286,14.461 29.932,23.78 28.26,28.289 73.421,17.307 74.818,16.518 74.779,14.466 73.286,14.461" style="fill: rgb(73, 38, 108);"/>
    </g>
  </g>
</svg>