<?xml version="1.0" encoding="utf-8"?>
<!-- Generator: Adobe Illustrator 19.2.1, SVG Export Plug-In . SVG Version: 6.00 Build 0)  -->
<svg version="1.1" xmlns="http://www.w3.org/2000/svg" xmlns:xlink="http://www.w3.org/1999/xlink" x="0px" y="0px"
   viewBox="0 0 1085.5 396.5" enable-background="new 0 0 1085.5 396.5" xml:space="preserve">
<g id="Layer_17">
  <polyline fill="#FFFFFF" points="618.7,79.4 618.7,58.7 545,58.7 545,165 618.7,165 618.7,143.4 574.8,143.4 574.8,119.9 
    611.3,119.9 611.3,99.3 574.8,99.3 574.8,79.4 618.7,79.4   "/>
</g>
<g id="Layer_16">
  <polyline fill="#FFFFFF" points="748.7,144 702.6,144 702.6,58.7 672.4,58.7 672.4,165 748.7,165 748.7,144  "/>
</g>
<g id="Layer_15">
  <path fill="#FFFFFF" d="M992,99.2c-20.4-4.6-27.5-5.1-27.5-13.2c0-7.6,10.1-9.9,15.9-9.9c9.4,0,20.5,2.2,31.8,8l8.2-19.6
    c-11.6-6.3-26.4-8.9-40.7-8.9c-28.1,0-47,11.4-47.8,33.6c-0.8,20.3,15.7,27.9,30.8,31c14.6,3,29.4,5.6,29.7,14.3
    c0.3,8-6.9,11.4-20.5,11.4c-12.6,0-24.3-4-36.2-9l-7,21.3c13.7,5.8,27.7,9.1,42.1,9.1c20,0,34.5-3.1,45.3-13.2
    c7.5-6.9,9.9-15.3,9.9-23.2C1026,114,1015.5,104.5,992,99.2"/>
</g>
<g id="Layer_14">
  <polyline fill="#FFFFFF" points="502.1,79.7 502.1,58.7 409.4,58.7 409.4,79.7 440.7,79.7 440.7,165 470.7,165 470.7,79.7 
    502.1,79.7  "/>
</g>
<g id="Layer_13">
  <path fill="#FFFFFF" d="M851.7,58.7v67.6c0,5.3,0,6.8-0.3,8.8c-1,6.4-7.2,10.2-17.2,10.3c-7.4-0.1-12.8-2.3-15.3-6.1
    c-1.3-2-1.9-5.5-1.9-11.2V58.7h-31.3V132c0,10.1,1.4,14.7,5.9,20.5c7.6,9.5,22.3,14.5,42.6,14.5c0.2,0,0.4,0,0.7,0
    c0.1,0,0.3,0,0.4,0c27.2,0,41.2-10.6,45.3-20.5c2-4.8,2.2-7.1,2.2-16.8V58.7H851.7"/>
</g>
<g id="Layer_12">
  <path fill="#FFFFFF" d="M423.5,29.6L282.6,57.6c4.7-7.7,7.6-15,8.1-21.4c0-0.2,0-0.4,0-0.6c0-2.4-1-4.8-2.8-6.6
    c-1.9-1.9-4.5-2.9-7.2-2.8c-8.5,0.5-24.4,13.1-33,20.7c-9.1,7.9-17.5,15.6-25.4,23.2L62.4,104.4l-7.2,19.2l150.1-36.5
    c-14.4,15.3-26.6,30.5-36.7,46c-39,20.9-88.6,42.3-138,59.1l-1.2,0.4L20,218.1l5.4-2.1c31.4-12,83.7-34.4,131.2-59.4
    c-2.7,7.1-4,13.7-4,19.7c0,4.5,0.8,8.6,2.2,12.4c3,7.5,8.9,13.2,17,16.5c12.2,4.8,28.7,4.9,47.6-0.8
    c48.3-14.7,105.6-59.6,118.1-68.6l0.5-0.3c0.5-0.3,0.5-0.9,0.3-1.2c-0.3-0.4-0.8-0.5-1.3-0.3l-0.6,0.4c-13.4,8-78.5,46.6-120.8,58
    c-21.5,5.8-37.9,2.6-44.1-6c-2.2-2.9-3.2-6.7-3.2-11.1c0-8.5,4-19.4,11.8-31.4c7.1-4.1,13.8-8,19.7-11.8
    c26.6-14.9,55.7-39,73.6-61.5c99.4-24.5,150-39,150.5-39.2c0.7-0.2,0.9-0.7,0.8-1.1C424.7,29.8,424.2,29.5,423.5,29.6z M276.1,39.4
    c2.7-1.8,3.5-0.7,2.7,1.3c-0.7,1.7-2.9,8.4-12.2,20.2l-18.4,3.7v0l-0.9,0.2l-3.7,0.8C256.5,53.6,268.3,44.4,276.1,39.4z
     M227.3,99.2c-11.5,9.5-19.7,14.8-36.4,24.6c10.6-14.9,23.1-29.1,35.5-41.7l21.4-5.2l0.6-0.1c1.8-0.4,3.4-0.8,5.1-1.2
    C246.7,82.3,238.2,90.2,227.3,99.2z"/>
</g>
<g id="Layer_11">
  <path fill="#FFFFFF" d="M631.3,332.6v-18h-0.4c-1.2,3.1-3,5.9-5.4,8.4c-2.4,2.6-5.1,4.7-8.2,6.5c-3.1,1.8-6.3,3.2-9.8,4.1
    c-3.5,1-7,1.5-10.4,1.5c-7.2,0-13.5-1.3-18.8-3.9c-5.3-2.6-9.8-6.2-13.3-10.8c-3.6-4.6-6.2-9.9-7.9-16c-1.7-6.1-2.6-12.4-2.6-19.2
    c0-6.7,0.9-13.1,2.6-19.2c1.7-6,4.3-11.4,7.9-16c3.5-4.6,8-8.2,13.3-10.9c5.3-2.7,11.6-4,18.8-4c3.5,0,7,0.4,10.4,1.3
    c3.4,0.9,6.5,2.2,9.4,3.9c2.9,1.8,5.5,4,7.8,6.5c2.3,2.6,4,5.6,5.2,9h0.4v-54.3h11.6v131H631.3z M567.9,299.9
    c1.2,4.8,3,9.1,5.5,12.9c2.5,3.8,5.7,6.9,9.6,9.3c3.9,2.4,8.6,3.6,14.1,3.6c6.1,0,11.3-1.2,15.5-3.6c4.2-2.4,7.6-5.5,10.3-9.3
    c2.6-3.8,4.5-8.1,5.7-12.9c1.2-4.8,1.7-9.7,1.7-14.6c0-4.9-0.6-9.7-1.7-14.6c-1.2-4.8-3.1-9.1-5.7-12.9c-2.6-3.8-6-6.9-10.3-9.3
    c-4.2-2.4-9.4-3.6-15.5-3.6c-5.5,0-10.2,1.2-14.1,3.6c-3.9,2.4-7.1,5.5-9.6,9.3c-2.5,3.8-4.3,8.1-5.5,12.9
    c-1.2,4.8-1.7,9.7-1.7,14.6C566.1,290.2,566.7,295.1,567.9,299.9z"/>
</g>
<g id="Layer_10">
  <path fill="#FFFFFF" d="M679.4,201.6v18.5h-11.6v-18.5H679.4z M679.4,238v94.7h-11.6V238H679.4z"/>
</g>
<g id="Layer_9">
  <path fill="#FFFFFF" d="M783,343.8c-1.5,5.6-3.9,10.4-7.3,14.3c-3.3,3.9-7.6,6.9-12.9,9c-5.3,2.1-11.8,3.1-19.5,3.1
    c-4.8,0-9.4-0.6-13.9-1.7c-4.5-1.1-8.6-2.8-12.2-5.1c-3.6-2.3-6.6-5.3-9-8.9c-2.4-3.6-3.8-7.9-4.1-12.9h11.6
    c0.6,3.6,1.8,6.5,3.6,8.9c1.8,2.4,3.9,4.3,6.4,5.8c2.5,1.5,5.3,2.5,8.4,3.2c3.1,0.7,6.2,1,9.4,1c10.8,0,18.5-3.1,23.3-9.2
    c4.8-6.1,7.2-14.9,7.2-26.4v-12.9h-0.4c-2.7,5.9-6.6,10.6-11.8,14.1c-5.2,3.5-11.3,5.3-18.3,5.3c-7.6,0-14.1-1.3-19.4-3.8
    c-5.4-2.5-9.8-6-13.3-10.4c-3.5-4.4-6-9.6-7.6-15.5c-1.6-5.9-2.4-12.3-2.4-19c0-6.5,0.9-12.6,2.8-18.5c1.9-5.8,4.7-10.9,8.3-15.2
    c3.6-4.3,8.1-7.8,13.4-10.3c5.3-2.5,11.4-3.8,18.3-3.8c3.6,0,6.9,0.5,10,1.5c3.1,1,6,2.4,8.5,4.1c2.6,1.8,4.9,3.8,6.9,6.2
    c2,2.3,3.6,4.8,4.7,7.3h0.4V238h11.6v87C785.2,331.9,784.5,338.2,783,343.8z M756.4,318.6c3.8-2.1,7-5,9.5-8.4
    c2.6-3.5,4.5-7.5,5.8-12c1.3-4.5,1.9-9.2,1.9-13.9c0-4.6-0.6-9.3-1.7-13.9c-1.1-4.6-2.9-8.9-5.3-12.7c-2.4-3.8-5.6-6.8-9.5-9.2
    c-3.9-2.3-8.5-3.5-14-3.5c-5.5,0-10.2,1.1-14.1,3.4c-3.9,2.3-7.2,5.2-9.7,8.9c-2.6,3.7-4.4,7.9-5.6,12.6c-1.2,4.7-1.7,9.5-1.7,14.4
    c0,4.8,0.6,9.4,1.8,13.9c1.2,4.5,3.1,8.5,5.7,12c2.6,3.5,5.8,6.3,9.7,8.4c3.9,2.1,8.6,3.2,13.9,3.2
    C748.2,321.8,752.6,320.8,756.4,318.6z"/>
</g>
<g id="Layer_8">
  <path fill="#FFFFFF" d="M822.7,201.6v18.5h-11.6v-18.5H822.7z M822.7,238v94.7h-11.6V238H822.7z"/>
</g>
<g id="Layer_7">
  <path fill="#FFFFFF" d="M886.2,238v9.7h-19.3v63.9c0,3.8,0.5,6.8,1.6,8.9c1,2.1,3.6,3.3,7.8,3.6c3.3,0,6.6-0.2,9.9-0.6v9.7
    c-1.7,0-3.4,0.1-5.1,0.2c-1.7,0.1-3.4,0.2-5.1,0.2c-7.7,0-13.1-1.5-16.1-4.5c-3.1-3-4.5-8.5-4.4-16.6v-64.8h-16.5V238h16.5v-28.4
    h11.6V238H886.2z"/>
</g>
<g id="Layer_6">
  <path fill="#FFFFFF" d="M908.9,252.6c2-4,4.6-7.3,8-9.9c3.4-2.6,7.3-4.5,11.8-5.7c4.5-1.2,9.5-1.8,15-1.8c4.2,0,8.3,0.4,12.5,1.2
    c4.2,0.8,7.9,2.3,11.2,4.5c3.3,2.2,6,5.3,8.1,9.3c2.1,4,3.1,9.2,3.1,15.5V316c0,4.6,2.3,6.9,6.8,6.9c1.3,0,2.6-0.2,3.7-0.7v9.7
    c-1.3,0.2-2.5,0.4-3.6,0.5c-1,0.1-2.4,0.2-3.9,0.2c-2.9,0-5.3-0.4-7.1-1.2c-1.8-0.8-3.1-1.9-4.1-3.4c-1-1.5-1.6-3.2-1.9-5.2
    c-0.3-2-0.5-4.2-0.5-6.7h-0.4c-2.1,3.1-4.2,5.8-6.3,8.2c-2.1,2.4-4.5,4.4-7.2,6c-2.6,1.6-5.6,2.8-9,3.7c-3.4,0.9-7.4,1.3-12,1.3
    c-4.4,0-8.5-0.5-12.4-1.6c-3.9-1-7.2-2.7-10.1-4.9c-2.9-2.3-5.2-5.1-6.8-8.6c-1.6-3.5-2.5-7.6-2.5-12.4c0-6.6,1.5-11.8,4.4-15.5
    c2.9-3.7,6.8-6.6,11.6-8.5c4.8-2,10.3-3.3,16.3-4.1c6.1-0.8,12.2-1.6,18.5-2.3c2.4-0.2,4.6-0.5,6.4-0.9c1.8-0.4,3.4-1,4.6-1.9
    c1.2-0.9,2.2-2.2,2.8-3.8c0.7-1.6,1-3.7,1-6.2c0-3.9-0.6-7.1-1.9-9.6c-1.3-2.5-3-4.5-5.3-6c-2.3-1.5-4.9-2.5-7.9-3
    c-3-0.6-6.2-0.8-9.6-0.8c-7.3,0-13.3,1.7-18,5.2c-4.6,3.5-7.1,9.1-7.3,16.8h-11.6C905.8,261.5,907,256.7,908.9,252.6z M966.7,280.9
    c-0.7,1.4-2.1,2.3-4.2,2.9c-2.1,0.6-3.9,1-5.5,1.3c-4.9,0.8-9.9,1.6-15.1,2.3c-5.2,0.7-9.9,1.7-14.2,3c-4.3,1.3-7.8,3.3-10.6,5.8
    c-2.7,2.5-4.1,6.1-4.1,10.7c0,2.9,0.6,5.6,1.7,7.8c1.2,2.3,2.7,4.2,4.7,5.9c1.9,1.7,4.2,2.9,6.8,3.8c2.6,0.9,5.2,1.3,7.9,1.3
    c4.4,0,8.6-0.7,12.7-2c4-1.3,7.6-3.3,10.6-5.9c3-2.6,5.4-5.7,7.2-9.4c1.8-3.7,2.7-7.8,2.7-12.5v-15.1H966.7z"/>
</g>
<g id="Layer_5">
  <path fill="#FFFFFF" d="M1017.2,201.6v131h-11.6v-131H1017.2z"/>
</g>
<g id="Layer_4">
  <path fill="#FFFFFF" d="M1032.3,201.6h13.2v1.5h-5.7v16.7h-1.7v-16.7h-5.7V201.6z"/>
</g>
<g id="Layer_3">
  <path fill="#FFFFFF" d="M1048.5,219.7v-18.1h2.6l5.9,16h0.1l5.8-16h2.6v18.1h-1.7v-16.1h0l-5.9,16.1h-1.6l-6-16.1h0v16.1H1048.5z"
    />
</g>
</svg>
