<svg xmlns="http://www.w3.org/2000/svg" width="1045.5" height="344.007"><path fill="#fff" d="M598.7 53.207v-20.7H525v106.3h73.7v-21.6h-43.9v-23.5h36.5v-20.6h-36.5v-19.9h43.9M728.7 117.807h-46.1v-85.3h-30.2v106.3h76.3v-21M972 73.007c-20.4-4.6-27.5-5.1-27.5-13.2 0-7.6 10.1-9.9 15.9-9.9 9.4 0 20.5 2.2 31.8 8l8.2-19.6c-11.6-6.3-26.4-8.9-40.7-8.9-28.1 0-47 11.4-47.8 33.6-.8 20.3 15.7 27.9 30.8 31 14.6 3 29.4 5.6 29.7 14.3.3 8-6.9 11.4-20.5 11.4-12.6 0-24.3-4-36.2-9l-7 21.3c13.7 5.8 27.7 9.1 42.1 9.1 20 0 34.5-3.1 45.3-13.2 7.5-6.9 9.9-15.3 9.9-23.2 0-16.9-10.5-26.4-34-31.7M482.1 53.507v-21h-92.7v21h31.3v85.3h30v-85.3h31.4M831.7 32.507v67.6c0 5.3 0 6.8-.3 8.8-1 6.4-7.2 10.2-17.2 10.3-7.4-.1-12.8-2.3-15.3-6.1-1.3-2-1.9-5.5-1.9-11.2v-69.4h-31.3v73.3c0 10.1 1.4 14.7 5.9 20.5 7.6 9.5 22.3 14.5 42.6 14.5h1.1c27.2 0 41.2-10.6 45.3-20.5 2-4.8 2.2-7.1 2.2-16.8v-71h-31.1M403.5 3.407l-140.9 28c4.7-7.7 7.6-15 8.1-21.4v-.6c0-2.4-1-4.8-2.8-6.6-1.9-1.9-4.5-2.9-7.2-2.8-8.5.5-24.4 13.1-33 20.7-9.1 7.9-17.5 15.6-25.4 23.2l-159.9 34.3-7.2 19.2 150.1-36.5c-14.4 15.3-26.6 30.5-36.7 46-39 20.9-88.6 42.3-138 59.1l-1.2.4-9.4 25.5 5.4-2.1c31.4-12 83.7-34.4 131.2-59.4-2.7 7.1-4 13.7-4 19.7 0 4.5.8 8.6 2.2 12.4 3 7.5 8.9 13.2 17 16.5 12.2 4.8 28.7 4.9 47.6-.8 48.3-14.7 105.6-59.6 118.1-68.6l.5-.3c.5-.3.5-.9.3-1.2-.3-.4-.8-.5-1.3-.3l-.6.4c-13.4 8-78.5 46.6-120.8 58-21.5 5.8-37.9 2.6-44.1-6-2.2-2.9-3.2-6.7-3.2-11.1 0-8.5 4-19.4 11.8-31.4 7.1-4.1 13.8-8 19.7-11.8 26.6-14.9 55.7-39 73.6-61.5 99.4-24.5 150-39 150.5-39.2.7-.2.9-.7.8-1.1 0-.5-.5-.8-1.2-.7zm-147.4 9.8c2.7-1.8 3.5-.7 2.7 1.3-.7 1.7-2.9 8.4-12.2 20.2l-18.4 3.7-.9.2-3.7.8c12.9-12 24.7-21.2 32.5-26.2zm-48.8 59.8c-11.5 9.5-19.7 14.8-36.4 24.6 10.6-14.9 23.1-29.1 35.5-41.7l21.4-5.2.6-.1c1.8-.4 3.4-.8 5.1-1.2-6.8 6.7-15.3 14.6-26.2 23.6zM611.3 306.407v-18h-.4c-1.2 3.1-3 5.9-5.4 8.4-2.4 2.6-5.1 4.7-8.2 6.5-3.1 1.8-6.3 3.2-9.8 4.1-3.5 1-7 1.5-10.4 1.5-7.2 0-13.5-1.3-18.8-3.9-5.3-2.6-9.8-6.2-13.3-10.8-3.6-4.6-6.2-9.9-7.9-16-1.7-6.1-2.6-12.4-2.6-19.2 0-6.7.9-13.1 2.6-19.2 1.7-6 4.3-11.4 7.9-16 3.5-4.6 8-8.2 13.3-10.9 5.3-2.7 11.6-4 18.8-4 3.5 0 7 .4 10.4 1.3 3.4.9 6.5 2.2 9.4 3.9 2.9 1.8 5.5 4 7.8 6.5 2.3 2.6 4 5.6 5.2 9h.4v-54.3h11.6v131h-10.6zm-63.4-32.7c1.2 4.8 3 9.1 5.5 12.9 2.5 3.8 5.7 6.9 9.6 9.3 3.9 2.4 8.6 3.6 14.1 3.6 6.1 0 11.3-1.2 15.5-3.6 4.2-2.4 7.6-5.5 10.3-9.3 2.6-3.8 4.5-8.1 5.7-12.9 1.2-4.8 1.7-9.7 1.7-14.6s-.6-9.7-1.7-14.6c-1.2-4.8-3.1-9.1-5.7-12.9-2.6-3.8-6-6.9-10.3-9.3-4.2-2.4-9.4-3.6-15.5-3.6-5.5 0-10.2 1.2-14.1 3.6-3.9 2.4-7.1 5.5-9.6 9.3-2.5 3.8-4.3 8.1-5.5 12.9-1.2 4.8-1.7 9.7-1.7 14.6-.1 4.9.5 9.8 1.7 14.6zM659.4 175.407v18.5h-11.6v-18.5zm0 36.4v94.7h-11.6v-94.7zM763 317.607c-1.5 5.6-3.9 10.4-7.3 14.3-3.3 3.9-7.6 6.9-12.9 9-5.3 2.1-11.8 3.1-19.5 3.1-4.8 0-9.4-.6-13.9-1.7s-8.6-2.8-12.2-5.1c-3.6-2.3-6.6-5.3-9-8.9-2.4-3.6-3.8-7.9-4.1-12.9h11.6c.6 3.6 1.8 6.5 3.6 8.9 1.8 2.4 3.9 4.3 6.4 5.8 2.5 1.5 5.3 2.5 8.4 3.2 3.1.7 6.2 1 9.4 1 10.8 0 18.5-3.1 23.3-9.2 4.8-6.1 7.2-14.9 7.2-26.4v-12.9h-.4c-2.7 5.9-6.6 10.6-11.8 14.1-5.2 3.5-11.3 5.3-18.3 5.3-7.6 0-14.1-1.3-19.4-3.8-5.4-2.5-9.8-6-13.3-10.4s-6-9.6-7.6-15.5c-1.6-5.9-2.4-12.3-2.4-19 0-6.5.9-12.6 2.8-18.5 1.9-5.8 4.7-10.9 8.3-15.2 3.6-4.3 8.1-7.8 13.4-10.3 5.3-2.5 11.4-3.8 18.3-3.8 3.6 0 6.9.5 10 1.5 3.1 1 6 2.4 8.5 4.1 2.6 1.8 4.9 3.8 6.9 6.2 2 2.3 3.6 4.8 4.7 7.3h.4v-16h11.6v87c-.5 6.9-1.2 13.2-2.7 18.8zm-26.6-25.2c3.8-2.1 7-5 9.5-8.4 2.6-3.5 4.5-7.5 5.8-12 1.3-4.5 1.9-9.2 1.9-13.9 0-4.6-.6-9.3-1.7-13.9s-2.9-8.9-5.3-12.7c-2.4-3.8-5.6-6.8-9.5-9.2-3.9-2.3-8.5-3.5-14-3.5s-10.2 1.1-14.1 3.4c-3.9 2.3-7.2 5.2-9.7 8.9-2.6 3.7-4.4 7.9-5.6 12.6-1.2 4.7-1.7 9.5-1.7 14.4 0 4.8.6 9.4 1.8 13.9 1.2 4.5 3.1 8.5 5.7 12s5.8 6.3 9.7 8.4c3.9 2.1 8.6 3.2 13.9 3.2 5.1 0 9.5-1 13.3-3.2zM802.7 175.407v18.5h-11.6v-18.5zm0 36.4v94.7h-11.6v-94.7zM866.2 211.807v9.7h-19.3v63.9c0 3.8.5 6.8 1.6 8.9 1 2.1 3.6 3.3 7.8 3.6 3.3 0 6.6-.2 9.9-.6v9.7c-1.7 0-3.4.1-5.1.2-1.7.1-3.4.2-5.1.2-7.7 0-13.1-1.5-16.1-4.5-3.1-3-4.5-8.5-4.4-16.6v-64.8H819v-9.7h16.5v-28.4h11.6v28.4zM888.9 226.407c2-4 4.6-7.3 8-9.9 3.4-2.6 7.3-4.5 11.8-5.7 4.5-1.2 9.5-1.8 15-1.8 4.2 0 8.3.4 12.5 1.2 4.2.8 7.9 2.3 11.2 4.5 3.3 2.2 6 5.3 8.1 9.3 2.1 4 3.1 9.2 3.1 15.5v50.3c0 4.6 2.3 6.9 6.8 6.9 1.3 0 2.6-.2 3.7-.7v9.7c-1.3.2-2.5.4-3.6.5-1 .1-2.4.2-3.9.2-2.9 0-5.3-.4-7.1-1.2-1.8-.8-3.1-1.9-4.1-3.4-1-1.5-1.6-3.2-1.9-5.2-.3-2-.5-4.2-.5-6.7h-.4c-2.1 3.1-4.2 5.8-6.3 8.2-2.1 2.4-4.5 4.4-7.2 6-2.6 1.6-5.6 2.8-9 3.7-3.4.9-7.4 1.3-12 1.3-4.4 0-8.5-.5-12.4-1.6-3.9-1-7.2-2.7-10.1-4.9-2.9-2.3-5.2-5.1-6.8-8.6-1.6-3.5-2.5-7.6-2.5-12.4 0-6.6 1.5-11.8 4.4-15.5 2.9-3.7 6.8-6.6 11.6-8.5 4.8-2 10.3-3.3 16.3-4.1 6.1-.8 12.2-1.6 18.5-2.3 2.4-.2 4.6-.5 6.4-.9 1.8-.4 3.4-1 4.6-1.9 1.2-.9 2.2-2.2 2.8-3.8.7-1.6 1-3.7 1-6.2 0-3.9-.6-7.1-1.9-9.6-1.3-2.5-3-4.5-5.3-6s-4.9-2.5-7.9-3c-3-.6-6.2-.8-9.6-.8-7.3 0-13.3 1.7-18 5.2-4.6 3.5-7.1 9.1-7.3 16.8h-11.6c.5-5.7 1.7-10.5 3.6-14.6zm57.8 28.3c-.7 1.4-2.1 2.3-4.2 2.9-2.1.6-3.9 1-5.5 1.3-4.9.8-9.9 1.6-15.1 2.3-5.2.7-9.9 1.7-14.2 3-4.3 1.3-7.8 3.3-10.6 5.8-2.7 2.5-4.1 6.1-4.1 10.7 0 2.9.6 5.6 1.7 7.8 1.2 2.3 2.7 4.2 4.7 5.9 1.9 1.7 4.2 2.9 6.8 3.8 2.6.9 5.2 1.3 7.9 1.3 4.4 0 8.6-.7 12.7-2 4-1.3 7.6-3.3 10.6-5.9 3-2.6 5.4-5.7 7.2-9.4 1.8-3.7 2.7-7.8 2.7-12.5v-15.1h-.6zM997.2 175.407v131h-11.6v-131zM1012.3 175.407h13.2v1.5h-5.7v16.7h-1.7v-16.7h-5.7v-1.5zM1028.5 193.507v-18.1h2.6l5.9 16h.1l5.8-16h2.6v18.1h-1.7v-16.1l-5.9 16.1h-1.6l-6-16.1v16.1z"/></svg>