<svg xmlns="http://www.w3.org/2000/svg" width="132" height="180"><g fill="#fff" stroke-width=".1"><path d="M66 66.845l7.036 51.051 23.13-38.647-9.814 42.508 24.933-23.854-12.984 31.493 20.746-15.483c-9.656 26.279-18.072 41.012-53.047 52.988-34.976-11.976-43.39-26.709-53.047-52.988l20.745 15.483-12.983-31.493 24.933 23.854-9.814-42.508 23.129 38.647L66 66.846M29.36 49.741c-10.598 0-16.926-5.67-16.926-15.2v-22.81h8.786v22.452c0 5.536 2.911 8.58 8.209 8.58 5.431 0 8.312-2.916 8.312-8.423V11.73h8.844v22.66c0 9.471-6.6 15.351-17.225 15.351M66.33 49.11H54.06V11.73H66.51c9.104 0 14.12 3.535 14.12 9.929 0 3.364-1.755 5.953-5.104 7.54 4.49 1.585 6.77 4.55 6.77 8.838 0 7.146-5.666 11.072-15.968 11.072m-3.781-6.241h3.781c3.418 0 7.479-.873 7.479-5.04 0-4.295-4.13-5.208-7.604-5.208h-3.656zm0-16.121h3.193c4.275 0 6.64-1.604 6.64-4.512 0-2.86-2.062-4.254-6.292-4.254h-3.541v8.766M106.907 49.741c-12.099 0-19.911-7.554-19.911-19.27 0-11.578 8.099-19.364 20.15-19.364 4.469 0 8.23.88 11.495 2.693l.287.159-1.313 7.612-.578-.386c-3.209-2.154-6.261-3.148-9.594-3.148-7.188 0-11.484 4.632-11.484 12.387 0 7.613 4.442 12.339 11.604 12.339 3.39 0 6.729-1.019 10.204-3.11l.572-.344 1.24 7.1-.276.162c-3.568 2.041-7.97 3.17-12.396 3.17"/><path d="M66 174.817C24.708 163.12 5 135.86 5 96.995V5h122v91.995c0 38.864-19.71 66.125-61 77.822zM0 0v97.62c0 41.027 22.322 70.73 66 82.38 43.676-11.65 66-41.353 66-82.38V0H0"/><path d="M66.002 62.35c9.202 0 10.447 3.733 17.86 3.687 7.385.046 8.65-3.688 17.853-3.688 9.202 0 10.469 3.734 17.86 3.688v-8.572c-7.391.051-8.658-3.637-17.86-3.637-9.203 0-10.468 3.688-17.854 3.637-7.412.051-8.657-3.637-17.859-3.637-9.204 0-10.448 3.688-17.86 3.637-7.385.051-8.651-3.637-17.853-3.637-9.204 0-10.475 3.688-17.86 3.637v8.572c7.385.046 8.656-3.688 17.86-3.688 9.202 0 10.468 3.734 17.854 3.688 7.411.046 8.655-3.688 17.859-3.688M71.833 77.837c4.439 1.062 6.552 3.09 12.028 3.056 7.386.046 8.651-3.688 17.854-3.688 9.202 0 10.469 3.734 17.86 3.688v-8.57c-7.391.049-8.658-3.638-17.86-3.638-9.203 0-10.468 3.687-17.854 3.638-5.95.04-7.929-2.328-13.238-3.264l1.21 8.778M48.143 80.893c5.474.034 7.586-1.993 12.024-3.056l1.21-8.777c-5.307.936-7.286 3.303-13.234 3.263-7.386.049-8.652-3.638-17.854-3.638-9.204 0-10.475 3.687-17.86 3.638v8.57c7.385.046 8.656-3.688 17.86-3.688 9.202 0 10.468 3.734 17.854 3.688M73.967 93.317c2.51.863 4.44 1.918 7.422 2.292l5.144-8.596c-.804.11-1.681.172-2.672.165-5.092.034-7.273-1.695-11.124-2.78l1.23 8.92M97.527 92.368c1.202-.19 2.57-.307 4.188-.307 9.202 0 10.469 3.734 17.86 3.688v-8.57c-7.391.049-8.658-3.64-17.86-3.64a30.4 30.4 0 0 0-2.168.078l-2.02 8.751M34.473 92.368l-2.02-8.75a30.27 30.27 0 0 0-2.164-.078c-9.204 0-10.475 3.688-17.86 3.638v8.571c7.385.046 8.656-3.688 17.86-3.688 1.615 0 2.982.117 4.184.307M50.61 95.61c2.984-.374 4.913-1.427 7.423-2.291l1.23-8.922c-3.849 1.087-6.03 2.815-11.12 2.781a18.543 18.543 0 0 1-2.677-.166l5.145 8.597"/></g></svg>