<?xml version="1.0" encoding="UTF-8" standalone="no"?>
<!-- Generator: Adobe Illustrator 16.0.0, SVG Export Plug-In . SVG Version: 6.00 Build 0)  -->

<svg
   xmlns:dc="http://purl.org/dc/elements/1.1/"
   xmlns:cc="http://creativecommons.org/ns#"
   xmlns:rdf="http://www.w3.org/1999/02/22-rdf-syntax-ns#"
   xmlns:svg="http://www.w3.org/2000/svg"
   xmlns="http://www.w3.org/2000/svg"
   xmlns:sodipodi="http://sodipodi.sourceforge.net/DTD/sodipodi-0.dtd"
   xmlns:inkscape="http://www.inkscape.org/namespaces/inkscape"
   version="1.1"
   id="Layer_1"
   x="0px"
   y="0px"
   width="612"
   height="142.41299"
   viewBox="0 324.761 612 142.41299"
   enable-background="new 0 324.761 612 142.414"
   xml:space="preserve"
   sodipodi:docname="wantoo.svg"
   inkscape:version="0.92.2 5c3e80d, 2017-08-06"><metadata
     id="metadata33"><rdf:RDF><cc:Work
         rdf:about=""><dc:format>image/svg+xml</dc:format><dc:type
           rdf:resource="http://purl.org/dc/dcmitype/StillImage" /></cc:Work></rdf:RDF></metadata><defs
     id="defs31" /><sodipodi:namedview
     pagecolor="#ffffff"
     bordercolor="#666666"
     borderopacity="1"
     objecttolerance="10"
     gridtolerance="10"
     guidetolerance="10"
     inkscape:pageopacity="0"
     inkscape:pageshadow="2"
     inkscape:window-width="1918"
     inkscape:window-height="2136"
     id="namedview29"
     showgrid="false"
     inkscape:zoom="0.58986928"
     inkscape:cx="311.08587"
     inkscape:cy="71.206999"
     inkscape:window-x="3840"
     inkscape:window-y="22"
     inkscape:window-maximized="0"
     inkscape:current-layer="Layer_1" /><g
     id="g26"
     transform="translate(0,-10e-4)"><g
       id="g12"><g
         id="g10"><path
           d="m 0,356.358 h 14.287 l 33.142,78.446 34.494,-78.446 h 2.51 l 34.687,78.446 33.785,-78.446 h 14.415 l -46.913,108.049 h -2.574 L 83.275,387.054 48.717,464.407 h -2.574 z"
           id="path2"
           inkscape:connector-curvature="0"
           style="fill:#e94095" /><path
           d="M 270.927,356.358 V 464.407 H 257.22 V 445.81 c -5.856,7.079 -12.356,12.42 -19.628,15.96 -7.272,3.604 -15.187,5.341 -23.811,5.341 -15.316,0 -28.38,-5.534 -39.191,-16.667 -10.811,-11.069 -16.217,-24.583 -16.217,-40.479 0,-15.574 5.47,-28.895 16.41,-39.899 10.94,-11.068 24.068,-16.603 39.449,-16.603 8.88,0 16.925,1.866 24.068,5.663 7.208,3.797 13.514,9.46 18.92,16.989 v -19.756 h 13.707 z m -55.536,10.619 c -7.723,0 -14.866,1.931 -21.43,5.728 -6.564,3.797 -11.777,9.138 -15.638,16.024 -3.861,6.886 -5.792,14.158 -5.792,21.816 0,7.594 1.931,14.865 5.856,21.815 3.926,6.95 9.138,12.356 15.703,16.217 6.564,3.861 13.643,5.792 21.172,5.792 7.594,0 14.801,-1.931 21.623,-5.728 6.821,-3.86 12.034,-9.009 15.702,-15.573 3.668,-6.563 5.534,-13.9 5.534,-22.138 0,-12.484 -4.119,-22.974 -12.356,-31.34 -8.237,-8.366 -18.34,-12.613 -30.374,-12.613 z"
           id="path4"
           inkscape:connector-curvature="0"
           style="fill:#e94095" /><path
           d="m 281.868,356.358 h 13.9 v 19.37 c 5.535,-7.4 11.713,-12.935 18.47,-16.603 6.757,-3.668 14.094,-5.534 22.073,-5.534 8.044,0 15.252,2.059 21.494,6.178 6.242,4.119 10.875,9.653 13.836,16.603 2.96,6.95 4.44,17.762 4.44,32.499 v 55.536 h -13.9 V 412.86 c 0,-12.42 -0.515,-20.786 -1.545,-24.904 -1.608,-7.144 -4.697,-12.549 -9.267,-16.153 -4.569,-3.604 -10.554,-5.406 -17.891,-5.406 -8.43,0 -15.959,2.767 -22.588,8.366 -6.628,5.534 -11.068,12.42 -13.192,20.657 -1.351,5.341 -1.995,15.188 -1.995,29.409 v 39.577 H 281.867 V 356.358 Z"
           id="path6"
           inkscape:connector-curvature="0"
           style="fill:#e94095" /><path
           d="M 440.177,368.778 H 409.48 v 63.517 c 0,4.055 0.386,7.401 1.158,10.039 0.772,2.639 1.866,4.698 3.346,6.179 1.48,1.479 3.218,2.51 5.213,3.024 1.995,0.514 4.184,0.836 6.5,0.836 2.188,0 4.44,-0.321 6.886,-0.9 2.381,-0.644 4.697,-1.48 6.886,-2.574 l 0.708,13.707 c -2.768,1.094 -5.728,1.931 -8.752,2.445 -3.024,0.516 -6.307,0.837 -9.911,0.837 -2.96,0 -6.049,-0.386 -9.331,-1.158 -3.281,-0.772 -6.307,-2.253 -9.073,-4.44 -2.768,-2.188 -5.084,-5.148 -6.886,-8.816 -1.802,-3.732 -2.703,-8.623 -2.703,-14.673 V 368.78 h -22.588 v -13.321 h 22.588 v -30.697 h 15.831 v 30.697 h 30.825 z"
           id="path8"
           inkscape:connector-curvature="0"
           style="fill:#e94095" /></g></g><g
       id="g18"><g
         id="g16"><path
           d="m 492.432,353.591 c 16.667,0 30.439,6.049 41.379,18.083 9.975,11.004 14.93,24.004 14.93,38.999 0,15.123 -5.276,28.315 -15.766,39.577 -10.49,11.262 -24.004,16.925 -40.543,16.925 -16.604,0 -30.117,-5.663 -40.672,-16.925 -10.489,-11.262 -15.766,-24.454 -15.766,-39.577 0,-14.93 4.955,-27.93 14.93,-38.934 10.939,-12.098 24.775,-18.148 41.508,-18.148 z m -0.065,13.579 c -11.584,0 -21.494,4.247 -29.796,12.806 -8.302,8.559 -12.484,18.856 -12.484,30.954 0,7.787 1.866,15.123 5.663,21.881 3.797,6.757 8.881,11.97 15.316,15.638 6.435,3.668 13.514,5.534 21.236,5.534 7.722,0 14.802,-1.866 21.236,-5.534 6.436,-3.668 11.584,-8.881 15.381,-15.638 3.797,-6.758 5.663,-14.029 5.663,-21.881 0,-12.098 -4.183,-22.459 -12.484,-30.954 -8.366,-8.495 -18.276,-12.806 -29.731,-12.806 z"
           id="path14"
           inkscape:connector-curvature="0"
           style="fill:#e94095" /></g></g><g
       id="g24"><g
         id="g22"><path
           d="m 555.69,353.591 c 16.668,0 30.439,6.049 41.38,18.083 9.975,11.004 14.93,24.004 14.93,38.999 0,15.123 -5.277,28.315 -15.767,39.577 -10.49,11.262 -24.004,16.925 -40.543,16.925 -16.603,0 -30.117,-5.663 -40.671,-16.925 -10.489,-11.262 -15.767,-24.454 -15.767,-39.577 0,-14.93 4.955,-27.93 14.93,-38.934 11.006,-12.098 24.841,-18.148 41.508,-18.148 z m 0,13.579 c -11.583,0 -21.493,4.247 -29.795,12.806 -8.302,8.559 -12.484,18.856 -12.484,30.954 0,7.787 1.866,15.123 5.663,21.881 3.797,6.757 8.88,11.97 15.315,15.638 6.435,3.668 13.515,5.534 21.237,5.534 7.722,0 14.801,-1.866 21.236,-5.534 6.435,-3.668 11.583,-8.881 15.38,-15.638 3.797,-6.758 5.663,-14.029 5.663,-21.881 0,-12.098 -4.183,-22.459 -12.484,-30.954 -8.364,-8.495 -18.275,-12.806 -29.731,-12.806 z"
           id="path20"
           inkscape:connector-curvature="0"
           style="fill:#e94095" /></g></g></g></svg>