<svg xmlns="http://www.w3.org/2000/svg" width="612" height="142.413" viewBox="0 324.761 612 142.413"><g fill="#e94095"><path d="M0 356.357h14.287l33.142 78.446 34.494-78.446h2.51l34.687 78.446 33.785-78.446h14.415l-46.913 108.049h-2.574l-34.558-77.353-34.558 77.353h-2.574zM270.927 356.357v108.049H257.22v-18.597c-5.856 7.079-12.356 12.42-19.628 15.96-7.272 3.604-15.187 5.341-23.811 5.341-15.316 0-28.38-5.534-39.191-16.667-10.811-11.069-16.217-24.583-16.217-40.479 0-15.574 5.47-28.895 16.41-39.899 10.94-11.068 24.068-16.603 39.449-16.603 8.88 0 16.925 1.866 24.068 5.663 7.208 3.797 13.514 9.46 18.92 16.989v-19.756h13.707zm-55.536 10.619c-7.723 0-14.866 1.931-21.43 5.728-6.564 3.797-11.777 9.138-15.638 16.024-3.861 6.886-5.792 14.158-5.792 21.816 0 7.594 1.931 14.865 5.856 21.815 3.926 6.95 9.138 12.356 15.703 16.217 6.564 3.861 13.643 5.792 21.172 5.792 7.594 0 14.801-1.931 21.623-5.728 6.821-3.86 12.034-9.009 15.702-15.573 3.668-6.563 5.534-13.9 5.534-22.138 0-12.484-4.119-22.974-12.356-31.34s-18.34-12.613-30.374-12.613zM281.868 356.357h13.9v19.37c5.535-7.4 11.713-12.935 18.47-16.603 6.757-3.668 14.094-5.534 22.073-5.534 8.044 0 15.252 2.059 21.494 6.178 6.242 4.119 10.875 9.653 13.836 16.603 2.96 6.95 4.44 17.762 4.44 32.499v55.536h-13.9v-51.547c0-12.42-.515-20.786-1.545-24.904-1.608-7.144-4.697-12.549-9.267-16.153-4.569-3.604-10.554-5.406-17.891-5.406-8.43 0-15.959 2.767-22.588 8.366-6.628 5.534-11.068 12.42-13.192 20.657-1.351 5.341-1.995 15.188-1.995 29.409v39.577h-13.836V356.357zM440.177 368.777H409.48v63.517c0 4.055.386 7.401 1.158 10.039.772 2.639 1.866 4.698 3.346 6.179 1.48 1.479 3.218 2.51 5.213 3.024 1.995.514 4.184.836 6.5.836 2.188 0 4.44-.321 6.886-.9 2.381-.644 4.697-1.48 6.886-2.574l.708 13.707a43.98 43.98 0 0 1-8.752 2.445 58.585 58.585 0 0 1-9.911.837c-2.96 0-6.049-.386-9.331-1.158-3.281-.772-6.307-2.253-9.073-4.44-2.768-2.188-5.084-5.148-6.886-8.816-1.802-3.732-2.703-8.623-2.703-14.673v-68.021h-22.588v-13.321h22.588v-30.697h15.831v30.697h30.825z"/></g><path d="M492.432 353.59c16.667 0 30.439 6.049 41.379 18.083 9.975 11.004 14.93 24.004 14.93 38.999 0 15.123-5.276 28.315-15.766 39.577-10.49 11.262-24.004 16.925-40.543 16.925-16.604 0-30.117-5.663-40.672-16.925-10.489-11.262-15.766-24.454-15.766-39.577 0-14.93 4.955-27.93 14.93-38.934 10.939-12.098 24.775-18.148 41.508-18.148zm-.065 13.579c-11.584 0-21.494 4.247-29.796 12.806s-12.484 18.856-12.484 30.954c0 7.787 1.866 15.123 5.663 21.881 3.797 6.757 8.881 11.97 15.316 15.638 6.435 3.668 13.514 5.534 21.236 5.534 7.722 0 14.802-1.866 21.236-5.534 6.436-3.668 11.584-8.881 15.381-15.638 3.797-6.758 5.663-14.029 5.663-21.881 0-12.098-4.183-22.459-12.484-30.954-8.366-8.495-18.276-12.806-29.731-12.806z" fill="#e94095"/><path d="M555.69 353.59c16.668 0 30.439 6.049 41.38 18.083 9.975 11.004 14.93 24.004 14.93 38.999 0 15.123-5.277 28.315-15.767 39.577-10.49 11.262-24.004 16.925-40.543 16.925-16.603 0-30.117-5.663-40.671-16.925-10.489-11.262-15.767-24.454-15.767-39.577 0-14.93 4.955-27.93 14.93-38.934 11.006-12.098 24.841-18.148 41.508-18.148zm0 13.579c-11.583 0-21.493 4.247-29.795 12.806-8.302 8.559-12.484 18.856-12.484 30.954 0 7.787 1.866 15.123 5.663 21.881 3.797 6.757 8.88 11.97 15.315 15.638 6.435 3.668 13.515 5.534 21.237 5.534 7.722 0 14.801-1.866 21.236-5.534 6.435-3.668 11.583-8.881 15.38-15.638 3.797-6.758 5.663-14.029 5.663-21.881 0-12.098-4.183-22.459-12.484-30.954-8.364-8.495-18.275-12.806-29.731-12.806z" fill="#e94095"/></svg>