<?xml version="1.0" encoding="UTF-8" standalone="no"?>
<svg
   xmlns:dc="http://purl.org/dc/elements/1.1/"
   xmlns:cc="http://creativecommons.org/ns#"
   xmlns:rdf="http://www.w3.org/1999/02/22-rdf-syntax-ns#"
   xmlns:svg="http://www.w3.org/2000/svg"
   xmlns="http://www.w3.org/2000/svg"
   xmlns:sodipodi="http://sodipodi.sourceforge.net/DTD/sodipodi-0.dtd"
   xmlns:inkscape="http://www.inkscape.org/namespaces/inkscape"
   id="Layer_1"
   viewBox="0 0 448.87849 449.40004"
   width="2496.8804"
   height="2500.0002"
   version="1.1"
   sodipodi:docname="wolfram.svg"
   inkscape:version="0.92.2 5c3e80d, 2017-08-06">
  <metadata
     id="metadata14">
    <rdf:RDF>
      <cc:Work
         rdf:about="">
        <dc:format>image/svg+xml</dc:format>
        <dc:type
           rdf:resource="http://purl.org/dc/dcmitype/StillImage" />
      </cc:Work>
    </rdf:RDF>
  </metadata>
  <defs
     id="defs12" />
  <sodipodi:namedview
     pagecolor="#ffffff"
     bordercolor="#666666"
     borderopacity="1"
     objecttolerance="10"
     gridtolerance="10"
     guidetolerance="10"
     inkscape:pageopacity="0"
     inkscape:pageshadow="2"
     inkscape:window-width="1918"
     inkscape:window-height="2136"
     id="namedview10"
     showgrid="false"
     inkscape:zoom="0.0944"
     inkscape:cx="1280.4979"
     inkscape:cy="1250.1097"
     inkscape:window-x="3840"
     inkscape:window-y="22"
     inkscape:window-maximized="0"
     inkscape:current-layer="Layer_1" />
  <style
     id="style2">.st0{fill:#dd1403}</style>
  <g
     id="layer1"
     transform="translate(0.03924281,-0.0196636)">
    <path
       class="st0"
       d="M 210.4,449.3 C 198.2,448.4 181.5,445.6 169,442.5 79.7,419.9 13.9,345.5 1.3,252.9 c -2,-14.1 -1.7,-46 0.5,-60 11.5,-75 56.8,-137.1 124.1,-170.1 62.1,-30.4 134.9,-30.4 197,0 67.3,33 112.6,95.1 124.1,170.1 2.2,14 2.5,45.9 0.5,60 -10.2,75.2 -55.4,139.1 -122.1,172.5 -30.5,15.3 -60.6,22.8 -95,23.8 -8,0.3 -17,0.3 -20,0.1 z m 35.8,-23.5 c 19.3,-2.1 49,-10 48.4,-12.8 -0.2,-0.8 -14.7,-25.4 -32.2,-54.7 l -31.9,-53.1 -9.8,-0.7 c -5.4,-0.3 -15,-1.1 -21.3,-1.8 -14,-1.3 -49,-0.5 -67.5,1.7 -18.3,2.1 -17.6,2.2 -16.9,-1.7 2.5,-14.5 9.2,-30.6 16.5,-39.8 3.2,-4.1 3.8,-5.4 2.8,-6.1 -1.9,-1.2 -22.7,-7.9 -24.5,-7.9 -1.8,0 -1.8,-0.4 0.1,-3.9 2.9,-5.7 18.6,-16.6 33.4,-23.3 l 6.4,-2.8 -3.5,4.2 c -4.6,5.7 -10.8,15 -10.8,16.3 0,0.6 2.2,1.5 4.8,2.2 4.6,1.1 22.2,9 22.2,10 0,0.3 -2.6,3.5 -5.9,7.1 -8.8,10 -19.5,27.1 -17.9,28.7 0.3,0.3 2.7,0 5.4,-0.5 2.7,-0.6 12.1,-1.3 20.9,-1.6 15,-0.5 20.8,-0.1 96,7.5 44,4.4 81.7,8.3 83.7,8.6 3.7,0.5 3.8,0.4 11.4,-9 8.7,-10.9 8.8,-11.4 3.1,-22 -2.8,-5.2 -4.1,-6.4 -10.2,-9.8 -27.3,-15.2 -67.4,-45.4 -103.3,-78 -22.7,-20.6 -24.5,-22.8 -28.1,-33.7 -2.7,-8.3 -25.1,-85.6 -25.1,-86.6 0,-0.2 -0.6,-0.4 -1.3,-0.4 -2.2,0 -14,12.9 -19.2,20.9 -6.3,9.7 -10.9,19.7 -19.8,43.1 -11.1,29.1 -13.4,33.6 -20.1,40 -3.2,3 -8.5,9.5 -11.8,14.5 -17.3,25.9 -30.3,61.9 -48.3,134 l -8.2,33 4.4,5.7 c 6.6,8.3 25.6,26.5 35,33.5 29,21.5 63.2,35.1 98.3,39.2 10.9,1.2 33.6,1.3 44.8,0 z m 96.5,-37.1 c 11.5,-8.2 30,-25.7 39,-36.8 55.3,-68.5 59.8,-166 11.2,-239 C 367.7,75.1 331.4,47.3 288.2,32.8 240.6,16.9 185.5,19.9 140.1,40.8 113.7,52.9 88.3,72.2 70.3,93.7 38.8,131.4 22.5,175.8 22.4,224.1 c 0,29.1 4.8,53.3 16,80.1 1.8,4.3 3.6,7.5 4,7 0.5,-0.4 4.3,-10 8.5,-21.2 23.6,-62.7 46.5,-107.1 70.1,-136.1 4.7,-5.8 7.2,-10 8.8,-14.8 10.8,-31.6 29.1,-65.6 46.8,-86.7 6.4,-7.7 17.7,-18.9 18.4,-18.2 0.1,0.1 5.5,16.4 12,36.2 6.5,19.8 11.9,36.2 12,36.3 0.6,1 5.1,-3 25.7,-23 l 22.4,-21.7 0.7,7.2 c 2.5,28.3 3.7,54.3 3.7,82.4 l 0.1,32.2 9.1,7.9 c 19.8,17 45.2,35.6 83.7,61.1 13.5,9 24.9,16.6 25.3,17.1 0.8,0.7 -22.6,32.6 -30.5,41.4 -3.8,4.2 -5,4.9 -9.8,5.7 -6.8,1.1 -24.1,-0.1 -59,-4 -14.5,-1.7 -26.6,-2.8 -26.8,-2.6 -0.4,0.3 14.7,19.3 55.8,70.3 6.7,8.3 12.5,15.2 12.8,15.2 0.2,0 5,-3.2 10.5,-7.2 z m -85.5,-269.5 -0.3,-25.1 -16.2,15.6 -16.2,15.7 2.4,11.5 c 1.4,6.3 2.7,12.5 3,13.7 0.3,1.2 3.7,4.4 8.2,7.6 4.3,3 10.1,7.3 12.8,9.6 l 5,4.1 0.8,-13.7 c 0.4,-7.6 0.6,-25.1 0.5,-39 z"
       id="path4"
       inkscape:connector-curvature="0"
       style="fill:#dd1403" />
    <path
       class="st0"
       d="m 241.9,236.8 c -4.5,-2.9 -14.8,-6 -20.5,-6.2 l -5,-0.2 0.6,-3 c 0.4,-1.6 1.4,-5 2.4,-7.5 l 1.8,-4.5 7.3,0.1 c 4.8,0 9.7,0.8 14,2.2 7.3,2.5 25.7,13.9 24.3,15.1 -1,0.9 -19.4,6.1 -20.9,6 -0.6,0 -2.3,-0.9 -4,-2 z"
       id="path6"
       inkscape:connector-curvature="0"
       style="fill:#dd1403" />
  </g>
</svg>
